<svg id="Layer_20" data-name="Layer 20" xmlns="http://www.w3.org/2000/svg" viewBox="0 0 128 128"><defs><style>.cls-1{fill:#dd222b;}.cls-2{fill:#9e9c9c;}.cls-3{fill:#1993ff;}.cls-3,.cls-4,.cls-5,.cls-6,.cls-7,.cls-8,.cls-9{fill-rule:evenodd;}.cls-4{fill:#f69768;}.cls-5{fill:#1687db;}.cls-6{fill:#062424;}.cls-7{fill:#fccb98;}.cls-8{fill:#653614;}.cls-9{fill:#023334;}</style></defs><g id="Layer_2" data-name="Layer 2"><g id="Layer_1-2" data-name="Layer 1-2"><path class="cls-1" d="M14.21,21.5V19.31a2.38,2.38,0,0,1,0-.26,12,12,0,0,1,3.32-7.35,20.07,20.07,0,0,1,6.66-4.52,39.12,39.12,0,0,1,7.15-2.35,40.88,40.88,0,0,1,4.29-1,56.83,56.83,0,0,1,7.14-.48,1.75,1.75,0,0,0,.56,0h6.78c1,0,2.07.06,3.13.1,1.74.07,3.47.19,5.19.34,2.17.18,4.33.41,6.47.78A49.31,49.31,0,0,1,75.17,7.05c1.28.5,2.62.78,3.92,1.2a127.14,127.14,0,0,1,16.83,6.11,59.69,59.69,0,0,1,9.17,5.13.89.89,0,0,1,.26.21,3.23,3.23,0,0,0,1.14,1c.94.57,1.89,1.13,2.83,1.71a22.07,22.07,0,0,1,5.3,4.38,12.66,12.66,0,0,1,2.94,5.95c.09.49.15,1,.23,1.47v2.13c0,.32-.08.64-.13.95A22.47,22.47,0,0,1,115.54,44a48,48,0,0,1-6,9.24c-.52.66-1.1,1.28-1.57,2s-.9,1.29-1.38,1.92A165.84,165.84,0,0,1,95.3,70c-1.69,1.76-3.42,3.47-5.17,5.14s-3.67,3.43-5.57,5.07a120.92,120.92,0,0,1-9.7,7.63A74.28,74.28,0,0,1,64.3,94.05a4.8,4.8,0,0,0-.7.39c-.9.6-1.81,1.17-2.75,1.7a26.2,26.2,0,0,1-9.16,3.24c-.51.08-1,.13-1.56.19H47.78a.47.47,0,0,1-.23,0,17.34,17.34,0,0,1-6.5-1.77,24.09,24.09,0,0,1-7.78-6.26,43.56,43.56,0,0,1-5.41-8.35,81.17,81.17,0,0,1-4.75-11.6c-.4-1.2-.72-2.41-1.22-3.57a86.06,86.06,0,0,1-4.65-14,96.52,96.52,0,0,1-2.43-14.34q-.33-3.7-.38-7.43c0-2.07,0-4.14.19-6.21a6.52,6.52,0,0,0-.06-1.87,5,5,0,0,0-.1-.64C14.37,22.84,14.3,22.17,14.21,21.5Z"/><path class="cls-2" d="M34.58,123.06a3.44,3.44,0,0,1-1.53,1.27,5.43,5.43,0,0,1-2.18.42H29.14v3.15H26.86V117.39h4.3a4.63,4.63,0,0,1,2.13.46,3.31,3.31,0,0,1,1.36,1.29,3.68,3.68,0,0,1,.49,1.89h0A3.54,3.54,0,0,1,34.58,123.06Zm-2.28-3.19a2.06,2.06,0,0,0-1.38-.42H29.14v3.21H31a1.86,1.86,0,0,0,1.33-.45,1.45,1.45,0,0,0,.5-1.14h0A1.46,1.46,0,0,0,32.3,119.87Z"/><path class="cls-2" d="M42.66,125.54H38.22l-1,2.36H34.9l4.5-10.58h2.14L46,127.9H43.62Zm-3.63-2h2.79l-1.4-3.41Z"/><path class="cls-2" d="M51.79,124.54H50v3.36H47.66V117.39h4.8a4.26,4.26,0,0,1,2.91.93,3.21,3.21,0,0,1,1,2.54h0a3.39,3.39,0,0,1-.59,2,3.5,3.5,0,0,1-1.65,1.21l2.56,3.75H54Zm1.81-4.68a2.11,2.11,0,0,0-1.33-.38H50v3h2.32a2,2,0,0,0,1.3-.41,1.36,1.36,0,0,0,.47-1.08h0a1.34,1.34,0,0,0-.46-1.14Z"/><path class="cls-2" d="M62,123.43l-1.22,1.26v3.21H58.51V117.39h2.31V122l4.27-4.6h2.79l-4.28,4.46,4.47,6.05H65.3Z"/><path class="cls-2" d="M78.62,125.38a5.35,5.35,0,0,1-2,2,6,6,0,0,1-5.73,0,5.29,5.29,0,0,1-2-1.95,5.45,5.45,0,0,1-.73-2.73h0A5.4,5.4,0,0,1,70.91,118a5.61,5.61,0,0,1,2.86-.72,5.88,5.88,0,0,1,2.87.72,5.32,5.32,0,0,1,2.71,4.69h0A5.45,5.45,0,0,1,78.62,125.38ZM76.51,121a3.11,3.11,0,0,0-5.41-.16L71,121a3.55,3.55,0,0,0-.41,1.66h0a3.44,3.44,0,0,0,.42,1.66,3.11,3.11,0,0,0,5.41.15l.08-.13a3.54,3.54,0,0,0,.41-1.65h0A3.44,3.44,0,0,0,76.51,121Z"/><path class="cls-2" d="M89.17,126.86a4.64,4.64,0,0,1-3.39,1.21,4.56,4.56,0,0,1-3.35-1.2,4.71,4.71,0,0,1-1.2-3.47v-6h2.29v6a2.83,2.83,0,0,0,.6,1.92,2.11,2.11,0,0,0,1.67.67,2.2,2.2,0,0,0,1.68-.64,2.71,2.71,0,0,0,.58-1.88v-6h2.32v5.93A4.72,4.72,0,0,1,89.17,126.86Z"/><path class="cls-2" d="M96.87,124.54H95.06v3.36H92.75V117.39h4.8a4.23,4.23,0,0,1,2.9.93,3.18,3.18,0,0,1,1.06,2.54h0a3.41,3.41,0,0,1-.61,2,3.47,3.47,0,0,1-1.64,1.21l2.56,3.75h-2.7Zm1.82-4.68a2.12,2.12,0,0,0-1.34-.38H95.06v3H97.4a2,2,0,0,0,1.3-.41,1.36,1.36,0,0,0,.47-1.08h0a1.37,1.37,0,0,0-.48-1.14Z"/><path class="cls-3" d="M64.46,21.34c-.28-.83-.08-2.6.6-5.33.55-1.77.43-3.07-.37-3.87-.75-.35-3.77,4.07-3.77,5.41A8.6,8.6,0,0,1,59.84,23c-.35.7,2,2,3.2,2.21q2-.89,1.42-3.9"/><path class="cls-4" d="M54.16,105.38c-.31,1.28,3.94.76,6.49.5,1-.11,1.6-1.43,2-3.15,2-7,3.06-11.34,3.13-12.6A42.27,42.27,0,0,0,65.89,82c-.16-1.86-5.34-1.21-5.27.75,0,.46.24,6.88.26,7.42.1,3.76.23,9.43-1.25,12.44-2.26,2.16-5.2,2-5.45,2.78"/><path class="cls-5" d="M66.3,71a51.53,51.53,0,0,1,.53,11.55c0,.71-7.79,1.37-7.79.8-.31-2.84-1.08-7.13-1.38-10.26-.1-4.39,7.28-5.27,8.64-2.09"/><path class="cls-3" d="M88.56,11.35q.21-1.29,3.06-4.39,2-1.95,1.51-3.58c-.48-.67-5.2,1.79-5.88,3a8.64,8.64,0,0,1-3.56,4.3c-.64.45.8,2.7,1.76,3.46,1.5.1,2.55-.81,3.12-2.74"/><path class="cls-6" d="M79.39,53.66c5-6.67,11.24-16.83,12.1-23.22.61-4.58-1.91-13.62-2.5-19-1.34-.55-5.08.56-5.12,1.07,0,4.69.06,12.94-.26,15.69-.75,6.19-13.55,15-16,19.93,5.5,1,11.22,5.31,11.78,5.53"/><path class="cls-7" d="M37.23,65.91c6.25-5.27,11.29,3,13.3,8.17-.11,1.33-.46,5.54-2.65,8-1.42,1.58-7.2-1.5-10.72-5.27a11.84,11.84,0,0,1-2.69-4.08c-.87-2.15-1.25-3.39,2.76-6.78"/><path class="cls-8" d="M38.88,69.27c1.88,1.51,3.11,1,4.64,1.59-.3-.82-.19-1.69.75-1.92,1.4-.38,2.09,2,1.7,3.07,1.45.22,2.37-.41,3.53-.75,0-3.31.27-4.68-2.15-7.43-5.2-5.71-10.34-1.67-13,2-1.13,1.56-2.37,4.46-4,5.21a2.86,2.86,0,0,0,2.3.3,3.48,3.48,0,0,1-1.1,2.26c2.26.92,4.66-1.38,7.34-4.32"/><path class="cls-3" d="M49,72c0,.9.07,2.55.14,5,.07,2.7,5.27,1.94,7.3,1.71,2.49-.27,6.86-1.26,9.08-3.38a62.57,62.57,0,0,0,14-21.76c-.64-4.12-11.68-6.53-14.19-6.38-1.2,2.37-1.56,4.11-3.08,6C56.57,60,49.16,63.63,49,72"/><path class="cls-7" d="M42.42,105.87C42,107.1,46.26,107,48.84,107c1,0,1.72-1.27,2.26-2.93,2.65-6.78,4.15-11,4.34-12.25a41,41,0,0,0,.94-8c0-1.87-5.21-1.74-5.35.2,0,.45-.42,6.87-.46,7.41-.26,3.76-.69,9.41-2.47,12.25-2.47,1.93-5.37,1.5-5.69,2.26"/><path class="cls-5" d="M57.88,72.8a50.6,50.6,0,0,1-.61,11.55c-.11.71-7.88.61-7.82,0,0-2.87-.38-7.2-.37-10.35.33-4.37,7.77-4.52,8.8-1.24"/><path class="cls-9" d="M79.47,53.61c3.49-8,8.1-16.61,7.35-23-.54-4.58-17.13-9-21.91-10.48-1.45-.19-2.89,4.51-2.8,5C68.5,27.84,77.25,31.8,77.76,33c.25,2.32-9.21,4.88-12.48,14.21,4.51.63,13,5.05,14.19,6.38"/></g></g></svg>