<svg id="Layer_23" data-name="Layer 23" xmlns="http://www.w3.org/2000/svg" viewBox="0 0 128 128"><defs><style>.cls-1{fill:#afdd3d;}.cls-2{fill:#08111f;}.cls-3{fill:#e3876b;}.cls-4{fill:#e3ab9b;}.cls-5{fill:#ff9878;}.cls-6{fill:#152c4d;}.cls-7{fill:#fff;}.cls-8{fill:#f08767;}.cls-9{fill:#285694;}.cls-10{fill:#361c19;}.cls-11{fill:#1d3e6b;}.cls-12{fill:#6655f5;}.cls-13{fill:#39308a;}.cls-14{fill:#d16847;}.cls-15{fill:#d9d4ff;}.cls-16{fill:#a63526;}.cls-17{fill:#963023;}.cls-18{fill:#5446c9;}.cls-19{fill:#b1aae0;}.cls-20{fill:#8a7df5;}.cls-21{fill:#4d41ba;}.cls-22{fill:#9e9c9c;}</style></defs><g id="Layer_2" data-name="Layer 2"><g id="Layer_1-2" data-name="Layer 1-2"><path class="cls-1" d="M12.29,20V17.76a2.38,2.38,0,0,1,.05-.26,12.64,12.64,0,0,1,3.45-7.66,21.13,21.13,0,0,1,6.92-4.7A42.33,42.33,0,0,1,30.15,2.7c1.48-.38,3-.75,4.45-1A57.55,57.55,0,0,1,42,1.19a2.32,2.32,0,0,0,.59-.05h6.77l.27,0c1.08,0,2.15.06,3.25.1,1.81.08,3.61.2,5.4.35,2.25.2,4.49.43,6.71.82A50.42,50.42,0,0,1,75.64,5c1.33.53,2.72.81,4.07,1.25A131.78,131.78,0,0,1,97.2,12.61a61.74,61.74,0,0,1,9.53,5.33.84.84,0,0,1,.27.22,3.4,3.4,0,0,0,1.19,1c1,.6,2,1.17,2.94,1.78a23.19,23.19,0,0,1,5.48,4.53,13.15,13.15,0,0,1,3.06,6.19c.1.5.16,1,.24,1.52v2.22c0,.33-.08.66-.13,1a23.26,23.26,0,0,1-2.21,7A50,50,0,0,1,111.34,53c-.54.68-1.15,1.32-1.63,2s-.93,1.35-1.44,2A168.9,168.9,0,0,1,96.54,70.37C94.79,72.19,93,74,91.16,75.71S87.41,79.22,85.39,81A124.16,124.16,0,0,1,75.3,88.9a76.71,76.71,0,0,1-11,6.51,4,4,0,0,0-.73.41c-.94.61-1.88,1.21-2.86,1.75A27.14,27.14,0,0,1,51.23,101l-1.63.19H47.16a1,1,0,0,0-.24,0,18.63,18.63,0,0,1-6.75-1.83,25.18,25.18,0,0,1-8.09-6.51,44.79,44.79,0,0,1-5.6-8.61,83.2,83.2,0,0,1-4.94-12.06c-.42-1.24-.75-2.51-1.27-3.71a89.07,89.07,0,0,1-4.83-14.56,100.37,100.37,0,0,1-2.52-14.9q-.36-3.86-.4-7.73,0-3.2.19-6.45a7.41,7.41,0,0,0-.05-1.94,5.2,5.2,0,0,0-.11-.67C12.46,21.43,12.38,20.73,12.29,20Z"/><path class="cls-2" d="M31.74,100.73a8.79,8.79,0,0,0,1.91-2.87l2,1.2s-1.94,2.59-2.21,3a5.29,5.29,0,0,1-1,1,14.39,14.39,0,0,1-1.37-.74,7,7,0,0,1,.14-1C31.34,101.15,31.54,100.94,31.74,100.73Z"/><path class="cls-3" d="M39.91,74.27c-2.65,2.8-4.29,7.77-4.07,8.56a6.19,6.19,0,0,1,.15,2,3.61,3.61,0,0,0,2.44,1.22A18.63,18.63,0,0,1,41,85.89l3.52-4.29s.81-4,.52-4.37a36.25,36.25,0,0,0-3.17-2Z"/><path class="cls-4" d="M40.3,83.73h0a0,0,0,0,1,0-.06h0a5.74,5.74,0,0,1,2.29-2.44.09.09,0,0,1,.07,0,0,0,0,0,1,0,.07h0a5.69,5.69,0,0,0-2.24,2.37s0,.08,0,.09A.06.06,0,0,1,40.3,83.73Z"/><path class="cls-5" d="M43.76,79.06C42,81,39.35,86.74,39,87.94s-.82,1.15-1.7,2.37-3.68,7.55-3.68,7.55c.11,1.12,1.52,1.37,2,1.2,2.21-2.45,5.53-5.35,6.11-6.39s.72-2.93,1.36-3.58,7-5.2,7.7-7.32S43.76,79.06,43.76,79.06Z"/><path class="cls-6" d="M56.71,70.32a1.92,1.92,0,0,0-.24,1,21.24,21.24,0,0,1-1.63,4.2c-.51.92-2.2,3.38-2.55,4.14a24.09,24.09,0,0,1-1.19,2.89,4.5,4.5,0,0,1-1.3-.37c-.7-.39-2.65-1.09-3.57-1.52s-2.51-1.39-3-1.55-.76-.27-.51-.62a5.84,5.84,0,0,0,.46-1c-.6-.27-3.61-2.92-3.63-3.3s0-.19.59-.82,3.09-3.07,4.29-4.41A14,14,0,0,1,46,67.35Z"/><path class="cls-7" d="M55.33,70.2a3.24,3.24,0,0,0-.86,2.62,2.69,2.69,0,0,0,.91,1.57l.18-.43a2.11,2.11,0,0,1-.66-1.2,2.8,2.8,0,0,1,.76-2.27Z"/><path class="cls-8" d="M30.35,71.06c-.41.63-1.55,1.21-1.45,1.36s.86.13,1.12-.15c-.09.16.29.42,1,0s1.47-1,1.47-1,.14-.81.12-.88l0-.09Z"/><path class="cls-5" d="M44.12,61.19a21,21,0,0,1-2,2.53c-.58.47-2,1-2.75,1.62S34.55,68.88,34,69.06a27,27,0,0,1-2.82.56,11.93,11.93,0,0,0-2.08,1.27c-.27.22-1.14.81-1.14.81.16.24,1.35,0,1.92-.3a5.28,5.28,0,0,1,2.49-.33c-1,.82-1.09,1.77-.92,2s.32-.13.51-.46a2.86,2.86,0,0,1,1.63-.86c.67-.14,1.08-.63,1.76-1.14s7-2.31,7.82-2.79,3.2-2.71,3.87-3.09.82-.49.82-.62-.35-1.76-.35-1.76Z"/><path class="cls-9" d="M51.59,56c-.75.27-3.48,1.1-4.19,1.28s-1.17.54-1.85,1.62-1.81,2.45-1.81,2.49c.52.88,3.32,1.87,3.32,1.87L47.47,65s.09.56-.09.46-.26.15-.25.36-.21.49-.5.88a3.07,3.07,0,0,1-1.1.89c-.16,0,.34.43,1.11,1.17s1.92,2.82,3.33,2.91,4.58-.9,5.21-1,2.09,0,1.9-.31-.49-.4-.38-1,.57-1.53.59-1.78,3.85-5.7,3.85-5.7l.72-.69V59.35c.09-.15.31-.55.22-.55a13.3,13.3,0,0,1-1.77-1.28,6,6,0,0,0-2-1.29,16,16,0,0,0-4.11-.82Z"/><path class="cls-7" d="M51.54,56.34c-.22.26-.61.31-.77.47a2.25,2.25,0,0,0,.91,2.39c2.44-.07,4.29-2.21,4.17-2.92s-1.29-.87-1.29-.87Z"/><path class="cls-5" d="M60.12,62a11.23,11.23,0,0,0,1.75-2.57c1.08.56,2.56,3.19,2.82,3.92A5.34,5.34,0,0,0,65.55,65a1,1,0,0,1-.41,1.31,9.17,9.17,0,0,1-2.13.81c-1.16.21-2.34.33-2.34.33s-.47-1.87-.47-1.94S60.12,62,60.12,62Z"/><path class="cls-10" d="M51.56,48.81c0-.81,1.24-1.39,2.27-1.3s-.2.54.27.76,2.18.81,2.22,1.78c.52,1-.35,1.7-.69,2.49s-.42,1.45-.5,1.5-.31-.12-.31-.12-2,.14-2-.43S51.56,48.81,51.56,48.81Z"/><path class="cls-5" d="M51.56,48.81c-.61.7-1.18,1.42-1.72,2.17-.09.12.19.32.27.4s.11.2-.22.41a4.49,4.49,0,0,0-1,.82.44.44,0,0,0,.17.31c.09,0,.39.24.39.35a2.29,2.29,0,0,1-.17.46.34.34,0,0,0,0,.2c-.06.17-.08.41,0,.45a1,1,0,0,1,0,.6c0,.28-.1.47,0,.55a1.94,1.94,0,0,0,1.12.29c.31-.1.67-.39.76-.32s0,.56.21.87-.2.47-.4.58.13,1.38.81,1.87c2.7-.52,3.85-2.45,3.71-2.71s-.82-.74-.82-1.31a2.52,2.52,0,0,1,.12-.86c-.12-.06-.11-.35-.11-.35a.91.91,0,0,0,.46-.92.71.71,0,0,0-.74-.68.77.77,0,0,0-.37.12,1.49,1.49,0,0,0-.49.24c-.11,0-.5-.23-.3-.52a.44.44,0,0,0,0-.61h0c-.14-.1-.09-.37.06-.73s.17-.81.2-.81c.21,0,.26.07.25,0-.09-.23-.12-.29-.55-.54A2.92,2.92,0,0,0,51.56,48.81Z"/><path class="cls-4" d="M54.92,52.57a.63.63,0,0,0-.63-.21.58.58,0,0,0-.34.29h0a1.2,1.2,0,0,0-.13.33h0a.8.8,0,0,1,.13-.32.32.32,0,0,1,.39.12c0,.06.13.24-.12.47h0c.2-.17.24-.37.12-.53a.37.37,0,0,0-.39-.15.58.58,0,0,1,.29-.22.63.63,0,0,1,.59.2h0Z"/><path class="cls-4" d="M51.36,55.41h0a3.71,3.71,0,0,1,.81-.21A2.08,2.08,0,0,0,53,55a1.38,1.38,0,0,0,.26-.64,3,3,0,0,1,.24-.71h0a.8.8,0,0,0,.65.25.87.87,0,0,0,.62-.39h0a1,1,0,0,1-.66.4.86.86,0,0,1-.66-.24,3.41,3.41,0,0,0-.23.68,1.31,1.31,0,0,1-.26.66,2.14,2.14,0,0,1-.82.23,5.6,5.6,0,0,0-.81.19Z"/><path class="cls-5" d="M60,65.43a2.47,2.47,0,0,0-2.2-.81A3.14,3.14,0,0,1,56,64.15c-.17,0-.24.65.16.81s1.51.6,1,.65a3,3,0,0,1-1.82-.34c-.47-.34-1-.74-1.21-.65s0,.63.38.92c-.63-.34-1.16-.38-.88.07-.06.62.64,1.22.64,1.22-.46-.22-.64-.26-.55-.06A4,4,0,0,0,55.88,68a5.75,5.75,0,0,0,2.44-.22,4.49,4.49,0,0,1,1.49-.3A3,3,0,0,0,60,65.43Z"/><path class="cls-11" d="M60,65.43a3.54,3.54,0,0,1-.19,2.06,7.36,7.36,0,0,0,.81-.06,1.81,1.81,0,0,0,.11-2A2.56,2.56,0,0,1,60,65.43Z"/><path class="cls-4" d="M56.09,66.39a2.52,2.52,0,0,1-1.57-.72h0a2.4,2.4,0,0,0,1.63.72h-.06Z"/><path class="cls-4" d="M55.83,67h0a2.8,2.8,0,0,1-2.12-1.17h0A2.8,2.8,0,0,0,55.79,67h0Z"/><path class="cls-4" d="M55.58,67.44h0a5,5,0,0,1-1.23-.53h0a5,5,0,0,0,1.21.53h0Z"/><path class="cls-4" d="M57,66.25h0A.26.26,0,0,1,56.7,66c0-.09,0-.13.25-.19h0s-.21.1-.21.15.09.13.24.16h0Z"/><path class="cls-4" d="M56.66,67h0a.24.24,0,0,1-.27-.2c0-.09,0-.13.24-.19h0a.2.2,0,0,0-.21.15s.1.13.24.16h0Z"/><path class="cls-4" d="M56.42,67.44h0a.26.26,0,0,1-.27-.2c0-.08,0-.14.24-.19h0s-.21.08-.21.14.1.13.24.16h0Z"/><path class="cls-4" d="M56.35,67.94h0c-.17,0-.27-.11-.27-.19s0-.14.24-.2h0s-.21.09-.21.15.1.13.24.16h0Z"/><path class="cls-4" d="M64.13,64.33h0a3,3,0,0,0-1.63-.49h0a3.11,3.11,0,0,1,1.67.5h0Z"/><path class="cls-4" d="M64.75,66.13a1.31,1.31,0,0,1-.28,0h0a.56.56,0,0,0,.61-.1.76.76,0,0,0-.07-.82h0a.83.83,0,0,1,.06.82A.51.51,0,0,1,64.75,66.13Z"/><path class="cls-11" d="M47.54,67.47h0a0,0,0,0,1,0-.07h0c.33-.58-.1-2.82-.36-3.64a7.42,7.42,0,0,1-.1-2.93,0,0,0,0,1,0,0h0a.06.06,0,0,1,0,.06,7.16,7.16,0,0,0,.11,2.88c.23.82.71,3.09.35,3.73A.08.08,0,0,1,47.54,67.47Z"/><path class="cls-11" d="M50.84,70.59h0c-1.11-.13-2.1-1.31-2.74-2.08a4.13,4.13,0,0,0-.64-.68c-.34-.22-.32-.54-.28-1a5.4,5.4,0,0,0,0-1.27.07.07,0,0,1,0-.06h0a.06.06,0,0,1,.06,0,7.06,7.06,0,0,1,0,1.3c0,.46-.06.72.23.91a4.38,4.38,0,0,1,.66.7c.64.76,1.63,1.92,2.66,2a0,0,0,0,1,0,.05h0A0,0,0,0,1,50.84,70.59Z"/><path class="cls-11" d="M51.79,70.32a0,0,0,0,1,0,0v-.07c.43-.11.86-.25,1.28-.38a6.93,6.93,0,0,1,2.38-.49.05.05,0,0,1,.05.06,0,0,0,0,1,0,.06h0a7,7,0,0,0-2.35.49c-.41.13-.81.27-1.28.38Z"/><path class="cls-11" d="M47,62.26h0a2.67,2.67,0,0,1-.57-.94.05.05,0,0,1,.07,0l0,0a2.53,2.53,0,0,0,.55.86,0,0,0,0,1,0,.07h0Z"/><path class="cls-11" d="M56.84,59.92a0,0,0,0,1-.05-.05c0-.1-.15-2.66,1.26-3.41a.06.06,0,0,1,.07.09s0,0,0,0c-1.35.72-1.21,3.26-1.2,3.31A.06.06,0,0,1,56.84,59.92Z"/><path class="cls-4" d="M42.4,65.43h0a.79.79,0,0,0,.22-.81h0a.85.85,0,0,1-.24.81Z"/><path class="cls-9" d="M43.13,77.57h0a.06.06,0,0,1,0-.08s2.79-4.12,3-4.41.08-.18,0-.26a.56.56,0,0,1-.12-.3,2,2,0,0,1,.36-.81,5.68,5.68,0,0,0,.82-1.63s0,0,.06,0a0,0,0,0,1,0,.07,6,6,0,0,1-.81,1.69,1.79,1.79,0,0,0-.35.72.69.69,0,0,0,.1.25c.08.11.12.18,0,.39s-3,4.34-3,4.38S43.15,77.57,43.13,77.57Z"/><path class="cls-9" d="M50.62,81.71s0,0,0,0a3,3,0,0,0-2.23-.92,4.5,4.5,0,0,1-1.71-.47,11.73,11.73,0,0,1-1-.7,5.14,5.14,0,0,0-2.26-1.19.06.06,0,0,1,0-.06.05.05,0,0,1,.07,0,5.29,5.29,0,0,1,2.31,1.2,9.68,9.68,0,0,0,1,.7,4.62,4.62,0,0,0,1.63.46,3.13,3.13,0,0,1,2.29,1,0,0,0,0,1,0,.07h0Z"/><path class="cls-9" d="M51.36,81.41a0,0,0,0,1,0,0,2.58,2.58,0,0,0-1.68-.81,6.38,6.38,0,0,1-1.8-.61.06.06,0,0,1,0-.08,0,0,0,0,1,.07,0h0a5.56,5.56,0,0,0,1.76.6,2.69,2.69,0,0,1,1.74.82.06.06,0,0,1,0,.08Z"/><path class="cls-9" d="M42.93,76.43h0a7.58,7.58,0,0,1-2.7-2.6.09.09,0,0,1,0-.07h.07A7.72,7.72,0,0,0,43,76.31s0,0,0,.07h0A.07.07,0,0,1,42.93,76.43Z"/><path class="cls-4" d="M40.69,90.21a2.6,2.6,0,0,1-1.77-.82.06.06,0,0,1,0-.08h0a0,0,0,0,1,.07,0h0a2.4,2.4,0,0,0,1.87.82.83.83,0,0,0,.67-.39.06.06,0,0,1,.08.08,1,1,0,0,1-.75.45Z"/><path class="cls-6" d="M31.74,100.73a7.31,7.31,0,0,0-2,2.24c-.25.65-2,4.44-1.51,4.53s3.73.59,4.07.22.13-.89.18-1.41,1-4.17.94-4.21-.47.63-.56.22a.87.87,0,0,0-.94-.8,1,1,0,0,0-.29.07C30.8,101.89,31.74,100.73,31.74,100.73Z"/><path class="cls-2" d="M28.76,106.64a4.67,4.67,0,0,1,3.25.16,2.12,2.12,0,0,0-3-.41A1.35,1.35,0,0,0,28.76,106.64Z"/><path class="cls-12" d="M81.9,74.69c-.31,1.26-1.68,5-1.68,6.46s.63,3.18-.91,3.45-3.25-1.81-3.25-3.72,2.39-8,2.39-8l2.39-1.16Z"/><path class="cls-13" d="M85.8,70.83a29.8,29.8,0,0,1-4.61-.68l-1,4.94c1.32-1,1.76-.4,1.76-.4.68-.76.91.36,3.14.31S85.8,70.83,85.8,70.83Z"/><path class="cls-5" d="M85.8,70.83A4.92,4.92,0,0,0,85,75a77.16,77.16,0,0,1,8.6,3.26,8.4,8.4,0,0,0,5.44,1,4.15,4.15,0,0,0,2-2.07,10.18,10.18,0,0,1-.32-2.26c.07-1,.91-8.76-.76-11.46s-10.66,2-10.66,2l.11.63a6.69,6.69,0,0,0,2.56,4.32,5,5,0,0,0-4.21-.29A21.67,21.67,0,0,1,85.8,70.83Z"/><path class="cls-14" d="M93.79,73.5s-.07,0-.08-.08a5,5,0,0,0-1.63-3,6.62,6.62,0,0,1-2.66-4.56c0-.05,0-.08.08-.08a.08.08,0,0,1,.09.06v0a6.51,6.51,0,0,0,2.58,4.42,5.11,5.11,0,0,1,1.7,3.08.08.08,0,0,1-.06.1Z"/><path class="cls-14" d="M97.18,79.11h0c-.36-.12-.44-.35-.54-.63a2.09,2.09,0,0,0-.45-.81.08.08,0,0,1,0-.12.09.09,0,0,1,.1,0,2.46,2.46,0,0,1,.49.88c.09.27.14.43.43.53a.07.07,0,0,1,0,.09h0A.1.1,0,0,1,97.18,79.11Z"/><path class="cls-13" d="M63.5,99.8a35.71,35.71,0,0,0,1-3.64L68,98.23a10,10,0,0,0-.72,4.33s-2.14.81-2.31.81-1.71.34-1.71,0,.1-2.13.1-2.23S63.5,99.8,63.5,99.8Z"/><path class="cls-5" d="M71,64.44c-1.33,5.36,2.06,11.61.21,14.33s-4.62,3.6-5.57,7.32a56.94,56.94,0,0,0-1.17,10.08A4,4,0,0,0,68,98.24a72.22,72.22,0,0,1,3.92-8.06C73.8,87,75.07,82,76.45,81.58a3.12,3.12,0,0,0,2.44-2.49,24.44,24.44,0,0,1,2.87-7.16,47.77,47.77,0,0,0,2.53-5.31Z"/><path class="cls-15" d="M77.25,48.26a31.88,31.88,0,0,0-5.2,4.4c0,.34-1.28,9.28-1.63,10.5s-.82,2.4-.26,2.4S74.93,66,76.78,67s7.27.26,7.75.36.81-5,.81-5a22,22,0,0,0,3.14,4.46c1.48-1.44,2.44-1.63,5.94-1.75s6.84-1.06,7.06-1.81a41,41,0,0,1-3.93-6.73,22,22,0,0,0-1.43-3.4c-.32-.37-6.1-3.26-6.32-3.4S77.25,48.26,77.25,48.26Z"/><path class="cls-7" d="M75.4,54.09a36.65,36.65,0,0,1,3.42-4.89l-.44-.34c-2.91,3.64-4.48,6.39-5.24,9.19a28.09,28.09,0,0,0-.65,7.81l.56.09c-.06-4.53,0-7.51,2.07-11.32a6,6,0,0,0,1.12.13c1.23,0,3.08-.48,5.17-2.84L81,51.56C78.48,54.36,76.38,54.28,75.4,54.09Z"/><path class="cls-5" d="M105.43,36.78c1.47,1.07,6.31,1.62,6.31,1.62-.3,1.28,1,2.73,1.63,4a9,9,0,0,1,.62,3.19s5.55,3.91,5.9,4.07c.9.3,1.38-.39,1.16-.46a5.22,5.22,0,0,1-1.39-1.17c-.08-.6-.28-2-.62-2.27s-1.49-.5-1.53-.56c-.14-.49.33-4.79,0-7s-.92-3.42-.94-3.88-6.39-3.54-6.51-3.58S105.43,36.78,105.43,36.78Z"/><path class="cls-16" d="M107.61,46.65c1.22,7.52,6.42,10.43,13.75,9.38a1,1,0,0,0,.83-1.18s0-.05,0-.07c-1.72-7.19-6.37-10.94-13.83-9.29A1,1,0,0,0,107.61,46.65Z"/><path class="cls-17" d="M122.17,55.39a1.06,1.06,0,0,0,0-.61c-1.72-7.19-6.37-10.94-13.83-9.29a1,1,0,0,0-.6.41C114.16,46.33,119,49.82,122.17,55.39Z"/><path class="cls-7" d="M114.59,49.28h0a.08.08,0,0,1-.07-.1h0a1.83,1.83,0,0,1,1.13-1.42.08.08,0,0,1,.1.05.08.08,0,0,1-.06.1c-.81.24-1,1.29-1,1.29A.35.35,0,0,1,114.59,49.28Z"/><path class="cls-7" d="M115.84,50h0a.08.08,0,0,1-.06-.09,1.78,1.78,0,0,1,1.1-1.42.07.07,0,1,1,0,.14c-.81.25-1,1.3-1,1.31A.07.07,0,0,1,115.84,50Z"/><path class="cls-7" d="M117,50.78h0a.07.07,0,0,1-.06-.09,1.83,1.83,0,0,1,1.1-1.43.08.08,0,0,1,.1.06.06.06,0,0,1,0,.09h0c-.81.23-1,1.28-1,1.3A.08.08,0,0,1,117,50.78Z"/><path class="cls-12" d="M110.43,30.44c-.76,3.54-5,6.56-5,6.56l-1.16-.47c-.12,1.16-1.2,3.94-2.11,4.54a41.67,41.67,0,0,0-4.61,4.69c-1.28,1.4-3.05,5.84-3.05,5.84l-3.94,2.11s-2.3,1.67-3.77,1.23S81.45,54,80,51.69a11.6,11.6,0,0,0-3.52-3.35c0-.11,1.63-.81,1.94-1.43s.82-2.11,1-1.71.44.52.48,0,.16-.76.4-.76.81-7.83,1.62-8.95a41.35,41.35,0,0,1,5.34-5.57A26.15,26.15,0,0,1,92.05,27l9-.35c3.31-.6,5.86,1.87,6.93,2.74A5.22,5.22,0,0,0,110.43,30.44Z"/><path class="cls-15" d="M94,28.9c-.23.26-1.24.4-1.32.81s2,3.1,3.25,4S98.77,37,99,36.66s1.86-4.07,1.12-5.56S94,28.9,94,28.9Z"/><path class="cls-10" d="M92.73,20.67c-.87.37-.87.89-1.09,1.18a2,2,0,0,1-.32.33,1,1,0,0,0,.42.08,2.89,2.89,0,0,0,.16,1.54,16.61,16.61,0,0,1,.42,2.8l7.41,1.45A36.64,36.64,0,0,1,101,23.17a1.76,1.76,0,0,0,.21-1.19A1.62,1.62,0,0,0,101,20.3a3.87,3.87,0,0,0,.48-.59,5.1,5.1,0,0,1-2.5-.4,5.17,5.17,0,0,0-2-.46c.47-.35.44-.65.44-.65a4.09,4.09,0,0,1-2.31.61c-1,0-1.79.22-2.11.76A2,2,0,0,0,92.73,20.67Z"/><path class="cls-5" d="M101.19,30.67c.11.53-.19.72-1.31,1.21.42,1.1-.7,3.82-.9,4.07s-.66-1.08-2.22-2.11a14.45,14.45,0,0,1-3.31-3.49s.53-.26.34-1.8c-2.33.87-2.57-1.85-2.13-2.4A1,1,0,0,1,93,25.93a.89.89,0,0,1,.29.32,1,1,0,0,0,.89-.64,2.35,2.35,0,0,0-.2-1.54c-.24-.57-.34-1.29-.12-1.41s.81-.56.89-.82a1,1,0,0,1,.12.23.74.74,0,0,0-.19-.76c-.11-.08,0-.26.14-.34a5.42,5.42,0,0,0,4,1.21.63.63,0,0,1-.31-.27,1.11,1.11,0,0,0,.55.22,2.84,2.84,0,0,0,.81-1.45,7.06,7.06,0,0,0,.76.88l.15-.4a6.73,6.73,0,0,1,.4,1.72c.06.74.81,1.91.7,2.94s-.57,2.79-.59,3.43S101.19,30.67,101.19,30.67Z"/><path class="cls-4" d="M92.77,26.65A.66.66,0,0,0,92,27m.06.05a.55.55,0,0,1,.67-.28.93.93,0,0,1,.49.38.38.38,0,0,0-.44.13.54.54,0,0,0,.09.74h0a0,0,0,0,0,0,0,.47.47,0,0,1-.05-.62.32.32,0,0,1,.45-.06h0a1.75,1.75,0,0,1,.19.81v0h0m0,0a1.39,1.39,0,0,0-.74-1.43Z"/><path class="cls-4" d="M98.32,32.25a1.86,1.86,0,0,1-.82-.46,4.34,4.34,0,0,0-1.24-.74c-.81-.25-1.42-.47-1.45-1a5.3,5.3,0,0,0-.6-1.77l-.06,0-.06.06a1.08,1.08,0,0,1-.24.18,0,0,0,1,1-.06-.06.69.69,0,0,0,.21-.16s.08-.08.13-.08h0a.14.14,0,0,1,.11.07,5.27,5.27,0,0,1,.63,1.81c0,.46.45.66,1.39.95a4.27,4.27,0,0,1,1.27.74,1.86,1.86,0,0,0,.81.45,9.4,9.4,0,0,0,1.4-.29m.05.05a9.8,9.8,0,0,1-1.41.29Z"/><path class="cls-5" d="M86.44,42.86a20.65,20.65,0,0,0,8.79-1A45.22,45.22,0,0,0,95.71,50c3.14.27,9.46,2.66,11,1.83s2.14-2.15,2.9-2.08,1.55.56,2.44.6,1.27-.81,1.52-.6a1,1,0,0,1-.28,1.39l-.16.08c-.82.39-2,.76-1.56,1.46a10.39,10.39,0,0,0,3.15,2.4c.57.16,1.93.38,1.78.74s-1.28.56-1.28.56c-.3.3-2.31.13-2.31.13a8.14,8.14,0,0,1-3.26-.15,16.42,16.42,0,0,0-3.8-1.25c-1,0-7.67,1-10,1.25s-2.53.24-3.18.28a1.49,1.49,0,0,1-1.46-1.12C91.05,54.8,87.66,48.11,86.44,42.86Z"/><path class="cls-4" d="M93.48,50.39h0v0a9.86,9.86,0,0,1,2.23-.41,0,0,0,1,1,0,.08h0a9.35,9.35,0,0,0-2.22.41Z"/><path class="cls-4" d="M92.74,56.19a1.77,1.77,0,0,1-1.23-.58m.06-.06a1.51,1.51,0,0,0,1.49.51.74.74,0,0,0,.54-.6h0v0a.8.8,0,0,1-.59.66,1.23,1.23,0,0,1-.27,0Z"/><path class="cls-4" d="M115,56.25h0A22.06,22.06,0,0,1,111,54.76m0,0H111a22.81,22.81,0,0,0,4.07,1.49v0s0,0-.06,0Z"/><path class="cls-4" d="M112.81,56.48h0a17.49,17.49,0,0,1-2.23-.6m0-.05a15.58,15.58,0,0,0,2.23.59,0,0,0,0,1,0,0h0Z"/><path class="cls-4" d="M110.57,54.12h0c.23,0,.37-.06.41-.18s0-.28-.23-.42m0-.06h.06a.53.53,0,0,1,.25.51c0,.09-.13.23-.48.24Z"/><path class="cls-4" d="M109.89,55.37h0c.23,0,.38-.07.42-.18s0-.29-.23-.43m.06,0a.51.51,0,0,1,.24.51c0,.08-.13.23-.49.24Z"/><path class="cls-4" d="M109.48,56.07c.22,0,.37,0,.4-.14s0-.23-.22-.34m.06-.05c.2.14.3.29.25.4s-.13.18-.49.19Z"/><path class="cls-18" d="M85.16,50.9H85.1a5.32,5.32,0,0,0-1.94-1c-1.54-.58-3.25-1.24-3.37-3.67a.08.08,0,0,1,.08-.08.08.08,0,0,1,.08.07c.08,2.33,1.7,2.94,3.25,3.53a5.61,5.61,0,0,1,2,1.05.07.07,0,0,1,0,.12Z"/><path class="cls-18" d="M81.78,48h0a2.74,2.74,0,0,1-1.32-2.35,1.88,1.88,0,0,0-.11-.62h0v.38a3,3,0,0,1-.09,1,.07.07,0,0,1-.11,0,.08.08,0,0,1,0-.09,2.85,2.85,0,0,0,.08-.92c0-.45,0-.59.11-.62s.15.08.2.17a2,2,0,0,1,.13.68,2.58,2.58,0,0,0,1.25,2.23.09.09,0,0,1,0,.12Z"/><path class="cls-18" d="M88.35,43.08a9.81,9.81,0,0,1-3.53-.5.07.07,0,0,1,0-.09,30.53,30.53,0,0,0,.31-3.44.08.08,0,0,1,.11,0s0,0,0,0a26,26,0,0,1-.31,3.41,15,15,0,0,0,6.06.31,16.06,16.06,0,0,0,4.59-1,19.93,19.93,0,0,1-.19-3,.06.06,0,0,1,.06-.08h0a.08.08,0,0,1,.07.08,21.65,21.65,0,0,0,.21,3,.12.12,0,0,1,0,.08C95,42.33,91.46,43.08,88.35,43.08Z"/><path class="cls-18" d="M94.57,33h-.08c-1.51-2.44-3.8-2.71-7.18-.88a.08.08,0,0,1-.11,0h0a.07.07,0,0,1,0-.1h0c3.48-1.88,5.83-1.59,7.4.92a.09.09,0,0,1,0,.12Z"/><path class="cls-18" d="M104.74,34.19a.08.08,0,0,0-.09-.08.08.08,0,0,0-.07.08,2.09,2.09,0,0,1-.29,1.06,9.87,9.87,0,0,0-.15-1.88.09.09,0,0,0-.09-.06h0s-.07,0-.06.08h0a12.36,12.36,0,0,1,.13,3,.08.08,0,0,0,.07.08h0a.07.07,0,0,0,.07-.07v-.91A2.32,2.32,0,0,0,104.74,34.19Z"/><path class="cls-4" d="M111.8,38.27h0a0,0,0,0,1,0-.05,5,5,0,0,1,2.44-3m.05,0a4.94,4.94,0,0,0-2.39,3l-.1.05Z"/><path class="cls-4" d="M117.37,45.33h0a12.27,12.27,0,0,0-1.9-.28m0,0a14.11,14.11,0,0,1,1.92.28Z"/><path class="cls-19" d="M85.41,62.23h0a.07.07,0,0,1-.07-.07h0a3.61,3.61,0,0,0-.14-1.5c-.15-.65-.28-1.21.2-1.33l.25-.06c.82-.2,2.65-.65,2.69-1.22v-.6A3.57,3.57,0,0,1,88.57,56a.07.07,0,0,1,.1,0h0a.08.08,0,0,1,0,.1h0a3.71,3.71,0,0,0-.19,1.4v.61c0,.67-1.84,1.12-2.8,1.36l-.25.06c-.31.08-.24.48-.09,1.13a4.06,4.06,0,0,1,.15,1.55A.07.07,0,0,1,85.41,62.23Z"/><path class="cls-19" d="M88.1,65.69a.11.11,0,0,1-.08,0,.11.11,0,0,1,0-.11c2.09-1.32,3.92-1.21,5.86-1.1a8.1,8.1,0,0,1,1.09,0,.09.09,0,0,1,.08.08s0,.08-.08.08l-1.07-.07c-1.91-.11-3.72-.21-5.76,1.07Z"/><path class="cls-19" d="M91.91,63.62a.09.09,0,0,1-.07-.06.06.06,0,0,1,0-.09h0A26.68,26.68,0,0,1,100,62.34a.08.08,0,0,1,.07.08.08.08,0,0,1-.08.08,27,27,0,0,0-8.14,1.11Z"/><path class="cls-19" d="M81.3,66.82a16,16,0,0,1-5.92-1.19,18.23,18.23,0,0,0-2.63-.82.07.07,0,0,1-.06-.09h0a.08.08,0,0,1,.1-.06,22.48,22.48,0,0,1,2.65.81,15.5,15.5,0,0,0,8.3,1,.08.08,0,0,1,.08.08.07.07,0,0,1-.08.08A19.87,19.87,0,0,1,81.3,66.82Z"/><path class="cls-4" d="M75.25,81.41a2.63,2.63,0,0,1-.74-.08c-.18-.07-.26-.29-.37-.63a5.21,5.21,0,0,0-1.17-2,.08.08,0,0,1,.11-.11,5.36,5.36,0,0,1,1.2,2.08c.09.28.17.48.27.52a4.51,4.51,0,0,0,1.27,0,.08.08,0,0,1,.09.06v0a.08.08,0,0,1-.07.08S75.55,81.41,75.25,81.41Z"/><path class="cls-12" d="M63.5,99.8c-.53,1.3-2.3,4.07-2.2,4.82s.74,5,.77,6.37-.29,1.62.75,1.62,6.62.27,6.81-.48-.95-1.85-1-2.84-1.23-6-1.23-6.83-2.86-.56-3.5.05S63.5,99.8,63.5,99.8Z"/><path class="cls-20" d="M62.82,112.58c1,0,6.62.26,6.81-.48a1.49,1.49,0,0,0-.22-1c-.17.26-.65.5-2,.22-2.39-.5-4.64.82-4.94.82s-.33-4.18-1-6.29c.23,1.59.57,4.07.59,5.11C62.1,112.37,61.78,112.64,62.82,112.58Z"/><path class="cls-20" d="M64,110.48h-.06a.08.08,0,0,1,0-.11,4.77,4.77,0,0,1,2.32-.9c.11,0,.2-.09.26-.27.46-1.27-.53-5.88-1.45-6.76-.17-.16-.28-.12-.31-.1a.11.11,0,0,1-.11,0,.09.09,0,0,1,.05-.11h0a.42.42,0,0,1,.48.14c.94.9,2,5.63,1.49,6.92-.09.25-.22.37-.4.39a4.66,4.66,0,0,0-2.24.85A.05.05,0,0,1,64,110.48Z"/><path class="cls-20" d="M68.45,109.8a.09.09,0,0,1-.07,0,.87.87,0,0,0-.81-.26h-.21c-.08,0-.23,0-.62-2.22-.21-1.14-.39-2.45-.43-3-.08-1,0-2.12.75-2.21a.07.07,0,0,1,.09.07.07.07,0,0,1-.07.08h0c-.52.06-.72.7-.62,2a29,29,0,0,0,.93,5h.17a1,1,0,0,1,1,.32.08.08,0,0,1,0,.1h-.07Z"/><path class="cls-20" d="M66.82,103.93h-.06a1.6,1.6,0,0,0-1.71,0,.07.07,0,0,1-.1-.1h0a1.76,1.76,0,0,1,1.9,0,.09.09,0,0,1,0,.12Z"/><path class="cls-20" d="M67.06,104.73H67a1.6,1.6,0,0,0-1.71,0,.09.09,0,0,1-.1-.06.11.11,0,0,1,0-.08,1.75,1.75,0,0,1,1.89,0,.08.08,0,0,1,0,.11A.05.05,0,0,1,67.06,104.73Z"/><path class="cls-20" d="M67.19,105.74h0a1.62,1.62,0,0,0-1.72,0,.07.07,0,0,1-.1,0h0a.08.08,0,0,1,0-.11,1.75,1.75,0,0,1,1.89,0,.09.09,0,0,1,0,.12Z"/><path class="cls-20" d="M67.43,107a.06.06,0,0,1-.06,0,1.63,1.63,0,0,0-1.7,0,.09.09,0,0,1-.12,0,.11.11,0,0,1,0-.11,1.76,1.76,0,0,1,1.9,0,.09.09,0,0,1,0,.12Z"/><path class="cls-20" d="M67.63,108.26h0a1.64,1.64,0,0,0-1.71,0,.11.11,0,0,1-.11,0,.08.08,0,0,1,0-.11,1.73,1.73,0,0,1,1.9,0,.08.08,0,0,1,0,.11Z"/><path class="cls-21" d="M64.47,110.47a6.5,6.5,0,0,1,4.31-.12C67.54,109.26,65.35,109.73,64.47,110.47Z"/></g></g><path class="cls-22" d="M41.77,124.52H40v3.22H37.82V117.68h4.59a4.09,4.09,0,0,1,2.78.89,3.06,3.06,0,0,1,1,2.43h0a3.19,3.19,0,0,1-.57,2A3.39,3.39,0,0,1,44,124.12l2.47,3.62H43.92Zm1.73-4.47a1.94,1.94,0,0,0-1.27-.37H40v2.88h2.24a1.83,1.83,0,0,0,1.24-.38,1.28,1.28,0,0,0,.45-1h0a1.26,1.26,0,0,0-.46-1.1Z"/><path class="cls-22" d="M55.63,126.75a4.43,4.43,0,0,1-3.24,1.14,4.34,4.34,0,0,1-3.2-1.14A4.52,4.52,0,0,1,48,123.42v-5.74h2.21v5.69a2.76,2.76,0,0,0,.57,1.85,2,2,0,0,0,1.6.64,2.12,2.12,0,0,0,1.6-.62,2.61,2.61,0,0,0,.57-1.8v-5.76H56.8v5.67A4.57,4.57,0,0,1,55.63,126.75Z"/><path class="cls-22" d="M63.89,127.91a5.63,5.63,0,0,1-2.78-.7,4.82,4.82,0,0,1-1.87-1.85,5.24,5.24,0,0,1-.69-2.65h0a5.07,5.07,0,0,1,.69-2.61,5,5,0,0,1,1.89-1.89,5.31,5.31,0,0,1,2.7-.7,6.38,6.38,0,0,1,2.21.34,5.83,5.83,0,0,1,1.74,1l-1.39,1.68a4.63,4.63,0,0,0-1.23-.77,3.46,3.46,0,0,0-1.39-.25,2.66,2.66,0,0,0-1.45.42,3.14,3.14,0,0,0-1,1.15,3.28,3.28,0,0,0-.39,1.56h0a3.6,3.6,0,0,0,.39,1.64,2.78,2.78,0,0,0,1.09,1.14,3,3,0,0,0,1.57.41,3.49,3.49,0,0,0,2.08-.6v-1.44H63.79v-1.91h4.36v4.43A6.45,6.45,0,0,1,63.89,127.91Z"/><path class="cls-22" d="M77.85,127a4.76,4.76,0,0,1-2.78.7H70.31V117.68H75a3.92,3.92,0,0,1,2.44.7,2.33,2.33,0,0,1,.89,1.9h0A2.38,2.38,0,0,1,77,122.44a3.37,3.37,0,0,1,1.39.94,2.34,2.34,0,0,1,.47,1.53v0A2.34,2.34,0,0,1,77.85,127Zm-2.12-7.15a1.87,1.87,0,0,0-1.08-.27H72.47v2.12h2a2.19,2.19,0,0,0,1.18-.25.85.85,0,0,0,.41-.8h0A.88.88,0,0,0,75.73,119.89Zm.52,4a2.13,2.13,0,0,0-1.23-.3H72.47v2.21h2.62a2.12,2.12,0,0,0,1.16-.27.92.92,0,0,0,.41-.82h0A.94.94,0,0,0,76.25,123.87Z"/><path class="cls-22" d="M85.29,127.74H83.08v-4l-3.87-6.09H81.8l2.4,4,2.43-4h2.52l-3.86,6Z"/></svg>