<svg id="Layer_28" data-name="Layer 28" xmlns="http://www.w3.org/2000/svg" viewBox="0 0 128 128"><defs><style>.cls-1{fill:#afdd3d;}.cls-2{fill:#ffbb82;}.cls-3{fill:#251f1f;}.cls-4{fill:#3b1500;}.cls-5{fill:#1f1c25;}.cls-6{fill:#552f1a;}.cls-7{fill:#39363f;}.cls-8{fill:#fff;}.cls-9{fill:#cc4025;}.cls-10{fill:#1b3b52;}.cls-11{fill:#5c331d;}.cls-12{fill:#dd925b;}.cls-13{fill:#42190d;}.cls-14{fill:#eee;}.cls-15{fill:#69402a;}.cls-16{fill:#421903;}.cls-17{fill:#f2ae75;}.cls-18{fill:#ea9f68;}.cls-19{fill:#00142b;}.cls-20{fill:#1a2e45;}.cls-21{fill:#d4d4d4;}.cls-22{fill:none;}.cls-23{fill:#70492a;}.cls-24{fill:#d8945b;}.cls-25{fill:#434343;}.cls-26{fill:#ff7261;}.cls-27{fill:#aa182d;}.cls-28{fill:#c43247;}.cls-29{fill:#e7ef43;}.cls-30{fill:#9e9c9c;}</style></defs><g id="Layer_2" data-name="Layer 2"><g id="Layer_1-2" data-name="Layer 1-2"><path class="cls-1" d="M11.32,20.43V18.09a.5.5,0,0,1,0-.27A12.9,12.9,0,0,1,15,9.94a21.82,21.82,0,0,1,7.21-4.85,43.82,43.82,0,0,1,7.75-2.51c1.54-.39,3.08-.78,4.64-1A58.8,58.8,0,0,1,42.29,1,2.47,2.47,0,0,0,42.9,1H50l.31,0c1.13,0,2.25.07,3.39.11,1.89.07,3.76.2,5.63.36,2.34.2,4.68.44,7,.84A52.26,52.26,0,0,1,77.32,5c1.38.54,2.83.83,4.24,1.29a136.26,136.26,0,0,1,18.22,6.53,63.16,63.16,0,0,1,9.93,5.49.79.79,0,0,1,.28.23,3.53,3.53,0,0,0,1.24,1c1,.63,2,1.21,3.06,1.84A23.8,23.8,0,0,1,120,26a13.7,13.7,0,0,1,3.19,6.37c.1.52.16,1.05.24,1.57v2.29c0,.34-.08.68-.13,1a24,24,0,0,1-2.3,7.2,51.56,51.56,0,0,1-6.5,9.9c-.56.7-1.19,1.36-1.69,2.09s-1,1.39-1.5,2.05A179,179,0,0,1,99.1,72.29q-2.75,2.8-5.6,5.5c-1.9,1.79-4,3.66-6,5.42a129.49,129.49,0,0,1-10.51,8.16,81.24,81.24,0,0,1-11.43,6.71,4.28,4.28,0,0,0-.76.41c-1,.63-2,1.25-3,1.82a28.86,28.86,0,0,1-9.91,3.47c-.55.08-1.12.13-1.7.2H47.62a1,1,0,0,0-.25,0,19.34,19.34,0,0,1-7-1.89,26.06,26.06,0,0,1-8.43-6.71,46.35,46.35,0,0,1-5.81-8.86A86.21,86.21,0,0,1,21,74.06c-.43-1.28-.77-2.59-1.32-3.83a90.93,90.93,0,0,1-5-15A100.92,100.92,0,0,1,12,39.9q-.37-4-.42-8c0-2.2,0-4.43.21-6.66a6.7,6.7,0,0,0-.06-2,5.35,5.35,0,0,0-.11-.68C11.49,21.87,11.41,21.15,11.32,20.43Z"/><path class="cls-2" d="M40.35,53.36a20.17,20.17,0,0,0-2.88-1.21c-.42-.15-.84-.29-1.23-.46a16.34,16.34,0,0,1-5.09-3.18,5.52,5.52,0,0,1-1-1.13,6.23,6.23,0,0,1-.5-1.51A29.76,29.76,0,0,1,29,42.78c0-.27-.06-.54-.08-.84a16.77,16.77,0,0,0-.3-2A9.63,9.63,0,0,0,26,35.26c-.31-.29-.64-.57-1-.83h0a2.19,2.19,0,0,0-.57-.16l-1.67,2.51a6.85,6.85,0,0,1,2.79,3.93,13.83,13.83,0,0,1,.23,1.59,5.63,5.63,0,0,0,.1.9,30.86,30.86,0,0,0,.71,3.44c0,.16.07.32.12.48A7.09,7.09,0,0,0,27.39,49,8,8,0,0,0,29,50.87a19.6,19.6,0,0,0,6.09,3.81c.45.19.89.34,1.33.5a16.49,16.49,0,0,1,2.42,1l.25.14c1.2-.37,2.41-.71,3.63-1A7.13,7.13,0,0,0,40.35,53.36Z"/><path class="cls-2" d="M39,56.3a2.51,2.51,0,0,1,1.31,1.51l3.21-.34a4.6,4.6,0,0,0-.89-2.18Z"/><path class="cls-2" d="M40.15,57.14a1.15,1.15,0,0,1,.52,1,9.78,9.78,0,0,1-.4,1.19,1.61,1.61,0,0,0,0,1.22,1.51,1.51,0,0,0,.92.66,1.83,1.83,0,0,0,.66.06,2.06,2.06,0,0,0,.54-.2,2.77,2.77,0,0,0,1.29-1.68A4.18,4.18,0,0,0,43.55,57,8.12,8.12,0,0,0,40.15,57.14Z"/><polygon class="cls-3" points="14.13 64.96 14.97 64.83 14.97 67.19 14.13 67.19 14.13 64.96"/><rect class="cls-2" x="13.09" y="78.11" width="2.94" height="22.38"/><rect class="cls-2" x="20.36" y="78.11" width="2.94" height="22.38"/><path class="cls-4" d="M19.45,102.75v1.07H29.91v-.45a1.88,1.88,0,0,0-.11-.62Z"/><path class="cls-5" d="M23.51,100.27h.43a5.19,5.19,0,0,1,3.36,1.42h1.38c1.76,0,2.15.43,2.06,2.13H19.45v-3.55Z"/><rect class="cls-5" x="19.43" y="103.04" width="11.33" height="0.78"/><path class="cls-6" d="M12.17,102.75v1.07H22.63v-.45a1.87,1.87,0,0,0-.1-.62Z"/><path class="cls-7" d="M23.48,103.81H12.18v-3.54h4.49a5.11,5.11,0,0,1,1,.14,4.79,4.79,0,0,1,.73.24,3.88,3.88,0,0,1,.58.28,4.56,4.56,0,0,1,.59.38,5.32,5.32,0,0,1,.45.38h1.39c1.44,0,2,.3,2.05,1.35h0A6.59,6.59,0,0,1,23.48,103.81Z"/><rect class="cls-7" x="12.16" y="103.04" width="11.33" height="0.78"/><rect class="cls-8" x="13.09" y="98.09" width="2.94" height="2.19"/><rect class="cls-8" x="20.36" y="98.09" width="2.94" height="2.19"/><path class="cls-9" d="M17.69,100.41,15.08,103h1l2.37-2.36A4.79,4.79,0,0,0,17.69,100.41Z"/><path class="cls-9" d="M19.59,101.31a4.56,4.56,0,0,0-.59-.38L16.91,103h1Z"/><path class="cls-7" d="M12.18,100.27s0-.84,1.11-.84a1.5,1.5,0,0,1,1.12.84Z"/><path class="cls-5" d="M19.45,100.29s0-.84,1.11-.84a1.53,1.53,0,0,1,1.13.84Z"/><path class="cls-10" d="M10.24,61.88v2.59h0v.18a1.39,1.39,0,0,0,1.47,1.29H24.5a1.54,1.54,0,0,0,1-.38,1.21,1.21,0,0,0,.43-.88.49.49,0,0,0,0-.17h0V61.88Z"/><rect class="cls-11" x="17.98" y="33.19" width="2.07" height="2.13"/><rect class="cls-12" x="17.67" y="32.3" width="1.92" height="4.51"/><rect class="cls-2" x="18.72" y="32.3" width="1.92" height="4.51"/><path class="cls-10" d="M21.71,61.88h0c1.22,0,2.22.49,2.22,1.08V78.1H19.5V63C19.5,62.37,20.49,61.88,21.71,61.88Z"/><rect class="cls-10" x="10.24" y="60.13" width="15.73" height="3.98"/><path class="cls-10" d="M14.46,61.88h0c1.22,0,2.21.49,2.21,1.08V78.1H12.25V63C12.25,62.37,13.24,61.88,14.46,61.88Z"/><rect class="cls-8" x="13.11" y="62.25" width="0.54" height="15.85"/><path class="cls-8" d="M26.84,35.5a2.3,2.3,0,0,0-3.07-1.08l-.07,0a2.33,2.33,0,0,0-.7,3.11,44.23,44.23,0,0,1,2.83,6.23L30,42.25A50.28,50.28,0,0,0,26.84,35.5Z"/><polygon class="cls-8" points="13.43 52.21 13.87 56.43 15.46 56.26 15.02 52.03 13.43 52.21"/><path class="cls-8" d="M25.86,36.44l1.41,25.87s-7.31.62-9.29.62a45.23,45.23,0,0,1-6.78-.42h0c-.72-.12-2.93-.54-2.93-.54l1.85-25.53a2.22,2.22,0,0,1,2.19-2.27H23.67a2.22,2.22,0,0,1,2.19,2.26Z"/><path class="cls-12" d="M15.14,34.17l1.38,1.4a3.59,3.59,0,0,0,5,0L23,34.17Z"/><path class="cls-2" d="M16.6,34.17,18,35.57a3.6,3.6,0,0,0,1.81,1,3.57,3.57,0,0,0,1.8-1L23,34.17Z"/><path class="cls-10" d="M15.55,63.91v4.74h1.13a2.83,2.83,0,0,1,2.82-2.71v2.71h1.07V63.91Z"/><path class="cls-12" d="M12.78,19.28v9.91a3.44,3.44,0,0,0,3.46,3.42H20a3.46,3.46,0,0,0,3.51-3.36V19.34A3.44,3.44,0,0,0,20,15.92H16.3A3.45,3.45,0,0,0,12.78,19.28Z"/><path class="cls-2" d="M15,19.28V29.2a3.44,3.44,0,0,0,3.46,3.42H20a3.45,3.45,0,0,0,3.51-3.35V19.34A3.45,3.45,0,0,0,20,15.93h-1.5A3.44,3.44,0,0,0,15,19.28Z"/><path class="cls-12" d="M16.6,25.15h1.49a.33.33,0,0,0,.33-.32h0a.31.31,0,0,0-.32-.31H16.6a.32.32,0,0,0-.33.31h0A.32.32,0,0,0,16.6,25.15Z"/><path class="cls-12" d="M21.92,25.17h1.49a.32.32,0,0,0,.33-.32h0a.32.32,0,0,0-.33-.32H21.92a.32.32,0,0,0-.32.31h0A.32.32,0,0,0,21.92,25.17Z"/><path class="cls-13" d="M11.58,26.31A1.59,1.59,0,0,0,13.08,28h0a1.58,1.58,0,0,0,1.5-1.63V20.69l0-3h0a1.58,1.58,0,0,0-1.49-1.67h-.24a6.38,6.38,0,0,0-1.29,3.35v1.22Z"/><path class="cls-2" d="M11.84,24.73a1.81,1.81,0,0,0,1.82,1.79h0V23A1.81,1.81,0,0,0,11.84,24.73Z"/><path class="cls-8" d="M20.35,29.06a1.42,1.42,0,0,0,1.45-1.4H18.9A1.43,1.43,0,0,0,20.35,29.06Z"/><path class="cls-12" d="M19.72,25.91a.65.65,0,0,0,1.29,0Z"/><path class="cls-13" d="M23.13,22.76a2.06,2.06,0,0,0-2.19,0,.27.27,0,0,1-.34,0h0c-.09-.09-.05-.25.1-.35a2.52,2.52,0,0,1,2.67,0c.15.09.19.25.1.35h0A.27.27,0,0,1,23.13,22.76Z"/><path class="cls-13" d="M19.65,22.76a2,2,0,0,0-2.18,0,.3.3,0,0,1-.34,0h0a.23.23,0,0,1,.08-.33l0,0a2.52,2.52,0,0,1,2.67,0,.24.24,0,0,1,.11.35h0A.27.27,0,0,1,19.65,22.76Z"/><path class="cls-13" d="M19,23.3a.5.5,0,0,1-.48.5.5.5,0,0,1,0-1,.48.48,0,0,1,.48.49Z"/><path class="cls-13" d="M22.65,23.31a.48.48,0,0,1-.46.49h0a.49.49,0,0,1-.49-.49.5.5,0,0,1,.49-.5.48.48,0,0,1,.48.48Z"/><path class="cls-8" d="M11.58,20v.7H23.52V16.23a2.68,2.68,0,0,0-.27-1.18,2.76,2.76,0,0,0-2.47-1.57H18.11a6.52,6.52,0,0,0-4.24,1.57,6.59,6.59,0,0,0-1,1.06,6.38,6.38,0,0,0-1.29,3.35A5.43,5.43,0,0,0,11.58,20Z"/><path class="cls-10" d="M20.35,16.79H26a2,2,0,0,1,1.68.89A1.94,1.94,0,0,1,28,18.75a2,2,0,0,1-.13.69A2,2,0,0,1,26,20.71H20.35a.07.07,0,0,1-.07-.07h0V16.9a.07.07,0,0,1,0-.1A.06.06,0,0,1,20.35,16.79Z"/><path class="cls-14" d="M15.46,18.32a3.91,3.91,0,0,1,3.1-1.53H25.8a3.9,3.9,0,0,1-3.9,3.92H14.62A3.91,3.91,0,0,1,15.46,18.32Z"/><path class="cls-2" d="M7.53,46.93A1.78,1.78,0,0,1,8.63,49,31.8,31.8,0,0,0,8,60.67l-.09,0c-.68.07-1.37.14-2.06.23-.29,0-1-.58-1-.58a2.9,2.9,0,0,1-.15-.71,36.29,36.29,0,0,1,.84-11.47A1.6,1.6,0,0,1,7.38,46.9Z"/><path class="cls-2" d="M8.23,61.58a7.78,7.78,0,0,0,1.68,2.94,2,2,0,0,1,.31,2.36c-.45.72-1.68.71-2.52-.25a10.93,10.93,0,0,1-1.88-3,14,14,0,0,1-1-3.64c1-.1,2.17.18,3.18.08A9,9,0,0,0,8.23,61.58Z"/><path class="cls-2" d="M10.53,67.73c-.1-.93.25-1.76-.29-2.64-.4-.65-1.26-1.31-2-.94a2,2,0,0,0-1,1.25,4.56,4.56,0,0,0,.08,2.51,4,4,0,0,0,.63,1.4,2.68,2.68,0,0,0,1.35,1,1.74,1.74,0,0,0,1.19,0,1.07,1.07,0,0,0,.72-.89C11.2,68.8,10.59,68.33,10.53,67.73Z"/><path class="cls-2" d="M11.06,37.85a1.76,1.76,0,0,1,.55,2.29A32.22,32.22,0,0,0,8.17,51.29H8.06L6,51c-.3-.05-.84-.84-.84-.84a2.72,2.72,0,0,1,.06-.7,36.23,36.23,0,0,1,3.61-10.9,1.59,1.59,0,0,1,2.1-.8Z"/><path class="cls-8" d="M9.78,35.44a2.3,2.3,0,0,1,3.12-1l0,0a2.34,2.34,0,0,1,.6,3.15,44.74,44.74,0,0,0-3.09,6.1l-4-1.7A50.53,50.53,0,0,1,9.78,35.44Z"/><path class="cls-2" d="M41.62,55.15a34.83,34.83,0,0,1,4.31,6.75c.19.37.36.74.52,1.11s.29.64.42,1l0,.09c.1.21.17.42.26.63h0v.12a1.09,1.09,0,0,1,0,.36,1,1,0,0,1-.68.91,1.07,1.07,0,0,1-1.34-.64l-.06-.17-.2-.48s0-.11-.07-.17a32.87,32.87,0,0,0-4.91-8.18,1.11,1.11,0,0,1-.22-.54A1,1,0,0,1,40,55a1,1,0,0,1,1.49.06Z"/><path class="cls-2" d="M41.89,68.14a32.86,32.86,0,0,1-3.56,2.76l-.15.1-.43.28-.16.11a1.08,1.08,0,0,0-.33,1.43,1,1,0,0,0,1,.49.89.89,0,0,0,.35-.11.24.24,0,0,0,.11-.06h0l.58-.37.07-.06a7,7,0,0,0,.84-.6c.25-.21.66-.47,1-.72A35.3,35.3,0,0,0,47,65.84a1.06,1.06,0,0,0-.11-1.49l0,0a1,1,0,0,0-1-.16,1,1,0,0,0-.48.33,32.06,32.06,0,0,1-2.7,2.89c-.84.84-1.81,1.46-2.07,2.68A3.15,3.15,0,0,0,41,72.33a2.19,2.19,0,0,0,.84.84,2.13,2.13,0,0,0,.7.18,1.06,1.06,0,0,0,.72-.11.9.9,0,0,0,.34-1,2.32,2.32,0,0,0-.64-1,2.55,2.55,0,0,1-.4-.47.75.75,0,0,1-.1-.6A16.35,16.35,0,0,1,41.89,68.14Z"/><path class="cls-14" d="M41.08,54.32A1.9,1.9,0,0,0,38.56,54a1.8,1.8,0,0,0-.26,2.47,34.5,34.5,0,0,1,2,3.15,15.51,15.51,0,0,0,3.36-2.07A18.12,18.12,0,0,0,41.08,54.32Z"/><path class="cls-8" d="M40.34,59.57c.24.39.48.79.72,1.17a8.41,8.41,0,0,0,3.36-2.15c-.24-.38-.47-.74-.71-1.09A15.34,15.34,0,0,1,40.34,59.57Z"/><path class="cls-2" d="M29.48,55.64a35.34,35.34,0,0,0-3.36,7.28c-.12.39-.24.78-.35,1.18s-.19.67-.28,1v.09c-.06.22-.1.44-.16.66h0V66a1.15,1.15,0,0,0,0,.37,1,1,0,0,0,.84.84,1.08,1.08,0,0,0,1.24-.84v-.18c0-.16.07-.33.12-.49a1.06,1.06,0,0,0,0-.19,33.51,33.51,0,0,1,3.71-8.79A1.07,1.07,0,0,0,31,55.27a1.05,1.05,0,0,0-1.45.32S29.49,55.62,29.48,55.64Z"/><path class="cls-14" d="M29.84,71.92v2.19a1.67,1.67,0,0,0,.11.59,1.53,1.53,0,0,0,1.44.92h8.19a1.52,1.52,0,0,0,1.36-.88,1.28,1.28,0,0,0,.11-.58V71.92Z"/><rect class="cls-2" x="31.46" y="96.86" width="2.49" height="4.31"/><rect class="cls-2" x="31.46" y="83.38" width="2.49" height="17.8"/><rect class="cls-8" x="31.46" y="98.6" width="2.49" height="2.57"/><rect class="cls-2" x="36.85" y="96.86" width="2.49" height="4.31"/><path class="cls-14" d="M33.9,74.9v2.82h.84V77.5A1.23,1.23,0,0,1,36,76.27v1.45h.73V74.9Z"/><rect class="cls-2" x="36.85" y="83.38" width="2.49" height="17.8"/><rect class="cls-8" x="36.85" y="98.6" width="2.49" height="2.57"/><path class="cls-14" d="M30.38,54.5a2.5,2.5,0,0,1,2-1h6.13a2.51,2.51,0,0,1,2,1,2.48,2.48,0,0,1,.54,1.55s.72,7.92.72,10.57c0,3.79-.2,5.94-.2,5.94s-5,.1-6.71.1c-5.62,0-8.16-1.4-8.16-1.4a16.79,16.79,0,0,0,2.17-5.55c.44-4.49,1-9.66,1-9.66A2.55,2.55,0,0,1,30.38,54.5Z"/><path class="cls-15" d="M40.14,42.33l-.08-.07v-.65H39A1.44,1.44,0,0,0,37.56,43v.68A1.43,1.43,0,0,0,39,45.17a1.39,1.39,0,0,0,1.11-.51l.09-.11h0a3.1,3.1,0,0,0,.37-.83A1.44,1.44,0,0,0,40.14,42.33Z"/><rect class="cls-12" x="34.06" y="51.76" width="2.74" height="3.22"/><rect class="cls-2" x="34.94" y="51.76" width="2.08" height="3.22"/><path class="cls-2" d="M30.63,42v1l.07,2,.12,3.16a4.38,4.38,0,0,0,4.55,4.19h.29a4.37,4.37,0,0,0,4-4.46l-.21-5.59v-.53a4.21,4.21,0,0,0-.78-2.3l-.21-.16a6,6,0,0,0-1.92-.84,7.32,7.32,0,0,0-2.47-.15,10.72,10.72,0,0,0-1.76.34l-.2.06A4.29,4.29,0,0,0,30.63,42Z"/><path class="cls-12" d="M30.71,41.92V48a4.37,4.37,0,0,0,4.46,4.3,4.6,4.6,0,0,0,.64,0h-.17A4.33,4.33,0,0,1,32,48.05V41.88a4.32,4.32,0,0,1,2.08-3.72,10.66,10.66,0,0,0-1.77.35A4.26,4.26,0,0,0,30.71,41.92Z"/><path class="cls-16" d="M39.26,45.58a.4.4,0,0,1-.39.42h0a.42.42,0,1,1,.39-.42Z"/><path class="cls-16" d="M35.51,45.73a.4.4,0,0,1-.38.42h0a.42.42,0,1,1,0-.84.4.4,0,0,1,.39.41Z"/><path class="cls-16" d="M39.08,44.44a1.66,1.66,0,0,0-.91.07.19.19,0,0,1-.23-.07h0a.18.18,0,0,1,.11-.22h0a1.81,1.81,0,0,1,1.08-.09.17.17,0,0,1,.15.18v0h0A.17.17,0,0,1,39.08,44.44Z"/><path class="cls-16" d="M35.39,44.44a1.66,1.66,0,0,0-.91.07.19.19,0,0,1-.23-.07h0a.18.18,0,0,1,.11-.22h0a1.82,1.82,0,0,1,1.08-.09.16.16,0,0,1,.15.18v0h0A.19.19,0,0,1,35.39,44.44Z"/><path class="cls-16" d="M30.05,40.6l-.09.1a2.42,2.42,0,0,0-.67,1.67v5.17A1.53,1.53,0,0,0,30,48.75l.09.08a1.55,1.55,0,0,0,.78.21h.92V39.91A2.47,2.47,0,0,0,30.05,40.6Z"/><path class="cls-17" d="M29.71,46.44a1.41,1.41,0,0,0,1.43,1.39h0V45a1.41,1.41,0,0,0-1.43,1.39Z"/><path class="cls-15" d="M29.14,40.55a7.08,7.08,0,0,1-1.11-3s.74,1,3.24.61l.48,1.12-.84,1H29.69Z"/><path class="cls-15" d="M40.15,41.05c-.36.12-.71-.25-1-.07a.67.67,0,0,0-.14.09c-.41.23-.84.49-1.23.68a7.91,7.91,0,0,1-.84.37,6.19,6.19,0,0,1-.65.22H30.83A4.6,4.6,0,0,1,30.3,42l-.09-.07h-.05A6.18,6.18,0,0,1,29,40.5a4.79,4.79,0,0,1-.35-.72c-.06-.18-.14-.37-.2-.56s-.06-.21-.1-.31l.6-.3a13.42,13.42,0,0,1,2-.88l.67-.22.19-.07a11.77,11.77,0,0,1,1.77-.34,7.27,7.27,0,0,1,2.46.16,5.83,5.83,0,0,1,1.91.84l.23.17A5.71,5.71,0,0,1,39,39a3.92,3.92,0,0,1,1,1.55C40,40.67,40.09,40.85,40.15,41.05Z"/><path class="cls-15" d="M28,37.51a4.61,4.61,0,0,0,3.13.09l-.47.84L29.27,39Z"/><rect class="cls-14" x="35.98" y="74.91" width="4.21" height="9.9"/><rect class="cls-14" x="30.55" y="74.91" width="4.21" height="9.9"/><path class="cls-12" d="M32.64,53.51A2.51,2.51,0,0,0,35.16,56h.48a2.52,2.52,0,0,0,2-2.51Z"/><path class="cls-2" d="M33.59,53.51a2.51,2.51,0,0,0,2,2.51,2.52,2.52,0,0,0,2-2.51Z"/><path class="cls-8" d="M38.2,48.87a1.18,1.18,0,0,1-2.35,0Z"/><path class="cls-18" d="M37.64,47.58a.56.56,0,1,1-1.11.14.33.33,0,0,1,0-.14Z"/><path class="cls-19" d="M45.05,102.19a1.6,1.6,0,0,0-1.29-.65H38.62v2.28h6.77v-.66A1.57,1.57,0,0,0,45.05,102.19Z"/><path class="cls-19" d="M39.28,99.54h0a2.54,2.54,0,0,1,1.46.47l1.9,1.36-3.15-.23h-1v-.83A.79.79,0,0,1,39.28,99.54Z"/><path class="cls-19" d="M44.71,103v-.06l-.16-.24h-.36a5.63,5.63,0,0,0-2.43-1.74,6.66,6.66,0,0,0-2-.41H37a1.08,1.08,0,0,0-1.07,1v2.21h9.12A3.81,3.81,0,0,0,44.71,103Z"/><path class="cls-20" d="M39.67,102.19a1.6,1.6,0,0,0-1.29-.65H33.24v2.28H40v-.66A1.57,1.57,0,0,0,39.67,102.19Z"/><path class="cls-20" d="M33.9,99.54h0a2.57,2.57,0,0,1,1.47.47l1.89,1.36-3.16-.23h-1v-.83A.79.79,0,0,1,33.9,99.54Z"/><path class="cls-20" d="M39.33,103v-.06l-.16-.24h-.35A5.75,5.75,0,0,0,36.54,101a6.76,6.76,0,0,0-2.18-.48H31.63a1.08,1.08,0,0,0-.9.48,1.16,1.16,0,0,0-.18.57v2.21h9.13A4.41,4.41,0,0,0,39.33,103Z"/><path class="cls-8" d="M27.1,57.14c-.26.36-.52.74-.79,1.13a8.09,8.09,0,0,0,3.26,2.28l.75-1.13a10.81,10.81,0,0,1-1.09-.51A10,10,0,0,1,27.1,57.14Z"/><path class="cls-14" d="M32.32,53.89a1.89,1.89,0,0,0-2.52.27,18.18,18.18,0,0,0-2.7,3,10,10,0,0,0,2.13,1.77,10.81,10.81,0,0,0,1.09.51,34.82,34.82,0,0,1,2.17-3.08A1.81,1.81,0,0,0,32.32,53.89Z"/><path class="cls-8" d="M29.84,74.06v0a1.67,1.67,0,0,0,.11.59h2.28a2.08,2.08,0,0,0,1.92-1.92.24.24,0,0,1,0-.12h-.66v.15a1.43,1.43,0,0,1-1.42,1.27Z"/><path class="cls-8" d="M37.58,72.64v.14a2.06,2.06,0,0,0,1.91,1.92h1.43a1.45,1.45,0,0,0,.12-.59v0H39.65a1.42,1.42,0,0,1-1.11-.54,1.64,1.64,0,0,1-.14-.22,1.32,1.32,0,0,1-.16-.51v-.17Z"/><path class="cls-12" d="M39.9,46.72a.37.37,0,0,0-.33-.22h-.92a.37.37,0,0,0-.33.22.33.33,0,0,0,0,.14.36.36,0,0,0,.36.36h.92a.36.36,0,0,0,.36-.36h0A.35.35,0,0,0,39.9,46.72Z"/><path class="cls-12" d="M35.39,46.5h-.93a.33.33,0,0,0-.32.22.17.17,0,0,0,0,.14.36.36,0,0,0,.36.36h.92a.36.36,0,0,0,.36-.36h0a.33.33,0,0,0,0-.14A.36.36,0,0,0,35.39,46.5Z"/><path class="cls-8" d="M40.5,40.88h0a1,1,0,0,0-.74-.3H30.21a1,1,0,0,0-.69.26.08.08,0,0,1-.06.07.65.65,0,0,0-.16.42v1H39.91a.73.73,0,0,0,.75-.73h0v-.35A.7.7,0,0,0,40.5,40.88Z"/><path class="cls-21" d="M38.28,89.66c-3.08-2.32-5-7-3.2-9.47s6.9-1.86,10,.46,4.06,6.22,2.19,8.7S41.36,92,38.28,89.66Z"/><path class="cls-10" d="M34.74,80c2-2.71,7.33-2,10.52.37s4.25,6.59,2.26,9.23S41.26,92.39,38,90,32.74,82.67,34.74,80Zm12.17,9.15c1.74-2.31.83-6-2.11-8.16s-7.66-2.86-9.41-.53.27,6.78,3.12,8.93,6.69,2.08,8.43-.24Z"/><path class="cls-10" d="M34.28,81.88l2.2-2.94-4.8-2.64h0L30,75.41l-.83,1.14L30.45,78h0Zm0-1-3.45-3.49h0a.33.33,0,0,1,.35-.43l4.3,2.37Z"/><path class="cls-19" d="M29.71,77.26l-6.65-5,1.1-1.45,6.64,5a.28.28,0,0,1,.08.38l-.79,1.07A.28.28,0,0,1,29.71,77.26Z"/><path class="cls-2" d="M26.15,62.92c-.13.39-.25.78-.35,1.18s-.2.67-.28,1v.09c-.06.22-.1.44-.16.66h0v.49a35,35,0,0,0,1.55,8.55,1.05,1.05,0,0,0,1.31.72h0a1.08,1.08,0,0,0,.65-1.34,32.45,32.45,0,0,1-1.46-8.12v-.63h0v-.67a.17.17,0,0,1,0-.1,7.45,7.45,0,0,0-.05-1.06,1,1,0,0,0-.78-.75.6.6,0,0,0-.19,0Z"/><path class="cls-2" d="M26.74,74.49a4.13,4.13,0,0,0,.46,1.13,2.38,2.38,0,0,0,.83.84,1.15,1.15,0,0,0,.72.19.64.64,0,0,0,.3-.11.6.6,0,0,0,.19-.36,1.41,1.41,0,0,0,0-.41,5.24,5.24,0,0,0-.37-1.45.5.5,0,0,0-.39-.23,1.14,1.14,0,0,0-.45,0l-.42.09-.59.13a.5.5,0,0,0-.2.08C26.73,74.47,26.69,74.45,26.74,74.49Z"/><path class="cls-22" d="M28.82,74.51a2.5,2.5,0,0,0,.84,1.11c.09.06.24.09.29,0a.2.2,0,0,0,0-.11,1.64,1.64,0,0,0-.42-.84,6.31,6.31,0,0,0-1.35-1.28"/><path class="cls-10" d="M28,69.9a.51.51,0,0,0-.58-.43h0l-.92.15-.36.06a.5.5,0,0,0-.43.58h0l.51,3.15a.53.53,0,0,0,.28.37.59.59,0,0,0,.32.06l1.29-.21a.52.52,0,0,0,.43-.58v0Z"/><path class="cls-2" d="M47,65.84a35.25,35.25,0,0,1-4.52,4.54.88.88,0,0,0,.11.39,2.67,2.67,0,0,0,.42.47,2.3,2.3,0,0,1,.63,1,.91.91,0,0,1-.33,1,1.13,1.13,0,0,1-.72.11,1.92,1.92,0,0,1-.71-.19,2.26,2.26,0,0,1-.84-.84,3.15,3.15,0,0,1-.27-.59h0a3.2,3.2,0,0,1-.12-1.68,3.57,3.57,0,0,1,1.11-1.8h0c.31-.29.63-.57.94-.84a35.22,35.22,0,0,0,2.7-2.89,1,1,0,0,1,.48-.33,1,1,0,0,1,1,.16A1.07,1.07,0,0,1,47,65.84Z"/><path class="cls-2" d="M87.79,96.86a43.83,43.83,0,0,1,.89-28.12l2.65,1.2a41,41,0,0,0-.5,26.92l.3.84H88.05C88,97.44,87.87,97.15,87.79,96.86Z"/><path class="cls-8" d="M91.13,97.72c.38,1,.84,2.27,1.23,3.14-.89.38-2,.2-2.91.59-.52-1.23-1-2.47-1.4-3.73Z"/><path class="cls-14" d="M90.07,65.36q-.78,1.68-1.41,3.36l-.89-.41L91.12,61a1.17,1.17,0,0,1,1.54-.59h0l2,.95a1.18,1.18,0,0,1,.59,1.55L91.9,70.22,91.31,70A31,31,0,0,1,92.7,66.6Z"/><path class="cls-14" d="M90.07,65.36l2.63,1.25c-.52,1.09-1,2.21-1.39,3.35l-2.65-1.19C89.11,67.6,89.58,66.48,90.07,65.36Z"/><path class="cls-14" d="M103.91,59.36h0c-.13-.38-1.75-5.52-1.75-5.52H90.73l0,.46-.4,3.94-.1.92-.11.88h0L90,61.21a5.34,5.34,0,0,0,5.37,5.31h3.52A5.41,5.41,0,0,0,102.65,65a5.25,5.25,0,0,0,1.58-3.75,4.89,4.89,0,0,0-.34-1.85Z"/><path class="cls-2" d="M82.26,56.16a11.48,11.48,0,0,0,1.5-1.09c.53-.42,1-.84,1.54-1.32,1-.91,2-1.87,2.91-2.88a1.46,1.46,0,0,1,2-.13,1.41,1.41,0,0,1,.1,2l0,0a30.63,30.63,0,0,1-6.33,5.41C83.37,57.53,82.8,56.85,82.26,56.16Z"/><path class="cls-2" d="M78.11,58.81c-.28-.93,1.17-1.46,1.82-1.71s1.33-.45,2-.76c.13-.07.25-.13.37-.21.54.69,1.09,1.37,1.68,2l-.32.21-1.13.59-.83.44c-1.12.41-2.29.84-3.26-.17A.9.9,0,0,1,78.11,58.81Z"/><path class="cls-23" d="M102.18,23c-.11,3-2.3-1.73-5.34-1.84S91,25.6,91.13,22.6A5.55,5.55,0,0,1,101.37,20a5.51,5.51,0,0,1,.81,3Z"/><path class="cls-5" d="M107.52,39.19l-.26-.28-1.55,1.38L102,43.65l.84,1,4.56-4.08a1.05,1.05,0,0,0,.12-1.35Z"/><path class="cls-16" d="M91.17,40.37c.15.13-1.58.18-1.44.28,3.09,2.52.73,2.52,4.85,2.31.83-.06,4.19.89,5,.76a5,5,0,0,0,3.24-2.64,43.4,43.4,0,0,0-.25-19.7h-.09l-1.32-.29-5.87-1.28-1.38-.29C90.68,25.28,90.66,29.61,91.17,40.37Z"/><path class="cls-23" d="M93,20.19a32.32,32.32,0,0,0-1.12,4.64,43.64,43.64,0,0,0-.42,5.11,49.73,49.73,0,0,0,.21,6,2.33,2.33,0,0,0-.38.26,2.84,2.84,0,0,0-.5.48,48.67,48.67,0,0,1-.12-11.38,10.35,10.35,0,0,1,.5-2.86,9.59,9.59,0,0,1,1.62-2.76l-.11.43Z"/><path class="cls-23" d="M97.47,42c.84-.05,1.61,3.36,2.51,3.18a5.47,5.47,0,0,0,3.5-4.09,43.4,43.4,0,0,0-.25-19.7.17.17,0,0,0-.1,0,7.45,7.45,0,0,0-1.76-.17c0,.09.14.09.15.19,0,4.91.79,8.68,0,13.57-.32,2-2.58,3-3.23,5A19.36,19.36,0,0,1,97.47,42Z"/><rect class="cls-12" x="96.07" y="31.59" width="2.04" height="5.58"/><rect class="cls-2" x="94.96" y="31.59" width="2.04" height="5.58"/><path class="cls-23" d="M92.37,22.65c-.11,3,2.41-1.56,5.45-1.45s5.49,4.83,5.6,1.84a5.55,5.55,0,0,0-10.06-3.35,5.05,5.05,0,0,0-.84,1.67A5.55,5.55,0,0,0,92.37,22.65Z"/><path class="cls-2" d="M96.57,32.82h0a4.45,4.45,0,0,0,4.65-4.25h0l.23-6.24a4.47,4.47,0,0,0-4.34-4.6h0A4.48,4.48,0,0,0,92.45,22l-.22,6.23a4.45,4.45,0,0,0,4.32,4.59Z"/><path class="cls-12" d="M95.94,32.77a4.93,4.93,0,0,0,.66.07,4.46,4.46,0,0,0,4.66-4.26h0l.22-6.24a4.44,4.44,0,0,0-4.34-4.56,3.64,3.64,0,0,0-.66,0,4.46,4.46,0,0,1,3.69,4.51l-.23,6.23A4.44,4.44,0,0,1,95.94,32.77Z"/><path class="cls-18" d="M94.53,27.52a.64.64,0,0,0,.72.57.66.66,0,0,0,.58-.57Z"/><path class="cls-18" d="M93.8,26.56l-1.5,0a.19.19,0,0,0-.15,0,.32.32,0,0,0-.19.27.32.32,0,0,0,.17.29.38.38,0,0,0,.15.05l1.5.05a.32.32,0,0,0,.32-.32.32.32,0,0,0-.32-.32h0Z"/><path class="cls-18" d="M98.46,26.73,97,26.67a.38.38,0,0,0-.15,0,.3.3,0,0,0-.19.28.31.31,0,0,0,.17.29.33.33,0,0,0,.14,0l1.5,0a.32.32,0,0,0,.34-.3h0A.32.32,0,0,0,98.46,26.73Z"/><path class="cls-16" d="M96.14,24.91a2,2,0,0,1,2.13.37.27.27,0,0,0,.35,0h0a.24.24,0,0,0,0-.33l0,0A2.53,2.53,0,0,0,96,24.5c-.15.07-.22.23-.16.33h0A.3.3,0,0,0,96.14,24.91Z"/><path class="cls-16" d="M92.41,25.12a2,2,0,0,1,2.16-.31.28.28,0,0,0,.34-.07h0c.07-.1,0-.26-.15-.33a2.51,2.51,0,0,0-2.64.37c-.13.12-.14.29-.05.36h0A.26.26,0,0,0,92.41,25.12Z"/><path class="cls-8" d="M96.19,29.25a1.13,1.13,0,0,1-1.25,1,1.12,1.12,0,0,1-1-1.07Z"/><path class="cls-16" d="M93,25.45a.4.4,0,0,0,.79.05.39.39,0,0,0-.37-.42h0a.38.38,0,0,0-.4.37Z"/><path class="cls-16" d="M96.55,25.58a.4.4,0,0,0,.37.42.39.39,0,0,0,.42-.37.4.4,0,0,0-.37-.42h0a.39.39,0,0,0-.41.37Z"/><polygon class="cls-23" points="92.96 20.26 101.61 21.33 101.33 19.39 99.82 18.55 98.33 17.66 96.67 17.42 95.31 17.95 94.03 18.59 93.4 19.34 92.96 20.26"/><path class="cls-23" d="M96.88,20.37c1.33.88,2.52,1.2,3.67,3.49.31.62.37.84.89,2,.21.45.35.36.84.56a9.64,9.64,0,0,0-.3-2.83,7.78,7.78,0,0,0-.79-2.29,4,4,0,0,0-3.27-1.9.76.76,0,0,0-.3,0l-.17.14-.48.51C97,20.12,96.83,20.34,96.88,20.37Z"/><polygon class="cls-23" points="93.4 19.34 93.1 20.46 92.38 20.43 93.4 19.34"/><polygon class="cls-23" points="93.57 20.33 92.25 24 91.86 23.43 92.15 21.46 92.65 20.15 93.59 19.73 93.57 20.33"/><path class="cls-23" d="M101.87,20.63l.1.05-1.58.25.31,1.1,1.21,1.37Z"/><path class="cls-2" d="M89.24,53h0A1.42,1.42,0,0,0,91,52v0a47,47,0,0,0,1.63-14.74,1.42,1.42,0,0,0-1.44-1.39h0a1.44,1.44,0,0,0-1.3,1.51A44.54,44.54,0,0,1,88.3,51.19,1.44,1.44,0,0,0,89.24,53Z"/><path class="cls-24" d="M94.06,42.32c0,.25.06.5.08.74C94.12,42.82,94.1,42.57,94.06,42.32Z"/><path class="cls-24" d="M93.85,40.82a3.69,3.69,0,0,0,.09.58C93.91,41.21,93.89,41,93.85,40.82Z"/><path class="cls-24" d="M90.46,40.8a5.32,5.32,0,0,0-.14-.89C90.37,40.2,90.42,40.5,90.46,40.8Z"/><path class="cls-24" d="M90.61,42.26a2.32,2.32,0,0,0-.07-.69C90.57,41.8,90.59,42.05,90.61,42.26Z"/><path class="cls-24" d="M90.22,39.3c-.1-.51-.2-1-.32-1.54C90,38.28,90.12,38.79,90.22,39.3Z"/><path class="cls-24" d="M90.68,43.67v-.55C90.67,43.3,90.68,43.49,90.68,43.67Z"/><path class="cls-24" d="M90.43,47.64a.6.6,0,0,1,0-.19A.6.6,0,0,0,90.43,47.64Z"/><path class="cls-24" d="M94.2,43.72v.84A2.61,2.61,0,0,0,94.2,43.72Z"/><path class="cls-24" d="M90.68,44.61v.44C90.67,44.9,90.68,44.75,90.68,44.61Z"/><path class="cls-24" d="M93.8,49.91a22.86,22.86,0,0,0,.45-4.81A22.86,22.86,0,0,1,93.8,49.91Z"/><path class="cls-25" d="M90.66,43.12a4.63,4.63,0,0,0,0-.84C90.64,42.54,90.64,42.83,90.66,43.12Z"/><path class="cls-25" d="M90.22,48.8h0c.08-.38.15-.78.21-1.16C90.37,48,90.3,48.42,90.22,48.8Z"/><path class="cls-25" d="M90.46,47.45c.05-.36.09-.72.13-1.08C90.54,46.73,90.51,47.08,90.46,47.45Z"/><path class="cls-25" d="M90.68,44.61v-.94C90.69,44,90.69,44.3,90.68,44.61Z"/><path class="cls-25" d="M90.67,45.05a5.6,5.6,0,0,1-.06,1C90.64,45.72,90.65,45.4,90.67,45.05Z"/><path class="cls-25" d="M94.14,43.06c0,.24,0,.47.06.7C94.18,43.53,94.17,43.3,94.14,43.06Z"/><path class="cls-25" d="M90.54,41.57a6.7,6.7,0,0,0-.08-.77C90.49,41.06,90.52,41.31,90.54,41.57Z"/><path class="cls-25" d="M93.94,41.4c0,.31.09.61.12.92C94,42.05,94,41.71,93.94,41.4Z"/><path class="cls-25" d="M90.32,39.91a3.37,3.37,0,0,0-.1-.61C90.26,39.53,90.28,39.71,90.32,39.91Z"/><path class="cls-25" d="M93.54,39.27c.12.52.22,1,.31,1.55C93.76,40.31,93.66,39.79,93.54,39.27Z"/><path class="cls-25" d="M94.27,45.1V43.77a2.57,2.57,0,0,0-.06-.69c-.06-.24,0-.5-.08-.74s-.07-.61-.12-.92a5.54,5.54,0,0,0-.1-.58c-.08-.51-.18-1-.3-1.55h0l-.49-2.35a1.68,1.68,0,0,0-2-1.28,1.64,1.64,0,0,0-1.18,1v0h0a1.62,1.62,0,0,0-.07.58v.2a.28.28,0,0,0,0,.13.31.31,0,0,0,.06.21c.13.52.23,1,.33,1.53a4.08,4.08,0,0,0,.09.61c0,.2.1.6.14.89s.06.51.09.77,0,.46.06.69a8.38,8.38,0,0,0,0,.84,2,2,0,0,1,0,.55v1.38a6.7,6.7,0,0,1,0,1v.32a7.63,7.63,0,0,1-.13,1.07v.2c-.06.38-.13.78-.21,1.16l3.58,1.11h0A23,23,0,0,0,94.27,45.1Z"/><polygon class="cls-24" points="90.72 48.95 90.48 50.3 92.92 51.91 93.39 49.81 90.72 48.95"/><path class="cls-14" d="M103.41,38.19c0-1.68-.49-3.15-2.19-3.15H92.47a3.07,3.07,0,0,0-3.09,3.06h0l.84,8.72v5.36h12Z"/><ellipse class="cls-14" cx="91.5" cy="43.59" rx="3.03" ry="3.02"/><polygon class="cls-22" points="94.96 34.61 94.69 34.61 94.96 35.08 94.96 34.61"/><polygon class="cls-22" points="96.16 37.17 96.39 37.56 96.62 37.17 96.16 37.17"/><polygon class="cls-12" points="96.99 36.53 98.11 34.61 96.99 34.61 96.99 36.53"/><polygon class="cls-2" points="96.07 37 96.07 34.61 94.96 34.61 94.96 35.08 96.07 37"/><path class="cls-12" d="M93.43,35a2.93,2.93,0,0,0,2.32,2.86,3.18,3.18,0,0,0,.62.06A2.92,2.92,0,0,0,99.31,35H93.43Z"/><path class="cls-2" d="M93.43,35a2.93,2.93,0,0,0,2.32,2.86A2.92,2.92,0,0,0,98.06,35Z"/><polygon class="cls-17" points="91.24 52.19 101.73 52.19 101.74 53.64 91.1 53.64 91.24 52.19"/><path class="cls-14" d="M90.2,42.05V52.4a1.32,1.32,0,0,0,.08.44,1.26,1.26,0,0,0,1.16.8h10.14a1.24,1.24,0,0,0,1.16-.8,1.33,1.33,0,0,0,.09-.44V42.05Z"/><path class="cls-23" d="M97.07,23.9c-2-1.87-2.58-4.58-1.2-6.07l7.38,6.76C101.88,26.12,99.11,25.77,97.07,23.9Z"/><path class="cls-23" d="M93.32,24.07a4.81,4.81,0,0,1-1.29.76,4.3,4.3,0,0,1-1.26.35,21.35,21.35,0,0,1,1.24-4l1.26-1,1.42-1.13C95.74,20.41,95.1,22.64,93.32,24.07Z"/><rect class="cls-23" x="100.83" y="24.41" width="2.07" height="1.94" transform="translate(72.91 126.29) rotate(-87.98)"/><polyline class="cls-14" points="89.47 39.02 88.49 43.21 92.39 43.15"/><polygon class="cls-23" points="91.21 21.8 90.93 23.31 91.6 22.57 91.21 21.8"/><polygon class="cls-23" points="96.36 17.4 97.59 17.4 97.24 17.99 96.36 17.4"/><path class="cls-5" d="M102.19,54a.42.42,0,0,0-.4-.36H91.11a.63.63,0,0,0-.56.36.66.66,0,0,0-.09.33v.36H102.2v-.6A.28.28,0,0,0,102.19,54Z"/><path class="cls-2" d="M102.79,49.91a10.52,10.52,0,0,0,2.19-.76c.62-.27,1.23-.56,1.84-.84a41.35,41.35,0,0,0,3.63-2,1.5,1.5,0,0,1,2,.4,1.41,1.41,0,0,1-.41,1.95l-.07,0a31.45,31.45,0,0,1-8,3.67l-1.26.27h-.1a17.25,17.25,0,0,1,0-2.69Z"/><path class="cls-2" d="M102.65,49.93a10,10,0,0,0-1.85.69l-.1.72,2,1.26.18-2.51Z"/><path class="cls-2" d="M99.56,53A3.13,3.13,0,0,0,101,55.37a3.06,3.06,0,0,0,1.85.69,1.48,1.48,0,0,0,1.42-1.16c0-.61-.84-.84-1.28-1.27a2.69,2.69,0,0,1-.39-1c0-.11.63,0,.54-.12s-.56-.15-.64-.21a3.42,3.42,0,0,1-.6-.91,2.07,2.07,0,0,0-.7-.68c-.36-.2-.47-.08-.72.21A3.25,3.25,0,0,0,99.56,53Z"/><path class="cls-2" d="M112,48.62h0a1.4,1.4,0,0,0,.44-1.93l0-.06a47,47,0,0,0-9.91-11,1.43,1.43,0,0,0-2,.16l0,0h0a1.45,1.45,0,0,0,.26,2,44.37,44.37,0,0,1,9.34,10.37A1.44,1.44,0,0,0,112,48.62Z"/><path class="cls-14" d="M100.44,38c-.36-1-.62-1.94.12-2.64s2-.35,2.84.3A29.51,29.51,0,0,1,107.29,39l-4.37,3.92A22.56,22.56,0,0,1,100.44,38Z"/><path class="cls-23" d="M103.82,21.52h-.15a16.27,16.27,0,0,0-2.61-.16c0,.09.21.09.21.19.06,4.91,1.18,8.68,0,13.56a2,2,0,0,1-.25.62,1.72,1.72,0,0,0-.21,1.19c.24,1.26,1.87,2.31,3.94,2.31.2-.76.36-1.53.49-2.31A29.81,29.81,0,0,0,103.82,21.52Z"/><path class="cls-17" d="M102.44,27.18a1.6,1.6,0,0,1-1.66,1.53h0l.12-3.16a1.59,1.59,0,0,1,1.56,1.62Z"/><path class="cls-23" d="M99.76,17.73a6.19,6.19,0,0,1,4.06,3.79l-1.38.84Z"/><path class="cls-14" d="M98.68,63.57h1.2a1.68,1.68,0,0,1,1.68,1.67v4.47H97V65.24A1.68,1.68,0,0,1,98.68,63.57Z"/><rect class="cls-17" x="97.69" y="69.51" width="2.9" height="29.8"/><rect class="cls-8" x="97.68" y="97.72" width="2.91" height="2.97"/><rect class="cls-8" x="97.02" y="68.04" width="4.54" height="1.69"/><rect class="cls-8" x="89.37" y="66.23" width="1.69" height="4.54" transform="translate(-9.38 122.46) rotate(-65.66)"/><path class="cls-19" d="M83.37,102.28a1.53,1.53,0,0,1,1.23-.62h4.87v2.16h-6.4v-.62A1.51,1.51,0,0,1,83.37,102.28Z"/><path class="cls-19" d="M85.88,103a.06.06,0,0,0,0-.06l.16-.22h.34a5.34,5.34,0,0,1,2.3-1.68,6,6,0,0,1,1.91-.39h2.58a1,1,0,0,1,.84.39,1,1,0,0,1,.21.62v2.1H85.5A4.49,4.49,0,0,1,85.88,103Z"/><path class="cls-10" d="M91.14,102.28a1.54,1.54,0,0,1,1.23-.62h4.87v2.16H90.83v-.62A1.5,1.5,0,0,1,91.14,102.28Z"/><path class="cls-10" d="M93.59,103V103l.16-.22h.33a5.37,5.37,0,0,1,2.31-1.68,5.91,5.91,0,0,1,1.91-.39h2.57a1,1,0,0,1,.84.39,1,1,0,0,1,.22.62v2.1H93.25A5.7,5.7,0,0,1,93.59,103Z"/><path class="cls-5" d="M94.4,18.71H88.79a2,2,0,0,0-2,2,1.84,1.84,0,0,0,.13.69,2,2,0,0,0,1.83,1.27h5.61a.07.07,0,0,0,.06-.07h0V18.79A.07.07,0,0,0,94.4,18.71Z"/><path class="cls-14" d="M99.3,20.25a3.94,3.94,0,0,0-3.11-1.54H89a3.93,3.93,0,0,0,3.91,3.93h7.27A3.9,3.9,0,0,0,99.3,20.25Z"/><path class="cls-14" d="M104.44,21.36a.75.75,0,0,0-.61-.32H97.35v1.6h7.24V21.8A.69.69,0,0,0,104.44,21.36Z"/><path class="cls-16" d="M82.25,42.34a3.9,3.9,0,0,0-2.85-1.25v19a3.9,3.9,0,0,0,2.85,3.75,4.17,4.17,0,0,0,1,.16V45A3.86,3.86,0,0,0,82.25,42.34Z"/><path class="cls-26" d="M80.18,42.38A1.41,1.41,0,1,1,78.76,41h0A1.41,1.41,0,0,1,80.18,42.38Z"/><circle class="cls-23" cx="75.27" cy="46.88" r="5.68"/><path class="cls-8" d="M69.11,102.28l2.37-.38a71.28,71.28,0,0,1-.9-9.89H68.23A70.7,70.7,0,0,0,69.11,102.28Z"/><path class="cls-2" d="M70.86,84.85l-2.39-.21A69.71,69.71,0,0,0,68.23,92h2.39A65.8,65.8,0,0,1,70.86,84.85Z"/><path class="cls-2" d="M78.81,84.8l-2.38.13a67.51,67.51,0,0,0,.74,7.1H79.6A69.78,69.78,0,0,1,78.81,84.8Z"/><path class="cls-8" d="M77.17,92a69.61,69.61,0,0,0,2.41,10.27l2.28-.71A69.53,69.53,0,0,1,79.6,92Z"/><path class="cls-2" d="M70.41,58.45a35.33,35.33,0,0,1-2.84,7.49c-.18.36-.38.72-.58,1.07s-.34.62-.52.92l-.06.09a6.1,6.1,0,0,1-.36.58h0l-.07.1a.78.78,0,0,1-.27.24,1,1,0,0,1-1.14,0,1.08,1.08,0,0,1-.28-1.46l.1-.16c.09-.14.18-.28.26-.43a.86.86,0,0,1,.1-.16,33.49,33.49,0,0,0,3.63-8.82,1.07,1.07,0,0,1,1.25-.79,1.06,1.06,0,0,1,.79,1.27S70.41,58.43,70.41,58.45Z"/><path class="cls-14" d="M70.65,59.05a1.42,1.42,0,0,0-.39-1.91,1.5,1.5,0,0,0-2,.47,13.53,13.53,0,0,0-1.78,2.59,10.49,10.49,0,0,0,2.74,1.52A26,26,0,0,1,70.65,59.05Z"/><path class="cls-8" d="M66.52,60.17c-.19.34-.37.67-.55,1a6.5,6.5,0,0,0,2.81,1.47l.48-1A9.94,9.94,0,0,1,66.52,60.17Z"/><path class="cls-14" d="M79,60c-.24-1.92-1.43-3.29-2.81-3.29H70.79C69.39,56.66,68.22,58,68,60l-.18,9.76H79Z"/><path class="cls-8" d="M75.54,56.63v.83c0,.25-1,.45-2.13.45s-2.16-.2-2.16-.45v-.83c0,.24,1,.45,2.16.45S75.54,56.87,75.54,56.63Z"/><rect class="cls-12" x="72.04" y="54.91" width="2.74" height="3.22"/><rect class="cls-2" x="71.81" y="54.91" width="2.08" height="3.22"/><polygon class="cls-8" points="71.81 56.29 73.4 58.13 69.04 59.31 69.75 56.89 71.81 56.29"/><path class="cls-2" d="M78.21,45.13v1.34L78,51.27a4.83,4.83,0,0,1-.11.84,4.65,4.65,0,0,1-.28.79,5.66,5.66,0,0,1-.41.71,4.42,4.42,0,0,1-4.4,1.78A4.36,4.36,0,0,1,69.16,51l.16-4.37V46.2a5.93,5.93,0,0,1,.2-.93,5.71,5.71,0,0,1,5-4.11h.69a2.2,2.2,0,0,1,.52,0A4.34,4.34,0,0,1,78.21,45.13Z"/><path class="cls-12" d="M78.21,45.13v1.34L78,51.27a4.83,4.83,0,0,1-.11.84,4.65,4.65,0,0,1-.28.79,5.66,5.66,0,0,1-.41.71,4.42,4.42,0,0,1-4.4,1.78A4.37,4.37,0,0,0,76.7,51.2l.19-5.56v-.55a4.29,4.29,0,0,0-2.33-4h.69a1.8,1.8,0,0,1,.52.05A4.31,4.31,0,0,1,78.21,45.13Z"/><path class="cls-18" d="M71.19,50.7a.57.57,0,0,0,.53.58h0a.57.57,0,0,0,.59-.54h0Z"/><path class="cls-8" d="M72.74,52.43a1,1,0,0,1-1.95-.06Z"/><path class="cls-16" d="M69.58,48.75a.4.4,0,0,0,.39.42h0a.42.42,0,0,0,.42-.42.42.42,0,0,0-.42-.42.42.42,0,0,0-.4.41Z"/><path class="cls-16" d="M73.31,48.88a.42.42,0,1,0,.42-.42A.42.42,0,0,0,73.31,48.88Z"/><path class="cls-23" d="M73.67,43.39c1.4.93,2.65,1.26,3.83,3.69.33.64.39.89,1,2.11.21.48.36.37.83.59a10,10,0,0,0-.31-3,8.2,8.2,0,0,0-.83-2.41,4.21,4.21,0,0,0-3.42-2,.51.51,0,0,0-.32,0,.7.7,0,0,0-.19.15l-.5.53C73.79,43.12,73.62,43.35,73.67,43.39Z"/><path class="cls-23" d="M78.92,43.65l.12.07L77.36,44l.33,1.17L79,46.58Z"/><path class="cls-23" d="M73.51,46.77c-2-1.78-2.18-4.11-.84-5.53l6.76,6.19C78.09,48.85,75.45,48.55,73.51,46.77Z"/><path class="cls-16" d="M69.55,47.75a1.61,1.61,0,0,1,.89-.19.17.17,0,0,0,.19-.13h0a.16.16,0,0,0-.15-.18h0a2.07,2.07,0,0,0-1.06.22.16.16,0,0,0-.09.22v0h0A.18.18,0,0,0,69.55,47.75Z"/><path class="cls-16" d="M74.34,47.75a1.67,1.67,0,0,0-.9-.19.18.18,0,0,1-.19-.13h0a.16.16,0,0,1,.15-.18h0a2.07,2.07,0,0,1,1.06.22.16.16,0,0,1,.09.22v0h0A.17.17,0,0,1,74.34,47.75Z"/><polygon class="cls-23" points="79.72 46.58 77.1 46.58 77.1 48.33 77.84 48.33 79.36 49.56 79.72 46.58"/><path class="cls-27" d="M73.31,52.11A1.33,1.33,0,0,1,70.65,52H72Z"/><path class="cls-28" d="M70.88,52.83a1.3,1.3,0,0,0,.91.59h.4a1.33,1.33,0,0,0,.94-.65,2,2,0,0,0-1-.3A1.77,1.77,0,0,0,70.88,52.83Z"/><path class="cls-8" d="M71,52.06c0,.26.39.48.84.5s.9-.18.9-.44Z"/><path class="cls-23" d="M78.62,46.24a1.86,1.86,0,0,1-.07.52c-.26,1.24-1.46-.66-3.19-1.68a3.61,3.61,0,0,0-1.75-.52c-1.68-.06-3.36,1.42-4.32,2-.69.44-1.09.46-1.05-.68A5.16,5.16,0,0,1,73.62,41a4.81,4.81,0,0,1,1,.13,5.12,5.12,0,0,1,4,5.16Z"/><path class="cls-23" d="M69.6,47.22a2.31,2.31,0,0,0,1.25-.54,5.13,5.13,0,0,0,1.68-3.22.21.21,0,0,0,0-.19.2.2,0,0,0-.19-.09,2.08,2.08,0,0,0-1.31.33,5.37,5.37,0,0,0-2,2,6.44,6.44,0,0,0-.34.7c-.08.16-.24.39-.17.57C68.63,47.15,69.27,47.22,69.6,47.22Z"/><path class="cls-17" d="M79.1,49.78a1.42,1.42,0,0,1-1.48,1.34l.1-2.79A1.42,1.42,0,0,1,79.1,49.78Z"/><path class="cls-2" d="M82.53,69a1.08,1.08,0,0,1-1.24-.84c-.05-.22-.11-.45-.18-.67a1.36,1.36,0,0,1,0-.17A33.27,33.27,0,0,0,77.3,58.5a1,1,0,0,1-.16-.57,1,1,0,0,1,1-1,1,1,0,0,1,.91.52,34.85,34.85,0,0,1,3.75,8.44c.1.33.2.67.29,1a.17.17,0,0,0,0,.1c0,.22.11.44.16.66h0a1,1,0,0,1-.68,1.31Z"/><path class="cls-2" d="M86.36,77.3a1.06,1.06,0,0,1-1.46-.38h0a36,36,0,0,1-3.63-8.74h0c-.05-.23-.11-.45-.17-.67a1.21,1.21,0,0,1,0-.18l-.15-.68a1.05,1.05,0,0,1,.78-1.27h0a.61.61,0,0,1,.19,0,1.06,1.06,0,0,1,.93.56c.1.34.2.67.28,1V67c0,.23.11.44.17.65h0a33.46,33.46,0,0,0,3.43,8.16A1.08,1.08,0,0,1,86.36,77.3Z"/><path class="cls-14" d="M79.23,57.43a1.51,1.51,0,0,0-2-.38,1.45,1.45,0,0,0-.3,2,24.43,24.43,0,0,1,1.47,2.45A17.12,17.12,0,0,0,81.21,60,14.36,14.36,0,0,0,79.23,57.43Z"/><path class="cls-8" d="M78.41,61.46c.19.36.4.72.6,1.07a6.44,6.44,0,0,0,2.72-1.61c-.17-.3-.34-.6-.52-.88A17.12,17.12,0,0,1,78.41,61.46Z"/><polygon class="cls-8" points="74.78 56.26 73.4 58.13 77.83 59.31 77.34 56.66 74.78 56.26"/><path class="cls-2" d="M89.13,76.2A1.65,1.65,0,0,0,88,75.42c-.43-.08-.89,0-1.31-.1a1.39,1.39,0,0,1-.84-.66.27.27,0,0,0-.07-.08h-.13a2.41,2.41,0,0,0-.65.84,1.88,1.88,0,0,0-.26.89,1,1,0,0,0,.17.5h0a1.21,1.21,0,0,0,1.2.67,8.64,8.64,0,0,1,1.44-.09c.47.09,1,.36,1.39.13a.75.75,0,0,0,.37-.61A1.19,1.19,0,0,0,89.13,76.2Z"/><path class="cls-2" d="M67.57,65.94c-.18.36-.38.72-.58,1.07s-.34.62-.52.92l-.06.09a6.1,6.1,0,0,1-.36.58h0l-.07.1-.27.24a34.78,34.78,0,0,1-7.17,5,1.05,1.05,0,0,1-1.43-.42l0,0a1.1,1.1,0,0,1,.5-1.41,33,33,0,0,0,6.8-4.68l.47-.42h0c.15-.15.32-.31.47-.47l.09-.07c.25-.24.51-.48.78-.71a1,1,0,0,1,1.09,0,.85.85,0,0,1,.26.24Z"/><path class="cls-23" d="M80.94,47c-.07,1.85-1,.89-2.39-.24l-.38-.32a10.08,10.08,0,0,0-1.28-.84,4.55,4.55,0,0,0-1.53-.52,3.64,3.64,0,0,0-1.75-.55c-1.68-.06-3.29,1.39-4.29,2h0a1.21,1.21,0,0,1,.05-.42,4.85,4.85,0,0,1,.19-.92,5.74,5.74,0,0,1,5-4.12h0q.34,0,.69,0a2.2,2.2,0,0,1,.52,0A5.78,5.78,0,0,1,80.94,47Z"/><path class="cls-23" d="M73.62,41s3.42-.09,4.72,1.07l-3.82.16Z"/><path class="cls-26" d="M70.2,49.65h-.93a.38.38,0,0,0-.26.11.46.46,0,0,0-.1.25.36.36,0,0,0,.36.36h.93a.36.36,0,0,0,.36-.36h0a.46.46,0,0,0-.1-.25A.38.38,0,0,0,70.2,49.65Z"/><path class="cls-26" d="M74.64,49.76a.36.36,0,0,0-.26-.11h-.92a.36.36,0,0,0-.26.11.39.39,0,0,0-.1.25.36.36,0,0,0,.36.36h.92a.36.36,0,0,0,.36-.36h0A.39.39,0,0,0,74.64,49.76Z"/><path class="cls-10" d="M82.63,83.55c0,.26-.73,1.13-3.45,1.68-.29.06-.59.12-.93.17a26.9,26.9,0,0,1-3.35.3H72.53c-.92,0-1.73-.07-2.46-.14h0c-4.81-.4-6-1.69-6-2,0,0,3.45-14.31,3.63-14.77a35.45,35.45,0,0,0,5.81.45c2.82-.1,5.51-.45,5.51-.45C79.26,69.24,82.63,83.55,82.63,83.55Z"/><path class="cls-26" d="M64.74,102.41a1.35,1.35,0,0,1,1.1-.55h4.33v1.92H64.46v-.53A1.41,1.41,0,0,1,64.74,102.41Z"/><path class="cls-26" d="M69.63,100.21h0a2.11,2.11,0,0,0-1.24.4l-1.61,1.15,2.66-.21h.84v-.67A.66.66,0,0,0,69.63,100.21Z"/><path class="cls-26" d="M65,103.11h0c0-.08.09-.15.14-.21h.3a4.72,4.72,0,0,1,2-1.45,5.47,5.47,0,0,1,1.83-.41h2.29a.9.9,0,0,1,.76.41,1,1,0,0,1,.15.5v1.87H64.75A4,4,0,0,1,65,103.11Z"/><path class="cls-26" d="M75.32,102.41a1.34,1.34,0,0,1,1.09-.55h4.34v1.92H75v-.53A1.35,1.35,0,0,1,75.32,102.41Z"/><path class="cls-26" d="M80.2,100.21h0a2.11,2.11,0,0,0-1.24.4l-1.6,1.15,2.65-.19h.84v-.68a.66.66,0,0,0-.65-.68Z"/><path class="cls-26" d="M75.61,103.11h0a1.1,1.1,0,0,1,.14-.21h.3A4.8,4.8,0,0,1,78,101.49a5.28,5.28,0,0,1,1.84-.4h2.3a.85.85,0,0,1,.75.4.74.74,0,0,1,.15.5v1.87h-7.7A4.89,4.89,0,0,1,75.61,103.11Z"/><polygon class="cls-19" points="68.69 85.44 70.04 77.28 70.04 85.61 68.69 85.44"/><path class="cls-10" d="M74.58,85.73s-.49.12-1.2.22c-.32,0-.69.09-1.07.12a14.21,14.21,0,0,1-2.26,0v-.43h0l3.35.1h1.18Z"/><path class="cls-19" d="M74.51,85.73h.07s-.49.12-1.2.22V85.7l.51-11.27,1,11.29Z"/><path class="cls-10" d="M74.88,85.16l.1,1A9.5,9.5,0,0,0,76.49,86a19.28,19.28,0,0,0,1.85-.55l-2.28-.6Z"/><path class="cls-19" d="M79.18,85.25c-.29.06-.59.12-.93.17V79.69Z"/><path class="cls-10" d="M79.18,85.25l.08.61S82,85,82.61,83.55Z"/><path class="cls-29" d="M88.74,79.62a1.91,1.91,0,0,1-1.68.55,1.65,1.65,0,0,1-.48-.14,1.89,1.89,0,0,1-1-1,1.63,1.63,0,0,1-.14-.49A1.89,1.89,0,0,1,86,76.85a2,2,0,0,1,2.75,2.76Z"/><path class="cls-8" d="M88.08,77.53a1.17,1.17,0,0,0-1.66,0l0,0-1,1a1.63,1.63,0,0,0,.14.49l1.17-1.16a.72.72,0,0,1,1,0h0a.7.7,0,0,1,0,1h0L86.58,80a1.65,1.65,0,0,0,.48.14l1-1A1.17,1.17,0,0,0,88.08,77.53Z"/><path class="cls-21" d="M60.19,53.94c.54,3.82-1.38,8.51-4.49,8.94S49.54,59.29,49,55.46s1.55-7.26,4.64-7.69S59.66,50.12,60.19,53.94Z"/><path class="cls-10" d="M55.78,63.26c-3.36.46-6.6-3.78-7.15-7.73s1.68-7.66,5-8.12,6.41,2.46,7,6.47S59.14,62.8,55.78,63.26ZM53.7,48.17c-2.87.39-4.81,3.64-4.31,7.25s3.39,7.48,6.31,7.08,4.63-5,4.14-8.51-3.3-6.22-6.14-5.81Z"/><path class="cls-10" d="M57.48,62.26l-3.62.49L55.37,68h0l.55,1.81,1.42-.2.1-1.9h0Zm-.76.73V67.9h0a.26.26,0,0,1-.24.18.28.28,0,0,1-.29-.13l-1.4-4.69Z"/><path class="cls-19" d="M57.44,68.75,58.58,77l-1.8.27L55.65,69a.27.27,0,0,1,.21-.32h0l1.28-.18A.27.27,0,0,1,57.44,68.75Z"/><path class="cls-2" d="M55.85,73.77a.84.84,0,0,0,1.14.32.8.8,0,0,0,.29-.26,1,1,0,0,0,.1-.76,1.88,1.88,0,0,0-.53-.94c-.34-.32-1.11-.42-1.12.1A2.89,2.89,0,0,0,55.85,73.77Z"/><path class="cls-2" d="M58.53,72.55a2.52,2.52,0,0,1-1.15-.43.73.73,0,0,1-.3-.39.38.38,0,0,1,.15-.43.48.48,0,0,1,.52.12.54.54,0,0,0,.16.14.83.83,0,0,0,.69,0,1.19,1.19,0,0,1,0,.53C58.59,72.23,58.56,72.37,58.53,72.55Z"/></g></g><path class="cls-30" d="M37.71,127.84H35.06v-9.61H31.4V115.8h10v2.43H37.72Z"/><path class="cls-30" d="M43.4,115.8h9.08v2.35H46v2.44H51.7v2.35H46v2.5h6.53v2.4H43.41Z"/><path class="cls-30" d="M57.53,120.18v7.66H54.91v-12h2.45L63,123.2v-7.4h2.62v12H63.36Z"/><path class="cls-30" d="M71.12,120.18v7.66H68.5v-12h2.44l5.64,7.4v-7.4H79.2v12H76.94Z"/><path class="cls-30" d="M82.21,115.8h2.61v12H82.21Z"/><path class="cls-30" d="M95.35,127a4.89,4.89,0,0,1-3.21,1,7.64,7.64,0,0,1-2.71-.49,7.46,7.46,0,0,1-2.4-1.44l1.57-1.87a6.94,6.94,0,0,0,1.74,1.08,4.55,4.55,0,0,0,1.85.39,2.38,2.38,0,0,0,1.28-.3,1,1,0,0,0,.46-.84h0a.92.92,0,0,0-.19-.6,1.75,1.75,0,0,0-.71-.46,13.36,13.36,0,0,0-1.52-.47,13,13,0,0,1-2.21-.74A3.23,3.23,0,0,1,88,121.15a3.18,3.18,0,0,1-.47-1.85h0a3.29,3.29,0,0,1,.54-1.9,3.63,3.63,0,0,1,1.5-1.27,4.93,4.93,0,0,1,2.17-.46,6.91,6.91,0,0,1,4.47,1.53l-1.38,2A5.57,5.57,0,0,0,91.69,118a2,2,0,0,0-1.14.29.91.91,0,0,0-.4.76h0a1,1,0,0,0,.21.65,1.86,1.86,0,0,0,.75.45,15.94,15.94,0,0,0,1.67.48A7.33,7.33,0,0,1,95.66,122a2.87,2.87,0,0,1,.94,2.3h0A3.36,3.36,0,0,1,95.35,127Z"/></svg>