<svg id="Layer_17" data-name="Layer 17" xmlns="http://www.w3.org/2000/svg" viewBox="0 0 128 128"><defs><style>.cls-1{fill:#02a8e2;}.cls-2{fill:#9e9c9c;}.cls-3{fill:#c1272d;}.cls-4{fill:#9e1923;}.cls-5{fill:#b5441b;}.cls-6{fill:#9b3110;}.cls-7{fill:#9b2c2c;}.cls-8{fill:#1f80aa;}.cls-9{fill:#f9be3d;}.cls-10{fill:#f58500;}.cls-11{fill:#f7931e;}.cls-12{fill:#f15a24;}.cls-13{fill:#d9d9d9;}.cls-14{fill:#f0f0f0;}.cls-15{fill:#c7c7c7;}.cls-16{fill:#703416;}.cls-17{fill:#542812;}.cls-18{fill:#664021;}.cls-19{fill:#e54b1c;}.cls-20{fill:#eaac81;}.cls-21{fill:#efb78e;}.cls-22{fill:#3f668e;}.cls-23{fill:#ed1c24;}.cls-24{fill:#54bce8;}.cls-25{fill:#a9ddf3;}.cls-26{fill:#d7f5ff;}.cls-27{fill:#666;}</style></defs><g id="Layer_1-2" data-name="Layer 1-2"><path class="cls-1" d="M13.5,22.81V20.59a2.21,2.21,0,0,1,.05-.25A12,12,0,0,1,16.87,13a20,20,0,0,1,6.65-4.52,39.9,39.9,0,0,1,7.15-2.35c1.42-.34,2.84-.73,4.28-1a56.8,56.8,0,0,1,7.13-.48,1.82,1.82,0,0,0,.57,0h6.5a1.13,1.13,0,0,0,.26,0c1,0,2.08.06,3.13.1,1.74.07,3.47.19,5.19.34,2.16.18,4.32.41,6.45.78A49.17,49.17,0,0,1,74.4,8.38c1.28.5,2.62.78,3.91,1.2a126.06,126.06,0,0,1,16.82,6.1,58.71,58.71,0,0,1,9.16,5.12.89.89,0,0,1,.26.21,3.23,3.23,0,0,0,1.14,1c.94.58,1.89,1.13,2.82,1.71a22.18,22.18,0,0,1,5.29,4.36A12.84,12.84,0,0,1,116.73,34c.09.49.16,1,.23,1.47v2.13c0,.32-.08.64-.13.95a22.32,22.32,0,0,1-2.12,6.72,48.34,48.34,0,0,1-6,9.23c-.53.66-1.11,1.28-1.57,2s-.91,1.3-1.39,1.92A163.36,163.36,0,0,1,94.49,71.2c-1.69,1.75-3.42,3.46-5.17,5.14s-3.66,3.42-5.56,5.06A118.78,118.78,0,0,1,74.07,89a72.71,72.71,0,0,1-10.55,6.26c-.24.12-.48.25-.71.39-.89.6-1.8,1.17-2.74,1.7a26.15,26.15,0,0,1-9.15,3.24c-.51.08-1,.12-1.56.19H47l-.23-.05A17.42,17.42,0,0,1,40.3,99a24.09,24.09,0,0,1-7.78-6.26,43.35,43.35,0,0,1-5.39-8.27,80.58,80.58,0,0,1-4.75-11.59c-.4-1.19-.71-2.41-1.22-3.56a86.32,86.32,0,0,1-4.6-14A97.07,97.07,0,0,1,14.1,40.93c-.22-2.47-.34-5-.38-7.42,0-2.07,0-4.15.2-6.21a6.81,6.81,0,0,0-.07-1.86,4.63,4.63,0,0,0-.1-.65C13.67,24.15,13.59,23.48,13.5,22.81Z"/><path class="cls-2" d="M46.13,117.27h2.36V128H46.13Z"/><path class="cls-2" d="M53.53,121.7h5.12v2.14H53.53V128H51.15V117.27h8.16v2.11H53.53Z"/><path class="cls-2" d="M61.24,117.27H63.6v8.59H69V128H61.24Z"/><path class="cls-2" d="M74.11,128H71.75v-4.23l-4.12-6.5h2.76l2.56,4.3,2.61-4.3h2.68l-4.13,6.45Z"/><path class="cls-3" d="M110.79,60.78c-.25.31-.6.74-1,1.2a9.65,9.65,0,0,1,3.8,2.34,16.21,16.21,0,0,1,1.56,1.54c.93,1.4,0,2.58-.87,3.28a10.73,10.73,0,0,0,1.49.9c1.31.42,2.19,1.81,3.2,2.7a4.61,4.61,0,0,0,1.57,1.2l.48-.37C120.77,67.91,116.24,62.79,110.79,60.78Z"/><path class="cls-4" d="M121.45,71.75a15.93,15.93,0,0,0-6.19-10.39c-1.29-.89-3.45-1.86-4.08-1l-.39.47c5.56,2,9.69,7.36,9.74,13.16C121.24,73.53,121.67,73.37,121.45,71.75Z"/><path class="cls-3" d="M87.83,92.88c.42,2.46-1.4,2.5-2.65,2.69-.42.23-.84.44-1.28.63l-1.45-.43c.38.67,1.52.6,2.27,1.21,1.52,1.25,4.07,2.88,4.93,4.57.95,1.86,1.34,2,2.42,1.92h0C92.09,99.65,90.28,96.06,87.83,92.88Z"/><path class="cls-4" d="M91.41,95.28c-1.17-2-2-4.09-3.4-4.93a18.58,18.58,0,0,1-.31,2c-.1.42,0-.09.11.42v.15c2.45,3.18,4.25,6.77,4.25,10.59C94.15,103.38,92,96.29,91.41,95.28Z"/><path class="cls-3" d="M84.14,96s1.08-.49,1-.46C84.68,95.64,84.27,95.74,84.14,96Z"/><path class="cls-5" d="M46.38,51.5a3.29,3.29,0,0,0-.48-.57Z"/><path class="cls-5" d="M49.92,35.64v.58C50.05,36.24,50,36,49.92,35.64Z"/><path class="cls-5" d="M65.33,41.11c-.21-.31-.42-.61-.64-.9a11.22,11.22,0,0,0,.45,1.63C65.21,41.6,65.27,41.36,65.33,41.11Z"/><path class="cls-5" d="M68.2,46.09l-.08-.16-.18-.11Z"/><path class="cls-5" d="M65.14,41.84a10.68,10.68,0,0,0,1.1,2.22c.58.56,1.15,1.14,1.72,1.72l.18.12a34.73,34.73,0,0,0-2.81-4.83C65.27,41.36,65.21,41.6,65.14,41.84Z"/><path class="cls-5" d="M68.62,47c-.13-.29-.27-.58-.41-.88L68,45.82l-.18-.11.18.11c-.57-.59-1.14-1.17-1.72-1.73A14.66,14.66,0,0,0,68.62,47Z"/><path class="cls-5" d="M68.14,45.93l.07.16.33.35-.34-.35.4.88a20.74,20.74,0,0,0,1.65,1.46,2.4,2.4,0,0,0,.28.27A8.38,8.38,0,0,0,68.14,45.93Z"/><path class="cls-6" d="M63.69,34.36c.43,1.79.21,3.73.64,5.91l.64.89A35.26,35.26,0,0,1,67.78,46a8.07,8.07,0,0,1,2.4,2.76l.16.13c.65.53,1.76,1.3,2.73,2s1.57,1.08,1.79,1.27l.67.23a20.18,20.18,0,0,1,3.91,1.83c.27.16.54.34.78.51-3.37-7.95-10.78-14-16.23-20.76Z"/><path class="cls-5" d="M80,45.18,66.76,30.06c-1.29,1.79-2.3,3.21-2.77,3.87,5.48,6.75,12.86,12.81,16.29,20.76A22.12,22.12,0,0,1,83.18,57C84.47,53.19,83,48.61,80,45.18Z"/><path class="cls-5" d="M51.21,30.87l-2.25,2c.29.63.58,1.26.88,1.86,1.57.57,2.25.14,2.25.14.18.32.37.63.57.95-.2-.32-.39-.63-.57-.95l.78-.45.11-.07,1.91-1.13h0c.07.05.12-.11.32-.54a27.43,27.43,0,0,1,4-5.69A16.18,16.18,0,0,0,51.21,30.87Z"/><path class="cls-5" d="M43.34,40.6h0l.36.78a2,2,0,0,1,.42-.07h.14c.08.11.12.2.17.27a2.59,2.59,0,0,0,.32.59l0,0c-.24-.42-.43-.78-.53-.9a8.23,8.23,0,0,0-.72-.93l-.29-.07A10.26,10.26,0,0,0,43,41.65a4.24,4.24,0,0,1,.59-.23C43.51,41.13,43.42,40.86,43.34,40.6Z"/><path class="cls-5" d="M43.58,41.4h.12l-.36-.79C43.42,40.86,43.51,41.13,43.58,41.4Z"/><path class="cls-5" d="M49.3,54.84l.9.84.49-.13c-.13-.14-.27-.27-.39-.42A3.83,3.83,0,0,1,49.3,54.84Z"/><path class="cls-5" d="M50.65,55.55l.78-.24a11.77,11.77,0,0,1-1.19-.18Z"/><path class="cls-5" d="M57.36,56.89c.41.23.78.46,1.25.67A11.52,11.52,0,0,0,57.36,56.89Z"/><path class="cls-5" d="M57.36,56.89c-2.16-1-4-.89-4.85-1.51a8.74,8.74,0,0,1-1-.07c1.88,1.3,3.91,2.49,5.89,3.64a17.41,17.41,0,0,0,2.35-.55,10.34,10.34,0,0,0-1.16-.84C58.18,57.36,57.77,57.12,57.36,56.89Z"/><path class="cls-5" d="M60.92,61l1-.28a13.45,13.45,0,0,0-2.16-2.3,16.92,16.92,0,0,1-2.34.55Z"/><path class="cls-7" d="M64.22,64.66c-.26-.56-.52-1.08-.79-1.57a20.3,20.3,0,0,0-1.49-2.39L61,61l-3.52-2c-2-1.15-4-2.34-5.89-3.64h-.07l-.78.25-.49.13L58.5,64a16.63,16.63,0,0,0,5.18,4.16c.15-.41.31-.83.47-1.25s.35-1,.54-1.44C64.33,65.09,64.59,65.48,64.22,64.66Z"/><path class="cls-5" d="M52.63,35.9v-.11h-.07Z"/><path class="cls-3" d="M16.38,43.34c-.09-.52-.09-1.39-.2-2.1-3.22-.47-6.44-1.05-9.59.06-.1,0-.14.17,0,.22,1.48,1,3.9.57,5.46,1.32a.36.36,0,0,1,.2.46.36.36,0,0,1-.39.22l-1.2-.1c-.56-.05-1.39.12-1.39.69a16.35,16.35,0,0,0,7.36.3h0C16.52,44,16.45,43.7,16.38,43.34Z"/><path class="cls-8" d="M52.59,35.82h.07c-.2-.32-.39-.63-.57-1C52.27,35.18,52.43,35.5,52.59,35.82Z"/><path class="cls-8" d="M44.26,41.29h-.14l.31.25C44.38,41.48,44.34,41.4,44.26,41.29Z"/><path class="cls-9" d="M45.2,42.63c-.25-.19-.39-.35-.4-.44l-.07,0a2.82,2.82,0,0,1-.32-.59l-.31-.26h0a3.07,3.07,0,0,0-.42.07c.25.53.51,1.07.78,1.57A5.47,5.47,0,0,0,45.2,42.63Z"/><path class="cls-9" d="M40.85,42.64c-2.53-1-4.46,0-6.83.43h0c-1.13-.08-2.06-.19-2.91-.3-2.23-.29-5.47-3.64-7.23-1.44-.84,1.05-6-2.59-8.61-2.35a2.63,2.63,0,0,0-.78,3.13c.12-.53.4-.93.78-.94,4.11-.46,6.46,4.69,11,3.91-.37-.37.36-.78.35-1.13,5,1.07,10.28,1.44,15.17,0q-.27-.71-.48-1.44A2,2,0,0,1,40.85,42.64Z"/><path class="cls-9" d="M41.55,42.41a2.22,2.22,0,0,1-.31.13c.15.48.3,1,.48,1.43h.09A14.1,14.1,0,0,1,41.55,42.41Z"/><path class="cls-9" d="M75.65,52.21l.18.19,0-.11Z"/><path class="cls-9" d="M113.73,65.32c-3.24-.78-3.49,3.74-6.13,4.48-2.43.68-5-1.74-8.88,3-.42.52-2,1-3.26,1.36C92.07,70,89.29,62.29,83.54,56.93a21.88,21.88,0,0,0-3.7-2.79c-3.76-3.13-3.31-1.27-3.58-.78.87.78,4.41,3.67,5.25,4.47s0,2.25.43,3c4.63,6.26,10.71,10.64,12,18.85,0,.38,1.12.35,1.88.34,0-1.5-.08-3.74,1.78-4.16,0,.79,1.13.36,1.15,1.11,3-.44,1-6,4.76-5,1.88.34,4.53,1.41,3.82,3.67,1.12,0,1.47-1.57,1.47-1.57.78-5.29,4.24-6.84,8.16-6.93A8.79,8.79,0,0,0,113.73,65.32Z"/><path class="cls-9" d="M69,85.37c2.27,1.08,2.72,5.19,4.2,4,2.94-2.67,4.85-.84,7.13.61-.36.78-.72,1.51-.33,2.25.38.37,1.52,1.09,1.89.71.7-1.89,2.14-4.91,3.67-3.44A6.49,6.49,0,0,1,87.88,92c.19-2,0-4.49-2.06-5.15-5.18-1.67-6.68.62-11-2.94-.78-.63-4.1.59-5.14.12-.22-.1-.61-.44-.84-.53-.78-.33-.61-1.13-.11-1.86.2-.29,1.34-2.35,1.56-2.74a16.14,16.14,0,0,0-3.61,6.86C67.48,85.78,68.2,85,69,85.37Z"/><path class="cls-10" d="M23.1,46.48c-.32.63.95,1.27.63,1.27-2.59.26-6.45.09-8.47-2,.06.36.13.74.21,1.09h0a.32.32,0,0,0,0,.17,1.76,1.76,0,0,0,1.57,1.41c2.62.23,5.75.76,8.1,1.08,1.63.22,8.31.78,9.73.54h.24a57.35,57.35,0,0,0,9.77,1c-.44-.74-.87-1.49-1.27-2.25C37,46.83,29.42,50.91,23.1,46.48Z"/><path class="cls-11" d="M41.72,44c-4.89,1.41-10.13,1-15.16,0a.74.74,0,0,1-.24.46,1.84,1.84,0,0,1-1.7.73c-3.51-.43-5.75-4.35-9.39-3.91-.38,0-.66.4-.78.94a3.38,3.38,0,0,0,.24.41,2.18,2.18,0,0,1,.31.93c.11.78.11,1.66.21,2.21v0c2,2.13,5.88,2.3,8.48,2,.31,0-1-.63-.64-1.27C29.38,51,37,46.9,43.62,48.76a20.69,20.69,0,0,1-1.67-4A3.58,3.58,0,0,0,41.72,44Z"/><path class="cls-11" d="M41.81,44h-.09c.09.22.18.44.28.66A5.72,5.72,0,0,1,41.81,44Z"/><path class="cls-10" d="M42.78,48.48a8.4,8.4,0,0,0,.94,2.45c2.35,1.35,4.86,3.71,5.17,3.7,0,0-1.57-2.41-1.32-2.39a24,24,0,0,1-3.06-3.31,8.18,8.18,0,0,0-.79-.23C43.45,48.64,43.1,48.54,42.78,48.48Z"/><path class="cls-11" d="M42.78,48.48c.32.06.64.13,1,.22s.52.14.78.23A19.67,19.67,0,0,1,42,44.63C42.38,46,42.48,47.23,42.78,48.48Z"/><path class="cls-11" d="M47.57,52.24q.61.55,1.26,1.08l-.7-1Z"/><path class="cls-11" d="M47.57,52.24l-.73-.07a13.81,13.81,0,0,0,2,2.46l.41.21c.25.12.68.3,1.13.48a18.83,18.83,0,0,1-1.56-2C48.4,53,48,52.61,47.57,52.24Z"/><path class="cls-10" d="M50.43,55.32l.41.17.64-.2c-.91-.63-3-2.35-3.91-3C48.07,52.94,49.85,54.69,50.43,55.32Z"/><path class="cls-11" d="M85.15,93.87c-2.54-.32-5.71-1.28-7.62-3.18-1.27-1.26-3.81,1.57-6,.32-.32,0,.64-1.27.32-1.9a12.89,12.89,0,0,1-6.5.83,19.74,19.74,0,0,0,3,1.43c4.7,1.89,10.75,3.44,14.09,4.4l1.45.43c.06,0,1.28-.63,1.28-.63a2.08,2.08,0,0,0,2.66-2.4A2.75,2.75,0,0,1,85.15,93.87Z"/><path class="cls-11" d="M87.89,92.05h0a6.38,6.38,0,0,0-2.35-2.51c-1.56-1.48-3,1.56-3.67,3.44-.36.38-1.51-.35-1.88-.71-.39-.74,0-1.5.33-2.26-2.28-1.44-4.19-3.28-7.13-.6-1.48,1.16-1.93-3-4.2-4a1.75,1.75,0,0,0-1.46.21,1.56,1.56,0,0,0,0,1.22c-1.27-1.26-4.13,1.28-3.81,0,1.27-4.75,2.22-9.52,4.76-14a4.2,4.2,0,0,1,1.16-1,1.25,1.25,0,0,0,.58-1.48c-.34-1.14-.67-2.59-1.19-3.07-1.33-.37-3.57-.34-4.64-1.11-2.26,6.2-4.75,14-5.57,18.67-.78.78-.43,2.08.33,3.29a7.46,7.46,0,0,0,2.24,1.56l3.24,1.68a2.85,2.85,0,0,0,.53.38,12.74,12.74,0,0,0,6.49-.84c.33.64-.63,1.91-.31,1.91,2.22,1.27,4.76-1.56,6-.32,1.91,1.9,5.08,2.86,7.62,3.18A2.73,2.73,0,0,0,87.72,95v-.43c-.06-.52-.21,0-.11-.42A18.06,18.06,0,0,0,87.89,92.05Z"/><path class="cls-10" d="M67.56,86.81a1.55,1.55,0,0,1,0-1.23,2.38,2.38,0,0,1-.79.22c.32-2.17,2-4.61,3.62-6.86,1.38-2,2.57-7.64,4.4-11.12-2-.39-3.71,0-5.69-.54a8.2,8.2,0,0,1,1.15,2.93,1.48,1.48,0,0,1-.69,1.69,4.79,4.79,0,0,0-1,.94c-2.53,4.44-3.49,9.21-4.75,14C63.43,88.08,66.28,85.53,67.56,86.81Z"/><path class="cls-10" d="M109.79,76c-1,1.91-3.5.64-5.4.95-1.56.64-2.22,5.4-5.4,4.13-.32,0-.32-1-.63-1.56-2,2.8-5.31,6.21-8.48,5.32h0a10.59,10.59,0,0,0,4.23.23h.12s7-2,7.68-2.34H102a16.39,16.39,0,0,0,1.8-.5c4-1.14,8.06-7.16,13.43-8.6a4.82,4.82,0,0,0,1.26-.73c1-.78,1.89-2,.91-3.46A4.59,4.59,0,0,0,119,69C115.14,69.05,111.9,72.39,109.79,76Z"/><path class="cls-11" d="M117.75,67.79l-.79-.65c-3.91.08-7.34,1.63-8.16,6.93a2.41,2.41,0,0,1-.84,1.34.34.34,0,0,1-.46-.08.43.43,0,0,1-.06-.22c.21-1.93-2.18-2.86-3.91-3.18-3.77-1-1.78,4.53-4.76,5,0-.78-1.14-.35-1.15-1.1-1.57.34-1.78,2-1.8,3.35a.77.77,0,0,1-.78.78H95c-.54,0-1-.1-1-.35-1.3-8.13-6.78-13.53-12-18.81-.39-.74,4.85,2.59,4.39,1.64-1.33-2.75-7-7-9.71-9.11-2.58,4.05-.79,8.39.14,13.12,1,3.46,5.9,9.63,6.26,10.07,2.79,3.48,4.14,5.73,6.87,8.34,3.17.89,6.43-2.52,8.48-5.32.31.63.31,1.56.63,1.56,3.18,1.27,3.81-3.5,5.4-4.13,1.9-.31,4.44,1,5.4-1,2.11-3.62,5.37-7,9.24-7C118.6,68.56,118,68,117.75,67.79Z"/><path class="cls-11" d="M50.84,55.49a14.92,14.92,0,0,0,2.19.79l-1.57-1Z"/><path class="cls-11" d="M70.7,48.83l-.16-.13.13.21Z"/><path class="cls-12" d="M67.91,58.22c-1.91-1.65-6.39-6-8.2-7.76q-.28.27-.57.51c1.85,1.71,6.35,5.75,8.15,7.4C67.5,58.23,67.7,58.38,67.91,58.22Z"/><path class="cls-12" d="M54.27,44.1a2.17,2.17,0,0,1-.66.62A27.35,27.35,0,0,0,57.12,49c.22-.17.43-.34.63-.52A32.2,32.2,0,0,1,54.27,44.1Z"/><path class="cls-10" d="M71.56,56.72a5.15,5.15,0,0,1-6.78,2.63,5.63,5.63,0,0,1-.76-.42,21.88,21.88,0,0,0-7.56-3.56c-.55,0-1.34-.72-2-1.32l-.79.36c2,1.57,6.64,6.41,8.94,8a6.62,6.62,0,0,1,.78.9A21.06,21.06,0,0,0,65.71,65a.74.74,0,0,1,0-.14.74.74,0,0,0,0,.14c3.13,2,5.48,2.09,9.21,2,.06-.08,1-.44,1-.73h0c-1.71-5-2.2-9.23-.07-13.95l-.19-.19-.32-.11-.15.09A11,11,0,0,0,71.56,56.72Z"/><path class="cls-11" d="M74.36,51.43c.07-.11.43-.4.48-.49-2.73-2-8.6-4.53-10.55-6.74a19.15,19.15,0,0,1-4.58,6.26c1,1,3.13,3.2,5.11,5.21C62.64,53.91,60.23,52,59.14,51a22.11,22.11,0,0,1-4.7,3.07c.61.61,1.41,1.33,2,1.33,3.75.83,6.41,2.77,9.15,4.62a3.59,3.59,0,0,0,5-.93,3.45,3.45,0,0,0,.46-.92,11.65,11.65,0,0,1,4.17-5.94l.15-.1h-.11A5.27,5.27,0,0,0,74.36,51.43Z"/><path class="cls-11" d="M53.61,44.72c-2.19,1.28-7-1-8.41-2.09-.24.12-.47.22-.71.32A37.79,37.79,0,0,0,51,52,15.23,15.23,0,0,0,57.13,49,26.87,26.87,0,0,1,53.61,44.72Z"/><path class="cls-11" d="M55,35.12a16.88,16.88,0,0,0-1.43,2.77c1.37,3.28,1.41,5.19.73,6.21a32.2,32.2,0,0,0,3.48,4.4,15.36,15.36,0,0,0,4.19-6C60.67,39,57.53,37,55,35.12Z"/><path class="cls-11" d="M65.4,24.12a.6.6,0,0,0,0-.19Z"/><path class="cls-10" d="M73,19.49A7,7,0,0,0,73.27,17c-1.9,2.86-1.57,7.3-5.08,8.89-.3,0-1.13.27-1.25-.44a8.19,8.19,0,0,1-2.25,6.47,11.53,11.53,0,0,0-2.34,5.63l.69.73c.58.63,2,4.09,2.51,4.78-1-3.13.27-11,2.07-13.53.56-.78.68-1.13,1.33-2,3.91-5.41,8-10.14,9.17-11.69,0,0,.95-2.12,1-2.11V12.58l-.38.32h0C77.36,15.23,74.33,17.2,73,19.49Z"/><path class="cls-11" d="M76,11.33,75.48,11v-.06h0c-.19,0-.33-.26-.47-.58a10.89,10.89,0,0,1-3.86,2.39c-2.6,1.17-.27,5.24-1.33,7.89-1.15-.73-.45-3.36-1.57-3-1.48.41-.66,3.76-1.77,4.53-3.68,3.08-7.36,6.52-9.14,10.67a4,4,0,0,1-.42.65,23.18,23.18,0,0,1,5.36,4,11.5,11.5,0,0,1,2.34-5.62,8.2,8.2,0,0,0,2.25-6.47.67.67,0,0,1,0-.2v.2c.12.7.95.43,1.25.43,3.49-1.56,3.18-6,5.08-8.89a7,7,0,0,1-.32,2.54c1.38-2.29,4.41-4.26,5.75-6.6l-1.27-.72C77,11.9,76.5,11.62,76,11.33Z"/><path class="cls-9" d="M66.24,67c-.3-.22-2.08-.59-2.35-.85-.15.41.31-.13.16.29-2,5.47-4.1,12.2-4.1,12.2-1,3.34-3.25,6.78-.78,9.47-.78-1.21-1.08-2.5-.33-3.29A57.55,57.55,0,0,1,66.24,67Z"/><path class="cls-9" d="M52.09,34.84c.18.32.37.63.57.95v.11c.36.72.66,1.38.91,2a11.09,11.09,0,0,1,1.43-2c-.7-.5-1.4-1-2.11-1.47Z"/><path class="cls-9" d="M53,34.32l-.1.07c.71.48,1.41,1,2.11,1.47l.12-.15Z"/><path class="cls-13" d="M54.16,35.11h0l0,0A.14.14,0,0,1,54.16,35.11Z"/><path class="cls-14" d="M43.7,41.37h-.12a3.32,3.32,0,0,0-.59.24c-.47.23-.9.52-1.36.78h-.08c0,.37.1.73.17,1.09a13.52,13.52,0,0,0,2.4-1.29C44,41.94,43.83,41.65,43.7,41.37Z"/><path class="cls-14" d="M56.7,33.32c-.46-.24-.94-.47-1.43-.68a6.31,6.31,0,0,1-.36.53h0L53,34.3l1.2.78h0l0,.05.33.21A12.68,12.68,0,0,0,56.7,33.32Z"/><path class="cls-13" d="M53.7,54.41c4.61-2.07,8.16-5,10.17-9.59,1.65,3.35,11.58,7,12.38,6.93a81.68,81.68,0,0,1-7.71-5.34,10.91,10.91,0,0,1-2.3-2.35c-.49-.78-2.67-5.18-3.2-5.86a16,16,0,0,0-6-4.76l-.26-.13h0a13.47,13.47,0,0,1-2.19,2l.58.37v.06s5.19,3.73,6.82,6.75A15.28,15.28,0,0,1,51,52a35.15,35.15,0,0,1-4.58-5.75,4.69,4.69,0,0,1-.95-1.57l-.16-.28c-.28-.48-.54-1-.79-1.45l-.36-.73a15,15,0,0,1-2.4,1.28,2.14,2.14,0,0,0,.08.44c0,.15.12.47.19.69a21.43,21.43,0,0,0,5.58,7.61c.19,0,3,2.42,3.91,3,.51.35.24.41.78.78l.85.3c2,1.48,11.42,7.6,12.24,8.61C63.06,61.71,55.68,56,53.7,54.41Z"/><path class="cls-13" d="M45.45,44.68a4.69,4.69,0,0,0,.95,1.57Z"/><path class="cls-13" d="M74.46,67.28c-3.92-.37-8-1.31-11.07-3.92.32.5.2,2.06.22,3.1A31,31,0,0,0,74.46,67.28Z"/><path class="cls-15" d="M74.26,66.86c-3.61.28-7.18-1.36-10.64-2.34a2.67,2.67,0,0,0,0,.4c2.65,1.93,5.64,4,10.73,3.7a8,8,0,0,1,.87-1.56C75.24,66.75,74.84,66.92,74.26,66.86Z"/><path class="cls-13" d="M74,50.64c-.78,8.48.18,11.11,1.57,15.78l.34-.07c-.47-4.39-.88-10.88,1-14.17A8.62,8.62,0,0,0,74,50.64Z"/><path class="cls-15" d="M75.24,66.84s1.7.53,1.61,0c-.78-4.35-1.4-14.08,1.17-14.08,0,0-1.56-.94-1.75-1C73.46,55.64,74.66,61.92,75.24,66.84Z"/><path class="cls-9" d="M70,9.94c-1,1.21-1.51,4.52-2.35,5.36C65,17.85,64,17.51,62.55,23.12c-.13.21-.25.38-.38.6C61,24.94,60.05,26,59.25,27A26.06,26.06,0,0,0,55,33a3.12,3.12,0,0,1,2,.52,5.47,5.47,0,0,0,.41-.65c1.78-4.15,5.48-7.6,9.14-10.67,1.11-.78.29-4.12,1.77-4.53,1.12-.39.43,2.24,1.57,3C71,18,68.65,13.91,71.25,12.74a10.91,10.91,0,0,0,3.86-2.4C74.46,8.76,74,5.09,70,9.94Z"/><path class="cls-16" d="M51.65,26.33c.34.9.33,1.62-.7,2-.64.2-.85-.21-1.32.52a2.87,2.87,0,0,0,0-.41v-.28a7.86,7.86,0,0,0,1-1.89c.24-1.36-.35-1.18-1.19-1.82A1.51,1.51,0,0,1,49,22.31l.07-.09c-1.73.48.37,2.35,0,3.6L49,25.65a12.37,12.37,0,0,0-1.14-1.15c-.48-1.45-.24-3.09-1.4-4.19.68,1.22.38,1.87.22,3.17a3.34,3.34,0,0,0,0,1.22l-.48-.63a11,11,0,0,0-.19-1.4,4.85,4.85,0,0,0-.42-1c-.42-1.43-1.9-1.91-2-3.49a8.27,8.27,0,0,0,.15,1.49l-.32-.28c-.12-.14-.22-.27-.34-.4s-.07-.34-.1-.51a9.73,9.73,0,0,1,0-1.08A8.54,8.54,0,0,0,43,16a7.42,7.42,0,0,0-.17-1.15,3.61,3.61,0,0,0-1.28-2.21,1.88,1.88,0,0,1,.73,1h0v.07c.43,1.66-1,4.08-.37,5.69a4.84,4.84,0,0,0,.23,1,4.57,4.57,0,0,1-.88-1.62,15.9,15.9,0,0,1-.09-2.58,5.21,5.21,0,0,0-.79-2.42.17.17,0,0,0,0-.1v.07c-.07-.12-.14-.24-.22-.35a6,6,0,0,1,.38,2.75,16.9,16.9,0,0,1-.78,2.2,7.63,7.63,0,0,0,.94,6.17l-.22-.67C38.37,22.51,39.67,20,38.78,18c.57,1.4-.14,2.16-.53,3.53a5.82,5.82,0,0,0,.3,3.66l1-.28a2.92,2.92,0,0,1-2.08-2.61c.1-1.64.22-2.35-.65-3.91.68,1.9-.6,3.24-.83,4.94v.07a3.45,3.45,0,0,0-.14.34,7.69,7.69,0,0,0,0-1,2.91,2.91,0,0,0-1.15-2.35c-1.11-.78-1.62-.92-2-2.19-.07,1.11.55,1.56,1.2,2.35a3,3,0,0,1,.67,2.82c-.16.68-.38,1.13-.47,1.71a4.8,4.8,0,0,0-.38-1c-.14-.28-.28-.54-.4-.79A4.3,4.3,0,0,0,33,22.23a6.55,6.55,0,0,0,.27.69,6.07,6.07,0,0,1-.65-2.9c-.64,1.86.69,3.13.49,4.94A13.57,13.57,0,0,0,33,26.65a2.33,2.33,0,0,0-.84-.78c-.92-.52-1.56-.87-1.41-2.2a2.73,2.73,0,0,0,.95,2.7c.48.43.67.21.71,1a4.55,4.55,0,0,1-.32,1.32c-.64,2.71.58,5,2.21,6.93a1.81,1.81,0,0,1-.41-.23,3.84,3.84,0,0,1-1.57-2.49,3.86,3.86,0,0,0,1.19,3,12.18,12.18,0,0,0,1.63,1.5l0,.11c.34.82.88,2.24,1.87,2.34C35,41,35.5,37.19,33.94,37.46c.83.62.59,1.57.94,2.43a3.56,3.56,0,0,0,2.39,1.83,8.05,8.05,0,0,0,2.93.3A5.39,5.39,0,0,1,38,41.11c1,.32,2.22,1,3.18-.32-5.08-1.91-9.21-7.94-7.3-13.31a4.16,4.16,0,0,0,.31,1.91c.63-1.57.63-3.18,1.27-4.45-.31.64.64,1.57.32,2.22A5.24,5.24,0,0,0,36.43,24,46.36,46.36,0,0,1,38,30.34V26.8a2.1,2.1,0,0,0,2.22,1.9,8,8,0,0,1-.63-3.81c.63,1.56,1.9,1.91,3.17,2.85-.73-1.23-.33-2.84-.7-4.24-.26-.36-.11-.4,0,0,.51.74,1.23,1.38,1.66,2-.6-1.19.19-2.65-.74-3.61l-.22-.2a2.09,2.09,0,0,1,.22.2,6.91,6.91,0,0,1,2.35,5.52,7,7,0,0,0,.31-2.54c3.78,4.76,4.45,11.12-.91,14.6A6.09,6.09,0,0,0,43,41a1.63,1.63,0,0,1,.54,0l0,.06c.78-.38,1.91-.47,2.59-.78a5.69,5.69,0,0,0,1.79-2.35A9.1,9.1,0,0,0,48,37a9.56,9.56,0,0,1,.4-1.66,6.2,6.2,0,0,1,.54-1,8.5,8.5,0,0,0,.79-1.25c1.15-.14.36-2.76.51-3.33.23-.87.89-.56,1.43-1.05A1.77,1.77,0,0,0,51.65,26.33Z"/><path class="cls-17" d="M44.73,39.49c5.39-3.48,4.76-9.84,1-14.6a7,7,0,0,1-.31,2.54A6.91,6.91,0,0,0,43,21.91c.93,1,.14,2.42.74,3.61-.43-.64-1.15-1.28-1.66-2,.37,1.4,0,3,.7,4.24-1.27-.94-2.54-1.26-3.17-2.85a7.91,7.91,0,0,0,.63,3.81A2.1,2.1,0,0,1,38,26.8v3.49a46.14,46.14,0,0,0-1.57-6.36,5.27,5.27,0,0,1-.63,3.18c.32-.63-.64-1.57-.32-2.22-.64,1.26-.64,2.85-1.27,4.44a4,4,0,0,1-.31-1.9c-3.3,4.12,1,11.77,6.09,13.68-2,0-1,.29-2,0a5.45,5.45,0,0,0,2.18.91,1.44,1.44,0,0,0,.55-.07c.78-.13,1.44-.78,2.18-.92A6.27,6.27,0,0,1,44.73,39.49Z"/><path class="cls-18" d="M39.24,26.87h-.05a14.44,14.44,0,0,0,2.1,2.18,6.28,6.28,0,0,0-.91-2.51A1.2,1.2,0,0,1,39.24,26.87Z"/><path class="cls-3" d="M73.53,10.43l.51.34c.43.27.87.54,1.32.79l1.23.7L77,12h0a16.85,16.85,0,0,0,4.37-5.87.49.49,0,0,0-.27-.65.47.47,0,0,0-.47.05,2.07,2.07,0,0,0-.56.58l-.82,1.26a.38.38,0,0,1-.49.25.39.39,0,0,1-.25-.5c.18-1.84,2-3.39,3.33-4.39.35-.26-.12-1.06-.53-.92C77,3.23,75.5,7,73.57,10.35h0Z"/><path class="cls-19" d="M46.29,40.34a3.19,3.19,0,0,1-1.49.27c-.33,0-.65-.11-1-.18l-.31-.07a8.23,8.23,0,0,1,.72.93c.1.14.29.49.53.9.89,1.45,6.43,4.43,8.88,3.07A11.75,11.75,0,0,1,46.29,40.34Z"/><path class="cls-12" d="M52.63,35.9l0-.08c-.16-.32-.32-.64-.5-1a2.76,2.76,0,0,1-2.25-.14,7.3,7.3,0,0,1,.08.94c.08.33.13.62,0,.58a5.87,5.87,0,0,1-.45,1.9c-.46,1.07-2,1.83-3.13,2.22a11.75,11.75,0,0,0,7.36,4.92C55.24,44.4,55.55,41.78,52.63,35.9Z"/><path class="cls-20" d="M43.87,40.43c.31.07.63.13,1,.18a5.21,5.21,0,0,0,3-.46,7.9,7.9,0,0,1-1.51-.36,18.32,18.32,0,0,1-3.38-1.74l-.16.15a2.44,2.44,0,0,1-2.11.5,9.3,9.3,0,0,0,1,1.12l.11,0H41.6l.13,0,.78.19.78.18.29.08Z"/><path class="cls-21" d="M49.92,35.64a7.3,7.3,0,0,0-.08-.94c-.3-.6-.59-1.23-.88-1.86l-.26-.54A2.23,2.23,0,0,1,48,33.6l-1.64,1.45c-.69-.45-.85-.84-1.57-.23s-.49,1-.13,1.7L42.9,38.09a18.85,18.85,0,0,0,3.39,1.7,9.49,9.49,0,0,0,1.48.39,2.6,2.6,0,0,0,1.35-1.24,12.66,12.66,0,0,0,.78-2.72A3.75,3.75,0,0,0,49.92,35.64Z"/><path class="cls-22" d="M39.77,38.37a3.85,3.85,0,0,1-1-.78L38.23,37a3.75,3.75,0,0,1-.38-.51c-.31.37-.6.79-.9,1.14A12.1,12.1,0,0,0,39.15,39C39.36,38.81,39.56,38.59,39.77,38.37Z"/><path class="cls-3" d="M41.42,39.75l.19.07a9.14,9.14,0,0,1-.94-1.12,3.6,3.6,0,0,1-.9-.33c-.21.22-.41.44-.62.63a9.27,9.27,0,0,0,2.45.86Z"/><path class="cls-3" d="M34.94,32.54a7.06,7.06,0,0,0,.49,3.58A11.11,11.11,0,0,0,37,37.59c.3-.38.59-.78.9-1.13a2.76,2.76,0,0,1,.26-3.55l5.2-4.6a7.23,7.23,0,0,1,2.59-.58C43.58,26.12,34.81,25.93,34.94,32.54Z"/><path class="cls-23" d="M46.88,28.51A6.73,6.73,0,0,0,38,26.29c-1.83.94-4.19,3.29-4.34,5.55a6.25,6.25,0,0,0,1.73,4.28,7.06,7.06,0,0,1-.49-3.58,5.17,5.17,0,0,1,3.64-4.91c2-.78,4.12-1.2,6.1.17A3.19,3.19,0,0,1,46.88,28.51Z"/><path class="cls-24" d="M48,33.6a2.21,2.21,0,0,0,.72-1.27,3.35,3.35,0,0,0-.84-2.79l-.54-.61a3.51,3.51,0,0,0-.44-.42,2.77,2.77,0,0,0-3.57-.2l-5.2,4.6A2.9,2.9,0,0,0,38.23,37l.53.6a3.54,3.54,0,0,0,1.91,1.13,2.44,2.44,0,0,0,2.11-.5l1.9-1.68c-.36-.78-.54-1.11.13-1.7s.84-.22,1.57.23Z"/><path class="cls-25" d="M37.8,34.68a3.09,3.09,0,0,0,.78,1.47l.48.52a3.14,3.14,0,0,0,1.69,1,2.15,2.15,0,0,0,1.86-.43l1.69-1.44c-.32-.63-.48-.95.11-1.46s.79-.18,1.36.2l1.45-1.24a1.45,1.45,0,0,0,.21-.22A69.94,69.94,0,0,0,37.8,34.68Z"/><path class="cls-25" d="M47.07,29.76l-.47-.51a2.34,2.34,0,0,0-.4-.37,2.5,2.5,0,0,0-3.12-.17l-3,2.6c2.57-.21,5.12-.39,7.68-.55A3.29,3.29,0,0,0,47.07,29.76Z"/><path class="cls-26" d="M40,31.31l-1.56,1.35a2.1,2.1,0,0,0-.67,2A70.93,70.93,0,0,1,47.39,33a2,2,0,0,0,.47-.9,2.48,2.48,0,0,0-.18-1.37C45.13,30.92,42.57,31.1,40,31.31Z"/><path class="cls-27" d="M66,43.92l-1.73,1.34a.72.72,0,0,1-1-.12h0l-1.51-2a.73.73,0,0,1,.12-1h0l1.73-1.34a.73.73,0,0,1,1,.13l1.51,1.95A.72.72,0,0,1,66,43.92ZM62.17,42.6a.18.18,0,0,0,0,.24l1.51,1.95a.18.18,0,0,0,.24,0l1.73-1.34a.18.18,0,0,0,0-.24l-1.51-2a.2.2,0,0,0-.25,0Z"/><path class="cls-27" d="M54,54.69,52.24,56a.73.73,0,0,1-1-.13L49.7,54a.73.73,0,0,1,.12-1h0l1.72-1.35a.73.73,0,0,1,1,.13h0l1.53,1.94A.73.73,0,0,1,54,54.69ZM50.2,53.37a.2.2,0,0,0,0,.25l1.52,1.94a.17.17,0,0,0,.23,0h0l1.66-1.33a.15.15,0,0,0,0-.23h0l-1.51-1.94a.16.16,0,0,0-.24,0Z"/></g></svg>