<svg id="Layer_25" data-name="Layer 25" xmlns="http://www.w3.org/2000/svg" viewBox="0 0 128 128"><defs><style>.cls-1{fill:#dd222b;}.cls-2{fill:#c5e2fa;}.cls-10,.cls-11,.cls-12,.cls-13,.cls-2,.cls-3,.cls-4,.cls-5,.cls-6,.cls-7,.cls-8,.cls-9{fill-rule:evenodd;}.cls-3{fill:#fabb77;}.cls-4{fill:#ecaf71;}.cls-5{fill:#3d3d3d;}.cls-6{fill:#434242;}.cls-7{fill:#363636;}.cls-8{fill:#5b5b5b;}.cls-9{fill:#7b808c;}.cls-10{fill:#90949e;}.cls-11{fill:#595959;}.cls-12{fill:#6b6b6b;}.cls-13{fill:#cce8ff;}.cls-14{fill:#9e9c9c;}</style></defs><g id="Layer_2" data-name="Layer 2"><g id="Layer_1-2" data-name="Layer 1-2"><path class="cls-1" d="M12.6,19.94V17.67a.59.59,0,0,1,0-.26A12.54,12.54,0,0,1,16.07,9.8a20.67,20.67,0,0,1,6.86-4.68,41.78,41.78,0,0,1,7.39-2.43c1.47-.37,2.94-.74,4.42-1a58.45,58.45,0,0,1,7.36-.5,1.94,1.94,0,0,0,.59,0h6.72l.27,0c1.08,0,2.15.06,3.23.1,1.79.07,3.57.2,5.36.35,2.23.19,4.45.43,6.67.81A50.6,50.6,0,0,1,75.49,5c1.31.52,2.7.81,4,1.25a129.35,129.35,0,0,1,17.35,6.3,60.14,60.14,0,0,1,9.46,5.31.85.85,0,0,1,.28.22,3.51,3.51,0,0,0,1.23,1c1,.6,2,1.17,2.91,1.77a23.16,23.16,0,0,1,5.46,4.5,13.24,13.24,0,0,1,3,6.16c.1.5.16,1,.23,1.51v2.21l-.12,1a23.64,23.64,0,0,1-2.2,7A49.89,49.89,0,0,1,111,52.73c-.54.68-1.14,1.31-1.61,2s-.93,1.34-1.43,2A170.91,170.91,0,0,1,96.28,70q-2.61,2.7-5.34,5.31c-1.81,1.74-3.72,3.48-5.73,5.24a127,127,0,0,1-10,7.88,76.29,76.29,0,0,1-10.9,6.47,4.72,4.72,0,0,0-.73.41c-.93.61-1.87,1.21-2.84,1.75a27.38,27.38,0,0,1-9.43,3.36c-.54.07-1.07.12-1.62.18H47.26l-.24,0a18.16,18.16,0,0,1-6.7-1.82,24.73,24.73,0,0,1-8-6.48,45.73,45.73,0,0,1-5.62-8.55,83.9,83.9,0,0,1-4.9-12c-.41-1.23-.74-2.5-1.26-3.7a88.89,88.89,0,0,1-4.76-14.48,99.19,99.19,0,0,1-2.5-14.83q-.35-3.84-.4-7.68,0-3.24.2-6.43A7.35,7.35,0,0,0,13,22.68c0-.22-.08-.44-.1-.66C12.77,21.32,12.68,20.63,12.6,19.94Z"/><g id="_15" data-name=" 15"><path class="cls-2" d="M37.47,67.4A3.37,3.37,0,0,1,36,65a4,4,0,0,0,.07-1.34.89.89,0,0,0-.93-.85.76.76,0,0,0-.26.06c-.64.14,0,1.59-.67,1.59S33,63.72,32.73,63A13.8,13.8,0,0,0,32,61.23a2.5,2.5,0,0,0-2.88-.87,1.26,1.26,0,0,0-.88,1.53s0,.08,0,.12c.16.67.9,1,1.49,2a2.3,2.3,0,0,1,.27.8,2.16,2.16,0,0,1-.61.79c-1,.61-2.36-1.21-3.14-1.89a2.65,2.65,0,0,0-.84-.53.64.64,0,0,0-.64.09c-1,.8-2.55-.6-2.83-1.13a1.3,1.3,0,0,0-1.57-.66,1.16,1.16,0,0,0-.75.65,1.7,1.7,0,0,0,.6,1.81c-.78.42-1.88.24-2.25,1-.22.41.08.92.06,1.29s-.58.52-.9.65a1.38,1.38,0,0,0-.66.51,2.38,2.38,0,0,0-.28.68c-.25.8-1-.3-1.8-.85a1.56,1.56,0,0,0-2.19.34A1.58,1.58,0,0,0,12,68.72c.5.85,2.36-.25,2.15,1.15,0,.27-.86.79-1.29,1.59a2.47,2.47,0,0,0,.25,2.38c.72,1.5,2.07,2.39,2.35,4,.54,2.88,21.21,3.6,31.15.94,2.23-.59,3.44-5.38,4.11-6.13.79-3.51,0-3.65-1.51-4.23-1.06-.42-.91-1.24-1.08-2.39a1.47,1.47,0,0,0-.47-1c-.2-.31-1.34-.41-2.35-.18a1,1,0,0,1-1-.33,6.53,6.53,0,0,0,.43-1.06c.16-.79-.66-.93-1.22-.71s-1,1.79-.79,2.88c.89,1.46-.42,2.26-1.67,2.48a5,5,0,0,1-3.69-.89Zm47.25,9.42c1.09.49,2.17-.45,3.66-2A21.49,21.49,0,0,1,92.52,71a5.4,5.4,0,0,1,4.1-.8c1.14.32,1.88,1.49,1.26,2.22-1.09,1.29-5.39.79-8.79,4.44-.23.25-.73.79-.47,1.18.13.2.49.15.91,0a7.47,7.47,0,0,1,2.1-.43,2.12,2.12,0,0,1,1.16.27A2.91,2.91,0,0,1,93.7,79c.24.44.78-.07,1.33-.47a6,6,0,0,1,1.83-1.1c1.46-.38,2.24,0,3.23,1.14A10.5,10.5,0,0,1,105,74.87c2.08-.64,4.62.45,4.82,2.14.15,1.31-1.36,1.86-2.36,2.2a29.29,29.29,0,0,1-2.92.8.75.75,0,0,0,.06,1,.57.57,0,0,0,.21.13c1.35.61,3.14-.52,4.4-1a5.27,5.27,0,0,1,3.21-.29c.87.17,1.92.73.88,1.65-.66.57-2.36,1.31-.34,1.67,3-.58,3.26.47,3.5,1.52.46,2.08,3,2.65,4.84,2.81a11.8,11.8,0,0,0,4.46-.47c.63-.18.87.24.78.79a3.34,3.34,0,0,1-1.12,1.59,13.5,13.5,0,0,1-2.44,1.6c-1.8.93-3.83,1.59-5.45,1.25-18.36-3.75-37-10.21-55.36-15.31-5-8.48,2.12-5.53,4-6.25.65-.24-2.74-1.46-2.89-1.66-.37-.47-.34-2.48,4.21-.71a9.71,9.71,0,0,1,.88.67c1,.91,2.2,2,2.57,1.73.78-.46-.11-.85.47-1.46s2.05.23,3.14,1.19a13.18,13.18,0,0,1,1.2,1.28c.25.29.58.79.9.71a.24.24,0,0,0,.2-.11c.15-.24.15-.74.43-.8a1,1,0,0,1,1,.65c.5.85.52,1.49,1.08,1.86s.9.12,1.35.12a2.14,2.14,0,0,1,1.57-1.89,2.54,2.54,0,0,1,2.58,1.46,3.91,3.91,0,0,1-.18,3ZM119.48,85c0-2-2.43-1.33-2.43-.8C117.05,86,119.49,85.16,119.48,85ZM101.75,71.63c0-2-2.43-1.33-2.43-.79C99.32,72.65,101.75,71.8,101.75,71.63Z"/><path class="cls-3" d="M53,66.6a18,18,0,0,0-5.1,5.46c-.69,1.19-1.67,3.46-2.36,4.59-.38,0-1,.06-1.73.06,1,1.64,1.73,3.18,2.57,4.48-.71,2.9-4.75,3.54-7.22,3.82-.16,1.43-.08,2.39-.17,3.18,16.5.8,32.21.9,48.66,1.66,9.59-.54,22.9-.94,32.5-1-5.45-3.38-11.3-4.94-17.77-7.24a7.2,7.2,0,0,0-1.31-.15c-5.5-.2-6.16.47-12.34,1.59-6.71-3.07-14-6.3-20.94-9.81C63.06,70.61,58.61,68.19,53,66.6Z"/><path class="cls-4" d="M86,89.8l1.62.07c9.59-.54,22.9-.94,32.5-1-5.44-3.37-11.3-4.93-17.77-7.24a7.2,7.2,0,0,0-1.31-.15c-5.5-.2-6.16.47-12.34,1.59-2.58-1.18-5.26-2.38-8-3.63C84.56,83.07,86.05,86.38,86,89.8Z"/><path class="cls-4" d="M48.07,71.72l-.2.34c-.7,1.19-1.68,3.46-2.36,4.59-.38,0-1,.06-1.73.06,1,1.64,1.73,3.18,2.57,4.48-.38,1.59-1.76,2.49-3.33,3,.08.26.15.51.24.74A86.46,86.46,0,0,0,53,82.58a11.2,11.2,0,0,1-5-9.13A6.69,6.69,0,0,1,48.07,71.72Z"/><path class="cls-5" d="M95.23,89.53c4.27-.18,8.26-.34,12.7-.46-1.25-1.79-3.45-4.88-5.62-7.49a10.4,10.4,0,0,0-1.68-.17,25.63,25.63,0,0,0-6.71.56A47.26,47.26,0,0,1,95.23,89.53Z"/><path class="cls-6" d="M30.73,66.37a12.85,12.85,0,0,0-9.19-.93,10.46,10.46,0,0,0-6.85,6.49c-1.12,3.19-.58,7.16,1.83,9.55,2.75,2.75,8.18,3,10.65,3.46a23,23,0,0,1-4.28-7.54,19,19,0,0,1,.63-5.2C24.83,67.88,27.77,66.43,30.73,66.37Z"/><path class="cls-4" d="M22.6,77.86a20.63,20.63,0,0,0,3.61,6,14,14,0,0,0,5.55,3.93c6.13-.09,10.51-1.43,12.57-2.72a5.78,5.78,0,0,0,2.08-3.82Z"/><path class="cls-3" d="M49.24,76.33c-.08-3.89-.08-6.57,3-9.18a18.65,18.65,0,0,1,7.22-3.59,36.67,36.67,0,0,1,6.08-.88,13.94,13.94,0,0,1,3.77-2.18c4.2-1.54,7.86-2,12-3.11,1.32-.34,2.83-1,4.11-1.34h1.28c1,0,2.31,0,3.75.09a37.08,37.08,0,0,1,6.84,1.25c4.78,1.1,9.52,3.7,14.14,5.43l-.79,3.91c-3.56-.49-7.22-1-10.75-1.3-2-.15-4.29.19-6.29.06a32.66,32.66,0,0,1-7.71-1.88,27.51,27.51,0,0,1-3.14,2.67,44.29,44.29,0,0,1-5.87,3.36,88.55,88.55,0,0,1-10.55,4.28A58.16,58.16,0,0,1,49.24,76.33Z"/><path class="cls-4" d="M93.43,65.47A34,34,0,0,1,86,63.61a32.88,32.88,0,0,1-2.49,2.19A4.59,4.59,0,0,0,84,64.46a1.24,1.24,0,0,0-.4-1.11c-.34-.32-.7-.56-.56-.64a6.71,6.71,0,0,1,1.95,0A42.3,42.3,0,0,1,93.43,65.47Z"/><path class="cls-3" d="M112,62.84c2.44,0,4.59.19,7,.42a18.21,18.21,0,0,1,5.54,2.45A24.25,24.25,0,0,0,127,68c.35.61.43,1.75,0,2l-3.6-.94,3.08,1.59a.55.55,0,0,1-.3.67c-2.11-.55-4.3-1-6.41-1.59L117,69.68c.59.39,1.48,1.08,2.08,1.48.33.39,1.24,1.32.67,2.31l-1.42-1.09c-1.18-.44-2.35-1-3.57-1.42-1.48-1.38-2.78-2.83-4.18-4.29l-1.93-.43,1.15-3.66Z"/><path class="cls-7" d="M113.5,62.87a.92.92,0,0,0-1.3,0,1.13,1.13,0,0,0-.1.13,5.44,5.44,0,0,0-.29.8c-.18.55-.47,1.32-.66,2a4.27,4.27,0,0,0-.28,1.66c.08.32.32.63,1.11.79l.41.43a2.47,2.47,0,0,1-2.36-.6c-1-1.12-.63-3-.11-4.24a3.16,3.16,0,0,1,1.26-1.59,2.41,2.41,0,0,1,1.72-.3,2.09,2.09,0,0,1,1.33,1Z"/><path class="cls-3" d="M44.14,84.11a4.38,4.38,0,0,0,2.31-2.85c-2.51-4.34-3.59-6.21-6.44-10.48l-3.56-1.33-5.86-3.24a7.65,7.65,0,0,0-5.81,3,13.19,13.19,0,0,0-2.15,8.75c2.79,4.91,5.06,6.26,9.08,8.09A32.26,32.26,0,0,0,44.14,84.11Z"/><path class="cls-4" d="M40,70.78h0l-3.56-1.33-1.94-1.07L34,72.07A13.13,13.13,0,0,1,40,70.78Z"/><path class="cls-4" d="M34.51,68.39l-3.92-2.18a7.17,7.17,0,0,0-1.73.26c1.63,1.3,2.05,3.48,2.19,5.85Z"/><path class="cls-6" d="M25.42,79.73a4.46,4.46,0,0,0,.79,2,4.56,4.56,0,0,0,2.59-.53,5.15,5.15,0,0,0,2.11-2.08,4.2,4.2,0,0,0,.14-3.66,1.93,1.93,0,0,0-1.57-1,4,4,0,0,0-3.3,1.9A5.59,5.59,0,0,0,25.42,79.73Z"/><path class="cls-6" d="M27.32,80.87a9.38,9.38,0,0,0-1.05,3.18,10.14,10.14,0,0,1-1.63-1.77,8.75,8.75,0,0,1,1-2.18A12.88,12.88,0,0,0,27.32,80.87Z"/><path class="cls-6" d="M30.62,75.48a6.28,6.28,0,0,1,1.69-2.6A9.62,9.62,0,0,1,31.07,72a6,6,0,0,0-2,2.66C29.53,75,30.2,75.16,30.62,75.48Z"/><path class="cls-8" d="M31.17,77.44a4.38,4.38,0,0,1-1,1.8,4.47,4.47,0,0,1-2.07,1.29,1.91,1.91,0,0,1-1.63-.32,2.56,2.56,0,0,1-.69-2.13,3.8,3.8,0,0,1,3.65-3.64,1.75,1.75,0,0,1,.84.25A2.4,2.4,0,0,1,31.17,77.44Z"/><path class="cls-9" d="M30.67,77.31a3.71,3.71,0,0,1-.84,1.59c-.78.8-2.07,1.63-3,.89a2,2,0,0,1-.54-1.67,3.39,3.39,0,0,1,.44-1.49A3.24,3.24,0,0,1,29.42,75a1.29,1.29,0,0,1,.63.19A1.85,1.85,0,0,1,30.67,77.31Z"/><path class="cls-10" d="M26.32,78.51v-.4a3.43,3.43,0,0,1,.44-1.5A3.21,3.21,0,0,1,29.43,75a1.28,1.28,0,0,1,.63.18,1.14,1.14,0,0,1,.46.44,4.11,4.11,0,0,1-1,1.76C28.75,78.2,27.35,79.09,26.32,78.51Z"/><path class="cls-6" d="M31.22,73.11a4.41,4.41,0,0,0,2.28.09A3.35,3.35,0,0,0,36,70.77a3.14,3.14,0,0,0-.09-1.72,1.82,1.82,0,0,0-1.21-1,2.63,2.63,0,0,0-2,.26,3.3,3.3,0,0,0-1.57,1.92A4.46,4.46,0,0,0,31.22,73.11Z"/><path class="cls-8" d="M35.83,70.67a3.13,3.13,0,0,1-1.73,1.77,2.14,2.14,0,0,1-2.35-.34,2.28,2.28,0,0,1-.38-1.84A3,3,0,0,1,34.72,68a1.76,1.76,0,0,1,1.1.86A2.33,2.33,0,0,1,35.83,70.67Z"/><path class="cls-9" d="M35.43,70.48a2.75,2.75,0,0,1-2,1.66,1.44,1.44,0,0,1-1.37-.36,1.34,1.34,0,0,1-.28-.66,2.46,2.46,0,0,1,.54-1.88,2.36,2.36,0,0,1,2.35-.85,1.14,1.14,0,0,1,.49.25A1.56,1.56,0,0,1,35.43,70.48Z"/><path class="cls-10" d="M31.78,71a2.51,2.51,0,0,1,.56-1.75,2.36,2.36,0,0,1,2.35-.85,1.14,1.14,0,0,1,.49.25l.19.18v.1A3.5,3.5,0,0,1,32.86,71,2.62,2.62,0,0,1,31.78,71Z"/><path class="cls-6" d="M35.43,70.48a2.74,2.74,0,0,1-.78,1.06,3,3,0,0,0,.52-.79,1.62,1.62,0,0,0-.3-1.85,1.23,1.23,0,0,0-.48-.25,2.31,2.31,0,0,0-2,.58,2.37,2.37,0,0,1,2.29-.8,1.16,1.16,0,0,1,.49.26A1.57,1.57,0,0,1,35.43,70.48Z"/><path class="cls-6" d="M30.67,77.31a4,4,0,0,1-.78,1.49,3.82,3.82,0,0,0,.54-1.2,1.89,1.89,0,0,0-.63-2.18,1.35,1.35,0,0,0-.62-.18,3.06,3.06,0,0,0-2.36,1.19A3.13,3.13,0,0,1,29.38,75a1.24,1.24,0,0,1,.62.18A1.85,1.85,0,0,1,30.67,77.31Z"/><path class="cls-4" d="M71.55,75.12c-1.25-.61-2.45-1.21-3.5-1.74.79-.27,1.48-.55,2.28-.86-1.38.35-2.78.55-4.19.8-.21,0-1.42.16-1.22.56,0,.07.32.39.42.51a20.59,20.59,0,0,1,4.56,9.07,31.28,31.28,0,0,0,.13-7.3A13.16,13.16,0,0,1,71.55,75.12Z"/><path class="cls-7" d="M109.93,63a10,10,0,0,0-.79,2,.75.75,0,0,0,0,.47.48.48,0,0,0,.31.23c.53.15,1.11.31,1.68.44a.72.72,0,0,0,.46,0,.61.61,0,0,0,.29-.34c.21-.64.41-1.46.6-2.11a.38.38,0,0,0-.2-.51l-.06,0c-.57-.18-1.06-.32-1.62-.45A.51.51,0,0,0,109.93,63Z"/><path class="cls-11" d="M112,63.32c-.5-.15-1-.3-1.52-.42a.3.3,0,0,0-.4.17,8.69,8.69,0,0,0-.79,1.89.45.45,0,0,0,0,.28.26.26,0,0,0,.17.12c.53.15,1,.29,1.52.41a.45.45,0,0,0,.52-.28c.22-.66.4-1.26.58-1.92C112.2,63.42,112.18,63.37,112,63.32Z"/><path class="cls-12" d="M111.92,63.28c-.47-.14-.93-.27-1.4-.38a.3.3,0,0,0-.4.17,8.69,8.69,0,0,0-.79,1.89h0a2.2,2.2,0,0,0,.44.05A2.26,2.26,0,0,0,111.92,63.28Z"/><path class="cls-2" d="M7.1,75.68c0-2-2.44-1.36-2.44-.75C4.66,76.69,7.1,75.85,7.1,75.68ZM68.58,87.61c1.24.12,2.31-.07,1.57-1.41-.55-1-1.06-1.79-.55-2.22a2,2,0,0,1,2-.11c1.92.84,2.59,2.25,5,2.92,1.78.51,3.79.27,4.55-1.53.19-.45,0-1.1.91-1.4,1.47-.49,2.36,1.25,3.26,2.11,2.6,2.38,7.07,1.7,6.08-.92-.34-.94-.36-1.86.54-1.8s1.19.37,1.93,1.35c1,1.36,2,2,2.61,1.88.82-.19-.79-1.13.37-1.88.32-.21,1.22.28,2.12,1.08,1.86,1.64,2.47,2,3,2a1.89,1.89,0,0,0,1.38-1.53c.17-.86.71-1.28,1.51-1a5.25,5.25,0,0,1,1.36.87c.85.66,2.17,1.73,3.41,1.46s1.26-1,2.6-.43c.88.35,1.65.43,2.92.85,2.54.79,5.16-1,6.87,1a1.81,1.81,0,0,1-.05,2.54,1.67,1.67,0,0,1-.67.41,61.52,61.52,0,0,1-12.11,3.36,64.18,64.18,0,0,1-19,1c-7.15-.64-13.65-2-21-2.29a66,66,0,0,0-12.86,1,89.24,89.24,0,0,1-13.42,1.53,51.45,51.45,0,0,1-6.45-.37,53.17,53.17,0,0,1-15.19-4.08,76.1,76.1,0,0,1-12-6.82A38.82,38.82,0,0,0,3.77,82c-1.06-.42-2-.47-2.2-1.11-.34-1.31,1.06-1.77,1.78-1.81,1.38-.11,2.82,1.53,3.75,2.26s2,1.46,2.64,1.2c.38-.15.53-.46.41-1-.28-.76-.85-2.64-1.45-2.89a9.77,9.77,0,0,0-1.93-.42c-.83-.1-1.4-1-.07-1.2a5.15,5.15,0,0,0,2-.79c.78-.8.07-1.43.11-2,.07-1,.79-.92,1.57-.85a1.33,1.33,0,0,1,1.28,1.37.28.28,0,0,0,0,.09,11.3,11.3,0,0,1-.35,2.39,3.64,3.64,0,0,0-.22,1.79c.21.61,1.08,1.11,1.57,1.6.61.66,1.45.31,1-.31-1-1.42-.9-2-.65-2.38a1.21,1.21,0,0,1,1.71-.23.75.75,0,0,1,.16.15A5.82,5.82,0,0,1,16,79.54c.27.5.69,1,.67.41a1.43,1.43,0,0,1,0-1.18.86.86,0,0,1,1.23,0,.27.27,0,0,1,.07.08,6.46,6.46,0,0,1,1.44,2c.44.74,1.89,3.5,3,1.46a1.12,1.12,0,0,1,.52-.61,1.16,1.16,0,0,1,1.28.36,15.49,15.49,0,0,1,1.31,1.71,1.41,1.41,0,0,0,.71.52,1.13,1.13,0,0,0,.79-.42c.3-.32.89-.27,1.4.36.84,1.06,1.37,1.37,1.85,1.46s0-.79.53-1.13a3.08,3.08,0,0,1,2.5.42c.61.42,1.57,1.16,2.36,1.67a2.91,2.91,0,0,0,1.69.5,1.65,1.65,0,0,0,1.38-.79c.24-.39.79-.49,1.46-.32a6.42,6.42,0,0,1,1.77.8c1.18.66,2.22,1.08,3,.74,1-.46-.41-2.28.09-2.68a1.89,1.89,0,0,1,1.92,0,14.53,14.53,0,0,1,2.51,1.83,4.65,4.65,0,0,0,2.8.94c1.94.06,1.64-1.22,1.76-1.49.19-.43,0-1,.91-1.32A2.31,2.31,0,0,1,57,85.4c.66.4,1.39,1.18,2.07.89.11-.36-.38-.59-.68-1.46a1.27,1.27,0,0,1,.58-1.59c.72-.31,1.29.05,2.24,1,1.17,1.15,2.16,1.93,2.74,1.81.78-.16-.73-1.09.39-1.79.59-.37,3.06,2.29,3.93,3.18a2.07,2.07,0,0,0,.34.15Z"/><path class="cls-13" d="M68.23,100.38a74.84,74.84,0,0,0-14.51-.17c-2.8.22-5.56.48-8.24.62a48,48,0,0,1-22.95-4.7,31.53,31.53,0,0,1-6.28-3.9A52.2,52.2,0,0,0,21,94.57a53.17,53.17,0,0,0,15.19,4.08c5.94.72,10.7.18,16.6-.57,5.1-.64,10.33-1.84,15.47-1.64C75,96.7,83,98,89.94,98.73a61,61,0,0,0,15.27-.39c2.15-.31,4.29-.72,6.34-1.2a43.56,43.56,0,0,1-6.72,2.63,62,62,0,0,1-24.75,2.06C76.53,101.45,72.72,100.89,68.23,100.38Z"/><path class="cls-13" d="M66.66,98.79a74.06,74.06,0,0,0-14.51-.17c-2.8.22-5.56.48-8.24.62A47.82,47.82,0,0,1,21,94.53a31,31,0,0,1-6.28-3.89A52.2,52.2,0,0,0,19.43,93a53.17,53.17,0,0,0,15.19,4.08c5.94.72,10.7.18,16.59-.57,5.11-.64,10.33-1.84,15.48-1.65,6.74.27,14.73,1.6,21.67,2.3a61.05,61.05,0,0,0,15.28-.39c2.15-.31,4.29-.72,6.34-1.21a43.6,43.6,0,0,1-6.72,2.64,62,62,0,0,1-24.75,2.06C75,99.86,71.15,99.3,66.66,98.79Z"/><path class="cls-13" d="M66.66,97.2A74.84,74.84,0,0,0,52.15,97c-2.8.23-5.56.49-8.24.63A47.82,47.82,0,0,1,21,92.94a31,31,0,0,1-6.28-3.89,52.2,52.2,0,0,0,4.75,2.34,53.5,53.5,0,0,0,15.19,4.08c5.94.72,10.7.18,16.59-.57,5.11-.64,10.33-1.85,15.48-1.65,6.74.27,14.73,1.59,21.67,2.3a61.53,61.53,0,0,0,15.28-.39c2.15-.31,4.29-.72,6.34-1.21a44.64,44.64,0,0,1-6.72,2.64,62,62,0,0,1-24.75,2.06C75,98.27,71.15,97.71,66.66,97.2Z"/><path class="cls-13" d="M66.66,107.54a74.06,74.06,0,0,0-14.51-.17c-2.8.22-5.56.48-8.24.62A47.82,47.82,0,0,1,21,103.28a31,31,0,0,1-6.28-3.89,52.2,52.2,0,0,0,4.75,2.34,53.17,53.17,0,0,0,15.19,4.08c5.94.72,10.7.18,16.59-.57,5.11-.64,10.33-1.84,15.48-1.65,6.74.27,14.73,1.6,21.67,2.3a61.05,61.05,0,0,0,15.28-.39c2.15-.31,4.29-.72,6.34-1.21a42.61,42.61,0,0,1-6.72,2.64A62,62,0,0,1,78.51,109C75,108.61,71.15,108.05,66.66,107.54Z"/></g></g></g><path class="cls-14" d="M28.86,127.16a4.3,4.3,0,0,1-2.77.87,6.68,6.68,0,0,1-2.38-.43,6.38,6.38,0,0,1-2.09-1.26L23,124.7a6.16,6.16,0,0,0,1.52,1,4,4,0,0,0,1.63.33,2,2,0,0,0,1.11-.26.83.83,0,0,0,.41-.73v0a.76.76,0,0,0-.17-.52,1.48,1.48,0,0,0-.62-.4,10.92,10.92,0,0,0-1.34-.42A11,11,0,0,1,23.6,123a2.71,2.71,0,0,1-1.15-1A2.86,2.86,0,0,1,22,120.4h0a3,3,0,0,1,.42-1.7,3.14,3.14,0,0,1,1.31-1.11,4.33,4.33,0,0,1,1.9-.4,6.07,6.07,0,0,1,3.92,1.34l-1.21,1.75a4.87,4.87,0,0,0-2.74-1,1.71,1.71,0,0,0-1,.25.79.79,0,0,0-.36.66h0a.84.84,0,0,0,.19.57,1.58,1.58,0,0,0,.65.4,12.74,12.74,0,0,0,1.46.42,6.4,6.4,0,0,1,2.53,1.15,2.54,2.54,0,0,1,.82,2h0A3,3,0,0,1,28.86,127.16Z"/><path class="cls-14" d="M41.13,128l-2.38-6.9L36.37,128h-2l-3.59-10.62h2.47l2.19,7.14,2.33-7.17h2l2.38,7.17,2.19-7.14h2.43L43.14,128Z"/><path class="cls-14" d="M48.57,117.34h2.3v10.55h-2.3Z"/><path class="cls-14" d="M61.75,121l-3,4.5h-.06L55.82,121v6.85h-2.3V117.34H56l2.77,4.45,2.77-4.45h2.5v10.55H61.75Z"/><path class="cls-14" d="M74.83,121l-3,4.5H71.8L68.88,121v6.85H66.59V117.34h2.49l2.78,4.45,2.77-4.45H77.1v10.55H74.83Z"/><path class="cls-14" d="M79.76,117.34h2.32v10.55H79.76Z"/><path class="cls-14" d="M87,121.18v6.71H84.71V117.34h2.15l4.93,6.49v-6.49h2.29v10.55h-2Z"/><path class="cls-14" d="M101.69,128.06a5.73,5.73,0,0,1-2.92-.73,5,5,0,0,1-2-1.94,5.6,5.6,0,0,1-.73-2.78h0a5.48,5.48,0,0,1,.73-2.74,5.3,5.3,0,0,1,2-2,5.61,5.61,0,0,1,2.83-.73,6.55,6.55,0,0,1,2.32.36,6.22,6.22,0,0,1,1.82,1.08l-1.46,1.77a4.63,4.63,0,0,0-1.28-.81,3.64,3.64,0,0,0-1.46-.27,2.82,2.82,0,0,0-1.52.45,3.25,3.25,0,0,0-1.1,1.2,3.5,3.5,0,0,0-.41,1.64h0a3.55,3.55,0,0,0,.41,1.72,2.87,2.87,0,0,0,1.14,1.2,3.35,3.35,0,0,0,1.64.43,3.7,3.7,0,0,0,2.19-.64v-1.51h-2.33v-2h4.57v4.65A6.81,6.81,0,0,1,101.69,128.06Z"/></svg>