<svg id="Layer_21" data-name="Layer 21" xmlns="http://www.w3.org/2000/svg" viewBox="0 0 128 128"><defs><style>.cls-1{fill:#ffc023;}.cls-2{fill:gray;}.cls-3{fill:#231f20;}.cls-4{fill:#58595b;}.cls-5{fill:#a6a8ab;}.cls-6{fill:#004259;}.cls-7{fill:#8a5372;}.cls-8{fill:#a66487;}.cls-9{fill:#797b7d;}.cls-10{fill:#454547;}.cls-11{fill:#a8abad;}.cls-12{fill:#00a69c;}.cls-13{fill:#c4e4d1;}.cls-14{fill:#ffd8a3;}.cls-15{fill:#bbbdbf;}.cls-16{fill:#fff;}.cls-17{fill:#404041;}.cls-18{fill:#555658;}.cls-19{fill:#cfd0d2;}.cls-20{fill:#9e9e9e;}.cls-21{fill:#949494;}.cls-22{fill:#e6e7e8;}.cls-23{fill:#e0cab5;}.cls-24{fill:#292627;}.cls-25{fill:#5f344c;}.cls-26{fill:#002436;}.cls-27{fill:#3b3b3b;}.cls-28{fill:#437c86;}.cls-29{fill:#9e9c9c;}</style></defs><g id="Layer_2" data-name="Layer 2"><g id="Layer_1-2" data-name="Layer 1-2"><path class="cls-1" d="M13,21.87V19.63c0-.09,0-.17,0-.26a12.4,12.4,0,0,1,3.4-7.53,20.58,20.58,0,0,1,6.81-4.63A41.82,41.82,0,0,1,30.53,4.8c1.46-.36,2.91-.73,4.39-1a57.5,57.5,0,0,1,7.3-.49,2,2,0,0,0,.59,0h6.65l.27,0c1.06,0,2.13.06,3.2.1,1.77.07,3.54.19,5.31.34,2.22.2,4.42.43,6.61.81A49.61,49.61,0,0,1,75.33,7.09c1.29.52,2.67.8,4,1.23a129.49,129.49,0,0,1,17.21,6.24A60.59,60.59,0,0,1,106,19.81a.78.78,0,0,1,.26.22,3.5,3.5,0,0,0,1.17,1c1,.59,1.94,1.15,2.89,1.75a22.75,22.75,0,0,1,5.41,4.46,13.11,13.11,0,0,1,3,6.09c.09.49.15,1,.23,1.5V37l-.16,1a23.2,23.2,0,0,1-2.18,6.88,49,49,0,0,1-6.13,9.46c-.54.67-1.13,1.29-1.6,2s-.93,1.33-1.43,2A167.62,167.62,0,0,1,95.87,71.42c-1.72,1.78-3.48,3.54-5.28,5.26s-3.7,3.44-5.69,5.18A120.2,120.2,0,0,1,75,89.65a74.9,74.9,0,0,1-10.8,6.41,5.68,5.68,0,0,0-.73.4c-.92.6-1.85,1.2-2.81,1.73a26.9,26.9,0,0,1-9.36,3.33c-.52.07-1.05.12-1.6.18h-2.4l-.24,0a18.08,18.08,0,0,1-6.64-1.8,24.54,24.54,0,0,1-8-6.41A44.24,44.24,0,0,1,26.92,85a82.83,82.83,0,0,1-4.86-11.87c-.41-1.22-.73-2.47-1.25-3.65a88.27,88.27,0,0,1-4.75-14.34,98.44,98.44,0,0,1-2.48-14.66c-.24-2.54-.36-5.07-.4-7.61,0-2.12,0-4.24.2-6.36a6.8,6.8,0,0,0-.06-1.91c0-.21-.08-.44-.1-.65Z"/><path class="cls-2" d="M87.64,69.19,82.38,84.27l3.14,1.1,5.25-15.08ZM84.46,81a.79.79,0,0,1,1.07-.34.81.81,0,0,1,.42.86l-.66,1.89a.79.79,0,0,1-1.07.34.82.82,0,0,1-.42-.86Zm1.7-4.89a.79.79,0,0,1,1.49.52L87,78.48A.8.8,0,0,1,85.5,78Zm1.71-4.88a.79.79,0,0,1,1-.39.81.81,0,0,1,.44.9l-.66,1.89a.81.81,0,0,1-1.49-.48Z"/><rect class="cls-3" x="86.26" y="65.21" width="1.35" height="28.15" transform="translate(-30.6 84.67) rotate(-44.99)"/><rect class="cls-4" x="79.89" y="70.68" width="2.36" height="5.46" transform="translate(-28.17 78.83) rotate(-45)"/><polygon class="cls-4" points="87.06 80.93 87.9 78.6 85.29 75.98 84.37 78.41 87.06 80.93"/><rect class="cls-5" x="76.03" y="67.36" width="3.49" height="5.52" transform="translate(-26.8 75.54) rotate(-45)"/><path class="cls-6" d="M68.31,74.9a1,1,0,0,0,1.46.12l12.7-12.7a1.05,1.05,0,0,0-.12-1.47h0a1,1,0,0,0-1.47-.12L68.14,73.42a1.06,1.06,0,0,0,.13,1.48Z"/><path class="cls-7" d="M39.59,62.13a13.09,13.09,0,0,1,7.28-.94A12.63,12.63,0,0,1,52,63.77c2.49,2,2.33,6.34,3,9.12s1,6.35,2.48,9c1.28,2.28,4.34.91,6.23.28,2.53-.84,5.08-1.64,7.62-2.45a9.84,9.84,0,0,1,5.81-.11c.8.2,1.53.54,2.32.74,1.71.46,3.45.85,5.17,1.3L94,84c2.19.55,5.55.85,6.18,3.52a4.77,4.77,0,0,1-3.5,5.64c-2.58.47-5.19-.8-7.58-1.59-3.1-1-6.34-1.74-9.52-2.55a18.29,18.29,0,0,0-8-.71c-4.86.86-9.3,3.48-14.05,4.76-2.73.79-6,1.59-8.61.06S45.38,88,44.33,85.21c-1.4-3.56-2.74-7.21-4.12-10.87-.91-2.38-1.85-4.84-2.74-7.26S37.74,63.08,39.59,62.13Z"/><path class="cls-8" d="M100.22,89.31c-.65-2.68-4.16-3-6.43-3.52L84,83.41c-1.79-.45-3.6-.85-5.38-1.31-.8-.2-1.59-.54-2.38-.74a10.69,10.69,0,0,0-6.06.13c-2.64.79-5.29,1.58-7.93,2.45-2,.63-5.14,2-6.48-.28-1.54-2.64-1.81-6.09-2.58-9s-.58-7.14-3.17-9.14a13.32,13.32,0,0,0-5.32-2.61,14.49,14.49,0,0,0-7,.69,4.68,4.68,0,0,1,1.84-1.49,13.09,13.09,0,0,1,7.28-.94A12.63,12.63,0,0,1,52,63.77c2.49,2,2.33,6.34,3,9.12s1,6.35,2.48,9c1.28,2.28,4.34.91,6.23.28,2.53-.84,5.08-1.64,7.62-2.45a9.84,9.84,0,0,1,5.81-.11c.8.2,1.53.54,2.32.74,1.71.46,3.45.85,5.17,1.3L94,84c2.19.55,5.55.84,6.18,3.51a4.44,4.44,0,0,1,0,1.92Z"/><rect class="cls-9" x="19.13" y="76.49" width="11.96" height="5.86"/><rect class="cls-9" x="26.26" y="78.6" width="10.27" height="3.28" rx="1.06"/><rect class="cls-10" x="17.63" y="81.54" width="26.3" height="8.4" rx="2.71"/><rect class="cls-11" x="26.57" y="80.56" width="13.15" height="4.2" rx="1.35"/><path class="cls-12" d="M118.77,92,97.34,70.34s-6.13-6.62-7.66-10.81H88.33L84.7,69.15,98,74.7l10.09,9.39s2.6,3.85,2,7.93C110.08,91.82,118.77,92,118.77,92Z"/><path class="cls-13" d="M96,70.34s-6.13-6.62-7.67-10.81h1.35c1.54,4.19,7.69,10.81,7.69,10.81L118.77,92h-1.38Z"/><path class="cls-14" d="M111.72,91.91a10,10,0,0,0-1.64.07.08.08,0,0,0,0-.07Z"/><path class="cls-12" d="M65.33,88.25S54,87,50.31,81.49,42.12,71,38.62,69.69a9.17,9.17,0,0,0-2,0l5.71,17.88,2.71,2.25H65.93S66.61,88.92,65.33,88.25Z"/><path class="cls-13" d="M38.62,69.69l.15.06c3.36,1.86,7.4,6.78,10.75,12.08,3.68,5.83,15,7.15,15,7.15a1.43,1.43,0,0,1,.74.79h-.93a1.4,1.4,0,0,0-.74-.79s-11.35-1.27-15-7S40.4,71,36.87,69.69h0A6.11,6.11,0,0,1,38.62,69.69Z"/><polygon class="cls-4" points="33.75 93.54 110.59 96.32 110.69 93.4 33.75 87.13 33.75 93.54"/><path class="cls-15" d="M15.7,79.72a5.07,5.07,0,1,0,5.08-5.06H17.35C15,75.12,15.7,77.27,15.7,79.72Z"/><path class="cls-2" d="M12.44,79.72a5.07,5.07,0,1,0,5.07-5.06h0A5.07,5.07,0,0,0,12.44,79.72Z"/><circle class="cls-5" cx="17.47" cy="79.72" r="4.48"/><path class="cls-2" d="M123.4,96.25l-17.58,3.58-72-1.78S12.27,99.43,9.26,85.77h7s5.06,10.11,19.93,10.48l70.53,1.8Z"/><path class="cls-16" d="M17.59,76.18l0-.5a4.22,4.22,0,0,1,3.83,4.57l-.5,0A3.73,3.73,0,0,0,17.59,76.18Z"/><path class="cls-12" d="M81.93,89.44s-2.32,6.78,1.73,10.69c0,.07-44.65,0-44.65,0A14.57,14.57,0,0,0,40,85.6C40,85.41,81.93,89.44,81.93,89.44Z"/><path class="cls-2" d="M13.35,85.77a1.46,1.46,0,1,0,1.5-1.42h0A1.45,1.45,0,0,0,13.35,85.77Z"/><path class="cls-2" d="M9.26,85.77a1.46,1.46,0,1,0,1.5-1.42h0A1.46,1.46,0,0,0,9.26,85.77Z"/><path class="cls-15" d="M11.48,78.07h6a1.66,1.66,0,1,1,.23,3.31.88.88,0,0,1-.23,0h-6a1.66,1.66,0,0,1,0-3.31Z"/><path class="cls-17" d="M10.06,79.72a1.2,1.2,0,0,0,1,1.33,1.36,1.36,0,0,0,0-2.64A1.19,1.19,0,0,0,10.06,79.72Z"/><path class="cls-16" d="M14.13,92.13l.28-.35a10.77,10.77,0,0,1-3.85-6.22l-.45.07A11.05,11.05,0,0,0,14.13,92.13Z"/><rect class="cls-4" x="100.72" y="86.99" width="12.51" height="1.63" transform="translate(-5.07 169.03) rotate(-75.32)"/><path class="cls-12" d="M106.07,99.05a11.32,11.32,0,0,0,.15-10.48c.15,0,14,3.18,14,3.18s3.23,1.16,3.23,4.45Z"/><path class="cls-7" d="M96.21,92.38c-.38,1.35,4.27,2,5.61,2.38,3.46,1,3.74-4,4.34-6.12s1.19-4.27,1.74-6.42c.27-1,.65-2.94-.09-3.06-1.65-.28-2,0-2.38,1.24-2.63,7.66-4.93,5.38-6.35,7.53-.48.7-1,1.43-1.41,2.14A11.12,11.12,0,0,0,96.21,92.38Z"/><path class="cls-3" d="M85.53,97.32a9.72,9.72,0,1,0,5-12.82A9.71,9.71,0,0,0,85.53,97.32Z"/><path class="cls-18" d="M88.56,96a6.41,6.41,0,1,0,3.27-8.45A6.41,6.41,0,0,0,88.56,96Z"/><path class="cls-19" d="M89.25,95.67a5.65,5.65,0,1,0,2.9-7.45h0a5.65,5.65,0,0,0-2.89,7.45Z"/><path class="cls-18" d="M92.33,94.32a2.29,2.29,0,1,0,1.18-3h0a2.28,2.28,0,0,0-1.16,3Z"/><path class="cls-19" d="M92.92,94.05a1.63,1.63,0,1,0,.84-2.15,1.64,1.64,0,0,0-.84,2.15Z"/><path class="cls-16" d="M93.5,91.3a2.21,2.21,0,0,0-1.21,1.28l-3.18-1.21a5.66,5.66,0,0,1,7.32-3.25h0l-1.23,3.17A2.25,2.25,0,0,0,93.5,91.3Z"/><path class="cls-16" d="M93.76,91.9a1.62,1.62,0,0,1,1.26,0l-.6,1.52-1.52-.59A1.64,1.64,0,0,1,93.76,91.9Z"/><path class="cls-16" d="M95.34,95.46a2.27,2.27,0,0,0,1.22-1.27l3.17,1.2a5.66,5.66,0,0,1-7.31,3.25h0l1.22-3.17A2.32,2.32,0,0,0,95.34,95.46Z"/><path class="cls-16" d="M95.08,94.89a1.6,1.6,0,0,1-1.25,0l.58-1.52,1.53.59A1.64,1.64,0,0,1,95.08,94.89Z"/><path class="cls-20" d="M98.3,91.68l.5-.21a4.59,4.59,0,0,1-2.21,6.11h0l-.23-.52A4,4,0,0,0,98.3,91.68Z"/><path class="cls-21" d="M90.61,85.77a8.73,8.73,0,0,0-4,11l.31-.13a8.34,8.34,0,0,1,3.81-10.57Z"/><path class="cls-12" d="M56.38,49.57s-2.38-6.4-10.55-6.4-11.33,10.44-8,16.17c.11.22.79,2.24.79,2.24L54.9,65s3.25-3.18,3.17-5.05S59,53.17,56.38,49.57Z"/><path class="cls-22" d="M41.37,53.16c0-2.49,4.2-2.34,4.2-2.34l11.37-.32c1.91,3.47,1,7.67,1.12,9.43a2.46,2.46,0,0,1-.19,1,59.87,59.87,0,0,1-10.65-2.48C44.07,57.28,41.37,55.63,41.37,53.16Z"/><path class="cls-16" d="M43.06,53.51c0-2.14,3.62-2,3.62-2l9.81-.29c1.64,3,.88,6.63,1,8.14a2.08,2.08,0,0,1-.17.89,50.43,50.43,0,0,1-9.15-2.13C45.39,57.07,43.06,55.65,43.06,53.51Z"/><path class="cls-17" d="M41.37,53.16c0-2.49,4.2-2.34,4.2-2.34L57,50.5a8.5,8.5,0,0,1,.57,1.27l-1.44,0s-2.64-.15-2.64,2.32,1.69,4.14,3.67,5.34c.28.17.62.34,1,.53a2.71,2.71,0,0,1-.19.93,59,59,0,0,1-10.65-2.47C44.07,57.28,41.37,55.63,41.37,53.16Z"/><path class="cls-23" d="M52.44,52.31a3.56,3.56,0,0,1,.7,3.17c-.54,1.7.6,2.72,1,3.88,0,0-.85.2-.85.2s-4.35-1-5.85-2.25-1.3-5,1.25-5.3A6.66,6.66,0,0,1,52.44,52.31Z"/><path class="cls-17" d="M52.75,55a3.6,3.6,0,0,1-2.47.38l-.27.3a5.86,5.86,0,0,0,2.32.2A1.72,1.72,0,0,0,52.75,55Z"/><path class="cls-24" d="M47.83,51.7l9.52-.3a5.25,5.25,0,0,1,.27.79l-8.73.22s-3.62-.12-3.62,1.8,2.33,3.18,5,4.12A53.38,53.38,0,0,0,58,60.05a2.92,2.92,0,0,1-.15.93,43.77,43.77,0,0,1-8.73-2.26c-2.59-1.1-4.8-2.6-4.8-4.87S47.83,51.7,47.83,51.7Z"/><path class="cls-17" d="M52.33,55.73a.78.78,0,0,1-.18,1h-.43a2.17,2.17,0,0,1,.11-1C52,55.43,52.33,55.73,52.33,55.73Z"/><path class="cls-7" d="M40.76,67.05l.35-.79a3.26,3.26,0,0,1,4.3-1.59l12.7,5.75,9.32-3.09a2.88,2.88,0,0,1,3.64,1.82h0l.24.72a2.88,2.88,0,0,1-1.82,3.63h0L57.67,77.41a2.92,2.92,0,0,1-2.08-.11,2.64,2.64,0,0,1-.47-.17L42.38,71.35A3.26,3.26,0,0,1,40.76,67.05Z"/><path class="cls-25" d="M41.8,70l13.33,6a3,3,0,0,0,.5.17,3,3,0,0,0,2.17.12l12.32-4.09a3.07,3.07,0,0,0,1.27-.79,2.9,2.9,0,0,1-1.89,2.07L57.67,77.39a2.87,2.87,0,0,1-2.08-.1,3.8,3.8,0,0,1-.47-.18L42.38,71.34a3.23,3.23,0,0,1-1.82-2.27A3.25,3.25,0,0,0,41.8,70Z"/><path class="cls-8" d="M71.3,71.51l-.24-.71A2.88,2.88,0,0,0,67.42,69h0l-9.32,3.1L45.41,66.31a3.25,3.25,0,0,0-4.3,1.59l-.35.79a3.31,3.31,0,0,0-.18.53A3.27,3.27,0,0,1,40.76,67l.35-.79a3.25,3.25,0,0,1,4.3-1.59L58.1,70.42l9.32-3.1a2.88,2.88,0,0,1,3.64,1.83h0l.24.71a2.84,2.84,0,0,1,0,1.73Z"/><path class="cls-26" d="M79.88,66.63A5.56,5.56,0,0,0,77.64,65c-1.29-.45-2.33,0-3.66.36-.79.22-1,.87-2.59,1.58-1,.45-2.18,0-3.07.24,0-.08,2.6,2.75,2.07,5.82,0,0,2-1.79,2.63-1.58,1,.39,2.69.65,3.13-.23s1.24-.41,1.2-1.29c.12,0,1.17-1,.8-1.71s-.36-1.26.2-1.06S80.42,67.6,79.88,66.63Z"/><path class="cls-27" d="M32.72,85.77a3.18,3.18,0,1,0,3.17-3.17h0A3.17,3.17,0,0,0,32.72,85.77Z"/><path class="cls-27" d="M26.72,80.56A1.59,1.59,0,1,0,28.31,79,1.59,1.59,0,0,0,26.72,80.56Z"/><path class="cls-3" d="M26.42,103.08a11.11,11.11,0,1,0-10.11-12v.08A11.12,11.12,0,0,0,26.42,103.08Z"/><path class="cls-18" d="M26.72,99.31a7.3,7.3,0,1,0-6.66-7.88h0A7.3,7.3,0,0,0,26.72,99.31Z"/><path class="cls-19" d="M26.8,98.46a6.44,6.44,0,1,0-5.88-7,6.43,6.43,0,0,0,5.88,7Z"/><path class="cls-18" d="M27.12,94.67a2.61,2.61,0,1,0-2.38-2.83h0A2.62,2.62,0,0,0,27.12,94.67Z"/><path class="cls-19" d="M27.18,93.87a1.83,1.83,0,1,0-.15,0Z"/><path class="cls-16" d="M24.74,91.82a2.62,2.62,0,0,0,.61,1.92l-2.91,2.51a6.43,6.43,0,0,1,.71-9.07l0,0,2.48,2.92A2.6,2.6,0,0,0,24.74,91.82Z"/><path class="cls-16" d="M25.48,91.89a1.84,1.84,0,0,1,.65-1.27L27.33,92l-1.4,1.21A1.83,1.83,0,0,1,25.48,91.89Z"/><path class="cls-16" d="M29.93,92.28a2.58,2.58,0,0,0-.61-1.9l3-2.52a6.43,6.43,0,0,1-.76,9.07l0,0L29,94A2.62,2.62,0,0,0,29.93,92.28Z"/><path class="cls-16" d="M29.19,92.2a1.87,1.87,0,0,1-.66,1.27l-1.2-1.42,1.43-1.22A1.88,1.88,0,0,1,29.19,92.2Z"/><path class="cls-20" d="M27.73,87.22l.05-.61a5.24,5.24,0,0,1,4.92,5.54v0l-.64-.06a4.61,4.61,0,0,0-4.32-4.89Z"/><path class="cls-21" d="M17.63,91.7a9.9,9.9,0,0,0,8.91,10v-.37A9.52,9.52,0,0,1,18,91.78Z"/><path class="cls-28" d="M40.73,96.65c6.88.2,30.59.86,41.31,1.14a7.36,7.36,0,0,0,1.59,2.38c0,.07-44.65,0-44.65,0A13.62,13.62,0,0,0,40.73,96.65Z"/><path class="cls-28" d="M123.3,95.27a5,5,0,0,1,.1,1l-17.33,2.83a10.59,10.59,0,0,0,1.33-4.82Z"/><path class="cls-13" d="M81.52,91a8.85,8.85,0,0,0-.14,1c-5.16-.39-26.59-2-40.2-3a11.81,11.81,0,0,0-.36-1.42C50.64,88.32,75.58,90.51,81.52,91Z"/><path class="cls-13" d="M122.91,94.07c.07.14.14.29.2.44-1.88-.3-10.59-1.69-15.87-2.51a14.38,14.38,0,0,0-.31-1.45l14.65,2.91A6.41,6.41,0,0,1,122.91,94.07Z"/><circle class="cls-16" cx="50.28" cy="93.2" r="5.57"/><polygon class="cls-3" points="46.93 91.4 46.93 92 47.52 92 47.52 96.11 48.69 96.11 48.69 90.82 48.1 90.82 46.93 91.4"/><path class="cls-3" d="M50.09,90.82v2.54h2.2a.54.54,0,0,1,.15.4v1.17a.58.58,0,0,1-.16.43.61.61,0,0,1-.42.17h-.59v-.6H50.09c.09.8.49,1.18,1.18,1.18h1.17a1.15,1.15,0,0,0,.8-.34,1.2,1.2,0,0,0,.35-.8V93.8a1.18,1.18,0,0,0-.35-.79,1.1,1.1,0,0,0-.8-.34H51.27V91.48H53v.32h.64v-.9Z"/></g></g><path class="cls-29" d="M39.28,124.31H37.53v3.25H35.29V117.42h4.64a4.11,4.11,0,0,1,2.8.89,3.09,3.09,0,0,1,1,2.45h0a3.31,3.31,0,0,1-.58,2,3.37,3.37,0,0,1-1.59,1.17l2.47,3.65H41.46ZM41,119.8a2.12,2.12,0,0,0-1.29-.37H37.53v2.91h2.25A1.9,1.9,0,0,0,41,122a1.32,1.32,0,0,0,.45-1h0A1.29,1.29,0,0,0,41,119.8Z"/><path class="cls-29" d="M52.38,125.28H48.09l-.92,2.28H44.89l4.35-10.21h2l4.36,10.21H53.31Zm-3.5-2h2.69L50.22,120Z"/><path class="cls-29" d="M63.65,127.27a5.45,5.45,0,0,1-2.35.46,5.13,5.13,0,0,1-2.65-.7,5.06,5.06,0,0,1-1.87-1.89,5.28,5.28,0,0,1-.7-2.63h0a5.32,5.32,0,0,1,.7-2.64,5,5,0,0,1,1.88-1.9,5.25,5.25,0,0,1,2.73-.7,5.8,5.8,0,0,1,2.29.4,5.24,5.24,0,0,1,1.71,1.16L64,120.47a4.85,4.85,0,0,0-1.25-.85,3.13,3.13,0,0,0-1.35-.3,2.79,2.79,0,0,0-1.51.43,2.91,2.91,0,0,0-1.05,1.15,3.23,3.23,0,0,0-.38,1.58h0a3.28,3.28,0,0,0,.38,1.6,3,3,0,0,0,1,1.16,2.76,2.76,0,0,0,1.52.43,3.17,3.17,0,0,0,1.4-.29,5.41,5.41,0,0,0,1.27-.9l1.4,1.4A5.84,5.84,0,0,1,63.65,127.27Z"/><path class="cls-29" d="M67.34,117.42h2.22v10.14H67.34Z"/><path class="cls-29" d="M74.3,121.11v6.45H72.1V117.42h2.05l4.75,6.24v-6.24h2.2v10.14H79.21Z"/><path class="cls-29" d="M88.41,127.73a5.74,5.74,0,0,1-2.81-.7,4.79,4.79,0,0,1-1.89-1.87,5.3,5.3,0,0,1-.7-2.67h0a5.29,5.29,0,0,1,.7-2.64,5.12,5.12,0,0,1,1.91-1.9,5.21,5.21,0,0,1,2.72-.7,6.23,6.23,0,0,1,2.23.34,6,6,0,0,1,1.75,1l-1.4,1.7a4.87,4.87,0,0,0-1.22-.78,3.78,3.78,0,0,0-1.41-.25,2.67,2.67,0,0,0-1.45.43,2.93,2.93,0,0,0-1.06,1.15,3.24,3.24,0,0,0-.39,1.58h0a3.37,3.37,0,0,0,.39,1.65,2.75,2.75,0,0,0,1.09,1.15,3.15,3.15,0,0,0,1.59.42,3.58,3.58,0,0,0,2.1-.61v-1.45H88.31v-1.93h4.4v4.47A6.48,6.48,0,0,1,88.41,127.73Z"/></svg>