<svg id="Layer_26" data-name="Layer 26" xmlns="http://www.w3.org/2000/svg" viewBox="0 0 128 128"><defs><style>.cls-1{fill:#ffc023;}.cls-2{fill:#f0b996;}.cls-3{fill:#17131c;}.cls-4{fill:#2d2932;}.cls-5{fill:#d0a283;}.cls-6{fill:#faaf40;}.cls-7{fill:#4c301f;}.cls-8{fill:#006838;}.cls-9{fill:#9a2529;}.cls-10{fill:#2c1216;}.cls-11{fill:#b32627;}.cls-12{fill:#00522a;}.cls-13{fill:#007440;}.cls-14{fill:#fff;}.cls-15{fill:#1c1721;}.cls-16{fill:#9eabaf;}.cls-17{fill:#7d878b;}.cls-18{fill:#cbd3d5;}.cls-19{fill:#d7d8df;}.cls-20{fill:#a6a8ab;}.cls-21{fill:#2a4088;}.cls-22{fill:#1f5eab;}.cls-23{fill:#752420;}.cls-24{fill:#f6921e;}.cls-25{fill:#e6e7e8;}.cls-26{fill:#9e9c9c;}</style></defs><g id="Layer_2" data-name="Layer 2"><g id="Layer_1-2" data-name="Layer 1-2"><path class="cls-1" d="M12,19.71V17.47c0-.09,0-.17,0-.26a12.36,12.36,0,0,1,3.46-7.52,21,21,0,0,1,6.91-4.62,43,43,0,0,1,7.44-2.4c1.49-.37,3-.73,4.46-1a59.39,59.39,0,0,1,7.42-.49,1.94,1.94,0,0,0,.59,0h6.77l.27,0c1.08,0,2.15.06,3.25.1,1.81.07,3.61.19,5.4.34,2.25.2,4.49.43,6.71.8A51.68,51.68,0,0,1,75.34,5c1.32.52,2.72.8,4.07,1.23A133.2,133.2,0,0,1,96.9,12.41a62.1,62.1,0,0,1,9.53,5.24,1.13,1.13,0,0,1,.27.22,3.57,3.57,0,0,0,1.19,1c1,.59,2,1.15,2.94,1.75a22.92,22.92,0,0,1,5.5,4.45,12.92,12.92,0,0,1,3,6.07c.1.5.16,1,.24,1.5v2.18c0,.33-.09.65-.13,1a22.83,22.83,0,0,1-2.21,6.87,50.07,50.07,0,0,1-6.23,9.44c-.55.67-1.15,1.29-1.63,2s-1,1.32-1.45,2A167.45,167.45,0,0,1,96.24,69.17c-1.75,1.78-3.55,3.54-5.37,5.25S87,77.91,85.05,79.59A120.53,120.53,0,0,1,75,87.37a77.64,77.64,0,0,1-11,6.4,5.29,5.29,0,0,0-.74.4c-.93.6-1.88,1.19-2.85,1.73a27.91,27.91,0,0,1-9.52,3.32c-.53.07-1.06.12-1.63.18H46.82l-.23,0a18.59,18.59,0,0,1-6.75-1.8,24.75,24.75,0,0,1-8.09-6.4,43.89,43.89,0,0,1-5.59-8.45,82.32,82.32,0,0,1-4.94-11.85c-.41-1.22-.74-2.47-1.27-3.65a87,87,0,0,1-4.82-14.29A97,97,0,0,1,12.6,38.28q-.35-3.8-.4-7.59c0-2.12,0-4.24.21-6.35a7.18,7.18,0,0,0-.07-1.91c0-.21-.07-.44-.1-.65C12.14,21.07,12.06,20.39,12,19.71Z"/><path class="cls-2" d="M35.56,81.65a1.06,1.06,0,0,1-1.05-1.05l-.39-12.2L28,60.14a1.08,1.08,0,0,1,1.73-1.29l6.36,8.54a1.06,1.06,0,0,1,.21.6l.39,12.55a1.06,1.06,0,0,1-1,1.11h-.07Z"/><path class="cls-2" d="M19.05,83.21a1.16,1.16,0,0,1-.37-.07A1.09,1.09,0,0,1,18,81.75l4.23-11.52-2-10.69a1.08,1.08,0,0,1,2.13-.39l2,11a1.23,1.23,0,0,1-.05.57L20.06,82.49A1.09,1.09,0,0,1,19.05,83.21Z"/><path class="cls-3" d="M32.66,61a6.14,6.14,0,0,1-3.23,2.43c-2.52,1-3.42.77-3.42.77S22.87,59,23.72,56.36s3-2.63,4.27-1.42S32.66,61,32.66,61Z"/><path class="cls-4" d="M24.79,62.82S23.18,64,20,63.48s-4-1.32-4-1.32-.32-7.85,2.69-11.62c2.17-2.72,4.67.32,5.18,2.47.19.77,6.69,2.66,6.84,4.28.06.71-3.3,2.65-6.16,1.78C24.69,61.1,24.79,62.82,24.79,62.82Z"/><path class="cls-5" d="M49,54.05h-.06l-10.63-.6a1.08,1.08,0,0,1-1-.94l-.94-6.46a1.08,1.08,0,1,1,2.13-.32l.82,5.59,9.75.55a1.1,1.1,0,0,1,1,1.11A1.08,1.08,0,0,1,49,54h0Z"/><path class="cls-6" d="M40.13,46.13a4.72,4.72,0,0,1-3,1.45c-2.18.39-2.87,0-2.87,0s-1.65-5-.55-7,2.86-1.66,3.65-.41S40.13,46.13,40.13,46.13Z"/><path class="cls-7" d="M53,39.82c.88-2.26.06-4.7-1.85-5.46s-4.16.43-5,2.74c-.77,2-.47,3,.38,3.72a1.81,1.81,0,0,1,.62,1.63,20.42,20.42,0,0,1-1.72,3.74,1.87,1.87,0,0,0,.9.77,2.79,2.79,0,0,0,1.25.16,24.23,24.23,0,0,1,1.26-4,2.66,2.66,0,0,1,1.7-.84C51.45,42.25,52.29,41.66,53,39.82Z"/><path class="cls-6" d="M53,39.82c.88-2.26.06-4.7-1.85-5.46s-4.16.43-5,2.74a4,4,0,0,0-.32,2.77c1.43.59,4.3,1.61,5.76,2.11A4.29,4.29,0,0,0,53,39.82Z"/><path class="cls-2" d="M44.08,31.24C42.54,35,38.52,37,35.13,35.59S30.26,30,31.81,26.2s5.57-5.74,9-4.36S45.64,27.44,44.08,31.24Z"/><rect class="cls-2" x="33.26" y="34.93" width="3.46" height="2.6" transform="translate(-11.53 55.53) rotate(-68.53)"/><path class="cls-8" d="M30.86,58.15s-3.34.54-7.81-2.61-5-5-5-5,6.34-12.13,12.05-13.87,8,2,7.07,5.71S30.86,58.15,30.86,58.15Z"/><path class="cls-2" d="M34.42,50.65a1.11,1.11,0,0,1-1-.6l-2.31-4.69a1.08,1.08,0,1,1,1.94-1L35,48.17l10.34-4.31a1.08,1.08,0,0,1,.77,2l-11.24,4.7A.93.93,0,0,1,34.42,50.65Z"/><path class="cls-6" d="M35,44.38a4.79,4.79,0,0,1-3.17.94c-2.21,0-2.83-.46-2.83-.46s-.81-5.19.64-7,3.08-1.17,3.66.2A64.18,64.18,0,0,1,35,44.38Z"/><path class="cls-2" d="M48.05,46.46a15.22,15.22,0,0,1-2.76-.58s-1.18-1.75-.38-1.91c1-.19,1.11-1.38,1.24-1.63s1-.37,1-.37a10.06,10.06,0,0,0,.17,1.45c.67.68,1.49-.3,1.49-.3s1.07.09,1,1c.22.21.33.72,0,.84.12.2-.24.72-.45.77C49.51,46.09,48.44,46.41,48.05,46.46Z"/><path class="cls-5" d="M46.76,54c-.93,0-.64-1.88.28-1.91.36,0,1-.78,1.43-1,.77-.47,1.25-.43,1.47-.7s.66.33.63.64c-.07.59-1.25.69-1,.9a1,1,0,0,0,.77.18,25,25,0,0,0,3-1,.67.67,0,0,1,0,.93c.16.29.06.86-.28.9a.7.7,0,0,1-.45.88.35.35,0,0,1-.14,0,1,1,0,0,1-.77.88C50,55.42,47.7,54.05,46.76,54Z"/><path class="cls-9" d="M42.6,84.39,34.51,84A1.61,1.61,0,0,1,33,82.34a1.52,1.52,0,0,1,.1-.47c.24-.63,1-2,1-2l-.1-1,3.4.11-.16.77,2.2,1.59s1.91-.3,2.77.9A2.06,2.06,0,0,1,42.6,84.39Z"/><path class="cls-6" d="M42.6,84.39l-3.52-.16a2.4,2.4,0,0,1,.33-2.79s1.91-.3,2.76.9A2.06,2.06,0,0,1,42.6,84.39Z"/><path class="cls-10" d="M21.52,86.41a10.86,10.86,0,0,1-3.21-.33,9.23,9.23,0,0,1-3-1.28s.19-1,.44-.94,5.59,1.33,5.81,1.43S21.52,86.41,21.52,86.41Z"/><path class="cls-9" d="M21.2,84.19,16.64,83a6.1,6.1,0,0,1,1.41-2.59c-.37-.19-.19-1-.19-1l4,1s-.32.77-.77.64C21.64,81.61,21.2,84.19,21.2,84.19Z"/><path class="cls-6" d="M21.6,85.26a3,3,0,0,0-5.82-1.44,8.53,8.53,0,0,0,3,1.33A4.77,4.77,0,0,0,21.6,85.26Z"/><polygon class="cls-10" points="33.1 84.06 42.73 85.1 42.62 84.3 33.33 83.45 33.1 84.06"/><path class="cls-11" d="M52.58,49.11a1.25,1.25,0,1,1-1.27-1.22h0A1.24,1.24,0,0,1,52.58,49.11Z"/><path class="cls-10" d="M43.34,25.47c-.91,1.41-4.79,1.71-5.91,2s-1.08,2.38-1.08,2.38a2.28,2.28,0,0,1-.51-2.09c-2.45-.87-2.7,3.13-1.66,3.49C34.44,31.71,33,34,31.33,34c.47-2-1.22-4.5-1.14-7.13s3.2-9,11.06-6.39c1.44-.53,3.6,1,4.32,2.67,1.26,3-.93,6.23-.93,6.23S44.52,26.48,43.34,25.47Z"/><path class="cls-4" d="M107.23,100.55a1.36,1.36,0,0,1-1.29.61,1.64,1.64,0,0,1-1.4-.61V70.36h2.69Z"/><path class="cls-4" d="M84.64,92.91a1.33,1.33,0,0,1-1.29.57A1.67,1.67,0,0,1,82,92.91V64.62h2.68Z"/><rect class="cls-4" x="93.36" y="73.06" width="1.73" height="23.43" transform="translate(-19.5 140.73) rotate(-68.18)"/><path class="cls-4" d="M58.06,84.66a1.18,1.18,0,0,1-1.15.54,1.49,1.49,0,0,1-1.26-.54v-27h2.41Z"/><path class="cls-4" d="M68.19,87.61a1.18,1.18,0,0,1-1.15.55,1.48,1.48,0,0,1-1.26-.55v-27h2.41Z"/><rect class="cls-4" x="60.96" y="69.4" width="1.12" height="10.69" transform="translate(-30.74 104.07) rotate(-68.18)"/><path class="cls-4" d="M60.7,108.3a1.31,1.31,0,0,1-1.29.61A1.61,1.61,0,0,1,58,108.3V78.11H60.7Z"/><path class="cls-4" d="M38.13,99.13a1.34,1.34,0,0,1-1.29.62,1.65,1.65,0,0,1-1.39-.62V68.94h2.68Z"/><path class="cls-4" d="M11.85,89.28a1.21,1.21,0,0,1-1.15.55,1.49,1.49,0,0,1-1.26-.55V62.23h2.41Z"/><path class="cls-4" d="M22,92.23a1.16,1.16,0,0,1-1.14.55,1.45,1.45,0,0,1-1.26-.55v-27H22Z"/><polygon class="cls-12" points="64.23 86.17 1.38 62.83 1.38 60.89 64.23 81.99 64.23 86.17"/><polygon class="cls-8" points="123.1 72.67 64.23 86.17 64.23 81.99 123.1 69.91 123.1 72.67"/><polygon class="cls-13" points="56.54 55.52 1.38 60.89 64.23 81.99 123.1 69.91 56.54 55.52"/><polygon class="cls-13" points="4.89 61.39 56.55 56.36 119.58 69.83 64.4 81.14 4.89 61.39"/><path class="cls-14" d="M56.54,56.53l62.23,13.3L64.4,81,5.7,61.49l50.84-5m0-.34L4.09,61.3l60.3,20,56-11.49L56.56,56.19Z"/><polygon class="cls-4" points="29.49 71.8 23.1 70.75 23.08 70.07 29.42 69.33 29.49 71.8"/><path class="cls-15" d="M28.74,70.41a.46.46,0,0,1-.38.47.37.37,0,0,1-.4-.33v0a.45.45,0,0,1,.37-.48.4.4,0,0,1,.41.36Z"/><polygon class="cls-16" points="25.58 68.99 25.36 69.01 25.19 63.1 25.39 63.08 25.58 68.99"/><polygon class="cls-16" points="26.03 68.93 25.82 68.96 25.63 63.05 25.85 63.03 26.03 68.93"/><polygon class="cls-16" points="26.48 68.88 26.27 68.9 26.09 63 26.3 62.98 26.48 68.88"/><polygon class="cls-16" points="26.94 68.83 26.73 68.85 26.54 62.96 26.75 62.93 26.94 68.83"/><polygon class="cls-16" points="27.39 68.77 27.17 68.8 26.99 62.9 27.2 62.88 27.39 68.77"/><polygon class="cls-16" points="27.84 68.73 27.63 68.75 27.44 62.85 27.66 62.83 27.84 68.73"/><polygon class="cls-16" points="28.29 68.67 28.08 68.7 27.9 62.8 28.11 62.78 28.29 68.67"/><polygon class="cls-16" points="28.75 68.62 28.53 68.64 28.35 62.75 28.56 62.73 28.75 68.62"/><polygon class="cls-16" points="29.19 68.56 28.98 68.59 28.8 62.7 29.02 62.68 29.19 68.56"/><polygon class="cls-16" points="29.65 68.51 29.44 68.54 29.25 62.65 29.46 62.63 29.65 68.51"/><polygon class="cls-16" points="30.1 68.46 29.89 68.49 29.71 62.6 29.92 62.58 30.1 68.46"/><polygon class="cls-16" points="30.56 68.41 30.34 68.43 30.16 62.55 30.37 62.52 30.56 68.41"/><polygon class="cls-16" points="31 68.36 30.8 68.38 30.61 62.5 30.83 62.48 31 68.36"/><polygon class="cls-16" points="31.46 68.3 31.25 68.33 31.06 62.45 31.27 62.42 31.46 68.3"/><polygon class="cls-16" points="31.91 68.25 31.7 68.27 31.52 62.4 31.73 62.38 31.91 68.25"/><polygon class="cls-16" points="32.37 68.19 32.15 68.22 31.97 62.35 32.18 62.33 32.37 68.19"/><polygon class="cls-16" points="32.81 68.15 32.6 68.17 32.42 62.3 32.64 62.28 32.81 68.15"/><polygon class="cls-16" points="33.27 68.09 33.06 68.12 32.88 62.25 33.08 62.23 33.27 68.09"/><polygon class="cls-16" points="33.72 68.04 33.51 68.06 33.33 62.2 33.54 62.18 33.72 68.04"/><polygon class="cls-16" points="34.17 67.99 33.96 68.01 33.78 62.15 33.99 62.13 34.17 67.99"/><polygon class="cls-16" points="34.62 67.93 34.41 67.96 34.23 62.1 34.44 62.08 34.62 67.93"/><polygon class="cls-16" points="35.08 67.88 34.87 67.91 34.69 62.05 34.89 62.02 35.08 67.88"/><polygon class="cls-16" points="35.53 67.83 35.32 67.86 35.13 62 35.35 61.98 35.53 67.83"/><polygon class="cls-16" points="35.98 67.78 35.77 67.8 35.59 61.95 35.8 61.92 35.98 67.78"/><polygon class="cls-16" points="36.43 67.72 36.23 67.75 36.04 61.9 36.25 61.88 36.43 67.72"/><polygon class="cls-16" points="36.89 67.67 36.68 67.69 36.49 61.85 36.7 61.82 36.89 67.67"/><polygon class="cls-16" points="37.34 67.62 37.13 67.65 36.94 61.8 37.16 61.78 37.34 67.62"/><polygon class="cls-16" points="37.79 67.57 37.58 67.59 37.4 61.75 37.6 61.72 37.79 67.57"/><polygon class="cls-16" points="38.24 67.52 38.04 67.54 37.85 61.7 38.06 61.68 38.24 67.52"/><polygon class="cls-16" points="38.7 67.46 38.48 67.49 38.3 61.65 38.51 61.62 38.7 67.46"/><polygon class="cls-16" points="39.15 67.41 38.94 67.43 38.75 61.6 38.97 61.58 39.15 67.41"/><polygon class="cls-16" points="39.6 67.36 39.39 67.39 39.21 61.55 39.42 61.52 39.6 67.36"/><polygon class="cls-16" points="40.05 67.3 39.85 67.33 39.66 61.5 39.87 61.48 40.05 67.3"/><polygon class="cls-16" points="40.55 67.25 40.34 67.27 40.15 61.44 40.37 61.42 40.55 67.25"/><polygon class="cls-16" points="41 67.19 40.79 67.22 40.61 61.39 40.82 61.37 41 67.19"/><polygon class="cls-16" points="41.46 67.14 41.24 67.17 41.06 61.35 41.27 61.32 41.46 67.14"/><polygon class="cls-16" points="41.9 67.09 41.7 67.12 41.51 61.29 41.73 61.27 41.9 67.09"/><polygon class="cls-16" points="42.36 67.04 42.15 67.06 41.96 61.24 42.17 61.22 42.36 67.04"/><polygon class="cls-16" points="42.81 66.98 42.6 67.01 42.42 61.19 42.63 61.17 42.81 66.98"/><polygon class="cls-16" points="43.27 66.93 43.05 66.95 42.87 61.14 43.08 61.12 43.27 66.93"/><polygon class="cls-16" points="43.71 66.88 43.51 66.91 43.32 61.09 43.54 61.07 43.71 66.88"/><polygon class="cls-16" points="44.17 66.83 43.96 66.86 43.77 61.05 43.98 61.02 44.17 66.83"/><polygon class="cls-16" points="44.62 66.78 44.41 66.8 44.23 60.99 44.44 60.97 44.62 66.78"/><polygon class="cls-16" points="45.08 66.72 44.86 66.75 44.68 60.95 44.89 60.92 45.08 66.72"/><polygon class="cls-16" points="45.52 66.67 45.31 66.69 45.13 60.89 45.34 60.87 45.52 66.67"/><polygon class="cls-16" points="45.98 66.62 45.77 66.65 45.59 60.85 45.79 60.81 45.98 66.62"/><polygon class="cls-16" points="46.43 66.57 46.22 66.59 46.04 60.79 46.25 60.77 46.43 66.57"/><polygon class="cls-16" points="46.89 66.52 46.67 66.54 46.49 60.75 46.7 60.72 46.89 66.52"/><polygon class="cls-16" points="47.33 66.46 47.13 66.48 46.94 60.69 47.15 60.67 47.33 66.46"/><polygon class="cls-16" points="47.79 66.41 47.58 66.43 47.4 60.65 47.6 60.62 47.79 66.41"/><polygon class="cls-16" points="48.24 66.35 48.03 66.39 47.84 60.59 48.06 60.57 48.24 66.35"/><polygon class="cls-16" points="48.69 66.31 48.48 66.33 48.3 60.55 48.51 60.52 48.69 66.31"/><polygon class="cls-16" points="49.14 66.25 48.94 66.28 48.75 60.49 48.97 60.47 49.14 66.25"/><polygon class="cls-16" points="49.6 66.2 49.38 66.22 49.2 60.45 49.41 60.42 49.6 66.2"/><polygon class="cls-16" points="50.05 66.15 49.84 66.17 49.65 60.39 49.87 60.37 50.05 66.15"/><polygon class="cls-16" points="50.5 66.1 50.29 66.12 50.11 60.34 50.31 60.32 50.5 66.1"/><polygon class="cls-16" points="50.95 66.05 50.75 66.07 50.56 60.29 50.77 60.27 50.95 66.05"/><polygon class="cls-16" points="51.41 65.99 51.19 66.02 51.02 60.24 51.22 60.22 51.41 65.99"/><polygon class="cls-16" points="51.86 65.94 51.65 65.96 51.46 60.19 51.68 60.17 51.86 65.94"/><polygon class="cls-16" points="52.31 65.88 52.1 65.91 51.92 60.15 52.13 60.12 52.31 65.88"/><polygon class="cls-16" points="52.76 65.84 52.55 65.86 52.37 60.09 52.58 60.07 52.76 65.84"/><polygon class="cls-16" points="53.22 65.78 53 65.81 52.83 60.05 53.03 60.02 53.22 65.78"/><polygon class="cls-16" points="53.67 65.73 53.46 65.75 53.27 59.99 53.49 59.97 53.67 65.73"/><polygon class="cls-16" points="54.12 65.68 53.91 65.7 53.73 59.95 53.94 59.92 54.12 65.68"/><polygon class="cls-16" points="54.58 65.62 54.37 65.65 54.18 59.89 54.39 59.87 54.58 65.62"/><polygon class="cls-16" points="55.03 65.58 54.81 65.6 54.63 59.84 54.84 59.82 55.03 65.58"/><polygon class="cls-16" points="55.53 65.61 55.31 65.64 55.13 59.88 55.34 59.86 55.53 65.61"/><polygon class="cls-16" points="55.98 65.56 55.77 65.58 55.58 59.84 55.8 59.81 55.98 65.56"/><polygon class="cls-16" points="56.43 65.51 56.22 65.53 56.04 59.78 56.25 59.76 56.43 65.51"/><polygon class="cls-16" points="56.88 65.45 56.67 65.48 56.49 59.74 56.7 59.71 56.88 65.45"/><polygon class="cls-16" points="57.34 65.4 57.12 65.43 56.94 59.68 57.16 59.66 57.34 65.4"/><polygon class="cls-16" points="57.79 65.35 57.58 65.38 57.39 59.64 57.6 59.61 57.79 65.35"/><polygon class="cls-16" points="58.24 65.3 58.03 65.32 57.85 59.58 58.06 59.56 58.24 65.3"/><polygon class="cls-16" points="58.7 65.25 58.48 65.27 58.3 59.54 58.51 59.51 58.7 65.25"/><polygon class="cls-16" points="59.14 65.19 58.94 65.22 58.75 59.48 58.97 59.46 59.14 65.19"/><polygon class="cls-16" points="59.6 65.14 59.39 65.17 59.2 59.44 59.41 59.41 59.6 65.14"/><polygon class="cls-16" points="60.05 65.09 59.84 65.11 59.66 59.38 59.87 59.36 60.05 65.09"/><polygon class="cls-16" points="60.51 65.04 60.29 65.06 60.1 59.34 60.32 59.31 60.51 65.04"/><polygon class="cls-16" points="60.95 64.98 60.74 65.01 60.56 59.28 60.77 59.26 60.95 64.98"/><polygon class="cls-16" points="61.41 64.94 61.2 64.96 61.01 59.24 61.22 59.21 61.41 64.94"/><polygon class="cls-16" points="61.86 64.88 61.65 64.91 61.47 59.18 61.68 59.17 61.86 64.88"/><polygon class="cls-16" points="62.31 64.83 62.1 64.85 61.92 59.14 62.13 59.11 62.31 64.83"/><polygon class="cls-16" points="62.76 64.78 62.55 64.8 62.37 59.08 62.58 59.06 62.76 64.78"/><polygon class="cls-16" points="63.22 64.72 63 64.74 62.83 59.04 63.03 59.01 63.22 64.72"/><polygon class="cls-16" points="63.67 64.67 63.46 64.7 63.27 58.99 63.49 58.97 63.67 64.67"/><polygon class="cls-16" points="64.12 64.62 63.91 64.64 63.73 58.94 63.94 58.91 64.12 64.62"/><polygon class="cls-16" points="64.57 64.57 64.36 64.59 64.18 58.89 64.39 58.87 64.57 64.57"/><polygon class="cls-16" points="65.03 64.51 64.81 64.54 64.64 58.84 64.84 58.81 65.03 64.51"/><polygon class="cls-16" points="65.47 64.46 65.27 64.48 65.08 58.79 65.3 58.77 65.47 64.46"/><polygon class="cls-16" points="65.93 64.41 65.72 64.44 65.54 58.73 65.75 58.71 65.93 64.41"/><polygon class="cls-16" points="66.38 64.36 66.17 64.38 65.99 58.69 66.2 58.67 66.38 64.36"/><polygon class="cls-16" points="66.84 64.31 66.62 64.33 66.44 58.63 66.65 58.61 66.84 64.31"/><polygon class="cls-16" points="67.28 64.25 67.08 64.27 66.89 58.59 67.11 58.57 67.28 64.25"/><polygon class="cls-16" points="67.74 64.2 67.53 64.23 67.35 58.53 67.55 58.51 67.74 64.2"/><polygon class="cls-16" points="68.19 64.15 67.98 64.17 67.8 58.49 68.01 58.47 68.19 64.15"/><polygon class="cls-16" points="68.65 64.1 68.43 64.12 68.25 58.44 68.46 58.41 68.65 64.1"/><polygon class="cls-16" points="69.09 64.04 68.89 64.07 68.7 58.39 68.92 58.37 69.09 64.04"/><polygon class="cls-16" points="69.55 63.99 69.34 64.02 69.16 58.34 69.36 58.31 69.55 63.99"/><polygon class="cls-16" points="70 63.94 69.79 63.97 69.61 58.29 69.82 58.27 70 63.94"/><polygon class="cls-16" points="70.47 63.89 70.26 63.91 70.07 58.23 70.29 58.21 70.47 63.89"/><polygon class="cls-16" points="70.92 63.84 70.71 63.86 70.53 58.19 70.74 58.16 70.92 63.84"/><polygon class="cls-16" points="71.38 63.78 71.17 63.8 70.98 58.13 71.19 58.11 71.38 63.78"/><polygon class="cls-16" points="71.83 63.73 71.61 63.75 71.44 58.09 71.64 58.06 71.83 63.73"/><polygon class="cls-16" points="72.28 63.67 72.07 63.7 71.88 58.03 72.1 58.01 72.28 63.67"/><polygon class="cls-16" points="72.73 63.63 72.52 63.65 72.34 57.99 72.55 57.97 72.73 63.63"/><polygon class="cls-16" points="73.19 63.57 72.98 63.6 72.79 57.93 73 57.92 73.19 63.57"/><polygon class="cls-16" points="73.64 63.52 73.42 63.54 73.24 57.89 73.45 57.87 73.64 63.52"/><polygon class="cls-16" points="74.09 63.47 73.88 63.49 73.69 57.84 73.91 57.82 74.09 63.47"/><polygon class="cls-16" points="74.54 63.42 74.33 63.44 74.15 57.79 74.36 57.77 74.54 63.42"/><polygon class="cls-16" points="75 63.37 74.78 63.39 74.6 57.74 74.81 57.72 75 63.37"/><polygon class="cls-16" points="75.45 63.31 75.23 63.33 75.06 57.69 75.27 57.66 75.45 63.31"/><polygon class="cls-16" points="75.9 63.26 75.69 63.28 75.5 57.64 75.72 57.62 75.9 63.26"/><polygon class="cls-16" points="76.35 63.21 76.14 63.23 75.96 57.59 76.17 57.56 76.35 63.21"/><polygon class="cls-16" points="76.81 63.16 76.59 63.18 76.41 57.54 76.62 57.52 76.81 63.16"/><polygon class="cls-16" points="77.26 63.1 77.05 63.13 76.86 57.49 77.08 57.46 77.26 63.1"/><polygon class="cls-16" points="77.71 63.05 77.5 63.07 77.31 57.44 77.52 57.42 77.71 63.05"/><polygon class="cls-16" points="78.18 62.96 77.97 62.99 77.78 57.36 77.99 57.33 78.18 62.96"/><polygon class="cls-16" points="78.63 62.91 78.42 62.93 78.24 57.3 78.45 57.29 78.63 62.91"/><polygon class="cls-16" points="79.09 62.86 78.87 62.89 78.69 57.26 78.9 57.23 79.09 62.86"/><polygon class="cls-16" points="79.53 62.81 79.33 62.83 79.14 57.21 79.36 57.19 79.53 62.81"/><polygon class="cls-16" points="80 62.76 79.8 62.78 79.61 57.16 79.82 57.13 80 62.76"/><polygon class="cls-16" points="80.46 62.7 80.24 62.73 80.06 57.11 80.27 57.09 80.46 62.7"/><polygon class="cls-16" points="80.91 62.65 80.7 62.67 80.51 57.06 80.73 57.03 80.91 62.65"/><polygon class="cls-16" points="81.36 62.59 81.15 62.63 80.97 57.01 81.18 56.99 81.36 62.59"/><polygon class="cls-16" points="81.81 62.55 81.61 62.57 81.42 56.96 81.63 56.93 81.81 62.55"/><polygon class="cls-16" points="82.27 62.49 82.05 62.52 81.88 56.91 82.08 56.89 82.27 62.49"/><polygon class="cls-16" points="82.71 62.44 82.51 62.46 82.33 56.86 82.54 56.83 82.71 62.44"/><polygon class="cls-16" points="83.17 62.39 82.96 62.42 82.78 56.81 82.99 56.79 83.17 62.39"/><polygon class="cls-16" points="83.62 62.34 83.42 62.36 83.23 56.76 83.44 56.73 83.62 62.34"/><polygon class="cls-16" points="84.08 62.29 83.86 62.31 83.68 56.71 83.89 56.69 84.08 62.29"/><polygon class="cls-16" points="84.53 62.23 84.32 62.26 84.13 56.66 84.35 56.63 84.53 62.23"/><polygon class="cls-16" points="84.98 62.19 84.77 62.21 84.59 56.61 84.79 56.59 84.98 62.19"/><polygon class="cls-16" points="85.43 62.13 85.22 62.16 85.04 56.56 85.25 56.54 85.43 62.13"/><polygon class="cls-16" points="85.89 62.08 85.67 62.1 85.5 56.51 85.7 56.49 85.89 62.08"/><polygon class="cls-16" points="25.33 63.79 25.32 63.56 85.66 56.87 85.67 57.09 25.33 63.79"/><polygon class="cls-16" points="25.34 64.29 25.33 64.06 85.67 57.35 85.68 57.56 25.34 64.29"/><polygon class="cls-16" points="25.36 64.79 25.35 64.56 85.69 57.82 85.69 58.04 25.36 64.79"/><polygon class="cls-16" points="25.37 65.3 25.37 65.06 85.7 58.3 85.71 58.52 25.37 65.3"/><polygon class="cls-16" points="25.39 65.8 25.39 65.57 85.72 58.77 85.73 59 25.39 65.8"/><polygon class="cls-16" points="25.41 66.3 25.4 66.07 85.73 59.25 85.74 59.47 25.41 66.3"/><polygon class="cls-16" points="25.43 66.81 25.42 66.57 85.75 59.72 85.76 59.95 25.43 66.81"/><polygon class="cls-16" points="25.44 67.31 25.43 67.07 85.77 60.2 85.78 60.42 25.44 67.31"/><polygon class="cls-16" points="25.46 67.81 25.45 67.57 85.78 60.68 85.8 60.9 25.46 67.81"/><polygon class="cls-16" points="25.47 68.31 25.46 68.08 85.8 61.15 85.8 61.37 25.47 68.31"/><polygon class="cls-17" points="24.96 69.24 24.94 68.74 86.51 61.64 86.53 62.12 24.96 69.24"/><polygon class="cls-4" points="87.56 62.76 23.09 70.27 23.08 69.8 87.54 62.31 87.56 62.76"/><polygon class="cls-18" points="86.38 56.52 24.33 63.37 24.29 62.12 86.34 55.33 86.38 56.52"/><polygon class="cls-19" points="86.36 55.88 24.31 62.7 24.29 62.12 86.34 55.33 86.36 55.88"/><path class="cls-4" d="M86.29,62.63l1.22-.14L87.27,55s0-.15-.6-.09-.63.22-.63.22Z"/><path class="cls-4" d="M24.88,69.77l-1.22.13L23.42,62s0-.16.57-.23.65.1.65.1Z"/><rect class="cls-4" x="14.74" y="74.01" width="1.12" height="10.69" transform="translate(-64.06 64.07) rotate(-68.18)"/><rect class="cls-4" x="46.86" y="80.82" width="1.73" height="23.43" transform="translate(-55.92 102.44) rotate(-68.18)"/><path class="cls-2" d="M100.11,107.93h.1a1.26,1.26,0,0,0,1.15-1.34l-1-14.18,5.55-11.26a1.24,1.24,0,0,0-.56-1.67,1.25,1.25,0,0,0-1.68.56h0L97.91,91.6a1.18,1.18,0,0,0-.12.64l1.07,14.52A1.26,1.26,0,0,0,100.11,107.93Z"/><path class="cls-2" d="M118.77,108.07a1.26,1.26,0,0,0,1.25-1.26,1.79,1.79,0,0,0,0-.23l-2.52-13.2-.2-12.25a1.26,1.26,0,0,0-2.51,0L115,93.45a.81.81,0,0,0,0,.22l2.54,13.3A1.25,1.25,0,0,0,118.77,108.07Z"/><path class="cls-20" d="M116.48,111.72a12.65,12.65,0,0,0,3.73-.37,10.78,10.78,0,0,0,3.43-1.48s-.22-1.13-.51-1.09-6.47,1.54-6.72,1.64S116.48,111.72,116.48,111.72Z"/><path class="cls-21" d="M116.59,110.18l6.54-1.4s-1.62-3.19-2.62-3.92c.43-.21.22-1.21.22-1.21l-4.62,1.12s.37.89.89.77C116.35,106.22,116.59,110.18,116.59,110.18Z"/><path class="cls-22" d="M103.11,77.75l7.44,1.45-.17,6.17a24.33,24.33,0,0,1-5.5.66,8.61,8.61,0,0,1-4.51-1Z"/><path class="cls-22" d="M111.54,85.2s.25.27,4-.28,4.62-1.54,4.62-1.54-.06-9.14-3-11.88-5.53-1.19-6.11,1.3c-.22.92-7.74,3.08-7.92,5-.08.82,3.81,3.09,7.11,2A12.78,12.78,0,0,0,111.54,85.2Z"/><path class="cls-2" d="M119.44,65.38a1.24,1.24,0,0,0,1.24-1.26,1.26,1.26,0,0,0-.2-.68l-6.8-10.27a1.23,1.23,0,0,0-1.54-.47l-7,2.81a1.25,1.25,0,1,0,.8,2.36l.13,0,6.05-2.44,6.27,9.46A1.24,1.24,0,0,0,119.44,65.38Z"/><path class="cls-6" d="M107.2,60.43a5.66,5.66,0,0,0-.27-3.85c-.88-2.44-1.66-2.87-1.66-2.87s-6,1.24-7.33,3.55,0,3.86,1.71,3.89S107.2,60.43,107.2,60.43Z"/><path class="cls-7" d="M62.57,56.68c-1.94-2-2.13-5-.41-6.65s4.69-1.32,6.63.71c1.73,1.81,1.82,3.08,1.21,4.14a2.09,2.09,0,0,0,0,2,23.85,23.85,0,0,0,3.49,3.25,2.34,2.34,0,0,1-.64,1.21,3.24,3.24,0,0,1-1.26.72,26.68,26.68,0,0,0-3.08-3.71,3.1,3.1,0,0,0-2.2-.16C65.32,58.6,64.15,58.33,62.57,56.68Z"/><path class="cls-23" d="M62.57,56.68c-1.94-2-2.13-5-.41-6.65s4.69-1.32,6.63.71a4.64,4.64,0,0,1,1.54,2.82c-1.27,1.26-3.89,3.57-5.25,4.77A4.92,4.92,0,0,1,62.57,56.68Z"/><path class="cls-2" d="M87.59,47.6C89.39,52,94,54.24,98,52.63s5.64-6.47,3.85-10.86-6.44-6.64-10.37-5S85.8,43.21,87.59,47.6Z"/><rect class="cls-2" x="96.61" y="51.39" width="3" height="4.01" transform="translate(-12.73 39.62) rotate(-21.47)"/><path class="cls-24" d="M102.89,78.74s3.85.63,9-3,5.77-5.85,5.77-5.85-7.35-14-14-16.05-9.24,2.31-8.17,6.6S102.89,78.74,102.89,78.74Z"/><path class="cls-2" d="M86.49,64a1.48,1.48,0,0,0,.42-.07l13.34-4.84a1.25,1.25,0,0,0-.72-2.4l-.13,0-13,4.7-13.62-4a1.25,1.25,0,0,0-.72,2.4h0l14,4.17A1.5,1.5,0,0,0,86.49,64Z"/><path class="cls-6" d="M93.32,57.48a5.54,5.54,0,0,0,1.23,3.64c1.45,2.09,2.31,2.36,2.31,2.36s5.44-2.69,6.21-5.27-.95-3.7-2.62-3.34S93.32,57.48,93.32,57.48Z"/><path class="cls-2" d="M70.79,61.63a16.81,16.81,0,0,0,2.7-1.82s.5-2.39-.43-2.21c-1.14.23-1.79-1-2-1.21s-1.2,0-1.2,0A13.22,13.22,0,0,1,70.27,58c-.43,1-1.73.32-1.73.32s-1.11.57-.64,1.49c-.14.32,0,.92.32.93,0,.25.58.67.83.64C69.06,61.88,70.35,61.76,70.79,61.63Z"/><path class="cls-2" d="M119.19,61.29c-.56-.92-2.26.44-1.75,1.39.19.36-.16,1.4-.18,2,0,1,.31,1.54.15,1.89s.72.46,1,.24c.55-.4,0-1.64.31-1.54a1.11,1.11,0,0,1,.6.62,27.94,27.94,0,0,1,.77,3.61A.78.78,0,0,0,121,69c.39,0,.89-.44.77-.77a.81.81,0,0,0,.62-1,.88.88,0,0,0,0-.15,1.24,1.24,0,0,0,.44-1.26C122.49,63.73,119.76,62.2,119.19,61.29Z"/><path class="cls-10" d="M87.31,42.5c1,1.62.17,3.19,1.47,3.48s1.6,2.68,1.6,2.68a2.76,2.76,0,0,0,.41-3c1.71-.6,2.52,2.45,1.83,3.58a8.47,8.47,0,0,0,2.79,3.23c-.29.62,3.79-1.27,5.66-1.22.77-1.92,2.69-5.66,2.6-8.7S100,32.14,90.87,35.19c-1.66-.63-4.17,1.12-5,3.08C84.42,41.69,87,45.44,87,45.44A8.61,8.61,0,0,1,87.31,42.5Z"/><path class="cls-21" d="M90.12,109.3l9.67,2.22a2,2,0,0,0,2.38-1.49,1.89,1.89,0,0,0,0-.58c-.08-.82-.52-2.64-.52-2.64l.44-1.11-4.06-1-.07,1-3.08,1.16s-2.16-1-3.56.15A2.72,2.72,0,0,0,90.12,109.3Z"/><path class="cls-25" d="M90.12,109.3l4.22,1a3,3,0,0,0,.54-3.41s-2.16-1-3.56.15A2.61,2.61,0,0,0,90.12,109.3Z"/><polygon class="cls-20" points="101.46 112.03 89.75 110.09 90.14 109.18 101.39 111.24 101.46 112.03"/></g></g><path class="cls-26" d="M10.42,127.85H8V119H4.57V116.7h9.25V119H10.43Z"/><path class="cls-26" d="M21.53,125.34H16.81l-1,2.51H13.3l4.78-11.23h2.25l4.78,11.23H22.54Zm-3.85-2.16h3l-1.48-3.61Z"/><path class="cls-26" d="M35.19,127.08a5.4,5.4,0,0,1-3.09.77H26.83V116.7H32a4.28,4.28,0,0,1,2.69.77,2.55,2.55,0,0,1,1,2.11h0a2.63,2.63,0,0,1-1.46,2.4,3.65,3.65,0,0,1,1.54,1,2.61,2.61,0,0,1,.53,1.7v.06A2.63,2.63,0,0,1,35.19,127.08Zm-2.36-7.94a2.18,2.18,0,0,0-1.2-.29H29.22v2.35h2.26a2.45,2.45,0,0,0,1.3-.28,1,1,0,0,0,.46-.89h0A1,1,0,0,0,32.83,119.14Zm.59,4.42a2.35,2.35,0,0,0-1.37-.33H29.22v2.45h2.91a2.38,2.38,0,0,0,1.28-.3,1,1,0,0,0,.45-.91h0A1,1,0,0,0,33.42,123.56Z"/><path class="cls-26" d="M38.32,116.7h2.45v8.91h5.55v2.24h-8Z"/><path class="cls-26" d="M48.17,116.7h8.41v2.18h-6v2.26h5.25v2.18H50.61v2.31h6v2.22H48.18Z"/><path class="cls-26" d="M68.66,127.85H66.21V119H62.82V116.7h9.24V119h-3.4Z"/><path class="cls-26" d="M73.92,116.7h8.41v2.18h-6v2.26h5.24v2.18H76.37v2.31h6v2.22H73.94Z"/><path class="cls-26" d="M87,120.76v7.09H84.59V116.7h2.26l5.22,6.86V116.7h2.42v11.15H92.4Z"/><path class="cls-26" d="M99.58,120.76v7.09H97.17V116.7h2.26l5.22,6.86V116.7h2.41v11.15H105Z"/><path class="cls-26" d="M109.85,116.7h2.45v11.15h-2.45Z"/><path class="cls-26" d="M122,127.08a4.52,4.52,0,0,1-3,.91,7.14,7.14,0,0,1-2.51-.45,6.73,6.73,0,0,1-2.21-1.33l1.45-1.74a6.66,6.66,0,0,0,1.6,1,4.41,4.41,0,0,0,1.72.35,2.19,2.19,0,0,0,1.18-.28.89.89,0,0,0,.43-.77h0a.86.86,0,0,0-.17-.56,1.73,1.73,0,0,0-.67-.42,11.51,11.51,0,0,0-1.41-.44,12.25,12.25,0,0,1-2-.69,2.9,2.9,0,0,1-1.21-1,3.08,3.08,0,0,1-.44-1.71h0a3,3,0,0,1,.51-1.75,3.26,3.26,0,0,1,1.37-1.18,4.58,4.58,0,0,1,2-.42,6.4,6.4,0,0,1,4.14,1.41l-1.27,1.85a5.26,5.26,0,0,0-2.9-1.1,1.81,1.81,0,0,0-1.06.27.85.85,0,0,0-.37.7h0a.87.87,0,0,0,.2.6,1.87,1.87,0,0,0,.68.43c.51.17,1,.32,1.55.44a6.81,6.81,0,0,1,2.67,1.21,2.69,2.69,0,0,1,.86,2.13h0A3.08,3.08,0,0,1,122,127.08Z"/></svg>