<svg id="Layer_15" data-name="Layer 15" xmlns="http://www.w3.org/2000/svg" viewBox="0 0 128 128"><defs><style>.cls-1{fill:#dd222b;}.cls-2{fill:#9e9c9c;}.cls-3{fill:#3aae3d;}.cls-4{fill:#e6e8eb;}.cls-5{fill:#faa183;}.cls-6{fill:#66534d;}.cls-7{fill:#353139;}.cls-8{fill:#dee2da;}.cls-9{fill:#d68a70;}.cls-10{fill:#e39277;}.cls-11{fill:#eb977b;}.cls-12{fill:#2f8d32;}.cls-13{fill:#c8c9cc;}.cls-14{fill:#454551;}.cls-15{fill:#383842;}.cls-16{fill:#ffc841;}.cls-17{fill:#fff;}.cls-18{fill:#029cad;}.cls-19{fill:#bbbfc4;}.cls-20{fill:#02bfd4;}.cls-21{fill:#e4ebf0;}.cls-22{fill:#017380;}.cls-23{fill:#5a6978;}.cls-24{fill:#c66437;}</style></defs><g id="Layer_2" data-name="Layer 2"><g id="Layer_1-2" data-name="Layer 1-2"><path class="cls-1" d="M11.63,20.92V18.7c0-.08,0-.16,0-.25A12.29,12.29,0,0,1,15,11a20.53,20.53,0,0,1,6.74-4.57A39.85,39.85,0,0,1,29,4.05c1.44-.34,2.87-.74,4.33-1a60,60,0,0,1,7.22-.52,1.82,1.82,0,0,0,.57,0H48c1.06,0,2.1.07,3.17.1,1.76.08,3.51.19,5.25.35,2.19.19,4.37.42,6.53.79A49.1,49.1,0,0,1,73.29,6.31c1.3.5,2.65.79,4,1.22a126.65,126.65,0,0,1,17,6.17,59,59,0,0,1,9.28,5.19.75.75,0,0,1,.26.21,3.21,3.21,0,0,0,1.16,1c1,.59,1.91,1.15,2.86,1.74a22.34,22.34,0,0,1,5.33,4.41,12.82,12.82,0,0,1,3,6c.1.49.15,1,.23,1.48v2.16c0,.32-.08.64-.13,1a22.58,22.58,0,0,1-2.14,6.79A49.2,49.2,0,0,1,108,53c-.53.66-1.12,1.28-1.58,2s-.91,1.31-1.4,1.94a163.92,163.92,0,0,1-11.46,13c-1.71,1.78-3.45,3.51-5.23,5.21s-3.66,3.4-5.63,5.12a119.61,119.61,0,0,1-9.81,7.71,74.37,74.37,0,0,1-10.67,6.33,6.3,6.3,0,0,0-.72.4c-.91.6-1.83,1.19-2.78,1.72a26.51,26.51,0,0,1-9.26,3.28l-1.58.19H45.53c-.07,0-.15,0-.23,0A17.76,17.76,0,0,1,38.73,98a24.36,24.36,0,0,1-7.86-6.33,43.16,43.16,0,0,1-5.46-8.37A81.39,81.39,0,0,1,20.6,71.58c-.4-1.21-.73-2.44-1.23-3.61A87.74,87.74,0,0,1,14.69,53.8a97.8,97.8,0,0,1-2.45-14.5c-.23-2.51-.36-5-.39-7.52q0-3.15.19-6.25a7,7,0,0,0,0-1.88,4.64,4.64,0,0,0-.11-.65C11.8,22.27,11.72,21.57,11.63,20.92Z"/><path class="cls-2" d="M23.53,123.74H19.21v4.32H16.87V117.38h2.34v4.21h4.32v-4.21h2.34v10.68H23.53Z"/><path class="cls-2" d="M35.37,125.63H30.88l-1,2.43h-2.4l4.57-10.72h2.15l4.56,10.72H36.35Zm-3.68-2.06h2.84l-1.42-3.45Z"/><path class="cls-2" d="M42.75,121.26v6.8H40.43V117.38H42.6l5,6.55v-6.55h2.3v10.68h-2Z"/><path class="cls-2" d="M61.53,125.41a5.17,5.17,0,0,1-2,1.91,6.06,6.06,0,0,1-3,.7H52.45V117.38H56.6a6.15,6.15,0,0,1,2.94.69,5,5,0,0,1,2,1.89,5.14,5.14,0,0,1,.73,2.7h0A5.11,5.11,0,0,1,61.53,125.41ZM59.4,121a2.88,2.88,0,0,0-1.13-1.14,3.36,3.36,0,0,0-1.67-.41H54.79v6.42H56.6a3.36,3.36,0,0,0,1.67-.41,2.77,2.77,0,0,0,1.13-1.12,3.31,3.31,0,0,0,.41-1.65h0A3.43,3.43,0,0,0,59.4,121Z"/><path class="cls-2" d="M72.32,127.28a5.06,5.06,0,0,1-2.94.73h-5V117.38h4.94a4,4,0,0,1,2.57.74,2.4,2.4,0,0,1,.94,2h0a2.51,2.51,0,0,1-1.4,2.3,3.4,3.4,0,0,1,1.47,1,2.48,2.48,0,0,1,.5,1.62h0A2.52,2.52,0,0,1,72.32,127.28Zm-2.25-7.57a1.9,1.9,0,0,0-1.14-.28H66.62v2.25h2.16A2.39,2.39,0,0,0,70,121.4a.92.92,0,0,0,.43-.84v0A.93.93,0,0,0,70.07,119.71Zm.56,4.22a2.23,2.23,0,0,0-1.31-.3h-2.7V126H69.4a2.25,2.25,0,0,0,1.22-.29,1,1,0,0,0,.44-.87h0A1,1,0,0,0,70.63,123.93Z"/><path class="cls-2" d="M82.26,125.63h-4.5l-1,2.43H74.4L79,117.34h2.15l4.56,10.72H83.23Zm-3.68-2.06h2.83L80,120.12Z"/><path class="cls-2" d="M87.32,117.38h2.34v8.51H95v2.17H87.32Z"/><path class="cls-2" d="M96.73,117.38h2.34v8.51h5.31v2.17H96.73Z"/><path class="cls-3" d="M73.41,60.5l1.34-2.38,4.84-8.43-2.46-1.58A44.58,44.58,0,0,0,70,55.05c-.55.66-1.12,1.38-1.68,2.14Z"/><path class="cls-4" d="M72.87,61.43l.54-.93-5.1-3.31c-.2.28-.42.57-.62.87Z"/><path class="cls-4" d="M72.21,62.58l.33-.57-5.23-3.43c-.13.18-.26.36-.38.55Z"/><path class="cls-4" d="M71.55,63.74l.33-.58-5.31-3.45-.36.56Z"/><path class="cls-4" d="M70.54,65.5l.68-1.19-5.36-3.48L65.16,62Z"/><path class="cls-3" d="M71.22,64.31l.33-.57-5.34-3.47c-.12.18-.23.37-.35.56Z"/><path class="cls-3" d="M71.88,63.16l.33-.58-5.28-3.42c-.12.17-.24.36-.36.55Z"/><path class="cls-3" d="M72.54,62l.33-.58-5.18-3.37-.38.52Z"/><path class="cls-5" d="M66.68,72.24l3.86-6.74L65.16,62A45.18,45.18,0,0,0,62,69.53s1.13,2.43,2.47,3A2.34,2.34,0,0,0,66.68,72.24Z"/><path class="cls-6" d="M79,51.9a.67.67,0,0,1,.31-.9h0c.64-.31,6.34-.19,6.34-.19L84.4,52a6.64,6.64,0,0,0-2.53-.43C80.89,51.71,79.09,52.74,79,51.9Z"/><path class="cls-6" d="M76.79,51.9a11.55,11.55,0,0,1,.79-1.18,1,1,0,0,1,1.07-.42,7,7,0,0,1,3.07,2,6.55,6.55,0,0,0,1.85,1,5.87,5.87,0,0,1,3.17,2.46c.72,1.29.6,1.34.6,1.34s-.47,1.14-1,1.21c0,0,.13-.75-.88-1.83S77.14,51.81,76.79,51.9Z"/><path class="cls-7" d="M84.43,52a8.55,8.55,0,0,1,1.29-1.19s.79,1,.66,1.67A1.84,1.84,0,0,1,84.43,52Z"/><path class="cls-7" d="M75.36,49l0,.08c-.16.24,0,.67.26.42a1.22,1.22,0,0,1,.36-.18,2.19,2.19,0,0,1,1.87,0c.52.44.79,2.17.79,2.17l.65-.11a14.39,14.39,0,0,1,1.52-.24H81a2.15,2.15,0,0,1,.62,0,.29.29,0,0,1,.13,0h.09a3.26,3.26,0,0,0,.61.11h1a4.66,4.66,0,0,0,2-.33l.24-.15h0s-.22-.23-.49-.48h0c-.22-.21-.5-.44-.79-.68a27.75,27.75,0,0,0-3.43-1.87c-1.31-.79-3-2.19-3.8-1.9a.9.9,0,0,0-.4.29C76.25,46.76,75.92,48.12,75.36,49Z"/><polygon class="cls-7" points="83.03 51.14 83.16 51.63 84.43 51.99 85.54 51.08 85.59 50.8 84.14 50.01 83.03 51.14"/><path class="cls-8" d="M82.73,51.81l.18-1.22c0-.14-.25-.14-.27,0a7.35,7.35,0,0,1-.09.79c-.11-.23-.23-.46-.34-.7a.11.11,0,0,0-.09,0c-.08,0-.19,0-.2.09l-.12.79c-.11-.24-.23-.48-.35-.71,0,0-.08-.06-.14,0s-.11,0-.12.08l-.12.79c-.11-.25-.23-.49-.34-.79a.1.1,0,0,0-.14,0,.12.12,0,0,0-.12.09c0,.3-.09.61-.13.92-.14-.26-.27-.52-.39-.79s-.32,0-.26.09l.57,1.16.27,0c0-.28.09-.57.13-.86.11.25.22.48.32.72h.29l.12-.79.33.68H82a5.55,5.55,0,0,1,.11-.79c.12.25.24.5.36.79Z"/><path class="cls-5" d="M24.08,65.76S27.37,60.58,29,50.64l-3.53-.33s-1.93,7.3-2,10.8a8.73,8.73,0,0,1-1.16,3.58C21.67,65.75,24.08,65.76,24.08,65.76Z"/><path class="cls-9" d="M21.49,63.72s1.4,1.81,1,1.87-1.43-1.3-1.43-1.3Z"/><path class="cls-10" d="M21.33,64.28s1.05,2,.63,2-1.18-1.48-1.18-1.48Z"/><path class="cls-11" d="M21.85,63.19c0,.17-.68,1.78-.68,1.78s.34,1.76-.05,1.84-.86-2-.86-2l.6-1.85Z"/><path class="cls-5" d="M23.19,65.49c-.35-.06-.43-1.07-.19-1.49s-.07-1.39-.07-1.39L21,63.78s-.87,3.17-1.27,3.09.42-4.31.42-4.31l2.73-4.64c.59.49,1.4-.08,2.07.26A4.37,4.37,0,0,0,24.48,60a6.06,6.06,0,0,0,.17,1.85c.18.8-.71,2.32-1,3S23.19,65.49,23.19,65.49Z"/><path class="cls-5" d="M31.93,38c-5.34,8.93-6.44,12.36-6.44,12.36l3.23,2c7-8.38,7.05-16.2,7.05-16.71h0l-1.36.69A8,8,0,0,0,31.94,38S31.94,38,31.93,38Z"/><path class="cls-12" d="M29.7,48.5c.6.28,1.23.56,1.87.84,7.59-13.68,3.21-13.86,3.21-13.86l-.23.09C34.14,37.32,32.17,44.85,29.7,48.5Z"/><path class="cls-3" d="M25.77,46.35a27.76,27.76,0,0,0,4,2.18c2.48-3.68,4.44-11.21,4.85-12.93-.45-.48-.83-2.37-1.72-.85C30.55,38.61,27,43.75,25.77,46.35Z"/><path class="cls-4" d="M25.29,47.41A15.37,15.37,0,0,0,29,49.49a11.45,11.45,0,0,0,.73-1,28.21,28.21,0,0,1-4-2.18C25.47,47,25.29,47.41,25.29,47.41Z"/><path class="cls-13" d="M29,49.49a17.39,17.39,0,0,0,2,.73,5.13,5.13,0,0,0,.62-.85c-.64-.28-1.27-.56-1.87-.84A11,11,0,0,1,29,49.49Z"/><path class="cls-3" d="M78.6,78l2.47,1.13,8.71,4,1.36-2.62a43.16,43.16,0,0,0-7.49-6.33c-.72-.49-1.48-1-2.29-1.46Z"/><path class="cls-4" d="M77.62,77.59l1,.43,2.78-5.35-.93-.55Z"/><path class="cls-4" d="M76.41,77l.61.28,2.86-5.54c-.19-.12-.39-.23-.59-.33Z"/><path class="cls-4" d="M75.2,76.46l.6.27,2.9-5.59-.58-.3Z"/><path class="cls-4" d="M73.35,75.62l1.24.57,2.93-5.64c-.41-.2-.8-.39-1.24-.58Z"/><path class="cls-3" d="M74.59,76.19l.61.27,3-5.62-.6-.29Z"/><path class="cls-3" d="M75.78,76.73l.61.27,2.88-5.54-.59-.31Z"/><path class="cls-3" d="M77,77.28l.6.28,2.83-5.47-.57-.31Z"/><path class="cls-5" d="M67.07,72.77l6.34,2.85L76.34,70a48.34,48.34,0,0,0-8.09-2.79Z"/><rect class="cls-5" x="36.4" y="25.06" width="4.9" height="6.76" transform="translate(-8.51 19.78) rotate(-25.84)"/><path class="cls-5" d="M42.33,27.59c2.14-.26,5-.25,6,1.58C50.46,32.88,53,41,55,47.32s4,8.35,4,8.35-8.28,7.47-14.11,6.88c0,0-1.58-8.52-5.07-12.85C37,46.16,31.9,42,33.07,35.34,33.47,33,37.65,28.16,42.33,27.59Z"/><path class="cls-4" d="M42.67,27.42l-.87.06S42,31,39.36,32.42a2.56,2.56,0,0,1-3.22-1.66c0-.05,0-.11,0-.16l-.64.63s1.28,3.27,4,2.16S42.87,28.7,42.67,27.42Z"/><path class="cls-5" d="M50.07,52.74s6.61,4,17.59,16.33L64.91,74s-14.52-9.14-19.59-15.5Z"/><path class="cls-14" d="M62.9,66.33l-.13-.1c-3.06-2.23-4.1-6.52-4.1-6.52l-6.13-7.43s-9.83,2.59-6.86,9.47C46.64,64,57.42,72,57.42,72A49.55,49.55,0,0,0,62.9,66.33Z"/><path class="cls-15" d="M62.77,66.23l.13.1a8.2,8.2,0,0,0,1-1.47s-4.09-4.24-5.18-5.15C58.67,59.71,59.71,64,62.77,66.23Z"/><path class="cls-16" d="M57.56,71.77l.46-.41S43.56,60.59,45.68,58.51s-.32.16-.64.32C44.85,62.54,57.56,71.77,57.56,71.77Z"/><path class="cls-5" d="M57.41,47.9S64,53.27,70.76,68.32l-3.5,4.52S53.74,60.24,50.8,52.66Z"/><path class="cls-14" d="M51.37,55l5.81,7.86,4.55,5.4a27.27,27.27,0,0,0,5.5-4.68c-6-3.29-11-10.88-11.65-12Z"/><path class="cls-15" d="M55.58,51.59l.88-.72,2.32-2.12.75.86,9.7,11.78s-.39.45-1,1.11l-1,1C61.21,60.26,56.27,52.67,55.58,51.59Z"/><path class="cls-16" d="M55.34,51.79l.28.36L66.28,64.49l.42-.42L55.9,51.33l-.32.26Z"/><path class="cls-16" d="M56.31,51l.23.3,10.65,12.3h0l.38-.4L56.82,50.52l-.4.35Z"/><path class="cls-16" d="M57.23,50.17l.11.13L68.07,62.68a1.37,1.37,0,0,1,.16-.18c.07-.09.16-.17.23-.26L57.78,49.68Z"/><path class="cls-12" d="M56.23,60.5c-1.16-2.62-4.45-10.37-4.95-14.5,0-.37-.05-.75-.05-1.12v-1a30.25,30.25,0,0,1,1-5.59c.59,1.72,1.19,3.5,1.81,5.24l.34.92c.47,1.31,1,2.58,1.47,3.79a43.72,43.72,0,0,0,5.28,8.94A56.59,56.59,0,0,1,56.23,60.5Z"/><path class="cls-3" d="M40,50.61a33.85,33.85,0,0,1-5.63-7.71l-.17-.31-.16-.32c-.11-.21-.21-.42-.31-.63a13.63,13.63,0,0,1-1.58-6c.08-1.14,1.38-2.61,3-4.1l.27-.26c.67,1.59,2.08,3,4,2.16,3-1.32,3.25-4.8,3.17-6,.27,0,.56,0,.84-.06,2-.1,4.13.21,5,1.79a60.89,60.89,0,0,1,3.65,9.17,30.14,30.14,0,0,0-.89,5.59v1A10.51,10.51,0,0,0,51.29,46c.49,4.13,3.79,11.88,4.94,14.5-3.5,2.1-8.17,4.38-11.61,4C44.62,64.54,43.14,53.67,40,50.61Z"/><path class="cls-16" d="M42.88,48.32l1.22-.61.79,1.47-4.08,2.11L40,49.82l1.31-.68L39.7,46a4.55,4.55,0,0,1-.91,1.09L38,45.57a2.57,2.57,0,0,0,1-1.9l1.18-.6Z"/><path class="cls-16" d="M46.48,46.28a8.31,8.31,0,0,0,.79-2.67,3,3,0,0,0-.33-1.37A2.47,2.47,0,0,0,45.6,41a2.23,2.23,0,0,0-2.8,1.44A3.22,3.22,0,0,0,43,44.54l1.51-.37c-.35-.79-.33-1.28.06-1.49a.57.57,0,0,1,.48,0,1,1,0,0,1,.41.43,1.49,1.49,0,0,1,.16.72,5.2,5.2,0,0,1-.27,1.23A10.36,10.36,0,0,1,45,46.17l-.49,1.26L45.28,49l3.87-2.05a6.93,6.93,0,0,1-.17-.79l-.44-.94Z"/><path class="cls-7" d="M90.73,79.5s2.11.79,2.38,1.51-2.38,0-2.38,0l-.42-.66S90.6,79.74,90.73,79.5Z"/><path class="cls-6" d="M92.71,80.52a4.73,4.73,0,0,1,2.06,1.07,6.42,6.42,0,0,1,.61.92l-2.19-.45Z"/><path class="cls-6" d="M90.59,85.79c0-.15-1.78-3.16-1.71-3.37a6.23,6.23,0,0,1,.79-1.4l2.51,2.1Z"/><path class="cls-7" d="M91,87.73a2.25,2.25,0,0,1-.92-1.66,6.59,6.59,0,0,0-1.11-2.66s-.21-.84,0-.89a7.39,7.39,0,0,1,1.58,2.67,2.12,2.12,0,0,0,.53,2.45Z"/><path class="cls-7" d="M93.9,82.84a10.08,10.08,0,0,0-1.89.24c-.94.22-2.38-1.41-2.31-1.71s.38-1.31,1.16-1.26a8.74,8.74,0,0,1,2.42,1A1.32,1.32,0,0,1,93.9,82.84Z"/><path class="cls-7" d="M91,87.64S89.78,87,90.46,85s1.87-2.63,2.34-2.65a2.47,2.47,0,0,1,1.08.36L93.76,84Z"/><path class="cls-6" d="M91,87.73a1.88,1.88,0,0,0,1.5.8s2.6-3.36,3-5.11-2.57-2.54-2.57-2.54l.23.15c.42.26,1.18,1,.38,2.43C92.41,85.39,91.24,85.7,91,87.73Z"/><path class="cls-8" d="M91.87,83.74,90,85.28c-.1.08-.22-.19-.12-.26l1.84-1.52c.1-.09.23.16.13.24Z"/><path class="cls-8" d="M91.44,83.18l-1.91,1.43c-.09.07-.21-.19-.12-.26.63-.46,1.25-.93,1.89-1.42C91.41,82.86,91.53,83.1,91.44,83.18Z"/><path class="cls-8" d="M91,82.61,89.13,84c-.1.07-.22-.19-.12-.26l1.86-1.38C91,82.29,91.1,82.54,91,82.61Z"/><path class="cls-8" d="M90.57,82l-1.84,1.35c-.09.07-.21-.2-.13-.27.61-.42,1.22-.87,1.83-1.33C90.53,81.72,90.66,82,90.57,82Z"/><path class="cls-8" d="M90.26,85.64c.35-.89.69-1.76,1-2.63.06-.14.25,0,.2.15-.34.88-.68,1.76-1,2.65C90.39,86,90.2,85.81,90.26,85.64Z"/><path class="cls-8" d="M89.84,85.05l1-2.65c0-.12.24,0,.2.16-.34.88-.67,1.77-1,2.66C90,85.36,89.79,85.22,89.84,85.05Z"/><path class="cls-8" d="M89.38,84.4c.35-.86.69-1.72,1-2.56.06-.13.25,0,.2.16l-1,2.57C89.51,84.71,89.32,84.57,89.38,84.4Z"/><path class="cls-8" d="M89,83.78l.91-2.52c0-.12.24,0,.19.16-.3.84-.61,1.68-.92,2.54C89.11,84.09,88.93,83.92,89,83.78Z"/><path class="cls-5" d="M47,27.26c8.22-6.34,13.17-9.51,13.17-9.51l2.61,1.37a1.52,1.52,0,0,1,.39.74c.11.49-.43.89-1,1.39C55.13,28,48,30.54,47.5,30.61l-1.32-.06-.63-.64a7.92,7.92,0,0,1,1.39-2.65Z"/><path class="cls-12" d="M57.16,23.8c.35.57.71,1.15,1.06,1.76C49.27,32,48.06,31.11,46.48,30.81c-.5-.09-1.59-.43-1.59-.43a2.17,2.17,0,0,1,.07-.24C46.56,29.53,53.8,26.69,57.16,23.8Z"/><path class="cls-3" d="M54.71,20.44a23.11,23.11,0,0,1,2.45,3.36c-3.36,2.89-10.6,5.73-12.26,6.34-.53-.4-1.76-1-1.58-1.77C46.87,25.65,52.27,21.91,54.71,20.44Z"/><path class="cls-4" d="M55.79,20A12.07,12.07,0,0,1,58,23a7.75,7.75,0,0,1-.87.85,23.2,23.2,0,0,0-2.45-3.37A3.24,3.24,0,0,1,55.79,20Z"/><path class="cls-13" d="M58,23a16.76,16.76,0,0,1,1,1.89,5.89,5.89,0,0,1-.79.71c-.36-.61-.71-1.19-1.06-1.76A7.88,7.88,0,0,0,58,23Z"/><path class="cls-5" d="M68,5.44a66.62,66.62,0,0,0-8.43,13l3.53,1.84S67,13.53,67.75,10.12a9.05,9.05,0,0,1,1.87-3.27C70.37,5.94,68,5.44,68,5.44Z"/><path class="cls-5" d="M65.86,7.31c.3.12.2,1.06-.11,1.39s-.2,1.28-.2,1.28l2-.7s1.36-2.75,1.72-2.57-1.21,3.84-1.21,3.84L64.7,14.23a1.48,1.48,0,0,1-2.08,0l-.06-.07c.27-.24,1.11-1.86,1.21-1.95.44-.36.08-1.09.07-1.87s1.07-2,1.47-2.52S65.86,7.31,65.86,7.31Z"/><path class="cls-17" d="M64.81,12h.83a6.25,6.25,0,0,0,2.45-2c-.11-.25-.32-.82-.38-1V8.89l-.1,0-2.06,1.27h0v0l-.64,1.64Z"/><path class="cls-17" d="M58.39,10.46v.11h0a6.36,6.36,0,0,0,3,1.75,4.1,4.1,0,0,0,.48.1h.06l.16-.05L62,12.3l-1.79-1.22h-.1l-1.62-.54h0Z"/><path class="cls-17" d="M66,2.19v.08l.35,2v0l0,0,.47.41,1.17,1,.07.06h0l1-1.16A6.48,6.48,0,0,0,67.84,2.2H66Z"/><path class="cls-18" d="M64.21,9.43c.57.35,1.22.67,1.34.73l2-1.24A9.22,9.22,0,0,0,68,5.79l-1.15-1a6.35,6.35,0,0,1-.18,1.06,6.1,6.1,0,0,1-1,2.16A6.43,6.43,0,0,1,64.21,9.43Z"/><path class="cls-18" d="M67.71,8.93c.06.19.27.74.38,1a6,6,0,0,0,1-2.13,6.19,6.19,0,0,0,0-3.14l-1,1.16A9,9,0,0,1,67.71,8.93Z"/><path class="cls-18" d="M65.66.51a6.6,6.6,0,0,1,.89,1.68h1.29A6.29,6.29,0,0,0,65.66.51Z"/><path class="cls-18" d="M60.19,11.08,62,12.32a6.36,6.36,0,0,0,2.86-.43l.64-1.63a10.26,10.26,0,0,1-1.36-.79,8,8,0,0,1-.9.51,6.27,6.27,0,0,1-2.89.58Z"/><path class="cls-18" d="M58.13,10.1q.15.2.33.39h0l1.61.53.12-.45a6.2,6.2,0,0,1-.74-.08,1.67,1.67,0,0,1-.48-.11A5.91,5.91,0,0,1,58.13,10.1Z"/><path class="cls-18" d="M57.88,10a7.49,7.49,0,0,0,.51.61h0L58,10.08Z"/><path class="cls-18" d="M61.87,12.46a6.19,6.19,0,0,0,3.77-.5H65a6.42,6.42,0,0,1-3,.47Z"/><path class="cls-19" d="M58,10l.38.53h0a6.36,6.36,0,0,0,3,1.75,4.1,4.1,0,0,0,.48.1h.06a6.55,6.55,0,0,0,3-.46h.68a6.27,6.27,0,0,0,2.45-2c-.11-.24-.32-.81-.38-1a9.12,9.12,0,0,0,.4-3.11l1-1.16A6.48,6.48,0,0,0,67.84,2.2H66.55c0,.16.1.32.14.49a6.22,6.22,0,0,1,.18,2.1l1.15,1a9.22,9.22,0,0,1-.43,3.13l-2,1.29c-.12-.07-.77-.39-1.34-.74l-.08.06c.55.35,1.18.68,1.35.77l-.64,1.63a6.21,6.21,0,0,1-2.86.43l-1.79-1.28.15-.51h-.15l-.14.46-1.61-.54h0a3.09,3.09,0,0,1-.33-.39Z"/><path class="cls-20" d="M63.62,5.92l-.29,2.8a3,3,0,0,0,.88.74A6.45,6.45,0,0,0,65.68,8a6.19,6.19,0,0,0,1-2.12,7.65,7.65,0,0,0,.17-1.05l-.46-.42Z"/><path class="cls-20" d="M61.07,4.74h0l2.5,1,2.78-1.54-.35-2A7.81,7.81,0,0,0,63,.94L60.86,2.11Z"/><path class="cls-21" d="M56.84,4.65a6.35,6.35,0,0,0,0,3.35l.47-1.61a4.2,4.2,0,0,0,.78.26,5.85,5.85,0,0,0,1.1.17l1.39,2.44-.44,1.31h.12l.39-1.28,2.55-.5a3.34,3.34,0,0,0,.85.69l.08-.05a3,3,0,0,1-.88-.74l.3-2.8,2.78-1.55.46.41a6.14,6.14,0,0,0-.18-2.09,4.67,4.67,0,0,0-.14-.5h-.45A8,8,0,0,0,63,.81l-.58-.9a6,6,0,0,0-.93.14h0a7.13,7.13,0,0,0-.82.26h0a5.52,5.52,0,0,0-.88.43l-.86,1h0a7.1,7.1,0,0,0-1.71,2.32L57,4.28Zm4.22.09h0l-.2-2.63L63,.94a7.81,7.81,0,0,1,3,1.33l.35,2L63.57,5.79Zm-3.81-.63a7.74,7.74,0,0,1,1.69-2.28h0l1.8.28.18,2.65h0L59.29,6.67a5.93,5.93,0,0,1-1.9-.41v.06h0ZM56.89,8l.08.25,0,.09A9.88,9.88,0,0,0,58,10l.12.06C58,10,58,9.91,57.91,9.82l-.1-.15c-.17-.25-.32-.52-.46-.74a.09.09,0,0,0-.05-.09.11.11,0,0,1,0-.08l0-.11a.21.21,0,0,1-.06-.1c-.11-.19-.19-.35-.24-.46V8Z"/><path class="cls-20" d="M57,8.32A6.21,6.21,0,0,0,57.88,10L58,10A9.24,9.24,0,0,1,57,8.32Z"/><path class="cls-20" d="M60.34,10.57A6.27,6.27,0,0,0,63.23,10a6.77,6.77,0,0,0,.9-.52,3.38,3.38,0,0,1-.85-.7l-2.55.51Z"/><path class="cls-20" d="M56.89,8h0s.13.26.3.57a.27.27,0,0,0,.06.1l0,.08.09.17a13.06,13.06,0,0,0,.73,1.19,6.69,6.69,0,0,0,.86.29l.48.1c.25,0,.49.07.74.09l.41-1.33L59.24,6.8a5.85,5.85,0,0,1-1.1-.17,4.2,4.2,0,0,1-.78-.26Z"/><path class="cls-20" d="M57,4.28l.3-.22A7.09,7.09,0,0,1,59,1.73h0l.85-1A6.28,6.28,0,0,0,57,4.28Z"/><path class="cls-20" d="M57.25,4.11l.09,2.2h0V6.25a5.69,5.69,0,0,0,1.9.42l1.68-1.92h0l-.18-2.64L59,1.8h0A7.79,7.79,0,0,0,57.25,4.11Z"/><path class="cls-20" d="M62.45-.09,63,.82a8.06,8.06,0,0,1,3.06,1.37h.5A6.66,6.66,0,0,0,65.66.51,7.4,7.4,0,0,0,64.55.1,6.18,6.18,0,0,0,62.45-.09Z"/><polygon class="cls-22" points="63.57 5.82 63.6 5.93 63.63 5.92 66.41 4.37 66.44 4.36 66.38 4.26 66.35 4.28 63.57 5.82"/><polygon class="cls-22" points="60.74 2.11 60.74 2.13 60.95 4.76 60.97 4.76 61.06 4.74 61.06 4.74 61.07 4.74 60.86 2.11 60.86 2.1 60.74 2.11"/><path class="cls-22" d="M63,.83v.1h0a8,8,0,0,1,3,1.34h.13l-.06-.08A7.87,7.87,0,0,0,63,.84Z"/><path class="cls-22" d="M57.25,4.06l0,.05A7.77,7.77,0,0,1,59,1.83h0v-.1A7,7,0,0,0,57.25,4.06Z"/><path class="cls-22" d="M57.35,6.37h0a4.3,4.3,0,0,0,.79.26,5.75,5.75,0,0,0,1.09.17h.06V6.67a5.93,5.93,0,0,1-1.9-.41v.06Z"/><polygon class="cls-22" points="60.08 11.03 60.08 11.03 60.17 11.1 60.18 11.08 60.34 10.57 60.73 9.29 60.76 9.21 60.65 9.18 60.62 9.24 60.22 10.57 60.08 11.03"/><path class="cls-22" d="M63.26,8.73h0a3.34,3.34,0,0,0,.85.7c.55.36,1.18.69,1.35.78h.05l0-.11h0c-.12-.06-.77-.39-1.34-.73a3,3,0,0,1-.88-.74Z"/><path class="cls-22" d="M67.59,8.93V9h.11V8.9a9.38,9.38,0,0,0,.41-3.11H68A9.57,9.57,0,0,1,67.59,8.93Z"/><path class="cls-22" d="M61.91,12.32v.09h0A6.57,6.57,0,0,0,65,12h0l-.06-.11h-.07a6.36,6.36,0,0,1-2.86.43Z"/><path class="cls-23" d="M56.89,8l.08.25,0,.09A9.88,9.88,0,0,0,58,10l.38.53h0l.08-.08h0a3.09,3.09,0,0,1-.33-.39,1.73,1.73,0,0,1-.19-.28l-.1-.14h0l-.1-.21-.12-.19-.11-.2-.11-.18a.09.09,0,0,0-.05-.1.09.09,0,0,1,0-.07l-.08-.08a.21.21,0,0,1-.06-.1c0-.1-.11-.18-.14-.26s0-.08-.06-.11V8Z"/><polygon class="cls-17" points="59.22 6.76 59.24 6.8 60.62 9.24 60.67 9.31 60.73 9.29 63.28 8.79 63.33 8.78 63.34 8.72 63.63 5.92 63.63 5.85 63.57 5.82 61.06 4.74 61.06 4.74 61.01 4.71 60.97 4.76 59.29 6.67 59.22 6.76"/><path class="cls-17" d="M56.84,4.65a6.35,6.35,0,0,0,0,3.35l.47-1.61v0h0l-.1-2.2V4.06L57,4.28Z"/><path class="cls-17" d="M58.89,1.81H59l1.77.3h.12L63,.94h.07l0-.06-.56-1a6,6,0,0,0-.93.14h0l-.83.28h0a6,6,0,0,0-.88.43l-.85,1Z"/><polygon class="cls-19" points="68.09 9.94 67.69 8.87 67.59 8.93 67.52 9.1 68.09 9.94"/><polygon class="cls-19" points="65.5 10.2 65.46 10.32 65.63 10.36 65.59 10.14 65.5 10.2"/><polygon class="cls-19" points="64.87 11.83 64.81 11.98 65.02 11.97 64.98 11.82 64.87 11.83"/><polygon class="cls-19" points="68.11 5.83 68.09 5.86 68.03 5.8 68.12 5.75 68.11 5.83"/><polygon class="cls-21" points="66.12 2.19 65.99 2.19 66 2.27 66.05 2.35 66.19 2.31 66.12 2.19"/><polygon class="cls-21" points="66.34 4.22 66.36 4.33 66.43 4.39 66.54 4.35 66.34 4.22"/><path class="cls-5" d="M28.63,10.87a7,7,0,0,1,9.29-2c3.08,1.79,4.38,5.32,4.94,8.26a10.32,10.32,0,0,1-1.52,8.77,7.06,7.06,0,0,1-9,2c-3-1.59-4.27-4.82-4.75-7.5C26.86,17.54,26.58,13.78,28.63,10.87Z"/><path class="cls-24" d="M27,10.53c1.1-2,5.07-3.55,5.07-3.55a3.33,3.33,0,0,0-.46.46A8.84,8.84,0,0,1,36.3,7,5,5,0,0,0,35,7.49a9.13,9.13,0,0,1,4.68.62,6,6,0,0,0-1.59,0,10.22,10.22,0,0,1,2.49,1.14c4.16,2.52,2.57,9.15,2.57,9.15l-2.25.79s-.49-6.66-1.82-7.58c-3.09-2.17-9.22,2.28-9.22,2.28s-1.4-1.29-2-1c-.29.12-.62,1.58-.62,1.58A3.27,3.27,0,0,1,27,10.53Z"/><path class="cls-5" d="M41.48,17.61A1.28,1.28,0,0,1,42,16.26a1.26,1.26,0,0,1,1.58,0c1.16.91.8,4,.12,4.38a1.1,1.1,0,0,1-1.27.13C42.12,20.6,41.72,18.7,41.48,17.61Z"/></g></g></svg>