<svg id="Layer_14" data-name="Layer 14" xmlns="http://www.w3.org/2000/svg" viewBox="0 0 128 128"><defs><style>.cls-1{fill:#11485d;}.cls-2{fill:#9e9c9c;}.cls-3{fill:#eff1ef;}.cls-4{fill:#522e72;}.cls-5{fill:#d77141;}.cls-6{fill:#ffa06f;}.cls-7{fill:#ff8862;}.cls-8{fill:#d15571;}.cls-9{fill:#ff5571;}.cls-10{fill:#3eb187;}</style></defs><g id="Layer_2" data-name="Layer 2"><g id="Layer_1-2" data-name="Layer 1-2"><path class="cls-1" d="M18.3,21.26V19.21a.45.45,0,0,1,0-.23,11.34,11.34,0,0,1,3.1-6.88,18.92,18.92,0,0,1,6.22-4.23,37.29,37.29,0,0,1,6.68-2.19c1.33-.32,2.66-.68,4-.89A51.31,51.31,0,0,1,45,4.33a1.57,1.57,0,0,0,.53,0h6.32c1,0,2,.06,2.93.1,1.62.06,3.24.17,4.85.31,2,.18,4,.39,6,.73a45.68,45.68,0,0,1,9.56,2.32c1.19.47,2.45.73,3.65,1.13a116.58,116.58,0,0,1,15.72,5.7,54.88,54.88,0,0,1,8.57,4.79.91.91,0,0,1,.24.2,3.09,3.09,0,0,0,1.07.86c.88.55,1.77,1.07,2.64,1.61a21,21,0,0,1,4.94,4.07,11.94,11.94,0,0,1,2.74,5.56c.09.45.15.91.21,1.37v2c0,.3-.07.6-.12.89a20.8,20.8,0,0,1-2,6.28,45,45,0,0,1-5.6,8.64c-.49.61-1,1.19-1.46,1.82S105,54,104.56,54.52A148.28,148.28,0,0,1,94,66.52Q91.67,69,89.2,71.33T84,76.06a111.22,111.22,0,0,1-9.06,7.12A68.53,68.53,0,0,1,65.07,89a7.16,7.16,0,0,0-.66.36c-.84.56-1.69,1.1-2.56,1.59a24.64,24.64,0,0,1-8.55,3c-.48.07-1,.12-1.46.17H49.65l-.22,0a16.47,16.47,0,0,1-6.06-1.64,22.42,22.42,0,0,1-7.27-5.85,40.58,40.58,0,0,1-5-7.73A76.48,76.48,0,0,1,26.6,68c-.37-1.12-.66-2.25-1.14-3.34a80.83,80.83,0,0,1-4.3-13.06A92,92,0,0,1,18.9,38.23c-.22-2.31-.33-4.63-.36-6.94,0-1.94,0-3.88.18-5.81a6.34,6.34,0,0,0-.06-1.74,4.08,4.08,0,0,0-.09-.61Z"/><path class="cls-2" d="M16,127.82a6.08,6.08,0,0,1-2.89-.73,5,5,0,0,1-1.94-1.92,5.5,5.5,0,0,1-.73-2.8h0a5.44,5.44,0,0,1,2.72-4.74A5.62,5.62,0,0,1,16,116.9a6.83,6.83,0,0,1,2.33.35,6.81,6.81,0,0,1,1.83,1.1l-1.47,1.77a4.9,4.9,0,0,0-1.28-.82,3.89,3.89,0,0,0-1.47-.25,2.81,2.81,0,0,0-1.52.44,3.3,3.3,0,0,0-1.11,1.21,3.38,3.38,0,0,0-.4,1.65h0a3.61,3.61,0,0,0,.36,1.74,3.11,3.11,0,0,0,1.15,1.21,3.19,3.19,0,0,0,1.66.43,3.62,3.62,0,0,0,2.19-.63v-1.52H15.89v-2h4.6v4.59A6.79,6.79,0,0,1,16,127.82Z"/><path class="cls-2" d="M27.57,127.63H25.25v-4.17l-4.07-6.4H23.9l2.53,4.24L29,117.06h2.62l-4.07,6.35Z"/><path class="cls-2" d="M41.36,120.73l-3,4.52h-.05l-2.93-4.48v6.86H33.08V117.06h2.51l2.78,4.47,2.78-4.47h2.51v10.57h-2.3Z"/><path class="cls-2" d="M48.51,120.91v6.72H46.25V117.06H48.4l5,6.51v-6.51h2.26v10.57h-2Z"/><path class="cls-2" d="M65.06,125.26H60.58l-1,2.37h-2.4L61.75,117H63.9l4.53,10.65H66Zm-3.66-2.05h2.81l-1.4-3.43Z"/><path class="cls-2" d="M76.52,126.92a4.29,4.29,0,0,1-2.81.87,6.92,6.92,0,0,1-2.39-.43,6.52,6.52,0,0,1-2.1-1.27l1.37-1.65a6.57,6.57,0,0,0,1.53,1,4,4,0,0,0,1.63.33,2.08,2.08,0,0,0,1.12-.26.85.85,0,0,0,.41-.73h0a.78.78,0,0,0-.17-.53,1.55,1.55,0,0,0-.63-.4,10.41,10.41,0,0,0-1.34-.42,11,11,0,0,1-1.93-.66,2.61,2.61,0,0,1-1.15-1,2.81,2.81,0,0,1-.42-1.62h0a2.93,2.93,0,0,1,.48-1.67,3.09,3.09,0,0,1,1.31-1.12,4.34,4.34,0,0,1,1.91-.4,6.06,6.06,0,0,1,3.93,1.27L76.06,120a4.91,4.91,0,0,0-2.75-1,1.69,1.69,0,0,0-1,.26.81.81,0,0,0-.36.66h0a.88.88,0,0,0,.19.58,1.7,1.7,0,0,0,.66.39,12.74,12.74,0,0,0,1.46.42,6.6,6.6,0,0,1,2.54,1.16,2.5,2.5,0,0,1,.82,2h0A2.91,2.91,0,0,1,76.52,126.92Z"/><path class="cls-2" d="M84.18,127.63H81.86V119.2H78.63v-2.14h8.78v2.14H84.19Z"/><path class="cls-2" d="M89.29,117.06H91.6v10.57H89.27Z"/><path class="cls-2" d="M101.68,127.34a5.81,5.81,0,0,1-2.46.48,5.37,5.37,0,0,1-4.72-2.71,5.48,5.48,0,0,1-.73-2.74h0a5.49,5.49,0,0,1,.73-2.75,5.16,5.16,0,0,1,2-2,5.48,5.48,0,0,1,2.85-.73,6.11,6.11,0,0,1,2.39.41,5.55,5.55,0,0,1,1.77,1.22l-1.46,1.7a5,5,0,0,0-1.3-.88,3.11,3.11,0,0,0-1.4-.31,2.85,2.85,0,0,0-1.58.45,3,3,0,0,0-1.1,1.19,3.65,3.65,0,0,0-.39,1.66h0a3.72,3.72,0,0,0,.39,1.67,3,3,0,0,0,1.09,1.2,2.86,2.86,0,0,0,1.59.45,3.35,3.35,0,0,0,1.46-.3,5.51,5.51,0,0,0,1.31-.94l1.46,1.47A6.45,6.45,0,0,1,101.68,127.34Z"/><path class="cls-2" d="M112,126.92a4.34,4.34,0,0,1-2.82.87,6.92,6.92,0,0,1-2.39-.43,6.63,6.63,0,0,1-2.1-1.27l1.38-1.65a6.36,6.36,0,0,0,1.53,1,4,4,0,0,0,1.63.33,2.1,2.1,0,0,0,1.12-.26.86.86,0,0,0,.4-.73h0a.83.83,0,0,0-.16-.53,1.61,1.61,0,0,0-.63-.4,10.92,10.92,0,0,0-1.34-.42,11.19,11.19,0,0,1-2-.66,2.64,2.64,0,0,1-1.14-1,2.81,2.81,0,0,1-.41-1.62h0a2.92,2.92,0,0,1,.47-1.67,3.09,3.09,0,0,1,1.31-1.12,4.38,4.38,0,0,1,1.92-.4,6.07,6.07,0,0,1,3.92,1.34l-1.2,1.75a5.07,5.07,0,0,0-2.75-1.09,1.7,1.7,0,0,0-1,.26.8.8,0,0,0-.35.66h0a.81.81,0,0,0,.19.58,1.6,1.6,0,0,0,.65.39,12.74,12.74,0,0,0,1.46.42,6.6,6.6,0,0,1,2.54,1.16,2.57,2.57,0,0,1,.82,2h0A2.93,2.93,0,0,1,112,126.92Z"/><ellipse class="cls-3" cx="59.51" cy="101.92" rx="11.05" ry="2.83"/><path class="cls-4" d="M38.35,22.62C38.83,22,55.83,9.17,55.83,9.17s-.18,1,.34.48c.28-.26-17,13.49-17,13.49Z"/><path class="cls-5" d="M55.41,29.66c0,.72-.86,1.28-1.95,1.28s-2-.56-2-1.28.88-1.29,2-1.29S55.41,29,55.41,29.66Z"/><path class="cls-6" d="M52.34,61.31a49.44,49.44,0,0,0,.48,7.86c.55,2.55,2.39,6.13,2.2,7.7s-1.39,5.39-1.34,7.47,2.25,8.88,2,9.82a61,61,0,0,0-1,6.09c0,.76,1.93,3.17,2.82,2.82a3.48,3.48,0,0,0,2.06-3c-.09-1.29-1.25-4.39-1-6.2s.78-9.63,1-11.15-.42-5-.5-5.78,1.69-13.31,1.34-14.56S53.46,57.4,52.34,61.31Z"/><path class="cls-7" d="M60.09,52.93a13.53,13.53,0,0,1,3.43-6c2.62-2.56,5-5.38,5-5.38s-3.27-4.27-3.62-7.25-.61-10.21-.57-10.41-1.77.4-2.18-1.21.57-2.49.81-3.69-1.35-3.7-.57-4.44,2.48,1.28,2.79,3S68.3,29,69,30.94s3,6.32,3.32,7.25,1.41,2,.87,3.39-5.49,11.71-6.47,13.8-3.21,5.67-4.48,5.92S59.29,55.31,60.09,52.93Z"/><path class="cls-6" d="M61.47,45.23c.37-.27,6.2-8.69,6.45-10.18.1-.6.21-2.6.31-4.76H64.68c-.44,2.64-.82,5-.82,5s-1.75,2.08-2.65,2.92-3.8,4.94-4.14,5.11-1.62-.4-1.62-.4l.14-1.38c1.09-.43,2.15-3.46,2.15-3.46l.17-.1c.57-.35.85-1.73,1-2.26.21-.8-.69-.87-.69-.87a9.23,9.23,0,0,0-.79-3.58c-.81-1.75-3.76-2.33-6.27-1.39s-2.65,4.3-2.65,4.3-1.12,0-1.07,1.55c.08,1.85,1,1.69,1,1.69l.29,1.28a5.62,5.62,0,0,0,2,2.88v1.13s-4.77.33-4.9,0-5.27-6-5.41-6.85a39.1,39.1,0,0,1,.78-5H37.88A27.5,27.5,0,0,0,36.62,36c0,1,1.75,4,1.75,4A34.9,34.9,0,0,0,42,45.44c1.61,1.75,4.71,4.76,4.77,5A23.27,23.27,0,0,0,52.34,61c2,1.85,7.92,1.44,9,1.25s1.12-1,.67-1.45a9.74,9.74,0,0,1-1.28-4.7c0-1.78-.1-4.1-.1-4.1a1.2,1.2,0,0,1-.13-1.13C60.73,50.37,61.1,45.5,61.47,45.23Z"/><path class="cls-5" d="M51.21,31.26a9.71,9.71,0,0,0,1.69.42,6.61,6.61,0,0,0,1.72-.17,2.54,2.54,0,0,1,1.82,0c.76.43.61,1.5.8,2.21.14.53.49,1.07.94,1.13a9,9,0,0,0-.77-3.61c-.81-1.75-3.76-2.33-6.27-1.39s-2.65,4.3-2.65,4.3h-.07C49.32,35.89,49.31,30.9,51.21,31.26Z"/><path class="cls-7" d="M50.69,42.69s-1.11.09-2.3.09c0,1,.2,2,.32,2.92a11.5,11.5,0,0,0,1.06,3.72c.39.83.82,1.65,1.27,2.45a3.78,3.78,0,0,0,1.88,2c1.51.47,2.36-1.13,2.76-2.33a30.35,30.35,0,0,0,.92-4.63c.26-1.37.57-2.73.89-4.1a2.51,2.51,0,0,1-.44.48c-.33.17-1.62-.39-1.62-.39l.14-1.36a4.13,4.13,0,0,1-2.39.74,3.83,3.83,0,0,1-2.82-1,2.09,2.09,0,0,0,.28.24Z"/><path class="cls-6" d="M66.61,17.67c-1.74-1.13-2.2-.44-2.25-.29-.45.81,2,2.1,1.52,3-1.21-.87-1.88-1.13-1.61-.23A25.49,25.49,0,0,1,66,22.8c-.1.2-2.12,12.46-2.12,12.46s-1.74,2.08-2.65,2.92C60.59,38.77,59,41,58,42.3c-.51,2.25-1,4.46-1.38,6.73a10,10,0,0,1-1.3,4.1,2,2,0,0,1-3,.65,5.56,5.56,0,0,1-1.49-1.91c-.52-1-1.06-1.95-1.49-3a11.6,11.6,0,0,1-.78-3c-.12-1-.3-2-.33-3a7.1,7.1,0,0,1-2.35-.13c-.14-.34-5.27-6-5.41-6.86a87.21,87.21,0,0,1,2.18-11.25c.2.07,3.38-1.24,3.38-2.33s-.71-.16-2.14.41c-.42.16-1.1.36-1.48.11-.15-.1.69-.91.47-1-1.16-.38-2.42,1.5-2.42,1.5S36.62,33.88,36.62,36c0,1,1.75,4,1.75,4A34.9,34.9,0,0,0,42,45.42c1.61,1.75,4.71,4.76,4.77,5A23.22,23.22,0,0,0,52.34,61c2,1.85,7.92,1.45,9,1.25s1.12-1,.67-1.44A9.82,9.82,0,0,1,60.7,56.1c0-1.77-.1-4.1-.1-4.1a1.18,1.18,0,0,1-.13-1.12c.26-.57.63-5.41,1-5.68s6.2-8.7,6.45-10.18.57-11.48.57-11.48-.1-2.59,0-3.08C68.72,19.28,68.36,18.78,66.61,17.67Z"/><path class="cls-8" d="M52.34,61c0,.29-.46,2.78-.42,2.6s.84-1.52.89-1.3,0,2,.15,1.74.51-1.73.7-1.51.32,2.25.56,2,.93-2.36.93-2a16.69,16.69,0,0,0,.45,2l.78-1.76L56.71,65s.62-2.33.81-2a15.87,15.87,0,0,1,.85,2c0,.14.28-2.15.41-2s1.28,1.9,1.13,1.45a3.93,3.93,0,0,1,0-1.45s1,.51,1,.38a8.82,8.82,0,0,1,.38-1.13l.93-1S64,59.89,64,60s-1.69.28-1.69.28l1.24-1.16H61.59a7.6,7.6,0,0,0,1.7-1c-.18.05-1.93.36-1.93.36S63.47,57,63.2,57s-2.49-.36-2.49-.36,2.44-.93,2.22-1a9.43,9.43,0,0,0-1.84,0s2-1.58,1.69-1.56S61,54,61,54s1.75-1.44,1.52-1.44H60.6a9.05,9.05,0,0,0,1-.89l-1,.4a23.25,23.25,0,0,0-.71,2.47c0,.31,1.13,6.27,1,6.31s-.57,1.3-1,1.21S52.34,61,52.34,61Z"/><path class="cls-9" d="M61.47,45.23c.37-.27,6.2-8.69,6.45-10.18s.57-10.92.57-11.46l-.16.07a3,3,0,0,1-2.46-.33c-.44,2.38-2,11.93-2,11.93s-1.74,2.08-2.65,2.92-3.8,4.94-4.14,5.11A2.66,2.66,0,0,1,55.75,43a51.58,51.58,0,0,0-1.86,10.08c0,.1-.15.19-.22.1-1.22-1.45-1.62-3.23-2.26-5s-1.58-3.55-1.6-5.48c-1.27.07-3.94.19-4-.07s-5.26-6-5.4-6.86a96.41,96.41,0,0,1,1.8-10,2.78,2.78,0,0,1-2.34-1.13c-1,2.92-3.22,9.68-3.22,11.34,0,1,1.75,4,1.75,4A34.9,34.9,0,0,0,42,45.42c1.61,1.75,4.71,4.76,4.77,5A23.22,23.22,0,0,0,52.34,61c2,1.85,7.92,1.45,9,1.25s1.12-1,.67-1.44A9.82,9.82,0,0,1,60.7,56.1c0-1.77-.1-4.1-.1-4.1a1.18,1.18,0,0,1-.13-1.12C60.73,50.37,61.1,45.5,61.47,45.23Z"/><path class="cls-3" d="M60.7,56.11c0-1.78-.1-4.09-.1-4.09a1.2,1.2,0,0,1-.13-1.13,9,9,0,0,0,.27-1.45c-.39.56-.72,1.22-1.06,1.8A5.85,5.85,0,0,1,58.31,53a3.87,3.87,0,0,1-2.41.62,9.08,9.08,0,0,0-1.88.08c-.54.1-1.06.27-1.59.37a3.71,3.71,0,0,1-2.89-.42,8.42,8.42,0,0,1-1.57-2,9.8,9.8,0,0,0-1.8-1.84,3.69,3.69,0,0,1,.56.68A23.22,23.22,0,0,0,52.34,61c2,1.85,7.92,1.45,9,1.25s1.12-1,.67-1.44A9.73,9.73,0,0,1,60.7,56.11Z"/><path class="cls-8" d="M52.8,54a8.22,8.22,0,0,0,.8,1.13,2.3,2.3,0,0,0,.46.42c.31.16.16,0,.26-.35.23-.8,1.89-10.92,2.39-11.88a5.29,5.29,0,0,1-1-.28c-1.22,3-2,10.27-2.08,10.15s-3.6-8.62-3.85-10.44c-.41,0-1,.06-1.52.07C48.52,44.81,52.34,53.14,52.8,54Z"/><path class="cls-10" d="M58.92,10.53a3,3,0,0,1,.11-.32,4,4,0,0,1,.21-.38,3.4,3.4,0,0,1,.38-.47,3.81,3.81,0,0,1,1.47-.85A4.64,4.64,0,0,1,63.4,8.4l.18,0,.14,0,.15,0,.17.05c.22.07.44.16.65.25A10.52,10.52,0,0,1,66,9.51a23.17,23.17,0,0,1,2.47,1.94,18.21,18.21,0,0,0,2.62,2c.25.14.49.26.75.38l.19.08.2.08.38.11a2.91,2.91,0,0,0,1.52,0l.17-.05h.09l.11,0h.09l.07,0,.06,0,.08-.05a3,3,0,0,0,.56-.56,7.31,7.31,0,0,0,.93-1.63c.14-.32.27-.64.4-1s.28-.7.43-1.05c.3-.7.62-1.39,1-2.1.16-.35.34-.7.53-1s.37-.71.59-1.08A6.33,6.33,0,0,1,81,3.41a3.7,3.7,0,0,1,1.51-.57h.84a3.7,3.7,0,0,1,.8.18,4.86,4.86,0,0,1,1.37.72c.19.15.38.32.56.49s.17.17.25.27l.07.07,0,0,.06.07.1.13.18.25a1.35,1.35,0,0,1,.2.27c.14.21.28.43.4.65l.31.65c.09.22.18.44.25.66A10.87,10.87,0,0,1,88.5,10a23.37,23.37,0,0,1-.39,5.41c-.29,1.69-.56,3.47-.83,5.22s-.57,3.5-.83,5.26a10.42,10.42,0,0,0-.14,2.43.63.63,0,0,0,0,.27c0,.1,0,.1,0,.14v.1h0l.09.32v.13l0,.11a4,4,0,0,0,.52.93,5.45,5.45,0,0,0,.86.73,6.43,6.43,0,0,0,.94.63,6.92,6.92,0,0,0,1.06.43c.19,0,.37.09.57.12h.27l.32,0a7.11,7.11,0,0,0,1.13,0,7.5,7.5,0,0,0,1.15-.21,9.28,9.28,0,0,0,2.23-.86,10.72,10.72,0,0,0,1-.61l.26-.18.24-.17.49-.37c.65-.51,1.28-1.05,1.93-1.59a25.62,25.62,0,0,1,2-1.55c.18-.11.36-.23.56-.33l.14-.09.14-.08.32-.16a3.16,3.16,0,0,1,1.51-.32,2,2,0,0,1,1.51.86,2.91,2.91,0,0,1,.45,1.46q0,.34,0,.69a.65.65,0,0,1-.06.33v.17l0,.14c0,.18-.1.41-.16.6a4.76,4.76,0,0,1-.19.57c-.56,1.51-1.31,2.82-1.87,4.09a8.63,8.63,0,0,0-.9,3.8,4.63,4.63,0,0,0,.12.91,2.25,2.25,0,0,0,.13.42l0,.09,0,.11.09.22.2.37.24.36c.09.12.17.23.27.34s.19.21.29.31a9.48,9.48,0,0,0,2.78,1.82,18,18,0,0,0,5.33,1.5,11.7,11.7,0,0,0,2,0,7.58,7.58,0,0,0,1.5-.25,7.45,7.45,0,0,0,.91-.3l.3-.12-.3.14a6.77,6.77,0,0,1-.88.36,10,10,0,0,1-3.61.45A18.78,18.78,0,0,1,106.92,44a10.19,10.19,0,0,1-3.12-1.74,5.68,5.68,0,0,1-1.25-1.59,5.3,5.3,0,0,1-.56-2,9.56,9.56,0,0,1,.82-4.28c.56-1.38,1.26-2.68,1.69-4.07l.15-.52c0-.18.08-.33.12-.53l0-.14v0h0V29a1,1,0,0,0,0-.25,4,4,0,0,0,0-.49,1.52,1.52,0,0,0-.24-.77.62.62,0,0,0-.51-.26,1.8,1.8,0,0,0-.82.23l-.14.13-.13.07-.11.07-.49.32a22.34,22.34,0,0,0-1.88,1.49,25.18,25.18,0,0,1-4.16,3.18,9.87,9.87,0,0,1-5.46,1.36l-.34,0h-.37c-.25,0-.49-.1-.74-.16a7.72,7.72,0,0,1-1.4-.56,7,7,0,0,1-2.34-1.91l-.23-.32-.21-.33a3.84,3.84,0,0,1-.18-.35L85,30.23,84.88,30l-.08-.2,0-.1v-.08l-.09-.32v-.23a.36.36,0,0,0,0-.2,1.59,1.59,0,0,1-.06-.38,12.17,12.17,0,0,1,.11-2.89l.8-5.29c.26-1.76.51-3.5.79-5.24a23,23,0,0,0,.36-5,9.59,9.59,0,0,0-.41-2.25L86,7.35l-.23-.5-.26-.42a1,1,0,0,0-.17-.24l-.19-.25-.09-.13h0l0,0-.18-.19c-.12-.11-.24-.22-.37-.32a2.65,2.65,0,0,0-.81-.44,1.67,1.67,0,0,0-1.5.19,4.75,4.75,0,0,0-1.3,1.45c-.19.3-.38.63-.56,1s-.36.67-.53,1c-.35.67-.66,1.33-1,2-.15.33-.3.66-.44,1s-.28.69-.44,1a8.28,8.28,0,0,1-1.23,2,4,4,0,0,1-.94.84l-.13.09-.16.09-.16.08-.08,0h-.06l-.28.11-.31.09a4.57,4.57,0,0,1-2.35-.11,5.52,5.52,0,0,1-.53-.18l-.23-.09-.24-.12a6.9,6.9,0,0,1-.89-.48,19.55,19.55,0,0,1-2.79-2.26,20.19,20.19,0,0,0-2.25-1.88A8.05,8.05,0,0,0,64.18,10a4.77,4.77,0,0,0-.52-.22l-.13,0-.14,0-.14,0h-.1a5.77,5.77,0,0,0-1.85-.15A4.82,4.82,0,0,0,60,9.86a4,4,0,0,0-.46.24,3.62,3.62,0,0,0-.32.22Z"/></g></g></svg>