<svg id="Layer_1" data-name="Layer 1" xmlns="http://www.w3.org/2000/svg" viewBox="0 0 128 128"><defs><style>.cls-1{fill:#afdd3d;}.cls-2{fill:#9e9c9c;}.cls-3{fill:#7f87a0;}.cls-4{fill:#e1f1ff;}.cls-5{fill:#f7db0f;}.cls-6{fill:#f49211;}.cls-7{fill:#ffb287;}.cls-8{fill:#f27f61;}.cls-9{fill:none;}.cls-10{fill:#fff;}.cls-11{fill:#e8655a;}.cls-12{fill:#e0e0e2;}.cls-13{fill:#777c84;}.cls-14{fill:#444449;}.cls-15{fill:#7f2a24;}.cls-16{fill:#681d1b;}.cls-17{fill:#a03224;}.cls-18{fill:#c95600;}.cls-19{fill:#f58d6c;}.cls-20{fill:#852914;}.cls-21{fill:#661406;}.cls-22{fill:#6b1c0f;}.cls-23{fill:#ff3636;}.cls-24{fill:#ff8a15;}.cls-25{fill:#cc2b2b;}.cls-26{opacity:0.64;}.cls-27{fill:#ed8366;}.cls-28{fill:#c41616;}.cls-29{fill:#9e1d1d;}.cls-30{fill:#66a01c;}.cls-31{fill:#851b05;}.cls-32{fill:#c11f68;}.cls-33{fill:#e64186;}.cls-34{fill:#841c04;}.cls-35{opacity:0.4;}.cls-36{fill:#f08a6a;}.cls-37{fill:#9b2815;}.cls-38{fill:#b73d2c;}.cls-39{fill:#651503;}.cls-40{fill:#ffa71d;}.cls-41{fill:#c68024;}.cls-42{fill:#fceba4;}.cls-43{fill:#fc8;}.cls-44{fill:#3c4651;}.cls-45{fill:#ed7220;}.cls-46{fill:#8f2136;}</style></defs><g id="Layer_2" data-name="Layer 2"><g id="Layer_1-2" data-name="Layer 1-2"><path class="cls-1" d="M24.77,17.57V15.21A11.68,11.68,0,0,1,28,8.1a19.35,19.35,0,0,1,6.42-4.38,39.08,39.08,0,0,1,6.91-2.27c1.42-.35,2.8-.69,4.19-.94A52.92,52.92,0,0,1,52.4.05,2,2,0,0,0,53,0h6.29l.25,0c1,0,2,.06,3,.1,1.67.06,3.34.18,5,.32,2.09.18,4.17.4,6.25.76a46.81,46.81,0,0,1,9.89,2.4c1.23.49,2.53.75,3.79,1.16a121.75,121.75,0,0,1,16.25,5.9,57,57,0,0,1,8.86,5,.72.72,0,0,1,.25.21,3.28,3.28,0,0,0,1.1.93c.91.56,1.84,1.09,2.74,1.66a21.49,21.49,0,0,1,5.1,4.21,12.35,12.35,0,0,1,2.85,5.75c.09.47.14.94.21,1.41v2.07l-.11.92a22.11,22.11,0,0,1-2.06,6.5,46.82,46.82,0,0,1-5.8,8.93c-.5.64-1.06,1.23-1.51,1.88S114.47,51.36,114,52a160.94,160.94,0,0,1-10.94,12.41c-1.63,1.68-3.29,3.34-5,5s-3.49,3.26-5.37,4.9a114.87,114.87,0,0,1-9.37,7.36,70.86,70.86,0,0,1-10.21,6,5.63,5.63,0,0,0-.68.38c-.87.57-1.75,1.13-2.66,1.63a25.3,25.3,0,0,1-8.83,3.14c-.5.07-1,.12-1.52.18H57.15l-.22,0a17.21,17.21,0,0,1-6.28-1.7,23.24,23.24,0,0,1-7.52-6.06,42.18,42.18,0,0,1-5.14-8A78.63,78.63,0,0,1,33.4,66a36.05,36.05,0,0,0-1.19-3.45A83.36,83.36,0,0,1,27.73,49a92.86,92.86,0,0,1-2.38-13.87c-.22-2.39-.34-4.78-.38-7.18,0-2,.07-4,.19-6a6.79,6.79,0,0,0,0-1.8,4.22,4.22,0,0,1-.1-.62C24.93,18.86,24.85,18.21,24.77,17.57Z"/><path class="cls-2" d="M38.18,125.41H33.56l-1,2.46H30.1l4.7-11H37l4.69,11H39.18Zm-3.78-2.12h2.91l-1.46-3.55Z"/><path class="cls-2" d="M46.94,127.87H44.53v-8.73H41.2v-2.22h9.08v2.22H47Z"/><path class="cls-2" d="M59,123.48H54.52v4.39H52.11v-11h2.41v4.33H59v-4.33h2.42v11H59Z"/><path class="cls-2" d="M64,116.92h2.41v8.76h5.45v2.19H64Z"/><path class="cls-2" d="M73.68,116.92h8.25v2.14H76.07v2.22h5.16v2.14H76.07v2.27H82v2.18H73.69Z"/><path class="cls-2" d="M89.11,127.87H86.7v-8.73H83.39v-2.22h9.08v2.22H89.14Z"/><path class="cls-2" d="M94.4,116.92h2.4v11H94.4Z"/><path class="cls-2" d="M107.21,127.56a5.89,5.89,0,0,1-2.55.49,5.64,5.64,0,0,1-2.86-.75,5.42,5.42,0,0,1-2-2,5.64,5.64,0,0,1-.76-2.83h0a5.71,5.71,0,0,1,.76-2.85,5.43,5.43,0,0,1,2-2.06,5.74,5.74,0,0,1,3-.75,6.16,6.16,0,0,1,2.47.43,5.77,5.77,0,0,1,1.84,1.25l-1.51,1.77a5.6,5.6,0,0,0-1.34-.92,3.48,3.48,0,0,0-1.45-.32,3.15,3.15,0,0,0-1.64.46,3.24,3.24,0,0,0-1.13,1.25,3.48,3.48,0,0,0-.41,1.71h0a3.55,3.55,0,0,0,.41,1.72,3.17,3.17,0,0,0,1.12,1.26,3.12,3.12,0,0,0,1.65.46,3.42,3.42,0,0,0,1.51-.32,5.71,5.71,0,0,0,1.36-1l1.51,1.52A6.48,6.48,0,0,1,107.21,127.56Z"/><path class="cls-2" d="M117.88,127.11A4.43,4.43,0,0,1,115,128a7.5,7.5,0,0,1-2.48-.45,6.88,6.88,0,0,1-2.17-1.31l1.42-1.7a6.49,6.49,0,0,0,1.59,1,4.21,4.21,0,0,0,1.68.35,2.12,2.12,0,0,0,1.16-.27.85.85,0,0,0,.42-.76h0a.79.79,0,0,0-.17-.54,1.66,1.66,0,0,0-.65-.42,11,11,0,0,0-1.38-.43,12.85,12.85,0,0,1-2-.68,2.79,2.79,0,0,1-1.19-1,2.92,2.92,0,0,1-.43-1.68h0a3.07,3.07,0,0,1,.49-1.72,3.22,3.22,0,0,1,1.37-1.16,4.45,4.45,0,0,1,2-.42,6.33,6.33,0,0,1,4.07,1.4L117.4,120a5,5,0,0,0-2.84-1.08,1.73,1.73,0,0,0-1,.27.82.82,0,0,0-.37.68h0a.83.83,0,0,0,.2.59,1.66,1.66,0,0,0,.68.42c.5.17,1,.31,1.51.43a6.63,6.63,0,0,1,2.63,1.2,2.62,2.62,0,0,1,.85,2.09h0A3,3,0,0,1,117.88,127.11Z"/><path class="cls-3" d="M112.08,93.82H69.15a.76.76,0,1,1,0-1.51h42.93a.76.76,0,0,1,0,1.51Z"/><path class="cls-3" d="M48.07,93.82H10.15a.76.76,0,1,1,0-1.51H48.07a.76.76,0,1,1,0,1.51Z"/><path class="cls-4" d="M101.76,54.69H72.5a.2.2,0,0,1-.19-.19.19.19,0,0,1,.19-.19h29.26a.19.19,0,0,1,0,.38Z"/><path class="cls-4" d="M96.49,60.89H72.79a.19.19,0,1,1,0-.37H96.52a.18.18,0,0,1,.19.18.18.18,0,0,1-.19.19Z"/><path class="cls-4" d="M101.76,58.47H77.16a.19.19,0,0,1-.19-.19.18.18,0,0,1,.19-.19h24.6a.19.19,0,0,1,.19.19A.2.2,0,0,1,101.76,58.47Z"/><path class="cls-5" d="M121.47,48.94c-1.88,4.3-4,6.9-6.56,7.9a6.67,6.67,0,0,1-.72.23,7.08,7.08,0,0,1-.8.16c-4.4.62-8-3.3-11.13-7A2.28,2.28,0,0,1,102.5,47a2.45,2.45,0,0,1,.66-.39l.28-.1a2.32,2.32,0,0,1,2.37.76,36.68,36.68,0,0,0,2.76,3.09,14.25,14.25,0,0,0,1.37,1.19,4.08,4.08,0,0,0,2.81,1.13c1.42-.2,3-2.17,4.5-5.57a2.3,2.3,0,0,1,4.22,1.84Z"/><path class="cls-6" d="M114.91,56.84a6.67,6.67,0,0,1-.72.23,7.08,7.08,0,0,1-.8.16c-4.4.62-8-3.3-11.13-7a2.27,2.27,0,0,1-.49-1.92l1.39-1.68.28-.1a2.44,2.44,0,0,1,2.37.76c.37.46.85,1,1.39,1.64A8.71,8.71,0,0,1,109,52.23a7.62,7.62,0,0,0,1.83,3.25A4,4,0,0,0,114.91,56.84Z"/><path class="cls-7" d="M117.37,48.16a1.55,1.55,0,0,1-.25-.59,6.19,6.19,0,0,1,.1-2.74l.33-1.31c2.12-1.59,5.83.1,6.23,1.72a.84.84,0,0,1-.16.7l-2.71,3.79Z"/><path class="cls-7" d="M117.65,48.11H118a1,1,0,0,0,1.08-1.18,4.75,4.75,0,0,0-.71-1.65l-.15-1.14c0-.38,1.21-1.08.93-2-.12-.41-.63-.55-.94.16l-1.28,1.2a1,1,0,0,0-.22,1l.51,3A.68.68,0,0,0,117.65,48.11Z"/><path class="cls-8" d="M118.23,45.05a3.31,3.31,0,0,0,1.23,1.44,3.47,3.47,0,0,0,2.14.6,2.4,2.4,0,0,0,2.21-1.65h-.69L119,42.8l-.65.8A1.56,1.56,0,0,0,118.23,45.05Z"/><line class="cls-9" x1="121.38" y1="43.48" x2="120.05" y2="45.31"/><line class="cls-9" x1="122.6" y1="44.05" x2="121.08" y2="45.84"/><line class="cls-9" x1="123.55" y1="44.74" x2="122.45" y2="45.88"/><path class="cls-7" d="M119.08,48.14a3.67,3.67,0,0,1-3-5.84l1.31-1.82a3.67,3.67,0,0,1,5.92,4.34L122,46.64A3.62,3.62,0,0,1,119.08,48.14Z"/><polygon class="cls-10" points="121.14 49.86 116.78 48.09 117.07 47.21 121.49 49.01 121.14 49.86"/><path class="cls-4" d="M101.76,44.79H75.36a.19.19,0,0,1-.19-.19.18.18,0,0,1,.19-.19h26.4a.19.19,0,0,1,.19.19A.2.2,0,0,1,101.76,44.79Z"/><path class="cls-4" d="M99.81,88.05c-3.79,0-9.31,0-12.33,0a.19.19,0,1,1,0-.37h0c4.37,0,15.8.07,16.21,0a.17.17,0,0,1,.22.12h0a.2.2,0,0,1-.13.24C103.69,88,102.07,88.05,99.81,88.05Z"/><path class="cls-4" d="M76.21,68.76H70.48a.19.19,0,0,1-.19-.19.18.18,0,0,1,.19-.19H76.3a.17.17,0,0,1,.13.22A.21.21,0,0,1,76.21,68.76Z"/><path class="cls-4" d="M103.72,84.59H85.05a.19.19,0,0,1-.19-.19.2.2,0,0,1,.19-.19h18.74a.21.21,0,0,1,.15.23A.19.19,0,0,1,103.72,84.59Z"/><path class="cls-4" d="M101.76,41.61H80.93a.18.18,0,0,1-.19-.18.18.18,0,0,1,.19-.19c6.22,0,20.72,0,20.9,0a.18.18,0,0,1,.12.23.19.19,0,0,1-.17.14Z"/><path class="cls-4" d="M102.15,23.55H92.59a.18.18,0,0,1-.19-.19.18.18,0,0,1,.19-.18h9.56a.18.18,0,0,1,.19.18A.18.18,0,0,1,102.15,23.55Z"/><path class="cls-4" d="M102.15,26.48H89.33a.19.19,0,0,1-.19-.19.2.2,0,0,1,.19-.19h12.82a.19.19,0,0,1,.19.19A.18.18,0,0,1,102.15,26.48Z"/><path class="cls-4" d="M86.72,26.48H84.05a.19.19,0,0,1-.19-.19.2.2,0,0,1,.19-.19h2.67a.19.19,0,0,1,.18.19A.18.18,0,0,1,86.72,26.48Z"/><path class="cls-4" d="M99.8,35.78H88.68a.19.19,0,0,1-.19-.19.2.2,0,0,1,.19-.19H99.84a.19.19,0,0,1,.18.19.18.18,0,0,1-.18.19Z"/><path class="cls-11" d="M113.65,40.86a2.36,2.36,0,0,1-1.94-1.65,1.77,1.77,0,0,1,1.94,1.59Z"/><path class="cls-12" d="M78.55,67.73c.29-.17,1.57,1.52,1.57,1.52L78,73.13l-2-.49V68Z"/><path class="cls-12" d="M101.88,86.32c0,.13.54,2.93.54,2.93l4.88-1.15-.93-3.58Z"/><path class="cls-13" d="M78.38,67.11h0a2.29,2.29,0,0,1,.45.43h0A.77.77,0,0,1,79,68a.29.29,0,0,1-.2.27h-.07a2.43,2.43,0,0,0-1.63,3c0,.1.07.2.11.3h0a1.62,1.62,0,0,1-.24,1.6,5.66,5.66,0,0,1-.75.44,2.7,2.7,0,0,1-.53.22,3.21,3.21,0,0,0-1.9,1.83c-1,2.8-1.94,2.7-3.38,2h0l4.81-11.35C75.75,65.62,77.33,66.23,78.38,67.11Z"/><path class="cls-14" d="M70.61,77.74l.21-.51h0l4.54-10.88c.06-.15.16-.42,0-.49l-.61-.24c-.14-.07-.35-.16-.42,0l-4,9.67h0l-.85,2a.15.15,0,0,0,.07.19l.87.36a.15.15,0,0,0,.19-.08Z"/><path class="cls-15" d="M93.56,71.47c-.09,2.9-.87,6-3.58,7.33a5.86,5.86,0,0,1-2.63.6c-3.5,0-7.5-2.68-10.51-5.86-.2-.21,2.76-5.21,2.76-5.21a23,23,0,0,0,6.31,5,3,3,0,0,0,1.51.42,4.91,4.91,0,0,0,.49-2.7,24.13,24.13,0,0,0-.42-4.32L90,66.32l3.1-.52c.07.4.16.92.24,1.51A24.17,24.17,0,0,1,93.56,71.47Z"/><path class="cls-16" d="M93.56,71.47a18.14,18.14,0,0,1-5.64-.41,25.1,25.1,0,0,0-.43-4.32L90,66.32l3.35,1A24.84,24.84,0,0,1,93.56,71.47Z"/><path class="cls-17" d="M102,70.44,98.76,75.6c-2.75-4.27-6.12-4-10.53-7.4a5.54,5.54,0,0,1-2.17-4.12v-.15a.89.89,0,0,1,0-.23,3,3,0,0,1,.28-1.36c.82-1.7,3.46-1.56,8.22.76l2.85,2.8.34.34.59.59Z"/><path class="cls-17" d="M101.8,87.61C101.15,80,99.53,72.48,90.45,68l2.49-5.06A23.64,23.64,0,0,1,104.5,74.48a30.13,30.13,0,0,1,2.83,11.84C107.31,86.54,101.83,87.88,101.8,87.61Z"/><path class="cls-13" d="M101.7,88.77h0a2.51,2.51,0,0,1,.1-.61h0a.82.82,0,0,1,.24-.41.3.3,0,0,1,.34,0l.07,0a2.43,2.43,0,0,0,3.39-.4,3,3,0,0,0,.19-.3h0a1.66,1.66,0,0,1,1.44-.75,4.31,4.31,0,0,1,.79.35,2.29,2.29,0,0,1,.5.3,3.28,3.28,0,0,0,2.53.52c2.85-.84,3.32,0,3.58,1.6h0l-12,2.69C102,91.78,101.59,90.12,101.7,88.77Z"/><path class="cls-14" d="M114.88,88.9l-.54.12h0l-11.5,2.64c-.17,0-.45.1-.42.26l.15.64c0,.15.09.37.25.33l10.23-2.34h0l2.1-.46a.14.14,0,0,0,.11-.17h0l-.2-.91A.14.14,0,0,0,114.88,88.9Z"/><path class="cls-16" d="M98.34,66.81c-2.91-.3-9.07-.76-12.28-2.73l.28-1.74c1-1.51,3.7-1.44,8.22.76l2.85,2.8c0,.09.11.21.34.34Z"/><path class="cls-5" d="M99.28,65.93a1,1,0,0,1-1.15.65,25.7,25.7,0,0,1-9.32-2.93c-2-1.08-3.24-2.19-3-2.75.53-1.18,2.68-2.75,7-8.9,4.19-6.19,6.33-11.44,9.79-9.19l.4.27,1.61,1.05a3,3,0,0,0,.54,1.11.41.41,0,0,0,.11.07,3.09,3.09,0,0,1,1.24,1.8h0a9.11,9.11,0,0,1,.41,2C107.6,55.23,103.23,58.32,99.28,65.93Z"/><path class="cls-6" d="M95.26,55.17c-1.65,2.41-2.68,3.57-6.43,8.48-2-1.08-3.25-2.19-3-2.75.52-1.18,2.68-2.75,7-8.9,4.2-6.19,6.34-11.44,9.8-9.19.1.07,1.74,2.21,1.89,2.31-1.58-.76-3.12-.36-3.78.9A72.42,72.42,0,0,1,95.26,55.17Z"/><path class="cls-10" d="M102.37,42.05a1,1,0,0,0-1.4.25s1.56,4.27,5.39,4.29a8.73,8.73,0,0,0-1.46-3A8.37,8.37,0,0,0,102.37,42.05Z"/><path class="cls-18" d="M89.86,32.38c.09.65,2.51.76,5.38.35,5.47-.82,5.12-1.34,5-2s-2.52-.8-5.39-.34a43.23,43.23,0,0,0-5.14,1.37S89.82,32.16,89.86,32.38Z"/><path class="cls-19" d="M112.6,42.3c-.17.1-.17-.19-.1,0,.44,1.18-2.16,1.25-3.34,1.27-5.25.12-8.62-4.14-9.12-8.8-.59-5.53,2.81-10.41,7.6-10.93a7.57,7.57,0,0,1,3,.29,8.13,8.13,0,0,1,1.88.84,9.32,9.32,0,0,1,2.61,2.27,0,0,0,0,1,0,0c-1.21,0-.58.13-.56.34s-1.39,1.16-.76.87c1-.47,1.15,3.11,1.23,4.54v.08L115,34.46l-.42,0-1.15,2.36.38,1-2.74.45c-.11.68.51,1.45,1,2,.11.1,1,.18,1.16.28s0,.31.28.38C113.05,42,113.27,41.79,112.6,42.3Z"/><path class="cls-7" d="M115.16,34.09l.1.89c-.25,2-.31,2.79-.52,3.78a3.25,3.25,0,0,0-2.75.76s.15.6,1.77,1a.24.24,0,0,1,.17.28l0,0c-.61,1.23-1.24,2.37-2.63,2.43-1.72.06-4.69-1.73-5.61-3a7.13,7.13,0,0,1-1.23-5.89c.06-.36.65-.66.65-1-.15-5.26,6.91-6.77,7.41-6.61,0,.29,1.76-1.61,2.48,1.57A16.41,16.41,0,0,1,115.16,34.09Z"/><path class="cls-20" d="M113.12,27.88a5.87,5.87,0,0,0-4.32,1.41c-2,.6-.2,2.66-1.67,4-.33.3-.46.44-.83.21l-1.52-1.36-.15,4c-.06.41-.12.8-.18,1.18a.31.31,0,0,1,0,.19c0,.07,0,.06,0,.09v.11A5.07,5.07,0,0,1,102.65,41a7.26,7.26,0,0,1-3.38-2.61,9.1,9.1,0,0,1-1.52-7.57,10.78,10.78,0,0,1,.44-1.36c.75-1.82,1.73-2,1.41-2.64.42-3,6.11-6.3,11.52-3.53a10.24,10.24,0,0,1,3.14,1.85c1,.2,1.09-1.61,1-2.23C118.34,25.31,115.27,28.37,113.12,27.88Z"/><path class="cls-21" d="M99.21,38.35a9.1,9.1,0,0,1-1.52-7.57l3.79,1.09C99.76,32.69,98.34,35.61,99.21,38.35Z"/><path class="cls-19" d="M102.55,41l.76-.46,3.74,2.18c-.19,0-.4.12-.51.3l-1.36,2.27c-.4.42-3-1.8-3-2.69Z"/><path class="cls-7" d="M115,33.13c-.17,2.45.76,1.31,1.29,2.18a1.5,1.5,0,0,1-.53,2.07,1.52,1.52,0,0,1-1.36.1L113,36.72Z"/><path class="cls-22" d="M104.37,37.22h.06v.2Z"/><path class="cls-7" d="M106.19,33.72c-1.62-2.77-3.89-1.94-4-.07a3.22,3.22,0,0,0,3.1,3.33h.24Z"/><path class="cls-19" d="M105.5,34.28c-1.06-1.94-2.45-1.68-2.49-.39a2.33,2.33,0,0,0,2.17,2.38C105.8,36.27,106.16,35.48,105.5,34.28Z"/><path class="cls-7" d="M106.09,35.36a.72.72,0,0,1-1.34.53.71.71,0,0,1,.4-.93h0A.77.77,0,0,1,106.09,35.36Z"/><path class="cls-23" d="M113.15,28.75a58.81,58.81,0,0,1-11.67,3.13,34.18,34.18,0,0,1-4,.44c-.46-6.06,3-9.43,7-10.29a11,11,0,0,1,1.81-.21h0a10.14,10.14,0,0,1,7.86,3.29C113.34,25.34,113,26.57,113.15,28.75Z"/><polygon class="cls-10" points="113.12 27.88 115.22 27.48 115.22 28.34 113.15 28.75 113.12 27.88"/><path class="cls-24" d="M89.71,31.73c.1.65,2.52.84,5.39.35,8.09-1.38,5.11-1.35,5-2s3.31-1.83-5.39-.35C91.86,30.22,89.61,31.08,89.71,31.73Z"/><path class="cls-25" d="M101.48,31.88a28.85,28.85,0,0,1-4,.44c-.46-6.06,3-9.43,7-10.29a11,11,0,0,1,1.81-.21h0C102.91,23.64,100.94,26.69,101.48,31.88Z"/><path class="cls-18" d="M104.1,22.15c0,.1.38.09.75,0s.7-.17.68-.26-.32-.13-.75-.07S104.09,22.06,104.1,22.15Z"/><polygon class="cls-18" points="104.03 21.89 104.1 22.17 104.46 21.97 104.03 21.89"/><polygon class="cls-18" points="105.52 21.66 105.56 21.91 105.31 22.02 105.28 21.82 105.52 21.66"/><path class="cls-24" d="M104,21.89c0,.09.36.11.76.05s.76-.19.71-.29-.35-.11-.75,0S104,21.8,104,21.89Z"/><path class="cls-16" d="M87.43,73.76c-.54,1.34-1.27,1.59-1.27,1.59s-.14-1-.25-2A2.9,2.9,0,0,0,87.43,73.76Z"/><path class="cls-5" d="M83.16,49.76a2.42,2.42,0,0,1,.23-.58c3-6.36,3.48-7.32,6.26-8.56s7.57,0,12.3,3.73c1,.75.87,1.43.09,2.43s-3.52,4.1-3,2.74c.26-.68-1.1-1.66-1.51-2-2.2-1.75-4.32-2.93-5.85-2.53-.55.15-1.16-.25-4.15,6.11a2.29,2.29,0,0,1-4.36-1.38h0Z"/><path class="cls-7" d="M86.81,51a1.08,1.08,0,0,1,.26.51,8.12,8.12,0,0,1,.37,3l-.41.71c-1.79,1.61-5.29.4-5.77-1a.78.78,0,0,1,.08-.65l2.14-3.61Z"/><path class="cls-7" d="M86.24,51h-.3c-1,.13-1,.81-.87,1.16a4.21,4.21,0,0,0,.75,1.42l.27,1c0,.36-1.08,1.45-.4,2.06.15.13.41.17.75-.34L87.28,55a2.11,2.11,0,0,0,.18-1.4l-.75-2.15A.66.66,0,0,0,86.24,51Z"/><path class="cls-7" d="M83.57,58.85a3.33,3.33,0,0,1-3.32-3.35,3.24,3.24,0,0,1,.47-1.69l1-1.75a3.33,3.33,0,0,1,5.71,3.42l-1.07,1.75A3.32,3.32,0,0,1,83.57,58.85Z"/><path class="cls-7" d="M82.43,57.77a2.66,2.66,0,0,1-2.18-4.19l1.22-1.74a2.67,2.67,0,0,1,4.63,2.65,3.28,3.28,0,0,1-.27.38L84.61,56.6A2.65,2.65,0,0,1,82.43,57.77Z"/><path class="cls-7" d="M81.53,57.1a2.51,2.51,0,0,1-1.31-.34,2.67,2.67,0,0,1-1-3.63L80,51.74a2.66,2.66,0,0,1,4.63,2.62l-.75,1.4A2.67,2.67,0,0,1,81.53,57.1Z"/><path class="cls-7" d="M84.51,59.52a3.33,3.33,0,0,1-2.84-5l1-1.76a3.33,3.33,0,0,1,5.71,3.42l-1.06,1.75A3.34,3.34,0,0,1,84.51,59.52Z"/><line class="cls-9" x1="87.49" y1="51.38" x2="83.11" y2="49.76"/><rect class="cls-10" x="83.27" y="48.23" width="4.06" height="4.68" transform="matrix(0.35, -0.94, 0.94, 0.35, 8.23, 112.97)"/><polygon class="cls-8" points="87.15 51.75 83.2 50.29 82.91 50.88 87.15 51.75"/><path class="cls-7" d="M61.6,40c-.48.44-2.83,2.12-3.58,2.69a3.57,3.57,0,0,1-1.76.76,11.9,11.9,0,0,1-2.49,2.47,9.83,9.83,0,0,0-1.18-2.44c-.14-.16-.31-.18-.2-.36a6.7,6.7,0,0,0,1.17-1.67c-.45-.88.1-2.07.17-2.64.15-1.26-.4-2.94.48-2.63s1,2.34,1,2.34a17,17,0,0,0,2.1-2.68c1-1.55,1.78-.68,1.24.28a13.48,13.48,0,0,1-1.45,2l.17.14a10.1,10.1,0,0,0,2-2.14c1-1.25,1.85-.23,1,.82-.67.76-2,2-2,2l.1.11a13.47,13.47,0,0,0,2.15-2c.84-1,1.72-.07,1,.79a33.4,33.4,0,0,1-2.38,2.38l.13.12a10.58,10.58,0,0,0,1.58-1.17C61.91,38.23,62.51,39.16,61.6,40Z"/><g class="cls-26"><path class="cls-27" d="M55.26,38.52a2.58,2.58,0,0,1,0,3.27A4.72,4.72,0,0,0,55.26,38.52Z"/></g><path class="cls-23" d="M55.29,45.6c-2.68,3.32-5.36,5-7.88,5.66a11.45,11.45,0,0,1-2,.36h-.75c-2.77,0-4.88-1.33-6.7-2.34l2.27-4.15.58.32a5.82,5.82,0,0,0,1,.42,12.52,12.52,0,0,0,4.54.63c1.8-.16,4.54-2.27,6.69-5.13Z"/><path class="cls-28" d="M47.41,51.26a11.45,11.45,0,0,1-2,.36h-.75c-2.77,0-4.88-1.33-6.7-2.34l2.27-4.15.58.32a5.82,5.82,0,0,0,1,.42A10.36,10.36,0,0,0,47.41,51.26Z"/><polygon class="cls-10" points="54.93 46.12 52.58 41.94 53.37 40.97 55.88 45.09 54.93 46.12"/><line class="cls-9" x1="13.48" y1="52.62" x2="31.9" y2="52.78"/><path class="cls-4" d="M31.94,53h0l-18.47-.15a.2.2,0,0,1-.19-.19.19.19,0,0,1,.19-.19h0l18.47.16a.2.2,0,0,1,.18.2A.18.18,0,0,1,31.94,53Z"/><line class="cls-9" x1="6" y1="62.1" x2="25.2" y2="62.27"/><path class="cls-4" d="M25.2,62.46h0L6,62.29a.18.18,0,0,1-.19-.19A.18.18,0,0,1,6,61.92H6l19.2.16a.19.19,0,0,1,.19.19A.18.18,0,0,1,25.2,62.46Z"/><path class="cls-4" d="M31.94,49.22H14.21a.19.19,0,0,1,0-.38H31.94a.19.19,0,0,1,0,.38Z"/><line class="cls-9" x1="31.9" y1="56.2" x2="18.16" y2="56.03"/><path class="cls-4" d="M31.94,56.38h0l-13.78-.16A.19.19,0,0,1,18,56a.18.18,0,0,1,.18-.19h0L31.94,56a.19.19,0,0,1,0,.38Z"/><path class="cls-4" d="M36.66,87.88H33.92a.21.21,0,0,1-.19-.2.19.19,0,0,1,.19-.18h0c1.29,0,3.42.06,3.62,0a.2.2,0,0,1,.24.13.19.19,0,0,1-.13.23A6.55,6.55,0,0,1,36.66,87.88Z"/><path class="cls-4" d="M11.88,69.82H5.45a.18.18,0,0,1-.21-.16v0a.2.2,0,0,1,.21-.17H12a.2.2,0,0,1,.17.22.19.19,0,0,1-.21.16Z"/><path class="cls-4" d="M39.5,84.64H29.32a.18.18,0,0,1-.18-.18.18.18,0,0,1,.18-.19H39.5Z"/><path class="cls-4" d="M31.94,46.27H16.05a.19.19,0,0,1-.19-.19.18.18,0,0,1,.19-.19H32a.2.2,0,0,1,.14.23A.19.19,0,0,1,31.94,46.27Z"/><path class="cls-4" d="M24.9,25.85H8.42a.18.18,0,0,1-.19-.18.18.18,0,0,1,.19-.19H24.9a.19.19,0,1,1,0,.37Z"/><path class="cls-4" d="M24.9,30.27H3.37a.2.2,0,0,1-.19-.19v0a.19.19,0,0,1,.19-.19H24.9a.2.2,0,0,1,0,.4Z"/><path class="cls-4" d="M13.34,46.27H10.43a.2.2,0,0,1-.19-.19.19.19,0,0,1,.19-.19h2.91a.18.18,0,0,1,.19.19A.19.19,0,0,1,13.34,46.27Z"/><path class="cls-4" d="M37.31,37H25.16A.19.19,0,0,1,25,36.8a.2.2,0,0,1,.19-.19H37.31a.19.19,0,0,1,.19.19A.18.18,0,0,1,37.31,37Z"/><path class="cls-29" d="M24.62,72.18c4.05,2,9,4.06,13.81,1.8s5.87-2.63,5.87-2.63l-6.69-3.6Z"/><path class="cls-29" d="M25.34,62.46c-1.58.92-5.38,2.63-6.81,4.4s5.13,7.24,12.31,6.4,10.3-3.21,10.3-3.21Z"/><path class="cls-7" d="M33.7,66c-.91,1.57-1.7,2.89-2.44,4-5.17,7.91-8.23,6.24-13.88,3.6-1.24-.57-2.59-1.19-4.12-1.77l-.13,0a1.92,1.92,0,0,1-1.35-2.59,2.26,2.26,0,0,1,2.9-1.36h.12c1.47.55,2.74,1.1,3.85,1.6,2.85,1.28,4.58,2.19,5.51,1.75a3,3,0,0,0,.72-.49,16.43,16.43,0,0,0,2.27-2.85c.84-1.26,1.73-2.74,2.56-4.18a2.29,2.29,0,0,1,4,2.27h0Z"/><path class="cls-10" d="M18.65,69.49a10.05,10.05,0,0,0-1.27,4.13c-1-.45-2-.91-3.1-1.37L14,72.14l-.75-.29.2-1.51,1.34-2.43.94.35c.63.26,1.22.5,1.78.76Z"/><path class="cls-8" d="M31.26,70a28.71,28.71,0,0,1-2.22,3,29.45,29.45,0,0,0-4.16-2.27,16.43,16.43,0,0,0,2.27-2.85l4,1.26Z"/><path class="cls-7" d="M41.23,86.85c-.48.75-1,1.59-1.51,2.43-.44.68-.62,1-1.37,1A2.22,2.22,0,0,1,37.1,90a2.28,2.28,0,0,1-.7-3.14l0,0c.39-.6.76-1.19,1.11-1.75,3-4.88,4.17-8.45,3.66-10.88S38.32,70,34.52,67.58c-.84-.55-1.71-1.12-2.61-1.73a2.29,2.29,0,1,1,2.6-3.78c.84.57,1.69,1.12,2.51,1.65,4,2.58,7.72,5,8.67,9.47C46.42,76.79,44.8,81.07,41.23,86.85Z"/><path class="cls-8" d="M41.11,73.89a4.15,4.15,0,0,1,3.72-3l-1.59-.53-2,1H39.7A12.18,12.18,0,0,1,41.11,73.89Z"/><path class="cls-30" d="M26.15,64.84a5.53,5.53,0,0,0,4.2,6.31,2.92,2.92,0,0,1,.5.09c1,.84,2.15,1.34,2.79.84.07,0,.22-.45.3-.44H34a4.92,4.92,0,0,0,.94,0,5.25,5.25,0,0,0,1.16-.26,5.77,5.77,0,0,0,3.78-4.71"/><path class="cls-23" d="M42.23,50.38h0a3.86,3.86,0,0,1-.07.89v0a1.81,1.81,0,0,1-.06.56c-.07.54-.18,1.41-.31,2.48s-.26,2.19-.4,3.45c-.13,1-.25,2-.37,3.09-.1.86-.19,1.71-.29,2.52h0c-.16,1.34-.31,2.57-.43,3.56A7.22,7.22,0,0,1,38,68a1.48,1.48,0,0,0-.33.09c-4.37,1.06-10.25-.53-11.35-2.4a1.2,1.2,0,0,1-.2-.71,22.88,22.88,0,0,1,2.27-6.1,19.06,19.06,0,0,0,2-6.15c.46-2,.68-4.27,1.33-6.31h0c.66-2.15,1.79-4,4.15-4.75a6.52,6.52,0,0,1,.87-.22h0c.13-.11.19.2.22.25h0v.08c.13,0,0,0-.08.07h0a1.08,1.08,0,0,1,.76.23c1.23.27,2.19.48,2.76,1.62A10.18,10.18,0,0,1,41,44.82a8.53,8.53,0,0,1,.45,1,11.8,11.8,0,0,1,.61,3.58A2,2,0,0,1,42.23,50.38Z"/><path class="cls-30" d="M26.29,66.91c1.14,2.34,5.41,2.75,10.06,2.75l-.76-1.26c-3.71.13-8.32-.82-9.5-3.19A4.46,4.46,0,0,0,26.29,66.91Z"/><path class="cls-23" d="M44.91,70.92c-2.82-.38-4.47,2.4-10.14,2.83-4.81.37-6.88-2.84-10.5-5a13,13,0,0,0-5.7-1.87c.86-1.32,5-6.19,9.64-7.9l.18-.09c1.56-.75,1.73-3.17,2.43-4.72l9.48,4.93,3.64,9.37h0l.05.11h0l.06.15h0l.06.16h0Z"/><path class="cls-28" d="M42.23,51.19c.05,1.28-.71,5.38-.85,6.63-2.4.18-7.79-2-8.64-3.43,0-.06-.5,3-.76,4.2a77.33,77.33,0,0,0-5.68,7.09L24.75,68c-.18.26-.34.52-.51.76a13,13,0,0,0-5.71-1.87c.07-.1.16-.23.27-.37l.07-.09.1-.13.12-.16.14-.17c1.57-1.93,5.09-5.55,9-7l.18-.08c.7-1.43,1.7-8.42,3.39-12.48h0A8,8,0,0,1,33,44.15l2.27.67C34.2,48.2,40.64,51.41,42.23,51.19Z"/><path class="cls-10" d="M41.58,86.32c-.48.76-1.34,2.27-1.9,3.14-.44.67-.62,1-1.37,1a2.31,2.31,0,0,1-1.25-.37c-1.06-.69-1.58-1.4-1.07-2.55A22.23,22.23,0,0,1,37.5,85,5.7,5.7,0,0,0,41.58,86.32Z"/><path class="cls-21" d="M14,27.5c.56.43,2.78,1.79,3.51,1.45-1.66.94-.14,0-2.87,1.13-2.49.68-3.15-1.47-4-2.42-.81,3,3.88,9.14,10.81,6.7,3.36-1.18,5.17-4.45,12-6.18-.66-2.09.07-2.17-2.06-2.69-4-.46-13.26,1.75-15.28,2.17"/><path class="cls-31" d="M10.62,27.66l0,.2a6.73,6.73,0,0,0,2.1,2.74C15,32.53,19.53,32.18,26.25,29a14.87,14.87,0,0,1,7-1.4c-.58-1.7.13-1.62-1.87-2.11-10-5.16-14.57,2.21-17.4,2,.28.68,1.26,1.34,1.94,1C14.24,29.46,12.3,28.84,10.62,27.66Z"/><path class="cls-32" d="M31.08,28a1.58,1.58,0,0,0,1.51,1.77.29.29,0,0,0,.37-.21.21.21,0,0,0,0-.11,9.79,9.79,0,0,1,.33-4.27,1.15,1.15,0,0,0-1.35.27A3.93,3.93,0,0,0,31.08,28Z"/><path class="cls-33" d="M31.08,28c.17,1.18.8,1.24,1.46,1.42a.31.31,0,0,0,.37-.22.37.37,0,0,0,0-.11c-.17-1.6.6-2.62,1-4L33.73,25a1.74,1.74,0,0,0-1.8.41A3.85,3.85,0,0,0,31.08,28Z"/><path class="cls-34" d="M50.19,29.18a3.44,3.44,0,0,0-.09-.56,10,10,0,0,0-4.75-6.95,6.73,6.73,0,0,0-.76-.38h0a8.22,8.22,0,0,0-3.66-.7h0c-4.8.13-8.87,4.7-8.53,10.4.32,5.46,4.42,9.08,9.36,8.79Z"/><path class="cls-34" d="M50.09,28.62a10,10,0,0,0-4.75-6.95,6.59,6.59,0,0,0-.75-.38h0a8.29,8.29,0,0,0-3.67-.7h0a8.74,8.74,0,0,0-7.4,4.93A9.87,9.87,0,0,0,33.21,27a10.23,10.23,0,0,0-.11,1.34c-.07,5.79,4.34,10.44,9.54,10.14"/><path class="cls-19" d="M35.17,34.4a9.25,9.25,0,0,0,3.15,5.3C40,41.28,41.17,41.8,45,42.3c2.08.26,3-.48,3.35-.91.12-.15-1,0-.84-.08.66-.53.29-.71.67-1.82-.08,0,.11-.14,0-.16s.2.61,0,.5-.44.12-.55,0-.14-.46-.27-.66c-.52.87-.54-.44-.55-.45A4,4,0,0,1,46.31,37l2.23.24L49.83,37l.43-3.2h0l.06-1.64v-.22c-.06-.81-.13-1.73-.2-2.59,0-.34-.06-.68-.08-1v-.13h0v-.49h0v-.6a.84.84,0,0,0,0-.37v0h0l-.3-.2h0c0-.06-.1-.11-.15-.17l-.13-.14L49.28,26l-.15-.16-.32-.29-.33-.28-.32-.25h0l-.29-.24-.09-.07-.13-.07-.17-.12-.18-.1a11,11,0,0,0-1.09-.53c-.25-.09-.51-.18-.76-.25l-.34-.09H45a7.68,7.68,0,0,0-2-.18,36.05,36.05,0,0,0-4,4.69h0A45.21,45.21,0,0,0,35.17,34.4Z"/><path class="cls-7" d="M49.84,37.59a13.36,13.36,0,0,1-3-.38,2.17,2.17,0,0,0,2.08,2.14h.23a.16.16,0,0,1,.14.19v0c-.15.57-.7,2.22-2,2.38a6.3,6.3,0,0,1-.75.05,5.94,5.94,0,0,1-4.27-1.56c-1.57-1.67-1.79-4.09-1.85-6.4,0-.39-1.73-.85-1.77-1.24A11.1,11.1,0,0,1,39,28c1.07-3.79,3.19-4.6,3.35-4.64a7.42,7.42,0,0,1,2.35.07l.28.05h.07l.34.09c.26.08.52.16.76.26A4.55,4.55,0,0,0,49.92,27h0l.48.07h.29a3.68,3.68,0,0,1,0,.47h0v.34c0,.66-.06,1.73-.13,3.27,0,.68-.06,1.35-.09,2h0c-.08,1.61-.33,3.32-.4,4a.27.27,0,0,1-.1.37A.28.28,0,0,1,49.84,37.59Z"/><path class="cls-7" d="M50.36,31.63c-.27,1.87.14,2.12.54,2.27a1,1,0,0,1,.62,1c0,.76-.87,1.47-2.19,1.7l-1.51-1.44Z"/><line class="cls-9" x1="45.61" y1="23.04" x2="45.19" y2="21.83"/><g class="cls-35"><path class="cls-36" d="M50.68,29.4l-.06,1.41c-3.31-.84-8.85,0-11.12.44.09-1.68-.43-4.29-1-2.57.92-1.91.49-.59,2-6.6Z"/></g><path class="cls-37" d="M44,22a9.6,9.6,0,0,1,3.85,0H48c5.3,1.4,4.63,6.51,4.27,8.11a26.7,26.7,0,0,0-6.06-.28h0c-.07-1.51-.07-2.53-.75-3.2a13.23,13.23,0,0,1-.33,3.24c-1.22.12-5.63.76-5.63.68C39.44,29.76,40.74,22.5,44,22Z"/><path class="cls-34" d="M37.13,38.87c-1.15.48-8.22-8,1.43-15.82.53-.43.66-1.15,1.09-1.67a6.52,6.52,0,0,1,1.24-.19h0a8.37,8.37,0,0,1,2.73.36c.32.1,1.27.14,1.57.26h0c-3,.11-2.89,8-2.89,8s-.11,1.41-.1,2.1c0,.42-.3.72-.58.41-1-1.13-1.51-1.34-2.69-1.06-.61.13,1.74,3.91,1.12,4.17C39.2,35.79,37.89,38.59,37.13,38.87Z"/><path class="cls-38" d="M51,28.17A2,2,0,0,1,49,26.72c-.27-1-.68-1.34-2.51-1.74a2,2,0,1,1,.77-4h.08c2.22.47,4.61,1.38,5.55,4.54a2,2,0,0,1-1.37,2.52A2.25,2.25,0,0,1,51,28.17Z"/><path class="cls-7" d="M41.77,33c-1-2.69-3.11-2.33-3.55-.68a2.89,2.89,0,0,0,2.23,3.42l.2,0Z"/><path class="cls-19" d="M41.07,33.43c-.65-1.89-1.91-1.88-2.15-.76a2.12,2.12,0,0,0,1.55,2.45C41,35.22,41.45,34.59,41.07,33.43Z"/><path class="cls-7" d="M41.43,34.47a.65.65,0,1,1-.69-.46A.65.65,0,0,1,41.43,34.47Z"/><path class="cls-19" d="M37.69,39.05Z"/><path class="cls-19" d="M42.16,41.79h0l-.08,0a2.59,2.59,0,0,0-.52.75l-.75,1.21h0c-.09.11.94,1.68.56,1.62a9.31,9.31,0,0,1-2.17-1l-.41-.2-.18-.11-.18-.1-.47-.29c-.28-.17-.5-.33-.69-.47l-.09-.1a3,3,0,0,1-.32-.29l-.12-.14-.06-.06a1.75,1.75,0,0,1-.16-.27h0a.21.21,0,0,0,0-.13c0-.05,0-.05,0-.07v-.05a.43.43,0,0,1,0-.16h0c.14-.3.69-1.52,1-2.22l.26-.58C40,40.39,38.9,39.9,42.16,41.79Z"/><path class="cls-7" d="M39.15,44.42l-.41-.22-.18-.11-.18-.1-.47-.29c-.28-.17-.5-.33-.69-.47l-.09-.1a3,3,0,0,1-.32-.29l-.12-.14-.06-.06a1.75,1.75,0,0,1-.16-.27h0a.21.21,0,0,0,0-.13c0-.05,0-.05,0-.07v-.05a.43.43,0,0,1,0-.16h0c.14-.3.69-1.52,1-2.22A8.27,8.27,0,0,1,39.15,44.42Z"/><path class="cls-39" d="M39.86,35.56c-.2.72-1.74,4.31-2.47,3.79-2.27-1.12-5.3-5.23-5-9.68C32.45,29.81,34.86,34.53,39.86,35.56Z"/><path class="cls-40" d="M35.05,92.14h.05a.73.73,0,0,0,.45.14H47.36a.32.32,0,0,0,.21-.08l.06-.07c.32-.57.09-2-1-2.09L45.88,90c-.31,0-.61-.08-.92-.1a.59.59,0,0,1-.31-.06,7.19,7.19,0,0,1-3.57-1.9c0-.09.15-.31-.64-.22h0a22.57,22.57,0,0,1-3.18.14H37a2.06,2.06,0,0,1-.76-.21h0a2.3,2.3,0,0,0-.27-.16h-.08a0,0,0,0,0-.05,0h0C35.31,89.75,34.48,91.61,35.05,92.14Z"/><path class="cls-10" d="M42.69,90.59h-.14a.62.62,0,0,1-.45-.73v0a1.43,1.43,0,0,1,.72-.91,1.35,1.35,0,0,1,1.08-.07A.6.6,0,1,1,43.49,90h-.1a.25.25,0,0,0-.11.12A.59.59,0,0,1,42.69,90.59Z"/><path class="cls-10" d="M41.77,90.32a.62.62,0,0,1-.6-.63,1.42,1.42,0,0,1,0-.2,1.65,1.65,0,0,1,2.09-1h0a.6.6,0,0,1,.36.75.62.62,0,0,1-.76.36.46.46,0,0,0-.57.31v0A.6.6,0,0,1,41.77,90.32Z"/><path class="cls-41" d="M35.05,92.14h.05a.73.73,0,0,0,.45.14h1.34l0-.24h0a17.07,17.07,0,0,1,.4-4.22H37a2.55,2.55,0,0,1-.76-.22h0c-.12-.06-.19-.13-.27-.16h-.08a0,0,0,0,0,0,0h0C34.83,89.4,34.48,91.61,35.05,92.14Z"/><path class="cls-42" d="M45.27,92.31h2.1a.33.33,0,0,0,.27-.15c.34-.56.15-2-.91-2.13,0,0-.25,0-.76-.07A3.61,3.61,0,0,0,45.27,92.31Z"/><path class="cls-23" d="M35.05,92.14h.05a.73.73,0,0,0,.45.14H47.36a.32.32,0,0,0,.21-.08l.06-.07c.32-.57.09-2-1-2.09L45.88,90c-.31,0-.61-.08-.92-.1a.59.59,0,0,1-.31-.06,7.19,7.19,0,0,1-3.57-1.9c0-.09.15-.31-.64-.22h0a22.57,22.57,0,0,1-3.18.14H37a2.06,2.06,0,0,1-.76-.21h0a2.3,2.3,0,0,0-.27-.16h-.08a0,0,0,0,0-.05,0h0C35.31,89.75,34.48,91.61,35.05,92.14Z"/><path class="cls-43" d="M43.41,89.36a3.3,3.3,0,0,0,1.08.45c-2.12.36-3.79-1.08-3.88-2.12,0-.54.6-.75,1-.71s.16.24.16.76C41.72,88.06,41.92,88.44,43.41,89.36Z"/><path class="cls-28" d="M35.05,92.14h.05a.73.73,0,0,0,.45.14h1.34l0-.24h0a17.07,17.07,0,0,1,.4-4.22H37a2.55,2.55,0,0,1-.76-.22h0c-.12-.06-.19-.13-.27-.16h-.08a0,0,0,0,0,0,0h0C34.83,89.4,34.48,91.61,35.05,92.14Z"/><path class="cls-23" d="M45.27,92.31l.17.42,1.93-.42a.33.33,0,0,0,.27-.15c.34-.56.15-2-.91-2.13,0,0-.25,0-.76-.07A3.61,3.61,0,0,0,45.27,92.31Z"/><path class="cls-40" d="M13.68,65.34h0a.65.65,0,0,0-.36.29l-.76,1.1L7.84,73.67,6.67,75.4a.29.29,0,0,0,0,.2.17.17,0,0,0,0,.1c.27.59,1.57,1.23,2.21.36l.47-.56c.29-.37.21-.2.6-.71l.21-.22a7,7,0,0,1,3.51-1.87c.05.07.16.29.53-.41h0a26,26,0,0,1,1.68-2.71l.05-.06,0-.06.05,0a1.79,1.79,0,0,1,.57-.49h0c.12-.07.21-.09.28-.13l.06-.06a.08.08,0,0,0,0-.07h0C15.44,66.89,14.43,65.17,13.68,65.34Z"/><path class="cls-44" d="M10.94,73a.26.26,0,0,0,.36,0h0a.27.27,0,0,0-.07-.37.26.26,0,0,0-.36,0h0A.28.28,0,0,0,10.94,73Z"/><path class="cls-44" d="M11.67,72.39a.27.27,0,0,0,.37,0A.27.27,0,0,0,12,72a.24.24,0,0,0-.35,0h0a.27.27,0,0,0,.07.37Z"/><path class="cls-44" d="M12.46,72a.26.26,0,0,0,.36-.06.27.27,0,1,0-.36.06Z"/><path class="cls-10" d="M11,74.58a.63.63,0,0,1-.49-.24.59.59,0,0,1,.14-.83.17.17,0,0,0,0-.12.22.22,0,0,0,0-.16.6.6,0,0,1,.2-.82.59.59,0,0,1,.7.06,1.4,1.4,0,0,1,.31,1.08,1.33,1.33,0,0,1-.53.93A.58.58,0,0,1,11,74.58Z"/><path class="cls-10" d="M11.64,74.33a.58.58,0,0,1-.48-.25.6.6,0,0,1,.13-.83.49.49,0,0,0,.06-.69.62.62,0,0,1,.16-.84.6.6,0,0,1,.84.16A1.68,1.68,0,0,1,12,74.15.57.57,0,0,1,11.64,74.33Z"/><path class="cls-10" d="M12.47,74a.6.6,0,0,1-.5-.27.62.62,0,0,1,.13-.87h0c.1-.07.31-.22,0-.75a.64.64,0,0,1,.22-.86.63.63,0,0,1,.86.21h0a1.7,1.7,0,0,1-.35,2.38h0A.65.65,0,0,1,12.47,74Z"/><path class="cls-41" d="M13.68,65.34h0a.65.65,0,0,0-.36.29l-.76,1.1.22.09h0a16.43,16.43,0,0,1,3.13,2.7l.05-.06,0-.06.05-.05a2.43,2.43,0,0,1,.57-.49h0c.12-.07.21-.09.28-.13l.06-.07a.06.06,0,0,0,0-.06h0C16,66.7,14.43,65.17,13.68,65.34Z"/><path class="cls-42" d="M7.86,73.68h0L6.68,75.42a.27.27,0,0,0,0,.3c.26.59,1.51,1.26,2.19.45a5.84,5.84,0,0,0,.49-.6A3.48,3.48,0,0,0,7.86,73.68Z"/><path class="cls-23" d="M13.68,65.34h0a.65.65,0,0,0-.36.29l-.76,1.1L7.84,73.67,6.67,75.4a.29.29,0,0,0,0,.2.17.17,0,0,0,0,.1c.27.59,1.57,1.23,2.21.36l.47-.56c.29-.37.21-.2.6-.71l.21-.22a7,7,0,0,1,3.51-1.87c.05.07.16.29.53-.41h0a26,26,0,0,1,1.68-2.71l.05-.06,0-.06.05,0a1.79,1.79,0,0,1,.57-.49h0c.12-.07.21-.09.28-.13l.06-.06a.08.08,0,0,0,0-.07h0C15.44,66.89,14.43,65.17,13.68,65.34Z"/><path class="cls-43" d="M11.22,73.79a3.68,3.68,0,0,0-1,.63c.91-1.94,3-2.53,3.86-2,.45.27.26.92,0,1.19s-.28,0-.67-.28C13.2,73.13,12.78,73.08,11.22,73.79Z"/><path class="cls-10" d="M11,74.58a.63.63,0,0,1-.49-.24.59.59,0,0,1,.14-.83.17.17,0,0,0,0-.12.22.22,0,0,0,0-.16.6.6,0,0,1,.2-.82.59.59,0,0,1,.7.06,1.4,1.4,0,0,1,.31,1.08,1.33,1.33,0,0,1-.53.93A.58.58,0,0,1,11,74.58Z"/><path class="cls-10" d="M11.64,74.33a.6.6,0,0,1-.35-1.08.48.48,0,0,0,.06-.69.62.62,0,0,1,.16-.84.6.6,0,0,1,.84.16A1.68,1.68,0,0,1,12,74.15.57.57,0,0,1,11.64,74.33Z"/><path class="cls-10" d="M12.49,74.06A.62.62,0,0,1,12,73.8a.63.63,0,0,1,.15-.87c.2-.14.19-.4,0-.75a.63.63,0,0,1,1.07-.65h0a1.72,1.72,0,0,1-.32,2.41h0A.73.73,0,0,1,12.49,74.06Z"/><path class="cls-28" d="M13.68,65.34h0a.65.65,0,0,0-.36.29l-.76,1.1.22.09h0a16.43,16.43,0,0,1,3.13,2.7l.05-.06,0-.06.05-.05a2.43,2.43,0,0,1,.57-.49h0c.12-.07.21-.09.28-.13l.06-.07a.06.06,0,0,0,0-.06h0C16,66.7,14.43,65.17,13.68,65.34Z"/><path class="cls-23" d="M7.86,73.68l-.42-.09-.76,1.8a.27.27,0,0,0,0,.3c.26.59,1.51,1.26,2.19.45a5.84,5.84,0,0,0,.49-.6A3.49,3.49,0,0,0,7.86,73.68Z"/><path class="cls-45" d="M32.34,47.58s.08-.45.36-.4A2.61,2.61,0,0,0,35,46.47l-.44,1.37Z"/><path class="cls-10" d="M44.91,70.92c-2.82-.38-4.47,2.4-10.14,2.83-4.81.37-6.88-2.84-10.5-5,.17-.26.33-.52.51-.75,3.42,2.17,5.51,5.17,10.18,4.81,5.3-.4,7.06-2.82,9.56-2.86Z"/><path class="cls-12" d="M24.78,68c-.18.26-.34.52-.51.76a13,13,0,0,0-5.7-1.87,3.77,3.77,0,0,1,.26-.37l.07-.09.1-.13.12-.16.14-.17a12.84,12.84,0,0,1,5.19,1.81A2.7,2.7,0,0,0,24.78,68Z"/><path class="cls-10" d="M41.61,45.79c-2-.32-5.29-2.53-5.68-4.15.27-.09.45-.3.76-.36a12.31,12.31,0,0,0,4.54,3.46A7.73,7.73,0,0,1,41.61,45.79Z"/><path class="cls-46" d="M35,93.26h12.2a.44.44,0,0,0,.44-.44h0v-.47a.4.4,0,0,0-.39-.39H35.08a.47.47,0,0,0-.47.47h0v.39a.42.42,0,0,0,.4.44Z"/><path class="cls-10" d="M41,89.9a.57.57,0,0,1-.25-.06.63.63,0,0,1-.33-.83,1.67,1.67,0,0,1,2.08-1.12l.1,0a.64.64,0,0,1,.38.82h0a.65.65,0,0,1-.82.37c-.1,0-.35-.13-.57.41A.67.67,0,0,1,41,89.9Z"/><path class="cls-10" d="M42.69,90.59h-.14a.62.62,0,0,1-.45-.73v0a1.43,1.43,0,0,1,.72-.91,1.35,1.35,0,0,1,1.08-.07A.6.6,0,1,1,43.49,90h-.1a.25.25,0,0,0-.11.12A.59.59,0,0,1,42.69,90.59Z"/><path class="cls-10" d="M41.77,90.32a.62.62,0,0,1-.6-.63,1.42,1.42,0,0,1,0-.2,1.65,1.65,0,0,1,2.09-1h0a.6.6,0,0,1,.43.74.61.61,0,0,1-.74.43l-.11,0a.48.48,0,0,0-.57.34A.61.61,0,0,1,41.77,90.32Z"/><path class="cls-10" d="M41,89.9a.57.57,0,0,1-.25-.06.63.63,0,0,1-.33-.83,1.72,1.72,0,0,1,2.13-1.15l.07,0a.65.65,0,0,1,.37.82.64.64,0,0,1-.81.38h0c-.08,0-.34-.12-.58.45A.67.67,0,0,1,41,89.9Z"/><path class="cls-46" d="M12.74,64.7,5.93,74.76a.43.43,0,0,0,.1.6l.44.26a.38.38,0,0,0,.5-.11l6.84-10.06a.47.47,0,0,0-.1-.65l-.38-.21a.41.41,0,0,0-.59.11Z"/><path class="cls-7" d="M51.9,53l1-.14a2.93,2.93,0,0,0,2.34-1,7.15,7.15,0,0,1,4.54-2.14c.7-.08,1,.54.57.86A6.74,6.74,0,0,0,57.71,52a11.59,11.59,0,0,1,4.23.18.57.57,0,0,1-.44,1,3.82,3.82,0,0,0-2.22-.07,4,4,0,0,1,2.38.76c.38.41.22,1-.19.88a3.17,3.17,0,0,0-2.69-.16,4.33,4.33,0,0,1,2.18.46.29.29,0,0,1,.14.17h0a.44.44,0,0,1-.34.52h-.14a9.13,9.13,0,0,0-2.27.19c-2.09.87-3.16.86-3.72.4l-2.43.44Z"/><path class="cls-23" d="M43.28,57.94c-8-2.11-12-10.11-11.13-12.5,1-2.86,3.49-1.83,4.54.22a10.66,10.66,0,0,0,5.67,6.89c2.86,1.44,7.31,1.11,10.25-.17l.63,4.76A15.1,15.1,0,0,1,43.28,57.94Z"/><line class="cls-9" x1="52.34" y1="52.33" x2="53.03" y2="57.38"/><rect class="cls-10" x="50.08" y="52.31" width="5.21" height="5.1" transform="matrix(0.99, -0.14, 0.14, 0.99, -6.96, 7.66)"/><polygon class="cls-19" points="53.06 52.82 53.54 56.65 54.34 56.5 53.36 52.81 53.06 52.82"/></g></g></svg>