<svg id="Layer_13" data-name="Layer 13" xmlns="http://www.w3.org/2000/svg" viewBox="0 0 128 128"><defs><style>.cls-1{fill:#afdd3d;}.cls-2{fill:#9e9c9c;}.cls-3{fill:#cfe2ac;}.cls-4{fill:#db4614;}.cls-5{fill:#b63029;}.cls-6{fill:#ffa08b;}.cls-7{fill:#d85a5e;}.cls-8{fill:#ff9c90;}.cls-9{fill:#832729;}.cls-10{fill:#a43b36;}.cls-11{fill:#c25436;}.cls-12{fill:#e3d3c3;}.cls-13{fill:#c5b0a8;}.cls-14{fill:#f68f82;}.cls-15{fill:#228a91;}.cls-16{fill:#6b6d84;}.cls-17{fill:#384350;}.cls-18{fill:#22acac;}.cls-19{fill:#fa9086;}.cls-20{fill:#e67c72;}.cls-21{fill:#813029;}.cls-22{fill:#682029;}.cls-23{fill:#ee4533;}.cls-24{fill:#c22d2c;}.cls-25{fill:#b79f99;}.cls-26{fill:#af959c;}.cls-27{fill:#002543;}.cls-28{fill:#c5cfcf;}.cls-29{fill:#fab577;}.cls-30{fill:#e99a5e;}.cls-31{fill:#229ba2;}</style></defs><g id="Layer_2" data-name="Layer 2"><g id="Layer_1-2" data-name="Layer 1-2"><path class="cls-1" d="M17,20.11V18a2,2,0,0,1,0-.24,11.62,11.62,0,0,1,3.19-7.07,19.37,19.37,0,0,1,6.39-4.34,38.1,38.1,0,0,1,6.87-2.26c1.37-.35,2.73-.69,4.12-.94a54.1,54.1,0,0,1,6.85-.46,2,2,0,0,0,.55,0H51.3a1.07,1.07,0,0,0,.25,0c1,0,2,.06,3,.1,1.67.07,3.33.18,5,.32,2.08.18,4.15.4,6.21.76a46.73,46.73,0,0,1,9.82,2.37c1.22.49,2.51.75,3.76,1.16a120.37,120.37,0,0,1,16.16,5.86,57,57,0,0,1,8.8,4.92,1,1,0,0,1,.25.21,3.18,3.18,0,0,0,1.1.93c.9.56,1.81,1.08,2.71,1.65a21,21,0,0,1,5.07,4.18,12.22,12.22,0,0,1,2.83,5.71c.09.47.14.94.22,1.41v2.05l-.12.92a21.92,21.92,0,0,1-2,6.46,46.67,46.67,0,0,1-5.76,8.87c-.5.63-1.06,1.22-1.5,1.87s-.87,1.25-1.34,1.85A160.37,160.37,0,0,1,94.88,66.62c-1.63,1.67-3.28,3.31-5,4.93s-3.47,3.23-5.34,4.86a113.17,113.17,0,0,1-9.32,7.32,70.78,70.78,0,0,1-10.13,6,4,4,0,0,0-.68.37c-.87.57-1.74,1.12-2.64,1.63A25.47,25.47,0,0,1,53,94.87c-.49.07-1,.11-1.5.17H49.25L49,95a17,17,0,0,1-6.24-1.69,23.07,23.07,0,0,1-7.47-6,41.68,41.68,0,0,1-5.18-7.94A77.18,77.18,0,0,1,25.58,68.2c-.39-1.14-.69-2.31-1.18-3.43a83.81,83.81,0,0,1-4.46-13.45,93,93,0,0,1-2.33-13.77q-.32-3.55-.36-7.13,0-3,.18-6a6.72,6.72,0,0,0-.06-1.79,4.28,4.28,0,0,0-.09-.61C17.19,21.39,17.12,20.75,17,20.11Z"/><path class="cls-2" d="M49.15,128a6,6,0,0,1-3-.75,5.14,5.14,0,0,1-2-2,5.71,5.71,0,0,1-.75-2.88h0a5.49,5.49,0,0,1,.75-2.82,5.43,5.43,0,0,1,2-2,5.65,5.65,0,0,1,2.92-.75,6.65,6.65,0,0,1,2.39.37,6.17,6.17,0,0,1,1.88,1.12l-1.5,1.82a5.1,5.1,0,0,0-1.32-.84,3.88,3.88,0,0,0-1.51-.27,2.93,2.93,0,0,0-1.57.46,3.34,3.34,0,0,0-1.12,1.24,3.43,3.43,0,0,0-.41,1.69h0a3.78,3.78,0,0,0,.41,1.78,3,3,0,0,0,1.17,1.23,3.41,3.41,0,0,0,1.71.45,3.81,3.81,0,0,0,2.26-.66v-1.55H49.08v-2.07H53.8v4.79A6.94,6.94,0,0,1,49.15,128Z"/><path class="cls-2" d="M66.43,125.2a5.6,5.6,0,0,1-2.08,2,6.29,6.29,0,0,1-5.93,0,5.5,5.5,0,0,1-2.06-2,5.69,5.69,0,0,1-.75-2.82h0a5.5,5.5,0,0,1,.75-2.83,5.68,5.68,0,0,1,2.08-2,6.27,6.27,0,0,1,5.92,0,5.5,5.5,0,0,1,2.82,4.85h0A5.5,5.5,0,0,1,66.43,125.2Zm-2.18-4.51a3.34,3.34,0,0,0-1.17-1.25,3.37,3.37,0,0,0-3.38,0,3.29,3.29,0,0,0-1.16,1.24,3.48,3.48,0,0,0-.42,1.7h0a3.56,3.56,0,0,0,.42,1.72,3.2,3.2,0,0,0,2.88,1.71,3.13,3.13,0,0,0,1.68-.46,3.19,3.19,0,0,0,1.16-1.23,3.49,3.49,0,0,0,.42-1.71h0a3.53,3.53,0,0,0-.43-1.74Z"/><path class="cls-2" d="M69.31,116.94H71.7v8.7h5.43v2.18H69.31Z"/><path class="cls-2" d="M81.31,121.43h5.2v2.17h-5.2v4.22H78.92V116.94h8.27v2.17H81.31Z"/><path class="cls-3" d="M18.34,101.15c2.57-10,22.12-8.8,52.12-8.11S115,91.26,113,100s-20.3,6.56-47.16,7.62C48.39,108.31,16,110.24,18.34,101.15Z"/><path class="cls-4" d="M52.51,10.26a2.28,2.28,0,0,0,.63,1.62c.7.75,1.5,1.11,1.5,2.19s-1,.86-.49,1.87,1.67,1,1.36,2.26L41.58,19.62s-1.83-1.93-1.83-3.68,1.45-2.17,1.3-3.07-.82-1.89-.48-3.35S43.63,7.3,43.63,7.3Z"/><path class="cls-5" d="M41.32,15.38a3.33,3.33,0,0,1,.48-.81,2.11,2.11,0,0,0,.49-.92,1.58,1.58,0,0,0-.23-.79L42,12.65a3.69,3.69,0,0,1-.37-1.42A3.77,3.77,0,0,1,43.06,8.3l.2.32A3.37,3.37,0,0,0,42,11.26a3.25,3.25,0,0,0,.35,1.27.56.56,0,0,0,.08.2,1.85,1.85,0,0,1,.26,1,2.41,2.41,0,0,1-.56,1.1,2.84,2.84,0,0,0-.44.7,1.64,1.64,0,0,0,.54,1.68l.31.27a3.76,3.76,0,0,1,.69.69,2.1,2.1,0,0,1,.3,1.29l-.38,0a1.64,1.64,0,0,0-.24-1.12,2.94,2.94,0,0,0-.61-.61L42,17.48A2,2,0,0,1,41.32,15.38Z"/><path class="cls-5" d="M49.69,18.78a1.68,1.68,0,0,1-.23-1,2.66,2.66,0,0,1,.25-.83c.18-.45.31-.75-.06-1.2a2.59,2.59,0,0,1-.7-1.36,5.83,5.83,0,0,1,.18-2l0-.26.37.06-.06.27a5.61,5.61,0,0,0-.16,1.91,2.13,2.13,0,0,0,.6,1.17,1.32,1.32,0,0,1,.12,1.59,2.53,2.53,0,0,0-.21.76,1.33,1.33,0,0,0,.29.88Z"/><path class="cls-5" d="M52.66,17.6l-.33-.45c-.39-.48-.82-1-.65-1.64a1.93,1.93,0,0,1,.51-.75,1.81,1.81,0,0,0,.43-.63c.24-.7-.4-1.36-.68-1.62a5,5,0,0,1-1.5-2.92l.4.14a4.5,4.5,0,0,0,1.37,2.5,2,2,0,0,1,.75,2,2.27,2.27,0,0,1-.51.75,1.69,1.69,0,0,0-.43.63c-.12.44.23.88.58,1.31a5.6,5.6,0,0,1,.36.49,2.13,2.13,0,0,1,.33,1l-.38,0A1.65,1.65,0,0,0,52.66,17.6Z"/><path class="cls-6" d="M59.77,51.79,59.52,48a8.94,8.94,0,0,1,2.88-.27c.63.26,2.69,3,2.69,3Z"/><path class="cls-7" d="M63.41,50.84c-.11,0-2.21-.29-2.6-1.69a.19.19,0,0,1,.12-.22h0a.18.18,0,0,1,.23.12h0c.32,1.17,2.26,1.43,2.26,1.44a.17.17,0,0,1,.15.19A.18.18,0,0,1,63.41,50.84Z"/><path class="cls-6" d="M65.7,50.22a.61.61,0,0,1-.75.44l-1.41-.38a.62.62,0,0,1-.51-.7.63.63,0,0,1,.71-.52l.11,0,1.42.38A.61.61,0,0,1,65.7,50.22Z"/><path class="cls-8" d="M47.52,85.83c.85,5,2.59,12.11,2.59,12.11l3.94-.14.36-12.51Z"/><rect class="cls-9" x="47.62" y="100.61" width="6.84" height="0.59" transform="translate(-0.19 0.1) rotate(-0.11)"/><polygon class="cls-10" points="49.16 102.01 55.39 101.71 54.05 97.81 50.11 97.94 49.16 102.01"/><path class="cls-11" d="M52.53,99.11a3.42,3.42,0,0,1,3.43,3.4H49.12A3.41,3.41,0,0,1,52.53,99.11Z"/><path class="cls-8" d="M41.25,86.07c-1,5.05-3,12.41-3,12.41l-3.91-.24V85.64s.39.25,3.59.48A11.27,11.27,0,0,0,41.25,86.07Z"/><path class="cls-12" d="M54.2,51.59c.11,6-4.35,6.33-9.87,6.37S35.57,54.53,35,52.19c1-4,1.65-7.71,3-9.61,1.64-2.34,3.15-1.7,6.2-1.73C49.66,40.82,54.09,45.06,54.2,51.59Z"/><path class="cls-13" d="M34.27,74.14A3.66,3.66,0,1,0,38.41,71,3.66,3.66,0,0,0,34.27,74.14Z"/><path class="cls-13" d="M44.58,56.79,41.51,75.16l-7.24-1s-.69-15.26.68-22Z"/><path class="cls-13" d="M34.22,74.18a3.66,3.66,0,1,0,4-3.25,3.66,3.66,0,0,0-4,3.25Z"/><path class="cls-13" d="M33.83,90.47c0-3.18.34-15.79.34-15.79l7-1.63a15.45,15.45,0,0,1,1.21,8.47,39.14,39.14,0,0,1-2.06,9.75C39.75,92.81,33.82,92.13,33.83,90.47Z"/><path class="cls-12" d="M46.47,75.78a3.66,3.66,0,1,0,3.4-3.9,3.66,3.66,0,0,0-3.4,3.9Z"/><path class="cls-12" d="M53.77,48.25c2.4,7.79,0,27,0,27l-7.3.51-2.57-20Z"/><path class="cls-12" d="M46.53,75.69a3.66,3.66,0,1,0,3.4-3.91h0A3.68,3.68,0,0,0,46.53,75.69Z"/><path class="cls-12" d="M47.54,90.52c-.49-3.09-1-14.63-1-14.63l6.64-2.52a23,23,0,0,1,2,8.32c.29,4,.8,7.1.28,8.49C54.75,92,47.87,92.46,47.54,90.52Z"/><rect class="cls-9" x="27.83" y="100.45" width="10.18" height="0.59"/><path class="cls-10" d="M39.5,102.36H29.32a3,3,0,0,1,.8-2.15,4.09,4.09,0,0,1,2.64-1.15c.37,0,1.5-1.17,1.5-1.17h4.09S39.5,99.17,39.5,102.36Z"/><path class="cls-11" d="M32.68,99.08a4.09,4.09,0,0,0-2.56,1.13,3,3,0,0,0-.8,2.16h6.56A3.76,3.76,0,0,0,32.68,99.08Z"/><path class="cls-13" d="M53.45,91.47h-.52c0-.1.35-9.93-1.65-16.7-.33-1.12-.14-3.15.13-6,.58-6,1.45-15.17-2.43-23l.46-.23c4,7.92,3.07,17.14,2.49,23.22-.26,2.65-.45,4.74-.15,5.76C53.8,81.45,53.45,91.38,53.45,91.47Z"/><path class="cls-13" d="M49.5,48.83A3.81,3.81,0,0,1,46.87,48a2.94,2.94,0,0,1-1-2h.51a2.52,2.52,0,0,0,.8,1.68,4,4,0,0,0,3.15.65l.06.51A7.26,7.26,0,0,1,49.5,48.83Z"/><path class="cls-13" d="M42.9,50.17c-1.79-.07-1.85-.2-1.91-.35-.33-1,.21-4,.28-4.32l.5.1a16.19,16.19,0,0,0-.33,3.93,12.47,12.47,0,0,0,1.5.13Z"/><path class="cls-13" d="M43.5,56.79c-1.63-7.67-.43-11-.38-11.13l.48.18s-1.19,3.35.41,10.84Z"/><path class="cls-13" d="M36.41,47.76A1.21,1.21,0,0,1,36,47.7l.15-.49a.74.74,0,0,0,.6-.06,4.65,4.65,0,0,0,1.46-2.38l.5.14c0,.09-.63,2.11-1.72,2.69A1.21,1.21,0,0,1,36.41,47.76Z"/><path class="cls-6" d="M27.46,20l.63,3.76A8.57,8.57,0,0,0,31,23.3c.62-.4,1.93-3.53,1.93-3.53Z"/><path class="cls-7" d="M29.26,22.46a.18.18,0,0,1-.18-.16v0c.06-1.45,2-2.21,2.12-2.26a.18.18,0,0,1,.22.11.17.17,0,0,1-.1.22s-1.84.71-1.88,1.93a.17.17,0,0,1-.17.18Z"/><path class="cls-6" d="M33.59,20.1a.62.62,0,0,0-.83-.26h0l-1.28.69a.63.63,0,0,0-.26.84h0a.61.61,0,0,0,.82.25h0l1.29-.7A.61.61,0,0,0,33.59,20.1Z"/><path class="cls-14" d="M43,26.88c1.16-1.9-1.51-7.52-4.44-3.4C36.68,26,32.05,32.27,31,33.94l3.45,2.94A55.68,55.68,0,0,0,43,26.88Z"/><path class="cls-15" d="M44.05,26.49c-1.92,2.51-5,6.23-5,6.23s-1.31.35-3.22-1.35-1.83-3-1.83-3l4.42-6C39.38,22.34,44.05,26.49,44.05,26.49Z"/><path class="cls-6" d="M30.69,34.54a2.26,2.26,0,1,0,2.89-1.41,2.26,2.26,0,0,0-2.89,1.41Z"/><path class="cls-15" d="M42,25.3a3.51,3.51,0,1,1,0-5h0A3.51,3.51,0,0,1,42,25.3Z"/><rect class="cls-16" x="22.68" y="18.45" width="41.67" height="0.59" transform="translate(-1.85 5.07) rotate(-6.53)"/><path class="cls-16" d="M68.21,18.92c0,1.16-1.74,1.42-2.39.18s-1-2.39-1.3-2.38-1.59.2-1.59.2v-.63s2.12-1.34,3-1A5.14,5.14,0,0,1,68.21,18.92Z"/><path class="cls-17" d="M36.31,19.13a.73.73,0,0,1,.18.4.75.75,0,0,1-.65.82l-13,1.44a.75.75,0,0,1-.49-1.42.75.75,0,0,1,.33,0l12.94-1.46A.72.72,0,0,1,36.31,19.13Z"/><path class="cls-6" d="M34.6,33.75a2.26,2.26,0,1,0-.23,3.19h0A2.26,2.26,0,0,0,34.6,33.75Z"/><path class="cls-6" d="M29.61,25.07c.06-1,2.6-.35,2.6-.35,1.29,5.44,2.12,7.39,2.92,10.22l-4.45.79A50.94,50.94,0,0,1,29.61,25.07Z"/><path class="cls-18" d="M38.47,32c-.53-2.34,1.7-6.15,1.91-7.24.61-3,.63-4.29,5.91-4.58,4.15-.23,7.88,1.84,8.34,5.27.51,3.76-2,6.91-2.69,12.43-.75,6.06,1,6.88-.28,8.33-1.76,2-14.49-.24-14.37-2.44.09-1.5,1.43-3.38,1.72-5.44A19.86,19.86,0,0,0,38.47,32Z"/><path class="cls-19" d="M43.19,19.48c0,.75,1.29,1.51,3,1.58s3.11-.45,3.16-1.22-1.3-1.51-3-1.58S43.23,18.72,43.19,19.48Z"/><path class="cls-15" d="M46.57,21.32h-.4a5.7,5.7,0,0,1-2.26-.56c-.66-.35-1-.8-1-1.29.06-.91,1.51-1.56,3.43-1.45a5.54,5.54,0,0,1,2.26.56c.66.35,1,.8,1,1.28C49.55,20.71,48.28,21.32,46.57,21.32ZM46,18.51c-1.51,0-2.48.51-2.51,1,0,.26.24.55.7.79a5.21,5.21,0,0,0,2.05.51h.37c1.51,0,2.48-.51,2.51-1,0-.26-.24-.55-.7-.8a5.17,5.17,0,0,0-2-.49Z"/><polygon class="cls-19" points="48.51 19.8 43.9 19.71 44.39 14.53 48.31 14.44 48.51 19.8"/><path class="cls-20" d="M44.11,17.78a4.61,4.61,0,0,0,1.07.4,4,4,0,0,0,3.27-.65l-.12-3.09-3.91.09Z"/><path class="cls-6" d="M43.14,5.8s-1.1,5.09-1.51,6.76a4.39,4.39,0,0,0,8.58,1.85c.37-1.69,1.51-6.76,1.51-6.76Z"/><path class="cls-4" d="M46.17,6.83s2.34,5.79,5.91,5.59a3.69,3.69,0,0,0-.45-4.56Z"/><path class="cls-21" d="M48.57,4.06c3.61.1,5,2.07,4.13,5.21l-10.37-2C43.18,4.1,44.51,2.88,48.57,4.06Z"/><path class="cls-6" d="M49.79,12.3c-.31.66-.27,1.69.26,1.94s1.36-.39,1.67-1.05a1.24,1.24,0,0,0-.42-1.66A1.22,1.22,0,0,0,49.79,12.3Z"/><path class="cls-7" d="M50.19,13.42h0a.11.11,0,0,0,.13-.08h0a1.47,1.47,0,0,1,1.09-1.17.12.12,0,0,0,.09-.12.1.1,0,0,0-.09,0,1.62,1.62,0,0,0-1.28,1.29A.09.09,0,0,0,50.19,13.42Z"/><path class="cls-6" d="M50.38,27c-.51-2.16,3.76-6.67,5.27-1.85,1,3,3.41,10.36,3.89,12.27l-4.15,1.73A55.07,55.07,0,0,1,50.38,27Z"/><path class="cls-15" d="M49.68,26.08c.8,3.06,2.25,7.65,2.25,7.65a4.45,4.45,0,0,0,3.82.14A6.21,6.21,0,0,0,58.87,32l-2.41-7.52C55.58,24.05,49.68,26.08,49.68,26.08Z"/><path class="cls-6" d="M59.66,38.08a2.26,2.26,0,1,1-2.25-2.26A2.25,2.25,0,0,1,59.66,38.08Z"/><path class="cls-15" d="M49.9,27a3.51,3.51,0,1,0,1.92-4.58h0A3.52,3.52,0,0,0,49.9,27Z"/><path class="cls-6" d="M59.65,38.79a2.25,2.25,0,1,1-1.73-2.68h0A2.25,2.25,0,0,1,59.65,38.79Z"/><path class="cls-6" d="M59.6,48.25c.5.85,3.13.41,2.86-.55-1.5-5.37-1.72-6.28-2.92-10.2L55.25,39A50.45,50.45,0,0,0,59.6,48.25Z"/><path class="cls-14" d="M29.14,18.39a.68.68,0,0,0-.58.75h0l.09,1.65a.63.63,0,0,0,.57.68.63.63,0,0,0,.68-.57,1.09,1.09,0,0,0,0-.18l-.06-1.67a.66.66,0,0,0-.65-.66Z"/><path class="cls-14" d="M30.23,18.38a.65.65,0,0,0-.58.72v0l.09,1.64a.63.63,0,0,0,.59.65.62.62,0,0,0,.65-.59.49.49,0,0,0,0-.12l-.09-1.64a.64.64,0,0,0-.6-.69Z"/><path class="cls-14" d="M31.21,18.46a.57.57,0,0,0-.59.56h0l.07,1.27a.62.62,0,0,0,.7.51.61.61,0,0,0,.53-.58L31.85,19a.57.57,0,0,0-.64-.5Z"/><path class="cls-22" d="M90.25,93V91.05c.09,0,8.14-.08,10.75-3.68,4.08-5.62-10.2-23-16-29.18l1.39-1.31c2.26,2.4,21.93,23.7,16.21,31.58C99.36,92.88,90.62,93,90.25,93Z"/><rect class="cls-17" x="74.1" y="43.35" width="0.96" height="14.66" transform="translate(-12.09 25.78) rotate(-18.17)"/><path class="cls-16" d="M71.82,43.86,74.18,51a4.28,4.28,0,0,0,.88-.36l-2.32-7.08Z"/><path class="cls-16" d="M71.85,43.86a3.08,3.08,0,0,1,.75-3.37c1.56-1.67,3.81-.91,3.64.65-.12,1-2.57,1.65-3.26,3.12A1,1,0,0,1,71.85,43.86Z"/><path class="cls-16" d="M74.34,63.74,71.07,49l-.61.13L73.7,63.78A1.53,1.53,0,0,1,74.34,63.74Z"/><path class="cls-17" d="M73,44.54c1.19-.16,1.68,1.72.44,2.51S71,48.37,71.07,48.68l.26,1.6-.55.12s-1.64-2.09-1.38-3.08A5.48,5.48,0,0,1,73,44.54Z"/><polygon class="cls-17" points="85.29 63.04 84.4 63.34 80.73 52.28 81.62 51.99 85.29 63.04"/><path class="cls-16" d="M80.34,51.16c-.08.4.39,1.62.75,1.61s3.76-1.85,4.19-2.55-.43-3-1.16-2.88S80.45,50.59,80.34,51.16Z"/><rect class="cls-16" x="77.75" y="47.89" width="0.78" height="9.75" transform="translate(-8.29 15.09) rotate(-10.48)"/><path class="cls-17" d="M76.69,47.06c-.11.32.14,1.39.46,1.43a11.4,11.4,0,0,0,3.76-1.64c.41-.53,0-2.57-.63-2.51A11.33,11.33,0,0,0,76.69,47.06Z"/><path class="cls-12" d="M70.22,59.8s11.23,35.93,12,36.91,11.33-1.18,12.53-3.93S88,59.51,87.08,56.34C86.06,52.9,70.6,57.7,70.22,59.8Z"/><path class="cls-13" d="M74.79,57.12c-2.51.92-4.43,2-4.57,2.71,0,0,11.23,35.93,12,36.91.34.44,2.61.25,5.13-.33Z"/><path class="cls-23" d="M87.08,56.34c-1-3.44-16.48,1.36-16.86,3.49,0,0,.54,1.69,1.36,4.34a22.36,22.36,0,0,1,8-4.15A20.91,20.91,0,0,1,88,59.65C87.55,58,87.23,56.84,87.08,56.34Z"/><path class="cls-24" d="M74.76,57.13c-2.49.92-4.4,2-4.51,2.7,0,0,.54,1.69,1.36,4.34a22.61,22.61,0,0,1,4.51-2.86Z"/><path class="cls-13" d="M97.26,87.14c.6-3.15-3.84-16.65-5.8-18.28-.92-.76-8.08.52-7.69,1.78.69,2.18,4.47,18,6.14,19.08S96.74,90,97.26,87.14Z"/><path class="cls-25" d="M86.58,70.38,86,69.26c-1.36.38-2.4.88-2.26,1.38.68,2.18,4.47,18,6.14,19.08a4,4,0,0,0,2,.46c.37-.76.34-2-.18-3.76C91,84,86.58,70.38,86.58,70.38Z"/><path class="cls-22" d="M92.34,88.32c-.18-2.92-5.19-17-5.4-17.59l-.45.16c.05.14,5.19,14.6,5.37,17.46a14,14,0,0,1,0,1.83h.48A14.43,14.43,0,0,0,92.34,88.32Z"/><path class="cls-26" d="M79,98.82,65.73,53.2a.75.75,0,0,1,.27-1,.76.76,0,0,1,1,.26.78.78,0,0,1,.1.36L80,97,95.24,92.6a.76.76,0,0,1,.77.73.75.75,0,0,1-.36.67Z"/><path class="cls-27" d="M82.19,100.4a3.81,3.81,0,1,1-2.55-4.74,3.81,3.81,0,0,1,2.55,4.74Z"/><path class="cls-28" d="M80.31,99.85A1.84,1.84,0,1,1,79,97.57l0,0A1.86,1.86,0,0,1,80.31,99.85Z"/><path class="cls-22" d="M87.9,59.33a23.07,23.07,0,0,0-9,.62,18.15,18.15,0,0,0-7.42,3.76c.05.15.1.33.16.5A18,18,0,0,1,79,60.37a22.33,22.33,0,0,1,9-.55A3.38,3.38,0,0,0,87.9,59.33Z"/><path class="cls-17" d="M66.24,54.1a1,1,0,0,1-.91-.68C64.48,50.7,59.76,52,59.71,52a1,1,0,0,1-1.18-.66,1,1,0,0,1,.66-1.18c2.44-.68,6.85-.89,8,2.69a1,1,0,0,1-.63,1.2h0A.87.87,0,0,1,66.24,54.1Z"/><path class="cls-23" d="M77.66,64.43c-1.84,0-5.6,1.37-5.31,5s4.14,18.76,6.26,20.84,7.68,1.32,7.09-.35C83.27,83.16,78.9,64.39,77.66,64.43Z"/><path class="cls-23" d="M83.77,70.64s1.89-.54,4.06,2.38c1.67,2.25,7.63,1.45,6.94-.76s-2-4.05-3.65-4.51S83,67.63,83.77,70.64Z"/><path class="cls-22" d="M94.81,72.42l0-.19c-.06-.17-.12-.34-.17-.5-.39,1.22-1.71,1.67-4,1.33-1-.15-2.13-1.09-3.3-2.1-.37-.31-.75-.64-1.13-.94a2.2,2.2,0,0,0-2.34-.38,1.52,1.52,0,0,0-.08.56,1.78,1.78,0,0,1,2.13.19l1.11.93a10,10,0,0,0,3.12,2.12l.42.09C92.71,73.85,94.16,73.48,94.81,72.42Z"/><path class="cls-24" d="M78.61,90.31c1.18,1.17,3.46,1.44,5.12,1.16C79.88,89,77.28,78.14,76.38,73.76c-.64-3.12-.75-5.7,2-8.27-.29-.69-.54-1.1-.75-1.09-1.84,0-5.6,1.37-5.31,5S76.49,88.23,78.61,90.31Z"/><path class="cls-22" d="M79.87,69.9c-.05-.16-.1-.31-.14-.46a23.18,23.18,0,0,1-7,2.12c0,.15.06.3.09.47a26.92,26.92,0,0,0,3.07-.62c.31,2.16,2.39,15.54,7.74,20.09l.31,0,.15-.19c-5.32-4.29-7.46-18.1-7.73-20A19,19,0,0,0,79.87,69.9Z"/><path class="cls-29" d="M48.2,2.42a5.42,5.42,0,0,0-6,4.71s6.68.34,10.42,4.17c0,0,.68-1.5.82-1.9C55,5.06,51.08,2.86,48.2,2.42Z"/><path class="cls-30" d="M43.36,6.83c-2.46-.54-5.84-.84-5.26,0s13.53,3.68,13.53,3.68A21.72,21.72,0,0,0,43.36,6.83Z"/><path class="cls-30" d="M53.3,5.56c-1.88.12-3.24,2.56-3.82,3.83l.24.13c.57-1.26,1.91-3.67,3.7-3.7Z"/><path class="cls-30" d="M43.64,7.37l.28,0c.57-.92,1.65-2.92,1.39-4.58L45.06,3C45.25,4.53,44.17,6.53,43.64,7.37Z"/><path class="cls-31" d="M38.47,32a3.57,3.57,0,0,1-.06-1.13c.79,1.28,2.64,2.3,6.51,2.7,4.83.49,5.31,1.5,3.4,2.31s-6.5-1.05-7.46.21-3.1,7.62-1.85,7.85,3.69-1.39,3.35,0,1.26,1.25,1.69.94,3.26-3.49,3.32-1.92c.1,2.73.9,3.69,2,4-4.19.33-12.16-1.42-12-3.16.09-1.5,1.43-3.38,1.72-5.44A19.88,19.88,0,0,0,38.47,32Z"/><path class="cls-14" d="M60.76,52.9a.55.55,0,0,1-.63-.46l-.23-1.3A.53.53,0,1,1,61,51l.24,1.33A.55.55,0,0,1,60.76,52.9Z"/><path class="cls-14" d="M61.78,52.91a.67.67,0,0,1-.75-.57l-.3-1.63a.66.66,0,0,1,.48-.79.65.65,0,0,1,.75.53s0,0,0,0l.3,1.63A.67.67,0,0,1,61.78,52.91Z"/><path class="cls-14" d="M62.83,52.67a.66.66,0,0,1-.75-.57l-.3-1.62a.63.63,0,0,1,.46-.75.62.62,0,0,1,.74.46s0,0,0,.06l.29,1.63A.65.65,0,0,1,62.83,52.67Z"/><path class="cls-14" d="M63.76,52.37a.57.57,0,0,1-.7-.41l-.22-1.25a.62.62,0,0,1,1.21-.22l.22,1.24A.57.57,0,0,1,63.76,52.37Z"/></g></g></svg>