<svg id="Layer_27" data-name="Layer 27" xmlns="http://www.w3.org/2000/svg" viewBox="0 0 128 128"><defs><style>.cls-1{fill:#02a8e2;}.cls-2{fill:#635e63;}.cls-3{opacity:0.5;}.cls-4{fill:#9e9893;}.cls-5{fill:#d4a87f;}.cls-6{fill:#efe9e6;}.cls-7{fill:#c69a75;}.cls-8{fill:#dbd4d1;}.cls-9{fill:#ada7a5;}.cls-10{fill:#c70029;}.cls-11{opacity:0.6;}.cls-12{fill:#896b55;}.cls-13{fill:#c78a70;}.cls-14{fill:#4f4a4f;}.cls-15{fill:#aa7536;}.cls-16{opacity:0.4;}.cls-17{fill:#0a6a9b;}.cls-18{fill:#689ab8;}.cls-19{fill:#564436;}.cls-20{fill:#9e9c9c;}</style></defs><g id="Layer_2" data-name="Layer 2"><g id="Layer_1-2" data-name="Layer 1-2"><path class="cls-1" d="M8.79,19.75V17.5a.47.47,0,0,1,.05-.25,12.2,12.2,0,0,1,3.57-7.54,21.79,21.79,0,0,1,7.17-4.63,44.53,44.53,0,0,1,7.69-2.4c1.5-.37,3-.74,4.57-1a63.31,63.31,0,0,1,7.67-.49,2,2,0,0,0,.6,0h7l.27,0c1.12,0,2.24.06,3.36.1,1.86.07,3.72.19,5.58.35,2.32.19,4.64.42,6.93.8A54.27,54.27,0,0,1,74.24,5c1.36.52,2.8.8,4.2,1.23a139.23,139.23,0,0,1,18.07,6.25,64.54,64.54,0,0,1,9.85,5.25,1.39,1.39,0,0,1,.27.21,3.56,3.56,0,0,0,1.24,1c1,.59,2,1.15,3,1.75a23.68,23.68,0,0,1,5.67,4.46,12.82,12.82,0,0,1,3.16,6.09c.1.5.16,1,.25,1.5v2.19c0,.33-.09.65-.14,1a22.56,22.56,0,0,1-2.28,6.88,49.07,49.07,0,0,1-6.44,9.46c-.57.67-1.18,1.3-1.68,2s-1,1.33-1.49,2A170.81,170.81,0,0,1,95.84,69.32Q93.11,72,90.28,74.58c-1.89,1.72-3.88,3.45-6,5.19a128.43,128.43,0,0,1-10.42,7.8A80,80,0,0,1,62.56,94a5.4,5.4,0,0,0-.75.4c-1,.6-1.94,1.19-3,1.73A29.37,29.37,0,0,1,49,99.44c-.55.07-1.11.12-1.68.18H44.81l-.25,0a19.84,19.84,0,0,1-7-1.8,25.69,25.69,0,0,1-8.35-6.42,43.74,43.74,0,0,1-5.78-8.47A79.79,79.79,0,0,1,18.34,71c-.42-1.21-.77-2.46-1.31-3.65A85.58,85.58,0,0,1,12,53,95,95,0,0,1,9.44,38.34q-.36-3.8-.41-7.6c0-2.1,0-4.22.2-6.36a6.8,6.8,0,0,0-.06-1.91,3.68,3.68,0,0,0-.11-.65C9,21.12,8.89,20.43,8.79,19.75Z"/><path class="cls-2" d="M97.22,69.87a.17.17,0,0,0-.19,0,5.25,5.25,0,0,1-.49-.33c-.27-.19-.52-.4-.8-.6-.64-.51-1.26-1-1.89-1.55a15.32,15.32,0,0,1-3.25-3.52c-.13-.39-.23-.8-.4-1.18a1.6,1.6,0,0,0-1.88-1.08.15.15,0,0,0-.11.15,2.85,2.85,0,0,0,.14,1.61,13.68,13.68,0,0,0,.8,2.88A39.49,39.49,0,0,0,90.85,70,27.9,27.9,0,0,0,93,73.63a1.55,1.55,0,0,0,.72.57,5.27,5.27,0,0,0,1,0,3,3,0,0,0,.6-.18,5.71,5.71,0,0,0-.56-.88c-.37-.46-.67-.92-1-1.4-.63-.93-1.39-1.77-1.94-2.75s-1.12-1.89-1.6-2.86a8.39,8.39,0,0,1-.45-1c.58.8,1.25,1.6,1.89,2.41a18.11,18.11,0,0,0,2.48,2.55c.33.27.68.53,1,.8a1.5,1.5,0,0,0,.6.28A2.58,2.58,0,0,0,97.27,70,.12.12,0,0,0,97.22,69.87Z"/><g class="cls-3"><path class="cls-2" d="M89.79,65.08c.21.3.42.59.65.87a2.85,2.85,0,0,1-.38-.92.12.12,0,0,1,.13-.12A3,3,0,0,1,92,66.06a26.56,26.56,0,0,0,2.2,2,18.42,18.42,0,0,0,2.52,2.06l.23.14a3.18,3.18,0,0,0,.27-.37h0a.17.17,0,0,0-.19,0,2.63,2.63,0,0,1-.49-.33c-.27-.19-.53-.4-.8-.6-.64-.5-1.27-1-1.89-1.55a15.27,15.27,0,0,1-3.25-3.51,11.87,11.87,0,0,0-.4-1.19,1.59,1.59,0,0,0-1.88-1.07.13.13,0,0,0-.11.15,2.91,2.91,0,0,0,.13,1.6v.22l.32.05a.11.11,0,0,1,.08.11A5.94,5.94,0,0,0,89.78,66,12.21,12.21,0,0,0,91,67.63c-.28-.48-.55-1-.8-1.45A8.89,8.89,0,0,1,89.79,65.08Z"/></g><path class="cls-2" d="M100.58,42a.16.16,0,0,0-.06-.08.6.6,0,0,0-.13-.25.17.17,0,0,0-.23-.07h0A9.13,9.13,0,0,0,98,43.91c-.37.46-.76.92-1.11,1.39a11.47,11.47,0,0,0-1,1.46v-.08c-.21-.57-.43-1.13-.64-1.7a18.56,18.56,0,0,1-1-3.66.15.15,0,0,0-.2-.1.09.09,0,0,0-.06,0,2.7,2.7,0,0,0-.6,1.32,4.51,4.51,0,0,0-.17.52,9,9,0,0,0-.16,1,4.14,4.14,0,0,0,.32,2.12,3.67,3.67,0,0,0,3.48,2,4.13,4.13,0,0,0,3.36-1.89A6.47,6.47,0,0,0,100.58,42Z"/><g class="cls-3"><path class="cls-2" d="M100.11,46.3h0c.8-1.2.67-2.94.46-4.29a.16.16,0,0,0-.06-.08.6.6,0,0,0-.13-.25.16.16,0,0,0-.22-.07h0A9.13,9.13,0,0,0,98,43.91c-.37.46-.75.92-1.11,1.39a12.28,12.28,0,0,0-.8,1.11A25.94,25.94,0,0,0,100.11,46.3Z"/></g><g class="cls-3"><path class="cls-2" d="M95.69,46.36c-.18-.46-.36-.93-.53-1.4a17.9,17.9,0,0,1-1-3.66.16.16,0,0,0-.2-.1l-.07,0a2.75,2.75,0,0,0-.59,1.31,4.51,4.51,0,0,0-.17.52c-.07.34-.13.68-.17,1a4.28,4.28,0,0,0,.21,1.81A13.55,13.55,0,0,0,95.69,46.36Z"/></g><g class="cls-3"><path class="cls-2" d="M100.58,42a.16.16,0,0,0-.06-.08.6.6,0,0,0-.13-.25.17.17,0,0,0-.23-.07h0A9.13,9.13,0,0,0,98,43.91c-.37.46-.76.92-1.11,1.39a11.47,11.47,0,0,0-1,1.46v-.08c-.21-.57-.43-1.13-.64-1.7a18.56,18.56,0,0,1-1-3.66.15.15,0,0,0-.2-.1.09.09,0,0,0-.06,0,2.7,2.7,0,0,0-.6,1.32,4.51,4.51,0,0,0-.17.52,9,9,0,0,0-.16,1,4.14,4.14,0,0,0,.32,2.12,3.67,3.67,0,0,0,3.48,2,4.13,4.13,0,0,0,3.36-1.89A6.47,6.47,0,0,0,100.58,42Zm-7,4a3.73,3.73,0,0,1-.32-2A8.48,8.48,0,0,1,93.46,43c0-.15,0-.31.05-.46a3.46,3.46,0,0,1,.42-.81,18.38,18.38,0,0,0,.8,3.21c.23.63.46,1.26.7,1.88a4.1,4.1,0,0,0,.39,1A3.29,3.29,0,0,1,93.62,46Zm6.5-.45a3.72,3.72,0,0,1-3.21,2.2,2.44,2.44,0,0,1-.54,0,1.14,1.14,0,0,1-.15-.23,2.15,2.15,0,0,0-.14-.26,1,1,0,0,0-.14-.34,10.88,10.88,0,0,0,1-1.2c.4-.52.8-1,1.23-1.53a11.31,11.31,0,0,1,2.06-2.2.65.65,0,0,1,0,.34.1.1,0,0,0,.08.12,8.26,8.26,0,0,1-.18,3.13Z"/></g><path class="cls-4" d="M88,51.71a4.51,4.51,0,0,1-.6-.48h0a11.83,11.83,0,0,0-1.65-5,3.1,3.1,0,0,0-1.6-1.1c-.43-.15-1.3-.44-1.75-.2h0a14.81,14.81,0,0,0,1.59.3,3,3,0,0,1,1.81,1.47,8.94,8.94,0,0,1,1,2.35,10,10,0,0,0,.53,2.07,11.88,11.88,0,0,1-1.15-1.21,4.27,4.27,0,0,1-1.25-2.27h0a3.15,3.15,0,0,0,.91,2.2,5.91,5.91,0,0,0,.92,1,9.94,9.94,0,0,0,1.28,1Z"/><path class="cls-4" d="M109.36,42.86s0,0,0,0c.8.44-.38,1.52-.69,1.85a13.29,13.29,0,0,0-1.1,1.22,6.56,6.56,0,0,0-1.45,3.27h0a8.64,8.64,0,0,1,2.41-4.08C109,44.7,110.36,43.45,109.36,42.86Z"/><path class="cls-4" d="M84.63,74a9.93,9.93,0,0,0-.69-2.27c-.28-.69-.53-1.39-.87-2.06s-.8-1.37-1.24-2.06h0c.66,1.37,1.25,2.78,1.81,4.2a18.6,18.6,0,0,1,.72,2.06c.22.76.19,1.53.34,2.3h0C84.71,75.45,84.69,74.73,84.63,74Z"/><path class="cls-5" d="M82.08,89.3A3,3,0,0,0,81,87.7c-.28-.24-.86-.59-1.25-.45h0c-.8.24-1.66.38-2.47.67a4.78,4.78,0,0,0-.48-.12,3.7,3.7,0,0,0-1.48-.06,1.46,1.46,0,0,0-1.19,1.65,14.8,14.8,0,0,0,.08,2A19,19,0,0,1,74,94.31a19.32,19.32,0,0,1-.56,2.7,10.61,10.61,0,0,1-.56,1.3c-.09.18-.16.36-.25.54l0,.19,0,.06a.22.22,0,0,0-.09.1,2.71,2.71,0,0,0-.61,1.87.93.93,0,0,0,1,.91l.24,0a2.08,2.08,0,0,0,.59-.21l.1-.07c.17.37.8.29,1.15.08a.28.28,0,0,0,.15.17.51.51,0,0,0,.53,0h.06a.59.59,0,0,0,.8.1.33.33,0,0,0,.26.18c.28.07.59-.19.75-.39a2.31,2.31,0,0,0,.4-1.67,13.72,13.72,0,0,0,.45-1.51c.14-.75.25-1.52.36-2.28a12.72,12.72,0,0,1,.68-3.71,24.26,24.26,0,0,1,2.35-1.14l0,0C82.3,91.37,82.15,89.63,82.08,89.3Z"/><path class="cls-6" d="M77.89,87.7l-.65.21a4.89,4.89,0,0,0-.49-.12,3.85,3.85,0,0,0-1.07-.1,3.73,3.73,0,0,1-.17,2.4c-.25.62-.73,1.28-1.34,1.37A25.52,25.52,0,0,1,73.34,97a8.67,8.67,0,0,1-.56,1.29c-.09.19-.16.37-.25.55v.08a4.54,4.54,0,0,1,1.72-.15,14.39,14.39,0,0,1,1.82.39,7.39,7.39,0,0,1,1.71.66,8.81,8.81,0,0,0,.36-1.24c.15-.75.26-1.51.37-2.27a12.59,12.59,0,0,1,.67-3.71h0A5.38,5.38,0,0,1,77.89,87.7Z"/><path class="cls-4" d="M77.84,100l-.15-.08A7,7,0,0,0,76,99.29a12.49,12.49,0,0,0-1.82-.37,4.06,4.06,0,0,0-1.66.13l-.24.06.1-.31a.62.62,0,0,1,.11-.25l.14-.31A8.51,8.51,0,0,0,73.21,97a18.91,18.91,0,0,0,.56-2.67A20.82,20.82,0,0,0,74,91.44v-.11h.11c.57-.08,1-.72,1.24-1.29a3.56,3.56,0,0,0,.17-2.3l0-.16h.17a4.23,4.23,0,0,1,1.12.12h0a1.34,1.34,0,0,1,.4.11l.62-.2.21-.06v.21a5.23,5.23,0,0,0,1.25,4.81l.14.13-.15.07a8.51,8.51,0,0,0-.54,2.64,6.51,6.51,0,0,1-.1,1c-.12.86-.24,1.6-.37,2.28a7.09,7.09,0,0,1-.37,1.27Zm-4.11-1.41a4.51,4.51,0,0,1,.52,0A13.2,13.2,0,0,1,76.1,99a9.06,9.06,0,0,1,1.6.6A10,10,0,0,0,78,98.53c.12-.67.24-1.41.36-2.27,0-.33.07-.65.1-1A8.72,8.72,0,0,1,79,92.57a5.46,5.46,0,0,1-1.29-4.71l-.44.15h-.05a3.25,3.25,0,0,0-.42-.11h-.06a3.47,3.47,0,0,0-.85-.1h0a4,4,0,0,1-.22,2.31c-.12.29-.56,1.24-1.34,1.43a21.45,21.45,0,0,1-.26,2.77A19.49,19.49,0,0,1,73.52,97a7.84,7.84,0,0,1-.56,1.3l-.14.32v.07A4.68,4.68,0,0,1,73.73,98.62Z"/><path class="cls-7" d="M73.62,99.28h0a1.61,1.61,0,0,1-.16,2.27,1.33,1.33,0,0,1-.19.14.05.05,0,0,0,0,.08h0A1.44,1.44,0,0,0,73.62,99.28Z"/><path class="cls-7" d="M75.06,99.72h0a1.76,1.76,0,0,1-.07,1.35,1.24,1.24,0,0,1-.4.58,2.41,2.41,0,0,1-.58.17h0a1,1,0,0,0,1.1-.6A1.62,1.62,0,0,0,75.06,99.72Z"/><path class="cls-7" d="M75.84,100h0c.24.6.19,1.91-.74,1.84h0a.68.68,0,0,0,.86-.42s0,0,0-.06A1.52,1.52,0,0,0,75.84,100Z"/><path class="cls-7" d="M76.86,100.24h0a1.37,1.37,0,0,1,0,.85,1.26,1.26,0,0,1-.8.89h0a1,1,0,0,0,.88-.75C77,101,77.12,100.45,76.86,100.24Z"/><path class="cls-6" d="M96.83,66.91a.27.27,0,0,0-.08-.1c-.35-1.26-1.61-2.19-2.55-3-.8-.65-1.55-1.26-2.29-1.93s-1.45-1.37-2.18-2.06a17.85,17.85,0,0,0-4.81-3q-1.23-.59-2.52-1a10.47,10.47,0,0,0-2.32-.62,15.47,15.47,0,0,0-3.73-4.44,59.64,59.64,0,0,0-5-4.46C69.5,45,67.6,43.78,65.65,42.71c-.93-.58-1.89-1.11-2.84-1.66a4.15,4.15,0,0,0-2.05-.8h-.24a2.6,2.6,0,0,0-1.17,1.28c-.49.89-1,1.77-1.41,2.66a13.56,13.56,0,0,0-1.84,6.1.11.11,0,0,0,0,.08.08.08,0,0,0,0,.08,40.36,40.36,0,0,1,8.73,4.81c2.82,2.07,5.45,4.47,8.06,6.8s4.86,4.57,7.36,6.78A26.35,26.35,0,0,1,84,72.68a17.48,17.48,0,0,1,.3,1.76c.13.89.22,1.78.29,2.67,0,.55.08,1.09.12,1.6a2.93,2.93,0,0,1-.07,1.41,18.61,18.61,0,0,1-1.4,1.25,13.57,13.57,0,0,1-2.77,1.8c-.81.36-1.61.63-2.41,1a.13.13,0,0,0-.18,0,3.16,3.16,0,0,0-.43,2.29,12.34,12.34,0,0,0,.64,2.89A12.62,12.62,0,0,0,82,95.06h0a.2.2,0,0,0,.28,0,.16.16,0,0,0,0-.06,26.36,26.36,0,0,0,3.8-1.89,20.84,20.84,0,0,0,3.47-2.83,27.5,27.5,0,0,0,5.31-6.55A22.27,22.27,0,0,0,97.23,76a41.3,41.3,0,0,0,.21-4.45A12.37,12.37,0,0,0,96.83,66.91Z"/><path class="cls-8" d="M84,72.68a17.48,17.48,0,0,1,.3,1.76c.13.89.22,1.78.29,2.67,0,.55.08,1.09.12,1.6,0,.23.05.54,0,.8a5.32,5.32,0,0,0,.57-2.35,19.59,19.59,0,0,0-.12-2.65,17.92,17.92,0,0,0-.55-3.57,23.24,23.24,0,0,0-3.88-7.09,5.35,5.35,0,0,1,.32,3c0,.11-.17.07-.21,0a29.25,29.25,0,0,0-5.27-7,64.35,64.35,0,0,0-6.36-5C67.09,53.24,65,51.46,62.7,50a19.71,19.71,0,0,0-6.07-3A10.11,10.11,0,0,0,56,50.34v.08a.08.08,0,0,0,0,.08,40.36,40.36,0,0,1,8.73,4.81c2.82,2.07,5.45,4.47,8.06,6.8s4.86,4.57,7.36,6.78A26.18,26.18,0,0,1,84,72.68Z"/><path class="cls-8" d="M96.83,66.91a.27.27,0,0,0-.08-.1c-.35-1.26-1.61-2.19-2.55-3-.8-.65-1.55-1.26-2.29-1.93s-1.45-1.37-2.18-2.06a17.85,17.85,0,0,0-4.81-3q-1.23-.59-2.52-1a10.47,10.47,0,0,0-2.32-.62,9.92,9.92,0,0,0-1.18-1.84A21.66,21.66,0,0,0,78.85,57a15.16,15.16,0,0,0,.8,3.94,15.87,15.87,0,0,0,1.95,3.6l.24.35a19.36,19.36,0,0,0,3.76,3.53,15.6,15.6,0,0,0,7.88,3.13.11.11,0,0,1,.09.09A16.29,16.29,0,0,1,93.44,76a26.93,26.93,0,0,1-.51,3.34,7.8,7.8,0,0,1-1.05,2.4,10.64,10.64,0,0,1-2.09,3,25.69,25.69,0,0,1-2.12,1.76,26.2,26.2,0,0,1-4.94,3.32,3.27,3.27,0,0,1-2,.46,2.34,2.34,0,0,1-1.33-1.36,16.07,16.07,0,0,1-1-3c-.15-.56-.28-1.15-.45-1.72h-.07a3.16,3.16,0,0,0-.43,2.29,11.86,11.86,0,0,0,.64,2.89A12.6,12.6,0,0,0,82,95.05h0a.2.2,0,0,0,.28,0l0-.06a26.84,26.84,0,0,0,3.79-1.9,20.51,20.51,0,0,0,3.48-2.83,27.82,27.82,0,0,0,5.34-6.54A22.27,22.27,0,0,0,97.23,76a41.3,41.3,0,0,0,.21-4.45A12.37,12.37,0,0,0,96.83,66.91Z"/><path class="cls-9" d="M58,48.93a12.6,12.6,0,0,0,2.66-6,4.46,4.46,0,0,0-.2-2.63h0a2.58,2.58,0,0,0-1.18,1.28c-.48.88-1,1.77-1.41,2.66a13.56,13.56,0,0,0-1.84,6.1v.07A3.84,3.84,0,0,0,58,48.93Z"/><path class="cls-4" d="M56,50.57v-.09a.19.19,0,0,1,0-.12,13.85,13.85,0,0,1,1.85-6.17c.42-.8.88-1.68,1.41-2.66A2.7,2.7,0,0,1,60.4,40.2h.18l.06.1A4.68,4.68,0,0,1,60.85,43a12.45,12.45,0,0,1-1.06,3.47,11.56,11.56,0,0,1-1.61,2.59,3.79,3.79,0,0,1-2.07,1.53Zm4.46-10.1a2.54,2.54,0,0,0-1,1.19c-.53,1-1,1.84-1.41,2.65a13.76,13.76,0,0,0-1.81,5.95,3.94,3.94,0,0,0,1.78-1.42,11.5,11.5,0,0,0,1.6-2.53,12.29,12.29,0,0,0,1-3.4A4.5,4.5,0,0,0,60.41,40.47Z"/><path class="cls-6" d="M102.1,66a3.67,3.67,0,0,0-.14-1.36,17.78,17.78,0,0,1-.38-1.82,14.2,14.2,0,0,1-.21-1.84,1.69,1.69,0,0,0-.24-1.05h0v-.12a.21.21,0,0,0-.23-.19l-.07,0a15.25,15.25,0,0,1-5,.28,20.36,20.36,0,0,1-4.67-1.17,21,21,0,0,1-4.48-2.23,18.08,18.08,0,0,1-2-1.6l-.91-.8a1.23,1.23,0,0,0-.43-.28.14.14,0,0,0-.17-.12h-.56a9.5,9.5,0,0,1-1.41.05,5.41,5.41,0,0,1-1.5-.31c-.25-.07-.55-.23-.8-.11h-.07a3.37,3.37,0,0,0-.29,1.44,8.58,8.58,0,0,0,.07,1.6,17.11,17.11,0,0,0,1,3.36,12.33,12.33,0,0,0,1.46,3,23.34,23.34,0,0,0,2.4,2.67.14.14,0,0,0,.21,0l0,0c1-.31,1.68-1.41,2.41-2,.37-.34.88-.65,1.31-1a6.54,6.54,0,0,0,.07,1.4,10.83,10.83,0,0,0,.7,3,.16.16,0,0,0,.14.08,4.69,4.69,0,0,0,2.32.56,23,23,0,0,0,4.15,0A29.12,29.12,0,0,0,99.12,67a8,8,0,0,0,2.92-.71.18.18,0,0,0,.08-.25Z"/><path class="cls-4" d="M92.47,67.62a11.83,11.83,0,0,1-1.78-.12l-.52,0a3.59,3.59,0,0,1-1.83-.52.27.27,0,0,1-.21-.15,11.41,11.41,0,0,1-.71-3v-.11a8.42,8.42,0,0,1-.08-1l-.41.31a8.27,8.27,0,0,0-.66.51,8.61,8.61,0,0,0-.67.68,4.74,4.74,0,0,1-1.74,1.4.3.3,0,0,1-.4,0L82.93,65A19,19,0,0,1,81,62.85a12.9,12.9,0,0,1-1.49-2.94l-.16-.42a14.54,14.54,0,0,1-.86-3,8,8,0,0,1-.1-1.69v-.16a2.86,2.86,0,0,1,.3-1.31.19.19,0,0,1,.14-.09,1.06,1.06,0,0,1,.7.06l.15.06a5.65,5.65,0,0,0,1.47.3,7.19,7.19,0,0,0,1.39-.05h.56a.31.31,0,0,1,.34.14,1.26,1.26,0,0,1,.36.24l.06,0,.61.54.33.22a17.1,17.1,0,0,0,2,1.6,21.22,21.22,0,0,0,4.45,2.21,19.15,19.15,0,0,0,4.65,1.13,15,15,0,0,0,4.91-.28.35.35,0,0,1,.41.28v.1h0a1.66,1.66,0,0,1,.24,1.09,14.55,14.55,0,0,0,.16,1.48l.06.36a14.53,14.53,0,0,0,.3,1.46l.1.44a3.68,3.68,0,0,1,.13,1.28.34.34,0,0,1,0,.2.34.34,0,0,1-.14.21,5.86,5.86,0,0,1-2.31.63,3.74,3.74,0,0,0-.67.1,32.13,32.13,0,0,1-4.28.41H94A15.45,15.45,0,0,1,92.47,67.62ZM87.66,62v.34a5.33,5.33,0,0,0,.06,1.26v.1a10.6,10.6,0,0,0,.69,2.93h.1a3.34,3.34,0,0,0,1.72.47l.54.06a11.14,11.14,0,0,0,1.74.11h2.4a30.14,30.14,0,0,0,4.24-.42,11.16,11.16,0,0,0,2.89-.69h0V66a3.09,3.09,0,0,0-.12-1.21l-.1-.44c-.11-.48-.23-1-.31-1.48l0-.37a9.3,9.3,0,0,1-.16-1.49,1.5,1.5,0,0,0-.21-1h0v-.17s0-.08-.07-.08a15.62,15.62,0,0,1-5,.29,20.4,20.4,0,0,1-4.81-1.19,21.84,21.84,0,0,1-4.51-2.25,18.3,18.3,0,0,1-2-1.6l-.29-.27-.62-.55-.05,0a.83.83,0,0,0-.32-.2h-.07V53.9H82.7a8.51,8.51,0,0,1-1.43.06,6.13,6.13,0,0,1-1.53-.32l-.17-.06a.68.68,0,0,0-.52-.06h0a2.67,2.67,0,0,0-.24,1.15v.19a6.67,6.67,0,0,0,.07,1.61,13.53,13.53,0,0,0,.84,2.9l.16.43a12.39,12.39,0,0,0,1.46,2.88,18.77,18.77,0,0,0,1.88,2.11l.52.53h.08A4.36,4.36,0,0,0,85.49,64c.22-.24.44-.47.68-.69a7,7,0,0,1,.69-.53c.21-.15.43-.31.64-.49Z"/><path class="cls-8" d="M102.1,66a3.67,3.67,0,0,0-.14-1.36,17.78,17.78,0,0,1-.38-1.82,14.2,14.2,0,0,1-.21-1.84,1.69,1.69,0,0,0-.24-1.05h0v-.12a.21.21,0,0,0-.23-.19l-.07,0a15.25,15.25,0,0,1-5,.28,20.36,20.36,0,0,1-4.67-1.17,21,21,0,0,1-4.48-2.23,18.08,18.08,0,0,1-2-1.6l-.91-.8a1.23,1.23,0,0,0-.43-.28.14.14,0,0,0-.17-.12h-.56a9.5,9.5,0,0,1-1.41.05h-.12a20.33,20.33,0,0,0,2.26,5.72A14.88,14.88,0,0,0,85,62.32a9.79,9.79,0,0,0,1.09,1.14l.14-.12c.38-.33.88-.65,1.32-1a5.9,5.9,0,0,0,.07,1.39c0,.33.09.67.15,1a24.64,24.64,0,0,0,6.76,2.67h.4A30.41,30.41,0,0,0,99.18,67a8,8,0,0,0,2.93-.71A.18.18,0,0,0,102.1,66Z"/><path class="cls-10" d="M106,48.35h0a.17.17,0,0,0-.2-.13l-.09.05c.05,0,0,0-.06,0h-.38c-.29,0-.6-.1-.89-.16-.59-.12-1.16-.24-1.75-.34a47.82,47.82,0,0,0-6.09-.43c-2.1,0-4.18-.16-6.27-.12a25.24,25.24,0,0,0-2.75.2c-.48,0-1.31.08-1.6.53a.09.09,0,0,0,0,.12v0c-.13,4.89,1.26,9.94,5.07,13.25a16.4,16.4,0,0,0,5.79,3.1A10.13,10.13,0,0,0,100,65a5.35,5.35,0,0,0,3-1.14.22.22,0,0,0,.07-.24,4.84,4.84,0,0,0,1.09-1.6,19.47,19.47,0,0,0,1.21-4.36c.29-1.52.36-3.05.53-4.59A14.17,14.17,0,0,0,106,48.35Z"/><g class="cls-11"><path class="cls-12" d="M106,48.35h0a.17.17,0,0,0-.2-.13l-.09.05c.05,0,0,0-.06,0h-.38c-.29,0-.6-.1-.89-.16l-.69-.15a29,29,0,0,1-.43,7.5c-.28,1.78-.92,3.4-2.61,4.24a9.62,9.62,0,0,1-2.57.81,5.52,5.52,0,0,1-2.68,0c-1.6-.57-1.12-2.8-1.2-4.24a14.66,14.66,0,0,1-3.92-4,12.33,12.33,0,0,1-1.39-2.67,12.9,12.9,0,0,0-1-2.31l-.42,0c-.48.05-1.31.07-1.6.52a.11.11,0,0,0,0,.13v0c-.13,4.89,1.26,9.94,5.07,13.24a16.4,16.4,0,0,0,5.79,3.1,10.13,10.13,0,0,0,3.28.55,5.26,5.26,0,0,0,3-1.13.22.22,0,0,0,.07-.24,4.88,4.88,0,0,0,1.09-1.61,19.33,19.33,0,0,0,1.21-4.36c.29-1.52.36-3,.53-4.58A14.17,14.17,0,0,0,106,48.35Z"/></g><path class="cls-6" d="M125.6,56a13.42,13.42,0,0,0-2.1-5.35A14.56,14.56,0,0,0,120,47.16a30.75,30.75,0,0,0-4.71-2.74,12.32,12.32,0,0,0-5.53-1.21c-.33-.67-1.44-.92-2-1a17.71,17.71,0,0,0-4.24-.3h0a28.27,28.27,0,0,0-2.89-.54c-1.41-.23-2.82-.4-4.24-.49A37,37,0,0,0,92,40.65a9.74,9.74,0,0,0-3.21.58h0A9.21,9.21,0,0,0,82.26,45a9.77,9.77,0,0,0-1,8.16c1.5,5.49,6.08,9.61,11,12.2a25.4,25.4,0,0,0,3.43,1.49c.13,0,.2,0,.21-.16a5.74,5.74,0,0,0,1.78-1.92A12,12,0,0,0,99,62.05a25.33,25.33,0,0,0,.8-3.11,4.2,4.2,0,0,0,.18-2c0-.64-1-1-1.48-1.21s-1.22-.27-1.83-.41a23.49,23.49,0,0,1-2.84-.8,34.61,34.61,0,0,1-4.31-2,9.31,9.31,0,0,1-2.11-1.34c-.11-.58-.29-1.16-.32-1.28-.11-.4-.22-.81-.35-1.17.58-.08,1.14-.18,1.72-.22,1-.06,1.94,0,2.89,0h3.14a52.88,52.88,0,0,1,11.58,1h0c0,.09.12.09.17,0h0a0,0,0,0,0,0-.05.83.83,0,0,1,.07-.41c2.21-.12,4.1,1.25,5.55,2.81a13.24,13.24,0,0,1,2,2.86c.41.8,1.14,1.86,1,2.76a.22.22,0,0,0,.2.25h0a1.42,1.42,0,0,0,.74.35c.57.14,1.15.27,1.73.38a14.11,14.11,0,0,0,3.72.26,7.26,7.26,0,0,0,3.21-.89c.45-.25,1.24-.92,1.08-1.54a.17.17,0,0,0,.09-.23Z"/><path class="cls-4" d="M95.7,67h-.11a27,27,0,0,1-3.45-1.5c-3.33-1.79-9.23-5.71-11-12.31a9.89,9.89,0,0,1,1.05-8.26c1.39-2.06,3.57-3.3,6.63-3.79h0A10,10,0,0,1,92,40.52a38.91,38.91,0,0,1,4.18.13h.15c1.39.09,2.82.26,4.26.48h.1c.94.13,1.86.3,2.78.52h.84a18.79,18.79,0,0,1,3.43.32A3.06,3.06,0,0,1,109.85,43a12.34,12.34,0,0,1,5.51,1.21,30.79,30.79,0,0,1,4.71,2.83,14.77,14.77,0,0,1,3.51,3.5A13.73,13.73,0,0,1,125.7,56a.32.32,0,0,1-.08.28c.1.67-.7,1.34-1.16,1.6a7.51,7.51,0,0,1-3.2.91,15.27,15.27,0,0,1-3.76-.26c-.52-.1-1.09-.23-1.74-.39a1.57,1.57,0,0,1-.8-.35.37.37,0,0,1-.2-.12.31.31,0,0,1-.08-.27,4.11,4.11,0,0,0-.81-2.26l-.23-.42a13,13,0,0,0-2-2.84c-1.7-1.84-3.43-2.77-5.17-2.77h0v.29a.11.11,0,0,1,0,.08v.1h-.09a.24.24,0,0,1-.31-.06,53.51,53.51,0,0,0-11.49-1h-6a7,7,0,0,0-1.15.13l-.4.07c.11.3.19.62.28.93l0,.2c.07.22.19.68.28,1.14a9.76,9.76,0,0,0,2.06,1.29l.67.34A29.86,29.86,0,0,0,94,54.25a24.88,24.88,0,0,0,2.84.8l.57.12c.41.08.8.17,1.25.29s1.61.56,1.61,1.31a3.58,3.58,0,0,1-.11,1.78c0,.11,0,.21-.07.32a25.63,25.63,0,0,1-.8,3.13,11.54,11.54,0,0,1-1.32,2.74,6.11,6.11,0,0,1-1.8,1.92.27.27,0,0,1-.42.29ZM88.81,41.36c-3,.47-5.09,1.67-6.41,3.67a9.58,9.58,0,0,0-1,8C83.18,59.55,89,63.46,92.3,65.17a25.09,25.09,0,0,0,3.41,1.48h0v-.08h.07a5.59,5.59,0,0,0,1.76-1.86A11.15,11.15,0,0,0,98.83,62a23.64,23.64,0,0,0,.8-3.11l.07-.32A3.22,3.22,0,0,0,99.81,57h0c0-.48-.71-.87-1.38-1.08a11.25,11.25,0,0,0-1.24-.29l-.57-.11a26,26,0,0,1-2.87-.8A32.84,32.84,0,0,1,90.08,53l-.66-.35a10.34,10.34,0,0,1-2.16-1.36h0v-.05c-.08-.45-.21-.93-.27-1.15v-.2c-.1-.37-.21-.72-.32-1.08l0-.15h.15l.44-.22a11.53,11.53,0,0,1,1.18-.15h6a52.84,52.84,0,0,1,11.61,1h0a.76.76,0,0,1,.06-.36v-.09h.38c1.82,0,3.63,1,5.38,2.86a13.16,13.16,0,0,1,2,2.89l.23.42a4.25,4.25,0,0,1,.81,2.4,0,0,0,0,0,0,.06h.12v0a1.21,1.21,0,0,0,.67.3c.64.17,1.2.29,1.72.39a16.33,16.33,0,0,0,2.87.29h.8a7.33,7.33,0,0,0,3.11-.88c.47-.26,1.16-.88,1-1.39v-.1l.1,0a.06.06,0,0,0,0-.06,13.59,13.59,0,0,0-2.08-5.3,14.87,14.87,0,0,0-3.45-3.45,31.62,31.62,0,0,0-4.59-2.8,12.19,12.19,0,0,0-5.47-1.2h-.09v-.08c-.31-.64-1.5-.87-2-1a18.15,18.15,0,0,0-3.37-.32h-.88c-.9-.23-1.85-.38-2.77-.53h-.11c-1.43-.22-2.85-.38-4.23-.48h-.15a38.46,38.46,0,0,0-4.16-.13,9.79,9.79,0,0,0-3.13.57h-.14Z"/><path class="cls-8" d="M99,47c3.86-.08,7.91-1.3,10.22-4.38a5,5,0,0,0-1.46-.47,17.71,17.71,0,0,0-4.24-.3h0a28.27,28.27,0,0,0-2.89-.54c-1.41-.23-2.82-.4-4.24-.49A39.26,39.26,0,0,0,92,40.65a9.74,9.74,0,0,0-3.21.58h0a12.67,12.67,0,0,0-2.7.72C89,45.76,94.32,47.07,99,47Z"/><path class="cls-8" d="M99.74,56.36a5.89,5.89,0,0,0-2.11,1.12,10.83,10.83,0,0,0-2.14,2.63c-.49.8-1,2.19-2.1,2.3s-2.14-.63-3.07-1.12a25.38,25.38,0,0,1-3.34-2c-3.28-2.41-6-5.91-6.19-9.88a12.2,12.2,0,0,0,.43,3.66c1.51,5.49,6.08,9.62,11,12.2a27.41,27.41,0,0,0,3.43,1.5c.13,0,.2-.06.21-.16a5.9,5.9,0,0,0,1.8-1.92A12,12,0,0,0,99,62.05a25.33,25.33,0,0,0,.8-3.11,4.2,4.2,0,0,0,.18-2A.81.81,0,0,0,99.74,56.36Z"/><path class="cls-6" d="M86.22,48.71a23,23,0,0,1-1.6-2c.18,2.75,2.22,4.64,4.67,5.53a8.77,8.77,0,0,1-1.89-1.23,12.82,12.82,0,0,0-.32-1.29c-.11-.39-.22-.8-.35-1.16l.64-.1v-.08a8.78,8.78,0,0,0-.6-1.41,4.52,4.52,0,0,0-2.18-1.8,8.67,8.67,0,0,1,1.82,3.36C86.41,48.68,86.3,48.79,86.22,48.71Z"/><path class="cls-8" d="M117.59,54.91a10.22,10.22,0,0,0-4-5.78c-1.69-1-3.66-1.46-5.21-2.69a.11.11,0,0,1,0-.13c.31-.87.8-1.6,1.15-2.48-.68.56-1.39,1.11-2,1.74a7.9,7.9,0,0,0-2.18,3.66l.72.16h0c0,.09.12.09.17,0h0a.06.06,0,0,0,0-.06.87.87,0,0,1,.07-.41c2.21-.12,4.1,1.25,5.55,2.82a13.24,13.24,0,0,1,2,2.86c.41.8,1.14,1.86,1,2.76a.21.21,0,0,0,.2.24h0a1.43,1.43,0,0,0,.74.36c.57.13,1.15.27,1.73.37.26.06.52.1.8.14A20.42,20.42,0,0,0,117.59,54.91Z"/><path class="cls-9" d="M99.77,56.39A4.41,4.41,0,0,0,97,58.46,12.14,12.14,0,0,0,95.43,62a9.78,9.78,0,0,0-.36,2.64,4.37,4.37,0,0,0,.33,2.11l.26.11c.13,0,.2-.06.21-.16a5.77,5.77,0,0,0,1.76-1.92A12,12,0,0,0,99,62.05a25.33,25.33,0,0,0,.8-3.11,4.2,4.2,0,0,0,.18-2A.82.82,0,0,0,99.77,56.39Z"/><path class="cls-4" d="M95.7,67h-.11l-.24-.09h0l0,0A4,4,0,0,1,95,64.73v-.1A10.07,10.07,0,0,1,95.31,62,12.32,12.32,0,0,1,97,58.43a4.58,4.58,0,0,1,2.83-2.13h.07l0,.05a.9.9,0,0,1,.22.54,3.47,3.47,0,0,1-.11,1.78c0,.11,0,.21-.07.32a25.63,25.63,0,0,1-.8,3.13,11.54,11.54,0,0,1-1.32,2.74A5.9,5.9,0,0,1,96,66.78.27.27,0,0,1,95.7,67Zm-.24-.35.22.08h0V66.6h.07a5.72,5.72,0,0,0,1.76-1.87,11.54,11.54,0,0,0,1.29-2.67,25.17,25.17,0,0,0,.8-3.1l.07-.32A3.24,3.24,0,0,0,99.78,57h0a.6.6,0,0,0-.11-.34,4.45,4.45,0,0,0-2.57,2,12.21,12.21,0,0,0-1.61,3.45,9.93,9.93,0,0,0-.35,2.6v.1A4.11,4.11,0,0,0,95.46,66.6Z"/><path class="cls-9" d="M124.88,55.51a4.71,4.71,0,0,0-1.38-.86,7.33,7.33,0,0,0-3.4-.52A6.21,6.21,0,0,0,117,55.24a4.11,4.11,0,0,0-2,2.4h0a1.36,1.36,0,0,0,.74.36c.56.13,1.14.27,1.73.37a14.06,14.06,0,0,0,3.72.27,7.31,7.31,0,0,0,3.2-.89,2.28,2.28,0,0,0,1.08-1.21A2.5,2.5,0,0,0,124.88,55.51Z"/><path class="cls-4" d="M120.43,58.77a15.87,15.87,0,0,1-2.92-.28c-.52-.1-1.09-.23-1.74-.39a1.6,1.6,0,0,1-.8-.35h-.11v-.14a4.22,4.22,0,0,1,2-2.46A6.45,6.45,0,0,1,120.07,54a7.66,7.66,0,0,1,3.45.54,4.54,4.54,0,0,1,1.42.89,2.66,2.66,0,0,1,.74,1v.08a2.41,2.41,0,0,1-1.15,1.3,7.47,7.47,0,0,1-3.2.91C121,58.76,120.72,58.77,120.43,58.77Zm-5.25-1.23a1.22,1.22,0,0,0,.66.3c.64.16,1.2.29,1.72.38a15.43,15.43,0,0,0,2.87.29h.8a7.22,7.22,0,0,0,3.11-.87,2.34,2.34,0,0,0,1-1.09,2.33,2.33,0,0,0-.63-.92,4.67,4.67,0,0,0-1.34-.8,7.43,7.43,0,0,0-3.33-.52,6.16,6.16,0,0,0-3,1.1A4,4,0,0,0,115.18,57.54Z"/><path class="cls-13" d="M96.83,46.7c-1.37.52-2.41-.73-2.7-1.92a1.83,1.83,0,0,1,.36-1.71,2.77,2.77,0,0,1,1.33-.62c1.08.17,2.14.29,2.51,1.55A2.4,2.4,0,0,1,96.83,46.7Z"/><path class="cls-10" d="M113.1,34.24c-.09-.51-.57-.56-.72-1.15-.61-2.27-.24-4.73-1.26-6.91a8.93,8.93,0,0,0-4.48-4,23,23,0,0,0-6.25-1.73,14.84,14.84,0,0,0-5.9.08A9.09,9.09,0,0,0,89.58,24c-.65.8-1.29,1.61-2,2.41a7.86,7.86,0,0,1-1,1.17,5.24,5.24,0,0,1-1.48.58c-1,.41-1.33,1.67-1.55,2.61a12.19,12.19,0,0,0-.68,3.64,1.51,1.51,0,0,0,.66,1c.89.67.75,1.33,1.06,2.31a9.3,9.3,0,0,0,2.86,4,16.39,16.39,0,0,0,7.11,2.95c1.61.32,3.21.51,4.81.72a8.83,8.83,0,0,0,4-.12c2.05-.65,3.36-2.63,5.3-3.39a2.74,2.74,0,0,0,2-.42c.93-.73,1.48-2.57,1.8-3.64C112.8,36.6,113.37,35.51,113.1,34.24Z"/><path class="cls-12" d="M101.94,44.8A1.91,1.91,0,0,0,100.77,43a19.16,19.16,0,0,0-4.38-1.35,16.38,16.38,0,0,0-4.86-.7,2.73,2.73,0,0,0-1.89.8,3.63,3.63,0,0,0-.56,1,19.42,19.42,0,0,0,5.53,1.87c1.61.33,3.21.51,4.81.72a12.61,12.61,0,0,0,2.46.15A4.52,4.52,0,0,0,101.94,44.8Z"/><path class="cls-12" d="M105.64,27.29c-1.15.11-.86,2,.39,2.08a1.1,1.1,0,0,0,1-.32A.92.92,0,0,0,107,28,1.87,1.87,0,0,0,105.64,27.29Z"/><path class="cls-12" d="M110.07,29.69l-.15,0c-.64.21-.66,1.69-.14,2,.73.46.8-.72.75-1.15S110.4,29.82,110.07,29.69Z"/><path class="cls-12" d="M105.47,23.64A30.8,30.8,0,0,0,101.23,22a30.48,30.48,0,0,0-3.91-.81,5.82,5.82,0,0,0-3.72.37.67.67,0,0,0-.22.69c.16.4.8.26,1.17.26h1.21a27.56,27.56,0,0,1,5.19.94,18.64,18.64,0,0,1,4.73,1.78,20.69,20.69,0,0,1,2,1.33c.91.67,1-.21.91-.88A7.17,7.17,0,0,0,105.47,23.64Z"/><path class="cls-7" d="M84.43,31.92a9,9,0,0,1-1.05,3,1.43,1.43,0,0,0,1-.89,16.42,16.42,0,0,0,.57-1.67A7.31,7.31,0,0,0,85.4,30,1.46,1.46,0,0,0,84.92,29a1.78,1.78,0,0,1,0,1C84.8,30.62,84.56,31.25,84.43,31.92Z"/><path d="M84.92,29a.24.24,0,0,1,0,.12c.58.88,0,2.52-.2,3.39a6.43,6.43,0,0,1-.93,2.17,1.51,1.51,0,0,0,.54-.66,15.63,15.63,0,0,0,.57-1.67,7,7,0,0,0,.46-2.31A1.35,1.35,0,0,0,84.92,29Z"/><path class="cls-7" d="M111,37.29a5.39,5.39,0,0,1,1.09-2.64c-1-.08-1.53,1.79-1.85,2.78-.14.45-.28.91-.4,1.37a3.89,3.89,0,0,0-.25,1.35.69.69,0,0,0,.61.59.84.84,0,0,1,0-.74C110.45,39.1,110.8,38.21,111,37.29Z"/><path d="M110,39.39c.24-.89.57-1.73.8-2.61a4.72,4.72,0,0,1,.8-2c-.71.43-1.07,1.83-1.34,2.65-.14.45-.28.91-.4,1.37a3.67,3.67,0,0,0-.25,1.35.68.68,0,0,0,.52.57A1.63,1.63,0,0,1,110,39.39Z"/><path class="cls-12" d="M92.49,24a1.41,1.41,0,0,0-1.3.43,1.19,1.19,0,0,0,1.67,1.67,1.14,1.14,0,0,0-.37-2.1Z"/><path class="cls-5" d="M90,29.3c-1.38,3.12-4,8.07.06,12.18s11.84,3.94,14.75-1.16,3.07-7,1.86-8.38-4.81-5-13.81-4.55A2.92,2.92,0,0,0,90,29.3Z"/><path class="cls-5" d="M90.91,29.09c2.69-1.66,6.32-.8,9.15.11a9.38,9.38,0,0,1,5.61,4.06,7.09,7.09,0,0,1,.87,3.52c1.09-2.57.93-3.85.06-4.81-1.21-1.37-4.81-5-13.81-4.55a2.94,2.94,0,0,0-2.86,1.91c-.14.34-.3.69-.47,1.06A6,6,0,0,1,90.91,29.09Z"/><path class="cls-12" d="M87.93,28.8c-.08.35-.27.61-.43.57s-.21-.35-.13-.7.27-.62.42-.58S88,28.44,87.93,28.8Z"/><path class="cls-12" d="M86.85,32.2c-.08.35-.27.6-.42.57s-.21-.35-.14-.7.28-.62.44-.58S86.94,31.83,86.85,32.2Z"/><path class="cls-12" d="M110.72,34.18c-.12.33-.35.56-.49.51s-.17-.37,0-.71.34-.58.5-.53S110.84,33.83,110.72,34.18Z"/><path class="cls-12" d="M109.23,37.21c-.13.34-.34.57-.49.52s-.17-.37,0-.72.34-.57.49-.52S109.36,36.85,109.23,37.21Z"/><path class="cls-5" d="M106.64,55c-.74-.63-1.65-1.69-2.71-1.69s-1.61,1.11-2.18,1.7-1,.9-1.48,1.42l-.32.35-.41-.13-.33-.13A5.1,5.1,0,0,0,97,58.46c-.23.34-.44.7-.64,1.06a7.62,7.62,0,0,0,1.43.14h.74A1.43,1.43,0,0,0,99,60.93a1.81,1.81,0,0,0,1.8.41,4.42,4.42,0,0,0,2-1.2,7.56,7.56,0,0,0,.58-.69,1.68,1.68,0,0,0,.3.15,1.35,1.35,0,0,0-.68.67c-.15.28-.26.93.19,1,.63.15,1.2-.43,1.56-1.11a1.63,1.63,0,0,0,1-.9,2.55,2.55,0,0,0,.2-.48,2.62,2.62,0,0,0,.8-1.69C107.1,56.44,107.37,55.64,106.64,55Z"/><path class="cls-6" d="M103.24,59.46a12.94,12.94,0,0,0,1.86-2.83,6.47,6.47,0,0,0,.71-2.4,3.07,3.07,0,0,0-1.87-.93c-.92,0-1.6,1.11-2.17,1.7s-1,.9-1.48,1.43c-.11.11-.22.22-.32.34h0a6.07,6.07,0,0,0-.89,1.37A6.65,6.65,0,0,0,98.56,60a1.73,1.73,0,0,0,.46,1,1.84,1.84,0,0,0,1.81.41,4.45,4.45,0,0,0,2-1.2,5,5,0,0,0,.47-.56A.11.11,0,0,1,103.24,59.46Z"/><path class="cls-4" d="M100.18,61.56h0A1.66,1.66,0,0,1,98.89,61a1.82,1.82,0,0,1-.5-1,6.7,6.7,0,0,1,.53-1.91,6.37,6.37,0,0,1,.9-1.39l.08-.11h0l.06-.05.18-.2a10.61,10.61,0,0,1,.85-.8c.22-.2.44-.4.64-.61l.38-.42c.49-.58,1.11-1.31,1.89-1.31a3.18,3.18,0,0,1,2,1h0v.07a6.5,6.5,0,0,1-.73,2.4,12.13,12.13,0,0,1-1.89,2.86l.06.08-.06,0a6.57,6.57,0,0,1-.48.57,4.52,4.52,0,0,1-2,1.29A2,2,0,0,1,100.18,61.56Zm-.2-4.63a6.3,6.3,0,0,0-.81,1.28,6.6,6.6,0,0,0-.5,1.8,1.54,1.54,0,0,0,.43.85,1.51,1.51,0,0,0,1.1.44h0a2.78,2.78,0,0,0,.57-.07,4.06,4.06,0,0,0,1.89-1.17,4.81,4.81,0,0,0,.42-.48.29.29,0,0,1,.06-.22A11.73,11.73,0,0,0,105,56.57a6.18,6.18,0,0,0,.69-2.27,2.86,2.86,0,0,0-1.71-.85c-.67,0-1.23.65-1.71,1.22-.13.16-.26.31-.38.43s-.44.43-.66.63a10.06,10.06,0,0,0-.8.8l-.19.21-.19.2Z"/><path class="cls-5" d="M122.63,55.64h0a5,5,0,0,1-.16-.51l0-.31a1.57,1.57,0,0,0,0-.43,7,7,0,0,0-2.33-.18,5.06,5.06,0,0,0-1,.17,3.29,3.29,0,0,0,.12.61c0,.2.11.59.16.88a4.65,4.65,0,0,0-1.49,1.37,3.75,3.75,0,0,0-.86,2,2.12,2.12,0,0,0,.48,1.74,1.07,1.07,0,0,0,.42.28,2.28,2.28,0,0,0-.08,1.07,1.58,1.58,0,0,0,1.06,1,1.34,1.34,0,0,0,1.38-.05h.06a1.21,1.21,0,0,0,1.21-.18,1.53,1.53,0,0,0,.17-.27c.36.41,1.09,0,1.53-.51.8.37,1.6-1.9,1.69-2.4A4.21,4.21,0,0,0,122.63,55.64Z"/><path class="cls-6" d="M122.75,55.64A4.25,4.25,0,0,0,120,55.5a3.8,3.8,0,0,0-1.16.57,8,8,0,0,0-1,1.17,3.75,3.75,0,0,0-.86,2,2.12,2.12,0,0,0,.48,1.74,1.07,1.07,0,0,0,.42.28h0a1.68,1.68,0,0,0,.89,0,.11.11,0,0,1,.14.07.22.22,0,0,1,0,.08c1,1,3,.46,4.07-.07a5.17,5.17,0,0,0,2-1.69A4.27,4.27,0,0,0,122.75,55.64Z"/><path class="cls-4" d="M120.48,62.13h0a2.32,2.32,0,0,1-1.69-.58l-.07-.07v0a1.79,1.79,0,0,1-.92,0l-.13,0h0a1.37,1.37,0,0,1-.37-.26,2.29,2.29,0,0,1-.5-1.85,3.82,3.82,0,0,1,.89-2.08l.24-.29a5.07,5.07,0,0,1,.8-.87,3.28,3.28,0,0,1,1-.54l.15-.06a4,4,0,0,1,5,2.53,4,4,0,0,1,.16,1.79v.06A5.35,5.35,0,0,1,123,61.55,6.5,6.5,0,0,1,120.48,62.13ZM119,61.4a2.12,2.12,0,0,0,1.45.46,6.07,6.07,0,0,0,2.4-.6,5.07,5.07,0,0,0,2-1.61,3.7,3.7,0,0,0-3.17-4.16,3.8,3.8,0,0,0-1.64.15l-.15.06a3.24,3.24,0,0,0-1,.5,5.62,5.62,0,0,0-.74.8l-.24.3a3.49,3.49,0,0,0-.8,1.94,2,2,0,0,0,.44,1.6,1,1,0,0,0,.38.25l.13.06a1.83,1.83,0,0,0,.66,0h.07a.24.24,0,0,1,.2.11A.61.61,0,0,1,119,61.4Z"/><path class="cls-7" d="M120.49,60h0a2.05,2.05,0,0,1,.37,1,3.06,3.06,0,0,1-.12,1,5.54,5.54,0,0,1-.37.87c-.18.33-.45.43-.7.68a0,0,0,0,0,0,.06v0c.8.06,1.11-1,1.27-1.56S121.16,60.31,120.49,60Z"/><path class="cls-7" d="M122.35,60.45h0a2.31,2.31,0,0,1-.08,1.35,3.37,3.37,0,0,1-.89,1.25c0,.06,0,.12.07.09A2,2,0,0,0,122.35,60.45Z"/><path class="cls-7" d="M123.72,60.29h0a3.72,3.72,0,0,1-.19,1.28c-.13.48-.48.72-.76,1.11a.06.06,0,0,0,0,.07h0a1.73,1.73,0,0,0,.87-1A2.27,2.27,0,0,0,123.72,60.29Z"/><path class="cls-7" d="M119,61.44a1.66,1.66,0,0,0-.89-2h0a1.54,1.54,0,0,1,.68,1,3,3,0,0,1,0,.94.57.57,0,0,0-.51,0h0a1.31,1.31,0,0,0,.46.15h.11a2.88,2.88,0,0,1,.39.3,0,0,0,0,0,0,0l0,0A.65.65,0,0,0,119,61.44Z"/><path class="cls-7" d="M104.08,59.58l-.55-.2a1.91,1.91,0,0,1-.28-.15c-.07,0-.16,0-.24-.1h0a.94.94,0,0,0,.19.21,2,2,0,0,0,.33.24.67.67,0,0,0,.57.06,0,0,0,0,0,0-.06Z"/><path class="cls-7" d="M105.13,58.42a1.43,1.43,0,0,0-1.41-.86h0c.62.24,1.29.55,1.09,1.37-.07.29-.11.57-.2.85a2,2,0,0,0-.16.6s0,0,.07,0a1.69,1.69,0,0,0,.43-.89A2.44,2.44,0,0,0,105.13,58.42Z"/><path class="cls-7" d="M106.12,57.48a2.43,2.43,0,0,0-1.61-1.34h0a3.54,3.54,0,0,1,1.28,1.18c.39.59,0,1.34-.11,2m.07,0a2.12,2.12,0,0,0,.37-1.79Z"/><path class="cls-7" d="M106.63,55.9a2.06,2.06,0,0,0-1.89-.8h0a3.27,3.27,0,0,1,1.61.85,1.91,1.91,0,0,1,.17,1.81s0,.07.06,0A1.8,1.8,0,0,0,106.63,55.9Z"/><path class="cls-5" d="M58.51,48.28a11.1,11.1,0,0,0,1.12-1.91,13.35,13.35,0,0,0,.72-1.91,5.2,5.2,0,0,1-1.61-.63c-.52-.33-.61-.89-.93-1.38a1.93,1.93,0,0,0-1-.66c-1.14-.47-2.28-.92-3.42-1.37a4.79,4.79,0,0,0-2.54-.57h0c-.15-.14-.28-.3-.44-.43a1.1,1.1,0,0,0-.92-.37.65.65,0,0,0-.51.73.14.14,0,0,0,0,.09,1,1,0,0,0-.29-.07c-.48,0-.63.56-.48,1a.89.89,0,0,0-.62.13.69.69,0,0,0,0,.91.67.67,0,0,0-.34.1.49.49,0,0,0-.16.62s.06.1.1.16c-.64.19-1.17,1-.68,1.61a2.36,2.36,0,0,0,1.26.63,3.64,3.64,0,0,0,.8.15,8,8,0,0,0,2.4,1c1.15.35,2.29.73,3.47,1a13,13,0,0,1,3.41.89Z"/><path class="cls-7" d="M48.27,43.12c-.41-.13-.87-.46-1.31-.38-.27,0-.7.41-.65.71h0c.16-.12,0-.05.22-.26a.66.66,0,0,1,.85-.16l.8.33A.13.13,0,0,0,48.27,43.12Z"/><path class="cls-7" d="M48.66,42.31a1.75,1.75,0,0,0-1-.48.79.79,0,0,0-.43,0c-.17.09-.16.17-.22.33h0c.24-.54,1.2.09,1.49.3a.1.1,0,0,0,.13-.05A.09.09,0,0,0,48.66,42.31Z"/><path class="cls-7" d="M49.17,41.21c-.54-.29-1.22-.8-1.71-.15h0c.43-.52,1.18.16,1.6.37C49.19,41.52,49.33,41.29,49.17,41.21Z"/><path class="cls-7" d="M49.69,40.41a2,2,0,0,0-.8-.62c-.3-.12-.49,0-.66.27h0c.42-.51,1,.26,1.32.5C49.63,40.6,49.74,40.48,49.69,40.41Z"/><path class="cls-6" d="M58.22,46.82a11.43,11.43,0,0,0,1.38-2.58,4.07,4.07,0,0,1-.87-.41h0a3.1,3.1,0,0,1-2.87-.69c-.47-.44-.73-1.52-.25-1.83l-2.21-.88a6,6,0,0,0-2.1-.6,3.74,3.74,0,0,0-2.41,1.69,4.88,4.88,0,0,0-.8,2,5.1,5.1,0,0,0,0,1.46l.37,0a8.07,8.07,0,0,0,2.41,1c1.14.35,2.28.73,3.46,1a16.26,16.26,0,0,1,3.08.74A8.17,8.17,0,0,0,58.22,46.82Z"/><path class="cls-4" d="M57.55,47.93h-.09a9.5,9.5,0,0,0-2.11-.55c-.32-.05-.64-.11-1-.18a28.81,28.81,0,0,1-2.79-.8l-.68-.22-.22-.06a7.46,7.46,0,0,1-2.23-.9,2.14,2.14,0,0,1-.35-.06H48v-.08a4.66,4.66,0,0,1,0-1.49,5,5,0,0,1,.81-2.11,3.85,3.85,0,0,1,2.46-1.74h0a5.46,5.46,0,0,1,2,.54l.17.06c.75.29,1.49.58,2.21.88l.25.1-.22.14a.51.51,0,0,0-.19.39A1.71,1.71,0,0,0,56,43a3,3,0,0,0,2.75.67h0l.12.06a4.17,4.17,0,0,0,.81.36l.12.05,0,.13a12.31,12.31,0,0,1-1.4,2.6,10.56,10.56,0,0,1-.8,1Zm-9.28-3h.26a7.06,7.06,0,0,0,2.14.9l.22.07.69.21c.9.28,1.83.57,2.76.8l.94.18a9.29,9.29,0,0,1,2.09.53c.26-.3.49-.62.67-.87a12.26,12.26,0,0,0,1.32-2.41,4.52,4.52,0,0,1-.74-.35,2.69,2.69,0,0,1-.8.09,3.18,3.18,0,0,1-2.18-.8,2,2,0,0,1-.53-1.45.86.86,0,0,1,.15-.43l-2-.8-.17-.07A5.53,5.53,0,0,0,51.19,40a3.59,3.59,0,0,0-2.28,1.6,4.85,4.85,0,0,0-.8,2A4.85,4.85,0,0,0,48.27,44.9Z"/><path class="cls-2" d="M27.09,51.87a31.43,31.43,0,0,0,3.77,5.9h-1.6s-2.86-4.37-3.21-5.9Z"/><path class="cls-14" d="M29.17,57.94l0-.06c-.12-.18-2.87-4.4-3.21-5.94l0-.16h1.33v.08A31.87,31.87,0,0,0,31,57.72l.18.22Zm-3-5.91a34.47,34.47,0,0,0,3.1,5.61h1.3A31.9,31.9,0,0,1,27,52Z"/><path class="cls-2" d="M30.36,52.66l-6.52,4.58a5.25,5.25,0,0,0-.43.76.5.5,0,0,0,.56.09A33.63,33.63,0,0,0,31.27,53Z"/><path class="cls-14" d="M23.75,58.28a.61.61,0,0,1-.43-.17l-.08-.06,0-.09a7.07,7.07,0,0,1,.45-.8h0l6.53-4.61h.05l1.17.42-.16.15A33.36,33.36,0,0,1,24,58.26.67.67,0,0,1,23.75,58.28ZM23.57,58a.4.4,0,0,0,.34,0A33.88,33.88,0,0,0,31,53l-.63-.24L24,57.33C23.83,57.54,23.69,57.75,23.57,58Z"/><path class="cls-2" d="M26.61,67.13c-.8-.39-1.53-.81-2.33-1.17a3.69,3.69,0,0,0-1.92-.44.11.11,0,0,0-.08.14.11.11,0,0,0,.08.08,15,15,0,0,1,4.06,1.72C26.63,67.61,26.84,67.24,26.61,67.13Z"/><path class="cls-2" d="M26.72,65.26A5.31,5.31,0,0,0,25,64.17a6.42,6.42,0,0,0-1.26-.55,2.05,2.05,0,0,0-1.14-.22.11.11,0,0,0-.07.13.12.12,0,0,0,.07.07,8.81,8.81,0,0,1,2.36,1,6.41,6.41,0,0,1,1.46.89.18.18,0,0,0,.24,0l0,0h0A.23.23,0,0,0,26.72,65.26Z"/><path class="cls-2" d="M26.68,62.7a1.91,1.91,0,0,0-.47-.38,6.89,6.89,0,0,0-1.26-.8c-.54-.28-1.18-.81-1.83-.67a.06.06,0,0,0,0,.08.08.08,0,0,0,0,0,14.23,14.23,0,0,1,1.83.92c.32.17.62.4.93.6l.35.26c.12.08.12.17.13,0a.18.18,0,0,0,.16.16h0a.17.17,0,0,0,.16-.17Z"/><path class="cls-2" d="M27.09,60a3.17,3.17,0,0,0-1.34-.85A4.44,4.44,0,0,0,24,58.53c-.06,0-.07.08,0,.12a14.62,14.62,0,0,0,1.42.73,6,6,0,0,1,1.38.85C27,60.36,27.2,60.18,27.09,60Z"/><path class="cls-14" d="M27.09,58.69c-.75.35-1.54.58-2.3,1-.51.24-1.54.6-1.72,1.21,0,.14.14.19.21.09a2.48,2.48,0,0,1,.93-.63l1.3-.65a11.8,11.8,0,0,1,1.29-.49c.16,0,.44-.09.5-.26a.15.15,0,0,0-.07-.21A.23.23,0,0,0,27.09,58.69Z"/><path class="cls-14" d="M27,60.22a25.2,25.2,0,0,0-3,1.83,10.23,10.23,0,0,0-1.09.88.71.71,0,0,0-.31.64.11.11,0,0,0,.15,0,.12.12,0,0,0,.05,0,5.14,5.14,0,0,1,1.88-1.52,27.66,27.66,0,0,1,2.5-1.52C27.49,60.4,27.21,60.06,27,60.22Z"/><path class="cls-14" d="M26.52,62.91c-1.42.71-3.21,1.27-4.09,2.68a.08.08,0,0,0,0,.11.09.09,0,0,0,.1,0,3.31,3.31,0,0,0,.74-.55,7,7,0,0,1,1.18-.8c.73-.4,1.51-.71,2.24-1.1A.19.19,0,0,0,26.52,62.91Z"/><path class="cls-14" d="M26.4,65.19a8,8,0,0,0-2.4,1,4.6,4.6,0,0,0-2,1.6.06.06,0,0,0,0,.08,0,0,0,0,0,.06,0,2.06,2.06,0,0,0,.66-.44,5.9,5.9,0,0,1,1.07-.72c.34-.19.71-.35,1.07-.51a5.85,5.85,0,0,1,1.53-.56C26.64,65.53,26.64,65.16,26.4,65.19Z"/><path class="cls-4" d="M33.91,63.46c-.32-1-.65-2-.93-2.94a36.28,36.28,0,0,1-1.21-6h0c-.25,1.9.41,4,.92,5.82.29,1.06.64,2.1,1,3.15A7.94,7.94,0,0,0,34.92,66h0C34.68,65.11,34.2,64.32,33.91,63.46Z"/><path class="cls-4" d="M25.53,53.93a5.33,5.33,0,0,0-1.13,1.61c-.38.75-.75,1.5-1.12,2.26a21.22,21.22,0,0,0-.8,2.05,6.37,6.37,0,0,0-.47,2.4h0a14.88,14.88,0,0,1,1.54-4.48,31.22,31.22,0,0,1,2-3.73.07.07,0,1,0-.09-.11Z"/><path class="cls-4" d="M33.42,78.08a23,23,0,0,0-2.65,2.84,5.89,5.89,0,0,0-1.53,2.81s.06,0,.07,0a10.11,10.11,0,0,1,1.88-2.9c.8-.9,1.47-1.86,2.27-2.73C33.5,78.08,33.45,78.08,33.42,78.08Z"/><path class="cls-4" d="M21.84,91.36a7,7,0,0,1-.45-1.68c0-.05-.08-.05-.09,0-.3,1,.51,2.22,1.06,3h.09C22.28,92.24,22.05,91.8,21.84,91.36Z"/><path class="cls-6" d="M56.67,58.69a14.57,14.57,0,0,0-.87-3,3.41,3.41,0,0,0-1-1.46.21.21,0,0,0-.23-.18h0a15.05,15.05,0,0,0-3.15,1c-1.11.43-2.25.75-3.36,1.17A57.67,57.67,0,0,0,41.7,59a40.74,40.74,0,0,0-5.94,3.67c-.8.64-1.61,1.35-2.41,2a10.22,10.22,0,0,0-2.07,2,9.79,9.79,0,0,0-1.53.06,15.7,15.7,0,0,0-2.27.44A15.16,15.16,0,0,0,23.36,69a12.51,12.51,0,0,0-3.21,2.9,3.34,3.34,0,0,0-.63,1.38,2,2,0,0,0-.07.49A8.69,8.69,0,0,0,19.51,78c.43,2.41,1,4.73,1.6,7,.35,1.33.72,2.65,1.09,4v.06a4.83,4.83,0,0,0-.87.39.16.16,0,0,0-.08.19c.1.26.18.53.26.8l-.33.38c-.48.52-1,.94-1.49,1.49a13.44,13.44,0,0,0-1.35,2c-.8,1.45-1.48,3-2.24,4.47a13.55,13.55,0,0,0-1.61,4h0c0,.58,1,.85,1.46,1,1.11.47,2.32.73,3.46,1.09a21.72,21.72,0,0,0,3.58.67,18.07,18.07,0,0,0,1.81.14.17.17,0,0,0,.23,0,.12.12,0,0,0,0,0,18.75,18.75,0,0,0,2.8-5.84c1-2.67,1.93-5.33,2.8-8a38.81,38.81,0,0,0,1.22-4.07A14.49,14.49,0,0,0,32.1,84,37.21,37.21,0,0,0,31.74,80a18.41,18.41,0,0,1,2.69-2.75,66.18,66.18,0,0,1,14.62-9.11,22.38,22.38,0,0,1,4.12-1.52,15.53,15.53,0,0,0,3.58-1.13l.42-.12a.2.2,0,0,0,.14-.14A17.41,17.41,0,0,0,56.67,58.69Z"/><path class="cls-8" d="M55.08,61.87a66.54,66.54,0,0,0-9.62,3.75,89.73,89.73,0,0,0-9,4.57,59.24,59.24,0,0,0-7.34,5.37,24.34,24.34,0,0,0-5.61,6.6c.91-.59,1.61-1.47,2.67-1.78.07,0,.15,0,.15.09A12.06,12.06,0,0,1,26,82.79a6.31,6.31,0,0,0,.07,2.08c.18,1,.66,2.32.13,3.26a.12.12,0,0,1-.12.07,13,13,0,0,0-2.4-.51A10.82,10.82,0,0,0,26,91c.08.09,0,.19-.13.17a11.67,11.67,0,0,0-2.4-.88c.2,1.19.9,2.21,1.21,3.36a.12.12,0,0,1-.08.14.1.1,0,0,1-.09,0,9.22,9.22,0,0,1-3.1-3.2s0,0-.06.06a23.57,23.57,0,0,0,1,3,5.16,5.16,0,0,1,.32,3.08c-.48,1.42-1.28,2.68-1.82,4.07A15.28,15.28,0,0,0,19.69,105a23.21,23.21,0,0,0,3.39.62,17.83,17.83,0,0,0,1.82.15.17.17,0,0,0,.23,0l.05,0A19.12,19.12,0,0,0,28,99.89c1-2.67,1.94-5.33,2.81-8A40.56,40.56,0,0,0,32,87.81a14.49,14.49,0,0,0,.2-3.89A37.21,37.21,0,0,0,31.84,80a18.36,18.36,0,0,1,2.59-2.7,66.18,66.18,0,0,1,14.62-9.11,22.38,22.38,0,0,1,4.12-1.52,15.53,15.53,0,0,0,3.58-1.13l.42-.12a.2.2,0,0,0,.14-.14,12.55,12.55,0,0,0-.1-4C56.49,61.47,55.79,61.66,55.08,61.87Z"/><path class="cls-15" d="M13.23,66.49a.19.19,0,0,0-.15-.2H13c-.51-.34-2.11-1.6-2.75-.85a.09.09,0,0,0-.07,0c-.49.37-.8.18-1.34,0a1.25,1.25,0,0,0-1.06.22,4.88,4.88,0,0,0-1.95,1.74,1.89,1.89,0,0,0,.41,2,1.29,1.29,0,0,0,.43,1.35,1.41,1.41,0,0,0,.69.31.81.81,0,0,0,1,1c0,.24.52.5.71.5a1.2,1.2,0,0,0,.86-.3,2,2,0,0,0,.59-.67,1.94,1.94,0,0,0,1.42,0,1.66,1.66,0,0,0,.74-2h0c0-.35-.22-.62-.34-1,.1-.28.2-.54.32-.8a2,2,0,0,1,.53-.81.15.15,0,0,0,.08-.11C13.47,66.78,13.35,66.62,13.23,66.49Z"/><path class="cls-6" d="M6.85,67.93a1.52,1.52,0,0,1,.92-.73.81.81,0,0,1,.8.15,1,1,0,0,1,.14.94.44.44,0,0,1,.53.18,1.44,1.44,0,0,1,.22.69,4.89,4.89,0,0,1,.8.31,2.21,2.21,0,0,1,.87.31,1.37,1.37,0,0,1,1.28-.24,1.87,1.87,0,0,1,.39.22.64.64,0,0,0-.06-.18h0c0-.35-.21-.62-.33-1a7,7,0,0,1,.32-.8,1.89,1.89,0,0,1,.52-.81.15.15,0,0,0,.08-.11c.12-.13,0-.29-.1-.43a.16.16,0,0,0-.14-.19H13c-.52-.33-2.11-1.6-2.75-.84H10.2c-.49.36-.81.17-1.34,0a1.22,1.22,0,0,0-1.06.21,5.06,5.06,0,0,0-2,1.74l0,.13A1.3,1.3,0,0,1,6.85,67.93Z"/><path class="cls-4" d="M13,70.07l-.3-.23a1.31,1.31,0,0,0-.36-.21,1.18,1.18,0,0,0-1.14.23l-.09.06-.06,0a1.47,1.47,0,0,0-.63-.24l-.19,0-.32-.14a1.66,1.66,0,0,0-.46-.19h-.1V69a1,1,0,0,0-.17-.5.34.34,0,0,0-.4-.13l-.27.06.07-.23a.85.85,0,0,0-.1-.8.54.54,0,0,0-.4-.15,1.31,1.31,0,0,0-.28,0A1.38,1.38,0,0,0,7,68l-.09.14L6.8,68a1.18,1.18,0,0,0-1-.33H5.6l.06-.21.06-.15a5.08,5.08,0,0,1,2-1.78,1.53,1.53,0,0,1,.8-.29,1.26,1.26,0,0,1,.33,0l.17.07a1,1,0,0,0,1,0,.13.13,0,0,1,.09,0,.78.78,0,0,1,.61-.26,4.41,4.41,0,0,1,2.09,1l.17.12a.31.31,0,0,1,.26.1.45.45,0,0,1,.07.18c.22.27.15.45.08.54a.27.27,0,0,1-.13.17,1.74,1.74,0,0,0-.44.69v.07l-.11.25a3.57,3.57,0,0,0-.19.45c0,.09.09.18.13.28a1.26,1.26,0,0,1,.21.66l0,.19ZM9.59,69a2.65,2.65,0,0,1,.42.18l.27.12h.19a2.18,2.18,0,0,1,.66.24,1.43,1.43,0,0,1,1.31-.21l.17.07a1.08,1.08,0,0,0-.18-.48,3.73,3.73,0,0,1-.16-.35h0v0a3.49,3.49,0,0,1,.22-.53l.11-.24v-.06a2,2,0,0,1,.55-.81h0l.08-.07c0-.06,0-.17-.1-.25l0,0v-.1H13l-.23-.16a4.26,4.26,0,0,0-1.92-1,.56.56,0,0,0-.45.19h-.1A1.26,1.26,0,0,1,9,65.61l-.16,0a1.07,1.07,0,0,0-.93.24A5,5,0,0,0,6,67.41a1.41,1.41,0,0,1,.8.32,1.54,1.54,0,0,1,.91-.67.92.92,0,0,1,1,.2,1,1,0,0,1,.2.88.61.61,0,0,1,.48.25,1.21,1.21,0,0,1,.21.61Z"/><path class="cls-7" d="M10.65,68.89a3.28,3.28,0,0,1-.8-.22A1.73,1.73,0,0,1,9.22,68h0a1.17,1.17,0,0,0,1.33,1l.13,0Z"/><g class="cls-16"><path class="cls-15" d="M11.25,69.59A4.9,4.9,0,0,1,10,69.37c-.15-.05-.3-.13-.45-.19h0a1.08,1.08,0,0,0-.24-.76.5.5,0,0,0-.51-.16,1.37,1.37,0,0,0,.08-.35c.16-1.13-1.7-.9-1.94-.12l-.16-.1a.48.48,0,0,0-.37,0h0a.73.73,0,0,1,.37.21.26.26,0,0,0,.09.16H7a2.25,2.25,0,0,1,.8-.6,1.06,1.06,0,0,1,.5,0c.5.09.3.74.16,1a2,2,0,0,1-2.17.85h0c.36.41,1,.23,1.46,0a2.12,2.12,0,0,0,1-.91.42.42,0,0,1,.45.21,1.07,1.07,0,0,1,.13.53A1.27,1.27,0,0,0,9,69a.52.52,0,0,0-.43.15h0a.93.93,0,0,0,0,1h0a1.41,1.41,0,0,1-1.93.45l-.07,0h0a1.55,1.55,0,0,0,1.07.4,1.57,1.57,0,0,0,1.07-.69,2.12,2.12,0,0,0,.34.39,2.76,2.76,0,0,0,.37.31.89.89,0,0,0-.22.29,1.78,1.78,0,0,1-.32.35,1.08,1.08,0,0,1-1.06.24h0a.87.87,0,0,0,1,0c.27-.16.68-.44.65-.8a2.81,2.81,0,0,0,1.7.57h0c-.9-.4-2.53-.86-2.63-2,.24-.8,1-.19,1.52,0a2.16,2.16,0,0,0,.87.15,1.93,1.93,0,0,0-.35.35s0,.06.05,0c.59-.48,1.55-.93,2,0h0C12.66,69.19,11.86,69.27,11.25,69.59Z"/></g><path class="cls-6" d="M48.44,67.9c0-.21-.28-.46-.39-.58A19,19,0,0,0,46.71,66c-1.09-1-2.16-2.12-3.2-3.2a19.37,19.37,0,0,1-2.18-2.93c-.64-1-1.36-2-1.95-3s-1-2-1.51-3l-.19-.34a6.91,6.91,0,0,0-.38-1.69A4.48,4.48,0,0,0,34.9,49l-.21-.14a7.35,7.35,0,0,0-1.55-.8,6.42,6.42,0,0,0-3.74-.51.15.15,0,0,0-.11-.08c-.4,0-.55.37-.7.69a3.32,3.32,0,0,1-1.17,1.4,4.37,4.37,0,0,0-1,.88c-.43.18-.8.39-1.27.55A15.09,15.09,0,0,0,22.76,52a43.17,43.17,0,0,0-9.41,7.21,24.46,24.46,0,0,0-1.94,2.25c-.64.8-1.39,1.6-2,2.46-.06.08,0,.16.1.16a9.2,9.2,0,0,0,1.7,3,16.73,16.73,0,0,0,1.37,1.42c.5.46,1.09.8,1.61,1.24a.12.12,0,0,0,.07.16.12.12,0,0,0,.15-.07,2.56,2.56,0,0,1,.43-.44,10.3,10.3,0,0,0,.81-.94c.46-.56,1-1.08,1.46-1.6.94-1,1.83-2.13,2.83-3.11.71-.71,1.48-1.34,2.21-2A17.47,17.47,0,0,0,21.67,65c-.09.91-.17,1.82-.26,2.73,0,.32-.05.64-.06,1-.41.5-.8,1-1.19,1.6a22.32,22.32,0,0,0-1.3,2.15,8.33,8.33,0,0,0-1,2.14,0,0,0,0,0,0,0,.13.13,0,0,0,.14.08,5.24,5.24,0,0,1,1.72.11c.62.09,1.24.15,1.87.18a17.76,17.76,0,0,0,3.85-.3,12,12,0,0,0,3.12-1.06.06.06,0,0,0,.06,0v-.08h0a3.63,3.63,0,0,0,.06-1.23,12.92,12.92,0,0,1,.13-1.86,6.06,6.06,0,0,1,1.31-2.78c.51-.64,1.15-1.13,1.71-1.73l.73-.8c.24-.18.48-.35.73-.51a.11.11,0,0,0,0-.11h0a2.85,2.85,0,0,0,.35-1.37c.21.65.47,1.29.72,1.91a30.87,30.87,0,0,0,1.95,3.74,25.76,25.76,0,0,0,2.41,3.43,19.15,19.15,0,0,0,2.29,2.47.11.11,0,0,0,0,.15h0c.69.36,1.53-.31,2-.72a28.36,28.36,0,0,0,2.56-2.46C46,71.41,49,68.54,48.44,67.9Z"/><path class="cls-4" d="M22.15,75.11h-.52a16.85,16.85,0,0,1-1.88-.18h-.27a4.4,4.4,0,0,0-1.4-.08h0a.24.24,0,0,1-.21-.11h0l0,0V74.6a8.18,8.18,0,0,1,.91-2.26A24.39,24.39,0,0,1,20,70.07c.4-.56.81-1.07,1.17-1.55,0-.3,0-.61.06-.91l.1-1c.05-.56.1-1.13.16-1.69a20,20,0,0,1,.41-2.78l-.48.44A18.14,18.14,0,0,0,20,63.8c-.69.68-1.34,1.42-2,2.13-.28.33-.57.66-.87,1s-.33.37-.5.54c-.32.35-.64.71-.95,1.07l-.25.32a4.65,4.65,0,0,1-.53.63l-.14.13a.9.9,0,0,0-.27.28.27.27,0,0,1-.37.06l-.07-.06a.28.28,0,0,1,0-.12c-.21-.17-.44-.33-.65-.49a9,9,0,0,1-.91-.72,14.36,14.36,0,0,1-1.38-1.43,9.38,9.38,0,0,1-1.71-3A.34.34,0,0,1,9.27,64a.24.24,0,0,1,0-.23,16.2,16.2,0,0,1,1.31-1.66l.67-.8.12-.07a24.75,24.75,0,0,1,1.83-2.13,49.41,49.41,0,0,1,4.27-3.79,49.17,49.17,0,0,1,5.17-3.42,14.13,14.13,0,0,1,2.32-1l.13-.05a8,8,0,0,0,.8-.34l.43-.19a4.19,4.19,0,0,1,.93-.8l.07,0a3.24,3.24,0,0,0,1.13-1.35c.14-.34.33-.8.8-.8h0a.2.2,0,0,1,.15.06,4.05,4.05,0,0,1,.92-.1,7.85,7.85,0,0,1,2.82.62,8.54,8.54,0,0,1,1.6.8l.22.15a4.62,4.62,0,0,1,2.46,2.93v.07a7.34,7.34,0,0,1,.35,1.61l.18.31c.26.47.49,1,.72,1.44s.5,1,.81,1.54a22.23,22.23,0,0,0,1.25,2c.23.34.47.7.69,1a19.83,19.83,0,0,0,2.17,2.91c1.17,1.21,2.22,2.26,3.2,3.2L47,66c.41.39.85.8,1.23,1.24l0,0a1.46,1.46,0,0,1,.36.56c.22.32.14,1.09-2.65,3.81l-.11.12-.47.48a21,21,0,0,1-2.11,2,3.1,3.1,0,0,1-1.73.88h0A1.17,1.17,0,0,1,41,75a.2.2,0,0,1-.11-.17.11.11,0,0,1,0-.08,19.37,19.37,0,0,1-2.22-2.4,26.84,26.84,0,0,1-2.41-3.47,29.15,29.15,0,0,1-2-3.76c-.18-.44-.36-.89-.53-1.37a2.13,2.13,0,0,1-.29.81.21.21,0,0,1-.1.17l-.3.2a2.64,2.64,0,0,0-.41.34c-.24.24-.48.5-.7.74h0c-.23.25-.48.49-.72.71a9.54,9.54,0,0,0-1,1,5.89,5.89,0,0,0-1.25,2.69,11.25,11.25,0,0,0-.12,1.83v.32a2.4,2.4,0,0,1-.08,1v.09a.24.24,0,0,1-.13.11,12.13,12.13,0,0,1-3.14,1.06A17.94,17.94,0,0,1,22.15,75.11Zm-3.67-.6a7.18,7.18,0,0,1,1,.1h.27a14.47,14.47,0,0,0,1.85.27,17.8,17.8,0,0,0,3.85-.35,10.65,10.65,0,0,0,3.05-1h.05a2,2,0,0,0,.07-.85v-.34a13.2,13.2,0,0,1,.13-1.88,6.12,6.12,0,0,1,1.3-2.8,11.76,11.76,0,0,1,1-1.11c.24-.21.48-.45.71-.69h0c.23-.24.47-.5.71-.74a3.1,3.1,0,0,1,.46-.35l.28-.18v-.1h.08a2.82,2.82,0,0,0,.31-1.26l.05-.66.21.62c.21.66.47,1.3.72,1.9a28.66,28.66,0,0,0,1.94,3.73,25.67,25.67,0,0,0,2.36,3.42,19.16,19.16,0,0,0,2.28,2.4l.11.1-.07.07a1.07,1.07,0,0,0,.27.09,3,3,0,0,0,1.53-.8,21.63,21.63,0,0,0,2.08-2l.49-.49.11-.11c2.89-2.84,2.67-3.4,2.6-3.48h0V67.9c0-.12-.19-.32-.29-.43l-.11-.06c-.37-.44-.8-.8-1.22-1.23l-.08-.12c-1-1-2.06-2-3.21-3.21a18.7,18.7,0,0,1-2.2-3l-.69-1c-.44-.63-.88-1.28-1.26-2-.3-.51-.55-1-.8-1.56s-.46-1-.73-1.42l-.23-.41a6.61,6.61,0,0,0-.34-1.6v-.08a4.36,4.36,0,0,0-2.33-2.77l-.25-.17a7.59,7.59,0,0,0-1.52-.8,7.47,7.47,0,0,0-2.72-.6,4.18,4.18,0,0,0-.93.14H29.3l0-.11c-.28,0-.4.23-.55.58a3.56,3.56,0,0,1-1.23,1.49h-.07a4.22,4.22,0,0,0-.89.8h0l-.45.2-.81.35-.12,0a14.61,14.61,0,0,0-2.29,1,48.87,48.87,0,0,0-5.12,3.4,47.62,47.62,0,0,0-4.26,3.77,22.83,22.83,0,0,0-1.82,2.1l-.1.14-.67.8a17.72,17.72,0,0,0-1.26,1.6h.06v.09a8.9,8.9,0,0,0,1.69,3,13,13,0,0,0,1.29,1.57c.28.24.58.47.89.69s.48.35.71.55l.06,0v.09a.85.85,0,0,1,.32-.38l.12-.11a5.88,5.88,0,0,0,.52-.6l.25-.33c.31-.37.64-.73,1-1.08l.5-.54.87-1c.63-.71,1.28-1.46,2-2.14.45-.45.93-.87,1.39-1.29.28-.24.55-.48.8-.73l.35-.32-.13.46a18.23,18.23,0,0,0-.51,3.2c-.06.56-.11,1.12-.16,1.69l-.1,1c0,.32-.05.64-.06,1v0h0a14.13,14.13,0,0,0-1.18,1.6,22.17,22.17,0,0,0-1.3,2.14,8.5,8.5,0,0,0-.86,2.12v.06A1.09,1.09,0,0,1,18.48,74.51Z"/><path class="cls-8" d="M22.11,61.72a9.75,9.75,0,0,0-.27,1.19c.4-1.22.84-2.4,1.31-3.63a27.92,27.92,0,0,1,1.33-3.09,17.91,17.91,0,0,0,1.15-2.8c-.7.73-1.13,1.67-1.84,2.4a16.07,16.07,0,0,1-2.5,2,38.38,38.38,0,0,0-5.69,4.88c-1,1.07-2,2.17-2.9,3.31a18.86,18.86,0,0,0-1.13,1.53c.32.34.65.68,1,1,.49.47,1.08.8,1.6,1.24a.13.13,0,0,0,.07.16.12.12,0,0,0,.15-.07,2.62,2.62,0,0,1,.44-.44,10.42,10.42,0,0,0,.8-.94c.46-.56,1-1.08,1.46-1.6.94-1,1.83-2.12,2.83-3.11C20.61,63,21.38,62.4,22.11,61.72Z"/><path class="cls-8" d="M44.81,69.43c-.6.31-1.05.76-1.61,1.09a1.33,1.33,0,0,1-1.12.09,6.33,6.33,0,0,1-2.56-1.9A33.13,33.13,0,0,1,34.83,62a37,37,0,0,1-2-4.38,19.88,19.88,0,0,1-.8-4.19,8.13,8.13,0,0,0-.8,3.36,2.65,2.65,0,0,1-.62,2c-1.1.93-2.94.61-3.9,1.78A9.24,9.24,0,0,0,25,65.8c0,.8-.08,2.11.9,2.4a12.55,12.55,0,0,0,2.12.18.11.11,0,0,1,.09.12,18.45,18.45,0,0,1-.85,4.89,7.25,7.25,0,0,1-.4.9,5,5,0,0,0,1.67-.69.08.08,0,0,0,.07,0v-.08h0a3.84,3.84,0,0,0,.05-1.22,12.73,12.73,0,0,1,.13-1.86,6.07,6.07,0,0,1,1.37-2.78c.51-.64,1.15-1.13,1.71-1.73l.73-.8c.24-.18.48-.35.73-.51a.11.11,0,0,0,0-.11h0a2.85,2.85,0,0,0,.35-1.37c.21.65.47,1.29.72,1.91a30.87,30.87,0,0,0,1.95,3.74,25.76,25.76,0,0,0,2.41,3.43,19.15,19.15,0,0,0,2.29,2.47.11.11,0,0,0,0,.15h0c.69.36,1.53-.31,2-.72a28.36,28.36,0,0,0,2.56-2.46,17,17,0,0,0,2.65-3.09A7.83,7.83,0,0,0,44.81,69.43Z"/><path class="cls-17" d="M33.5,62.21c-.19-.61-.4-1.21-.61-1.81a13.87,13.87,0,0,1-.62-2.77,6,6,0,0,0-.73-.07h-1.9a8.09,8.09,0,0,0-2.19.24,5.08,5.08,0,0,0-1.16,2.14c-.31,1.05-.62,2.13-.86,3.2a17.77,17.77,0,0,0-.38,2.41,4,4,0,0,0,.16,1.79.9.9,0,0,0,.58.25c.33,0,.68.06,1,.06a11.79,11.79,0,0,0,1.78-.17c.71-.13,1.42-.3,2.13-.44.39-.39.8-.75,1.18-1.16.24-.26.48-.53.74-.8s.48-.35.73-.51a.16.16,0,0,0,.05-.11h0a2.66,2.66,0,0,0,.33-1.23v-.45A4.91,4.91,0,0,1,33.5,62.21Z"/><path class="cls-9" d="M48.4,67.78a1.46,1.46,0,0,0-.72,0,4.41,4.41,0,0,0-1.47.69,12.92,12.92,0,0,0-2.34,2.09,15.29,15.29,0,0,0-1.73,2.29,11.92,11.92,0,0,0-1.07,2h0c.69.35,1.53-.32,2-.72a29.16,29.16,0,0,0,2.6-2.49c.26-.26,3.29-3.13,2.73-3.77A.34.34,0,0,0,48.4,67.78Z"/><path class="cls-4" d="M41.52,75.1h0A1.17,1.17,0,0,1,41,75L41,74.93l0-.05v-.07a11.92,11.92,0,0,1,1.07-2,14.61,14.61,0,0,1,1.75-2.31,12.78,12.78,0,0,1,2.36-2.11,4.48,4.48,0,0,1,1.51-.72,1.8,1.8,0,0,1,.8,0h.07v.06a.24.24,0,0,1,0,.12c.23.31.14,1.08-2.64,3.81l-.11.11-.48.49a21,21,0,0,1-2.11,2A3.1,3.1,0,0,1,41.52,75.1Zm-.29-.31c.62.22,1.39-.39,1.82-.75a21.53,21.53,0,0,0,2.08-2l.49-.49.11-.11c2.89-2.84,2.67-3.41,2.6-3.49h0V67.9h0a1.51,1.51,0,0,0-.6,0,4.26,4.26,0,0,0-1.42.69A12.91,12.91,0,0,0,44,70.65a17.15,17.15,0,0,0-1.72,2.27,12.2,12.2,0,0,0-1,1.87Z"/><path class="cls-17" d="M21.33,67.66a4.9,4.9,0,0,1-.06.94,9.06,9.06,0,0,0,1.61-1,1.06,1.06,0,0,1,.08-.34c.09-.4.15-.8.23-1.23.18-.92.36-1.84.61-2.74a24.38,24.38,0,0,0,1-5.27,2.67,2.67,0,0,0-1.27-.51c-.58,1.37-.93,2.82-1.43,4.23h0A17.45,17.45,0,0,0,21.58,65C21.48,65.82,21.42,66.73,21.33,67.66Z"/><path class="cls-18" d="M33.06,64.51a28.34,28.34,0,0,1-4.21.64c-.58,0-1.16.08-1.76.12a4.93,4.93,0,0,1-1.67-.07.07.07,0,0,0-.07.07.07.07,0,0,0,.07.06,10.57,10.57,0,0,0,3.46,0,12.14,12.14,0,0,0,4.25-.8A.14.14,0,0,0,33.06,64.51Z"/><path class="cls-18" d="M32.58,60.27a21.36,21.36,0,0,0-3.2.12,13.32,13.32,0,0,0-3.09.13h0c1,0,2.05.15,3.09.11.53,0,1.08,0,1.6-.08s1-.17,1.6-.2a0,0,0,0,0,0,0s0,0,0,0Z"/><path class="cls-18" d="M24,60.24a1.67,1.67,0,0,0-.7-.12,1.24,1.24,0,0,0-.66.05h0a4.52,4.52,0,0,0,.75.12,1.09,1.09,0,0,0,.62,0A.07.07,0,0,0,24,60.24Z"/><path class="cls-18" d="M23,64.75a1.47,1.47,0,0,0-.55-.08h-.68a.05.05,0,0,0,0,.07s0,0,0,0a1,1,0,0,0,.53.08H23A0,0,0,0,0,23,64.75Z"/><path class="cls-15" d="M51.74,72a2.83,2.83,0,0,0-1-1.87,3.15,3.15,0,0,0-1.25-.46,8.12,8.12,0,0,0-2.41,0L47,69.52a8.07,8.07,0,0,1-.86-.8L46,68.57a14.26,14.26,0,0,0-2.16,2l-.56.67.63.63.16.14A4.19,4.19,0,0,0,44,73.65a1.42,1.42,0,0,0,.81,1.26,2.72,2.72,0,0,0,1.2.18,2.11,2.11,0,0,0,.23,1.61,2,2,0,0,0,1.6.67,1,1,0,0,0,1.06-.88v-.15a.89.89,0,0,0,.93-.45,2.08,2.08,0,0,0,.33-1c.35.11.74-.5.8-.81v-.25A1.74,1.74,0,0,0,51.74,72Z"/><path class="cls-6" d="M46.88,74.93A.12.12,0,0,1,47,75a.15.15,0,0,1,0,.07.93.93,0,0,0,.15.39,3.39,3.39,0,0,0,.67-.31c.27-.16.55-.33.8-.51a4.94,4.94,0,0,0,1.61-1.73A5.33,5.33,0,0,0,51,70.3a1.24,1.24,0,0,0-.18-.14,3.22,3.22,0,0,0-1.3-.46,8.77,8.77,0,0,0-2-.1,5.9,5.9,0,0,0-2,.91,4.36,4.36,0,0,0-1.41,1.36L44,72.2a5.17,5.17,0,0,0,0,1.47,1.42,1.42,0,0,0,.81,1.26,2.72,2.72,0,0,0,1,.19,3.57,3.57,0,0,0,.56-.07A2.3,2.3,0,0,1,46.88,74.93Z"/><path class="cls-4" d="M47.08,75.68l0-.09a1.12,1.12,0,0,1-.17-.44v0h0l-.31.07h-.11a2.32,2.32,0,0,1-.38.06h-.19a2.77,2.77,0,0,1-1.14-.19,1.54,1.54,0,0,1-.81-1.36,4.84,4.84,0,0,1,0-1.52h0l.06-.1c0-.08.07-.15.11-.23a4.5,4.5,0,0,1,1.44-1.44,6.1,6.1,0,0,1,2-.93h.61a7.5,7.5,0,0,1,1.42.13,3.14,3.14,0,0,1,1.32.48.67.67,0,0,1,.19.14h0v0a5.91,5.91,0,0,1-2.4,4.49l-.58.37-.23.14a2.24,2.24,0,0,1-.59.27Zm0-.55a1.42,1.42,0,0,0,.07.22,2.11,2.11,0,0,0,.55-.25L48,75l.56-.37a4.83,4.83,0,0,0,1.53-1.68,5.13,5.13,0,0,0,.8-2.51l-.11-.08a2.88,2.88,0,0,0-1.22-.49,8.4,8.4,0,0,0-1.94-.1,6.12,6.12,0,0,0-1.9.89,4.25,4.25,0,0,0-1.35,1.32l-.11.21,0,.09a4.83,4.83,0,0,0,0,1.42c.08.62.29,1,.7,1.15a2.58,2.58,0,0,0,1,.17h.19a1.13,1.13,0,0,0,.32,0h.1a1.87,1.87,0,0,1,.41-.09h0a.22.22,0,0,1,.22,0,.26.26,0,0,1,0,.21Z"/><path class="cls-6" d="M27.64,52.29a11,11,0,0,1,1.79.3c.55.12,1,.37,1.61.52a4.35,4.35,0,0,0,1,.09A6.42,6.42,0,0,1,33.62,52a4.25,4.25,0,0,1,2-.21,1.87,1.87,0,0,1,1.44.61,10.38,10.38,0,0,1,.59.88,8.53,8.53,0,0,0-.35-1.43A4.5,4.5,0,0,0,34.92,49l-.21-.14a6.9,6.9,0,0,0-1.55-.8,6.42,6.42,0,0,0-3.74-.51.15.15,0,0,0-.11-.08c-.4,0-.55.37-.69.69a3.29,3.29,0,0,1-1.18,1.4,4.64,4.64,0,0,0-1,.89h0a9.7,9.7,0,0,0-.58,1.5C26.23,52.31,27.09,52.23,27.64,52.29Z"/><path class="cls-4" d="M37.86,53.84l-.35-.52a10.23,10.23,0,0,0-.56-.89,1.75,1.75,0,0,0-1.35-.56H35a3.83,3.83,0,0,0-1.34.24,3.46,3.46,0,0,0-1.1.8l-.41.37H32a4.36,4.36,0,0,1-1,0L30.23,53a6.86,6.86,0,0,0-.8-.28,15.49,15.49,0,0,0-1.81-.28H27.2a2.25,2.25,0,0,1-1.47-.38L25.67,52v-.08a1.31,1.31,0,0,1,.1-.32,7.93,7.93,0,0,1,.52-1.24l0-.05a4.19,4.19,0,0,1,.93-.8l.06,0a3.1,3.1,0,0,0,1.13-1.35c.15-.34.33-.8.81-.8h0a.22.22,0,0,1,.15.06,4.05,4.05,0,0,1,.92-.1,7.76,7.76,0,0,1,2.81.62,8.63,8.63,0,0,1,1.61.8l.21.15a4.56,4.56,0,0,1,2.46,2.93v.06a7.5,7.5,0,0,1,.32,1.42ZM26,51.87a2.37,2.37,0,0,0,1.25.26h.43a14.55,14.55,0,0,1,1.85.3c.3.08.58.19.86.29a7.58,7.58,0,0,0,.72.24,3.63,3.63,0,0,0,.93.09,2.9,2.9,0,0,0,.36-.34,4.29,4.29,0,0,1,1.13-.86A3.68,3.68,0,0,1,35,51.63q.33,0,.66,0a2,2,0,0,1,1.53.67,2.18,2.18,0,0,1,.22.31c-.07-.29-.15-.54-.19-.68v-.06a4.34,4.34,0,0,0-2.32-2.77l-.25-.17a8.18,8.18,0,0,0-1.52-.8,7.56,7.56,0,0,0-2.72-.6,3.87,3.87,0,0,0-1,.1H29.3l0-.11c-.28,0-.4.23-.55.58a3.56,3.56,0,0,1-1.23,1.49l-.07,0a3.39,3.39,0,0,0-.89.8h0a6.37,6.37,0,0,0-.46,1.19Z"/><path class="cls-8" d="M28.52,50.65a8.28,8.28,0,0,0,2,.62,6.59,6.59,0,0,0,2.3-.2,7.6,7.6,0,0,1,3.46-.41,4.57,4.57,0,0,1,.62.22,4.1,4.1,0,0,0-2-1.92l-.21-.14a6.9,6.9,0,0,0-1.55-.8,6.42,6.42,0,0,0-3.74-.51.15.15,0,0,0-.11-.08c-.4,0-.55.37-.69.69a3.29,3.29,0,0,1-1.18,1.4,8.6,8.6,0,0,0-.8.67A6.06,6.06,0,0,1,28.52,50.65Z"/><path class="cls-17" d="M46.75,35.6a15.3,15.3,0,0,0-.8-3.2,2.06,2.06,0,0,0-1.38-1.49,4.38,4.38,0,0,1-.86-.37A11.2,11.2,0,0,1,43,29.23c-.31-.63-.55-1.3-.88-1.92a4.53,4.53,0,0,0-2.51-2,13.26,13.26,0,0,0-4.92-.63,20.29,20.29,0,0,0-4.85.51,14,14,0,0,0-2.73,1.09A15.4,15.4,0,0,0,25,27.63a13.94,13.94,0,0,0-3.33,3.52,9.79,9.79,0,0,0-1,2.2c-.25.8-.52,1.6-.84,2.35a2.82,2.82,0,0,0-.8,2.4,7.87,7.87,0,0,0,.8,2,4.61,4.61,0,0,0,.15.53A4.29,4.29,0,0,1,20.18,42a12.31,12.31,0,0,0-.05,2.35c.23,1.37,1.2,2.41,1.92,3.58.55.86,1.4,2.1,2.53,2.16a5.87,5.87,0,0,0,2.24-.7,9,9,0,0,1,2.2,0c1,.13,2.06.4,3.11.53a13.48,13.48,0,0,0,5.54-.41,11.87,11.87,0,0,0,4.65-2.78,6,6,0,0,0,1.82-3.27c.22-.57.38-1.19.58-1.78a5.31,5.31,0,0,1,2.14-2.91.16.16,0,0,0,0-.2A6,6,0,0,0,46.75,35.6Z"/><path class="cls-18" d="M42.78,42.56a2.1,2.1,0,0,0-1.4,0,6.69,6.69,0,0,0-1,.39,19.06,19.06,0,0,0-2,1.16l-1.78,1.22a4.38,4.38,0,0,0-1.41,1.43,7.43,7.43,0,0,0-.61,1.83c-.1.45-.26.93-.36,1.4a13.42,13.42,0,0,0,3.45-.54,11.79,11.79,0,0,0,4.66-2.75,6,6,0,0,0,1.82-3.27l.07-.19A8.15,8.15,0,0,0,42.78,42.56Z"/><path class="cls-12" d="M24.27,32a.61.61,0,0,0,.18.46.73.73,0,0,0,.7,0,2.44,2.44,0,0,0,.44-.19,8.82,8.82,0,0,1,2.07-2.4,16.38,16.38,0,0,1,3.92-2.49,20.85,20.85,0,0,1,5.33-1.65,21.64,21.64,0,0,1,3-.2l-.35-.13a13.21,13.21,0,0,0-4.92-.63,26.33,26.33,0,0,0-2.94.16,17.8,17.8,0,0,0-3.5,1.93A9.65,9.65,0,0,0,24.27,32Z"/><path class="cls-15" d="M44.26,38.75a8.21,8.21,0,0,1-2,4.81,12.63,12.63,0,0,1-7.11,4.27,6.89,6.89,0,0,1-4.55-1.09,10.08,10.08,0,0,1-2.79-3.49,7.75,7.75,0,0,1-1-3.64c.1-.15.21-.3.32-.44a15.93,15.93,0,0,1,1.66-1.82A24.38,24.38,0,0,1,37.51,32c.81-.29,1.62-.54,2.45-.75a5.83,5.83,0,0,1,1.18-.12,10.43,10.43,0,0,0,.68,2c.37.65,1.12,1.21,1.5,1.86A7.21,7.21,0,0,1,44.26,38.75Z"/><g class="cls-16"><path class="cls-15" d="M28.6,39.36a19,19,0,0,1,5.15-4.12,17.67,17.67,0,0,1,6-2.34,5.92,5.92,0,0,1,2,0,9.19,9.19,0,0,1-.6-1.79,5.66,5.66,0,0,0-1.17.12q-1.24.32-2.46.75a24.41,24.41,0,0,0-8.68,5.29,15.93,15.93,0,0,0-1.66,1.82c-.11.14-.22.29-.32.44A9.32,9.32,0,0,0,27.32,42,4.75,4.75,0,0,1,28.6,39.36Z"/></g><path class="cls-12" d="M24,41.94c.16.39.14.8-.05.84s-.47-.16-.64-.55-.13-.8.06-.84S23.81,41.56,24,41.94Z"/><path class="cls-18" d="M23.65,45.61a8.22,8.22,0,0,0-1-1.24.45.45,0,0,0-.14-.1c-.33-.21-1-.33-1.17,0a6.31,6.31,0,0,0,1,2.15c.8,1.31,1.79,2.17,2.16,1.94S24.48,46.92,23.65,45.61Z"/><path d="M23.65,45.61a8.22,8.22,0,0,0-1-1.24.45.45,0,0,0-.14-.1c-.32-.2-.9-.32-1.13,0,.57-.12.92.11,1.33.64a16.45,16.45,0,0,1,1.14,1.5c.31.53.8,1.47.53,2h.11C24.86,48.15,24.48,46.92,23.65,45.61Z"/><path class="cls-12" d="M21.43,41.75c.16.38.14.76,0,.8s-.48-.17-.64-.55-.14-.8.05-.8A.79.79,0,0,1,21.43,41.75Z"/><path class="cls-12" d="M26.62,46.39c.16.39.14.76-.05.8s-.47-.17-.63-.55-.15-.8,0-.8A.81.81,0,0,1,26.62,46.39Z"/><path class="cls-12" d="M45.09,33c.08.37,0,.72-.19.8s-.4-.23-.48-.62,0-.72.18-.8S45,32.61,45.09,33Z"/><path class="cls-12" d="M45.62,36.68c0,.39-.1.72-.28.73s-.37-.29-.4-.68.1-.71.29-.73S45.59,36.29,45.62,36.68Z"/><ellipse class="cls-12" cx="22.46" cy="37.49" rx="0.71" ry="0.97"/><path class="cls-12" d="M28.7,32.88c.2.44-.18,1-.81,1.34a1.3,1.3,0,0,1-1.6-.22c-.23-.4.18-1,.8-1.34S28.52,32.44,28.7,32.88Z"/><path class="cls-12" d="M41.25,27.59c.09.41-.39.86-1,1s-1.29-.08-1.37-.49.38-.87,1.05-1S41.16,27.21,41.25,27.59Z"/><g class="cls-16"><path class="cls-15" d="M48.81,74.64c-.13-.6-.61-1.16-1.26-1h0a1.08,1.08,0,0,1,.8.45,2.08,2.08,0,0,1,.26.81,6.44,6.44,0,0,1,.12,2s.08.06.1,0A3.4,3.4,0,0,0,48.81,74.64Z"/></g><g class="cls-16"><path class="cls-15" d="M49.76,73.27a1.15,1.15,0,0,0-1.41-.56h0a3.13,3.13,0,0,0,.44,0c.5,0,.8.48.92.9a16.39,16.39,0,0,1,.36,1.69h.07A3.63,3.63,0,0,0,49.76,73.27Z"/></g><g class="cls-16"><path class="cls-15" d="M49.33,71.43c1.33.46,1.34,1.69,1.52,2.88,0,0,.09,0,.1,0,.28-1-.28-3-1.62-2.93Z"/></g><g class="cls-16"><path class="cls-15" d="M47.3,75.47a1.49,1.49,0,0,1-.18-.3c0-.09,0-.2-.13-.28h0c-.12.17,0,.46.11.62a1.08,1.08,0,0,0,.46.55s.08,0,.06-.06A2.2,2.2,0,0,0,47.3,75.47Z"/></g><path class="cls-9" d="M54.77,54.21c-1.2,1.45-.51,3.84-.1,5.61a12.39,12.39,0,0,0,2.65,5.37,17.91,17.91,0,0,0-.65-6.5,14.75,14.75,0,0,0-.87-3A3.36,3.36,0,0,0,54.77,54.21Z"/><path class="cls-4" d="M57.41,65.49l-.19-.23a12.64,12.64,0,0,1-2.68-5.44l-.09-.38c-.42-1.75-.94-3.93.21-5.34l.09-.08.09.06A3.52,3.52,0,0,1,56,55.58a13.4,13.4,0,0,1,.8,2.71l.08.37a17.65,17.65,0,0,1,.66,6.55ZM54.8,54.38c-1,1.31-.49,3.36-.09,5l.09.38a12.41,12.41,0,0,0,2.41,5.09,18.11,18.11,0,0,0-.69-6.12l-.08-.4a12.3,12.3,0,0,0-.81-2.65A3.65,3.65,0,0,0,54.8,54.38Z"/><path class="cls-9" d="M23.93,104.77c-.4-.2-.8-.41-1.19-.65-.55-.34-1-.76-1.6-1.05a8,8,0,0,0-4-.9,6.62,6.62,0,0,0-2.57.43l0,.19h0c0,.58,1.05.85,1.46,1a33.86,33.86,0,0,0,3.46,1.08,21.62,21.62,0,0,0,3.57.68c.54.06,1.13.12,1.81.14a.18.18,0,0,0,.24,0l0,0,.08-.1A6.72,6.72,0,0,0,23.93,104.77Z"/><path class="cls-4" d="M25,106a.32.32,0,0,1-.21-.08,14.84,14.84,0,0,1-1.77-.15,22,22,0,0,1-3.59-.67l-1.06-.31a18.76,18.76,0,0,1-2.4-.8l-.25-.1c-.5-.18-1.23-.45-1.3-1h0v-.07l.05-.2v-.07h.06a6.73,6.73,0,0,1,2.63-.43h.16a8.09,8.09,0,0,1,3.89.84,6.85,6.85,0,0,1,1,.62l.65.44c.28.17.57.34.86.48l.32.18a6.64,6.64,0,0,1,1.34.89l.09.09-.12.14,0,0A.26.26,0,0,1,25,106Zm-10.34-3.2h0v0c0,.39.71.65,1.13.81l.26.1a18.25,18.25,0,0,0,2.4.8l1.06.31a21.35,21.35,0,0,0,3.55.66q.9.12,1.8.15H25l0,0s.05,0,.07,0a7.41,7.41,0,0,0-1.18-.8l-.32-.17a9.42,9.42,0,0,1-.88-.49l-.67-.45a9.19,9.19,0,0,0-.93-.6,7.9,7.9,0,0,0-3.75-.88h-.15a6.86,6.86,0,0,0-2.46.39.92.92,0,0,1,0,.09Z"/><path class="cls-4" d="M66.66,55a3.78,3.78,0,0,0-3.8-.55h0a5.92,5.92,0,0,1,2,0,14.47,14.47,0,0,1,1.79.6S66.7,55,66.66,55Z"/><path class="cls-4" d="M59.15,54.9a.85.85,0,0,0-.89.25.83.83,0,0,0-.24.44s0,.24.07.19.06-.09.09-.16a1.18,1.18,0,0,1,.28-.45c.17-.21.48-.07.69-.15a.06.06,0,0,0,0-.12Z"/><path class="cls-15" d="M71.88,54.28a1.14,1.14,0,0,0-.74-.58.54.54,0,0,0,0-.18.42.42,0,0,0-.44-.41.49.49,0,0,0-.24,0,1.88,1.88,0,0,0,.11-.62A.55.55,0,0,0,70,52h0a2,2,0,0,0,.08-.54.72.72,0,0,0-.21-.57.46.46,0,0,0-.4-.1c0-.55-.27-1.1-.91-1a3.4,3.4,0,0,0-1.38.66,2.53,2.53,0,0,0-.42.38h0a2.55,2.55,0,0,0-1.08.28c-.57.23-1.17.44-1.76.63-1.35.44-2.68.87-4,1.36a18,18,0,0,0-3.33,1.55,10.31,10.31,0,0,1-1.72.8c-.22.08-.43.17-.64.27a11.82,11.82,0,0,0,.54,4c0,.19.09.39.14.58a4.57,4.57,0,0,1,.65-.43c.63-.34,1.25-.66,1.9-1,.23-.1.49-.25.76-.38a1.79,1.79,0,0,0,.63.68,1.89,1.89,0,0,0,1.86.27,3.86,3.86,0,0,0,1.6-1.37c.25-.33.47-.68.75-1h0a7.19,7.19,0,0,1,3.3-.61,4.33,4.33,0,0,0,2-.06c.35-.17.64-.54,1-.7a1.55,1.55,0,0,0,.8.37,1.67,1.67,0,0,0,1.36-.47A1.2,1.2,0,0,0,71.88,54.28Z"/><g class="cls-16"><path class="cls-15" d="M69.29,50.18h0c.23.56-.26.91-.69,1.08a2.42,2.42,0,0,0-1,.46v.06a3.17,3.17,0,0,1,.8-.28,2,2,0,0,0,.75-.28.67.67,0,0,0,.3-.46C69.44,50.56,69.48,50.31,69.29,50.18Z"/></g><g class="cls-16"><path class="cls-15" d="M70,51.22a.91.91,0,0,1-.32.8,1.88,1.88,0,0,1-.57.22,1.67,1.67,0,0,0-.8.39h0a2.18,2.18,0,0,1,.61-.2,2.31,2.31,0,0,0,.68-.15c.47-.17.53-.61.45-1.06Z"/></g><g class="cls-16"><path class="cls-15" d="M70.57,52.63h0c-.11.14-.15.3-.31.41a2.32,2.32,0,0,1-.41.22,1.49,1.49,0,0,0-.71.38h0c.34-.12.71-.19,1-.32A.72.72,0,0,0,70.57,52.63Z"/></g><g class="cls-16"><path class="cls-15" d="M71,53.33h0c0,.26.1.54-.15.72a1.8,1.8,0,0,1-.48.24,2.94,2.94,0,0,0-.8.33h0a8.18,8.18,0,0,0,1.19-.27.74.74,0,0,0,.29-1Z"/></g><path class="cls-6" d="M69.34,55.82c.53-1.91-1.07-4-2.74-5a3.12,3.12,0,0,0-1,.28q-.87.35-1.77.63c-1.34.44-2.68.87-4,1.36a20.64,20.64,0,0,0-2.07.87,5.1,5.1,0,0,0-.8,1.16A3.76,3.76,0,0,0,56.75,57a6.88,6.88,0,0,0,.52,2L57.4,59l.75-.38a1.08,1.08,0,0,0,.11.18A2.41,2.41,0,0,1,59,56.75a3.48,3.48,0,0,1,2-.8,2.81,2.81,0,0,1,2.4,1,7.73,7.73,0,0,1,2.86-.42,4.29,4.29,0,0,0,1.95-.13c.35-.17.64-.54,1-.7A.42.42,0,0,0,69.34,55.82Z"/><path class="cls-4" d="M57.17,59.24l-.05-.13A6.81,6.81,0,0,1,56.58,57a3.81,3.81,0,0,1,.27-1.95,4.37,4.37,0,0,1,.7-1.05l.17-.2c.68-.32,1.37-.61,2.08-.87,1.09-.41,2.21-.8,3.3-1.12l.73-.24c.69-.23,1.25-.43,1.75-.63l.11,0a2.73,2.73,0,0,1,.93-.25h0c1.8,1.09,3.34,3.2,2.8,5.13l-.06.18-.15-.1-.06,0a2,2,0,0,0-.4.3,2.54,2.54,0,0,1-.5.36,2.28,2.28,0,0,1-1,.19H66a7.36,7.36,0,0,0-2.54.42h-.08L63.28,57a2.73,2.73,0,0,0-2.32-1,3.38,3.38,0,0,0-2,.8,2.22,2.22,0,0,0-.65,2v.43l-.25-.35,0-.08-.19.09c-.16.08-.3.16-.46.23Zm.67-5.15-.11.13a4.18,4.18,0,0,0-.64,1A3.63,3.63,0,0,0,56.85,57a6.88,6.88,0,0,0,.46,1.89h0l.44-.22.31-.16h0a2.36,2.36,0,0,1,.8-1.85A3.54,3.54,0,0,1,61,55.82a3,3,0,0,1,2.5,1,8,8,0,0,1,2.54-.4h1.24a1.91,1.91,0,0,0,.91-.16A2.36,2.36,0,0,0,68.6,56a2.63,2.63,0,0,1,.57-.31h.09c.33-1.73-1.07-3.59-2.7-4.59a2.71,2.71,0,0,0-.8.22l-.11,0c-.51.2-1.07.4-1.78.63l-.72.24c-1.08.35-2.2.72-3.29,1.12A18.31,18.31,0,0,0,57.84,54.09Z"/><path class="cls-4" d="M20.78,109.14c-.36-.28-1.05-.8-1.55-.65v0a9.4,9.4,0,0,1,1.25.57,5.53,5.53,0,0,1,1.23,1.28c0,.05.13,0,.11,0A3.06,3.06,0,0,0,20.78,109.14Z"/><path class="cls-15" d="M26,109.28a.64.64,0,0,0-.72-.48,1,1,0,0,0-.32-.37.63.63,0,0,0-.49-.13.65.65,0,0,0-.36-.33.45.45,0,0,0-.23,0,.47.47,0,0,0-.05-.1.58.58,0,0,0-.59-.26h-.06c-.13-.19-.26-.39-.41-.58a3.62,3.62,0,0,1-.9-1.85,4.58,4.58,0,0,1,.3-1.46c-.33-.23-.66-.45-1-.65a7.91,7.91,0,0,0-3.84-.88c-.13.39-.2.8-.31,1.21a5.1,5.1,0,0,1-.2.63c-.13.15-.25.32-.39.46-.26.29-.56.52-.8.81a1.59,1.59,0,0,0-.2,1.6,2.23,2.23,0,0,0,1.18,1.32,9.16,9.16,0,0,0,.86.33c.45.49.8,1.07,1.28,1.53a6.39,6.39,0,0,0,1.87,1.21,5.15,5.15,0,0,0,2.33.33A9.55,9.55,0,0,0,25,111.4c.91.19,2.24.14,2.4-.89A1.22,1.22,0,0,0,26,109.28Z"/><g class="cls-16"><path class="cls-15" d="M26.19,109.19H26c-.2-.1-.43,0-.61.15s-.62.31-.6.56h0c.11-.11.23-.21.35-.31h0a1.83,1.83,0,0,1,.81-.28,1.42,1.42,0,0,1,1,.4h0A1.1,1.1,0,0,0,26.19,109.19Z"/></g><g class="cls-16"><path class="cls-15" d="M24.26,109.42h0a1,1,0,0,1,1.37-.42l.15.09h0C25.39,108.41,24.51,108.77,24.26,109.42Z"/></g><g class="cls-16"><path class="cls-15" d="M24.55,108.26a.21.21,0,0,0-.11,0,.49.49,0,0,0-.39-.38.57.57,0,0,0-.58.3h0A.56.56,0,0,1,24,108a.62.62,0,0,1,.38.27.6.6,0,0,0-.39.45h0a1.87,1.87,0,0,1,.49-.34.49.49,0,0,1,.61.22h0A.42.42,0,0,0,24.55,108.26Z"/></g><g class="cls-16"><path class="cls-15" d="M23.45,107.56a.3.3,0,0,0-.23,0c-.1,0-.13.06-.18.13m0,0a1,1,0,0,1,.69.12h0a.45.45,0,0,0-.28-.29Z"/></g><path class="cls-6" d="M25,111.39c.32-.29.57-.66.36-1.08a5.25,5.25,0,0,0-.94-1.16,8.39,8.39,0,0,1-1.23-1.55h0c-.13-.19-.26-.39-.41-.58a3.55,3.55,0,0,1-.9-1.84.14.14,0,0,1,0-.09,5.63,5.63,0,0,0-1.81-1.44,5.66,5.66,0,0,0-3.05-.24c-.06.2-.13.4-.2.61l-.34.4c1.31-.24,2.84.35,2.91,1.85a2.14,2.14,0,0,1-1.32,2.12,2.91,2.91,0,0,1-.58.15c.4.53.82,1,1.26,1.52a6.44,6.44,0,0,0,1.88,1.21,5.29,5.29,0,0,0,2.33.33,10.05,10.05,0,0,0,2-.22Z"/><path class="cls-4" d="M22.47,111.75a5.29,5.29,0,0,1-1.93-.36,6.42,6.42,0,0,1-1.92-1.25,5.26,5.26,0,0,1-.8-.9,7.42,7.42,0,0,0-.49-.62l-.17-.18h.24a2.19,2.19,0,0,0,.57-.16,2,2,0,0,0,1.24-2c-.07-1.46-1.54-2-2.75-1.74l-.38.08.26-.29.2-.24.12-.15c.06-.18.12-.37.17-.57v-.08h.08a6.42,6.42,0,0,1,1.16-.11,5.37,5.37,0,0,1,2,.35A5.87,5.87,0,0,1,21.87,105l0,0v.15a3.63,3.63,0,0,0,.94,1.73,5.3,5.3,0,0,1,.39.54h0l0,.06a8.36,8.36,0,0,0,1.2,1.52l.21.23a3.94,3.94,0,0,1,.75,1c.15.29.19.73-.4,1.22l-.05,0h0a5.9,5.9,0,0,1-1.51.19H23Zm-4.77-3.12c.13.15.24.3.36.46a4.67,4.67,0,0,0,.74.86,6.37,6.37,0,0,0,1.83,1.2,5.06,5.06,0,0,0,2.28.32h.54a7.2,7.2,0,0,0,1.46-.18c.35-.3.45-.6.31-.89a3.86,3.86,0,0,0-.71-.9l-.21-.23a8.77,8.77,0,0,1-1.18-1.46h0l-.06-.09c-.13-.2-.26-.4-.41-.59a3.73,3.73,0,0,1-.93-1.91v0A5.57,5.57,0,0,0,20,103.8a5.72,5.72,0,0,0-2.9-.24c-.06.18-.13.36-.18.53v0l-.12.15h.26a2.22,2.22,0,0,1,1.05,4.27Z"/><path class="cls-19" d="M60.08,71.74c-2.53,1.24-5,2.6-7.46,3.94A52.5,52.5,0,0,0,46,80.15c-2,1.49-3.93,3-5.86,4.53a26.94,26.94,0,0,0-5.28,5.06s0,0,0,.05,0,0,0,0a36.8,36.8,0,0,1,5.36-4.93l6-4.56A56,56,0,0,1,52.79,76c2.46-1.37,5-2.69,7.36-4.14C60.23,71.8,60.16,71.67,60.08,71.74Z"/><path class="cls-19" d="M61.71,73.06c-4.92,1.82-9.13,4.86-13.34,8-2.19,1.6-4.46,3.12-6.51,4.91A42.69,42.69,0,0,0,36.65,92h0c1.74-1.94,3.21-4.1,5.22-5.81s4.46-3.34,6.66-4.94c4.17-3.05,8.38-6.18,13.21-8.12a.06.06,0,1,0,0-.11Z"/><path class="cls-19" d="M50.46,51.63a30,30,0,0,0-5.4,1.72A17.91,17.91,0,0,0,40.41,56a.07.07,0,0,0,.08.11,27.54,27.54,0,0,1,4.81-2.52c1.69-.69,3.47-1.14,5.18-1.79a.06.06,0,0,0,.05-.08s0,0-.07,0Z"/><path class="cls-19" d="M50.69,50.32a22.37,22.37,0,0,0-5.29,1.24c-.8.3-1.6.63-2.41,1a14.93,14.93,0,0,0-2.65,1.33h0c.75-.24,1.47-.64,2.19-1,.91-.39,1.84-.74,2.78-1.07a40.61,40.61,0,0,1,5.43-1.45S50.75,50.31,50.69,50.32Z"/><path class="cls-19" d="M72.08,41.21A34.93,34.93,0,0,0,67.88,38c-1.34-.94-2.7-1.85-4-2.76-2.56-1.74-5.41-3.47-8.53-3.82m0,.05c3.2.64,5.89,2.32,8.54,4.11s5.48,3.76,8.14,5.76c.08,0,.15-.08.1-.08Z"/><path class="cls-19" d="M70.26,36.92A34.22,34.22,0,0,0,61.77,31c-1.6-.75-3.28-1.36-4.92-2.06A17.8,17.8,0,0,0,52,27.47h0a21,21,0,0,1,4.54,1.61c1.6.7,3.21,1.3,4.74,2A42.53,42.53,0,0,1,70.21,37S70.29,37,70.26,36.92Z"/></g></g><path class="cls-20" d="M14.36,127.82H11.87v-9H8.43V116.5h9.39v2.29H14.36Z"/><path class="cls-20" d="M25.64,125.27H20.86l-1,2.55H17.29l4.85-11.4h2.3l4.85,11.4H26.68Zm-3.91-2.19h3l-1.44-3.67Z"/><path class="cls-20" d="M31,116.5h8.54v2.21H33.51V121h5.33v2.22H33.51v2.34h6.14v2.26H31Z"/><path class="cls-20" d="M45.66,123l-1.31,1.36v3.47H41.86V116.5h2.49v4.94l4.59-4.94h3l-4.61,4.79,4.82,6.53h-3Z"/><path class="cls-20" d="M63.44,127.89l-2.55-7.4-2.55,7.4H56.15L52.29,116.5H55l2.34,7.66,2.54-7.7H62l2.54,7.7,2.35-7.66h2.59l-3.84,11.39Z"/><path class="cls-20" d="M77.28,125.27H72.46l-1,2.55H68.89l4.85-11.4H76l4.85,11.4h-2.6Zm-3.92-2.19h3l-1.51-3.67Z"/><path class="cls-20" d="M85.1,120.62v7.2H82.63V116.5h2.3l5.3,7v-7h2.46v11.32H90.58Z"/><path class="cls-20" d="M105.06,125a5.57,5.57,0,0,1-2.13,2,6.46,6.46,0,0,1-3.13.78H95.39V116.5H99.8a6.44,6.44,0,0,1,3.13.73,5.47,5.47,0,0,1,2.91,4.89h0A5.6,5.6,0,0,1,105.06,125Zm-2.27-4.64a3,3,0,0,0-1.2-1.21,3.56,3.56,0,0,0-1.78-.44H97.89v6.82h1.92a3.45,3.45,0,0,0,1.78-.43,2.93,2.93,0,0,0,1.2-1.19,3.49,3.49,0,0,0,.44-1.76h0a3.62,3.62,0,0,0-.44-1.79Z"/><path class="cls-20" d="M118.79,125.09a5.81,5.81,0,0,1-2.16,2.13,6.49,6.49,0,0,1-6.17,0,5.56,5.56,0,0,1-2.14-2.11,5.69,5.69,0,0,1-.78-2.93h0a5.74,5.74,0,0,1,2.94-5.07,6.47,6.47,0,0,1,6.16,0,5.66,5.66,0,0,1,2.15,2.11,5.89,5.89,0,0,1,.78,2.93h0A5.7,5.7,0,0,1,118.79,125.09Zm-2.27-4.69a3.35,3.35,0,0,0-5.94,0,3.52,3.52,0,0,0-.44,1.77h0a3.61,3.61,0,0,0,.45,1.79,3.29,3.29,0,0,0,1.22,1.29,3.33,3.33,0,0,0,4.58-1.08l.11-.19a3.56,3.56,0,0,0,.44-1.78h0a3.68,3.68,0,0,0-.42-1.81Z"/></svg>