<svg id="Layer_18" data-name="Layer 18" xmlns="http://www.w3.org/2000/svg" viewBox="0 0 128 128"><defs><style>.cls-1{fill:#afdd3d;}.cls-2{fill:#9e9c9c;}.cls-3{fill:#eff1ef;}.cls-4{fill:#acadab;}.cls-5{fill:#bdbdbc;}.cls-6{fill:#e8b08b;}.cls-7{fill:#e89f7a;}.cls-8{fill:#e5e7e4;}.cls-9{fill:#d7d7d7;}.cls-10{fill:#2c2a2c;}</style></defs><g id="Layer_2" data-name="Layer 2"><g id="Layer_1-2" data-name="Layer 1-2"><path class="cls-1" d="M14.26,21.83V19.59c0-.08,0-.16.05-.25a12.56,12.56,0,0,1,3.29-7.52A20,20,0,0,1,24.2,7.2a38.69,38.69,0,0,1,7.09-2.4c1.41-.37,2.83-.73,4.25-1a54.07,54.07,0,0,1,7.07-.49,1.83,1.83,0,0,0,.57,0h6.47l.25,0c1,0,2.07.06,3.11.1,1.72.07,3.43.19,5.15.34,2.14.2,4.28.43,6.39.8A47.26,47.26,0,0,1,74.68,7.08c1.26.52,2.6.8,3.88,1.23a123.51,123.51,0,0,1,16.68,6.23,57.81,57.81,0,0,1,9.08,5.24.89.89,0,0,1,.26.21,3.61,3.61,0,0,0,1.13,1c.94.59,1.88,1.15,2.81,1.75a22.18,22.18,0,0,1,5.23,4.44,13.21,13.21,0,0,1,2.92,6.08c.09.5.15,1,.22,1.49v2.19a7.79,7.79,0,0,1-.12,1,23.51,23.51,0,0,1-2.11,6.87,49.36,49.36,0,0,1-5.94,9.44c-.52.67-1.1,1.29-1.55,2s-.9,1.33-1.39,2a162.84,162.84,0,0,1-11.2,13.12c-1.67,1.78-3.37,3.53-5.12,5.24S85.88,80,84,81.71a117.61,117.61,0,0,1-9.62,7.78,72.41,72.41,0,0,1-10.47,6.4,4,4,0,0,0-.69.4c-.9.59-1.8,1.19-2.73,1.72a25.58,25.58,0,0,1-9.07,3.32c-.51.07-1,.12-1.55.18H47.49l-.23,0a17.27,17.27,0,0,1-6.43-1.79,24.17,24.17,0,0,1-7.72-6.4,44.86,44.86,0,0,1-5.32-8.45A83.52,83.52,0,0,1,23.08,73c-.4-1.22-.71-2.47-1.21-3.65A90.19,90.19,0,0,1,17.26,55a103.2,103.2,0,0,1-2.4-14.64c-.23-2.53-.34-5-.38-7.59,0-2.12,0-4.24.19-6.35a6.73,6.73,0,0,0-.06-1.9c0-.22-.07-.44-.09-.66Z"/><path class="cls-2" d="M17.16,121.12l-2.9,4.4H14.2l-2.84-4.35v6.68H9.11v-10.3h2.45l2.7,4.35L17,117.55h2.44v10.3H17.16Z"/><path class="cls-2" d="M28.61,125.54H24.25l-.94,2.31H21l4.41-10.37H27.5l4.4,10.37H29.55Zm-3.56-2h2.73l-1.36-3.34Z"/><path class="cls-2" d="M37.55,124.55H35.77v3.3H33.51v-10.3h4.7a4.18,4.18,0,0,1,2.85.9,3.16,3.16,0,0,1,1,2.5h0a3.25,3.25,0,0,1-.59,2,3.46,3.46,0,0,1-1.61,1.19l2.52,3.71H39.73ZM39.33,120a2.1,2.1,0,0,0-1.31-.38H35.77v3h2.3a1.92,1.92,0,0,0,1.27-.39,1.32,1.32,0,0,0,.46-1.06h0a1.33,1.33,0,0,0-.47-1.13Z"/><path class="cls-2" d="M48.81,127.85H46.54v-8.21H43.41v-2.09H52v2.09H48.82Z"/><path class="cls-2" d="M53.78,117.55h2.27v10.3H53.78Z"/><path class="cls-2" d="M65.36,125.54H61l-.94,2.31H57.74l4.41-10.37h2.1l4.4,10.37H66.29Zm-3.56-2h2.74l-1.37-3.34Z"/><path class="cls-2" d="M70.25,117.55h2.23v8.24h5.14v2.06H70.25Z"/><path class="cls-2" d="M90.49,125.54H86.13l-.94,2.31h-2.3l4.4-10.37h2.1l4.41,10.37H91.43Zm-3.56-2h2.74L88.3,120.2Z"/><path class="cls-2" d="M99.43,124.55H97.65v3.3H95.39v-10.3h4.71a4.2,4.2,0,0,1,2.85.9,3.19,3.19,0,0,1,1,2.5h0a3.31,3.31,0,0,1-.59,2,3.49,3.49,0,0,1-1.62,1.19l2.51,3.68h-2.6Zm1.78-4.58a2.1,2.1,0,0,0-1.31-.38H97.65v3H100a1.92,1.92,0,0,0,1.27-.39,1.32,1.32,0,0,0,.46-1.06h0a1.3,1.3,0,0,0-.47-1.13Z"/><path class="cls-2" d="M110.69,127.85h-2.26v-8.21h-3.14v-2.09h8.55v2.09h-3.13Z"/><path class="cls-2" d="M121.75,127.14A4.19,4.19,0,0,1,119,128a6.8,6.8,0,0,1-2.32-.42,6.43,6.43,0,0,1-2-1.23l1.34-1.61a6,6,0,0,0,1.48.93,3.94,3.94,0,0,0,1.59.33,2,2,0,0,0,1.08-.26.79.79,0,0,0,.4-.71v0a.79.79,0,0,0-.15-.51,1.49,1.49,0,0,0-.62-.39,11.54,11.54,0,0,0-1.3-.41,10.48,10.48,0,0,1-1.89-.63,2.5,2.5,0,0,1-1.52-2.51h0a2.94,2.94,0,0,1,.46-1.63,3.15,3.15,0,0,1,1.28-1.09,4.26,4.26,0,0,1,1.86-.39,6,6,0,0,1,3.83,1.31l-1.18,1.71a4.84,4.84,0,0,0-2.68-1,1.71,1.71,0,0,0-1,.25.8.8,0,0,0-.34.65h0a.87.87,0,0,0,.18.56,1.75,1.75,0,0,0,.64.39,14.28,14.28,0,0,0,1.42.4,6.39,6.39,0,0,1,2.47,1.13,2.42,2.42,0,0,1,.79,2h0A2.83,2.83,0,0,1,121.75,127.14Z"/><ellipse class="cls-3" cx="45.14" cy="110.52" rx="17.34" ry="3.04"/><path class="cls-4" d="M74.34,37.33l-.11.06-.23.06h-.2a12.41,12.41,0,0,1-1.93.06h-.21a15.8,15.8,0,0,1-.65-2.8c-.1-.67-.16-1.31-.19-1.89a18.66,18.66,0,0,1,1.1-8.44h1.16l.18.06h-.1c0,1.1,0,2.3-.14,3.53v.2c-.09,1-.09,2-.09,3.08V32.6a2.64,2.64,0,0,0,0,.66,2.23,2.23,0,0,1,.06.45,1,1,0,0,0,0,.36,5.54,5.54,0,0,1,.15.72l.09.34a1.33,1.33,0,0,0,.1.34c0,.12.07.21.1.32v.06l.18.2Z"/><path class="cls-4" d="M74.92,33.21c0-.73-.07-1.4,0-1.89C74.86,31.8,74.89,32.48,74.92,33.21Z"/><path class="cls-4" d="M75,30.74a1,1,0,0,0-.06.25A1,1,0,0,1,75,30.74Z"/><path class="cls-5" d="M74.34,37.33l-.63-1.28-.12-.29V35.7a1.12,1.12,0,0,0-.1-.31c0-.11-.07-.23-.1-.35l-.1-.34c-.05-.23-.1-.47-.14-.71s0-.24-.06-.37,0-.3,0-.45,0-.44-.06-.66a4.26,4.26,0,0,1,0-.8v-.55c0-1,.07-2.11.14-3.15v.92c0,.48-.11.95.31,1.26a3.7,3.7,0,0,0,1.64.48h0a1.84,1.84,0,0,0,0,.25.67.67,0,0,0,0,.2.28.28,0,0,0,0,.13c0,.49,0,1.16,0,1.89C75,34.91,75,36.85,74.34,37.33Z"/><path class="cls-5" d="M74.69,26.18c-.4.39-1.13.4-1.44.91a1.88,1.88,0,0,0-.22.8c.09-1.23.16-2.39.14-3.53h.18l.19.16.13.11A3.4,3.4,0,0,1,74,25a.65.65,0,0,1,.13.16l.12.15c.1.13.2.28.29.42s0,.09.07.13a.89.89,0,0,0,.09.16Z"/><path class="cls-6" d="M66.63,25.41h0l-.53.11-.27.05a30.94,30.94,0,0,0,.3,8.7c.15,1,.34,1.94.58,2.91h.11l1.69.14.54,0h.27c.52,0,1,.07,1.55.1h1.09a13.7,13.7,0,0,0,1.92-.07H74l.23-.06.11-.06-.66-1.22-.12-.29V35.7a1.12,1.12,0,0,0-.1-.31c0-.11-.07-.23-.1-.35l-.1-.34c-.05-.23-.1-.47-.14-.71s0-.24-.06-.37,0-.3,0-.45,0-.44-.06-.66a4.26,4.26,0,0,1,0-.8V31c.06,0,7.29.06,8.26-.64S81,25.2,79.36,24.9c-1.39-.27-6.17,1.88-6.17,1.88a7,7,0,0,1-.07,1c.09-1.23.17-2.4.14-3.53H72l-.41.05h-.56c-.09,0-.18,0-.28.05l-.18,0H70.1l-.17,0h-.14l-.22,0-.28.06-.7.15h-.23l-.18,0h-.12l-.36.08-.41.09L67,25ZM73,28.05V29c0,.41-.08,1.64-.09,2C72.93,30,72.93,29.05,73,28.05Z"/><path class="cls-6" d="M106.8,48.26a5,5,0,0,0-3.8-1.89c-1,.07-6.52,1.51-7.93,1.86l-.21.05h-.47c-.17-.14.44-1.2.26-2,0-.07,0-.11-.05-.15h0c0-.12-.1-.23-.16-.35a.56.56,0,0,0-.09-.17h0a.79.79,0,0,0-.23-.28c-.54-.37-16.06,2.52-21.87,2.81-5.43.26-14.18-1.27-15.29-1.48h-.07v-.06a4.51,4.51,0,0,0-1.18-1h-.05l-.28-.16a.34.34,0,0,0-.14-.05h-.49l-.09.05h0a.18.18,0,0,0-.09.06l-.1.06-.08.08-.24.21a.24.24,0,0,1,0-.12l.14-.33v-.08a.38.38,0,0,0,0-.15v-.28a.43.43,0,0,0,0-.16c.11-2-.86-7-.85-8.36a.89.89,0,0,1,0-.23,1,1,0,0,1,.09-.33.1.1,0,0,1,.07-.07h0a10.79,10.79,0,0,0,2.52.48h1l.93.07h.28l.66,0h.21l1.55.16h.58l.46,0,1.72.17H64L66,37h.09c-.25-1-.44-2-.59-3a31,31,0,0,1-.09-8.27l-.63.13-.41.09h-.16l-.57.11h-.24c-.49.1-1,.19-1.42.26h-.56l-.65.09H59.55c-.24,0-.47,0-.71,0l-.26,0c-3-.44-7.34-2.11-9.94-1.75a3,3,0,0,0-.43.11.29.29,0,0,0-.13.05,2.62,2.62,0,0,0-.58.29l-.11.07h0a3.11,3.11,0,0,0-.23.28,7.09,7.09,0,0,0-.77,1.47h0c-.11.24-.23.5-.37.75l-.23.46c-.21.4-.41.8-.6,1.23l-.23.54-.1.16a6.36,6.36,0,0,1-.78.49l-.43.2-.12,0-.29.11a4.26,4.26,0,0,1-.62.13h0a.92.92,0,0,0-.36,0A6.34,6.34,0,0,1,38,29.3a20.42,20.42,0,0,0-2.54-1.6L35,27.48h.64a2.32,2.32,0,0,0,.38-.07h0a2,2,0,0,0,1.6-2.07c-.08-.47-.31-.9-.37-1.39a2.56,2.56,0,0,1,1-2.4c.82-.54,1.3-.22,1.93.31,1.63,1.35,2.77-2.32,4-3,.94-.54,2.06-.16,3,0A4.48,4.48,0,0,0,48,19l-.12-.8s1-.21.52-1.6a1.32,1.32,0,0,0-.1-.3c-.73-1.68-4.54-4.8-11.07-4s-5.9,9.72-4.9,12.62,2.1.86,2.18.7L34,27.17h0a2.67,2.67,0,0,0,.36.14l-.66,2.44a1.39,1.39,0,0,0-.33-.46h0v.36a.88.88,0,0,0-.55-.13h-.33a.41.41,0,0,0-.11.07,1.08,1.08,0,0,0-.32.32,2.83,2.83,0,0,0-.29,1l-.2.24-.23.26h0a17.43,17.43,0,0,0-2,2.32c-.42.63-.9,1.42-1.4,2.32-.09.16-.19.32-.27.48l-.21.39a31,31,0,0,0-2,4.45c-.14.34-.25.7-.38,1.08a16.38,16.38,0,0,0-.78,6.67,16.67,16.67,0,0,0,3.2,8.66,26.32,26.32,0,0,0,2.65,3.12,8.24,8.24,0,0,0,1,.8l.37.2h0l.43.24.7.36.69.35.32.15.14.06.22.11h.16l.28.14h.06l.11,0h.05l.21.09h0l.16.08.2.08h0l.52.23c.38.16.73.3,1,.41l.14.06.59.22a10.17,10.17,0,0,1,1-3.39,23,23,0,0,1,2.61-4.74c-.44.8.51,1.27,1.12,1.43.17,0,.56.14,1.08.25a40.85,40.85,0,0,0-2.33,3.73v.77h0a2.18,2.18,0,0,0,.06.6,1.22,1.22,0,0,1,0,.43v.26a3.87,3.87,0,0,0,.06.8,87.44,87.44,0,0,1,.3,10.24c-.28,5-.28,9.72-1.81,15.32a30.37,30.37,0,0,0-.88,9v1.42a13.36,13.36,0,0,0,.23,1.65.33.33,0,0,0,0,.2,1.14,1.14,0,0,0,.09.26.16.16,0,0,0,.06.08,10.1,10.1,0,0,0,2.33.28c.27,0-2.09,6-1.82,6.64s6.26.63,6.89,0c1.1-1.07-.27-6.92-.17-7.2s3.81-.09,4.08-2.4.54-16.79,1-20.75c.11-.92.26-1.83.44-2.7a1.67,1.67,0,0,1,.08-.32c0-.1.07-.32.11-.48.11-.45.22-.89.35-1.33.25-.86.51-1.71.77-2.54l.21-.63c.24-.67.47-1.34.69-2h0c0-.15.1-.28.14-.44a6.66,6.66,0,0,1,1.92-2.47c1.49-1.48,3.69-2.4,6.41-3.67,4.08-1.88,6.62-2.35,13-2.78S94.12,58.36,95,57.64s.45-4.67.73-4.86h.14c1.28-.19,9.15-.35,10.43-.62S107.34,49.26,106.8,48.26Z"/><path class="cls-3" d="M79,25.85c.77.41.87,1.14,1,2,.11,1,.87,2,0,2.88l-.09.08a3.78,3.78,0,0,0,1.35-.34c1-.7-.27-5.16-1.89-5.47a6.08,6.08,0,0,0-2.38.43A4.92,4.92,0,0,1,79,25.85Z"/><path class="cls-3" d="M106.8,48.26a5,5,0,0,0-3.8-1.89c-.58,0-2.53.5-4.39,1a16.46,16.46,0,0,1,2.43-.09c1.34.09,2.83,0,3.83,1.09a2.77,2.77,0,0,1,.67,3,4.44,4.44,0,0,1-.78.94c.54,0,1.07-.08,1.61-.16C107.71,51.82,107.34,49.26,106.8,48.26Z"/><path class="cls-3" d="M47,108.5c-.67.67-2,.38-2.83.37s-2.25.39-2.9-.45.07-1.79,0-2.67c-.58,1.75-1.3,3.91-1.14,4.29.27.65,6.26.63,6.89,0a3.26,3.26,0,0,0,.42-2.14A2.58,2.58,0,0,1,47,108.5Z"/><path class="cls-7" d="M33.35,29.53v0Z"/><path class="cls-7" d="M45.76,31.13c-.11,2.18.18,4.54-.38,6.66a6.18,6.18,0,0,1-1.44,2.72,2.61,2.61,0,0,1-1.45.87c-1.55.27-3.26-1.18-4.51-2.63a19.27,19.27,0,0,1-1.22-1.6c-1.33-2-1.95-4.35-2.9-6.53-.16-.36-.32-.71-.51-1.05h0l.33.46.66-2.44,0-.2a3.67,3.67,0,0,1,1.28,0,3.62,3.62,0,0,1,.32.22c.64.49,1.19,1.29,1.79,1.81l.14.12a6.34,6.34,0,0,0,4.31,1.67.87.87,0,0,0,.36-.05,3.25,3.25,0,0,0,.62-.13L43.5,31l.11,0h0a2.39,2.39,0,0,0,.43-.2,4.6,4.6,0,0,0,.78-.52h0a10,10,0,0,0,1.37-1.39A8.34,8.34,0,0,0,45.76,31.13Z"/><path class="cls-5" d="M43.49,58.37a40.69,40.69,0,0,0-2.33,3.72s-2,3.09-3.16,2.81l-.34-.06a10,10,0,0,1,1-3.39,23,23,0,0,1,2.61-4.74c-.44.8.51,1.27,1.11,1.43C42.58,58.16,43,58.26,43.49,58.37Z"/><path class="cls-8" d="M95.76,52.75c-.28.19.17,4.11-.73,4.86s-13,2-19.32,2.43-8.9.9-13,2.77C60,64.06,57.81,65,56.32,66.48a6.55,6.55,0,0,0-1.66,2.68l-.15.44h0c-.22.67-.45,1.35-.68,2l-.21.63c-.27.8-.54,1.68-.78,2.54-.12.44-.24.88-.35,1.33a2.73,2.73,0,0,1-.1.48c0,.16-.06.21-.08.32a25.35,25.35,0,0,0-.44,2.7c-.46,3.93-.73,18.39-1,20.75s-4,2.15-4.08,2.4l-4.9.56a10.67,10.67,0,0,1-2.32-.28.27.27,0,0,1-.07-.08,2.58,2.58,0,0,1-.08-.26.33.33,0,0,0,0-.2,13.32,13.32,0,0,1-.22-1.65V99.44a30.7,30.7,0,0,1,.87-9c1.56-5.6,1.56-10.27,1.81-15.33a89.56,89.56,0,0,0-.29-10.23c0-.27-.05-.54-.07-.8v-.69c0-.13,0-.42-.05-.6h0V62a37.58,37.58,0,0,1,2.33-3.73c-.52-.11-.91-.21-1.09-.26-.6-.15-1.55-.64-1.12-1.42a23.39,23.39,0,0,0-2.6,4.73,10,10,0,0,0-1.27,3.51l-.6-.22-.14-.06-1-.41-.51-.23h0l-.2-.08L35,63.76H35l-.21-.09h0l-.11-.05h-.06l-.28-.14a.08.08,0,0,1-.07,0h-.09l-.26-.24-.14-.07L33.35,63l-.69-.35-.7-.36L31.52,62h0l-.36-.21a7.5,7.5,0,0,1-1-.8,24.68,24.68,0,0,1-2.65-3.12,17.17,17.17,0,0,1-2.43-15.33c.13-.37.25-.73.38-1.08a32.71,32.71,0,0,1,2-4.45c.07-.13.13-.26.21-.38s.18-.32.27-.48c.5-.91,1-1.7,1.41-2.33a17.27,17.27,0,0,1,1.95-2.31h0l.24-.27a1.55,1.55,0,0,0,.19-.24,3.06,3.06,0,0,1,.3-1,1.34,1.34,0,0,1,.31-.32l.11-.07h.24c.41.34.8.71,1.18,1.09l.21.28c.45.65,8.2,8.36,8.65,7.8s1.19-5.73,1.63-7.11c.15-.48.32-.95.51-1.42l.05-.12c.25-.6.53-1.19.83-1.77l.23-.46c.14-.25.26-.5.37-.74h0a7.17,7.17,0,0,1,.77-1.48,1.55,1.55,0,0,1,.24-.27h0a2.7,2.7,0,0,1,.53-.43c3.2-.73,7.59,1.19,10.65,1.65l.26,0a4.21,4.21,0,0,0,.71,0h1.3l.66-.09H62c.45-.07.93-.16,1.43-.26h.24l.24,0,.32-.07h.17l.4-.09.71-.14.55-.12.53-.11h0l.26-.06.32-.07.41-.09.35-.08h.13l.18,0h.23l.7-.15.28-.05.21,0h.14l.18,0h.48l.19,0a.56.56,0,0,0,.28-.05h.56A2.76,2.76,0,0,1,72,25H73.2c0,1.1,0,2.3-.14,3.54v.19a12.67,12.67,0,0,0-.13,2.53V32.6a2.64,2.64,0,0,0,0,.66,2.23,2.23,0,0,1,.06.45,1,1,0,0,0,0,.36,5.54,5.54,0,0,1,.15.72,2.14,2.14,0,0,0,.09.34,1.33,1.33,0,0,0,.1.34c0,.12.07.21.1.32v.06l.18.2.66,1.25-.11.05-.23.07h-.2a12.32,12.32,0,0,1-1.92.06H70.79c-.48,0-1,0-1.55-.09H69l-.54,0-1.69-.15-.58-.05-2-.2h-.52l-1.72-.16-.46,0h-.58l-1.56-.15h-.2l-.67-.06h-.24l-.93-.06h-1A12,12,0,0,1,53.77,36h0a.13.13,0,0,0-.07.06,1.3,1.3,0,0,0-.08.34.81.81,0,0,0,0,.22c0,1.32,1,6.35.85,8.36a.43.43,0,0,1,0,.16v.28a.38.38,0,0,1,0,.15v.09l-.14.32a.24.24,0,0,0,0,.12l.24-.21.07-.07.1-.07a.33.33,0,0,1,.1-.06h0l.09,0h.52a.35.35,0,0,1,.14.06,1.51,1.51,0,0,1,.28.15h.05a4.37,4.37,0,0,1,1,.89v.06H57c1.12.21,9.87,1.73,15.3,1.48,5.8-.29,21.32-3.2,21.86-2.81a.88.88,0,0,1,.24.27l0,.08a1,1,0,0,1,.1.17.17.17,0,0,0,0,.14l.13.21h0a.29.29,0,0,0,0,.15c.1.33.23,1,.37,1.84h0C95.44,50.16,95.76,52.73,95.76,52.75Z"/><path class="cls-3" d="M59.09,61.74l-2.77,4.8a6.55,6.55,0,0,0-1.66,2.68l-.15.44h0l-.68,2-.21.63c-.27.8-.54,1.68-.78,2.55-.12.44-.24.88-.35,1.32a2.73,2.73,0,0,1-.1.48c0,.16-.06.21-.08.32a26,26,0,0,0-.44,2.71c-.46,3.92-.73,18.39-1,20.75s-4,2.15-4.08,2.4l-4.9.56a10.67,10.67,0,0,1-2.32-.28.27.27,0,0,1-.07-.08,1.5,1.5,0,0,0-.08-.27c0-.11,0-.12,0-.2a16.47,16.47,0,0,1-.22-1.65v-1c0-.59-.06-1.23-.06-1.92a5.31,5.31,0,0,0,4.76,2c1.85-.32,2.47-2.25,2.71-3.93.37-2.57.45-5.15.9-7.73A64,64,0,0,1,50,78.43C51.07,75.29,54,64.84,59.09,61.74Z"/><path class="cls-3" d="M71.32,59.29c-2.64.14-9.74-.56-13,2.92-.78.86-.54,2.4-1,3.47a31.22,31.22,0,0,1,5.44-2.83c4.08-1.88,6.62-2.35,13-2.78S94.12,58.36,95,57.64a3.32,3.32,0,0,0,.57-2.06A145.67,145.67,0,0,1,71.32,59.29Z"/><path class="cls-8" d="M57,47.61c-.28,1.47-.57,2.92-1,4.36s-1,2.75-1.47,4.13a9.63,9.63,0,0,1-1.73,3.55c-1.15,1.19-3.18,1.19-4.69,1.41a9.88,9.88,0,0,0-6.57,3.62l-.18.26c0-.27,0-.54-.07-.8v-.69c0-.13,0-.42,0-.6h0v-.77a38.77,38.77,0,0,1,2.33-3.73,8.13,8.13,0,0,1,2.91-2.81h0a17,17,0,0,0,5.29-2.87l.21-.18a6.17,6.17,0,0,0,1.83-2.85c.44-1.37.42-2.89,1.25-4.11a.17.17,0,0,0,0-.17h.14a.34.34,0,0,1,.14,0,4.81,4.81,0,0,1,1.36,1.09v.06h.06v.56C56.79,47.3,57,47.49,57,47.61Z"/><path class="cls-3" d="M73.71,36.05l-.12-.29V35.7a1.12,1.12,0,0,0-.1-.31c0-.11-.07-.23-.1-.35l-.1-.34c-.05-.23-.1-.47-.14-.71s0-.24-.06-.37,0-.3,0-.45,0-.44-.06-.66a4.26,4.26,0,0,1,0-.8,5.15,5.15,0,0,1-1.88,2.92,3.87,3.87,0,0,1-.34.21c-2.37,1.43-6,.67-8.69.53-1.55-.08-10.09-3.24-10.18.72a10.48,10.48,0,0,0-.22,2.68,23.94,23.94,0,0,0,.5,3.68c.77,3.4.61,7.47-2.27,9.81h0a.48.48,0,0,0,0,.17c.72-.49,1.51-.8,2.25-1.28a6.73,6.73,0,0,0,2.33-2.71,28.81,28.81,0,0,0,1.23-2.79h-.05l-.28-.16a.34.34,0,0,0-.14-.05h-.49l-.09.05h0a.18.18,0,0,0-.09.06l-.1.06-.08.08-.24.21v-.12l.14-.33v-.08a.38.38,0,0,0,0-.15v-.28a.43.43,0,0,0,0-.16c.11-2-.86-7-.85-8.36a.89.89,0,0,1,0-.23,1,1,0,0,1,.09-.33.1.1,0,0,1,.07-.07h0a10.79,10.79,0,0,0,2.52.48h1l.93.07h.28l.66,0h.21l1.55.16h.58l.46,0,1.72.17H64L66,37l.58.06,1.69.14.54,0h.27c.53.05,1,.08,1.55.1h1.09a13.69,13.69,0,0,0,1.92-.06h.2l.24-.07.1,0Z"/><path class="cls-9" d="M36.36,60c-.07,0-.86-.43-1.41-.67a.91.91,0,0,1,.2-.24C35.22,59.05,36.28,60,36.36,60Z"/><path class="cls-9" d="M47.05,53.18c.09,2.22-2.69,2.61-5.39,3.07-1.67.28-3.31.58-4.21,1.36-.15.13-10-1.35-3,1.55a3.43,3.43,0,0,1,.52.23c-.15.33,1,0,.48.68-.36.25,1.86,3.9,1.55,3.83A34.12,34.12,0,0,1,30.17,61a24.61,24.61,0,0,1-2.64-3.12,16.6,16.6,0,0,1-3.21-8.66,16.4,16.4,0,0,1,.78-6.67c.13-.37.24-.73.38-1.08a4,4,0,0,1,3.06-1.76c1.7,0,3.88,1.34,6.61,5.18.48.65,4.71,1.33,6.1,2a7.93,7.93,0,0,1,.14-1c.18-1.31.77-3.2,1.09-4.57a2.15,2.15,0,0,1,.09-.4c-.71-.4-2.68-1.08-4.6-2.23A13.29,13.29,0,0,1,35.64,37c-1-1-4.37-4.41-4.37-5.48h0A9.84,9.84,0,0,1,32,30a1.34,1.34,0,0,1,1.8-.39l-.13.5c-.07.24.16.45.38.8.36.54,4.92,5.4,8.7,6.4a.9.9,0,0,1,.08-.33,4.43,4.43,0,0,1-.29-.46,5.69,5.69,0,0,1-.65-2.72c0-.68,0-1.88.55-2.4l.18-.14h0a4.29,4.29,0,0,0,.62-.14l.29-.1.12-.05a2.39,2.39,0,0,0,.43-.2,5.35,5.35,0,0,0,.78-.49c.06-.15.09-.19.1-.16v.08c0,.39-.33,2-.4,2.4-.1,1.6.83,3.45.86,5v.3A13,13,0,0,1,45,42.45a36.42,36.42,0,0,0-1,6,5.76,5.76,0,0,1,1.36,1.1C46.46,50.92,46.87,51,47,52.4v.51h0A.54.54,0,0,1,47.05,53.18Z"/><path class="cls-10" d="M38.05,60.21c1.06-1.16,1.37-3.39,2.7-4.23s3.69,0,5.19-.32a16.42,16.42,0,0,0,8.14-3.87c1.17-1.11,3.11-3.19,2.88-5.1h-.12a4.59,4.59,0,0,0-1.46-1.21.73.73,0,0,0-.78,0c-1,1.93-1.88,4-3.64,5.38-2,1.6-4.47,2-6.83,2.69a10.83,10.83,0,0,0-4,2.08A16.54,16.54,0,0,0,37.51,59a14,14,0,0,1-3.88,4.16l1.69.8A31.07,31.07,0,0,1,38.05,60.21Z"/><path class="cls-8" d="M47.1,52.72a.5.5,0,0,1-.05.21h0a.84.84,0,0,1-.18.23l0,.05a4.56,4.56,0,0,1-1.68.72,8,8,0,0,0-1.77.86h0a8.64,8.64,0,0,0-1,.79h0a8.35,8.35,0,0,0-.59.6h0c-.12.14-.25.28-.37.44a22.69,22.69,0,0,0-2.61,4.73,10.15,10.15,0,0,0-1.05,3.49l-.6-.22-.14-.06c-.9-.42-1.8-.8-2.71-1.16h-.07a19,19,0,0,1-2.6-1.28,3.77,3.77,0,0,1-.39-.26,6.76,6.76,0,0,1-1-.8,24.81,24.81,0,0,1-2.65-3.12A17.17,17.17,0,0,1,25.1,42.61c.14-.37.25-.73.38-1.07a32.35,32.35,0,0,1,2-4.46l.2-.38c.08-.13.18-.32.28-.48a7.5,7.5,0,0,0,.61,3.56c.7,1.6,2,2.46,3.1,3.7a6,6,0,0,1,1.19,2.33,4.79,4.79,0,0,0,.78,1.7c.83,1,2.33.8,3.44.75a7,7,0,0,1,2.23.15A15,15,0,0,1,42,49.91c1.23.71,2.49,1.18,3.77,1.77a3.08,3.08,0,0,1,1.16.76A.52.52,0,0,1,47.1,52.72Z"/><path class="cls-10" d="M52.26,50.5c.55,0,4.46,6.4,6.12,9.59S62,72.73,62,72.79s-3.94.43-3.88,0S56.68,62.26,54.68,58.4,51,51.07,51,51.07Z"/><path class="cls-10" d="M48.31,52.46A108.85,108.85,0,0,0,47,68.16c.19,4.8.29,7.63.46,7.63h3.7c-.22,0-1.77-7.12-1.27-12.23a79.1,79.1,0,0,0,0-11.52Z"/><path class="cls-6" d="M52.56,55.68c-.42,1.24-1,2.8-2.21,3.28s-5-.17-6.86-.59c-.52-.11-.91-.21-1.09-.26-.6-.15-1.55-.65-1.11-1.42h0a1.92,1.92,0,0,1,.32-.43q.3-.32.63-.6h.06c.37-.29.77-.57,1-.8h0a8,8,0,0,1,3.44-1.59H47c1.14-.32,1.28-.51,2.42-.8a3.58,3.58,0,0,1,2.23.28,1.64,1.64,0,0,1,.59.52,1.13,1.13,0,0,1,.19.51C52.59,54.65,52.86,54.8,52.56,55.68Z"/><path class="cls-3" d="M52.48,53.71a1.17,1.17,0,0,0-.19-.51,1.56,1.56,0,0,0-.6-.51,3.12,3.12,0,0,0-1.27-.34,3.28,3.28,0,0,1,.16,3.83c-2,3.45-6.43,1.84-9.08.34h0l-.13.2h0c-.44.8.51,1.27,1.11,1.42.18,0,.57.15,1.09.26,1.91.42,5.54,1.13,6.86.59s1.79-2,2.21-3.28C52.86,54.8,52.59,54.65,52.48,53.71Z"/><path class="cls-6" d="M49.11,21.35a14.61,14.61,0,0,1-1.37,6.23c-1.05,2.07-2.67,4.71-5.08,4.9a5.94,5.94,0,0,1-3.31-.8,14,14,0,0,1-1.55-1.24,22.88,22.88,0,0,0-2.55-2.05c-.2-.1-.67.06-.78,0a3,3,0,0,0,1.2-.09A2.18,2.18,0,0,0,37.49,26c-.09-.53-.36-1-.43-1.55a2.83,2.83,0,0,1,1.08-2.68c.93-.61,1.48-.26,2.2.34,1.85,1.51,3.1-2.59,4.52-3.36,1.07-.6,2.33-.18,3.44.05a4.88,4.88,0,0,0,.93.09v.22a.17.17,0,0,0,0,.1A17.22,17.22,0,0,1,49.11,21.35Z"/><path class="cls-10" d="M49.77,18.5l-.08.13a1,1,0,0,1-.29.25h-.2a4.88,4.88,0,0,1-.93-.09c-1.1-.23-2.37-.65-3.44-.05-1.39.8-2.67,4.87-4.52,3.36-.72-.6-1.27-1-2.2-.34A2.83,2.83,0,0,0,37,24.44c.07.54.34,1,.43,1.55a2.17,2.17,0,0,1-1.82,2.31h0a2.26,2.26,0,0,1-.44.08,2.18,2.18,0,0,1-.51,0h-.21a4.18,4.18,0,0,1-.72-.15l-.39-.14h-.07a6.16,6.16,0,0,1-1-.6c-.29-.66-.55-1.33-.78-2C30.31,22.23,29.6,12.21,37,11.37S48.73,14,49.55,15.86l.13.33A3.8,3.8,0,0,1,49.77,18.5Z"/><path class="cls-3" d="M47.5,17.15c-1.47-.14-2.86-.72-4.34-.47a11.3,11.3,0,0,0-3.6,1.51c-2.09,1.14-4.37,1.91-6.59.6a4.66,4.66,0,0,1-1.8-2,16.8,16.8,0,0,0,.26,8.65,18.31,18.31,0,0,0,.78,2,6.5,6.5,0,0,0,1,.6h.07l.4.14a2.9,2.9,0,0,0,.71.15h.22a2.09,2.09,0,0,0,.5,0,2.14,2.14,0,0,0,.44-.08h.06A2.18,2.18,0,0,0,37.44,26c-.09-.52-.35-1-.42-1.55a2.82,2.82,0,0,1,1.08-2.68c.93-.6,1.47-.25,2.19.35,1.85,1.5,3.11-2.6,4.53-3.37,1.06-.6,2.33-.18,3.44.05a4.73,4.73,0,0,0,.93.09h.19a1.13,1.13,0,0,0,.3-.24l.07-.14a3.62,3.62,0,0,0,0-1.76A4.07,4.07,0,0,1,47.5,17.15Z"/></g></g></svg>