<svg id="Layer_19" data-name="Layer 19" xmlns="http://www.w3.org/2000/svg" viewBox="0 0 128 128"><defs><style>.cls-1{fill:#11485d;}.cls-2{fill:#c9d738;}.cls-3{fill:#f79673;}.cls-4{fill:#bdc5c6;}.cls-5{fill:#003054;}.cls-6{fill:#fbd738;}.cls-7{fill:#eac5ca;}.cls-8{fill:#e4eeef;}.cls-9{fill:#ea2877;}.cls-10{fill:#fff;}.cls-11{fill:#8c531b;}.cls-12{fill:#f29268;}.cls-13{fill:#ffaa82;}.cls-14{fill:#242d22;}.cls-15{fill:#a0621f;}.cls-16{fill:#dcdfe2;}.cls-17{fill:#1993ff;}.cls-18{fill:#094a72;}.cls-19{fill:#186084;}.cls-20{fill:#7699cf;}.cls-21{fill:#1286dd;}.cls-22{fill:#bfbfbf;}.cls-23{fill:#663a22;}.cls-24{fill:#dd805f;}.cls-25{fill:#844d31;}.cls-26{fill:#96583c;}.cls-27{fill:#d38462;}.cls-28{fill:#9b262e;}.cls-29{fill:#dd886b;}.cls-30{fill:#d7dadd;}.cls-31{fill:#cd3c41;}.cls-32{fill:#3d342e;}.cls-33{fill:#cc7962;}.cls-34{fill:#ab6624;}.cls-35{fill:none;}.cls-36{fill:#744628;}.cls-37{fill:#9e9c9c;}</style></defs><path class="cls-1" d="M14,21.51v-2.2c0-.08,0-.16,0-.25a12.3,12.3,0,0,1,3.3-7.39A20.07,20.07,0,0,1,23.9,7.13,39.43,39.43,0,0,1,31,4.77c1.41-.36,2.82-.72,4.25-1a56,56,0,0,1,7.09-.48,2.12,2.12,0,0,0,.56,0h6.46a1.15,1.15,0,0,0,.26,0c1,0,2.06.07,3.11.11,1.72.07,3.44.19,5.15.34,2.15.18,4.29.41,6.41.78A47.78,47.78,0,0,1,74.44,7c1.27.51,2.6.79,3.89,1.21A124.13,124.13,0,0,1,95,14.35a58.59,58.59,0,0,1,9.1,5.14.92.92,0,0,1,.26.22,3.52,3.52,0,0,0,1.13,1c.94.58,1.88,1.13,2.81,1.72a22,22,0,0,1,5.24,4.37,12.78,12.78,0,0,1,2.92,6c.09.49.15,1,.23,1.47v2.15c0,.32-.08.63-.13,1a23.23,23.23,0,0,1-2.1,6.75,48.49,48.49,0,0,1-6,9.27c-.52.66-1.09,1.27-1.59,2s-.89,1.3-1.38,1.92a163.48,163.48,0,0,1-11.2,12.9q-2.51,2.63-5.13,5.15c-1.74,1.69-3.64,3.44-5.52,5.09A117.78,117.78,0,0,1,74.08,88,72.72,72.72,0,0,1,63.6,94.29a4.8,4.8,0,0,0-.7.39c-.89.59-1.79,1.17-2.73,1.7a25.71,25.71,0,0,1-9.08,3.26c-.51.07-1,.12-1.56.18H47.2l-.22,0A17.32,17.32,0,0,1,40.53,98a24,24,0,0,1-7.72-6.29,43.8,43.8,0,0,1-5.32-8.31,81,81,0,0,1-4.71-11.64c-.4-1.2-.71-2.42-1.22-3.59a87.35,87.35,0,0,1-4.61-14,98.66,98.66,0,0,1-2.4-14.39c-.23-2.48-.35-5-.39-7.46,0-2.09,0-4.17.19-6.24a6.9,6.9,0,0,0,0-1.87,4.72,4.72,0,0,0-.1-.64C14.11,22.86,14,22.18,14,21.51Z"/><path class="cls-2" d="M68.38,72.71A2.11,2.11,0,1,1,66,70.9h0A2.12,2.12,0,0,1,68.38,72.71Z"/><path class="cls-3" d="M66.52,68.47l1.58,2.76s1.18,2.5-.18,3.68c-.26.21,0-1.7,0-1.7S66.74,71,66.67,71s-.15-.17-.28-.12a.52.52,0,0,0-.33.57l.12.72s.1,1.25-.37,1.26-.45-1.2-.45-1.2l-.23-1.64.11-1.75Z"/><path class="cls-3" d="M67.2,69.8s-2.66-11.87-3.7-13.39L61.57,57l4.24,13.73Z"/><path class="cls-3" d="M47.92,57.5s-2.66,7.36-6.2,1.54l-1.45,2s4.27,7.54,9.56-2.38Z"/><path class="cls-3" d="M42.14,60.72h0a.66.66,0,0,1-.88-.31L40.17,58.1a.66.66,0,0,1,.31-.88h0a.67.67,0,0,1,.88.31l1.1,2.32a.65.65,0,0,1-.32.87Z"/><path class="cls-4" d="M38.67,52h0a.73.73,0,0,1,.87.57l2.2,10.56a.73.73,0,0,1-.57.87h0a.73.73,0,0,1-.86-.57l-2.2-10.56A.73.73,0,0,1,38.67,52Z"/><path class="cls-5" d="M39.12,57.68l1.41-.29h0l1.19,5.7a.73.73,0,0,1-.56.86h0a.73.73,0,0,1-.86-.56l-1.18-5.71Z"/><path class="cls-4" d="M39.44,53.3l-.18.2a.52.52,0,0,1-.74,0l0,0-4.33-4.78a.62.62,0,0,1,0-.84l-.22-.1c.22-.24,2.36,1.45,2.57,1.68l3,3A.64.64,0,0,1,39.44,53.3Z"/><path class="cls-4" d="M38.48,53.5l.26.1a.51.51,0,0,0,.69-.22l0-.07,2.06-6.11a.64.64,0,0,0-.36-.73l.12.21c-.3-.13-1.74,2-1.84,2.31l-1.3,3.78A.65.65,0,0,0,38.48,53.5Z"/><path class="cls-6" d="M38.23,49.3h0a.13.13,0,0,1-.15-.09h0L35.52,36.94a.14.14,0,0,1,.09-.15h0a.15.15,0,0,1,.16.09l2.55,12.29A.12.12,0,0,1,38.23,49.3Z"/><path class="cls-6" d="M32.26,43.87l9-1.87a.12.12,0,0,1,.15.1h0a.14.14,0,0,1-.1.15l-9,1.87a.13.13,0,0,1-.15-.1h0A.12.12,0,0,1,32.26,43.87Z"/><path class="cls-6" d="M31.83,41.83l9-1.87a.14.14,0,0,1,.16.1h0a.14.14,0,0,1-.11.15l-9,1.87a.13.13,0,0,1-.16-.1h0A.14.14,0,0,1,31.83,41.83Z"/><path class="cls-6" d="M32.79,46.4l9-1.87a.12.12,0,0,1,.15.09h0a.13.13,0,0,1-.1.15l-9,1.88a.13.13,0,0,1-.15-.1h0A.12.12,0,0,1,32.79,46.4Z"/><path class="cls-6" d="M32.06,39.57,39.58,38a.13.13,0,0,1,.16.1h0a.14.14,0,0,1-.11.15l-7.51,1.56a.13.13,0,0,1-.16-.1h0A.14.14,0,0,1,32.06,39.57Z"/><path class="cls-6" d="M39.67,49h0a.13.13,0,0,1-.15-.1L37,36.62a.12.12,0,0,1,.09-.15h0a.12.12,0,0,1,.15.08v0l2.56,12.28A.13.13,0,0,1,39.67,49Z"/><path class="cls-6" d="M38.93,37.51h0a.12.12,0,0,1,.15.1l2.06,9.87a.12.12,0,0,1-.1.15h0a.13.13,0,0,1-.15-.1l-2-9.87A.11.11,0,0,1,38.93,37.51Z"/><path class="cls-6" d="M32.79,38.26h0a.13.13,0,0,1,.15.1L35.1,48.71a.14.14,0,0,1-.1.16h0a.14.14,0,0,1-.15-.11L32.7,38.42A.14.14,0,0,1,32.79,38.26Z"/><path class="cls-6" d="M36.82,49.59h0a.12.12,0,0,1-.15-.1L34.11,37.21a.13.13,0,0,1,.1-.15h0a.13.13,0,0,1,.15.1h0l2.56,12.28A.13.13,0,0,1,36.82,49.59Z"/><path class="cls-5" d="M35.35,36.22c-2.89.6-4.58,4.18-3.78,8s3.78,6.44,6.66,5.87,4.57-4.19,3.78-8S38.23,35.64,35.35,36.22ZM38,48.75c-2.42.5-4.94-1.69-5.61-4.91s.76-6.24,3.19-6.75,4.93,1.7,5.61,4.92S40.4,48.27,38,48.78Z"/><path class="cls-3" d="M55.46,93,53,93.16,51.77,69.93,55.55,69C55.35,75.12,55.32,88.18,55.46,93Z"/><ellipse class="cls-5" cx="56.48" cy="69.3" rx="4.36" ry="3.33"/><path class="cls-3" d="M57.42,93.05l2.54.06,1-23.19-3.67-.07C57.45,76,57.56,88.28,57.42,93.05Z"/><path class="cls-7" d="M61.05,53H51.42l.28,6.28v.13l.24,9.32a9.5,9.5,0,0,0,8.51,1.37l.47-2.44.07-10h0Z"/><path class="cls-7" d="M57.71,50a2.76,2.76,0,0,0-2.83,0c-2.14,1.44-5.42,2.35-5.42,4.54,0,0,0,1.57,1.16,1.57H62c1.13,0,1.17-1.57,1.17-1.57C63.13,52.32,59.84,51.39,57.71,50Z"/><path class="cls-7" d="M51,52.28s-2.33,1.14-4.21,6l2.89,1.93,1.6-3.86L52.15,54Z"/><path class="cls-7" d="M62.37,52.84s1.23,1,2.83,5.94l-3.37,1.28-1.37-3.9-.72-2.4Z"/><polygon class="cls-8" points="47.24 57.34 50.25 59.18 49.99 59.56 47.1 57.73 47.24 57.34"/><polygon class="cls-8" points="64.85 57.66 61.49 59.09 61.6 59.45 64.94 58.04 64.85 57.66"/><path class="cls-9" d="M62.92,74.82a53.66,53.66,0,0,1-13.16-.19l2-9.88,9.16-.06Z"/><path class="cls-10" d="M53.51,50.79a2.43,2.43,0,0,0,2.63,2.57,2.81,2.81,0,0,0,3-2.59v0l-2.28-1.25-1.74.12Z"/><path class="cls-3" d="M39.57,59.34l-1-.48a.67.67,0,0,1-.32-.9h0a.68.68,0,0,1,.9-.32h0l1,.46a.69.69,0,0,1,.32.91h0A.68.68,0,0,1,39.57,59.34Z"/><path class="cls-3" d="M39.53,60.48l-1-.47a.73.73,0,0,1-.33-.92h0a.69.69,0,0,1,.91-.32h0l1,.47a.72.72,0,0,1,.32.91h0A.71.71,0,0,1,39.53,60.48Z"/><path class="cls-3" d="M39.65,61.62l-1-.47a.72.72,0,0,1-.33-.91h0a.72.72,0,0,1,.93-.33l1,.48a.72.72,0,0,1,.32.91h0A.72.72,0,0,1,39.65,61.62Z"/><path class="cls-11" d="M60.2,37.25s1,12.28,8,12.48L65.9,45.46s2.55,3.61,3.4,3.73a44.88,44.88,0,0,1-2.39-4.75,21.47,21.47,0,0,1-1.07-3.84C63.94,38.09,62,36.4,60.2,37.25Z"/><path class="cls-11" d="M52,37.25s-1,12.28-8,12.48l2.31-4.27s-2.55,3.61-3.39,3.73a44.88,44.88,0,0,0,2.39-4.75,21.44,21.44,0,0,0,1.06-3.84C48.29,38.09,50.23,36.4,52,37.25Z"/><path class="cls-12" d="M57.48,51.32c0,.6-2.58.6-2.58,0V47h2.58Z"/><path class="cls-12" d="M59.82,45c0,1,.48,1.78,1.17,1.73s1.28-.9,1.33-1.91-.49-1.8-1.17-1.74S59.86,44,59.82,45Z"/><path class="cls-12" d="M49.67,45.31c.26,1,1,1.57,1.64,1.31A1.89,1.89,0,0,0,52,44.4c-.24-1-1-1.57-1.64-1.32A1.88,1.88,0,0,0,49.67,45.31Z"/><path class="cls-13" d="M56,35.51h0a5.13,5.13,0,0,1,5.13,5.13v4.24A5.12,5.12,0,0,1,56,50h0a5.13,5.13,0,0,1-5.13-5.13V40.64A5.13,5.13,0,0,1,56,35.51Z"/><path class="cls-14" d="M52.74,44c0,.45.23.81.51.81s.51-.37.51-.82-.23-.82-.52-.82S52.74,43.5,52.74,44Z"/><ellipse class="cls-14" cx="58.5" cy="43.95" rx="0.51" ry="0.82" transform="translate(-0.21 0.29) rotate(-0.28)"/><path class="cls-10" d="M57.67,46.21l-3.37,0a.23.23,0,0,0-.24.22.17.17,0,0,0,0,.07A2,2,0,0,0,56,48.18a2,2,0,0,0,1.95-1.67.23.23,0,0,0-.17-.29Z"/><path class="cls-3" d="M55.94,45.66h0a.43.43,0,0,0,.42-.41v-.77a.41.41,0,0,0-.39-.42h0a.42.42,0,0,0-.42.4v.78A.42.42,0,0,0,55.94,45.66Z"/><path class="cls-11" d="M58.82,36.14s.51-2.75,3.79-1.44c2.17.88,3.25,5.91,3.25,5.91Z"/><path class="cls-11" d="M53.41,36.14s-.51-2.75-3.8-1.44c-2.17.88-3.24,5.91-3.24,5.91Z"/><path class="cls-6" d="M60.65,37.27l-2-1.05a.56.56,0,0,1-.24-.76h0l.11-.21a.62.62,0,0,1,.81-.22l2,1.09a.57.57,0,0,1,.24.76v0l-.12.2A.58.58,0,0,1,60.65,37.27Z"/><path class="cls-6" d="M51.23,37.27l2-1.05a.56.56,0,0,0,.23-.75v0l-.11-.21a.62.62,0,0,0-.81-.22l-2,1.06a.57.57,0,0,0-.23.78l.12.2A.59.59,0,0,0,51.23,37.27Z"/><path class="cls-15" d="M55,35.24s-8.18.3-3.88,10.06l.2-.29c.4-1.37-.23-4.33,1.16-6.95A6.37,6.37,0,0,1,55,35.24Z"/><path class="cls-15" d="M56.8,35.24s8.27.19,4,9.95h-.06C59.74,44.38,62,38.39,56.8,35.24Z"/><path class="cls-15" d="M53.44,39.76l.64,2.89h1.06l3.54-.1.08-1.9.72,1.94h1.07c0-5.91-3.69-7.33-3.69-7.33H55c-3.55.78-3.17,7.62-3.17,7.62l1.45-.21Z"/><polygon class="cls-9" points="55.48 93.15 52.77 93.54 52.77 89.96 55.38 89.96 55.48 93.15"/><path class="cls-7" d="M55.56,94.65H48.47a1.76,1.76,0,0,1,1.39-2.05l.23,0h5.48Z"/><path class="cls-16" d="M51.77,94.65h-3.3a1.73,1.73,0,0,1,1.33-2,.85.85,0,0,1,.23,0h.32a1.61,1.61,0,0,1,1.44,1.76Z"/><polygon class="cls-14" points="48.45 95.01 55.53 95.01 55.54 94.57 48.46 94.57 48.45 95.01"/><path class="cls-7" d="M51.92,92.9l.83-.82h2.6a.25.25,0,0,1,.24.25v.56Z"/><path class="cls-10" d="M50.86,92.58a1.44,1.44,0,0,1,1.08,1.2l.56,0s-.09-1.16-1-1.28Z"/><path class="cls-10" d="M51.91,92.58A1.46,1.46,0,0,1,53,93.8h.55s-.09-1.15-1-1.28Z"/><polygon class="cls-9" points="57.38 93.15 60.09 93.54 60.09 89.96 57.49 89.96 57.38 93.15"/><path class="cls-7" d="M57.31,94.65h7.08a1.74,1.74,0,0,0-1.39-2,1,1,0,0,0-.25,0H57.31Z"/><path class="cls-16" d="M61.1,94.65h3.29a1.72,1.72,0,0,0-1.34-2,.76.76,0,0,0-.21,0h-.32a1.61,1.61,0,0,0-1.44,1.76Z"/><polygon class="cls-14" points="64.41 95.01 57.33 95.01 57.33 94.57 64.4 94.57 64.41 95.01"/><path class="cls-7" d="M60.92,92.9l-.82-.82H57.51a.26.26,0,0,0-.26.25v.56Z"/><path class="cls-10" d="M62,92.58a1.44,1.44,0,0,0-1.09,1.2l-.55,0s.09-1.16,1-1.28Z"/><path class="cls-10" d="M60.92,92.58a1.44,1.44,0,0,0-1.08,1.2h-.56s.1-1.15,1-1.28Z"/><path class="cls-3" d="M81.47,91.67,79,91.85l-.31-23.3,3.81-.9C82.07,73.79,81.52,86.88,81.47,91.67Z"/><path class="cls-5" d="M83.1,81.3a5.3,5.3,0,0,1-4.81,0l.36-13h4.8Z"/><path class="cls-3" d="M89.56,92.11l-2.44.21L84,69.51l3.67-.89C88,74.61,89,87.43,89.56,92.11Z"/><path class="cls-5" d="M89.34,81.07a4.57,4.57,0,0,1-4.39.1L83.78,68.36l4.39-.1Z"/><rect class="cls-17" x="78.84" y="86.77" width="2.73" height="5.85"/><polygon class="cls-17" points="89.67 92.83 86.82 92.83 86.13 86.85 88.99 86.85 89.67 92.83"/><ellipse class="cls-5" cx="83.19" cy="67.89" rx="4.6" ry="3.51"/><path class="cls-18" d="M81.72,94.74H74.64a1.75,1.75,0,0,1,1.38-2l.26,0h5.48Z"/><path class="cls-19" d="M77.93,94.74H74.64a1.71,1.71,0,0,1,1.33-2l.23,0h.31A1.62,1.62,0,0,1,78,94.42Z"/><polygon class="cls-14" points="74.62 95.13 81.7 95.13 81.7 94.69 74.63 94.69 74.62 95.13"/><path class="cls-18" d="M78.09,93l.82-.82h2.6a.25.25,0,0,1,.25.25V93Z"/><path class="cls-16" d="M77,92.72a1.45,1.45,0,0,1,1.09,1.21h.55s-.09-1.14-1-1.27Z"/><path class="cls-16" d="M78.08,92.71a1.44,1.44,0,0,1,1.09,1.21h.55s-.09-1.15-1-1.27Z"/><path class="cls-18" d="M89.69,94.85H82.6a1.74,1.74,0,0,1,1.38-2,2.3,2.3,0,0,1,.26,0h5.48Z"/><path class="cls-19" d="M85.89,94.85H82.6a1.73,1.73,0,0,1,1.34-2l.22,0h.31a1.62,1.62,0,0,1,1.45,1.76Z"/><polygon class="cls-14" points="82.58 95.22 89.66 95.22 89.67 94.77 82.59 94.77 82.58 95.22"/><path class="cls-18" d="M86.05,93.11l.83-.82h2.59a.25.25,0,0,1,.25.24v.57Z"/><path class="cls-16" d="M85,92.81A1.43,1.43,0,0,1,86.07,94h.56s-.09-1.15-1-1.27Z"/><path class="cls-16" d="M86.05,92.79A1.47,1.47,0,0,1,87.13,94h.56s-.1-1.15-1-1.27Z"/><rect class="cls-20" x="87.58" y="68.13" width="0.56" height="13.25" transform="translate(-8.26 10.96) rotate(-6.82)"/><path class="cls-17" d="M76.68,52l-1.81,5.39,3.39,1.45s2.08-5.36,1.89-6.63S76.68,52,76.68,52Z"/><path class="cls-17" d="M88.18,63.26l.29,5.16s-7.36,2.52-9.87-.48l-.06-11,.95-3.18,5.72.23,3-.4Z"/><path class="cls-21" d="M88.18,63.26l.29,5.16s-7.36,2.52-9.87-.48c6.24.35,8.18-6.58,9.61-14.37Z"/><path class="cls-17" d="M85.06,48.13a2.87,2.87,0,0,0-2.89-.06c-2.16,1.4-5.52,2.25-5.57,4.46,0,0,0,1.58,1.14,1.6l5.71.13,5.72.13c1.13,0,1.21-1.55,1.21-1.55C90.47,50.67,87.18,49.63,85.06,48.13Z"/><path class="cls-3" d="M89.68,69,88.6,70.05l-.94.9s.22.66,1.12,0c.59-.45,1.11-.92,1.17-.59S90.69,68.1,89.68,69Z"/><path class="cls-3" d="M90.19,70h0a.45.45,0,0,1,.44.46L90.48,74c0,.25-.06.47-.31.47h0c-.26,0-.29-.24-.28-.48l-.12-3.57A.46.46,0,0,1,90.19,70Z"/><path class="cls-3" d="M90.63,70.27h.05a.45.45,0,0,1,.48.41h0l.17,3.57c0,.25,0,.48-.26.5h0c-.24,0-.3-.2-.33-.45l-.49-3.54A.46.46,0,0,1,90.63,70.27Z"/><path class="cls-3" d="M91,69.46h0a.45.45,0,0,1,.52.37h0L92,73.39c0,.25,0,.48-.23.52h0c-.24,0-.31-.18-.35-.44L90.65,70A.44.44,0,0,1,91,69.46Z"/><path class="cls-3" d="M91.65,68.57h0a.47.47,0,0,1,.52.39l.35,3.54c0,.26,0,.49-.23.52h0c-.25,0-.32-.18-.36-.43l-.67-3.51A.46.46,0,0,1,91.65,68.57Z"/><path class="cls-3" d="M92.37,70.47,92.08,68l-.81-.52s-1.86,1.44-2,2,.73,1,.62,2S92.37,70.47,92.37,70.47Z"/><path class="cls-3" d="M90.4,52.41c1.87,4.48,1.45,12.73,1.77,16.06H90A43.88,43.88,0,0,0,87.62,54Z"/><path class="cls-17" d="M87.15,54.28l1.28,7.9,3.66-.72S91.85,54.3,90.23,52C89.28,50.67,87.15,54.28,87.15,54.28Z"/><path class="cls-22" d="M80.43,60.86A5.29,5.29,0,0,0,75.16,56h-.44a5.3,5.3,0,0,0,.42,10.59h.44a5.29,5.29,0,0,0,4.84-5.72h0Z"/><polygon class="cls-14" points="73.7 57.84 71.88 58.9 72.04 60.84 74.01 61.01 74.95 59.06 73.7 57.84"/><polygon class="cls-14" points="79.34 58.77 77.84 57.75 76.95 58.99 78.07 60.84 79.48 60.55 79.34 58.77"/><path class="cls-14" d="M77.22,62.6h0s-1.31,0-1.81,0h-.13v-.15l-.88,1.84,1.55,1.18,1.78-1.18Z"/><path class="cls-14" d="M76.7,56.28a2.39,2.39,0,0,0-1.21-.23,7.94,7.94,0,0,0-1.75.25.05.05,0,0,0,0,.06s0,.08.64.38h0a6,6,0,0,1,1.38-.25,1,1,0,0,1,.63.16h0l.32-.37Z"/><path class="cls-14" d="M71.16,58.08h-.11A4.46,4.46,0,0,0,70,60.53v.26l1-1.83h0C71.21,58.15,71.18,58.1,71.16,58.08Z"/><path class="cls-14" d="M71.54,62.79l-1.3-.15.42,1.45c.2.67,1.45,1.27,1.53,1.3h.06l.19-1.09Z"/><path class="cls-14" d="M80.26,62.23H80.2a1.21,1.21,0,0,0-.32.11h0A5.84,5.84,0,0,1,79,64.1h0a2.27,2.27,0,0,1-.13.77l.08.07a4.81,4.81,0,0,0,1.33-2.7Z"/><path class="cls-14" d="M77.14,59a.09.09,0,0,0,0-.07.11.11,0,0,0-.08,0A19.51,19.51,0,0,0,74.9,59a.1.1,0,0,0-.1.11h0a.09.09,0,0,0,.1.1h0a17.34,17.34,0,0,1,2.16-.09h.08a.09.09,0,0,0,0-.13Z"/><path class="cls-14" d="M76.37,56.72h0a4.87,4.87,0,0,1,1.3,1.18.12.12,0,0,0,.08,0h0a.13.13,0,0,0,.09-.07.09.09,0,0,0,0-.1,5.31,5.31,0,0,0-1.36-1.23.12.12,0,0,0-.14.08A.1.1,0,0,0,76.37,56.72Z"/><path class="cls-14" d="M73.67,58h0a.1.1,0,0,0,.09-.06,11.76,11.76,0,0,1,.65-1.21.11.11,0,0,0,0-.14h0a.11.11,0,0,0-.15,0q-.36.6-.66,1.23a.1.1,0,0,0,0,.16Z"/><path class="cls-14" d="M71.91,59a.1.1,0,0,0,.1-.1.1.1,0,0,0-.1-.11H71a.08.08,0,0,0-.09,0,.09.09,0,0,0,0,.1A.11.11,0,0,0,71,59l1,0Z"/><path class="cls-14" d="M72.09,60.71a.13.13,0,0,0-.08.07h0a10.91,10.91,0,0,0-.6,2,.09.09,0,0,0,0,.1h.07a.09.09,0,0,0,.06-.08,11.41,11.41,0,0,1,.6-2,.09.09,0,0,0,0-.13H72Z"/><path class="cls-14" d="M74.19,60.91a.11.11,0,0,0-.15,0,.1.1,0,0,0,0,.14l1.06,1.57a.11.11,0,0,0,.09.05h0a.1.1,0,0,0,.08-.06.09.09,0,0,0,0-.1Z"/><path class="cls-14" d="M74.4,64.24a9.94,9.94,0,0,1-1.89,0,.1.1,0,0,0-.12.08h0a.13.13,0,0,0,.09.07,10.09,10.09,0,0,0,1.09.06,7.87,7.87,0,0,0,.84,0,.09.09,0,0,0,.09-.06.11.11,0,0,0,0-.11A.12.12,0,0,0,74.4,64.24Z"/><path class="cls-14" d="M76,65.32a.11.11,0,0,0-.13.08h0a8.17,8.17,0,0,1-.32,1,.1.1,0,0,0,.06.13h0a.1.1,0,0,0,.09-.07,5,5,0,0,0,.32-1A.1.1,0,0,0,76,65.32Z"/><path class="cls-14" d="M79,64a2.35,2.35,0,0,1-1.33.19.11.11,0,0,0,0,.21,1.93,1.93,0,0,0,.34,0,2.59,2.59,0,0,0,1.1-.24.1.1,0,0,0,.05-.13A.11.11,0,0,0,79,64Z"/><path class="cls-14" d="M79.57,60.54a.1.1,0,0,0-.14,0,.11.11,0,0,0,0,.15,2.06,2.06,0,0,1,.51,1.61.09.09,0,0,0,.08.1h0a.1.1,0,0,0,.11-.09h0A2.29,2.29,0,0,0,79.57,60.54Z"/><path class="cls-14" d="M78.18,60.74a.1.1,0,0,0-.09-.06.09.09,0,0,0-.09,0,6.32,6.32,0,0,0-.94,1.87.09.09,0,0,0,0,.1h.08a.16.16,0,0,0,.08-.06,6,6,0,0,1,.91-1.83A.08.08,0,0,0,78.18,60.74Z"/><path class="cls-14" d="M79.71,58.69a.11.11,0,0,0-.07-.08.09.09,0,0,0-.1,0h0a.43.43,0,0,1-.24.1.1.1,0,0,0-.08.06.11.11,0,0,0,0,.11.12.12,0,0,0,.08,0h0a.65.65,0,0,0,.35-.15A.16.16,0,0,0,79.71,58.69Z"/><path class="cls-10" d="M77.32,62.63s.88-1.62.9-1.68a10.68,10.68,0,0,1,1.11-.18s.6.72.52,1.21c0,0-.42,1.83-.94,2-.14,0-.86.23-1.16,0Z"/><polygon class="cls-10" points="74.98 59.24 76.82 59.15 77.64 60.61 76.91 62.53 75.39 62.53 74.33 60.84 74.98 59.24"/><polygon class="cls-10" points="72.26 61.07 73.85 61.2 74.88 62.47 74.19 64.06 72.5 64.02 71.68 62.71 72.26 61.07"/><path class="cls-10" d="M71,59.15l-.8,1.64.08,1.64.73.12.72-1.69-.07-1.61Z"/><path class="cls-10" d="M72.82,64.64l1.44-.07,1.17.88-.24.86a9,9,0,0,1-2.53-.73Z"/><path class="cls-10" d="M76.29,65.45l1.32-.82a3.93,3.93,0,0,0,1.13-.13,2.14,2.14,0,0,1-1.82,1.44l-1,.25Z"/><path class="cls-10" d="M74.33,57.82l.39-.84a5.94,5.94,0,0,1,1.45-.18l1.14.86-.49,1.05-1.76.06Z"/><path class="cls-10" d="M73.28,56.69a7.23,7.23,0,0,0-1.59,1.09l-.34.64h.72l1.17-.64.44-1.09Z"/><path class="cls-10" d="M77,56.53A4.65,4.65,0,0,1,78.91,58l-.19.1S77.27,57.3,77,56.53Z"/><path class="cls-10" d="M79.5,59.3s.12,1.07.12,1.07l.6,1.16a8.79,8.79,0,0,0-.45-2.38Z"/><path class="cls-3" d="M71.18,63l-1.4-.77a.51.51,0,0,1-.2-.7v0h0a.52.52,0,0,1,.71-.21h0l1.28.92c.25.14.42.34.28.59h0A.51.51,0,0,1,71.18,63Z"/><path class="cls-3" d="M71.18,64l-1.41-.77a.51.51,0,0,1-.22-.69l0,0h0a.53.53,0,0,1,.71-.21h0l1.41.77a.52.52,0,0,1,.21.7v0h0a.52.52,0,0,1-.69.23Z"/><path class="cls-3" d="M71.14,64.54,69.7,63.9a.51.51,0,0,1-.23-.69l0,0h0a.49.49,0,0,1,.68-.23l0,0,1.4.77a.52.52,0,0,1,.21.7v0h0C71.67,64.71,71.39,64.68,71.14,64.54Z"/><path class="cls-3" d="M70.16,61l-.51-.28a.52.52,0,0,1-.21-.71v0h0a.51.51,0,0,1,.69-.22l0,0,.48.37c.34.32.37.36.24.61h0a.52.52,0,0,1-.69.25Z"/><path class="cls-10" d="M80.82,48.87a2.21,2.21,0,0,0,2.38,2.62A3.1,3.1,0,0,0,86.47,49l-2.28-1.39-1.74.11Z"/><path class="cls-23" d="M77.58,41.33s.3.35.53-.72c.31-1.49.5-4.93,1.24-5.06.2,0,1.62-.25.88-.64-1.25-.64-2.38.23-2.65,1.55A14.74,14.74,0,0,0,77.58,41.33Z"/><path class="cls-13" d="M85.14,49.14c0,1.37-3,1.3-2.94-.07l.1-4.56,2.94.07Z"/><path class="cls-12" d="M78.19,42.44l.71-4.95a4.63,4.63,0,0,1,5.24-3.94h0a4.63,4.63,0,0,1,3.94,5.24l-.71,5a4.63,4.63,0,0,1-5.24,3.94h0A4.64,4.64,0,0,1,78.19,42.44Z"/><path class="cls-13" d="M83.36,33.44h0a4.41,4.41,0,0,1,3.74,5l-.78,5.41a4.4,4.4,0,0,1-5,3.74h0a4.41,4.41,0,0,1-3.74-5l.78-5.42A4.4,4.4,0,0,1,83.36,33.44Z"/><path class="cls-14" d="M79.28,40.84c-.07.47.12.89.41.93s.59-.3.65-.78-.12-.88-.41-.93S79.34,40.37,79.28,40.84Z"/><path class="cls-14" d="M84,41.52c-.06.47.12.88.42.92s.59-.31.65-.78-.12-.88-.42-.92S84,41.05,84,41.52Z"/><path class="cls-23" d="M78.61,38.92a5.31,5.31,0,0,1,2.17.21l.09-.68a4.3,4.3,0,0,0-2.22-.2Z"/><path class="cls-23" d="M83.32,39.66a5.58,5.58,0,0,1,2.29.34l.14-.72a4.49,4.49,0,0,0-2.37-.35Z"/><path class="cls-23" d="M77.87,36.47c2.29-1.87,8.33.05,9.25,1.13-.12,2.46-1.65,5.27-.16,6.18l1.41-.54,1.45-4.33c.31-1,.43-2.47-1.27-2.78Z"/><path class="cls-12" d="M86.93,42.81c-.3,1,0,1.95.73,2.08s1.55-.6,1.85-1.62,0-2-.72-2.08S87.22,41.78,86.93,42.81Z"/><polygon class="cls-23" points="86.78 43.64 88.05 41.04 86.63 42.12 86.78 43.64"/><path class="cls-24" d="M87.49,42.81c-.12.28.41.39.42.64s-.43.81-.15.89c.45.12,1.07-.35,1.37-1.07s.19-1.4-.26-1.53S87.8,42.09,87.49,42.81Z"/><path class="cls-12" d="M82.24,47.69c1.38.07,3,.57,2.89,1.45a14.78,14.78,0,0,1,.23-2.4A6.89,6.89,0,0,1,82.24,47.69Z"/><path class="cls-10" d="M83,44.1l-3.46-.51a.24.24,0,0,0-.28.21v.06a2.08,2.08,0,0,0,1.7,2,2.13,2.13,0,0,0,2.23-1.44.26.26,0,0,0-.13-.33Z"/><path class="cls-25" d="M78,36.61a2.33,2.33,0,0,0,.42.41c.41.19.84.36,1.26.51a22.83,22.83,0,0,0,8,1.09,12.28,12.28,0,0,0,2-.15h0a6.36,6.36,0,0,0-.39-2.36c-1.66-3.87-6.26-3.82-8-3.23-2.68,1-3.61.76-4,.59l-.19.13A3.92,3.92,0,0,0,78,36.61Zm5.78-3.3c1-.38,3.95-.41,5,2a4.26,4.26,0,0,1,.25,1.5s-9.1.72-11.3-3a18.83,18.83,0,0,0,6-.52Z"/><path class="cls-26" d="M89,36.85a4,4,0,0,0-.25-1.5c-1-2.45-4-2.42-5-2a18.47,18.47,0,0,1-6,.54C79.9,37.6,89,36.85,89,36.85Z"/><path class="cls-27" d="M80.43,42.48s.15.86.81.89a1.28,1.28,0,0,0,1-.6,5.88,5.88,0,0,1-1-.05A3.69,3.69,0,0,1,80.43,42.48Z"/><polygon class="cls-8" points="91.99 60.12 88.28 61.04 88.38 61.41 92.06 60.52 91.99 60.12"/><ellipse class="cls-28" cx="22.33" cy="69.01" rx="4.36" ry="3.33"/><path class="cls-29" d="M21.32,92.66l-2.46.21L17.62,69.64l3.78-.91C21.19,74.83,21.19,87.89,21.32,92.66Z"/><path class="cls-29" d="M23.27,92.77l2.54,0,1-23.19-3.68-.07C23.3,75.66,23.42,88,23.27,92.77Z"/><path class="cls-28" d="M22,81.43a5.28,5.28,0,0,1-4.62,0V69.36H22Z"/><path class="cls-28" d="M27.33,81.54a5.06,5.06,0,0,1-4.61,0V69.4L27,69.28Z"/><rect class="cls-4" x="18.66" y="89.82" width="2.7" height="2.61"/><rect class="cls-4" x="23.22" y="89.82" width="2.7" height="2.61"/><path class="cls-11" d="M21.47,94.7H14.63a1.68,1.68,0,0,1,1.32-2l.26,0H21.5Z"/><path class="cls-15" d="M17.8,94.7H14.62a1.66,1.66,0,0,1,1.32-2,1.25,1.25,0,0,1,.19,0h.3a1.56,1.56,0,0,1,1.37,1.7Z"/><polygon class="cls-14" points="14.6 95.06 21.45 95.06 21.45 94.63 14.61 94.63 14.6 95.06"/><path class="cls-11" d="M18,93l.8-.8h2.51a.23.23,0,0,1,.23.24h0V93Z"/><path class="cls-16" d="M16.93,92.73A1.4,1.4,0,0,1,18,93.9h.53s-.08-1.11-.93-1.23Z"/><path class="cls-16" d="M18,92.71A1.42,1.42,0,0,1,19,93.88h.53s-.08-1.11-.93-1.23Z"/><path class="cls-11" d="M23.18,94.7H30a1.67,1.67,0,0,0-1.36-2,1.07,1.07,0,0,0-.25,0H23.14Z"/><path class="cls-15" d="M26.84,94.7H30a1.66,1.66,0,0,0-1.27-2l-.23,0h-.3a1.56,1.56,0,0,0-1.38,1.7Z"/><polygon class="cls-14" points="30.04 95.06 23.2 95.06 23.19 94.63 30.04 94.63 30.04 95.06"/><path class="cls-11" d="M26.69,93l-.8-.8H23.38a.24.24,0,0,0-.24.24h0V93Z"/><path class="cls-16" d="M27.69,92.73a1.4,1.4,0,0,0-1.05,1.17h-.53s.08-1.11.93-1.23Z"/><path class="cls-16" d="M26.7,92.71a1.41,1.41,0,0,0-1.06,1.17h-.53s.09-1.11.93-1.23Z"/><polygon class="cls-4" points="18.36 81.8 17.89 81.66 17.89 69 18.36 69 18.36 81.8"/><polygon class="cls-4" points="26.58 81.8 27.05 81.66 26.41 69.16 25.94 69.16 26.58 81.8"/><path class="cls-29" d="M5.8,55.24s-.17,1.88.23,2.23S6.8,55.13,5.8,55.24Z"/><path class="cls-29" d="M6,57s2.26,2.39,2.42.88C8.43,57.9,6.33,56.45,6,57Z"/><path class="cls-29" d="M5.23,54.91s-.06,1.89.36,2.21S6.22,54.74,5.23,54.91Z"/><path class="cls-29" d="M9,60.45l-2.82-1.8s-2.28-2.89-1.88-3.36c.51-.66,1.5,1.49,1.5,1.49S7.46,58.08,7.51,58s.22.06.3-.06a.5.5,0,0,0,0-.65l-.5-.55s-.77-1-.38-1.26,1,.76,1,.76l1.09,1.25L9.91,59Z"/><path class="cls-30" d="M7.94,59.67s8.79,13.6,9.25-.41l-2.8-.53s1.44,7.9-4.87-.27Z"/><path class="cls-31" d="M26.91,52.71H17.27l.3,6.29v.13l-.28,10.23c4.05,3,9.8.1,9.8.1V65.12l-.21-7.74h0Z"/><path class="cls-31" d="M23.56,49.68a3.3,3.3,0,0,0-1.44-.39,3.34,3.34,0,0,0-1.45.39c-2.13,1.45-5.42,2.36-5.42,4.55,0,0,.05,1.57,1.17,1.57H27.76c1.13,0,1.17-1.57,1.17-1.57C29,52,25.69,51.13,23.56,49.68Z"/><path class="cls-31" d="M16,52.64s-1.93,1.51-1.75,6.77l3.46.43,0-4.2-.17-2.51Z"/><path class="cls-29" d="M23.35,51c0,.59-2.58.59-2.58,0V46.7h2.58Z"/><ellipse class="cls-29" cx="26.85" cy="44.67" rx="1.84" ry="1.24" transform="matrix(0.14, -0.99, 0.99, 0.14, -21.14, 64.99)"/><ellipse class="cls-29" cx="16.7" cy="44.57" rx="1.24" ry="1.84" transform="translate(-6.95 3.26) rotate(-9.25)"/><path class="cls-12" d="M21.83,35.22h0A5.13,5.13,0,0,1,27,40.35v4.24a5.13,5.13,0,0,1-5.13,5.13h0a5.13,5.13,0,0,1-5.13-5.13V40.35A5.13,5.13,0,0,1,21.83,35.22Z"/><ellipse class="cls-14" cx="19.11" cy="43.67" rx="0.51" ry="0.82" transform="matrix(1, 0, 0, 1, -0.21, 0.09)"/><path class="cls-14" d="M23.84,43.67c0,.45.24.82.52.82s.51-.37.5-.83-.23-.81-.51-.81S23.84,43.22,23.84,43.67Z"/><path class="cls-32" d="M18,42a5,5,0,0,1,2-.09v-.65a4,4,0,0,0-2.11.1Z"/><path class="cls-32" d="M23.35,41.94a5.29,5.29,0,0,1,2.17,0l0-.72a4.36,4.36,0,0,0-2.21.06Z"/><path class="cls-10" d="M23.53,45.92l-3.38,0a.24.24,0,0,0-.24.24s0,0,0,.06a2,2,0,0,0,1.89,1.72,2.06,2.06,0,0,0,2-1.67.25.25,0,0,0-.17-.3Z"/><path class="cls-32" d="M16.5,44.79l-.95-2.71a5,5,0,0,1,.78-4.78l.57-.73L17,44.73a.23.23,0,0,1-.26.22A.24.24,0,0,1,16.5,44.79Z"/><path class="cls-32" d="M27,45l.72-2.53a5.69,5.69,0,0,0-1-5.11l-.46-.57.27,8.14A.25.25,0,0,0,27,45Z"/><path class="cls-29" d="M29,70.32l-1.08,1.06-1,.91s.22.65,1.12,0c.59-.44,1.11-.91,1.17-.59S30,69.46,29,70.32Z"/><path class="cls-29" d="M29.47,71.3h.05a.46.46,0,0,1,.44.46l-.21,3.56c0,.25-.05.48-.3.47H29.4c-.25,0-.28-.23-.27-.47L29,71.75a.44.44,0,0,1,.46-.45Z"/><path class="cls-29" d="M29.91,71.62h0a.46.46,0,0,1,.49.42l.17,3.56c0,.25,0,.48-.26.5h0c-.25,0-.31-.19-.33-.45l-.49-3.53a.47.47,0,0,1,.41-.5Z"/><path class="cls-29" d="M30.31,70.81h0a.45.45,0,0,1,.52.38l.36,3.55c0,.25,0,.48-.23.52H31c-.24,0-.31-.19-.35-.44l-.67-3.5A.44.44,0,0,1,30.31,70.81Z"/><path class="cls-29" d="M30.93,69.9H31a.46.46,0,0,1,.51.39l.36,3.55c0,.25,0,.48-.23.51h0c-.25,0-.32-.18-.36-.42l-.64-3.51A.46.46,0,0,1,30.93,69.9Z"/><path class="cls-29" d="M31.65,71.8l-.29-2.47-.84-.52s-1.86,1.45-2,2,.73,1,.62,2S31.65,71.8,31.65,71.8Z"/><path class="cls-30" d="M28.79,54c2,4.43,2.25,12.51,2.7,15.84l-2.17.06a43.61,43.61,0,0,0-3-14.27Z"/><path class="cls-31" d="M27.62,52.05s2.08,1.13,3,6.7L27.17,60.1l-1.91-4.42.62-2.55Z"/><path class="cls-32" d="M27,38.8c0,1.37-.34-.67-5.56-.64-4.79,0-5.48,2-5.48.64s2.47-2.49,5.52-2.49S27,37.42,27,38.8Z"/><circle class="cls-32" cx="15.4" cy="37.95" r="1.04"/><circle class="cls-32" cx="14.98" cy="39.7" r="1.04"/><circle class="cls-32" cx="15.64" cy="36.17" r="1.04"/><circle class="cls-32" cx="18.58" cy="34.28" r="1.04"/><circle class="cls-32" cx="20.44" cy="34.16" r="1.04"/><circle class="cls-32" cx="22.37" cy="34.17" r="1.04"/><circle class="cls-32" cx="24.25" cy="34.57" r="1.04"/><circle class="cls-32" cx="25.8" cy="35.36" r="1.04"/><circle class="cls-32" cx="27.15" cy="36.23" r="1.04"/><circle class="cls-32" cx="27.61" cy="37.44" r="1.04"/><circle class="cls-32" cx="27.61" cy="39.13" r="1.04"/><circle class="cls-32" cx="27.63" cy="40.77" r="1.04"/><circle class="cls-32" cx="23.76" cy="37.79" r="1.04"/><circle class="cls-32" cx="21.88" cy="37.58" r="1.04"/><circle class="cls-32" cx="25.64" cy="38.3" r="1.04"/><circle class="cls-32" cx="20.14" cy="37.61" r="1.04"/><circle class="cls-32" cx="18.48" cy="37.87" r="1.04"/><circle class="cls-32" cx="16.78" cy="38.55" r="1.04"/><circle class="cls-32" cx="15.24" cy="41.21" r="1.04"/><circle class="cls-32" cx="17.1" cy="35.02" r="1.04"/><path class="cls-32" d="M15.75,41.57l-.65-4.91a8.35,8.35,0,0,1,6.2-2.61,12.7,12.7,0,0,1,6.64,2s-.38,6.58-.72,6.45S26.84,39,26.58,39s-3.07-1.82-3.32-1.82S16.76,36.66,15.75,41.57Z"/><path class="cls-33" d="M22.7,44.69s-.29.86-.95.8a1.12,1.12,0,0,1-.89-.72,2.16,2.16,0,0,0,.83.17A3.93,3.93,0,0,0,22.7,44.69Z"/><path class="cls-34" d="M6,44.33a5.77,5.77,0,0,0-3.92,1.54h0A5.75,5.75,0,0,0,.28,49.72h0v.37A5.78,5.78,0,1,0,6.06,44.3Z"/><path class="cls-35" d="M3.51,50.76,3,50.67A8.65,8.65,0,0,1,.27,50v.15a5.78,5.78,0,0,0,1.78,4.18h0A7.83,7.83,0,0,0,3.51,50.76Z"/><path class="cls-35" d="M3.12,50.32l.41.07v-.56c0-1.31-.31-3.14-1.56-3.85h0A5.77,5.77,0,0,0,.24,49.52h0A8,8,0,0,0,3.12,50.32Z"/><path class="cls-35" d="M8.09,50.45a6,6,0,0,1,0-1c.07-1.34.47-3,1.72-3.75a5.86,5.86,0,0,0-3.47-1.37v6.29C6.9,50.55,7.49,50.51,8.09,50.45Z"/><path class="cls-35" d="M4,49.41a5.91,5.91,0,0,1,0,1,15.06,15.06,0,0,0,2,.14V44.29a5.75,5.75,0,0,0-3.66,1.4C3.49,46.43,3.85,48.08,4,49.41Z"/><path class="cls-35" d="M10,46c-1.25.72-1.57,2.54-1.57,3.85v.57l.73-.11a6.31,6.31,0,0,0,2.47-.73h.12A5.79,5.79,0,0,0,10,46Z"/><path class="cls-35" d="M9.63,54.43a8.27,8.27,0,0,1-1.5-3.62c-.61.08-1.21.12-1.81.14v4.89A5.8,5.8,0,0,0,9.76,54.5.17.17,0,0,1,9.63,54.43Z"/><path class="cls-35" d="M5.93,51a15.31,15.31,0,0,1-2-.16A8.5,8.5,0,0,1,2.4,54.43s0,0-.07.06a5.75,5.75,0,0,0,3.61,1.35V51Z"/><path class="cls-35" d="M9.22,50.67l-.72.1a8,8,0,0,0,1.44,3.47.06.06,0,0,1,0,.06,5.75,5.75,0,0,0,1.85-4.23V50A7,7,0,0,1,9.22,50.67Z"/><path class="cls-36" d="M11.68,49.56a6.29,6.29,0,0,1-2.47.72l-.73.11a.92.92,0,0,0,0,.37l.72-.1A6.79,6.79,0,0,0,11.79,50v-.4A.22.22,0,0,0,11.68,49.56Z"/><path class="cls-36" d="M3.93,50.44a1.14,1.14,0,0,1,0,.37,15.31,15.31,0,0,0,2,.16v-.39A14.83,14.83,0,0,1,3.93,50.44Z"/><path class="cls-36" d="M3.51,50.76l.05-.37-.44-.07a8,8,0,0,1-2.79-.81h0a2.94,2.94,0,0,0,0,.42A8.68,8.68,0,0,0,3,50.66Z"/><path class="cls-36" d="M6.32,51a15.93,15.93,0,0,0,1.81-.14,2.33,2.33,0,0,1,0-.37c-.6.06-1.19.1-1.77.13Z"/><path class="cls-36" d="M6.32,51V44.29H5.93V55.84h.36v-.06C6.31,54.17,6.31,52.56,6.32,51Z"/><path class="cls-36" d="M8.51,50.77a1,1,0,0,0,0-.37,2.7,2.7,0,0,1,0-.57c0-1.31.32-3.14,1.57-3.85a.09.09,0,0,0,.06-.06,2.33,2.33,0,0,0-.28-.26c-1.25.73-1.64,2.41-1.72,3.75a6,6,0,0,0,0,1c0,.12,0,.25.05.37a8.17,8.17,0,0,0,1.49,3.61.14.14,0,0,0,.12.08A2.25,2.25,0,0,0,10,54.3a0,0,0,0,0,0,0A8,8,0,0,1,8.51,50.77Z"/><path class="cls-36" d="M2.4,54.43a8.39,8.39,0,0,0,1.5-3.62c0-.12,0-.24,0-.37a8.85,8.85,0,0,0,0-1c-.08-1.33-.46-3-1.68-3.72L2,46H2c1.25.72,1.56,2.54,1.56,3.85v.56l0,.37a8,8,0,0,1-1.44,3.48h0l.26.24Z"/><rect class="cls-28" x="18.64" y="90.42" width="2.72" height="0.45"/><rect class="cls-28" x="23.22" y="90.42" width="2.72" height="0.45"/><path class="cls-13" d="M98.69,38.9,95.51,38s-4,0-3.82-.57c.08-.32,2.22-.22,2.22-.22s1.92-.06,2.54,0c0,0,.23.07.27-.07a.48.48,0,0,0-.32-.45l-.68-.33s-1.08-.62-.82-1,1.24.32,1.24.32l1.44.72L99,37.42Z"/><path class="cls-12" d="M127.22,39.41s-1.72-.78-2.17-.52S127,40.4,127.22,39.41Z"/><path class="cls-12" d="M126,39s-3,1.53-1.58,2.17C124.35,41.19,126.33,39.49,126,39Z"/><path class="cls-12" d="M127.72,39s-1.76-.68-2.17-.39S127.55,40,127.72,39Z"/><path class="cls-13" d="M122.06,41l2.31-2.17s3.26-2.17,3.62-1.66c.18.26-1.65,1.39-1.65,1.39s-1.84,1.64-1.84,1.7-.12.19,0,.31a.51.51,0,0,0,.62.18l.73-.29s1.18-.39,1.3.07-1.06.72-1.06.72l-1.55.61-1.72.31Z"/><path class="cls-17" d="M111.36,48.5a3,3,0,0,0-1.34-.41,3.18,3.18,0,0,0-1.35.35c-2,1.36-4.81-1.19-5.78,1.39,0,0,2.81,1.27,2.55,5.36l4,1.26,3.31-.38c1.07,0,3.78-5.18,3.78-5.18C116.56,48.73,113.35,50,111.36,48.5Z"/><circle class="cls-32" cx="115.41" cy="34.71" r="2.77"/><path class="cls-5" d="M108.93,90.09a1.43,1.43,0,0,1-1.22,1.63l-.15,0a1.66,1.66,0,0,1-1.67-1.5,1.45,1.45,0,0,1,1.24-1.63h.14A1.62,1.62,0,0,1,108.93,90.09Z"/><path class="cls-13" d="M108,89.69l-2,.83L104.12,63.9l4.34,3.1C108.54,73.11,107.63,84.94,108,89.69Z"/><path class="cls-13" d="M111,49.3c-.05,1.32-2.89,1.2-2.83-.13l.19-4.4,2.83.12Z"/><path class="cls-12" d="M108.32,47.29c1.3.45,2.83.63,2.74,1.5a13.33,13.33,0,0,1,.3-2.17A7.28,7.28,0,0,1,108.32,47.29Z"/><path class="cls-17" d="M113.11,50.61c2.08-4.2,7.07-8.28,9.69-10.2l.61,1.65c-3.2,2.74-4.68,4.92-7.22,9.34Z"/><path class="cls-12" d="M105.68,41.85l1.55-4.29a4.21,4.21,0,0,1,5.4-2.54h0a4.21,4.21,0,0,1,2.54,5.4l-1.55,4.29a4.22,4.22,0,0,1-5.4,2.55h0A4.23,4.23,0,0,1,105.68,41.85Z"/><rect class="cls-13" x="103.24" y="36.88" width="13.01" height="8.03" rx="4.01" transform="translate(34.03 130.25) rotate(-70.16)"/><path class="cls-14" d="M106.87,40.56c-.15.41-.06.81.19.9s.59-.17.73-.57,0-.82-.21-.91S107,40.18,106.87,40.56Z"/><ellipse class="cls-14" cx="111.39" cy="42.21" rx="0.79" ry="0.49" transform="translate(34.32 133.04) rotate(-70.44)"/><path class="cls-32" d="M106.7,38.78a5,5,0,0,1,1.88.59l.21-.59a3.9,3.9,0,0,0-1.94-.59Z"/><path class="cls-32" d="M110.78,40.32a5.19,5.19,0,0,1,2,.72l.26-.61a4.23,4.23,0,0,0-2-.73Z"/><path class="cls-10" d="M109.69,44.22l-3-1.09a.21.21,0,0,0-.29.13s0,0,0,.06a1.88,1.88,0,0,0,1.14,2.11,1.91,1.91,0,0,0,2.25-.86.24.24,0,0,0-.06-.33Z"/><path class="cls-32" d="M115,37.07c-.34,3.22-5.85-3-9.19,2.64,0,0,.86-7.88,6.61-6C112.37,33.71,115.55,34.78,115,37.07Z"/><path class="cls-32" d="M112.61,36.7s0,6.25,3.46,7.4c0,0,4.89-7.22-1.85-9A12.56,12.56,0,0,0,112.61,36.7Z"/><ellipse class="cls-12" cx="114.51" cy="44.23" rx="1.77" ry="1.19" transform="translate(13.99 114.69) rotate(-56.15)"/><path class="cls-24" d="M113.91,43.9c-.16.23.29.42.25.64s-.53.65-.3.77c.39.2,1-.12,1.45-.72s.42-1.22,0-1.45S114.32,43.32,113.91,43.9Z"/><path class="cls-27" d="M109.37,42.82s-.72.63-1.27.31a.89.89,0,0,1-.44-1,2.09,2.09,0,0,0,.72.49A3.66,3.66,0,0,0,109.37,42.82Z"/><path class="cls-5" d="M106.12,89.22s.06,3.15.24,5.31a1,1,0,0,0,1,.86h.18c.36,0,.88-.26.91-.62s.09-.91.09-1.73c0-2.26.24-2,.12-3.05C108.4,87.87,106.12,89.22,106.12,89.22Z"/><path class="cls-13" d="M107.93,89.78c.14.61-.39,1.79-.3,2.74.05.46-.18.86-.52.89h0a.81.81,0,0,1-.72-.72c0-.17-.08-.39-.14-.66a13,13,0,0,1-.43-3.17c0-.84,1.14-.61,1.45-.53S107.89,89.44,107.93,89.78Z"/><path class="cls-17" d="M106.44,50.78a2,2,0,0,1,.83.41,2.25,2.25,0,0,0,2.5.33c.94-.46,2-.72,2.68,0a9.37,9.37,0,0,1,1.45,1.87,3.69,3.69,0,0,1,.23,1.58l-1.54,4.24a2.32,2.32,0,0,1-2.39,1.84l-3.5-.16c-1,0-.89.26-1.15-.73l-.77-8.39C105.24,50.82,105.39,50.52,106.44,50.78Z"/><path class="cls-17" d="M105.59,59.1l-1.45,4.77,3.7,4.26h.31a2.66,2.66,0,0,0,1.64-.62l3.38-2.83a5.22,5.22,0,0,0-2-5.41A4.54,4.54,0,0,0,105.59,59.1Z"/><ellipse class="cls-5" cx="119.64" cy="62.18" rx="1.52" ry="1.58" transform="translate(-11.33 30.13) rotate(-13.71)"/><path class="cls-5" d="M121,62.88s-.52-3.13-1-5.24A.9.9,0,0,0,119,57h0l-.17,0c-.36.09-.84.42-.81.78s.05.92.16,1.73a30.37,30.37,0,0,0,.34,3.06C119,64.64,121,62.88,121,62.88Z"/><path class="cls-13" d="M119.18,62.66c-.22-.59.13-1.85-.11-2.77a.8.8,0,0,1,.38-1h0c.32-.1.65.14.8.56l.24.62a13.25,13.25,0,0,1,.89,3.08c.11.83-1,.81-1.38.8S119.3,63,119.18,62.66Z"/><path class="cls-13" d="M109.53,67.82l11.73,5.52s1.57-2,1.4-2.09l-9.53-7.78c-1.45.34-3.44,1.1-4,2.51C108.72,66.91,108.83,67.5,109.53,67.82Z"/><path class="cls-13" d="M120.83,61.51s6.63,16-2.38,10.5c0,0,3.47-1.49,1-9.17Z"/><circle class="cls-9" cx="94.85" cy="34.49" r="3.15"/><path class="cls-13" d="M98.69,38.9,95.51,38s-4,0-3.82-.57c.08-.32,2.22-.22,2.22-.22s1.92-.06,2.54,0c0,0,.23.07.27-.07s.9-.72.9-.72L99,37.46Z"/><ellipse class="cls-9" cx="113.12" cy="34.07" rx="0.82" ry="0.86"/><ellipse class="cls-9" cx="114.07" cy="34.75" rx="0.82" ry="0.86"/><ellipse class="cls-9" cx="115.29" cy="35.43" rx="0.82" ry="0.86"/><ellipse class="cls-9" cx="116.72" cy="36.35" rx="0.82" ry="0.86"/><path class="cls-17" d="M105,53.08c-3.14-3.3-6.72-11.43-7.72-14.69l1.66-1a41.94,41.94,0,0,0,7.18,11.86Z"/><g id="Layer_2" data-name="Layer 2"><g id="Layer_1-2" data-name="Layer 1-2"><path class="cls-37" d="M17.93,121.06l-2.86,4.33h0l-2.81-4.29v6.59H10V117.54h2.41l2.66,4.28,2.67-4.28h2.4v10.15H17.93Z"/><path class="cls-37" d="M30.09,126.68a4.48,4.48,0,0,1-3.27,1.16,4.4,4.4,0,0,1-3.24-1.15,4.6,4.6,0,0,1-1.16-3.36v-5.79h2.24v5.73a2.67,2.67,0,0,0,.57,1.87,2.09,2.09,0,0,0,1.61.65,2.12,2.12,0,0,0,1.62-.63,2.6,2.6,0,0,0,.57-1.82v-5.8h2.23v5.72A4.57,4.57,0,0,1,30.09,126.68Z"/><path class="cls-37" d="M33.55,117.54h2.23v8.11h5v2H33.55Z"/><path class="cls-37" d="M45.66,127.69H43.43v-8.1H40.34v-2h8.42v2H45.68Z"/><path class="cls-37" d="M50.57,117.54H52.8v10.15H50.57Z"/><path class="cls-37" d="M66,127a4.15,4.15,0,0,1-2.7.83,6.62,6.62,0,0,1-2.29-.41,6.42,6.42,0,0,1-2-1.22l1.32-1.58a6.25,6.25,0,0,0,1.47.92,4,4,0,0,0,1.56.32,2,2,0,0,0,1.08-.25.79.79,0,0,0,.39-.7v0a.75.75,0,0,0-.16-.5A1.49,1.49,0,0,0,64,124a11.34,11.34,0,0,0-1.29-.4,11.28,11.28,0,0,1-1.86-.62,2.72,2.72,0,0,1-1.1-.92,2.68,2.68,0,0,1-.4-1.56h0a2.82,2.82,0,0,1,.46-1.6,3,3,0,0,1,1.26-1.07,4.13,4.13,0,0,1,1.83-.39,5.81,5.81,0,0,1,3.77,1.29l-1.17,1.64a4.74,4.74,0,0,0-2.63-1,1.61,1.61,0,0,0-1,.25.75.75,0,0,0-.35.63h0a.83.83,0,0,0,.18.55,1.63,1.63,0,0,0,.64.39c.46.15.92.29,1.4.4a6.15,6.15,0,0,1,2.43,1.13,2.42,2.42,0,0,1,.78,1.94h0A2.79,2.79,0,0,1,66,127Z"/><path class="cls-37" d="M76.45,123A3.43,3.43,0,0,1,75,124.23a5.21,5.21,0,0,1-2.1.41H71.19v3H69V117.54h4.15a4.45,4.45,0,0,1,2.06.44,3.21,3.21,0,0,1,1.35,1.23A3.47,3.47,0,0,1,77,121h0A3.39,3.39,0,0,1,76.45,123Zm-2.2-3a2,2,0,0,0-1.33-.4H71.19v3.1H73a1.84,1.84,0,0,0,1.29-.43,1.43,1.43,0,0,0,.48-1.11h0A1.39,1.39,0,0,0,74.25,120Z"/><path class="cls-37" d="M88.28,125.25a5.28,5.28,0,0,1-1.94,1.9,5.83,5.83,0,0,1-5.53,0,5.14,5.14,0,0,1-2.62-4.52h0a5.09,5.09,0,0,1,.7-2.64,5.16,5.16,0,0,1,1.94-1.91,5.81,5.81,0,0,1,5.52,0,5.1,5.1,0,0,1,1.93,1.9,5.26,5.26,0,0,1,.7,2.63h0A5.22,5.22,0,0,1,88.28,125.25Zm-2-4.21a3.09,3.09,0,0,0-1.1-1.17,3.16,3.16,0,0,0-3.15,0A3,3,0,0,0,80.92,121a3.29,3.29,0,0,0-.39,1.6h0a3.18,3.18,0,0,0,.4,1.59A3,3,0,0,0,85,125.47a3.06,3.06,0,0,0,1.26-1.26,3.34,3.34,0,0,0,.39-1.59h0a3.23,3.23,0,0,0-.4-1.61Z"/><path class="cls-37" d="M95,124.43H93.2v3.26H91V117.54h4.65a4.06,4.06,0,0,1,2.8.89,3.07,3.07,0,0,1,1,2.45h0a3.23,3.23,0,0,1-.57,2,3.4,3.4,0,0,1-1.6,1.17l2.48,3.62H97.12Zm1.75-4.51a2,2,0,0,0-1.29-.37H93.2v2.91h2.26a1.86,1.86,0,0,0,1.26-.39,1.29,1.29,0,0,0,.45-1h0a1.28,1.28,0,0,0-.46-1.11Z"/><path class="cls-37" d="M106,127.69h-2.23v-8.1h-3.09v-2h8.42v2h-3.09Z"/><path class="cls-37" d="M116.94,127a4.17,4.17,0,0,1-2.7.83,6.68,6.68,0,0,1-2.3-.41,6.38,6.38,0,0,1-2-1.22l1.32-1.58a6,6,0,0,0,1.46.92,4,4,0,0,0,1.57.32,2,2,0,0,0,1.08-.27.77.77,0,0,0,.39-.7h0a.75.75,0,0,0-.16-.5,1.49,1.49,0,0,0-.6-.39,11.34,11.34,0,0,0-1.29-.4,11,11,0,0,1-1.86-.62,2.72,2.72,0,0,1-1.1-.92,2.68,2.68,0,0,1-.4-1.56h0a2.82,2.82,0,0,1,.46-1.6,3,3,0,0,1,1.26-1.07,4.13,4.13,0,0,1,1.83-.39,5.84,5.84,0,0,1,3.78,1.29l-1.17,1.69a4.73,4.73,0,0,0-2.64-1,1.65,1.65,0,0,0-1,.25.77.77,0,0,0-.34.64h0a.82.82,0,0,0,.18.54,1.59,1.59,0,0,0,.63.39,13.38,13.38,0,0,0,1.41.4,6.25,6.25,0,0,1,2.43,1.11,2.43,2.43,0,0,1,.79,1.93h0A2.83,2.83,0,0,1,116.94,127Z"/></g></g></svg>