<svg id="Layer_24" data-name="Layer 24" xmlns="http://www.w3.org/2000/svg" viewBox="0 0 128 128"><defs><style>.cls-1{fill:#11485d;}.cls-2{fill:#cccecd;}.cls-3{fill:#f08b66;}.cls-4{fill:#fecb2b;}.cls-5{fill:#fff;}.cls-6{fill:#ffad84;}.cls-7{fill:#ef1f2f;}.cls-8{fill:#681818;}.cls-9{fill:#f1b628;}.cls-10{fill:#f07d2b;}.cls-11{fill:#b75129;}.cls-12{fill:#f9c2aa;}.cls-13{fill:#fff04f;}.cls-14{fill:#c9970a;}.cls-15{fill:#912823;}.cls-16{fill:#9b4949;}.cls-17{fill:#0c5ba4;}.cls-18{fill:#a4d527;}.cls-19{fill:#8c4d31;}.cls-20{fill:#4a2c23;}.cls-21{fill:#231410;}.cls-22{fill:#c8f930;}.cls-23{fill:#799929;}.cls-24{fill:#1482c6;}.cls-25{fill:#0a3759;}.cls-26{fill:#9e9c9c;}</style></defs><g id="Layer_2" data-name="Layer 2"><g id="Layer_1-2" data-name="Layer 1-2"><path class="cls-1" d="M12.88,19.94V17.41A12.49,12.49,0,0,1,16.32,9.8a20.72,20.72,0,0,1,6.87-4.68,42.16,42.16,0,0,1,7.4-2.43c1.48-.37,2.95-.74,4.44-1a58.77,58.77,0,0,1,7.38-.5,2,2,0,0,0,.59,0h6.73l.26,0c1.08,0,2.16.06,3.24.1,1.79.07,3.58.2,5.37.35,2.24.19,4.46.43,6.68.81A50.57,50.57,0,0,1,75.86,5c1.31.52,2.71.81,4,1.25a129.37,129.37,0,0,1,17.39,6.3,60.52,60.52,0,0,1,9.5,5.31.93.93,0,0,1,.27.22,3.79,3.79,0,0,0,1.18,1c1,.6,2,1.17,2.92,1.77a23,23,0,0,1,5.47,4.5,13.16,13.16,0,0,1,3,6.16c.1.5.16,1,.23,1.51v2.21l-.15,1a23.37,23.37,0,0,1-2.21,7,49.46,49.46,0,0,1-6.2,9.55c-.54.68-1.14,1.31-1.62,2s-.93,1.34-1.43,2A171.3,171.3,0,0,1,96.62,70q-2.61,2.7-5.34,5.31c-1.82,1.74-3.74,3.48-5.75,5.24a127.3,127.3,0,0,1-10,7.88,76.5,76.5,0,0,1-10.92,6.47,4.72,4.72,0,0,0-.73.41c-.93.61-1.87,1.21-2.84,1.75a27.54,27.54,0,0,1-9.46,3.36c-.54.07-1.07.12-1.62.18H47.5l-.24,0a18.26,18.26,0,0,1-6.72-1.82,24.88,24.88,0,0,1-8-6.48,45.44,45.44,0,0,1-5.56-8.55,84.19,84.19,0,0,1-4.91-12c-.41-1.23-.74-2.49-1.27-3.69A89.9,89.9,0,0,1,16,53.55a100.49,100.49,0,0,1-2.5-14.83c-.24-2.56-.36-5.11-.4-7.68q0-3.18.2-6.42a7.8,7.8,0,0,0-.06-1.93,5,5,0,0,1-.1-.66C13,21.32,12.92,20.63,12.88,19.94Z"/><g id="_1" data-name=" 1"><g id="_2" data-name=" 2"><path class="cls-2" d="M116.32,110.8c-4,3.62-12.33,2.15-17.63,1.84-2.75-.16-33.87-3.19-20.63-6.85,7.64-2.14,16.57-4.33,21.06-2.4C107.34,107,117.5,109.72,116.32,110.8Z"/><path class="cls-3" d="M89.73,64.82l-3.65,4.09-1.87.43,2.57-5.07-.89-5.12S90,60.27,90,61.69Z"/><path class="cls-4" d="M109,68.77a21.15,21.15,0,0,0-2.29-2.25c-.13,0-.35-.4-.35-1.36s-.27-.56-.9-.52-.54-.57-1-2.64-4.61-10-6.14-11.72c-1.29-1.48-4.86-2-5.58-2a8.59,8.59,0,0,1-1.7,2.4,5.51,5.51,0,0,1-2.64.64v.36A7.29,7.29,0,0,0,87.22,53c-1,1.42-.87,5-.8,6.34a13.31,13.31,0,0,1,3.19,1.93,6.72,6.72,0,0,0,2.21,1.52s1.42,4.95,1.59,5.27-.09,1.11,0,1.89a1.83,1.83,0,0,0,.8,1.39,2,2,0,0,1,.53,1.38c0,.32,3.56.84,7.78-.2a19.17,19.17,0,0,0,6.71-3.58C109.11,68.86,109,68.82,109,68.77Z"/><path class="cls-3" d="M89.83,48.68a6.11,6.11,0,0,0,2.56-2.32,3.94,3.94,0,0,0-.38-.53,7,7,0,0,1-.53-.69,7.23,7.23,0,0,1-1.84,2.17,11.6,11.6,0,0,1-1.74.62s.11.44.23,1A2.93,2.93,0,0,0,89.83,48.68Z"/><path class="cls-5" d="M83.21,71.31a3.32,3.32,0,0,0,.63,0l7.72-2.89L91,66.94l-7.78,2.91-.48.49Z"/><path class="cls-5" d="M78.79,72.84l4.59-1.72-.47-.75L78.65,72l-5.92-.07.25.33s5.24-.09,5.34.17c.22.55-3.1,2.81-3.1,2.81v.39Z"/><path class="cls-5" d="M75.87,73.51c.39,1.07-.15,2.28-1.59,3.59a23.65,23.65,0,0,1-5.59,3.39c-2.83,1.33-5.75,2.45-7.83,1.67a4.85,4.85,0,0,1-2.23-6.3c1.16-1.91,4.25-2.74,7.13-3.3a30.36,30.36,0,0,1,6.51-.74C74.28,71.9,75.46,72.45,75.87,73.51ZM59,79.41A3.63,3.63,0,0,0,61,81.75c1.91.72,4.72-.36,7.46-1.65,5-2.32,7.56-4.73,6.93-6.4-.32-.88-1.37-1.33-3.19-1.4a29.7,29.7,0,0,0-6.37.73c-2.78.54-5.76,1.33-6.82,3.08a3.69,3.69,0,0,0-.09,3.3Z"/><path class="cls-5" d="M74.28,76.59l-1.6-4.32h-.3l1.68,4.55Z"/><path class="cls-5" d="M73.48,77.29,71.6,72.22h-.3l2,5.25Z"/><path class="cls-5" d="M72.68,77.9l-2.1-5.64H70.3l2.15,5.79Z"/><path class="cls-5" d="M71.88,78.48,69.6,72.36h-.28l2.32,6.25Z"/><path class="cls-5" d="M69.39,71.86l-.16,0h.17Z"/><path class="cls-5" d="M71.09,78.94l-2.4-6.5h-.28L70.86,79Z"/><path class="cls-5" d="M70.34,79.34l-2.52-6.79-.28,0,2.55,6.87Z"/><path class="cls-5" d="M69.49,79.8l-2.63-7.09-.28.05,2.66,7.17Z"/><path class="cls-5" d="M68.49,80.29l.12-.07L65.88,72.9H65.6l2.75,7.4Z"/><path class="cls-5" d="M67.72,80.64l-2.8-7.56-.28,0,2.83,7.62Z"/><path class="cls-5" d="M66.9,81,64,73.28l-.27.06,2.88,7.77Z"/><path class="cls-5" d="M66.06,81.33l-2.91-7.82-.26.07,2.91,7.85Z"/><path class="cls-5" d="M65.15,81.67l-2.92-7.86-.27.1,2.92,7.84Z"/><path class="cls-5" d="M64.21,81.92l-2.88-7.77-.26.11L63.94,82Z"/><path class="cls-5" d="M63.25,82.1l-2.79-7.52-.24.16L63,82.13Z"/><path class="cls-5" d="M62,82.13h.31l-2.61-7-.22.2Z"/><path class="cls-5" d="M58.93,76l-.09.17,2.1,5.68H61l.28.1L59,75.86Z"/><path class="cls-5" d="M58.58,78.28l.8,2.23a4.2,4.2,0,0,0,.56.7L58.5,77.35A4.13,4.13,0,0,0,58.58,78.28Z"/><path class="cls-5" d="M61.11,81.85a2.29,2.29,0,0,0,.37.12L73,77.69l.7-.55L61.07,81.83Z"/><path class="cls-5" d="M60.47,81.51l14.12-5.25a3.47,3.47,0,0,0,.34-.42l-14.7,5.47A2.31,2.31,0,0,0,60.47,81.51Z"/><path class="cls-5" d="M59.81,80.88l15.57-5.79.12-.34-15.86,5.9C59.69,80.73,59.75,80.8,59.81,80.88Z"/><path class="cls-5" d="M59.29,80.08l16.28-5.87a1.31,1.31,0,0,0,0-.28l-16.4,5.91Z"/><path class="cls-5" d="M59,79.28l16.38-5.91a1.19,1.19,0,0,0-.16-.23L58.87,79A2.07,2.07,0,0,0,59,79.28Z"/><path class="cls-5" d="M58.72,78.48l16-5.74-.34-.16L58.67,78.2Z"/><path class="cls-5" d="M58.61,77.64l14.8-5.33c-.19,0-.38-.06-.58-.08L58.62,77.35A2.81,2.81,0,0,0,58.61,77.64Z"/><path class="cls-5" d="M58.71,76.74l12.68-4.56h-.9L58.81,76.42A3,3,0,0,0,58.71,76.74Z"/><path class="cls-5" d="M68.29,72.45c-.46.06-.94.14-1.43.23l-7.33,2.61a2.79,2.79,0,0,0-.35.42Z"/><path class="cls-6" d="M92.86,42.17c-.79,3.88-3.78,6.58-6.74,6s-4.73-4.13-4-8,3.78-6.57,6.74-6S93.62,38.29,92.86,42.17Z"/><path class="cls-7" d="M91.08,33.41l-.55.86A12.54,12.54,0,0,0,93,35.38c1,.24,1-.91.8-1.1A21.23,21.23,0,0,0,91.08,33.41Z"/><path class="cls-8" d="M91.82,41.8A4.66,4.66,0,0,0,90,39.51c-.84-.71-3.84-.95-5.27-1.44-.94-.32-1.32-1.35-1.59-2.19a8.72,8.72,0,0,0-1.42,1.94c-.67,1.49-.8,3.35,1.72,2.2,1.08-.49,4.61-.71,5.91.28a11.57,11.57,0,0,1,1.15,2.24c.19.36.55.09,1.19,0A1.38,1.38,0,0,0,91.82,41.8Z"/><path class="cls-3" d="M87.93,69.35c.28.16.16.7-.24,1.25a4.81,4.81,0,0,1-2,.69c-.34,0-.68-.05-1-.1l.54-1.06S87.31,69,87.93,69.35Z"/><path class="cls-9" d="M111.23,80.13s.36-7.09-.47-9.76c-.16-.55-.79-2.05-.79-2.05l-1,.45a6.58,6.58,0,0,1,1,3.59c0,2.52-.58,8.77-.75,10.64a5.23,5.23,0,0,0,1.22-.27C111.37,82.22,111.23,80.13,111.23,80.13Z"/><path class="cls-10" d="M109,68.77c-1.5.69-4.24,1.88-4.45,2-4.22,2.61-5.59,1.84-8.68,1.85-1.65,2.48-5.64,7.29-7.23,9.76.19.07.42.13.59.21A17.69,17.69,0,0,0,96,83.91l4.18-3.69.54,3.41s5.91-.29,8.52-.63c.18-1.86.75-8.12.75-10.64A6.59,6.59,0,0,0,109,68.77Z"/><path class="cls-11" d="M94.75,72.67c-1.31.09-7.29,9.31-7.29,9.31s.56.18,1.18.42c1.83-1.83,5.58-7.28,7.22-9.76Z"/><path class="cls-6" d="M86.05,109.58,97.57,109l-.23-1.09L96,105.55s-1.41-8.7-2.12-12.75-2-4.47-2-4.47L96,83.91l-7.33-1.53S88,83.62,87.3,85c.69-1.39,1.36-2.59,1.36-2.59l1.68.45s-2.39,3.81-2.8,5.8c-.25,1.12,5.83,16.32,5.79,16.85s-1,.47-1,.47l-1,1.91S86,109.58,86.05,109.58Z"/><path class="cls-3" d="M93.3,105.5c0-.53-6-15.73-5.78-16.85.45-2,3.32-5.81,3.32-5.81l-2.21-.44S88,83.6,87.27,85a11.36,11.36,0,0,0-1.22,3.34c.07,1.1,6.45,17.34,6.45,17.34S93.26,106,93.3,105.5Z"/><path class="cls-6" d="M108.84,96c-.91-2.24-2.88-4.9-3.08-5.5s1.54-6.46,1.8-7.38l-6.87.54a51.24,51.24,0,0,0,.3,7.62A16.45,16.45,0,0,0,102.33,94l6.42,14.35-1.06,2.89h3.55v-1.59l-.54-.06S109.73,98.14,108.84,96Z"/><path class="cls-12" d="M107.69,91.12c-1.08-1.78,1.67-8.14,1.67-8.14l-1.8.11c-.26.92-2,6.82-1.8,7.38s2.17,3.26,3.08,5.5,1.86,13.56,1.86,13.56l.54.06v-2.66S111.38,97.27,107.69,91.12Z"/><path class="cls-10" d="M92.46,105.41l3.45-.2s.87,1.49,1,1.72a3.38,3.38,0,0,1,.47,1.55c0,.59-11.5,2.45-12,2s.4-2,.61-2.15a17.3,17.3,0,0,1,3.55-.7Z"/><path class="cls-9" d="M97.4,108.32l-12.17,1.84s-.35.11.45.41S97.54,109,97.54,109Z"/><polygon class="cls-9" points="112.24 111.58 110.52 113.73 110.52 114.31 112.42 111.99 112.24 111.58"/><path class="cls-9" d="M87.73,107.88s-.5.66,1.07.65c.63,0,2-.61,3.79-2.39a3.34,3.34,0,0,0,.45-.8h-.58l-2.86,2.21A5.19,5.19,0,0,0,87.73,107.88Z"/><polygon class="cls-10" points="105.01 113.72 110.49 114.11 112.24 111.58 111.24 108.85 108.75 108.32 107.69 111.22 105.01 113.72"/><path class="cls-9" d="M109.82,113.4a5.72,5.72,0,0,0-2.6-.59,3.56,3.56,0,0,0-2.21.91v.59l5.48-.2.21-.29Z"/><path class="cls-9" d="M107.69,111.22l-.57.52a2.22,2.22,0,0,0,1.5.38,1.62,1.62,0,0,0,1.12-.9l.59-2.56-1.6-.34Z"/><path class="cls-13" d="M108.48,65.93c-.53-.27-1.13-.14-1.4-.8s.2-1.36-.87-1.59-.94-.26-.94-.86-3.29-9.57-6.56-12.6c-.59-.56-1.45-1.87-3.19-2a5.55,5.55,0,0,1-2.34-.52l-.39.75c.68-.09,4.07.67,5.36,2.13C99.66,52.19,104,59.9,104.47,62s.36,2.67,1,2.63.89-.43.89.52.23,1.39.36,1.37A20.78,20.78,0,0,1,109,68.73a6.18,6.18,0,0,0,1-.45S109,66.21,108.48,65.93Z"/><path class="cls-14" d="M89.5,56.54,88.44,61.1l1,.35s0,.13.09-.49c0-.06-.31-.37-.31-.43.23-1.24.85-2.78.8-3.19A1.1,1.1,0,0,0,89.5,56.54Z"/><path class="cls-6" d="M92.39,46.36a6.11,6.11,0,0,1-2.56,2.32,2.93,2.93,0,0,1-1.7.25,7.47,7.47,0,0,1,.31,2.44c-.23.34-.58.61.4.8A2.64,2.64,0,0,0,91.92,51a19.61,19.61,0,0,0,1.25-3.38S92.77,46.91,92.39,46.36Z"/><path class="cls-14" d="M87.22,53a7,7,0,0,1,1.22-1.27v-.33a13.55,13.55,0,0,0-2,1.3c-1.86,2.27-.51,6.49-.51,6.49l.69.46C86.47,58.33,86.24,54.43,87.22,53Z"/><path class="cls-14" d="M91.82,62.38s-2-1.38-2.5-1.68c-.21-.13-.91.4-.91.4L91.67,63s1.74,5.15,1.74,5.35a15.89,15.89,0,0,0-.06,2.58,16.47,16.47,0,0,0,1.11,1.85l1.82-.11A4.2,4.2,0,0,1,94.47,70c-.08-.36.12-.47,0-1.26a8,8,0,0,0-.83-2.56C93.25,65.52,91.82,62.38,91.82,62.38Z"/><path class="cls-15" d="M94.55,37.6c-.58-1-.67-1.73-1.38-2.12s-2.64-1.21-2.64-1.21-.16-1-2-.8a12.7,12.7,0,0,0-3.58,1.2c.34,1.35.84,2.13,2.59,1.46s2.27.86,2.39,2.11.87.6,2.08.69.63,3,.24,3.42c.45,0-.38.38,0,0-.45,0,0-1.07-.24-2.17s-1.59.07-2.67-2-1.16-.63-2-.51c-1.78.25-2.24,0-3.09-1a3.87,3.87,0,0,1-.72-1.14l-.32.33c.27.85.65,1.87,1.6,2.19,1.43.49,4.42.71,5.27,1.44a4.66,4.66,0,0,1,1.78,2.3,1.46,1.46,0,0,1-.11.8.84.84,0,0,0,.24.06c.4,0,.23,1,.36,1A5.53,5.53,0,0,0,95,41.5,5.35,5.35,0,0,0,94.55,37.6Z"/><path class="cls-8" d="M87.32,37.7c.87-.12,1-1.54,2,.51s2.47.87,2.67,2-.21,2.14.24,2.17c.39-.39,1-3.32-.24-3.41s-2,.56-2.08-.69-.67-2.77-2.4-2.11S85.3,36,85,34.67a6,6,0,0,0-1.42.86h0a3.84,3.84,0,0,0,.72,1.15C85.08,37.67,85.53,38,87.32,37.7Z"/><path class="cls-6" d="M93.41,42.6a1.16,1.16,0,1,1-1.19-1.12h0A1.14,1.14,0,0,1,93.41,42.6Z"/><path class="cls-3" d="M92.62,42.71a.4.4,0,1,1-.4-.4A.4.4,0,0,1,92.62,42.71Z"/><path class="cls-16" d="M108.75,47.38s-1.33.14-3.34-2.24S103.22,35.91,103,34.7s-1.16-5.58-4-5.75-3.48-.6-4.51,0a17,17,0,0,0-2.74,2.49l-.66,2,.52.16.25-.16a15.46,15.46,0,0,1,2-2.51c.53-.34,2,.53,3.53-.7,1.86-1.56,4.46-.87,4.15,3.72-.13,1.91.94,1.32,1.27,2.48s-2,1.95-.13,3.61c2,1.81.8,3.42,1.27,3.73,1.41.87-.33,1,1.08,2.52a9.71,9.71,0,0,1,.79,1A6.68,6.68,0,0,0,108.75,47.38Z"/><path class="cls-15" d="M94.74,32c.44-.13.12-.43.93,0s1.3-.72,2.19-.6a1.13,1.13,0,0,1,.8,1.22,2.21,2.21,0,0,0,.8,1.71c.36.23.13.85,0,1.59s.71,1.67.75,2.2-1,.52-.58,1.86,1.79,1.47,2.15,2.19-.55,1.78,0,2.62a9,9,0,0,0,2.15,1.88,7.74,7.74,0,0,0,1.79.67,8,8,0,0,0-.79-1c-1.41-1.6.33-1.66-1.08-2.53-.51-.31.74-1.91-1.27-3.72-1.84-1.67.47-2.45.13-3.62s-1.39-.57-1.27-2.48c.31-4.59-2.29-5.28-4.15-3.72-1.48,1.23-3,.36-3.53.7a15.64,15.64,0,0,0-1.94,2.5l-.25.16,1,.32A13,13,0,0,1,94.74,32Z"/><path class="cls-8" d="M93.84,33.41s1.21-1,2.1-.8,2.54,1.59,2.63,2.16-.89,5.89,2.68,9.74a9.67,9.67,0,0,0,2.74,2.1,9.46,9.46,0,0,1-2.16-1.88c-.55-.8.36-1.91,0-2.62s-1.7-.8-2.14-2.19.63-1.34.58-1.86-.89-1.47-.76-2.2.36-1.34,0-1.59a2.17,2.17,0,0,1-.79-1.71,1.15,1.15,0,0,0-.8-1.23c-.89-.12-1.39,1.05-2.19.61s-.49-.13-.94,0a13.62,13.62,0,0,0-2.17,1.91l1.23.4Z"/><path class="cls-6" d="M94.91,64.28c.51-.94,1.43-6.17,1.76-8.11-.94-.72-3.86-.73-3.86-.73S91.87,63,91.7,63,85,68,84.83,68.12s-2.13,1.65-2.13,1.65-1.93,1.7-1.6,2.31,3.1,0,3.1,0l1-2,.26-.41S94.29,65.45,94.91,64.28Z"/><path class="cls-3" d="M81.75,72.39h0a.08.08,0,0,1,0-.11L82.33,71a.08.08,0,0,1,.11,0,.09.09,0,0,1,0,.12l-.61,1.27A.11.11,0,0,1,81.75,72.39Z"/><path class="cls-3" d="M82.39,72.39h0a.08.08,0,0,1,0-.11L83,71a.09.09,0,0,1,.12,0,.1.1,0,0,1,0,.12l-.63,1.27a.07.07,0,0,1-.1,0Z"/><path class="cls-3" d="M83.22,72.26h0a.09.09,0,0,1,0-.12l.62-1.26a.09.09,0,0,1,.11-.06.1.1,0,0,1,0,.12h0l-.62,1.27a.08.08,0,0,1-.1.08S83.24,72.28,83.22,72.26Z"/><path class="cls-6" d="M87.24,70.46h0a.09.09,0,0,1-.06-.11h0l.36-1a.09.09,0,1,1,.17,0h0l-.37,1A.1.1,0,0,1,87.24,70.46Z"/><path class="cls-6" d="M86.48,70.64h0a.09.09,0,0,1-.1-.08s0,0,0,0l.36-1a.1.1,0,0,1,.11-.06.09.09,0,0,1,.06.11h0l-.37,1A.08.08,0,0,1,86.48,70.64Z"/><path class="cls-6" d="M85.7,70.84h0a.09.09,0,0,1,0-.11h0l.34-1a.08.08,0,0,1,.11,0,.09.09,0,0,1,.06.11h0l-.37,1A.1.1,0,0,1,85.7,70.84Z"/><path class="cls-12" d="M95.27,65.36c1.28-1.53,2-7.66,2-7.66s.22-.48-.45-1.37a1.21,1.21,0,0,0-.16-.16c-.33,1.94-1.25,7.18-1.76,8.11-.62,1.17-9.47,5.43-9.47,5.43l-.22.44C86.51,69.71,93.67,67.26,95.27,65.36Z"/><path class="cls-13" d="M97.81,53l-1.14,3.19s.36,1.17.64,1.14,1.25-3.73,1-4.16C97.86,52.51,97.81,53,97.81,53Z"/><path class="cls-13" d="M97.31,50.92a6,6,0,0,1,1,2.7l-1,3.83s-3.79-.43-4.57-.91c-.59-.37,0-4.79.65-5.5C93.76,50.61,95.41,48.77,97.31,50.92Z"/></g><g id="_1-2" data-name=" 1-2"><path class="cls-2" d="M56.14,111.18c.22,1.59-14.84,2.94-27.18,3.07-9.57.11-20.73,1.84-19.14-3.07,1.6-4.72,15.86-2.87,19.75-2.78C38.23,108.6,55.94,109.58,56.14,111.18Z"/><path class="cls-6" d="M36.51,101.22c1.12-5,3.78-13.43,3.78-13.46s.52-3.24.8-5L36.5,81.28l-.24,6s-2,3.39-1.33,5.53c.22.67.3,7.62,0,8.13a2.28,2.28,0,0,1-.47.46s.8,1.92,1.44,2.18a.93.93,0,0,0,.69.12A5.37,5.37,0,0,1,36.51,101.22Z"/><path class="cls-12" d="M37,103.07v-1.88s4.22-12,4.3-13c.12-1.44.88-5.12.88-5.12l-1.11-.34c-.29,1.8-.79,5-.79,5s-2.71,8.51-3.8,13.46a5.37,5.37,0,0,0,.08,2.49A.67.67,0,0,0,37,103.07Z"/><path class="cls-17" d="M44.77,65.68s-6.94.5-7.58.5c-.46,0-5.73-.76-8.54-1.17L23.86,79.14c1.81.84,5.75,2.56,6.85,2.09,1.46-.63,4.5-6.45,4.5-6.45L34.16,82a4.88,4.88,0,0,0,2.39,0c.52-.29,3.88,1,5.72,1.08.11-.56,1.4-15.71,1-16.44Z"/><path class="cls-6" d="M18.63,50.93l-.36-10.07.56-3.46V35.71c-.12-.73-1,1-1,1l-.89-1.27L14.64,38l1.07,1.4s.25,1.17.26,1.17c.38,0,.5.65.5.65s-.68,5.65-.88,7.59c-.46,4.25.32,7.68.26,8.86a2.32,2.32,0,0,0,1.6,0C18.67,57.34,23,56,23,56l.61-8.9Z"/><path class="cls-3" d="M33.76,41a6.18,6.18,0,0,1-.64-1l-4.88.1a8.9,8.9,0,0,1,1.18,1.42A6.26,6.26,0,0,0,33.76,41Z"/><path class="cls-6" d="M35.49,38c-1.52,2.64-5.44,3.24-8.73,1.34S22,33.76,23.57,31.11s5.43-3.24,8.72-1.34S37,35.36,35.49,38Z"/><path class="cls-18" d="M27.05,35.3v.08A.11.11,0,0,0,27.05,35.3Z"/><path class="cls-19" d="M30.65,31.39a7.83,7.83,0,0,1-3,2.77c-.27,0-.41.38-.48.69a4.28,4.28,0,0,0,2.39-.8c1.54-1,2.76-1.82,3-2.54a3.48,3.48,0,0,1,1.29-2.14.72.72,0,0,0,.28-.71A1.88,1.88,0,0,0,32.66,28l-.1.07S31.28,30.26,30.65,31.39Z"/><path class="cls-6" d="M36.49,41.87l-.64-1a3.89,3.89,0,0,1-1.6.46.93.93,0,0,1-.49-.36c-.7.17-1.68.39-2.58.52a6.48,6.48,0,0,1-1.76,0,3.12,3.12,0,0,1,.49,1.1c.14.79-1,1.14-1,1.14s3.66,3,7,.92C37.21,43.81,36.49,41.87,36.49,41.87Z"/><path class="cls-20" d="M32,27.82a13.91,13.91,0,0,1-1,1.7,24.57,24.57,0,0,1-2.6,3.41c-.73.58-1.33.5-1.36,1v1h.08c.07-.31.21-.65.49-.69a7.87,7.87,0,0,0,3-2.77c.63-1.13,1.92-3.28,1.92-3.28l.09-.07C32.45,28,32.24,27.88,32,27.82Z"/><path class="cls-19" d="M27.05,33.89c0-.46.63-.38,1.36-1A24.5,24.5,0,0,0,31,29.52a12.68,12.68,0,0,0,1-1.7,7.34,7.34,0,0,0-1-.28c.28.8-1.27,3.19-2.1,3.91s-3.19,2.47-2.32,3.89c.47.8.56.61.54.28a.75.75,0,0,0-.08-.24V35.3a2,2,0,0,0-.14-.47H27C27,34.63,27,34.2,27.05,33.89Z"/><path class="cls-20" d="M31,27.54a1.35,1.35,0,0,0-.49,0,7.66,7.66,0,0,1-2,0,4.29,4.29,0,0,0-3.83.89,4,4,0,0,0-1.06,1.91c0,.36-1.37,1.17-1.09,2.2a1.32,1.32,0,0,1,0,.56,3,3,0,0,1,.34,1.73c0,2.12,1.64,1.89,2.4,2.12.41.12,1.33.28,2.07.49a4.31,4.31,0,0,0-.22-1.78c0,.33-.08.53-.55-.28-.79-1.42,1.49-3.19,2.32-3.9S31.29,28.3,31,27.54Z"/><path class="cls-21" d="M22.88,34.79A3.09,3.09,0,0,0,22.53,33a.92.92,0,0,1-.08.27s-1.88,2.26-.36,3.58a18.12,18.12,0,0,0,4.67,2.4s-.1-.22.41-1.3a2.45,2.45,0,0,0,.18-.64c-.74-.22-1.66-.37-2.07-.5C24.51,36.68,22.92,36.91,22.88,34.79Z"/><circle class="cls-6" cx="26.45" cy="39.42" r="1.16"/><path class="cls-3" d="M27.12,39.41a.49.49,0,0,1-.49.49.49.49,0,0,1,0-1,.49.49,0,0,1,.49.49Z"/><path class="cls-3" d="M15.59,48.83c.2-1.94.88-7.59.88-7.59s-.13-1.44-.5-1.46a5.32,5.32,0,0,1-.05.86l.16.22s-2.33,9.27-1.8,13.47c.1.8.27,2.79,1.59,3.36C15.91,56.51,15.13,53.08,15.59,48.83Z"/><path class="cls-22" d="M41.92,38.92s6.45.21,7.76,0a1.29,1.29,0,0,0,.26-.08c-.2-.79-.48-1.42-.8-1.43-.92,0-8,.29-8.59.64l-.16.09c-.68.35-1.79,1-2.77,1.49C37.16,40,35.44,41,35.44,41a4,4,0,0,1,.42.65,2.3,2.3,0,0,0,.45,0S40.66,38.8,41.92,38.92Z"/><path class="cls-18" d="M50,39l-.12-.07-.16,0c-1.31.21-7.76,0-7.76,0-1.26-.12-5.2,2.48-5.2,2.48l-.8.28h0c.22.56.06,1.32-3.08,2.2A6.08,6.08,0,0,1,30,44,21,21,0,0,0,25.81,46c-.37.32-2.7,2.93-3.32,3.61.22,2,.45,5.94.39,6.42l4.21-.72c.46,0,7.08-5.18,9.23-6.57,1.59-1,4.47-1.29,5.88-1.36-.2-.73-.33-1.2-.37-1.29-.25-.59,5.58-.89,7.38-1.81C50.35,43.65,50.35,40.77,50,39Z"/><path class="cls-22" d="M25.77,46A21.56,21.56,0,0,1,30,44.06a3.52,3.52,0,0,1-1.09-.37s-2.82.35-3.62,1a25.42,25.42,0,0,0-3,3.34s.06.79.14,1.59C23.07,48.92,25.4,46.32,25.77,46Z"/><path class="cls-12" d="M22.45,49.61S18.93,51.92,18.7,52s-.31-.91-.08-1.08L22.3,48Z"/><path class="cls-23" d="M28.9,62.33c.15-.7.8-1,.94-1.77a12.94,12.94,0,0,0,.15-2v-.24c-.8.74-1.25,1.25-1.25,1.25,0,1-1.45.38-.86,1.18s1,.8.64,1.05-.88.15-1,.6.16.71-.18,1.21a4.76,4.76,0,0,0-.5,1.1,3.5,3.5,0,0,0,1.71.58C28.82,65.3,28.75,63,28.9,62.33Z"/><path class="cls-5" d="M42.16,47.38c-1.41.08-4.29.35-5.88,1.37s-5.63,4.08-7.85,5.7c-.95.69,1.56,3.91,1.56,3.91,2-1.94,5.93-5.51,8.31-5.9,3.28-.55,5-.69,5-.69C42.83,50,42.43,48.41,42.16,47.38Z"/><path class="cls-2" d="M28.74,59.61,30,58.36C29.22,59.1,28.74,59.61,28.74,59.61Z"/><path class="cls-2" d="M28.43,54.44c-.24.18-1.38.87-1.38.87a10.74,10.74,0,0,1,1.69,4.3s.48-.51,1.25-1.25C30,58.36,28.68,54.27,28.43,54.44Z"/><path class="cls-18" d="M42.33,51.87c-.8.09-2.17.27-4,.58-2.39.4-6.31,4-8.31,5.91v.24a12.94,12.94,0,0,1-.15,2c-.14.8-.79,1.07-.94,1.77s-.34,3.34-.31,3,1.3.55,2.44,1.06a33.15,33.15,0,0,0,6.37,1.1A24.69,24.69,0,0,0,44,66.39a11.11,11.11,0,0,0,1.77-.67C45.91,65.61,43.74,57.23,42.33,51.87Z"/><path class="cls-22" d="M47,64.75c-.09-.31-2.27-7.5-3.68-13a6.26,6.26,0,0,0-1,.11c1.41,5.36,3.58,13.74,3.41,13.81C46.67,65.23,47.06,65,47,64.75Z"/><path class="cls-22" d="M40.44,45.35l.73,2.1,1-.07c-.26-.93,0-2-.8-2Z"/><path class="cls-23" d="M22.84,54.43s3.75-1.59,4.85-.79c.87.63.74.79.74.79l-1.38.87L22.84,56Z"/><path class="cls-24" d="M43.29,82.74c.8-1.14,1.43-16.61,1.43-16.61l-1.43.46c.38.73-.91,15.88-1.08,16.47A1.26,1.26,0,0,0,43.29,82.74Z"/><path class="cls-24" d="M28.62,65l-1.74-.26Z"/><path class="cls-25" d="M28.59,65.33a4.75,4.75,0,0,1-1.71-.58l-.3.93-3.7,13,.92.44Z"/><path class="cls-5" d="M18.29,33.14l-.53.37-3.37,7,1.4.67,3.33-7.05-.1-.61Z"/><path class="cls-5" d="M20.2,29.14l-2,4.19.8.22,1.87-3.87,4.2-3.77-.32-.09s-3.7,3.46-4,3.34c-.51-.25.27-4,.27-4l-.29-.26Z"/><path class="cls-5" d="M21.9,26.86c-1-.49-1.51-1.71-1.44-3.61a21.68,21.68,0,0,1,1.36-6.05c1-2.8,2.18-5.51,4.16-6.33a4.08,4.08,0,0,1,3.44.3A4.29,4.29,0,0,1,32,13.89c.57,2.11-.95,4.73-2.51,7a26,26,0,0,1-3.91,4.78C24.13,27,22.93,27.35,21.9,26.86Zm7.33-15.29a3.62,3.62,0,0,0-3.08-.29c-1.82.75-3,3.36-3.91,6.07-1.74,4.92-1.8,8.32-.15,9.12.85.4,1.89,0,3.19-1.12a26.48,26.48,0,0,0,3.85-4.72c1.5-2.21,3-4.73,2.45-6.66A3.88,3.88,0,0,0,29.23,11.57Z"/><path class="cls-5" d="M20.93,23.68l4,1.92.22-.18-4.21-2Z"/><path class="cls-5" d="M21,22.67l4.72,2.25.2-.19L21,22.39C21,22.5,21,22.59,21,22.67Z"/><path class="cls-5" d="M21.09,21.72l5.27,2.54.18-.21-5.4-2.58Z"/><path class="cls-5" d="M21.27,20.79,27,23.53l.18-.22-5.83-2.79C21.3,20.62,21.28,20.7,21.27,20.79Z"/><path class="cls-5" d="M27.42,23.73l.07-.14-.1.13Z"/><path class="cls-5" d="M21.46,19.94l6.06,2.9.17-.21-6.16-2.95C21.51,19.76,21.49,19.85,21.46,19.94Z"/><path class="cls-5" d="M21.65,19.18l6.38,3,.16-.21-6.42-3.07Z"/><path class="cls-5" d="M21.93,18.3l6.62,3.19c0-.08.1-.15.15-.23L22,18.07Z"/><path class="cls-5" d="M22.27,17.3v.12l6.85,3.28.07-.12.07-.1-6.9-3.31Z"/><path class="cls-5" d="M22.54,16.55l7.08,3.38.15-.22-7.13-3.42Z"/><path class="cls-5" d="M22.85,15.75,30,19.21l.13-.24L23,15.49Z"/><path class="cls-5" d="M23.19,15l7.29,3.5.13-.23-7.32-3.54Z"/><path class="cls-5" d="M23.58,14.14l7.33,3.51a2.56,2.56,0,0,0,.11-.24L23.7,13.89Z"/><path class="cls-5" d="M24,13.34l7.25,3.47.09-.24-7.17-3.46Z"/><path class="cls-5" d="M24.55,12.57l7,3.36a1.34,1.34,0,0,1,.07-.27l-6.9-3.3Z"/><path class="cls-5" d="M25.36,11.73l-.21.19,6.55,3.13v-.29Z"/><path class="cls-5" d="M31.6,13.89a.64.64,0,0,0-.06-.18l-5.28-2.53h-.08l-.24.11L31.64,14A.93.93,0,0,0,31.6,13.89Z"/><path class="cls-5" d="M30.28,12.12l-2.06-1a4.15,4.15,0,0,0-.85-.12L31,12.74A4,4,0,0,0,30.28,12.12Z"/><path class="cls-5" d="M26.15,11.33l-.32.16L21,22.08q-.06.44-.09.84l5.26-11.61Z"/><path class="cls-5" d="M26.81,11.14l-5.89,13a4.43,4.43,0,0,0,.06.51L27.12,11.1Z"/><path class="cls-5" d="M27.68,11.14,21.19,25.49a1.77,1.77,0,0,0,.15.31L28,11.21Z"/><path class="cls-5" d="M28.59,11.34,21.65,26.2a1.73,1.73,0,0,0,.21.17l7-14.93Z"/><path class="cls-5" d="M29.34,11.67l-7,15a1.31,1.31,0,0,0,.27.06l6.93-14.88Z"/><path class="cls-5" d="M30.06,12.08,23.28,26.65a2.3,2.3,0,0,0,.35-.1l6.65-14.27Z"/><path class="cls-5" d="M30.71,12.59l-6.3,13.5c.15-.1.29-.21.44-.33l6-13Z"/><path class="cls-5" d="M31.26,13.27l-5.4,11.57c.19-.19.38-.4.58-.62l5-10.65Z"/><path class="cls-5" d="M27.76,22.59c.26-.34.53-.71.79-1.1l3.12-6.68a2.29,2.29,0,0,0-.05-.52Z"/><path class="cls-3" d="M14.54,38.21s.85,1.07,1.28.91-.8-1.29-.36-1.54.56,1.6,1,1.42c.9-.39-.79-1.91-.32-2.23s.48,1.83,1,1.31-.84-1.79-.43-2.15c.16-.15.45,1.79.79,1.13S17,35.14,17,35.14s-2.47,1.48-2.59,2.26A1.15,1.15,0,0,0,14.54,38.21Z"/><path class="cls-6" d="M63.11,27.45c-.51-1-2.45-2.07-3-1.85-.8.27-1.6,2.43-1.6,2.43l-.37.55-.47,1.09-5.18,8.58-2.77.67-.24-1.51h-.27v6.87s4.21-1.43,5.31-2.87,4.78-11.25,5.31-11.5S63.57,28.48,63.11,27.45Z"/><path class="cls-12" d="M52.45,38.25c2.11-1.44,5.18-8.18,6.15-9.64.11-.16-.16-.55-.16-.55L51.57,37.4h-2.4V39A11.71,11.71,0,0,0,52.45,38.25Z"/><path class="cls-6" d="M18.83,37.4s.32-2.71-.2-2.71c-.87,0-.83,3.56-.83,3.56Z"/><path class="cls-6" d="M25.18,79.62a22.1,22.1,0,0,1-3.65,5.19c-.55.25-3.54,7.42-4,8A5.14,5.14,0,0,1,16,94.05a15.54,15.54,0,0,0,.91,1.71c.29.38,1.06-.2,1.06-.2a1,1,0,0,1,.17-.44c.63-.63,8.51-8.84,8.51-8.84l3.4-5Z"/><path class="cls-3" d="M17.57,92.84c.42-.63,4.09-8,4.68-8.1,1.85-.42,2.44-3.83,2.93-5.14l-1.38-.49L22.88,83a3.55,3.55,0,0,0-2.53,1.7c-.23.31-3.41,8-3.41,8l-1,.71-.22.16c.07.13.14.29.22.45A5.18,5.18,0,0,0,17.57,92.84Z"/><path class="cls-23" d="M13.78,95a34.74,34.74,0,0,0,1,5.72s1,2.39,1.81,2.86a.71.71,0,0,0,.85,0l-.22-.14a8,8,0,0,1-1.73-2.78c-.14-.6-.95-5.58-1.2-6.82A1.46,1.46,0,0,0,13.78,95Z"/><path class="cls-18" d="M16.46,97.84a6.18,6.18,0,0,1,.35-2.13c-.22-.33-.74-1.4-1.08-2.12a2,2,0,0,0-1.43.23c.25,1.26,1.06,6.22,1.2,6.83a8.13,8.13,0,0,0,1.73,2.78l.22.14a2.2,2.2,0,0,0,.63-.85S18,102,17.94,101h-.15C17.05,101,16.46,99.59,16.46,97.84Z"/><path class="cls-22" d="M17.91,95.56s-.8.58-1.06.2l0-.05a6.18,6.18,0,0,0-.35,2.13c0,1.75.59,3.19,1.33,3.19a.38.38,0,0,0,.15,0A29.4,29.4,0,0,1,17.91,95.56Z"/><path class="cls-18" d="M36.61,107.19a4.16,4.16,0,0,1-.59-3.56l-.12,0c-.6-.27-.9-1.83-1.44-2.19a2.49,2.49,0,0,0-2.09,1.43c-.24.62.74,2.53.74,2.53s2.66,4.42,4.17,5.05a2.82,2.82,0,0,0,2.53,0l-.41-.91A4.17,4.17,0,0,1,36.61,107.19Z"/><path class="cls-22" d="M37,103.07c-.06.42-.28.85-1,.58a5.13,5.13,0,0,0,3.38,5.85L38.23,107Z"/><path class="cls-23" d="M32.75,102.25s.9,2.55,1.15,3,2.79,4.92,3.88,5.18a4.35,4.35,0,0,0,2,0s.16.73-.28.8a5.15,5.15,0,0,1-2.59-.48,25.34,25.34,0,0,1-3.83-5.35,20.86,20.86,0,0,0-1-2.28Z"/><path class="cls-12" d="M60.14,25.6s-1,1.48-.45,1.44,1-.8,1.14-.75-1.59,1-1,1.46c.34.23,1.3-1,1.47-.72s-1.5.79-.8,1.07,1.6-.8,1.66-.71-1.12.59-.4.93c.38.17,1.31-.71,1.27-.8a7.94,7.94,0,0,0-1-1.29A3,3,0,0,0,60.14,25.6Z"/><path class="cls-6" d="M58.44,28.06a3.39,3.39,0,0,0,0-1.23c-.17-.8-.34-2.49.62-1.6a6.14,6.14,0,0,1,.16,1.92l-.25,1.1Z"/><path class="cls-24" d="M67,9.11a2.28,2.28,0,1,1-2.28-2.27A2.27,2.27,0,0,1,67,9.11Z"/></g></g></g></g><path class="cls-26" d="M40.57,127a4.19,4.19,0,0,1-2.75.85,6.9,6.9,0,0,1-2.33-.42,6.28,6.28,0,0,1-2-1.24l1.34-1.6a6.15,6.15,0,0,0,1.48.93,3.85,3.85,0,0,0,1.6.32,2,2,0,0,0,1.08-.27.83.83,0,0,0,.4-.71h0a.84.84,0,0,0-.16-.51,1.54,1.54,0,0,0-.61-.4,12.33,12.33,0,0,0-1.31-.4,11.47,11.47,0,0,1-1.9-.64,2.67,2.67,0,0,1-1.12-.93,2.94,2.94,0,0,1-.4-1.59h0a2.84,2.84,0,0,1,.47-1.62,2.92,2.92,0,0,1,1.27-1.09,4.19,4.19,0,0,1,1.87-.39,5.86,5.86,0,0,1,3.83,1.31l-1.17,1.71a4.87,4.87,0,0,0-2.69-1,1.69,1.69,0,0,0-1,.25.76.76,0,0,0-.34.65h0a.78.78,0,0,0,.18.55,1.65,1.65,0,0,0,.64.4,14.28,14.28,0,0,0,1.42.4,6.51,6.51,0,0,1,2.48,1.13,2.49,2.49,0,0,1,.8,2h0A2.86,2.86,0,0,1,40.57,127Z"/><path class="cls-26" d="M51.66,127a5.83,5.83,0,0,1-5.87.17,5.23,5.23,0,0,1-2.66-4.6h0a5.29,5.29,0,0,1,2.68-4.62,5.9,5.9,0,0,1,5.62,0,5.26,5.26,0,0,1,2.67,4.6h0a5.44,5.44,0,0,1-.24,1.6,5.16,5.16,0,0,1-.68,1.42l1.06.9L52.81,128Zm-.35-6.08a3.14,3.14,0,0,0-1.11-1.18,3.11,3.11,0,0,0-1.6-.44,3,3,0,0,0-2.7,1.6,3.3,3.3,0,0,0-.4,1.62h0a3.21,3.21,0,0,0,.41,1.63A3.14,3.14,0,0,0,47,125.28a3.11,3.11,0,0,0,1.6.44,3.36,3.36,0,0,0,1.36-.29L48.3,124l1.43-1.62,1.7,1.54a3.51,3.51,0,0,0,.28-1.43h0A3.41,3.41,0,0,0,51.31,120.87Z"/><path class="cls-26" d="M63.74,126.64a4.53,4.53,0,0,1-3.33,1.18,4.47,4.47,0,0,1-3.28-1.17A4.62,4.62,0,0,1,56,123.23v-5.89h2.26v5.84a2.69,2.69,0,0,0,.59,1.89,2,2,0,0,0,1.64.66,2.14,2.14,0,0,0,1.64-.63,2.66,2.66,0,0,0,.58-1.85v-5.91h2.28v5.82A4.68,4.68,0,0,1,63.74,126.64Z"/><path class="cls-26" d="M73.62,125.34H69.26l-.94,2.32H66l4.42-10.39h2.1l4.41,10.39H74.57Zm-3.56-2H72.8L71.43,120Z"/><path class="cls-26" d="M84.8,127a4.24,4.24,0,0,1-2.75.85,6.66,6.66,0,0,1-2.33-.42,6.43,6.43,0,0,1-2-1.24l1.35-1.6a6,6,0,0,0,1.49.93,3.77,3.77,0,0,0,1.59.32,1.92,1.92,0,0,0,1.07-.27.83.83,0,0,0,.4-.71h0a.84.84,0,0,0-.16-.51,1.54,1.54,0,0,0-.61-.4,12.33,12.33,0,0,0-1.31-.4,11.36,11.36,0,0,1-1.89-.64,2.67,2.67,0,0,1-1.12-.93,2.87,2.87,0,0,1-.41-1.59h0a2.84,2.84,0,0,1,.47-1.62,3,3,0,0,1,1.28-1.09,4.12,4.12,0,0,1,1.86-.39,5.86,5.86,0,0,1,3.83,1.31l-1.17,1.71a4.87,4.87,0,0,0-2.69-1,1.71,1.71,0,0,0-1,.25.79.79,0,0,0-.34.65h0a.78.78,0,0,0,.18.55,1.62,1.62,0,0,0,.65.4,13.56,13.56,0,0,0,1.42.4,6.36,6.36,0,0,1,2.48,1.13,2.49,2.49,0,0,1,.8,2h0A2.86,2.86,0,0,1,84.8,127Z"/><path class="cls-26" d="M94.27,123.52H90.09v4.14H87.81V117.34h2.28v4.08h4.18v-4.08h2.27v10.32H94.27Z"/></svg>