<svg id="Layer_11" data-name="Layer 11" xmlns="http://www.w3.org/2000/svg" viewBox="0 0 128 128"><defs><style>.cls-1{fill:#ffc023;}.cls-2{fill:#9e9c9c;}.cls-3{fill:#eff1ef;}.cls-4{fill:#2c2a2c;}.cls-5{fill:#ff8862;}.cls-6{fill:#ffa06f;}.cls-7{fill:#aba7a5;}.cls-8{fill:#5e3872;}.cls-9{fill:#522e72;}.cls-10{fill:#d77141;}.cls-11{fill:#0cf;}.cls-12{fill:#bdbdbc;}</style></defs><g id="Layer_2" data-name="Layer 2"><g id="Layer_1-2" data-name="Layer 1-2"><path class="cls-1" d="M18,18.52V16.4c0-.08,0-.15,0-.24a11.74,11.74,0,0,1,3.2-7.09,19.61,19.61,0,0,1,6.41-4.36,38.94,38.94,0,0,1,6.9-2.26c1.37-.35,2.74-.7,4.13-.94a51,51,0,0,1,6.88-.46A2,2,0,0,0,46.06,1h6.28l.24,0c1,0,2,.06,3,.1,1.68.06,3.34.18,5,.32,2.09.18,4.17.4,6.23.75A47,47,0,0,1,76.68,4.6c1.23.49,2.52.75,3.77,1.16a120.62,120.62,0,0,1,16.21,5.88,56.24,56.24,0,0,1,8.84,4.94,1,1,0,0,1,.25.2,3.23,3.23,0,0,0,1.1.94c.9.56,1.82,1.08,2.72,1.65a21.36,21.36,0,0,1,5.09,4.19,12.33,12.33,0,0,1,2.83,5.74c.09.47.15.94.22,1.41v2.06c0,.31-.07.61-.12.92a22,22,0,0,1-2,6.48,47,47,0,0,1-5.78,8.9c-.51.63-1.07,1.22-1.51,1.88s-.87,1.25-1.34,1.85A157.52,157.52,0,0,1,96.05,65.18q-2.44,2.52-5,4.95c-1.7,1.61-3.48,3.24-5.36,4.88a118.35,118.35,0,0,1-9.35,7.34,70.33,70.33,0,0,1-10.17,6,5.09,5.09,0,0,0-.68.38c-.86.56-1.74,1.12-2.64,1.63a25.44,25.44,0,0,1-8.82,3.13c-.49.07-1,.11-1.51.17H50.28l-.22,0A17,17,0,0,1,43.8,92a23.27,23.27,0,0,1-7.5-6,41.47,41.47,0,0,1-5.19-8,76.51,76.51,0,0,1-4.58-11.18c-.39-1.15-.7-2.33-1.18-3.44a83.1,83.1,0,0,1-4.47-13.5A92.21,92.21,0,0,1,18.54,36q-.33-3.57-.37-7.16,0-3,.18-6a6.39,6.39,0,0,0-.05-1.8,4.69,4.69,0,0,0-.1-.62Z"/><path class="cls-2" d="M33.61,121.08h5.2v2.18h-5.2v4.23H31.2V116.58h8.3v2.18H33.61Z"/><path class="cls-2" d="M41.54,116.58h2.4v10.91h-2.4Z"/><path class="cls-2" d="M51.61,127.49h-2.4v-8.7H45.89v-2.21h9v2.21H51.62Z"/><path class="cls-2" d="M59.14,120.55v6.94H56.77V116.58H59l5.1,6.71v-6.71h2.37v10.91h-2Z"/><path class="cls-2" d="M69.09,116.58h8.23v2.13H71.46v2.21H76.6v2.14H71.46v2.26h5.92v2.17h-8.3Z"/><path class="cls-2" d="M86.32,126.74a4.46,4.46,0,0,1-2.91.9,7.14,7.14,0,0,1-2.46-.45,6.75,6.75,0,0,1-2.17-1.3l1.42-1.7a6.62,6.62,0,0,0,1.58,1,4.21,4.21,0,0,0,1.68.35,2.11,2.11,0,0,0,1.15-.28.82.82,0,0,0,.42-.75h0a.81.81,0,0,0-.17-.54,1.66,1.66,0,0,0-.65-.42,13,13,0,0,0-1.38-.43,12,12,0,0,1-2-.67,2.79,2.79,0,0,1-1.19-1,3,3,0,0,1-.42-1.67h0a3.07,3.07,0,0,1,.49-1.72,3.19,3.19,0,0,1,1.36-1.16,4.44,4.44,0,0,1,2-.41,6.23,6.23,0,0,1,4,1.39l-1.25,1.81A5,5,0,0,0,83,118.6a1.8,1.8,0,0,0-1,.26.84.84,0,0,0-.37.69h0a.86.86,0,0,0,.2.59,1.64,1.64,0,0,0,.68.41A13,13,0,0,0,84,121a6.83,6.83,0,0,1,2.56,1.16,2.62,2.62,0,0,1,.84,2.09h0A3,3,0,0,1,86.32,126.74Z"/><path class="cls-2" d="M96.14,126.74a4.48,4.48,0,0,1-2.91.9,7.38,7.38,0,0,1-2.46-.45,6.86,6.86,0,0,1-2.17-1.3l1.42-1.7a6.56,6.56,0,0,0,1.57,1,4.26,4.26,0,0,0,1.69.35,2.11,2.11,0,0,0,1.15-.28.82.82,0,0,0,.42-.75h0a.81.81,0,0,0-.17-.54,1.7,1.7,0,0,0-.64-.42,13.74,13.74,0,0,0-1.38-.43,12.81,12.81,0,0,1-2-.67A2.65,2.65,0,0,1,89,119.77h0a3.07,3.07,0,0,1,.49-1.72,3.22,3.22,0,0,1,1.35-1.16,4.66,4.66,0,0,1,2-.41,6.23,6.23,0,0,1,4,1.39l-1.24,1.81a5.11,5.11,0,0,0-2.84-1.08,1.8,1.8,0,0,0-1,.26.8.8,0,0,0-.36.69h0a.9.9,0,0,0,.18.59,1.91,1.91,0,0,0,.68.41,13.6,13.6,0,0,0,1.51.43,6.86,6.86,0,0,1,2.62,1.19,2.62,2.62,0,0,1,.84,2.09h0A3,3,0,0,1,96.14,126.74Z"/><ellipse class="cls-3" cx="59.48" cy="103.33" rx="16.39" ry="2.79"/><path class="cls-4" d="M67.26,67.09h0a1.59,1.59,0,0,1-1.38-1.77l.45-3.58a1.6,1.6,0,0,1,1.76-1.38h0a1.61,1.61,0,0,1,1.39,1.75L69,65.68a1.58,1.58,0,0,1-1.75,1.41Z"/><path class="cls-4" d="M79.9,68.66h0a1.58,1.58,0,0,1-1.37-1.77h0L79,63.32a1.59,1.59,0,0,1,1.77-1.38h0a1.6,1.6,0,0,1,1.38,1.77l-.45,3.57A1.59,1.59,0,0,1,79.9,68.66Z"/><path class="cls-4" d="M78.9,66l-11-1.37a.85.85,0,0,1-.75-.95h0a.85.85,0,0,1,.94-.76h0l11,1.42a.85.85,0,0,1,.75.95h0A.84.84,0,0,1,78.9,66Z"/><path class="cls-5" d="M75.29,62.18s.94-10.29.76-12.43-.1-3.15-1-5.2a94.51,94.51,0,0,1-3-10.67c-.6-2.75-1.2-4-2.72-5.28a4.77,4.77,0,0,0-1.57-.84,10.37,10.37,0,0,0-.21,1.16c-.15.91-.43,1.8-.65,2.69a25.7,25.7,0,0,0-1.15,5.8,3.93,3.93,0,0,0,.6,2.06c.37.65.91,1.17,1.27,1.81a5.33,5.33,0,0,1,.5,1.27c.09-.69.14-1.11.14-1.11l3,7.37.63,12.93a16.7,16.7,0,0,0-.63,3c-.12,1.31.92,2,2.85,2.26s2-1,2.41-2.26S75.29,62.18,75.29,62.18Z"/><path class="cls-6" d="M53.5,47.56l1.09,7.21s-.23.69-.75,2.06c-.3.76-.92,4.87-1.4,8.15,4.2.35,8.3,1.83,12.52,1.81a31.66,31.66,0,0,1,3.51.11,5.85,5.85,0,0,1,1.09.22,45.69,45.69,0,0,0-.11-7.49c-.4-2.34-2.8-5.28-2.17-5.28.47-.06,1.45-6.75,2-10.35a8.4,8.4,0,0,0-.19-1,6.94,6.94,0,0,0-1.32-2.3,4.77,4.77,0,0,1-1-3.4A35,35,0,0,1,68,31.4c.22-.88.44-1.76.6-2.65a2.88,2.88,0,0,1,.14-.71,10.87,10.87,0,0,0-2.59-.43l-.08-1.78c1.12-.6,4.77-3.77,4.77-11,0-3.29-3.24-6.26-8.13-6.95A8.7,8.7,0,0,0,54,12.17c-.87,1.62.61,1.8.61,1.8s-1.37,7.29,0,9.6,4.53,2.26,4.53,2.26v1.81a21.32,21.32,0,0,0-3.46.65c-2,.81-2.26,1.23-3,2.72S49.37,42.56,48.8,43s-7.25-8.77-7.25-8.77.28-2.26-.52-3.31-4.21,1.41-4.21,1.41-.07,2.6,1,3.1c.22.09,3.09,6.57,4.86,9.55A10.73,10.73,0,0,0,49.27,50C51.33,50.43,53.5,47.56,53.5,47.56Z"/><path class="cls-6" d="M72.83,101.27a8.91,8.91,0,0,0-1.42-3s.28-9.6-.24-12.58A14.62,14.62,0,0,0,68.37,80c-.22-.44-.11-10.24-.11-10.24s1-.47,1.14-.81a8.56,8.56,0,0,0,.15-1.43,9.42,9.42,0,0,0-3.17-.33c-1,0-2,0-3-.06-3.71-.3-7.28-1.46-11-1.76-.31,2.21-.55,4-.55,4l1.89,1s.4,6.65.51,8.7a8,8,0,0,0,1,3.78c.4.75,2,15.76,2,15.76a14.91,14.91,0,0,1-4.34,2.7c-2.52,1.13-4.41,1.14-4.76,1.42s.86,1.71,2,2,4-.71,5-.83,3,1,5,.8c1.22-.13,1.89-.45,2.2-1.08a3.07,3.07,0,0,0,.31.17c1.2.51,5.21.23,6.52,0s1.17.2,2.2-.2S73.41,103.27,72.83,101.27Zm-7.06.11a4.85,4.85,0,0,1-3.27,1V102a12.21,12.21,0,0,0-1.26-4s1.6-7,1.2-11.27S60.17,81,60.72,80.11A35.2,35.2,0,0,0,62,74.21c-.29,2.32-.51,4.85-.14,5.51,1.51,2.69,5.72,18.8,5.72,18.8A8.06,8.06,0,0,1,65.77,101.38Z"/><path class="cls-6" d="M67.29,54.32c.46,0,1.44-6.72,2-10.32a8.4,8.4,0,0,0-.19-1,6.94,6.94,0,0,0-1.32-2.3,4.77,4.77,0,0,1-1-3.4A35,35,0,0,1,68,31.4c.22-.88.44-1.76.6-2.65a2.88,2.88,0,0,1,.14-.71,10.87,10.87,0,0,0-2.59-.43l-.08-1.78c1.12-.6,4.77-3.77,4.77-11,0-3.29-3.24-6.26-8.13-6.95A8.7,8.7,0,0,0,54,12.17c-.87,1.62.61,1.8.61,1.8s-1.37,7.29,0,9.6,4.53,2.26,4.53,2.26v1.81a21.32,21.32,0,0,0-3.46.65c-2,.81-2.26,1.23-3,2.72S49.37,42.56,48.8,43s-7.25-8.77-7.25-8.77.28-2.26-.52-3.31-4.21,1.41-4.21,1.41-.07,2.6,1,3.1c.22.09,3.09,6.57,4.86,9.55A10.73,10.73,0,0,0,49.27,50c2.06.4,4.23-2.46,4.23-2.46l1.09,7.21s-.23.68-.75,2.06c-.3.75-.92,4.86-1.4,8.15,3.47.29,6.84,1.35,10.3,1.69a24.68,24.68,0,0,1-.27-2.7.17.17,0,0,1,.34,0c0,.91.21,1.81.31,2.72.62.05,1.25.09,1.87.08a31.76,31.76,0,0,1,3.52.11,5.85,5.85,0,0,1,1.09.22,45.69,45.69,0,0,0-.11-7.49C69.06,57.29,66.65,54.37,67.29,54.32Z"/><path class="cls-5" d="M72.56,101.33a16.85,16.85,0,0,0-1.15-3.06s.28-9.6-.24-12.58A14.71,14.71,0,0,0,68.37,80c-.22-.44-.11-10.24-.11-10.24s1-.49,1.14-.83a8.56,8.56,0,0,0,.15-1.43,9.42,9.42,0,0,0-3.17-.33c-1,0-2,0-3-.06h-.25v.37a10.81,10.81,0,0,1-.26,2.89c-.44,2.26-.87,4.52-1.22,6.79a.1.1,0,0,1-.05.08,6.33,6.33,0,0,0,.16,2.56c1.5,2.68,5.71,18.8,5.71,18.8a8.06,8.06,0,0,1-1.74,2.85,4.5,4.5,0,0,1-3,1c-.07.47-.15.93-.25,1.39h0c1.2.51,5.21.23,6.52,0s.76.34,1.82-.07S73.13,103.3,72.56,101.33Z"/><path class="cls-3" d="M67.58,96.93v-1.6a6.51,6.51,0,0,0-2.11-.11c-.31,0-1.87.14-2.27.63l.47,1.67a8.1,8.1,0,0,1-1.74,2.86,4.66,4.66,0,0,1-3.06,1,3.21,3.21,0,0,0-.09.61,2.68,2.68,0,0,0,0,.8c1.23.5,5.19.22,6.5,0s.75.34,1.82-.06,2-.37,1.63-2.43A9.18,9.18,0,0,0,67.58,96.93Z"/><path class="cls-3" d="M58.44,102.6h0a6,6,0,0,0,.19-1.51V101a12,12,0,0,0-1.26-4s.12-.49.27-1.3a3.55,3.55,0,0,0-2-.48,4.69,4.69,0,0,0-2.5.47c.13,1.19.22,1.94.22,1.94A14.86,14.86,0,0,1,49,100.3c-2.53,1.13-4.42,1.14-4.76,1.42s.86,1.72,2,2,4-.71,5-.83,3,1,5,.8C57.46,103.56,58.13,103.25,58.44,102.6Z"/><path class="cls-7" d="M44.3,101.7c-.34.29.29,1.81,2,2,1.18.15,4-.72,5-.83S44.64,101.41,44.3,101.7Z"/><path class="cls-8" d="M67.29,54.32c.22,0,.56-1.58.92-3.6-4.14,2.2-9.36,2.15-14,1.62l.37,2.43s-.23.69-.75,2.06-2.11,13.09-2.11,13.09,4,.6,5.28.66a27.83,27.83,0,0,0,2.88-.18A12.2,12.2,0,0,0,62.05,70h0a11.24,11.24,0,0,0,2.94.33,10,10,0,0,0,2.43-.51c.5-.16,1-.34,1.51-.5a1.44,1.44,0,0,0,.5-.45,47.75,47.75,0,0,0,.06-9.26C69.06,57.29,66.65,54.37,67.29,54.32Z"/><path class="cls-9" d="M69.46,59.63c-.4-2.34-2.1-5.94-1.51-6,.22,0-.13-.9.22-2.92a15,15,0,0,1-3.6,1.33c.36.75.91,1.51,1.31,2.26a10.6,10.6,0,0,1,.75,2.11,10.57,10.57,0,0,1-.36,4.73c-.37,1.73-1.37,2.26-2.26,3.72a16.07,16.07,0,0,0-2.27,5.07c.76.12,2.68.44,3.2.43a9.58,9.58,0,0,0,2.43-.52c.5-.15,1-.34,1.51-.49a1.54,1.54,0,0,0,.5-.45A48,48,0,0,0,69.46,59.63Z"/><path class="cls-5" d="M66.24,25.79a8.29,8.29,0,0,0,2.8-3,5.66,5.66,0,0,0-3.42.91,26.27,26.27,0,0,1-3.23,1.61,8.81,8.81,0,0,1-1.68.43c-.48.07-1,0-1.44.08v1.76s-.88.1-1.77.26c.89.11,1.5,1.36,1.88,2,.92,1.59,2.31,2.94,4.26,2.85,2.66-.12,4-2.51,4.44-4.92a11.88,11.88,0,0,0-1.78-.23Z"/><path class="cls-10" d="M56.87,13.17c2.43-.18,3.06.88,3.22,1.81.66,4,2,4.53,3.15,4.43.62,0,.27-1.33,1.88-1.44.61,0,.85.76.85,1.51a2.56,2.56,0,0,1-.7,2.11,1.88,1.88,0,0,0-.17,2.51,2.57,2.57,0,0,0,2,1.08C68.57,23.87,71,20.65,71,14.77c0-3.28-3.24-6.23-8.12-6.94a8.68,8.68,0,0,0-8.76,4.29c-.36.67-.42.92,0,1.51C55.13,14.49,55.56,13.26,56.87,13.17Z"/><path class="cls-3" d="M70.6,12.84a4.71,4.71,0,0,1-.33.76,5.87,5.87,0,0,1-4.42,2.74c-2.19.34-3.43-1.07-4.71-2.62a7.24,7.24,0,0,0-3-2.37,9.92,9.92,0,0,0-3.25-.42,7,7,0,0,0-.82,1.19c-.35.67-.42.92,0,1.51,1,.84,1.46-.39,2.77-.48C59.3,13,59.93,14,60.09,15c.66,4,2,4.53,3.15,4.43.62,0,.27-1.33,1.88-1.43.61,0,.85.75.85,1.51a2.57,2.57,0,0,1-.7,2.11,1.87,1.87,0,0,0-.17,2.5,2.51,2.51,0,0,0,2,1.08C68.57,23.86,71,20.64,71,14.75A5.26,5.26,0,0,0,70.6,12.84Z"/><path class="cls-9" d="M69.13,101a6.3,6.3,0,0,0,0-.75,5.52,5.52,0,0,0-.58-2.26.74.74,0,0,0-.91-.4,12.36,12.36,0,0,0-1.62.93,2.62,2.62,0,0,1-1.51.42c-.76-.06-1-.5-1.71-.22-.1,0-1.41.8-3,1.57-.75.34-3,.75-3.31,1s.25,1.82,1.77,2c1,.14,3.53-.72,4.39-.84s2.62,1,4.39.81a2.38,2.38,0,0,0,1.82-.86A2.7,2.7,0,0,0,69.13,101Z"/><path class="cls-7" d="M65.6,102.38c-.75-.16-1.42-.46-2.13-.61a6.28,6.28,0,0,0-2.79.18,12.15,12.15,0,0,1-2.17.47,7.46,7.46,0,0,1-2-.25,2.24,2.24,0,0,0,1.65,1.14c1.05.15,3.54-.71,4.4-.83s2.62,1,4.39.8a2.28,2.28,0,0,0,1.81-.86c.07-.19.13-.38.19-.58A4.57,4.57,0,0,1,65.6,102.38Z"/><path class="cls-4" d="M34.55,38.58h0a1.59,1.59,0,0,1-2-1l-1.2-3.41a1.58,1.58,0,0,1,1-2h0a1.59,1.59,0,0,1,2,1l1.17,3.41A1.59,1.59,0,0,1,34.55,38.58Z"/><path class="cls-4" d="M46.58,34.43h0a1.59,1.59,0,0,1-2-1L43.39,30a1.59,1.59,0,0,1,1-2h0a1.59,1.59,0,0,1,2,1l1.17,3.4A1.59,1.59,0,0,1,46.58,34.43Z"/><path class="cls-4" d="M44.51,32.51,34,36.12a.84.84,0,0,1-1.08-.52h0a.86.86,0,0,1,.53-1.09L44,30.9a.85.85,0,0,1,1.09.52h0a.85.85,0,0,1-.52,1.09Z"/><path class="cls-6" d="M40.15,33.71a9.11,9.11,0,0,0,1.43-1A3.45,3.45,0,0,0,41,30.9c-.8-1-4.22,1.43-4.22,1.43v.14C37.65,33.64,38.6,34.57,40.15,33.71Z"/><path class="cls-11" d="M53.5,47.56v6.72c2,2,13.18,2.32,15.52,0,.46-.44.65-14.12.65-15.61,0-4.42.88-9.19-1.59-10.88.39.16.79.3,1.19.42a9.35,9.35,0,0,0-1.94-.49,4.73,4.73,0,0,1-4,3.23,3.91,3.91,0,0,1-3.24-1.07c-.54-.48-1.66-1.83-2.6-2.05a11.21,11.21,0,0,0-1.82.43,8.32,8.32,0,0,0-.76.34,3.92,3.92,0,0,1,1.87,2.26c.82,2.09.11,5-.17,7.12A46.66,46.66,0,0,1,53.5,47.56Z"/><path class="cls-3" d="M67,49.38a9,9,0,0,0-4.12-1.12,7.05,7.05,0,0,1-3.67-1C56,45.08,57,41.06,56.66,37.54a1.07,1.07,0,0,1,0,.4,47,47,0,0,1-3.11,9.62v6.72c2,2,13.18,2.32,15.52,0A8.68,8.68,0,0,0,69.31,52,6.63,6.63,0,0,0,67,49.38Z"/><path class="cls-8" d="M58.72,101.37a7.54,7.54,0,0,0-.35-1.94,6.5,6.5,0,0,0-.57-1.6A2.16,2.16,0,0,0,57,98a19.63,19.63,0,0,0-1.83.93,3.34,3.34,0,0,1-1.75.43,6.21,6.21,0,0,0-2.46-.13,23.77,23.77,0,0,1-2.87,1.51c-.82.34-3.42.75-3.78,1s.29,1.81,2,2c1.19.15,4-.72,5-.83s3,1,5,.8a2.79,2.79,0,0,0,2.06-.86A2.48,2.48,0,0,0,58.72,101.37Z"/><path class="cls-12" d="M54.72,102.8c-.82-.16-1.6-.46-2.42-.62a8,8,0,0,0-3.15.19,14.8,14.8,0,0,1-2.46.46,9.06,9.06,0,0,1-2.26-.25,2.48,2.48,0,0,0,1.87,1.15c1.18.15,4-.72,5-.83s3,1,5,.8a2.82,2.82,0,0,0,2.06-.86,3.64,3.64,0,0,0,.3-.63A6,6,0,0,1,54.72,102.8Z"/></g></g></svg>