<svg id="Layer_8" data-name="Layer 8" xmlns="http://www.w3.org/2000/svg" viewBox="0 0 128 128"><defs><style>.cls-1{fill:#afdd3d;}.cls-2{fill:#9e9c9c;}.cls-3{fill:#eff1ef;}.cls-4{fill:#ffa06f;}.cls-5{fill:#ff5571;}.cls-6{fill:#b35600;}.cls-7{fill:#e5e7e4;}.cls-8{fill:#ff8862;}.cls-9{fill:#ffc7ff;}</style></defs><g id="Layer_2" data-name="Layer 2"><g id="Layer_1-2" data-name="Layer 1-2"><path class="cls-1" d="M20,18.89V16.83a1.85,1.85,0,0,1,0-.23,11.39,11.39,0,0,1,3.12-6.91,19,19,0,0,1,6.25-4.25,37.5,37.5,0,0,1,6.72-2.21c1.33-.33,2.66-.67,4-.92a51.75,51.75,0,0,1,6.7-.44,1.87,1.87,0,0,0,.53-.05h6.12l.24,0c1,0,2,.06,2.94.09,1.63.07,3.26.18,4.87.32,2,.18,4.06.39,6.07.74a45.42,45.42,0,0,1,9.6,2.32c1.2.48,2.46.73,3.68,1.13a118.14,118.14,0,0,1,15.79,5.73A55.38,55.38,0,0,1,105.25,17a1,1,0,0,1,.25.2,3.13,3.13,0,0,0,1.07.91c.88.55,1.77,1.06,2.65,1.61a20.78,20.78,0,0,1,5,4.09,11.89,11.89,0,0,1,2.76,5.59c.09.45.14.92.21,1.37v2c0,.3-.07.59-.11.9A21,21,0,0,1,115,40a45.06,45.06,0,0,1-5.63,8.67c-.49.62-1,1.2-1.47,1.84s-.84,1.22-1.3,1.8A153.51,153.51,0,0,1,96.05,64.36c-1.59,1.64-3.21,3.24-4.86,4.82S87.8,72.35,86,73.94a110.17,110.17,0,0,1-9.11,7.15A69.13,69.13,0,0,1,67,87a5.32,5.32,0,0,0-.66.37c-.84.55-1.7,1.1-2.58,1.59a24.81,24.81,0,0,1-8.59,3c-.48.07-1,.11-1.47.17H51.44l-.21,0a16.63,16.63,0,0,1-6.1-1.65,22.65,22.65,0,0,1-7.3-5.88,41,41,0,0,1-5.07-7.77,75.34,75.34,0,0,1-4.46-10.9c-.38-1.12-.68-2.26-1.15-3.35a82.06,82.06,0,0,1-4.36-13.15A91.85,91.85,0,0,1,20.51,36c-.21-2.33-.33-4.65-.36-7q0-2.89.18-5.83a6.42,6.42,0,0,0,0-1.75,4.17,4.17,0,0,0-.1-.6C20.1,20.15,20,19.52,20,18.89Z"/><path class="cls-2" d="M47.63,124.56a5.37,5.37,0,0,1-2.08,2,6.23,6.23,0,0,1-3.08.77H38.14V116.18h4.33a6.24,6.24,0,0,1,3.08.72,5.32,5.32,0,0,1,2.85,4.8h0A5.56,5.56,0,0,1,47.63,124.56ZM45.4,120a3.06,3.06,0,0,0-1.18-1.16,3.55,3.55,0,0,0-1.75-.46H40.58v6.7h1.89a3.57,3.57,0,0,0,1.75-.43,2.9,2.9,0,0,0,1.18-1.2,3.35,3.35,0,0,0,.42-1.72h0A3.49,3.49,0,0,0,45.4,120Z"/><path class="cls-2" d="M57,124.79h-4.7l-1,2.5H48.81l4.76-11.19h2.25l4.77,11.19H58Zm-3.84-2.16h2.95L54.65,119Z"/><path class="cls-2" d="M64.75,120.22v7.07H62.3V116.18h2.25L69.76,123v-6.83h2.41v11.11h-2Z"/><path class="cls-2" d="M82.62,127a5.86,5.86,0,0,1-2.58.5,5.66,5.66,0,0,1-2.9-.76,5.53,5.53,0,0,1-2-2.08,5.7,5.7,0,0,1-.77-2.88h0a5.76,5.76,0,0,1,.77-2.89,5.51,5.51,0,0,1,2.06-2.09,5.83,5.83,0,0,1,3-.76,6.28,6.28,0,0,1,2.5.43,6,6,0,0,1,1.88,1.28L83,119.52a5.33,5.33,0,0,0-1.36-.94,3.29,3.29,0,0,0-1.48-.32,3,3,0,0,0-1.65.47A3.11,3.11,0,0,0,77.35,120a3.49,3.49,0,0,0-.42,1.73h0a3.67,3.67,0,0,0,.42,1.75,3.25,3.25,0,0,0,1.13,1.28,3.17,3.17,0,0,0,1.67.47,3.38,3.38,0,0,0,1.53-.33,6.13,6.13,0,0,0,1.39-1l1.53,1.54A6.39,6.39,0,0,1,82.62,127Z"/><path class="cls-2" d="M86.55,116.18h8.38v2.17H89v2.25h5.24v2.17H89v2.31h6v2.21H86.56Z"/><ellipse class="cls-3" cx="69.37" cy="104.47" rx="17.88" ry="3.04"/><path class="cls-4" d="M52.19,58.59c-1.15.47-3.52,6.67-5.72,8.2s-5.38,3.14-6.77,5.37-5,9-5.33,9.22-5,3.07-5.24,4.29-1.15,5-1.15,5,.48,1.8,1.91,1S33.6,90,34.56,88.81a54.09,54.09,0,0,0,2.95-5.53c.19-.29,6.1-3.84,8.39-6.57S49.52,71.6,51,70s5.8-4.27,7.24-6.36S57.07,56.59,52.19,58.59Z"/><path class="cls-5" d="M32.87,88c-2.3-.09-2.6-2.84-1.18-4.85a13,13,0,0,0-2.56,2.49c-.29,1.24-1.15,5-1.15,5s.48,1.81,1.91,1S33.6,90,34.56,88.8a29.41,29.41,0,0,0,1.53-2.74C35.3,86.82,34.07,88.05,32.87,88Z"/><path class="cls-4" d="M66.86,65c-.45,1.16,2.31,7.17,1.92,9.81s-1.45,6-.87,8.58,3,9.92,2.93,10.26-1.25,5.68-.56,6.75L73,104.65s1.63.92,2-.7,1.49-3.74,1.27-5.28a59.75,59.75,0,0,0-1.92-6c-.08-.34,1.53-7,1.1-10.6S74.35,76,74.2,73.81s1-7.13.47-9.62S68.8,60.11,66.86,65Z"/><path class="cls-5" d="M76.32,98.67A12.79,12.79,0,0,0,75.87,97a3.55,3.55,0,0,1-1.69,2.73,3,3,0,0,1-3-.55,3.59,3.59,0,0,1-1-1.77,6.14,6.14,0,0,0,.09,3L73,104.65s1.63.92,2-.7S76.54,100.21,76.32,98.67Z"/><path class="cls-4" d="M67.44,22.28a4.83,4.83,0,0,1-1.62-1.59,7.66,7.66,0,0,1-1-2.65s-.67.11-1.22-.81-1.31-2.08-.61-2.9.91-.82.91-.82-.82-1.11.28-4.67c.71-2.3,2-3.33,2.23-3.33A4.48,4.48,0,0,1,69.3,3.84c2-.13,5.71,2.05,5.71,2.05A5.27,5.27,0,0,1,78,8a10.23,10.23,0,0,1,1.81,4.61,1.68,1.68,0,0,1-1,1.68,10.4,10.4,0,0,1-1.39,6.43C73.37,26.83,67.44,22.28,67.44,22.28Z"/><path class="cls-6" d="M64.79,14.37a4.47,4.47,0,0,0,1.27,1.22,2,2,0,0,0,2.31-.73c1.29-1.4.9-3.62,2.18-5.07a3,3,0,0,1,1.73-1.06c.63-.05.86.3,1.08.77a2,2,0,0,1,2-.49c.77.26,1,1.05,1.2,1.74.39,1.29.73,2.59,2.22,3a1.9,1.9,0,0,0,.58.09,1.9,1.9,0,0,0,.46-1.33A10.32,10.32,0,0,0,78,7.88a5.27,5.27,0,0,0-3-2s-3.76-2.19-5.71-2a4.6,4.6,0,0,0-2.92,1.67c-.19,0-1.53,1-2.23,3.33-.92,3-.49,4.24-.33,4.57A4.65,4.65,0,0,1,64.79,14.37Z"/><path class="cls-7" d="M78.72,11.09C77.57,10.7,77,9.41,76,8.73a3.27,3.27,0,0,0-2.69-.38A2.21,2.21,0,0,1,72,8.14a2,2,0,0,0-2.45.24,8.36,8.36,0,0,0-1.27,1.45c-.56.77-1.2,1.8-2.18,2.05a2.18,2.18,0,0,1-2.36-1.46,4.88,4.88,0,0,0,.07,3,4.65,4.65,0,0,1,1,1,4.47,4.47,0,0,0,1.27,1.22,2,2,0,0,0,2.31-.73c1.29-1.4.9-3.62,2.18-5.07a3,3,0,0,1,1.73-1.06c.63-.05.86.3,1.08.77a2,2,0,0,1,2-.49c.77.26,1,1.05,1.2,1.74.39,1.29.73,2.59,2.22,3a1.9,1.9,0,0,0,.58.09,1.9,1.9,0,0,0,.46-1.33,9.82,9.82,0,0,0-.27-1.31A2.12,2.12,0,0,1,78.72,11.09Z"/><path class="cls-4" d="M68.17,22.25,67.75,25c-.37.06-3.65-.42-5.07-.09s-7.5,3.36-9.16,3.84-2.8,1.08-3.62.7-9.53-7.09-9.53-7.09-2.3-2.76-3.24-2.95-5.21-.51-5.38,0-.19,1.46.7,1.46,1.91,2.76,3.69,3.48,8.77,10.81,12.45,11.52,10.78-2.39,10.78-2.39L62,43.15l-.44,1.59S44.37,57.25,43.67,58.08s.13-.19,2.8,1.46,3.75,4.2,6.42,5,5.08-.57,7.37,0,2.48,3.68,5.46,3.62,4.2-1.78,6.92-1.66S75.49,69.7,79,68.94s5.73-3.37,6.5-3,1.78.83,1.78.83l-13.83-20,.33-2.31s2.43-6.91,2.76-7.68a12.13,12.13,0,0,0,.66-2.92s5.53,5.94,9.34,6.07,16.65-4.13,18.24-3.84,3.94.64,4.7,0,2.09-1.54,2.09-1.54A25.51,25.51,0,0,0,106.49,33a15.38,15.38,0,0,0-3.94.51s-13.71,1.39-14.59,1-7-7.09-8.79-7.59-5-1.29-5-1.29l.24-2.8S69.79,23.84,68.17,22.25Z"/><path class="cls-5" d="M53.7,35.33c.61-.16,1.21-.33,1.79-.5a10.58,10.58,0,0,0,.16-2.75,11.81,11.81,0,0,0-1.21-3.74c-.38.15-.69.26-.92.33l-.52.15A8.68,8.68,0,0,1,53.7,35.33Z"/><path class="cls-5" d="M86.06,32.88l-1.13-1.1a8.38,8.38,0,0,0-2.4,6.72c.35.23.71.44,1.07.63A8.67,8.67,0,0,1,86.06,32.88Z"/><path class="cls-8" d="M63.25,28.5c.1,1.3,0,2.65.93,3.71,1.34,1.61,3.72,1.94,5.68,2a8.78,8.78,0,0,0,3-.21,4.07,4.07,0,0,0,2.31-2.15c.61-1.16,1.18-2.31,1.86-3.4.39-.61.77-1.23,1.11-1.86-1.78-.46-4-1-4-1l.24-2.81s-4.61,1-6.21-.59L67.75,25c-.37.06-3.65-.42-5.07-.09h-.07A27.71,27.71,0,0,1,63.25,28.5Z"/><path class="cls-9" d="M73.73,44.55s2.43-6.91,2.76-7.68a11.13,11.13,0,0,0,.6-2.42c-.08-.31-.16-.62-.21-.94a6,6,0,0,1,.15-2.3,9.58,9.58,0,0,1,2.18-4.29h0l-1.75-.47c-1.22,3.12-3.79,5.84-7,5.6a8,8,0,0,1-4.68-1.93,6.77,6.77,0,0,1-1.65-2.18c-.42-1-.47-2.08-.82-3.08a.11.11,0,0,1,0-.08,4.07,4.07,0,0,0-.61.08,5.5,5.5,0,0,0-.81.27,9.45,9.45,0,0,1,.24,2.48A10.83,10.83,0,0,1,61.35,31a6.06,6.06,0,0,1-1.86,2.82L62,43.16l-.44,1.59S44.37,57.25,43.67,58.08s.13-.19,2.8,1.46,3.75,4.2,6.42,5,5.08-.57,7.37,0,2.48,3.68,5.46,3.62,4.2-1.78,6.92-1.66S75.49,69.7,79,68.94s5.73-3.37,6.5-3,1.78.83,1.78.83l-13.83-20Z"/><path class="cls-7" d="M68.64,36.93c-2.93,0-6.58,1.12-8.68-1.63v-.07l-.08,0a.18.18,0,0,1,0,.24L62,43.15l-.45,1.59-.23.16a9.92,9.92,0,0,1,2.49-.23c1.94.06,3.84.53,5.78.41a26.46,26.46,0,0,1,4.08-.25l0-.31S76,38,76.45,36.94c-.72.14-1.41.44-2.14.58C72.35,37.92,70.59,37,68.64,36.93Z"/><path class="cls-5" d="M84.42,62.69a5,5,0,0,1-1.54,1,2.59,2.59,0,0,1-1,.21c-.45,0-.86-.36-1.3-.34-.68,0-1.09.77-1.61,1.13-1.06.73-2,0-2.85-.76a2.06,2.06,0,0,0-2-.64,8.09,8.09,0,0,0-1.6.7,7.34,7.34,0,0,1-2,.77c-1.67.29-2.7-1-4-1.73-1.71-.92-3.36.47-5.08-.23S59,60.2,57,60.38a12.5,12.5,0,0,1-3.16.35A4.12,4.12,0,0,1,52,60c-1.21-.83-2.16-2-3.33-2.81a3.7,3.7,0,0,0-3-.77c-.72.52-1.41,1.08-2.08,1.67-.7.82.13-.19,2.8,1.46s3.75,4.19,6.42,4.95,5.08-.56,7.37,0,2.48,3.69,5.46,3.63,4.2-1.78,6.92-1.66,2.85,3.24,6.35,2.48,5.73-3.35,6.5-3,1.78.83,1.78.83Z"/><path class="cls-5" d="M63.34,28.7a2.38,2.38,0,0,0,.39,1.54c.18.21.47.29.65.52a.87.87,0,0,1,.18.71c0,.7.07,1.24.77,1.54a1.68,1.68,0,0,0,1.17,0,.18.18,0,0,1,.23.14.06.06,0,0,1,0,0A5.72,5.72,0,0,0,68,36.69c.6.82,1.53,1.53,2.61.76,1.27-.93,1.6-2.91,1.69-4.33,0-.18.26.09.36.26.8,1.32,2.1-.64,2.17-1.6a.2.2,0,0,1,.19-.19c1.13-.12,1.59-1.66,1.62-2.61a4.63,4.63,0,0,0-.05-.83c-1.38,2.38-3.58,4.16-6.22,4a8,8,0,0,1-4.68-1.93,6.66,6.66,0,0,1-1.58-2.24,7,7,0,0,1-.38-1.26A4.86,4.86,0,0,0,63.34,28.7Z"/><path class="cls-5" d="M61.53,44.74a15.34,15.34,0,0,0,7.56,1.42,15,15,0,0,0,4.17-.37l.31-.1.16-1.14.19-.55a16.81,16.81,0,0,1-5.38.51A21.23,21.23,0,0,1,65,44.17,27.6,27.6,0,0,1,62,43v.11Z"/></g></g></svg>