<svg id="Layer_22" data-name="Layer 22" xmlns="http://www.w3.org/2000/svg" viewBox="0 0 128 128"><defs><style>.cls-1{fill:#02a8e2;}.cls-2{fill:#ffbd91;}.cls-3{fill:#eb9a84;}.cls-4{fill:#3f535c;}.cls-5{fill:#556b69;}.cls-6{opacity:0.5;}.cls-7{fill:#2b3d51;}.cls-8{fill:#424d2c;}.cls-9{fill:#732200;}.cls-10{fill:#fff;}.cls-11{fill:#b3b548;}.cls-12{fill:#90913a;}.cls-13{fill:#277359;}.cls-14{fill:#ff9e00;}.cls-15{fill:#c47a2f;}.cls-16{fill:#992d00;}.cls-17{fill:#de4736;}.cls-18{fill:#9bafae;}.cls-19{opacity:0.4;}.cls-20{fill:#bf3d2f;}.cls-21{fill:#9e9c9c;}</style></defs><g id="Layer_2" data-name="Layer 2"><g id="Layer_1-2" data-name="Layer 1-2"><path class="cls-1" d="M12.18,20.39V18.1a.48.48,0,0,1,.05-.26,12.6,12.6,0,0,1,3.46-7.67,20.86,20.86,0,0,1,6.94-4.72A41.85,41.85,0,0,1,30.1,3c1.48-.38,3-.75,4.46-1A58,58,0,0,1,42,1.48a2.35,2.35,0,0,0,.59-.05h6.79a1.17,1.17,0,0,0,.26,0c1.09,0,2.17.07,3.27.11,1.8.07,3.61.19,5.41.35,2.26.19,4.51.43,6.74.81A51.69,51.69,0,0,1,75.75,5.33c1.32.53,2.73.82,4.08,1.26a131.35,131.35,0,0,1,17.56,6.35A62.15,62.15,0,0,1,107,18.29a1.44,1.44,0,0,1,.27.22,3.54,3.54,0,0,0,1.19,1c1,.6,2,1.17,3,1.78a23.38,23.38,0,0,1,5.51,4.54,13.43,13.43,0,0,1,3.07,6.21c.09.51.15,1,.23,1.53v2.23c0,.33-.09.66-.13,1a23.73,23.73,0,0,1-2.21,7,50,50,0,0,1-6.26,9.63c-.55.69-1.16,1.33-1.63,2s-.94,1.35-1.44,2A174.05,174.05,0,0,1,96.73,70.9c-1.77,1.81-3.56,3.6-5.4,5.35s-3.77,3.52-5.8,5.29a124.7,124.7,0,0,1-10.11,7.94A76.43,76.43,0,0,1,64.4,96a5.73,5.73,0,0,0-.73.41c-.94.62-1.89,1.22-2.87,1.77a27.51,27.51,0,0,1-9.54,3.39c-.54.07-1.08.12-1.63.18H47.18l-.24,0a18.44,18.44,0,0,1-6.78-1.83,25.07,25.07,0,0,1-8.1-6.54,45.17,45.17,0,0,1-5.65-8.63,84.68,84.68,0,0,1-5-12.12,38.9,38.9,0,0,0-1.28-3.72,91.4,91.4,0,0,1-4.84-14.59,102.34,102.34,0,0,1-2.52-14.95c-.24-2.58-.37-5.17-.4-7.75q0-3.27.19-6.49a6.64,6.64,0,0,0,0-1.94c-.05-.22-.08-.45-.11-.67C12.35,21.79,12.27,21.09,12.18,20.39Z"/><path class="cls-2" d="M88.51,71.93s-.31,8.06-.18,9.5a42.77,42.77,0,0,0,1.89,6.46c.63,1.87,1.63,9.92,1.21,12.47s3.31,2.91,3.31,2.91a58.16,58.16,0,0,1,1-8.5c.68-2.44.78-8.09-.11-9.27s-.74-3-.52-4.28.36-2.18.36-2.18,1.57,3.15,3,4,6,4.15,8.46,6,5.7,4.44,5.78,4.39S115,90.67,115,90.67s-4.65-3.94-5.33-5.25-2.89-4.67-4.28-5.33-3.67-1.47-3.93-2.25.55-7.54.55-7.54S88.83,70.83,88.51,71.93Z"/><path class="cls-3" d="M93.66,70.74c-3.43.27-5,.62-5.15,1.19,0,0-.14,3.7-.19,6.53,2.74-.22,5,1.65,6.64,4a8.71,8.71,0,0,1,.15-1.25c.16-1,.3-1.82.34-2.08C94.69,76.23,93.49,73.81,93.66,70.74Z"/><path class="cls-4" d="M95.76,79.7A5.67,5.67,0,0,0,96.89,83c1.18,1.49,4.54,2.14,4,1.3s-1-1.86-1-1.86,2.45-3,3.69-3.21l-.9-.44A31.25,31.25,0,0,0,99,80.72l-.24-.23s1.8-3.15,2.63-3.52l0-.87A9.73,9.73,0,0,0,98,79.84S95.84,79,95.76,79.7Z"/><path class="cls-4" d="M94.91,83.06S88.7,80.33,88,80.41s-.7,3.59.28,5.38,1.86,1.91,1.86,1.91.27-.83.59-.91,4.44-2.08,4.44-2.08v-.52L91.1,85.61s.12-2.57-.61-3.55l4.45,1.65Z"/><path class="cls-5" d="M104.58,70.25c-3,2-10.9,2-10.9,2v.55l-6.23-.24s.49-5.3.65-6.43-1.16-4.83-1.16-4.83l7.93-7.08a11.77,11.77,0,0,1,2.75,1.12c4.9,2.75,5.68,8.06,5.83,9.77A35.3,35.3,0,0,0,104.58,70.25Z"/><path class="cls-4" d="M93.94,109.72a1.49,1.49,0,1,0,1.49,1.49,1.49,1.49,0,0,0-1.49-1.49Z"/><path class="cls-4" d="M84.18,109.72a1.49,1.49,0,1,0,1.49,1.49h0A1.49,1.49,0,0,0,84.18,109.72Z"/><path class="cls-4" d="M87.3,109.72a1.49,1.49,0,1,0,1.49,1.49h0a1.48,1.48,0,0,0-1.47-1.49Z"/><path class="cls-4" d="M90.7,109.72a1.49,1.49,0,1,0,1.48,1.5h0a1.48,1.48,0,0,0-1.47-1.49Z"/><path class="cls-5" d="M90.49,100.66s5.51.67,5.29.62-.59,3.74-.55,5.12S96,110,94.53,110s-11.68.33-11.68.33-1.82-1.09.84-2,6.12-2.6,6.48-3.8A16.82,16.82,0,0,0,90.49,100.66Z"/><path class="cls-4" d="M115.8,101.93a1.49,1.49,0,1,0,2,.66,1.48,1.48,0,0,0-2-.67Z"/><path class="cls-4" d="M117.37,99.28a1.5,1.5,0,1,0,2,.67h0A1.51,1.51,0,0,0,117.37,99.28Z"/><path class="cls-4" d="M121.09,94.8A1.49,1.49,0,0,0,118.37,96l.06.1a1.22,1.22,0,0,0,.26.38h-.06a1.49,1.49,0,1,0,2,.67,1.78,1.78,0,0,0-.28-.38h.07a1.49,1.49,0,0,0,.67-2Z"/><path class="cls-5" d="M112,93.37s.71,0,1.47-1.57a3.65,3.65,0,0,0,.34-2.69,17.64,17.64,0,0,0,2.92,2.16c1.57.85,3.38,1.47,2.92,2.93a32.94,32.94,0,0,0-1.45,4.65c-.27,1.73.15,2.3-1.67,3.54s-2.8,1.49-3.33,1.14-1.68-1.18-.39-3.77,1.26-3.93.58-4.72S112,93.37,112,93.37Z"/><g class="cls-6"><path class="cls-7" d="M92.5,67.13l1.18,5.62-6.23-.24s.49-5.3.65-6.43-1.16-4.83-1.16-4.83l7.93-7.08a11.77,11.77,0,0,1,2.75,1.12C89.21,57,92.5,67.13,92.5,67.13Z"/></g><path class="cls-2" d="M68.07,101.72a23.89,23.89,0,0,1,2.52,4.46c.48,1.58,3.1,1.58,3.14.3s-.08-5.33-1.78-6.65S67.83,101,68.07,101.72Z"/><path class="cls-2" d="M63.55,100.88a7.9,7.9,0,0,1-.39,2.55c-.42,1.18-1.24,3.44-1.24,3.44l-2.59-.39a46.44,46.44,0,0,1,.5-6.23C60.22,98.73,63.55,100.88,63.55,100.88Z"/><path class="cls-4" d="M62.66,111.72a1,1,0,0,1-1.08.86,1,1,0,0,1,.11-2A1.06,1.06,0,0,1,62.66,111.72Z"/><path class="cls-4" d="M69.85,112.62a1,1,0,0,1-1.94-.22,1,1,0,0,1,1-.87A1.05,1.05,0,0,1,69.85,112.62Z"/><path class="cls-4" d="M71.87,112.62a1,1,0,1,1-1-1.09A1,1,0,0,1,71.87,112.62Z"/><ellipse class="cls-4" cx="72.84" cy="111.8" rx="0.97" ry="1.09"/><path class="cls-4" d="M75.24,110.26a1,1,0,0,1-1.92-.25,1,1,0,0,1,1-.85,1,1,0,0,1,1,1.09Z"/><path class="cls-4" d="M60.91,111.56a1,1,0,0,1-1.94-.23,1,1,0,0,1,1-.86,1,1,0,0,1,1,1.09Z"/><path class="cls-5" d="M59.09,88.07l-.86,12.08a12,12,0,0,0,6.65,1.45l.49-2.7,1,3s5.46,1.39,6.8-2.6c0,0-1.7-8.07-2.82-10s-5.66-1.71-5.66-1.71Z"/><g class="cls-6"><path class="cls-7" d="M61,90.67c2.84-1,5.75-.87,8.74-1.58l.5-.07c-1.33-1.73-5.51-1.47-5.51-1.47l-5.62.52-.3,4.32A4.7,4.7,0,0,1,61,90.67Z"/></g><path class="cls-5" d="M69.78,105.24S72.14,103.37,74,104a9.3,9.3,0,0,0,.32,3.15c.42.79,1.36,1.21.15,2.36s-1.52,2.57-3.33,2.89-4.72-.79-3.57-1.81c.53-.5,2.51-2,2.8-2.62S69.78,105.24,69.78,105.24Z"/><path class="cls-5" d="M58.8,104.54s3.23-.07,4,.93a6.26,6.26,0,0,0-.33,2.68c.18,1.31.26,2.78-.29,2.73s-6.23-.5-6.67-.52-.89-.79.43-1.71,2.88-1.05,3-1.34A18.4,18.4,0,0,0,58.8,104.54Z"/><path class="cls-4" d="M25.18,110.52A1.58,1.58,0,1,1,23.6,109,1.58,1.58,0,0,1,25.18,110.52Z"/><path class="cls-4" d="M14.67,110.52A1.58,1.58,0,1,1,13.09,109,1.58,1.58,0,0,1,14.67,110.52Z"/><path class="cls-4" d="M18,110.52A1.57,1.57,0,1,1,16.46,109,1.57,1.57,0,0,1,18,110.52Z"/><path class="cls-4" d="M21.68,110.52A1.57,1.57,0,1,1,20.11,109,1.57,1.57,0,0,1,21.68,110.52Z"/><path class="cls-4" d="M50.16,110a1.5,1.5,0,1,1-1.49-1.49h0A1.49,1.49,0,0,1,50.16,110Z"/><path class="cls-4" d="M52.75,108.36a1.5,1.5,0,1,1-1.49-1.49h0A1.49,1.49,0,0,1,52.75,108.36Z"/><path class="cls-4" d="M55.1,106.48a1.48,1.48,0,0,1-1.48,1.5,1.5,1.5,0,1,1,0-3h0A1.49,1.49,0,0,1,55.1,106.48Z"/><path class="cls-4" d="M56.6,104.54a1.5,1.5,0,1,1-1.5-1.5,1.5,1.5,0,0,1,1.5,1.5Z"/><path class="cls-2" d="M27,83.59c-.12.08-2.32,1.86-1.85,3.07s1.51,4.84.9,7.44a67,67,0,0,0-1,8l-4.62.75s-.39-6.34-.78-8.35a43.72,43.72,0,0,1-1-8.78c.2-2.08,2.36-5,2.36-5Z"/><path class="cls-5" d="M19.87,99.17s5.92.73,5.68.67-.63,4-.59,5.51.82,3.86-.75,3.86-12.59.35-12.59.35-2-1.18.91-2.21,6.57-2.79,7-4.09A19.28,19.28,0,0,0,19.87,99.17Z"/><path class="cls-8" d="M37.52,88.27a32.66,32.66,0,0,0,4.64,0c1.85-.2,6-3.23,6-3.23s-6.74-.35-8.31.51A5.81,5.81,0,0,0,37.52,88.27Z"/><path class="cls-2" d="M46.54,84.81a9.84,9.84,0,0,1,4.09,4.36c1,2.72,2.28,8.35,2.67,9.18s-1.57,2.21-1.57,2.21l-1.75.78s-1.79-5.31-4-7.2a27.71,27.71,0,0,1-4.34-4.65c-.59-.79-1-4.45-1-4.45Z"/><path class="cls-4" d="M40.63,83.94c-1,.22-2,2.6,0,5.63s3.3,2.72,4.65,1.77.47-3,.47-3l2-2.76L47.52,85l-2.53.9S44.21,83.12,40.63,83.94Z"/><path class="cls-5" d="M49.12,99.17s.64.32,2-.78a3.79,3.79,0,0,0,1.52-2.25,16.59,16.59,0,0,0,1.63,3.23c1,1.46,2.36,2.84,1.3,3.93a32,32,0,0,0-3.39,3.5c-1,1.42-.9,2.14-3.08,2.41s-3.15.08-3.49-.47-1-1.82,1.34-3.55,2.91-3,2.63-3.93S49.12,99.17,49.12,99.17Z"/><path class="cls-2" d="M61.17,58.55l-3.33,1.81-.38,3.38a8.53,8.53,0,0,0,2.18,3.84c1.54,1.27,3.83,2.75,6.25.42s3.52-4.34,3.52-4.93a16,16,0,0,0-1.7-3.58C67.6,59.41,61.17,58.55,61.17,58.55Z"/><path class="cls-3" d="M68.72,61.32a14.86,14.86,0,0,0-1-1.83c-.11-.08-6.54-.94-6.54-.94l-3.33,1.81-.22,1.91a15.57,15.57,0,0,1,4.25-1.44A14.72,14.72,0,0,1,68.72,61.32Z"/><path class="cls-2" d="M53.87,88.85s-.32,2.09.9,3.15,1.88-.86,1.94-1.38-1-2-1-2S54.06,87.84,53.87,88.85Z"/><path class="cls-2" d="M57,82a2.68,2.68,0,0,1-.42,1.53A6.8,6.8,0,0,0,55,87.1c.06,1.34,1.24,2.18,1.76,1.52l3.21-4L59.3,82S57.07,81.26,57,82Z"/><path class="cls-4" d="M55.35,85.52s1.77.1,1.93,2.41a16.17,16.17,0,0,0-.15,2c0,.35-.42.72-.42.72s0-.45-.9-1.16-1.49-.85-1.94-.61a4.24,4.24,0,0,1,.29-1.9s1.1-.84.47-1.26Z"/><path class="cls-2" d="M54.63,85.69a1.62,1.62,0,0,1-.79-.27c-.28-.24-.91-.6-.72.27s.47,1.18,1,1.26S55.58,86.07,54.63,85.69Z"/><path class="cls-9" d="M85.39,33.06s5.79,4.27,4.52,7.08-8.17,12.54-8.17,12.54-5.92.29-5.86-3.47S79,39.77,78.9,39,84.29,30.72,85.39,33.06Z"/><path class="cls-2" d="M60.22,56l-2,2S54.34,55.05,53,53.69s-4.89-4.94-6.46-6.57-18.74,4.47-18.74,4.47-.9,3.46-1.37,5.31a11.86,11.86,0,0,1-3.72,5.37c-1.68,1.41-3.93,6-3.93,6s.26.06.47.63a8.43,8.43,0,0,1-.57,3.42c-.32.78.26,2-.43,1.94s-1.31-1.06-1.15-2.52-1.26,2.68-1.26,2.68a2.64,2.64,0,0,1,.78,1.62c.26,1.26-1.89,0-2.52-.58s-.42-.94-.32-2.83a13.45,13.45,0,0,1,2.1-6.19,21.16,21.16,0,0,0,3.36-6c.9-2.51,2.94-4.88,3.36-6.14s.79-8.4.84-11.75,2.42-4.47,3.42-5.26a29.59,29.59,0,0,0,2.77-2.83l.19-.23-.47-2.05-.5-.74-1.17-1.84a5.48,5.48,0,0,1-2.93-2.51c-.9-1.84,1.26-1.79,1.26-1.79-.58-1.42,1-5,1.52-5.83s8.24-.63,9,0,.79,6,.73,6.77A35.45,35.45,0,0,1,36,30.4a5.15,5.15,0,0,0-.26,1.08c0,.34.42.63.9.85a7.57,7.57,0,0,0,1.31.47c.41.1,2.57.36,3.25.52s9.77,9.34,9.77,9.34a47.61,47.61,0,0,0,2.47,4.26c.89,1.19,2.78,2.52,4,4.33S60.22,56,60.22,56Z"/><path class="cls-3" d="M23,50.87a6.76,6.76,0,0,1,2.65,2A8.12,8.12,0,0,1,27,54.53l.79-2.91s.91-.33,2.36-.78a19,19,0,0,0-6.84-4.16C23.22,48.11,23.13,49.58,23,50.87Z"/><path class="cls-3" d="M51.93,44.5c-.56-1-1-1.84-1-1.84l-.58-.58a28.62,28.62,0,0,0-2,7l2.32,2.36A8,8,0,0,1,51.93,44.5Z"/><path class="cls-4" d="M27.5,27.13s0-5.51.78-5.91,7.27-1,7.62.65.61,5.26.61,5.26l.42,1.08a12.8,12.8,0,0,0,.91-3.55c0-1.27.09-4.24.17-5.17S35.7,14,32,13.8,24.71,17,24.79,19.24s.55,6.18.55,6.18a2.32,2.32,0,0,1,1.18,1.09l.32.79Z"/><path class="cls-10" d="M30.5,17.36c-.09.49-.34.85-.57.78s-.33-.47-.24-1,.33-.86.56-.78S30.58,16.87,30.5,17.36Z"/><path class="cls-10" d="M35.36,17.62c.14.48.12.92-.07,1s-.44-.29-.58-.79-.11-.91.07-1S35.22,17.14,35.36,17.62Z"/><path class="cls-11" d="M29.77,62.76s.15,1.92-.4,2.32a67.61,67.61,0,0,0-6.85,9.44c-1.46,2.75-2.79,6.8-2.64,7s8.43,4.14,8.43,4.14,3.93-7.92,8.11-9.57c0,0,.79,9.84,1.1,12.2a11.76,11.76,0,0,1,5.31-1.89,16.57,16.57,0,0,0,5.32-1.28s1-18.88-.47-21.3S29.77,62.76,29.77,62.76Z"/><g class="cls-6"><path class="cls-12" d="M29.77,62.76s.15,1.92-.4,2.32a35.72,35.72,0,0,0-2.64,3.23c3.21-1.12,7-1,10.4-.87a16.08,16.08,0,0,0,10.53-3.72C46.14,61.35,29.77,62.76,29.77,62.76Z"/></g><path class="cls-13" d="M29.77,34.27a21.2,21.2,0,0,0,.7,4.86c.55,1.26,3,1.35,4.72-1.38a34.49,34.49,0,0,0,2.72-5,11.66,11.66,0,0,1,4.13.27,30.17,30.17,0,0,1,6.61,5.35C51,40.86,52.11,42,52.11,42S49.68,48.26,47,49.61l-1.57-1.8s.19,7.08,1.14,10.74a35.22,35.22,0,0,1,1.1,5.19A9.43,9.43,0,0,1,39,66.62a20.58,20.58,0,0,1-9.21-3.86s-1.62-9.44-2.36-11.14c0,0-3.93-1.38-4.88-2.52,0,0-.07-8.74,1.26-10S29.77,34.27,29.77,34.27Z"/><path class="cls-2" d="M61.69,69.12a8.49,8.49,0,0,1,0,2.31c-.21.16-1.76,1.24-1.34,2.55s5.2,2.31,5.83,1.18,0-3.55,0-3.55-1.1-1.67-1-2.49S61.69,69.12,61.69,69.12Z"/><path class="cls-3" d="M65.39,70.09a2,2,0,0,1-.18-1c.13-.79-3.52,0-3.52,0a8.49,8.49,0,0,1,0,2.31l-.15.12A6.7,6.7,0,0,0,65.39,70.09Z"/><path class="cls-14" d="M74.79,79l-3,4.35-.66.93-2.49,3.93s-.53.13-1.33.28a22.2,22.2,0,0,1-4.52.44,10.62,10.62,0,0,1-3.94-.72l-.19-7.87L57,80s.29-6.45,1.34-7.44a9.18,9.18,0,0,1,3.44-1.52v.26s-1,2.54.63,2.73,3.49-3,3.49-3a11.87,11.87,0,0,1,3.39.62c1.29.55,3.23,2.81,4.31,4.49A8,8,0,0,1,74.79,79Z"/><polygon class="cls-4" points="56.99 80.03 56.99 81.98 58.68 82.22 58.64 80.36 56.99 80.03"/><path class="cls-15" d="M71.77,83.37l-.66.93-2.49,3.93s-.53.13-1.33.28a.87.87,0,0,1,0-.48c.82-2.16.82-10.81.82-10.81L71,80.81Z"/><path class="cls-2" d="M71,81.2s-1.16,3.41-2,4.3.4,2.31,1.36,1.65,3.79-3.22,4-4.72S72.1,80.43,71,81.2Z"/><path class="cls-2" d="M67.67,85.87a4.21,4.21,0,0,0-1-.18,4.85,4.85,0,0,1-1.42-.17c-.13-.1-.55.92.37,1.14a3.46,3.46,0,0,1,1.08.37s1.12.28,1.18.18S68.6,85.87,67.67,85.87Z"/><path class="cls-2" d="M65.8,88.43s-1.57,1.09-.67,2.24,2.81.73,3.61.11S66.59,88.17,65.8,88.43Z"/><path class="cls-4" d="M57.15,111.22a1,1,0,1,1-1-1.08A1,1,0,0,1,57.15,111.22Z"/><path class="cls-4" d="M59,111.43a1,1,0,1,1-1-1.09,1,1,0,0,1,1,1.09Z"/><path class="cls-2" d="M73.8,31.25a8.74,8.74,0,0,0,0,5.46c1,2.41,2.51,3.81,3.67,3.75S82.32,38,83,36.89s.63-5.8.65-5.88-4.27-3.36-4.27-3.36l-2.54-.37S74.24,30,73.8,31.25Z"/><path class="cls-16" d="M77.52,28.62s-1.5,1.71-2.6,3.08A14.88,14.88,0,0,0,73.35,34S70.46,32.45,72,30.83a24.17,24.17,0,0,0,3-3.86c.34-.6,6.09-1.42,7.29-.68s2.84,4.72,2.36,5.86a2.59,2.59,0,0,1-1.28,1.42S78.18,29.57,77.52,28.62Z"/><path class="cls-2" d="M83.62,32.56s1.17-1.23,1.35-.13-.62,3-1.57,3S83.62,32.56,83.62,32.56Z"/><path class="cls-2" d="M78.9,40a17.21,17.21,0,0,0,1.24,1.9A3.38,3.38,0,0,1,80.77,44c.08.78,2.24,1.57,2.36,1.47s1.7-4.23,1.7-4.23a9.53,9.53,0,0,1-1.67-1.15,12.12,12.12,0,0,1-1-2.3Z"/><path class="cls-3" d="M82.17,37.77,78.9,40a17.21,17.21,0,0,0,1.24,1.9,2.2,2.2,0,0,1,.41.71,14.25,14.25,0,0,1,2.14-3.44C82.42,38.47,82.17,37.77,82.17,37.77Z"/><path class="cls-2" d="M92.32,45.13a41.14,41.14,0,0,0,4.44.79,15.43,15.43,0,0,1,5.83,1.24,33.51,33.51,0,0,0,4.17,2c.08-.1,1.1-1.57,1.1-1.57a22.93,22.93,0,0,0-4.67-3.33,36.9,36.9,0,0,0-6.59-1.94A31.25,31.25,0,0,1,93,40.7S91.56,44.37,92.32,45.13Z"/><path class="cls-4" d="M95.58,46l.55-3.26L95.58,42s.36-.55,2.41-.27a4.18,4.18,0,0,1,2.92,1.76l-.93.06-.49,2.83-1.06-.13.67-2.65L96.81,43l-.33,3.09Z"/><path class="cls-2" d="M111.12,51.85s1.94.61,2.73.79,1.23-.08.68-.55a11.49,11.49,0,0,0-2.29-1.1s2.36.92,2.81.57.74-1.36-.13-1.67-1.62-.66-1.62-.66,2.19.62,2.18.34A7.82,7.82,0,0,0,112.19,48C111.54,48.09,110.51,51.25,111.12,51.85Z"/><path class="cls-2" d="M106.93,52a4.14,4.14,0,0,1,.51,1.52c0,.69.68,1.08,1,.18s-.61-2.2-.61-2.2Z"/><path class="cls-4" d="M82.93,57.05s-.56-.46-.58,0A9.06,9.06,0,0,1,82,59.18c-.21.55-.29,1.12-.21,1.12l3.7.29Z"/><path class="cls-3" d="M81.77,60.3s-2.47,5.59-2.84,6.17-1.22-.32-2,0a6.11,6.11,0,0,1-2.36.64c-.48-.11-1.16.78.2,1s2,.14,2.13.34-1.45,2.21-2,3.34-1.53,3.1-.37,2.28a10.6,10.6,0,0,0,1.71-1.83c-.14.36-1.32,2.51-.71,2.91s1.57-.24,2-1a5.58,5.58,0,0,0,.57-1S77,75.34,77.54,75.4s1.53-2.45,1.84-3A19.68,19.68,0,0,0,81,68.12a2.05,2.05,0,0,1,.79-1.82A36.62,36.62,0,0,0,86,60.59C86.22,59.91,82.61,59.28,81.77,60.3Z"/><path class="cls-17" d="M96.48,52.58a17,17,0,0,1-3.7,5l-.06.05a23.61,23.61,0,0,1-5,3.5c-1.19.63-2,1-2,1l-4.47-7.87L79.77,54a8,8,0,0,1,.17-1.12c.16-.89-.9-3.47-1.44-5.31s2.25-4.17,2.25-4.17.55.67,1.53,0,1.06-3.22,1.06-3.22a3.7,3.7,0,0,0,1.24-.41,8.05,8.05,0,0,1,2.36-1.14,2.37,2.37,0,0,1,1.24,0c1.32.39,5.72,1.84,5.72,1.84-1.62.84-1,5.3-1,5.3l-1-.3h0A14.21,14.21,0,0,0,93.53,49C94.56,50.4,96.48,52.58,96.48,52.58Z"/><path class="cls-4" d="M106.58,46.39a3.74,3.74,0,0,0-1.44,2.1s.63.3.73.78.08,1.78.5,2.23a6,6,0,0,1,.6.73l1.16-.44s-.14-.69.45-.47,2.83.78,2.83.78,2.12-3.28,1.34-4.12a12.17,12.17,0,0,0-2.78-.63,7.6,7.6,0,0,1-2.26-.13Z"/><path class="cls-4" d="M78.85,66.08s2,.06,2.42,1.17a8,8,0,0,0-.13,1.08,16.9,16.9,0,0,1-1.57,3.87s-2.78-1.92-4-1.9l1.37-1.89s1.75-1.28,1.49-1.75C78.39,66.66,78.93,66.41,78.85,66.08Z"/><path class="cls-4" d="M81.54,30.17s.49,6.83.12,7.19a28.07,28.07,0,0,1-2.94,2.27,13.08,13.08,0,0,0-1.39-.11,3.08,3.08,0,0,0-1.33.37,2.19,2.19,0,0,0,1.67.86c1,0,5.42-2.44,5.68-3.62s.52-5.7.52-5.7Z"/><path class="cls-18" d="M87,31.8l-.91-.34L85.39,33A24.29,24.29,0,0,0,79,29.1l-.71-.24a6.83,6.83,0,0,0-2.06-.23,6.42,6.42,0,0,0-3.35,1.15c.47-3.48,2.1-5.19,4.39-5.77a9.14,9.14,0,0,1,2.5-.23,17,17,0,0,1,2.85.4C87.55,25.29,87,31.8,87,31.8Z"/><path class="cls-4" d="M76.43,28.67a6.86,6.86,0,0,1,2.57.48,24.29,24.29,0,0,1,6.39,3.93l.74-1.57.48.17A12.38,12.38,0,0,0,76.43,28.67Z"/><path class="cls-4" d="M71,80.8l2.2-1.52s.08-2.59,1.1-2.65,1.81,2.23,1.63,3.86S75.34,83,74.63,83s-1-.92-1-.92L71,81.2Z"/><path class="cls-4" d="M69.09,85.08a4.29,4.29,0,0,1,1.92.73,1.63,1.63,0,0,1,.55,1.29l-.92,1.75a6.58,6.58,0,0,1-1.86,1.93c-.48.18-3.39-2-2.89-2.51A5.22,5.22,0,0,0,66.68,87s1.47-.67,1-1.16C67.67,85.87,69,85.42,69.09,85.08Z"/><path class="cls-4" d="M26.59,84.81a3.74,3.74,0,0,0-1,1.33,6.87,6.87,0,0,0-.11,1.36l-4.85-1.58s-1.17,2.76-1.93,2.92-2.09-1.58-1-5.16,3.59-4.72,4-3.43A4.13,4.13,0,0,1,21.94,82Z"/><g class="cls-19"><path class="cls-10" d="M79.79,23.78a8.55,8.55,0,0,0-1.5,5.13,6.83,6.83,0,0,0-2.06-.23A8.36,8.36,0,0,1,77.29,24,9.14,9.14,0,0,1,79.79,23.78Z"/></g><path class="cls-4" d="M69.87,60.48A20,20,0,0,0,69.93,57c-.1-2.36-2.61-3.77-5.5-4a11.46,11.46,0,0,0-2.62.11,9.68,9.68,0,0,0-2,.51c-3.15,1.16-3.15,4.77-3,6.51a3.37,3.37,0,0,0-.39,1.39c-.16,2.49,1.06,5.36,1.43,5.57.15.08.24-.14.3-.51C59.29,68.09,62.14,70,63.39,70c1.49,0,2.93-1.29,4-2.68a7.85,7.85,0,0,0,.68-1.11,1.42,1.42,0,0,0,.13.53A4.8,4.8,0,0,0,70,63.9,12.64,12.64,0,0,0,69.87,60.48ZM65,68.35a3.15,3.15,0,0,0-1.81-.47,1.51,1.51,0,0,0-1.42.68A13.28,13.28,0,0,1,58.3,65a6.18,6.18,0,0,1,.06-1.12c.1-1-.37-2.79,1.13-3.28a12.39,12.39,0,0,1,6.59-.11c2,.68,1.83,1.18,1.78,2.53A17.17,17.17,0,0,0,68,65.3c-.57,1.22-3,3.09-3,3.09Z"/><path class="cls-17" d="M84.25,41.81c.83-1,1.88-2.19,2.52-3A20.47,20.47,0,0,0,84.25,41.81Z"/><path class="cls-20" d="M83.05,43.61a9.1,9.1,0,0,1,1.2-1.8,20.47,20.47,0,0,1,2.52-3,1.46,1.46,0,0,0,.16-.21,8.05,8.05,0,0,0-2.36,1.14,3.56,3.56,0,0,1-1.24.41s-.09,2.54-1.06,3.22-1.52,0-1.52,0-2.76,2.3-2.22,4.14c.39,1.34,1,3.06,1.32,4.25a38.4,38.4,0,0,1,3.06-7.73Z"/><path class="cls-3" d="M36.61,32.37c-.7,1.64-1.91,4-3.15,3.94a8.75,8.75,0,0,1-3.85-1.81l.19-.23-.47-2.05-.5-.74c.69.49,2.47,1.66,3.55,1.57,1.35-.1,2.48-.45,3.14-2.78l.4.12a5.09,5.09,0,0,0-.26,1.09C35.7,31.82,36.13,32.11,36.61,32.37Z"/><path class="cls-4" d="M27.5,27.13a31.22,31.22,0,0,0,1.65,3.69c.63,1,1.16,1.4,1.87,1.44a1.85,1.85,0,0,1,1.62-.86,2.73,2.73,0,0,1,1.84.61,34.81,34.81,0,0,0,2-4.88c.12-1,.55.57.42,1.08s-1.27,3.05-1.57,3.94a2.1,2.1,0,0,1-2.09,1.57,4,4,0,0,1-3-.47,9.77,9.77,0,0,1-2.6-3.57c-.59-1.65-.79-2.36-.79-2.36S27.43,27,27.5,27.13Z"/></g></g><path class="cls-21" d="M5.47,124.45H3.79v3.12H1.65v-9.74H6.1a3.91,3.91,0,0,1,2.69.85,3,3,0,0,1,1,2.36h0a3.16,3.16,0,0,1-.56,1.9,3.34,3.34,0,0,1-1.5,1.15l2.36,3.48H7.56Zm1.69-4.33a1.9,1.9,0,0,0-1.24-.36H3.79v2.79H6a1.71,1.71,0,0,0,1.19-.37,1.22,1.22,0,0,0,.44-1h0a1.22,1.22,0,0,0-.44-1.06Z"/><path class="cls-21" d="M21,125.23a5,5,0,0,1-1.85,1.83,5.6,5.6,0,0,1-5.31,0,4.9,4.9,0,0,1-1.85-1.82,5.09,5.09,0,0,1-.67-2.53h0a5,5,0,0,1,.67-2.53,5.1,5.1,0,0,1,1.86-1.83,5.28,5.28,0,0,1,2.7-.67,5.29,5.29,0,0,1,2.64.67A4.9,4.9,0,0,1,21,120.17a5,5,0,0,1,.67,2.52h0A4.85,4.85,0,0,1,21,125.23Zm-1.94-4A3,3,0,0,0,18,120.07a3,3,0,0,0-3,0,2.89,2.89,0,0,0-1,1.1,3.15,3.15,0,0,0-.37,1.53h0a3.31,3.31,0,0,0,.38,1.54,2.87,2.87,0,0,0,1,1.11,2.8,2.8,0,0,0,1.52.41,2.87,2.87,0,0,0,1.51-.4,3,3,0,0,0,1-1.1,3.15,3.15,0,0,0,.37-1.53h0a3.17,3.17,0,0,0-.38-1.57Z"/><path class="cls-21" d="M23.53,117.83h2.15v7.79h4.86v1.95h-7Z"/><path class="cls-21" d="M32.15,117.83h2.14v7.79h4.86v1.95h-7Z"/><path class="cls-21" d="M40.76,117.83h7.35v1.9H42.89v2h4.59v1.91H42.89v2h5.29v1.94H40.77Z"/><path class="cls-21" d="M53.91,124.45H52.23v3.12H50.08v-9.74h4.46a3.91,3.91,0,0,1,2.69.85,3,3,0,0,1,1,2.36h0a3.1,3.1,0,0,1-.56,1.9,3.24,3.24,0,0,1-1.53,1.12l2.38,3.51H56Zm1.68-4.33a1.89,1.89,0,0,0-1.24-.36H52.23v2.79h2.16a1.75,1.75,0,0,0,1.21-.37,1.28,1.28,0,0,0,.44-1h0a1.23,1.23,0,0,0-.45-1.06Z"/><path class="cls-21" d="M70.38,126.9a4.06,4.06,0,0,1-2.6.8,6.29,6.29,0,0,1-2.19-.4,6.07,6.07,0,0,1-1.94-1.16l1.3-1.51a5.47,5.47,0,0,0,1.4.87,3.66,3.66,0,0,0,1.5.31,1.85,1.85,0,0,0,1-.26.78.78,0,0,0,.38-.67h0a.72.72,0,0,0-.16-.49,1.38,1.38,0,0,0-.57-.37,10.3,10.3,0,0,0-1.23-.38,11.4,11.4,0,0,1-1.79-.6,2.59,2.59,0,0,1-1.06-.88,2.55,2.55,0,0,1-.38-1.5h0a2.67,2.67,0,0,1,.43-1.53,3,3,0,0,1,1.22-1,4,4,0,0,1,1.76-.38A5.68,5.68,0,0,1,71.07,119L70,120.58a4.54,4.54,0,0,0-2.54-1,1.59,1.59,0,0,0-.93.23.75.75,0,0,0-.32.62h0a.76.76,0,0,0,.17.52,1.59,1.59,0,0,0,.61.37,12.73,12.73,0,0,0,1.34.38,6.09,6.09,0,0,1,2.34,1.07,2.33,2.33,0,0,1,.75,1.86h0A2.7,2.7,0,0,1,70.38,126.9Z"/><path class="cls-21" d="M76.49,123.41l-1.13,1.18v3H73.22v-9.74h2.14v4.25l4-4.25h2.59l-4,4.12,4.14,5.61H79.51Z"/><path class="cls-21" d="M89.46,125.38H85.34l-.87,2.19H82.29l4.17-9.81h2l4.15,9.81H90.35Zm-3.36-1.89h2.58l-1.29-3.16Z"/><path class="cls-21" d="M97.27,127.57H95.12V119.8h-3v-2h8.08v2h-3Z"/><path class="cls-21" d="M102,117.83h2.14v9.74H102Z"/><path class="cls-21" d="M108.65,121.37v6.2h-2.12v-9.74h2l4.56,6v-6h2.12v9.74h-1.82Z"/><path class="cls-21" d="M122.22,127.73a5.44,5.44,0,0,1-2.7-.67,4.74,4.74,0,0,1-1.82-1.79,5.28,5.28,0,0,1-.67-2.58h0a5.12,5.12,0,0,1,.67-2.53,5,5,0,0,1,1.84-1.83,5.09,5.09,0,0,1,2.62-.67,6,6,0,0,1,2.14.33,5.63,5.63,0,0,1,1.68,1l-1.35,1.63a4.55,4.55,0,0,0-1.18-.75,3.47,3.47,0,0,0-1.35-.24,2.6,2.6,0,0,0-1.4.41,3,3,0,0,0-1,1.11,3.11,3.11,0,0,0-.37,1.52h0a3.38,3.38,0,0,0,.37,1.59,2.74,2.74,0,0,0,1.06,1.1,2.88,2.88,0,0,0,1.52.4,3.39,3.39,0,0,0,2-.59v-1.39h-2.16v-1.85h4.23v4.29A6.21,6.21,0,0,1,122.22,127.73Z"/></svg>