<svg id="Layer_10" data-name="Layer 10" xmlns="http://www.w3.org/2000/svg" viewBox="0 0 128 128"><defs><style>.cls-1{fill:#dd222b;}.cls-2{fill:#9e9c9c;}.cls-3{fill:#add136;}.cls-4{opacity:0.55;}.cls-5{fill:#81af40;}.cls-6{fill:#9cbc3c;}.cls-7{fill:#e2e2e2;}.cls-8{fill:#ccc;}.cls-9{fill:#fff;}.cls-10{fill:#008dcd;}.cls-11{fill:#c91d84;}.cls-12{fill:#db5da2;}.cls-13{fill:#fdcfb2;}.cls-14{fill:#e1ae88;}.cls-15{fill:#565656;}.cls-16{fill:#231f20;}.cls-17{fill:#f1f2f2;}.cls-18{fill:#cfd3d8;}.cls-19{fill:#41c7f4;}.cls-20{fill:#823b1c;}.cls-21{fill:#b3562a;}.cls-22{fill:#6f320e;}.cls-23{fill:#ef83b5;}.cls-24{fill:#dd589b;}.cls-25{fill:#ee75ad;}.cls-26{fill:#9f4c23;}.cls-27{fill:#ad95c6;}.cls-28{fill:#7f6a97;}.cls-29{fill:#faf7de;}.cls-30{fill:#ddd5a6;}</style></defs><g id="Layer_2" data-name="Layer 2"><g id="Layer_1-2" data-name="Layer 1-2"><path class="cls-1" d="M18.58,18.38V16.29a.53.53,0,0,1,0-.24,11.62,11.62,0,0,1,3.16-7,19.23,19.23,0,0,1,6.34-4.31,38.48,38.48,0,0,1,6.81-2.23c1.36-.35,2.7-.69,4.08-.94a53.15,53.15,0,0,1,6.79-.45,2,2,0,0,0,.55-.05h6.19a.84.84,0,0,0,.27,0c1,0,2,.06,3,.1,1.66.07,3.3.18,4.94.32,2.06.18,4.12.39,6.15.74a47,47,0,0,1,9.71,2.36c1.22.48,2.5.74,3.73,1.15a119.49,119.49,0,0,1,16,5.8,56.94,56.94,0,0,1,8.73,4.88.85.85,0,0,1,.25.21,3.35,3.35,0,0,0,1.09.92c.89.55,1.79,1.07,2.69,1.63a21.33,21.33,0,0,1,5,4.15A12.08,12.08,0,0,1,116.91,29c.09.46.15.93.22,1.39v2a7.33,7.33,0,0,1-.12.91,21.61,21.61,0,0,1-2,6.4,45.84,45.84,0,0,1-5.71,8.79c-.5.63-1,1.21-1.49,1.86s-.86,1.24-1.33,1.83A155.78,155.78,0,0,1,95.72,64.48c-1.6,1.66-3.25,3.29-4.92,4.89s-3.48,3.25-5.29,4.82a115.39,115.39,0,0,1-9.23,7.25,69.69,69.69,0,0,1-10.06,6,6.29,6.29,0,0,0-.67.37c-.85.56-1.72,1.12-2.61,1.61a24.9,24.9,0,0,1-8.71,3.1l-1.5.17H50.5l-.22,0a16.88,16.88,0,0,1-6.18-1.68,22.63,22.63,0,0,1-7.4-6,40.54,40.54,0,0,1-5.13-7.88,76.87,76.87,0,0,1-4.53-11c-.38-1.13-.67-2.3-1.16-3.4a81.89,81.89,0,0,1-4.42-13.32,92.52,92.52,0,0,1-2.31-13.64c-.21-2.36-.33-4.71-.36-7.08,0-2,0-3.95.18-5.91a6.63,6.63,0,0,0-.06-1.78,4.28,4.28,0,0,0-.09-.61C18.73,19.65,18.66,19,18.58,18.38Z"/><path class="cls-2" d="M5.6,120.86h5.34v2.24H5.6v4.35H3.13V116.24h8.53v2.24H5.6Z"/><path class="cls-2" d="M13.75,116.24h2.46v11.21H13.75Z"/><path class="cls-2" d="M19,116.24h8.46v2.19h-6v2.27h5.29v2.2H21.47v2.32h6.08v2.23H19Z"/><path class="cls-2" d="M29.75,116.24h2.46v9h5.6v2.24H29.75Z"/><path class="cls-2" d="M49.23,124.69a5.32,5.32,0,0,1-2.11,2,6.23,6.23,0,0,1-3.1.77H39.66V116.24H44a6.19,6.19,0,0,1,3.1.73,5.37,5.37,0,0,1,2.12,2,5.46,5.46,0,0,1,.77,2.84h0A5.41,5.41,0,0,1,49.23,124.69ZM47,120.1a3,3,0,0,0-1.19-1.17,3.52,3.52,0,0,0-1.77-.44h-1.9v6.76H44a3.51,3.51,0,0,0,1.77-.42A3,3,0,0,0,47,123.58a3.52,3.52,0,0,0,.42-1.74h0A3.5,3.5,0,0,0,47,120.1Z"/><path class="cls-2" d="M64,123H59.46v4.5H57V116.24h2.47v4.43H64v-4.43h2.47v11.21H64Z"/><path class="cls-2" d="M79.81,124.76a5.75,5.75,0,0,1-2.14,2.1,6.45,6.45,0,0,1-6.12,0,5.73,5.73,0,0,1-2.89-5h0a5.78,5.78,0,0,1,2.92-5,6.43,6.43,0,0,1,6.11,0,5.65,5.65,0,0,1,2.89,5h0A5.77,5.77,0,0,1,79.81,124.76Zm-2.25-4.65a3.34,3.34,0,0,0-1.21-1.29,3.38,3.38,0,0,0-4.67,1.26,3.73,3.73,0,0,0-.44,1.76h0a3.64,3.64,0,0,0,.45,1.77,3.38,3.38,0,0,0,1.2,1.29,3.32,3.32,0,0,0,1.74.47,3.26,3.26,0,0,0,2.91-1.74,3.58,3.58,0,0,0,.43-1.76h0a3.57,3.57,0,0,0-.43-1.8Z"/><path class="cls-2" d="M90.63,127.14a6.28,6.28,0,0,1-2.6.5,5.75,5.75,0,0,1-2.94-.78A5.58,5.58,0,0,1,83,124.77a5.71,5.71,0,0,1-.77-2.91h0A5.84,5.84,0,0,1,83,119a5.55,5.55,0,0,1,2.08-2.11,5.91,5.91,0,0,1,3-.77,6.23,6.23,0,0,1,2.53.44,5.83,5.83,0,0,1,1.89,1.29L91,119.61a5.47,5.47,0,0,0-1.38-1,3.3,3.3,0,0,0-1.49-.32,3.08,3.08,0,0,0-1.67.47,3.15,3.15,0,0,0-1.16,1.27,3.56,3.56,0,0,0-.42,1.75h0a3.67,3.67,0,0,0,.41,1.75,3.23,3.23,0,0,0,1.15,1.28,3.15,3.15,0,0,0,1.68.48,3.5,3.5,0,0,0,1.56-.33,5.67,5.67,0,0,0,1.39-1l1.55,1.55A6.75,6.75,0,0,1,90.63,127.14Z"/><path class="cls-2" d="M98.36,122.67,97.06,124v3.43H94.59V116.24h2.46v4.9l4.55-4.9h3L100,121l4.78,6.46h-3Z"/><path class="cls-2" d="M106.28,116.24h8.46v2.19h-6v2.27H114v2.2h-5.29v2.32h6.1v2.23H106.3Z"/><path class="cls-2" d="M122.64,127.45h-2.47V123l-4.31-6.78h2.88l2.67,4.49,2.72-4.49h2.81L122.63,123Z"/><path class="cls-3" d="M29.39,75.52a9.17,9.17,0,0,0-1.62-.66,7.13,7.13,0,0,1,2.76.19,6.53,6.53,0,0,0-1.33-.94c.74,0,1.71.17,1.91.75.08-.43.36-1.1,1.93-1.42a4.08,4.08,0,0,0-1.36,1.35c1.77-.58,3.51-1.12,5.25-1.59-.25-.16-.66-.37-.86-.47a4.52,4.52,0,0,1,2-.09,14,14,0,0,0-1.84-.76,3.82,3.82,0,0,1,2.5.48,2.83,2.83,0,0,0-1-1.23,1.84,1.84,0,0,1,1.65,1.1A2.3,2.3,0,0,1,41,71.48a2.06,2.06,0,0,0-1,.84,110.68,110.68,0,0,1,19.58-3,3.54,3.54,0,0,0-.91-.66,3.76,3.76,0,0,1,2,.42c-.37-.38-.89-.61-1.28-1a3.52,3.52,0,0,1,2.14.83,5.72,5.72,0,0,0-.84-1.65c.55.42,1.31,1,1.37,1.72a4.49,4.49,0,0,1,2.9-1,3.63,3.63,0,0,0-1.79,1.16A118.32,118.32,0,0,1,103,74.89a2.65,2.65,0,0,0-.69-1,2.9,2.9,0,0,1,1.69,1.2,4,4,0,0,0-.87-1.72,1.79,1.79,0,0,1,1.3,2,14.21,14.21,0,0,1,1.49-1.61c-.28.59-.54,1.27-.87,1.84h0a2.77,2.77,0,0,1,2.49-.2,2.88,2.88,0,0,0-1.76.46c1.26.46,2.32.87,3.16,1.21a42.58,42.58,0,0,1-5.22,9.52C96.12,96.7,82.67,98.27,70.9,98c-19.23-.41-39.37-.39-48-20C25.17,77.09,27.29,76.27,29.39,75.52Z"/><g class="cls-4"><path class="cls-5" d="M36.46,79.37c-.64.31-1.49.52-1.86,1.18a2.29,2.29,0,0,0-.21-1.12c-.15-.31-.47-.9-.81-1a2.28,2.28,0,0,1,.45,1,4.23,4.23,0,0,0,.17.93,2.15,2.15,0,0,0-1.38-1c.27.35,1,.63,1,1.11a2.4,2.4,0,0,0-2.24-.38,3,3,0,0,1,2.24,1.27c-.14-.19,1.07-.43,1.06-.22A6.83,6.83,0,0,1,36.46,79.37Z"/></g><g class="cls-4"><path class="cls-5" d="M97.17,81.57a3.61,3.61,0,0,0-2.11.65,2.32,2.32,0,0,0,.08-1.14,2.25,2.25,0,0,0-.5-1.21A2.34,2.34,0,0,1,94.81,81a4.27,4.27,0,0,0-.08.94,2.12,2.12,0,0,0-1.08-1.27c.17.39.75.86.69,1.34a2.39,2.39,0,0,0-2-1,3.79,3.79,0,0,1,1.19,1,2.55,2.55,0,0,1,.63.86c-.08-.22,1.14-.13,1.08.07A6.89,6.89,0,0,1,97.17,81.57Z"/></g><path class="cls-5" d="M50.31,75c-.24-.3-.49-.58-.75-.85a1.65,1.65,0,0,1,1,.72,3,3,0,0,0-.47-1.49c.26.1.5.54.61.74a1.8,1.8,0,0,1,.17.85c.29-.5.92-.66,1.41-.9a5.12,5.12,0,0,0-1.18,1.36l-.8.17a2.64,2.64,0,0,0-1.7-1A1.81,1.81,0,0,1,50.31,75Z"/><path class="cls-6" d="M47.7,87.06c0-.53-1.74-1-3.89-1s-3.9.43-3.9,1,1.74,1,3.9,1S47.7,87.59,47.7,87.06Z"/><path class="cls-7" d="M43.12,84.84a2.66,2.66,0,1,0,0,.07Z"/><path class="cls-7" d="M37.78,84.84a2.66,2.66,0,1,0,2.66-2.65h0A2.65,2.65,0,0,0,37.78,84.84Zm.44-.44a2,2,0,1,1,2,2h0A2,2,0,0,1,38.22,84.4Z"/><path class="cls-8" d="M39.92,87A2.66,2.66,0,0,0,42,82.72,2.66,2.66,0,0,1,38.83,87a2.84,2.84,0,0,1-.52-.52A2.59,2.59,0,0,0,39.92,87Z"/><path class="cls-9" d="M40.6,82.19a5.6,5.6,0,0,0,.31,5.26,2.61,2.61,0,0,1-.48,0h0A5.61,5.61,0,0,1,40,82.21h.39Z"/><path class="cls-6" d="M72.78,86a36,36,0,0,1,5.09.33.79.79,0,0,1-.15-.42c0-1.39,4.57-2.51,10.22-2.51s10.2,1.12,10.2,2.51-4.57,2.5-10.2,2.5a39.47,39.47,0,0,1-5.1-.33.79.79,0,0,1,.15.42c0,1.38-4.57,2.5-10.21,2.5s-10.2-1.12-10.2-2.5S67.15,86,72.78,86Z"/><path class="cls-10" d="M67.92,74.54s3.78,3.22,10.31,1.58A9.62,9.62,0,0,0,67.92,74.54Z"/><path class="cls-11" d="M64.5,63.68c-1.79-6.78,1.54-8.94,1.58-8.94.4,4.59,3,6.79,3.86,7C68.36,62.28,66.05,63.07,64.5,63.68Z"/><path class="cls-12" d="M77.23,56.3a21.71,21.71,0,0,0-3.73-5.42,15.25,15.25,0,0,1-7.1,3.73l-.4.13c-1.21,1.15-.22,5.38,1,6.82C70.41,65.78,69.24,69,69,69.43a8.38,8.38,0,0,0,7.91-.83c4.47-2.95,5.56-5,5-5.51A18.21,18.21,0,0,1,77.23,56.3Z"/><path class="cls-11" d="M77.32,56.51c.3.66.61,1.27.91,1.81a11.69,11.69,0,0,1-9.93,5.22,11.66,11.66,0,0,0-.74-1.14A12.44,12.44,0,0,0,77.32,56.51Z"/><path class="cls-11" d="M77.3,56.46h0c.93,3.49,2.07,5,2.34,5.32.52.48-.28,3-4.73,5.9-2,1.37-3,2.34-4.42,2.19a8.34,8.34,0,0,0,6.42-1.27c4.47-2.95,5.56-5,5-5.51A18.27,18.27,0,0,1,77.3,56.46Z"/><path class="cls-11" d="M81.35,52.1s-1.41,3.72-2.72,4.9c0,0-2.68-1-3.73-1.49-1.41-.68-2.47-2.44-1.91-3.84C74,49.17,81.09,52.06,81.35,52.1Z"/><path class="cls-11" d="M66.43,54.62A15.21,15.21,0,0,0,72,52.15c0,2.41-.7,5-3.23,5.13-2.28.16-2.49-1.3-2.68-2.58Z"/><path class="cls-13" d="M66.79,54.53c.17,1.24.69,2.24,2.1,1.91,1.82-.47,2.31-2.35,2.39-3.81A15.33,15.33,0,0,1,66.79,54.53Z"/><path class="cls-14" d="M71.28,52.63a15.37,15.37,0,0,1-4.39,1.88,12.37,12.37,0,0,0,4.22-.65C71.14,53.63,71.27,52.84,71.28,52.63Z"/><path class="cls-13" d="M90.07,72.94c-1.49.44-4,1.44-5.07,1.62,0,0-3-1.27-4.39-2.07a10.2,10.2,0,0,1-2.77,2.9c1.13.52,5.38,2.17,7.26,2.09l5.78-2.23C91.84,73.76,90.07,72.94,90.07,72.94Z"/><path class="cls-15" d="M89.19,73.53a1.38,1.38,0,0,1,.12-.85,1.49,1.49,0,0,1,1.43-.87,1.2,1.2,0,0,1,1.09.66c.3.86,2.69,3.11,3.21,3.55C97.06,77.7,91.56,78.81,89.19,73.53Z"/><path class="cls-16" d="M95.51,75.83A17.5,17.5,0,0,1,94,74.49,8.4,8.4,0,0,1,92.62,73a4,4,0,0,1-.27-.44c-.14-.33-.32-.79-.79-.91a1.15,1.15,0,0,0-.93.2h.13a1.19,1.19,0,0,1,1.09.65c.3.87,2.7,3.12,3.21,3.56s.54.74.29,1C95.93,76.81,96.13,76.35,95.51,75.83Z"/><path class="cls-17" d="M90.07,72.94c-.55.17-3.72,1.22-4.47,1.49a2.87,2.87,0,0,1,.66,2.63l4.59-1.78C91.84,73.76,90.07,72.94,90.07,72.94Z"/><path class="cls-18" d="M90.07,72.94a2.3,2.3,0,0,1,1,.91h0a1.83,1.83,0,0,0-1-.64c-.54.16-3.49,1.07-4.29,1.35l-.13-.15C86.35,74.16,89.52,73.11,90.07,72.94Z"/><path class="cls-14" d="M85,74.56s-3-1.27-4.39-2.07l-.4.59a28.64,28.64,0,0,0,4.7,1.7,8.33,8.33,0,0,0,.86-.22l-.14-.15A6.11,6.11,0,0,1,85,74.56Z"/><path class="cls-18" d="M92.79,76.35a1.69,1.69,0,0,0-.38.42,1,1,0,0,0-.09.21l.38.17a1.6,1.6,0,0,1,.1-.31,1.5,1.5,0,0,1,.43-.51Z"/><path class="cls-18" d="M92,76a1.39,1.39,0,0,0-.37.43.88.88,0,0,0,0,.15,1.85,1.85,0,0,0,.33.21,1.8,1.8,0,0,1,.1-.33,1.44,1.44,0,0,1,.5-.54Z"/><path class="cls-10" d="M81.21,65.69S82,69.42,85,69.94a10,10,0,0,1-6.71,5.66s-2.78-2-3.3-3S81.21,65.69,81.21,65.69Z"/><path class="cls-19" d="M76.93,68.6a8.47,8.47,0,0,1-7.17,1.09,35,35,0,0,0-1.84,4.85c4.07-.13,10.31,1.58,10.31,1.58,0-1.84,1.93-5.36,1.93-5.36a14.44,14.44,0,0,0,1.17-5.87A19.53,19.53,0,0,1,76.93,68.6Z"/><path class="cls-15" d="M62.59,88.12c0-.66,1.49-1.55,4.66-2.28,0,0,1.86-.11,2.51.75a4.27,4.27,0,0,1,.4,2.81C69.51,89.92,62.33,88.79,62.59,88.12Z"/><path class="cls-16" d="M62.59,88.12a.66.66,0,0,1,.19-.43c0,.64,6.42,1.66,7.45,1.28a2.59,2.59,0,0,1-.09.42C69.51,89.92,62.33,88.79,62.59,88.12Z"/><path class="cls-18" d="M64.82,86.29l.29.11a2.81,2.81,0,0,1,1,.82l.31-.24a2.88,2.88,0,0,0-1-.84C65.26,86.18,65,86.23,64.82,86.29Z"/><path class="cls-18" d="M66.13,86a2.39,2.39,0,0,1,.68.59l.28-.2a2.46,2.46,0,0,0-.43-.48A3.09,3.09,0,0,1,66.13,86Z"/><path class="cls-13" d="M68.33,74.54l-1.68,4.67V86l.63-.15a4.13,4.13,0,0,1,2.23.49c0-3.09-.13-6.45-.13-6.45.8-1.36,1.8-2.9,3.05-5A20.83,20.83,0,0,0,68.33,74.54Z"/><path class="cls-17" d="M68.16,81.44a14.72,14.72,0,0,0-1.49-.07V86l.63-.15a4.13,4.13,0,0,1,2.23.49c0-1.73-.06-3.53-.09-4.79Z"/><path class="cls-18" d="M69.05,81.51c0,1.2.12,3,.15,4.65a1.61,1.61,0,0,1,.28.17c0-1.73-.06-3.53-.09-4.79Z"/><path class="cls-14" d="M69,79.74c.79-1.34,1.53-2.9,2.76-4.94l.61.09c-1.25,2.09-2.24,3.63-3.05,5v1.66H69Z"/><path class="cls-20" d="M74.42,33.06C68.07,30.42,63,22.39,67.32,20.61c0,0,7-5.73,13.24,3.4a20.65,20.65,0,0,1,3.68,10.88v.78s.35,4.58,2.09,3.88c0,0,1.87-.7,1-2.19,0-.09.36.23.38.25a3.81,3.81,0,0,1,.82,1.4c.64,1.7-.56,3.62-1.91,4.6a6.9,6.9,0,0,1-6.65.87C74.22,42.07,77.25,34.25,74.42,33.06Z"/><path class="cls-21" d="M80.28,25.26C75.46,18.17,70.15,20,68,21.23l-.74-.62s7-5.73,13.23,3.4a20.65,20.65,0,0,1,3.68,10.88,29.49,29.49,0,0,0-1-3.79A28.82,28.82,0,0,0,80.28,25.26Z"/><path class="cls-22" d="M74.42,33.06c-6.1-2.54-9.69-9.37-6.15-11.49-1.63,2.76,1.82,8.27,7.16,10.49,2.86,1.2-.16,9,5.63,11.43a6.88,6.88,0,0,0,6.64-.87l.09-.06a5.7,5.7,0,0,1-1.09,1,6.9,6.9,0,0,1-6.65.87C74.22,42.07,77.25,34.25,74.42,33.06Z"/><path class="cls-21" d="M68.27,20.84s4.17-2.86,8,1.77c1.42,1.68,3.12,5.22,2.24,8.58v.14A10.92,10.92,0,0,0,76,24C72.16,19.39,68,22.26,68,22.26a2.47,2.47,0,0,0-1,.8A2.23,2.23,0,0,1,68.27,20.84Z"/><path class="cls-13" d="M58.82,26.36A14.94,14.94,0,0,0,49.4,45.19a14.75,14.75,0,0,0,18.82,9l.13,0a15,15,0,0,0,9.43-18.87,14.76,14.76,0,0,0-18.86-8.93Z"/><path class="cls-13" d="M58.82,26.36A14.94,14.94,0,0,0,49.4,45.19a14.75,14.75,0,0,0,18.82,9l.13,0a15,15,0,0,0,9.43-18.87,14.76,14.76,0,0,0-18.86-8.93Z"/><path class="cls-23" d="M65.09,18.38a4.32,4.32,0,0,0-.54,3.84c.67,1.27,3.49.27,3.49.27a2.6,2.6,0,0,0,.64-2C68.58,19.16,65.55,17.61,65.09,18.38Z"/><path class="cls-24" d="M65.09,18.38a.57.57,0,0,1,.5-.21,4.34,4.34,0,0,0-.22,3.28c.52,1,2.32.6,3.11.38a1.57,1.57,0,0,1-.44.66s-2.82,1-3.49-.27A4.41,4.41,0,0,1,65.09,18.38Z"/><path class="cls-25" d="M70.9,20.29a1.79,1.79,0,0,0-3.1.19,2,2,0,0,0,0,2c.63.71,2.06.9,2.29.37A2.67,2.67,0,0,1,70.9,20.29Z"/><path class="cls-24" d="M67.85,22.5c.63.71,2.06.9,2.29.37a2.67,2.67,0,0,1,.75-2.58,1.79,1.79,0,0,0-3.1.19A2.08,2.08,0,0,0,67.85,22.5ZM68,20.38a1.25,1.25,0,0,1,2.08,0,2.77,2.77,0,0,0-.62,2.23c-.18.41-1.1.07-1.45-.65A2.08,2.08,0,0,1,68,20.38Z"/><path class="cls-23" d="M74.71,20.57a4.73,4.73,0,0,1-1.57,3.85c-1.3.82-3.37-1.63-3.37-1.63a2.78,2.78,0,0,1,.47-2.17C71.06,19.42,74.69,19.61,74.71,20.57Z"/><path class="cls-24" d="M70.24,20.62a1.35,1.35,0,0,1,.31-.32,2.57,2.57,0,0,0-.27,1.86s2.07,2.45,3.37,1.63a1.39,1.39,0,0,0,.27-.21,2.39,2.39,0,0,1-.74.84c-1.3.82-3.37-1.63-3.37-1.63A2.74,2.74,0,0,1,70.24,20.62Z"/><path class="cls-13" d="M51.69,45.24a2.61,2.61,0,0,1-.46,3.66l0,0a2.75,2.75,0,0,1-3.65-1.1A2.59,2.59,0,0,1,48,44.18l.1-.07A2.73,2.73,0,0,1,51.69,45.24Z"/><path class="cls-13" d="M81.27,38.7a2.55,2.55,0,0,1-3,2,2.58,2.58,0,0,1-1.53-3.28,2.55,2.55,0,0,1,3-2A2.57,2.57,0,0,1,81.27,38.7Z"/><path class="cls-14" d="M79.31,36.75a1.11,1.11,0,0,0-1,.28,14.49,14.49,0,0,1,.29,2.36h0a1.39,1.39,0,0,0,1.57-1.17,1.4,1.4,0,0,0-.82-1.48Z"/><path class="cls-14" d="M48.87,45.3a1,1,0,0,1,.44-.14l.17.34a14.08,14.08,0,0,0,.89,2l-.09.07A1.28,1.28,0,0,1,48.56,47a1.24,1.24,0,0,1,.29-1.73Z"/><path class="cls-26" d="M45.53,40.1S41.87,28.47,54.7,21.88c5.47-2.81,9.75-2.37,13.3-.2,7.27.08,11,6.71,11.28,13,.11,2.66-.49,5.72-1.22,6.57,0,0,1.1-7.45-6.39-9.49a4.13,4.13,0,0,1-2.3-1.67,8,8,0,0,0,1.16,3.13A5.66,5.66,0,0,1,68,27.16h0c-.08.31-1.58,5.33-9.07,7-13.4,3-9.05,11.59-8.27,12.14a9.92,9.92,0,0,1-4.3-9.25A7.67,7.67,0,0,0,45.53,40.1Z"/><path class="cls-26" d="M45.53,40.1S41.87,28.47,54.7,21.88c5.47-2.81,9.75-2.37,13.3-.2,7.27.08,11,6.71,11.28,13,.11,2.66-.49,5.72-1.22,6.57,0,0,1.1-7.45-6.39-9.49a4.13,4.13,0,0,1-2.3-1.67,8,8,0,0,0,1.16,3.13A5.66,5.66,0,0,1,68,27.16h0c-.08.31-1.58,5.33-9.07,7-13.4,3-9.05,11.59-8.27,12.14a9.92,9.92,0,0,1-4.3-9.25A7.67,7.67,0,0,0,45.53,40.1Z"/><path class="cls-21" d="M78.7,35.13c-.26-6.32-4-13-11.28-13.05-3.55-2.16-7.83-2.6-13.31.21a21.77,21.77,0,0,0-2.23,1.32,23.63,23.63,0,0,1,2.86-1.73c5.47-2.81,9.75-2.37,13.3-.2,7.26.08,11,6.71,11.28,13,.11,2.66-.49,5.72-1.22,6.57a6.84,6.84,0,0,0,.05-1A17.25,17.25,0,0,0,78.7,35.13Z"/><path class="cls-21" d="M52.35,36.89a6.58,6.58,0,0,0-1.74,9.45,10.79,10.79,0,0,1-1.49-1.21C48.43,43.08,48.23,39.53,52.35,36.89Z"/><path class="cls-26" d="M58.88,34.18a15.39,15.39,0,0,0,4.93-2,14.74,14.74,0,0,1-5.52,2.44,18.61,18.61,0,0,0-6,2.31A17.36,17.36,0,0,1,58.88,34.18Z"/><path class="cls-22" d="M73.51,32.5A8.14,8.14,0,0,1,78.67,40a3.84,3.84,0,0,1-.61,1.37S79,35.13,73.51,32.5Z"/><path class="cls-22" d="M54.7,21.88c4.86-2.49,8.78-2.43,12.09-.85-3.19-1.32-6.93-1.25-11.52,1.11-9.86,5.06-10,13.08-9.53,16.53a11.46,11.46,0,0,0-.21,1.43S41.87,28.47,54.7,21.88Z"/><path class="cls-21" d="M58.77,30.89c7.1-1.8,8.12-6.71,8.12-6.71,0,.3-.34,5.48-7.53,7.35-5,1.29-7.62,1.87-8.2,4.47C51.11,33.92,52.32,32.51,58.77,30.89Z"/><path class="cls-22" d="M59.93,28.2c5.85-.89,6.29-4.89,6.29-4.89,0,.25.19,4.57-5.73,5.5-4.12.64-6.28.89-6.55,3C53.73,30.07,54.63,29,59.93,28.2Z"/><path class="cls-22" d="M58.88,34.18c7.46-1.71,9-6.71,9.07-7h0s.67,3.94,1.75,5.21c.31.44.79.85.83.93a5.53,5.53,0,0,1-2.61-3.73s-.06-.48-.07-.52a12.57,12.57,0,0,1-8.63,6C49.32,37.33,49.08,42.59,50,45.4,48.86,43,47.82,36.71,58.88,34.18Z"/><path class="cls-27" d="M42.52,75.7c1.38-2.23,4.94-.68,4.11,1.78-1.58,4.71,3.86,3.82,6.57,2.15l36-21.33s1-.75,1.45-.1-.37,1.21-.37,1.21-36,22.08-36.06,22.1C41.76,89,41.11,78,42.52,75.7Z"/><path class="cls-28" d="M54.22,81.07C54.28,81.07,90.28,59,90.28,59a1.19,1.19,0,0,0,.49-.55c.21.59-.49,1-.49,1s-36,22.08-36.06,22.1C44.36,87.47,41.9,81.8,42,78,42.09,81.78,44.73,86.78,54.22,81.07Z"/><path class="cls-29" d="M79,64.35c.25.4.75,1.34.87,1.45L61.75,76.89c-.41-.54-.79-1.1-1.14-1.67Z"/><path class="cls-30" d="M79.64,65.49a3.28,3.28,0,0,0,.2.31L61.75,76.89l-.21-.3Z"/><path class="cls-29" d="M42.52,75.7c1.38-2.23,4.94-.68,4.11,1.78C45.74,80.15,47.1,81,49,81a21.78,21.78,0,0,0,.88,2.62C41.63,86.23,41.3,77.7,42.52,75.7Z"/><path class="cls-30" d="M42,78.09V78c.09,3.06,1.86,7,7.69,5.18,0,.12.1.26.15.38C43.63,85.58,41.93,81.21,42,78.09Z"/><path class="cls-30" d="M48,80.9c-1.45-.21-2.64-1-1.93-3.13a2.13,2.13,0,0,0-3.37-2.34c1.49-1.85,4.7-.3,3.91,2C45.89,79.68,46.69,80.66,48,80.9Z"/><path class="cls-13" d="M81.19,52.5c4,1.07,5.54,5.52,5.54,5.52s2.15,1.49,1.53,2.74a.6.6,0,0,1-.68.38.84.84,0,0,1-1,.61,1.66,1.66,0,0,1-.48.54c-.31.15-.64.16-.58,0,.75-2-.39-1.61-.39-1.61s-.69.56-.69.37a6.51,6.51,0,0,1,.4-2.36A5.9,5.9,0,0,0,80,55.08c.53-1,1-2,1.21-2.57Z"/><path class="cls-14" d="M86.17,62.09a1.82,1.82,0,0,0,.36-.51s.62.27.89-.62c0,0,.63.17.84-.19a.59.59,0,0,1-.68.38.82.82,0,0,1-1,.61,1.69,1.69,0,0,1-.48.55c-.31.15-.64.15-.58,0C85.48,62.46,85.88,62.35,86.17,62.09Z"/><path class="cls-14" d="M85.19,60.47s.79-.16.58,1c.2-1.13-.62-.82-.62-.82s-.69.56-.69.37C84.46,61.24,85.19,60.47,85.19,60.47Z"/><path class="cls-14" d="M85.19,58.73a4.18,4.18,0,0,0-.74,2.32,6.52,6.52,0,0,1,.41-2.36A5.9,5.9,0,0,0,80,55.08l.19-.35C83.67,55.24,85.19,58.73,85.19,58.73Z"/><path class="cls-13" d="M69.79,67.76c2-.41,2.83.37,2.83.37l-.89.52a2.2,2.2,0,0,0,.38,1.08c.43.65.91.59.87.93-.06.64-1.17.64-1.17.64s0,.62-1.1.4c-.61-.12-.18.2-.67.19a1.74,1.74,0,0,1-1.27-1.58,6.64,6.64,0,0,0-.48-1.49c-.2-.45-2.59-2.35-3.07-5.44.59-.23,1.21-.46,1.84-.68C67.8,66.46,69.79,67.76,69.79,67.76Z"/><path class="cls-14" d="M69.79,68a9.41,9.41,0,0,1-3.07-5.12l.34-.11c.74,3.72,2.73,5,2.73,5,2-.41,2.83.37,2.83.37A3.86,3.86,0,0,0,69.79,68Z"/><path class="cls-14" d="M70.53,71.5c1.26.27,1-.5,1.1-.49s1.29.29,1.35-.35c-.06.64-1.17.64-1.17.64s0,.62-1.1.4c-.61-.12-.18.2-.67.19C70.53,71.88,70,71.37,70.53,71.5Z"/><path class="cls-14" d="M72,69.84a3.4,3.4,0,0,1-.47-1.09l1.1-.6-.89.52a2.2,2.2,0,0,0,.38,1.08c.43.65.91.59.87.94C73,70.32,72.43,70.48,72,69.84Z"/></g></g></svg>