<svg id="Layer_16" data-name="Layer 16" xmlns="http://www.w3.org/2000/svg" viewBox="0 0 128 128"><defs><style>.cls-1{fill:#ffc023;}.cls-2{fill:#9e9c9c;}.cls-3{fill:#8a512d;}.cls-4{fill:#9fb3c2;}.cls-5{fill:#bb8754;}.cls-6{fill:#bccbdd;}.cls-7{fill:#fff;}.cls-8{fill:#677c94;}.cls-9{fill:#93171a;}.cls-10{fill:#7e9bad;}.cls-11{fill:#dbd5d5;}.cls-12{fill:#b66d41;}.cls-13{fill:#9e1a1e;}.cls-14{fill:#fbb980;}.cls-15{fill:#cd894d;}.cls-16{fill:#ef5024;}.cls-17{fill:#d31821;}.cls-18{fill:#8ca3b3;}.cls-19{fill:#d3e3f4;}.cls-20{fill:#f0971c;}.cls-21{fill:#fab32f;}.cls-22{fill:#f27771;}.cls-23{fill:#e98b1d;}.cls-24{fill:#b62226;}.cls-25{fill:#ffedb0;}</style></defs><g id="Layer_2" data-name="Layer 2"><g id="Layer_1-2" data-name="Layer 1-2"><path class="cls-1" d="M14,24.45V22.28c0-.09,0-.17,0-.25a12,12,0,0,1,3.29-7.3,19.79,19.79,0,0,1,6.59-4.47A37.73,37.73,0,0,1,31,7.93C32.4,7.6,33.8,7.21,35.23,7A55.73,55.73,0,0,1,42.3,6.5a1.88,1.88,0,0,0,.53-.07h6.46a1,1,0,0,0,.24,0c1,0,2.07.06,3.11.1,1.71.07,3.43.19,5.14.34,2.14.18,4.28.41,6.4.77a48.5,48.5,0,0,1,10.15,2.46c1.26.51,2.59.78,3.88,1.2a123.31,123.31,0,0,1,16.67,6A60.82,60.82,0,0,1,104,22.46a1.27,1.27,0,0,1,.25.21,3.31,3.31,0,0,0,1.14,1c.92.58,1.87,1.13,2.8,1.7a21.87,21.87,0,0,1,5.27,4.31,12.65,12.65,0,0,1,2.92,5.89c.09.49.15,1,.23,1.46V39.1c0,.32-.09.63-.13.95a22.49,22.49,0,0,1-2.1,6.66,48.43,48.43,0,0,1-5.95,9.16c-.52.65-1.1,1.26-1.55,1.93s-.9,1.29-1.38,1.9A159,159,0,0,1,94.29,72.43c-1.67,1.74-3.38,3.43-5.13,5.09s-3.57,3.34-5.5,5A112.86,112.86,0,0,1,74,90.09,72.57,72.57,0,0,1,63.58,96.3a4.8,4.8,0,0,0-.7.39c-.89.58-1.79,1.15-2.72,1.67a26,26,0,0,1-9.07,3.22c-.51.07-1,.12-1.55.18H47.21a.81.81,0,0,0-.22,0A17.58,17.58,0,0,1,40.55,100a23.68,23.68,0,0,1-7.7-6.21,42.89,42.89,0,0,1-5.35-8.19,79.83,79.83,0,0,1-4.72-11.5c-.39-1.18-.7-2.38-1.21-3.54A85.16,85.16,0,0,1,17,56.65a94.85,94.85,0,0,1-2.4-14.2q-.35-3.68-.38-7.37c0-2.06,0-4.12.18-6.16a6.68,6.68,0,0,0,0-1.84c-.05-.21-.07-.43-.1-.64C14.12,25.77,14.05,25.11,14,24.45Z"/><path class="cls-2" d="M11.42,117.27h2.32v10.55H11.42Z"/><path class="cls-2" d="M23.77,127.52a5.69,5.69,0,0,1-2.44.48,5.39,5.39,0,0,1-2.77-.73,5.24,5.24,0,0,1-1.94-2,5.45,5.45,0,0,1-.73-2.73h0a5.63,5.63,0,0,1,.73-2.75,5.32,5.32,0,0,1,1.95-2,5.64,5.64,0,0,1,2.84-.73,6,6,0,0,1,2.38.42,5.56,5.56,0,0,1,1.78,1.21l-1.46,1.71a5.08,5.08,0,0,0-1.3-.89,3,3,0,0,0-1.4-.3,2.83,2.83,0,0,0-1.57.44,3,3,0,0,0-1.1,1.19,3.52,3.52,0,0,0-.39,1.65h0a3.53,3.53,0,0,0,.39,1.66,3.17,3.17,0,0,0,1.09,1.21,3,3,0,0,0,1.58.45,3.3,3.3,0,0,0,1.46-.31,5.28,5.28,0,0,0,1.31-.93l1.46,1.49A6.18,6.18,0,0,1,23.77,127.52Z"/><path class="cls-2" d="M27.5,117.27h8v2.07H29.81v2.14h4.95v2.06H29.81v2.19h5.72v2.06h-8Z"/><path class="cls-2" d="M48.67,127.1a4.27,4.27,0,0,1-2.8.87,7,7,0,0,1-2.39-.43,6.56,6.56,0,0,1-2.09-1.26l1.39-1.64a5.94,5.94,0,0,0,1.52.94,4,4,0,0,0,1.63.34,2,2,0,0,0,1.11-.26.82.82,0,0,0,.4-.73h0a.85.85,0,0,0-.16-.53,1.66,1.66,0,0,0-.63-.4,12,12,0,0,0-1.33-.41,11.84,11.84,0,0,1-1.93-.65,2.76,2.76,0,0,1-1.15-1,2.79,2.79,0,0,1-.41-1.62h0a2.89,2.89,0,0,1,.47-1.66,3.2,3.2,0,0,1,1.31-1.11,4.21,4.21,0,0,1,1.91-.4,6,6,0,0,1,3.91,1.34l-1.2,1.75a4.91,4.91,0,0,0-2.74-1,1.7,1.7,0,0,0-1,.26.8.8,0,0,0-.35.66h0a.84.84,0,0,0,.19.57,1.72,1.72,0,0,0,.66.4,14.41,14.41,0,0,0,1.46.43A6.32,6.32,0,0,1,49,122.7a2.5,2.5,0,0,1,.81,2h0A2.88,2.88,0,0,1,48.67,127.1Z"/><path class="cls-2" d="M55.29,123.33l-1.21,1.26v3.23H51.76V117.27h2.32v4.61l4.28-4.61h2.8l-4.3,4.48,4.49,6.07H58.57Z"/><path class="cls-2" d="M69.34,125.45H64.88l-1,2.37H61.55l4.56-10.62h2.13l4.52,10.62H70.3Zm-3.65-2h2.8L67.11,120Z"/><path class="cls-2" d="M77.77,127.82H75.45v-8.41h-3.2v-2.14H81v2.14H77.77Z"/><path class="cls-2" d="M82.88,117.27h2.31v10.55H82.88Z"/><path class="cls-2" d="M90.11,121.12v6.7H87.82V117.27H90l5,6.49v-6.49H97.2v10.55h-2Z"/><path class="cls-2" d="M104.8,128a5.79,5.79,0,0,1-2.88-.73,5,5,0,0,1-2-1.93,5.6,5.6,0,0,1-.73-2.8h0a5.38,5.38,0,0,1,.73-2.74,5.3,5.3,0,0,1,2-2,5.61,5.61,0,0,1,2.83-.73,6.55,6.55,0,0,1,2.32.36,5.92,5.92,0,0,1,1.82,1.09l-1.46,1.76a4.63,4.63,0,0,0-1.28-.81,3.81,3.81,0,0,0-1.46-.26,2.73,2.73,0,0,0-1.52.45,3.07,3.07,0,0,0-1.1,1.19,3.5,3.5,0,0,0-.41,1.64h0a3.61,3.61,0,0,0,.41,1.73,2.84,2.84,0,0,0,1.14,1.19,3.17,3.17,0,0,0,1.64.43,3.62,3.62,0,0,0,2.19-.63v-1.51h-2.31v-2h4.58v4.58A6.8,6.8,0,0,1,104.8,128Z"/><path class="cls-3" d="M64.81,73.89,52.4,56.12s-3.59-6.71,3.58-9c2.83,0,4.36,4.56,5,5.34l9.46,18.06C69.86,72,66,74.24,64.81,73.89Z"/><path class="cls-3" d="M76.79,77.52a3.63,3.63,0,0,0,1.61-.63c.37-.5-.13-2.33-.78-3.33l-8.41-4.73c-1,.08-4-1.92-4-1.74.06,1-2.32,1.46-2.32,2.26a7.14,7.14,0,0,0,3.8,5.79l8.76,2.69Z"/><path class="cls-4" d="M88.8,78.45,87.38,78l-.24.84,1.4.4a.17.17,0,0,1,0,.1c-.17.49-1,3.43-1.78,5.86l-1.55-.59-.27.88,1.56.54c-.19.74-.41,1.47-.67,2.18,0,0-.27.35-.29.36l-.87-1.4-.77.46L84.67,89c-.59.24-1.25.45-1.25.45l.27.38-.15.48.31.35s2-.1,2.7-1c.35-.43,3.27-11,3.34-11.39s-1-.6-1-.6A3.4,3.4,0,0,1,88.8,78.45Z"/><path class="cls-5" d="M83.64,88.13l.78.12s1.18-2.55,1.45-3.45a52.64,52.64,0,0,0,.62-5.31l1,.23s.78-1.55.49-1.82-2.49-1.48-3.26-1.24S83.64,87.18,83.64,88.13Z"/><path class="cls-6" d="M82.45,87.9s.21-3,.21-3a50.89,50.89,0,0,0-.19-5.66,2,2,0,0,0,.7-2.19,3.41,3.41,0,0,0-.14-.55,5.38,5.38,0,0,1,1.79,0l1.21.31s-.51,4.44-1,7.82c0,.29-1.24,3.1-1.33,3.46C83.58,88.3,82.45,87.9,82.45,87.9Z"/><path class="cls-6" d="M83,79.7c-.35,0-6.7-1.4-7-1.64s-.14-1.82.39-1.8,7.4,2,7.4,2S84.73,80,83,79.7Z"/><path class="cls-6" d="M83.42,78.82c-.25-.08-6.2-1.86-6.39-2.09s.61-3.16,1.26-2.92,7.41,2.74,7.33,3.1S84.25,79.11,83.42,78.82Z"/><path class="cls-7" d="M82.61,84.47s1.11-.22,1.34-.22.09-.6-.08-.6a5.9,5.9,0,0,0-1.19.07C82.54,83.8,82.63,84.37,82.61,84.47Z"/><path class="cls-7" d="M82.58,82.78a13.28,13.28,0,0,1,1.32-.22c.21,0,.09-.6-.09-.61a6,6,0,0,0-1.19.08C82.5,82.11,82.6,82.7,82.58,82.78Z"/><path class="cls-7" d="M82.55,81.06a13.28,13.28,0,0,1,1.32-.22c.22,0,.1-.6-.09-.6a4.68,4.68,0,0,0-1.18.07C82.47,80.37,82.57,81,82.55,81.06Z"/><path class="cls-7" d="M81.93,79.64c.09-.44.19-.87.32-1.3.1-.2-.51-.33-.58-.16a4.94,4.94,0,0,0-.41,1.11C81.29,79.44,81.85,79.6,81.93,79.64Z"/><path class="cls-4" d="M65.05,48.74c0,.59-.78,3.74-.78,4.56s.31,1.14.78,1.15.78-2.5,1.13-2.64.67,1.14,1.38,2,1.56,1.9,2.11,2.07,2-.93,1.91-2.41-3.88-5.77-4.65-6.2S65.09,47.74,65.05,48.74Z"/><path class="cls-8" d="M29.14,52.57c-.59,0-3.8-.29-4.65-.21s-1.09.44-1,.9,2.59.47,2.76.78-1,.81-1.77,1.62S22.74,57.42,22.64,58s1.17,1.86,2.63,1.6S30.5,55,30.83,54.15,30.15,52.49,29.14,52.57Z"/><path class="cls-9" d="M29.92,50.93c-.41.33-1.5,1.65-1.42,2a7,7,0,0,0,2,2.05c.4.07,1.89-1.74,2.29-2.33S31.26,49.83,29.92,50.93Z"/><path class="cls-9" d="M64.55,46.9a5.55,5.55,0,0,0,.52,2.37c.29.16,2.88.28,3.74-.52.29-.28-.55-4-.78-4.71S64.55,45.17,64.55,46.9Z"/><path class="cls-10" d="M44.38,22.24a22.59,22.59,0,0,1,4.81-1.45c2.78-.55,3.88.2,5.77.31a4.7,4.7,0,0,0,3-.52c.61-.29,1.06,3,.72,4.2s-5.49,2.33-7,1.83-6.87-3.14-10.45-1.71S42.71,23,44.38,22.24Z"/><path class="cls-9" d="M43.45,24.77c.68-.37,2.16,3.39,1.41,4.45-.48.72-4.32,15.09-4.32,15.09l-5.89-.89s3.53-13.34,4.18-15S41.9,25.6,43.45,24.77Z"/><path class="cls-11" d="M69.21,103.79c0,1.51-7.54,2.95-16.92,3.22s-17-.78-17.07-2.28,7.54-3,16.92-3.21S69.16,102.27,69.21,103.79Z"/><path class="cls-12" d="M51.85,78l6.73-26.69c-.48-3.38-10.16-.92-10.16-.92L46.15,75.85C46.93,83.94,50.41,79,51.85,78Z"/><path class="cls-13" d="M43.06,23.25l6.85-.87c.42-.35.34,1.76,1.26,5.47.22.9,6.83,13.29,11.37,22.69.43.9-2.54,3.27-9.19,5.48a43.42,43.42,0,0,1-8.75,1.71S38.75,37,38.24,34.41c-.34-1.8.69-8.16.69-8.16Z"/><path class="cls-12" d="M48,92.66a2.33,2.33,0,0,0,1.55-.31,4.9,4.9,0,0,0,1.27-1.09l1.56-11.4c.14-2.67.38-6-.24-8-.77-3.11-5.43.55-6,3.69l-.59,15A2.92,2.92,0,0,0,48,92.66Z"/><polygon class="cls-14" points="40.78 24.69 39.08 14.44 42.44 13.35 44.87 23.37 43.07 26.24 40.78 24.69"/><path class="cls-14" d="M43.75,20.09s-6.63,4.28-8.68,2.53A14.28,14.28,0,0,1,34,19.92c-.09-.25,1.75-.17,2.07-2,0-.26-2.5.74-2.58.46-.71-2.49-1.21-5.76-.68-8,.87-3.65,4.88-8.8,8.39-7.7S52,8.84,43.75,20.09Z"/><path class="cls-14" d="M34.3,13.38h0l-.2-.45a21.71,21.71,0,0,1-3,2.74c2.19,2,4.28.06,3.7-2.42a1.29,1.29,0,0,0-.51.14C34.2,13.46,34.22,13.44,34.3,13.38Z"/><path class="cls-3" d="M34.61,13.48c0,.6.34,1.09.73,1.09s.69-.48.68-1.08-.34-1.08-.73-1.09S34.6,12.87,34.61,13.48Z"/><path class="cls-3" d="M39.77,2.52v0S39.73,2.53,39.77,2.52Z"/><path class="cls-13" d="M47.62,22.72c1.55-.18,3.15-1.14,5.11.91.6.62,12.41,10.91,12.41,10.91l-1.36,6.31S52,29.67,50.26,29.16C49,28.74,45.93,23,47.62,22.72Z"/><path class="cls-15" d="M36.87,11.4c0-.27.06-.52.07-.78a6.65,6.65,0,0,0-1.09-.15,10.12,10.12,0,0,0-2.33.22l.31,1a9,9,0,0,1,2.25-.32Z"/><path class="cls-9" d="M31.72,54.68c2.75-.6,8.43-8.53,8.92-10.86.41-1.93-.86-1.55-1.55-2.67s-1.51-2.68-3.48.43c-2.45,3.88-7,10-7,10S30.55,55,31.72,54.68Z"/><path class="cls-9" d="M68.85,47.61c.31-.15-1.36-9.22-2.15-10.66s-1.9-3.1-3.1-3.3-2.11-.78-1.82,2.77C62.62,47,64,48.27,64,48.27A13.19,13.19,0,0,0,68.85,47.61Z"/><path class="cls-4" d="M48.74,21.84c.48.26-1.55,1.23-3.19,3.68s-3.88,4.65-5.7,4.52a2.45,2.45,0,0,1-2.16-2.7c0-.08,0-.16,0-.24.27-.91,1.07-3.34,1.69-3.68A55.79,55.79,0,0,1,45.79,21C47.16,20.63,47.83,21.35,48.74,21.84Z"/><path class="cls-13" d="M45.24,55.62c0,.53.1,3.38.41,3.69s9.81-1.38,12.77-3.18,3.38-1.48,3.38-2.32-.53-3.71-1.69-4.12S45.24,53.72,45.24,55.62Z"/><path class="cls-4" d="M49.08,104v-1.48h-.92l0,1.46H48c-.54-.05-3.8-.15-6.49-.28l.2-1.68-1,0-.11,1.64a21.42,21.42,0,0,1-2.4-.11l-.44-.19,1.2-1.19-.67-.59-1.12,1.11c-.39-.52-.78-1.1-.78-1.1l-.32.36-.54,0-.27.39s.61,1.89,1.71,2.37c.52.24,12.7.47,13.07.45s.37-1.08.37-1.08Z"/><path class="cls-5" d="M37.83,101.41l.07.78s2.94.5,3.94.56,5.6-.72,5.6-.72l0,1s1.83.37,2,0,.78-2.79.36-3.43S38.76,101.19,37.83,101.41Z"/><path class="cls-6" d="M37.72,100.21l3.1-.53a54.35,54.35,0,0,0,5.76-1.55,2.32,2.32,0,0,0,2.46.09,4.3,4.3,0,0,0,.52-.28,5,5,0,0,1,.49,1.73v1.25s-4.65.6-8.28.93c-.32,0-3.56-.42-3.88-.43S37.72,100.21,37.72,100.21Z"/><path class="cls-6" d="M45.66,98.75c0-.36-.29-6.84-.14-7.2s1.74-.58,1.85-.06-.16,7.66-.16,7.66S45.81,100.48,45.66,98.75Z"/><path class="cls-6" d="M47.28,98.91c-.49-.18-.66-6.39-.49-6.65s3.88-.62,3.81.08-.41,8.2-.79,8.2S48.09,99.23,47.28,98.91Z"/><path class="cls-7" d="M40.94,99.52c.2.4.39.81.55,1.23,0,.21.6-.06.56-.24a4.91,4.91,0,0,0-.37-1.12C41.57,99.29,41.05,99.52,40.94,99.52Z"/><path class="cls-7" d="M42.57,99.07s.49,1,.54,1.22.6-.05.56-.23a5.51,5.51,0,0,0-.36-1.13C43.2,98.83,42.67,99.06,42.57,99.07Z"/><path class="cls-7" d="M44.23,98.61q.3.6.54,1.23c0,.21.61-.06.56-.24A5.07,5.07,0,0,0,45,98.48C44.86,98.38,44.33,98.61,44.23,98.61Z"/><path class="cls-7" d="M45.44,97.66s1.14,0,1.35,0,.19-.57,0-.6a5.74,5.74,0,0,0-1.17-.12C45.48,97,45.48,97.57,45.44,97.66Z"/><path class="cls-15" d="M34.85,6l-.34.34C34.61,6.3,34.72,6.17,34.85,6Z"/><path class="cls-15" d="M44.42,19.23a18.87,18.87,0,0,0,4-5.43,17.89,17.89,0,0,0,1.63-6.33c-2.71-2.09-3.28-4-6.83-4.93a9.58,9.58,0,0,0-5.57.57,8.62,8.62,0,0,0-1.86,1.3,13.5,13.5,0,0,0-1,1.66l.17-.18a10.17,10.17,0,0,1,2.82,2.57,35.62,35.62,0,0,1,2,4.19C40.81,15,41.85,18.12,44.42,19.23Z"/><path class="cls-16" d="M56.8,39.14a.27.27,0,0,0,0,.26v-.06a.36.36,0,0,0-.16-.14l-1-.3h-.05a.07.07,0,1,1-.1,0h0l-.68.83a.3.3,0,0,0,0,.26.37.37,0,0,0-.18-.19l-1-.3h-.06s-.05.05,0,.11,0-.09-.09-.07h0l-.68.83a.28.28,0,0,0,0,.25.34.34,0,0,0-.19-.18l-1-.31h0a.08.08,0,0,0,0,.11c0,.06-.06-.08-.1-.07h0l-.68.83a.34.34,0,0,0,0,.26.34.34,0,0,0-.18-.19L49,40.9H49A.08.08,0,0,0,49,41a.09.09,0,0,0-.09-.08h0l-.68.83a.3.3,0,0,0,0,.26.3.3,0,0,0-.19-.19l-1.16-.25h0s-.05.05,0,.11a.07.07,0,0,0-.09-.07h0l-.71.84a.37.37,0,0,0,0,.25.32.32,0,0,0-.18-.18l-1-.3h-.06a.08.08,0,0,0,0,.11c.06,0,0-.08-.09-.07h0l-.69.86a.3.3,0,0,0,0,.26.32.32,0,0,0-.19-.19l-1-.3h-.05s-.06.05,0,.11-.06-.09-.1-.07h0l-.68.83a.31.31,0,0,0,0,.25.32.32,0,0,0-.18-.18l-.69-.21c.12.46.25.93.38,1.39l.77.23c.07,0,.12,0,.09-.11,0,.08.09.1.14,0l.67-.83a.3.3,0,0,0,0-.26.3.3,0,0,0,.19.19l1,.3c.07,0,.1,0,.08-.11,0,.09.09.1.14,0L45,43.6a.31.31,0,0,0,0-.25.29.29,0,0,0,.19.18l1,.31c.07,0,.11,0,.08-.1,0,.07.09.09.14,0l.68-.83a.3.3,0,0,0,0-.26.31.31,0,0,0,.18.19l1,.31c.08,0,.12,0,.1-.12,0,.08.08.1.14,0l.67-.73a.3.3,0,0,0,0-.26.3.3,0,0,0,.19.19l1,.31c.07,0,.11,0,.09-.12a.08.08,0,0,0,.14.05l.67-.83a.32.32,0,0,0,0-.27.37.37,0,0,0,.19.2l1,.3c.08,0,.12,0,.09-.11,0,.08.09.1.14,0l.68-.83a.3.3,0,0,0,0-.26.31.31,0,0,0,.18.19l1,.3c.08,0,.12,0,.1-.1,0,.08.08.1.14,0l.67-.83a.28.28,0,0,0,0-.25.31.31,0,0,0,.19.18l1,.31c.06,0,.09,0,.1-.06v-.05c0,.08.08.1.13,0l.16-.2C57.21,40,57,39.55,56.8,39.14ZM40.69,40.8a.32.32,0,0,0,.19.19l1,.3c.08,0,.12,0,.1-.11,0,.09.08.1.14,0l.68-.84a.3.3,0,0,0,0-.26.3.3,0,0,0,.19.19l1,.3c.07,0,.11,0,.09-.11,0,.09.08.1.14,0l.67-.82a.29.29,0,0,0,0-.27.37.37,0,0,0,.19.2l1,.3c.08,0,.11,0,.09-.11a.07.07,0,0,0,.13,0l.69-.83a.39.39,0,0,0,0-.26.29.29,0,0,0,.18.19l1,.3c.08,0,.12,0,.09-.11a.07.07,0,0,0,.14,0l.67-.83a.28.28,0,0,0,.05-.25.32.32,0,0,0,.18.18l1,.31c.08,0,.12,0,.09-.11a.08.08,0,0,0,.14,0l.74-.81a.3.3,0,0,0,0-.26.3.3,0,0,0,.19.19l1,.3c.07,0,.11,0,.08-.11,0,.09.1.1.14,0l.69-.77a.28.28,0,0,0,.05-.26.3.3,0,0,0,.19.19l1,.3c.08,0,.12,0,.09-.11,0,.09.09.1.14,0l.4-.48L55,35.48l-.22.28a.34.34,0,0,0-.05.26.33.33,0,0,0-.18-.19l-1-.3h-.07a.09.09,0,0,0,0,.11.07.07,0,0,0-.09-.07h0l-.67.83a.31.31,0,0,0-.05.25.29.29,0,0,0-.18-.18l-1-.31h-.06a.1.1,0,0,0,0,.11.1.1,0,0,0-.09-.07h0l-.67.83a.24.24,0,0,0,0,.26.39.39,0,0,0-.19-.19l-1.16-.18H49S49,37,49,37,49,37,48.94,37h0l-.68.83a.3.3,0,0,0,0,.26.37.37,0,0,0-.18-.19l-1-.3H46.9a.08.08,0,0,0,0,.11s-.06-.09-.1-.07h0l-.73.87a.32.32,0,0,0,0,.25.32.32,0,0,0-.18-.18l-1-.3h-.06a.09.09,0,0,0,0,.12.08.08,0,0,0-.1-.08h0s0,0,0,0l-.68.82a.42.42,0,0,0,0,.27.35.35,0,0,0-.18-.2l-1-.3h-.06s0,.05,0,.12,0-.09-.08-.08h0l-.68.83a.3.3,0,0,0,0,.26.3.3,0,0,0-.19-.19l-1.11-.29h-.06a.08.08,0,0,0,0,.11c.06,0,0-.09-.08-.07h0l-.56.58.4,1.48.5-.62A.26.26,0,0,0,40.69,40.8Zm-.26-3.56c0,.09.09.1.13,0l.72-.81a.34.34,0,0,0,0-.28.32.32,0,0,0,.18.18l1,.31c.08,0,.12,0,.1-.11,0,.08.08.1.13,0l.68-.82a.36.36,0,0,0,0-.27.34.34,0,0,0,.19.2l1,.29c.07,0,.11,0,.09-.1,0,.08.09.09.13,0l.68-.83a.3.3,0,0,0,0-.26.37.37,0,0,0,.18.19l1.05.3c.07,0,.12,0,.08-.11,0,.08.09.1.14,0l.68-.83a.34.34,0,0,0,0-.26.29.29,0,0,0,.18.19l1.06.45c.07,0,.11,0,.08-.11,0,.08.1.11.14,0l.68-.83a.28.28,0,0,0,0-.25.34.34,0,0,0,.19.18l1,.31c.07,0,.11,0,.08-.11,0,.08.1.1.14,0l.71-.75a.31.31,0,0,0,0-.26.27.27,0,0,0,.18.19l1,.3c.07,0,.11,0,.09-.11,0,.09.08.1.14,0l0-.11-.61-1.2a.34.34,0,0,0,0,.2.3.3,0,0,0-.19-.19l-1-.31H51.8s-.06.06,0,.12a.09.09,0,0,0-.09-.08h0l-.68.83a.3.3,0,0,0,0,.26.35.35,0,0,0-.19-.19l-1.06-.29h-.05a.08.08,0,0,0,0,.11c.05,0,0-.09-.09-.07h0l-.68.83a.28.28,0,0,0,0,.25.34.34,0,0,0-.19-.18l-1-.31h-.12s-.06.06,0,.11-.06-.08-.1-.07h0l-.67.83a.31.31,0,0,0,0,.26.32.32,0,0,0-.19-.19l-1-.3h0a.08.08,0,0,0,0,.11.08.08,0,0,0-.09-.08.1.1,0,0,0,0,0l-.67.83a.25.25,0,0,0,0,.25.34.34,0,0,0-.18-.19l-1.05-.3h0a.09.09,0,0,0,0,.12c0-.07,0-.09-.09-.08h0l-.68.83a.32.32,0,0,0,0,.25.32.32,0,0,0-.18-.18l-1-.3h-.06s0,0,0,.1a.1.1,0,0,0-.1-.07h0l-.68.84a.3.3,0,0,0,0,.26.35.35,0,0,0-.18-.2l-1-.3H39a.08.08,0,0,0,0,.11c0,.06-.06-.08-.1-.07h0v.05c.1.42.23.93.38,1.5l.11-.14a.32.32,0,0,0,0-.25.31.31,0,0,0,.19.18l1,.31c-.21.2-.17.15-.2.07Z"/><path class="cls-4" d="M36.12,3.26C36.71,2.74,42.85,1,44.51,1s7.3,1.31,8,1.84,1.46.86.62.64c-.27-.07-.49,5.95-.78,6.47s-1,3.83-2.33,4.65S34.71,4.48,36.12,3.26Z"/><path class="cls-8" d="M43.85,4.74A37.13,37.13,0,0,0,39.27,2c-1.09-.61-5,.38-5.75,3.18l1.11.45A14.56,14.56,0,0,1,42,10.44a19.94,19.94,0,0,1,3.88,7.63c.11.78,4.06-.88,4.42-2.23S49.08,8.6,43.85,4.74Z"/><path class="cls-8" d="M55.85,2.32A2.4,2.4,0,1,1,53.69-.32a2.4,2.4,0,0,1,2.16,2.64Z"/><path class="cls-14" d="M42.6,14.42c0,1.07-.64,1.92-1.41,1.92s-1.42-.85-1.42-1.92.63-1.92,1.42-1.92S42.6,13.34,42.6,14.42Z"/><path class="cls-15" d="M36.84,7s-1.68,1.36-3.1,1-3.48-2-3.25-3.1a8,8,0,0,1,.92-2,17.59,17.59,0,0,0,3.83,2.82C36.76,6.26,36.84,7,36.84,7Z"/><path class="cls-4" d="M47.69,55.94c-.55.05-3.62-.28-4.39-.2s-1,.42-1,.86,2.45.44,2.63.77-1,.78-1.7,1.56-1.61,1.67-1.7,2.23,1.11,1.78,2.5,1.55,5-4.37,5.29-5.14S48.64,55.86,47.69,55.94Z"/><path class="cls-17" d="M48.55,54.14c-.39.32-1.43,1.55-1.35,1.88A6.43,6.43,0,0,0,49,58c.38.08,1.8-1.64,2.18-2.25S49.81,53.09,48.55,54.14Z"/><path class="cls-16" d="M62.78,28.33c.64-.34,2.1,5.55,1.63,6.69C59.67,46.61,58.58,47.7,58.58,47.7L54.4,46.09s3.39-12.7,4-14.34S61.3,29.16,62.78,28.33Z"/><path class="cls-16" d="M50.26,57.72c2.62-.59,8-8.16,8.54-10.36.39-1.84-.82-1.55-1.55-2.54s-1.41-2.54-3.29.42c-2.33,3.65-6.7,9.48-6.7,9.48S49.15,58,50.26,57.72Z"/><path class="cls-18" d="M83.37,74.72,69.94,59.28s-3.83-6.16,2.84-8.75c2.69-.17,4.44,4.06,5.07,4.77l9.81,17.48C87.21,74.16,84.56,74.94,83.37,74.72Z"/><path class="cls-18" d="M102.77,74.36a2.17,2.17,0,0,0-.35-2L85.5,70.48c-.84.41-4.7-.88-4.65-.73.36.78.9,2.37,1.16,3.06.85,2.28,1.46,2,3,2.14l17.52-.2A2.87,2.87,0,0,0,102.77,74.36Z"/><path class="cls-4" d="M105.81,71.53l-1.4.13.08.82,1.38-.13a.17.17,0,0,0,0,.1c0,.49.27,3.41.44,5.82H104.7l.07.87,1.59-.06a17.15,17.15,0,0,1,.17,2.15s-.12.4-.13.42l-1.25-.94-.5.67,1.17.88c-.44.4-.95.82-.95.82l.38.25v.49l.39.19s1.73-.78,2.06-1.8c.16-.5-.91-10.92-1-11.25s-1.07-.21-1.07-.21A5,5,0,0,1,105.81,71.53Z"/><path class="cls-5" d="M104.56,81.87l.77-.16s.16-2.67.1-3.57a48.81,48.81,0,0,0-1.31-4.92l1-.16s.15-1.67-.2-1.78-2.73-.41-3.3.06S104.25,81.05,104.56,81.87Z"/><path class="cls-19" d="M103.44,82.1s-.84-2.7-.85-2.71a46.92,46.92,0,0,0-2.12-5,2,2,0,0,0-.16-2.18,3.47,3.47,0,0,0-.31-.44,5,5,0,0,1,1.55-.64l1.18-.13s1.08,4.11,1.79,7.27c.06.29,0,3.22,0,3.55S103.44,82.1,103.44,82.1Z"/><path class="cls-19" d="M101.12,74.64c-.33.07-6.43,1.06-6.78,1s-.78-1.55-.27-1.73,7.25-.77,7.25-.77S102.74,74.29,101.12,74.64Z"/><path class="cls-19" d="M101.17,73.73c-.24,0-6.12.47-6.4.35s-.55-3,.12-3,7.51-.12,7.56.2S102,73.68,101.17,73.73Z"/><path class="cls-7" d="M102.4,79s.9-.59,1.09-.66-.12-.56-.28-.51a5.67,5.67,0,0,0-1,.48C102.1,78.44,102.38,78.9,102.4,79Z"/><path class="cls-7" d="M101.8,77.52a11,11,0,0,1,1.1-.66c.19-.06-.13-.55-.29-.5a5.25,5.25,0,0,0-1,.47C101.48,77,101.8,77.42,101.8,77.52Z"/><path class="cls-7" d="M101.16,76a11,11,0,0,1,1.1-.66c.19-.07-.12-.57-.29-.5a5,5,0,0,0-1,.47C100.86,75.44,101.14,75.91,101.16,76Z"/><path class="cls-7" d="M100.13,74.94a10.88,10.88,0,0,1-.17-1.26c0-.21-.56-.11-.58.06a5.24,5.24,0,0,0,0,1.12C99.47,75,100,74.94,100.13,74.94Z"/><path class="cls-4" d="M86.06,52.14c0,.56-.35,3.61-.28,4.4s.41,1,.84,1,.49-2.45.78-2.62.77,1,1.55,1.72,1.64,1.64,2.2,1.74,1.79-1.09,1.55-2.47-4.28-5-5-5.39S86,51.18,86.06,52.14Z"/><path class="cls-17" d="M85.36,50.45c0,.5.45,2.08.78,2.19s2.75,0,3.47-.87c.25-.29-.92-3.73-1.18-4.39S85.25,48.8,85.36,50.45Z"/><path class="cls-11" d="M87.29,105.2c0,1.44-7.17,2.81-16.1,3.06s-16.22-.72-16.26-2.15S62.1,103.29,71,103,87.26,103.73,87.29,105.2Z"/><path class="cls-4" d="M69.93,81.79l7.26-26.52c-.46-3.23-9.67-.88-9.67-.88l-1.27,25.4C67,87.49,68.56,82.7,69.93,81.79Z"/><path class="cls-20" d="M64.48,59.31c0,.51.1,3.22.4,3.52s9.31-1.32,12.15-3,3.22-1.4,3.22-2.21-.5-3.51-1.61-3.88S64.48,57.51,64.48,59.31Z"/><path class="cls-21" d="M62.41,28.5l6.52-.83c.4-.34.33,1.68,1.19,5.21.22.85,6.51,12.66,10.87,21.6.41.85-2.42,3.1-8.75,5.22a41.42,41.42,0,0,1-8.34,1.62s-5.57-19.7-6-22.2c-.32-1.71,1.21-8.47,1.21-8.47Z"/><path class="cls-7" d="M53.36,24.1s.6,1.55.77,1.82S59.9,20.84,53.36,24.1Z"/><path class="cls-4" d="M70.26,76.14c-.69-2.93-3.44-.34-3.88,2.66l-1.45,23.85,2.43.24L70.76,83C70.87,80.46,70.4,78.82,70.26,76.14Z"/><polygon class="cls-14" points="60.24 30.27 58.62 20.51 61.82 19.47 64.14 29.01 62.42 31.74 60.24 30.27"/><path class="cls-14" d="M62.78,25.43s-6.57,3.5-8.08,2a5.52,5.52,0,0,1-.91-1.71c-.1-.24,1.66-.16,2-1.92,0-.24-2.39.7-2.46.45-.69-2.38-1.15-5.49-.66-7.59.84-3.47,4.66-8.38,8-7.33S70.67,14.7,62.78,25.43Z"/><path class="cls-14" d="M54.09,19.51h0l-.17-.43a22.17,22.17,0,0,1-2.87,2.61c2.08,1.89,4.08.06,3.53-2.32a1.2,1.2,0,0,0-.49.14C54,19.58,54,19.55,54.09,19.51Z"/><path class="cls-3" d="M54.37,19.6c0,.57.32,1,.69,1s.66-.47.64-1-.32-1-.69-1S54.35,19,54.37,19.6Z"/><path class="cls-3" d="M59.27,9.16v.05S59.26,9.17,59.27,9.16Z"/><path class="cls-16" d="M66.92,29.26c1.44-.32,2.87-1.4,4.94.34.63.53,12.87,9.08,12.87,9.08l-.63,6.11s-13-7.69-14.74-8C68.09,36.53,65.33,29.62,66.92,29.26Z"/><path class="cls-15" d="M53.78,16.85a7.3,7.3,0,0,1,1.55.09,7.68,7.68,0,0,1,1.23.4l-.22.35a4,4,0,0,1-1-.12,6.7,6.7,0,0,0-1.55,0Z"/><path class="cls-22" d="M53.32,24.28a.13.13,0,0,0,.12,0,6,6,0,0,0,1-.15c.91-.22,1.34-.35,1.34-.35s-2.09-.16-2.55-.27C53,23.46,52.73,24,53.32,24.28Zm2.47-.5a5.2,5.2,0,0,1-2.1,1.7c0,.09.1.78.31.78A2.79,2.79,0,0,0,55.79,23.78Z"/><path class="cls-16" d="M89.54,50.68c.28-.17-2.22-8.59-3.1-9.87S84.33,38.08,83.13,38s-2.08-.53-1.44,2.8c1.89,9.92,3.3,11,3.3,11A11.75,11.75,0,0,0,89.54,50.68Z"/><path class="cls-4" d="M68.15,105.41V104h-.88l0,1.39h-.1c-.52,0-3.62-.14-6.21-.26l.2-1.61h-.93l-.14,1.59a19.4,19.4,0,0,1-2.29-.1s-.41-.16-.42-.18l1.19-1.18-.62-.58-1.11,1.06c-.38-.49-.78-1-.78-1l-.31.34H55.2l-.26.37s.59,1.8,1.63,2.26c.5.23,12.09.44,12.41.43s.36-1,.36-1Z"/><path class="cls-5" d="M57.42,102.92l.08.77s2.79.48,3.74.54,5.34-.69,5.34-.69v1s1.74.36,1.9,0,.78-2.65.35-3.27S58.35,102.7,57.42,102.92Z"/><path class="cls-19" d="M57.32,101.78l3-.52a49.37,49.37,0,0,0,5.47-1.55,2.2,2.2,0,0,0,2.33.11,3.06,3.06,0,0,0,.51-.26,5.21,5.21,0,0,1,.46,1.64v1.2s-4.46.57-7.89.89c-.3,0-3.38-.41-3.72-.41S57.32,101.78,57.32,101.78Z"/><path class="cls-19" d="M64.89,100.38c0-.34-.29-6.52-.13-6.85s1.65-.55,1.75-.06-.14,7.3-.14,7.3S65,102,64.89,100.38Z"/><path class="cls-19" d="M66.42,100.54c-.46-.18-.62-6.08-.46-6.34s3.69-.58,3.63.09-.38,7.8-.74,7.8S67.2,100.84,66.42,100.54Z"/><path class="cls-7" d="M60.39,101.12a12.06,12.06,0,0,1,.52,1.16c0,.21.57,0,.53-.22A4.94,4.94,0,0,0,61.1,101C61,100.89,60.49,101.11,60.39,101.12Z"/><path class="cls-7" d="M61.94,100.68s.47,1,.52,1.17.57,0,.53-.22a4.94,4.94,0,0,0-.34-1.07C62.54,100.46,62,100.68,61.94,100.68Z"/><path class="cls-7" d="M63.51,100.25a10.16,10.16,0,0,1,.52,1.17c0,.2.58,0,.54-.23a6,6,0,0,0-.34-1.07C64.12,100,63.62,100.25,63.51,100.25Z"/><path class="cls-7" d="M64.69,99.35a10.77,10.77,0,0,1,1.28,0c.2,0,.17-.55,0-.58a6.1,6.1,0,0,0-1.13-.11C64.72,98.7,64.72,99.26,64.69,99.35Z"/><path class="cls-15" d="M54.59,12.46l-.32.33A.92.92,0,0,0,54.59,12.46Z"/><path class="cls-15" d="M74.07,15.13a6,6,0,0,1-4.77-1C66.51,12,66,10.11,62.56,9.2a9.2,9.2,0,0,0-5.31.55A8.67,8.67,0,0,0,55.48,11a14,14,0,0,0-1,1.56l.16-.17a9.64,9.64,0,0,1,2.68,2.45,32.77,32.77,0,0,1,1.87,4c1.05,2.25,2.05,5.27,4.54,6.29a10.14,10.14,0,0,0,9-.93c1.91-1.2,3.41-2.48,4-4.66a6.72,6.72,0,0,0-2.14.41c.4-.34,2.17-1.73,2.49-3a7.61,7.61,0,0,0-.26-3.64C76,14.53,75.42,14.69,74.07,15.13Z"/><path class="cls-4" d="M59.9,32.42h-.68l-.3,0c.47,1.66,1,9.13,2.23,13.66a134.54,134.54,0,0,0,5.59,16.43,5.58,5.58,0,0,0,1-.12c-.7-2.62-2.4-4.65-5.65-16.58C61.06,42.35,60.21,33.5,59.9,32.42Z"/><path class="cls-15" d="M56.52,10.75s-3.48.83-4.29,2.39-.19,4.52,1.63,4.95a20.37,20.37,0,0,0,3.82.3S56.43,14.66,57,13C57.57,11.25,56.52,10.75,56.52,10.75Z"/><path class="cls-23" d="M61.63,29.27a2.41,2.41,0,0,0-3.1,1.49c-.25.7.41,3.8,1.11,3.95S63.62,28.61,61.63,29.27Z"/><path class="cls-24" d="M62.69,17.21a32.53,32.53,0,0,0-1.11-3.1,9.59,9.59,0,0,0-1.76-3A4.35,4.35,0,0,0,57.41,10a5.93,5.93,0,0,1-.59-.07,4.41,4.41,0,0,0-1.55.46,3.7,3.7,0,0,0-1,.93l-.05.07.36-.11a7.1,7.1,0,0,1,2.94-.19,3.65,3.65,0,0,1,1.93.83,8.54,8.54,0,0,1,1.44,2.52c.46,1.07.83,2.21,1.07,2.93l.21.72L63,17.9Z"/><path class="cls-24" d="M65.85,18.43a3.58,3.58,0,0,1-6.91,1.84,3.43,3.43,0,0,1-.11-.64,3.58,3.58,0,1,1,6.91-1.84A3.43,3.43,0,0,1,65.85,18.43Z"/><path class="cls-23" d="M68.21,23.49c-.11,1-5.88,1.55-5.82,1.63,1.49,2.28.33,1.6-1.27,3.52-.2.22-1,2.18-1.24,2.32a27.91,27.91,0,0,1-.52,3.4s.62,1,1,.65c8.34-8.91,11.31-5.32,11.53-5.85C73.55,25,71.65,23.48,68.21,23.49Z"/><path class="cls-25" d="M71.45,23.56v.05c-.18.18-.18,0-.29,0l.28-.12v0c.15-.72,0-2.2-1.37-1.43-.43-.93-1.95-1-3.1-.25v.34a1.49,1.49,0,0,0-1.4-.17h0a3.41,3.41,0,0,0-1.32.46v.35c-1.16-.85-3,.46-2.23,1.5-1.31-.08-1.78.87-1.35,1.61-1,.13-2.07,1-1.15,1.56-.64.28-2.07,1.35-.78,1.4-.68.49-.85,1.27-.06,1.43a1,1,0,0,0,.63,1.2c.92.47,2.21-.46,2.23-.46.78-.34,1.9-2.15,1.4-2.81,1-.31,1.55-1.1,1.1-1.73a1.31,1.31,0,0,0,1.38-.7c1.09.55,1.26-.06,2-.4l.28-.1.18.19a1.1,1.1,0,0,0,.22-.31h.06c1.06.52,1.24-.09,2-.41S72.09,24.43,71.45,23.56Z"/><polygon class="cls-4" points="73.81 51.02 73.13 52.22 67.22 49.31 67.86 48.09 73.81 51.02"/></g></g></svg>