<svg id="Layer_3" data-name="Layer 3" xmlns="http://www.w3.org/2000/svg" viewBox="0 0 128 128"><defs><style>.cls-1{fill:#02a8e2;}.cls-2{fill:#9e9c9c;}.cls-3{fill:#eff1ef;}.cls-4{fill:#e86d09;}.cls-5{fill:#aba7a5;}.cls-6{fill:#e5e7e4;}.cls-7{fill:#b35600;}.cls-8{fill:#6b3f01;}.cls-9{fill:#2a4c72;}.cls-10{fill:#5f3501;}.cls-11{fill:#3eb187;}.cls-12{fill:#6b3f1a;}.cls-13{fill:#2c2a2c;}</style></defs><g id="Layer_2" data-name="Layer 2"><g id="Layer_1-2" data-name="Layer 1-2"><path class="cls-1" d="M18.85,17.5V15.39a.43.43,0,0,1,0-.24,11.54,11.54,0,0,1,3.22-7.08,19.46,19.46,0,0,1,6.46-4.36,38.64,38.64,0,0,1,7-2.26c1.39-.35,2.76-.7,4.16-.94A52,52,0,0,1,46.63.05a2.05,2.05,0,0,0,.55,0H53.5l.25,0c1,0,2,.06,3,.1,1.68.06,3.36.18,5,.32,2.1.18,4.2.4,6.27.75A47.7,47.7,0,0,1,78,3.6c1.23.49,2.54.75,3.8,1.16a122.29,122.29,0,0,1,16.34,5.87,57.32,57.32,0,0,1,8.95,4.94,1,1,0,0,1,.25.2,3.26,3.26,0,0,0,1.11.94c.9.55,1.83,1.08,2.74,1.65a21.36,21.36,0,0,1,5.13,4.19,12.29,12.29,0,0,1,2.86,5.73c.09.46.14.94.22,1.41v2c0,.31-.08.62-.12.92a22,22,0,0,1-2.06,6.48,46.79,46.79,0,0,1-5.84,8.9c-.51.63-1.07,1.22-1.52,1.87s-.87,1.25-1.34,1.85a159.41,159.41,0,0,1-11,12.37c-1.65,1.68-3.32,3.33-5,5S89,72.32,87.12,74a113.23,113.23,0,0,1-9.42,7.34,71.26,71.26,0,0,1-10.26,6,4.09,4.09,0,0,0-.68.38c-.88.56-1.76,1.12-2.67,1.62a25.74,25.74,0,0,1-8.88,3.13l-1.53.18H51.4a.78.78,0,0,0-.22,0,17.37,17.37,0,0,1-6.31-1.7,23.29,23.29,0,0,1-7.55-6,41.62,41.62,0,0,1-5.22-8,77.71,77.71,0,0,1-4.62-11.17,35.87,35.87,0,0,0-1.19-3.44,83.31,83.31,0,0,1-4.5-13.48A91,91,0,0,1,19.44,35c-.23-2.38-.35-4.76-.38-7.15q0-3,.19-6a6.7,6.7,0,0,0-.06-1.79c0-.21-.07-.42-.1-.62C19,18.79,18.92,18.15,18.85,17.5Z"/><path class="cls-2" d="M24.13,126.65a5.34,5.34,0,0,1-3,.75H15.88V116.49H21a4.24,4.24,0,0,1,2.65.76,2.46,2.46,0,0,1,1,2h0a2.57,2.57,0,0,1-1.44,2.36,3.57,3.57,0,0,1,1.52,1,2.48,2.48,0,0,1,.52,1.66h0A2.56,2.56,0,0,1,24.13,126.65Zm-2.33-7.77a2,2,0,0,0-1.18-.28H18.23v2.3h2.21a2.4,2.4,0,0,0,1.29-.28,1,1,0,0,0,.46-.87h0A1,1,0,0,0,21.8,118.88Zm.58,4.32a2.37,2.37,0,0,0-1.35-.32h-2.8v2.39h2.88a2.22,2.22,0,0,0,1.26-.29,1,1,0,0,0,.45-.89h0A1,1,0,0,0,22.38,123.2Z"/><path class="cls-2" d="M34.4,125H29.75l-1,2.45H26.28l4.71-11h2.23l4.71,11H35.4Zm-3.8-2.12h2.93l-1.47-3.53Z"/><path class="cls-2" d="M46.29,126.65a4.58,4.58,0,0,1-2.93.89,7.2,7.2,0,0,1-2.48-.44,6.66,6.66,0,0,1-2.19-1.3l1.43-1.69a6.49,6.49,0,0,0,1.59,1,4.09,4.09,0,0,0,1.69.34,2.09,2.09,0,0,0,1.17-.27.86.86,0,0,0,.42-.75h0a.79.79,0,0,0-.17-.54,1.66,1.66,0,0,0-.65-.42,13.16,13.16,0,0,0-1.39-.43,12,12,0,0,1-2-.67,2.65,2.65,0,0,1-1.63-2.66h0a3.07,3.07,0,0,1,.49-1.72A3.33,3.33,0,0,1,41,116.82a4.61,4.61,0,0,1,2-.42,6.42,6.42,0,0,1,4.08,1.39l-1.26,1.81A5.14,5.14,0,0,0,43,118.52a1.8,1.8,0,0,0-1,.26.82.82,0,0,0-.38.69h0a1,1,0,0,0,.2.59,1.67,1.67,0,0,0,.69.41,12.63,12.63,0,0,0,1.52.43,6.94,6.94,0,0,1,2.64,1.19,2.59,2.59,0,0,1,.85,2.08h0A3,3,0,0,1,46.29,126.65Z"/><path class="cls-2" d="M53.23,122.75,52,124.06v3.34H49.53V116.49H52v4.77l4.46-4.77h2.93l-4.48,4.62,4.68,6.29h-2.9Z"/><path class="cls-2" d="M61,116.49h8.3v2.14H63.41v2.2H68.6V123H63.41v2.26h6v2.17H61Z"/><path class="cls-2" d="M76.51,127.4H74.09v-8.7H70.75v-2.21h9.12v2.21H76.53Z"/><path class="cls-2" d="M90,126.65a5.3,5.3,0,0,1-3,.75H81.71V116.49h5.11a4.29,4.29,0,0,1,2.66.76,2.46,2.46,0,0,1,1,2h0A2.58,2.58,0,0,1,89,121.66a3.63,3.63,0,0,1,1.52,1,2.47,2.47,0,0,1,.51,1.66h0A2.54,2.54,0,0,1,90,126.65Zm-2.32-7.77a2,2,0,0,0-1.18-.28H84.07v2.3H86.3a2.4,2.4,0,0,0,1.29-.28,1,1,0,0,0,.46-.87h0A1,1,0,0,0,87.64,118.88Zm.58,4.32a2.45,2.45,0,0,0-1.35-.31h-2.8v2.4H87a2.32,2.32,0,0,0,1.26-.29,1,1,0,0,0,.45-.89h0A1,1,0,0,0,88.22,123.2Z"/><path class="cls-2" d="M100.24,125H95.58l-1,2.45H92.12l4.71-11h2.23l4.71,11h-2.53Zm-3.8-2.12h2.92L97.9,119.3Z"/><path class="cls-2" d="M105.47,116.49h2.42v8.72h5.49v2.19h-7.91Z"/><path class="cls-2" d="M115.2,116.49h2.41v8.72h5.49v2.19h-7.91Z"/><ellipse class="cls-3" cx="67.49" cy="93.32" rx="28.85" ry="2.14"/><path class="cls-4" d="M52,48.8v.79a.17.17,0,0,1,0,.1,6.48,6.48,0,0,1-.22,1.15,1.09,1.09,0,0,1-.07.24,0,0,0,0,1,0,.05.48.48,0,0,1-.06.18v0l-.11.31-.18.42a1.51,1.51,0,0,0-.09.18c0,.06-.07.14-.11.21l-.07.13-.1.17-.07.11-.13.22-.1.14a5.3,5.3,0,0,1-.34.45l-.17.21-.19.2-.15.15-.23.23-.06.06-.07.07-.17.14h0l-.08.07-.06,0-.31.24-.29.19-.32.21a7.86,7.86,0,0,1-2.19.88l-.24.06-.49.08H42.62a.42.42,0,0,1-.24,0,6.06,6.06,0,0,1-.61-.16h0l-.32-.11-.25-.1L41,56l-.27-.12h-.07l-.25-.13h0l-.25-.14-.32-.19-.19-.13-.43-.32,0,0-.26-.21-.24-.23a1.29,1.29,0,0,1-.16-.17l-.16-.17-.21-.22-.23-.29-.21-.29a5.81,5.81,0,0,1-.38-.61,1.09,1.09,0,0,1-.08-.15c-.09-.15-.16-.3-.24-.46l0-.1v-.06c0-.09-.09-.19-.12-.28h0l-.06-.18a6.65,6.65,0,0,1-.34-1,7.06,7.06,0,0,1-.17-1.51v-.58a7.76,7.76,0,0,1,3.47-6,5.7,5.7,0,0,1,.76-.43A7.86,7.86,0,0,1,44.15,41h.75a7.86,7.86,0,0,1,5.45,3c.13.16.26.34.38.51a6,6,0,0,1,.33.54,6.27,6.27,0,0,1,.29.58,1.54,1.54,0,0,1,.08.19v.11c0,.09.09.19.12.3a.75.75,0,0,1,.05.16s0,.09,0,.14a4.64,4.64,0,0,1,.17.64c0,.22,0,.21.06.32s0,.22.06.33a2.81,2.81,0,0,1,0,.29A2.34,2.34,0,0,1,52,48.8Z"/><path class="cls-5" d="M40.8,43.63c4.11-2.61,9.2.33,9.88.76-.1-.15-.2-.29-.31-.43a7.88,7.88,0,0,0-5.45-3h-.75a8,8,0,0,0-3.68.9c-.26.13-.51.28-.76.43a7.82,7.82,0,0,0-3.47,6V49a7.58,7.58,0,0,0,.17,1.5,8.36,8.36,0,0,0,.27,1c0,.05,0,.11.07.17h0a.86.86,0,0,0,.11.29V52l0,.1a4,4,0,0,0,.23.46.53.53,0,0,0,.08.15c.06.11.13.22.19.31l.19.3.22.29.23.29.2.22.16.18.17.16.23.23.26.21.06,0,.06.05C38.85,53.05,36,46.69,40.8,43.63Z"/><path class="cls-6" d="M52,48.8v.79a.17.17,0,0,1,0,.1,6.48,6.48,0,0,1-.22,1.15,1.09,1.09,0,0,1-.07.24,0,0,0,0,1,0,.05.48.48,0,0,1-.06.18v0l-.11.31-.18.42a1.51,1.51,0,0,0-.09.18c0,.06-.07.14-.11.21l-.07.13-.1.17-.07.11-.13.22-.1.14a5.3,5.3,0,0,1-.34.45l-.17.21-.19.2-.15.15-.23.23-.06.06-.07.07-.17.14h0l-.08.07-.06,0-.31.24-.29.19-.32.21a7.86,7.86,0,0,1-2.19.88l-.24.06-.49.08H42.62a.42.42,0,0,1-.24,0,6.06,6.06,0,0,1-.61-.16l-.32-.11-.25-.1L41,56l-.27-.12h-.07l-.25-.13h0l-.25-.14-.32-.19-.19-.13-.43-.32,0,0-.26-.21-.24-.23h0a1.29,1.29,0,0,1-.16-.17l-.16-.17-.21-.22-.23-.29-.21-.29a5.81,5.81,0,0,1-.38-.61,1.09,1.09,0,0,1-.08-.15c-.09-.15-.16-.3-.24-.46l0-.1v-.06c0-.09-.09-.19-.12-.28h0l-.06-.18a6.65,6.65,0,0,1-.34-1A16.41,16.41,0,0,0,38.87,53q.26.18.51.33a5.3,5.3,0,0,0,.9.43,6.4,6.4,0,0,0,1,.28,6.17,6.17,0,0,0,.62.09h0a7.69,7.69,0,0,0,3.33-.43,5.36,5.36,0,0,0,.6-.24l.32-.16a7.48,7.48,0,0,0,2.1-1.69,5.58,5.58,0,0,0,.38-.47,9.26,9.26,0,0,0,1.71-4.69,2.32,2.32,0,0,1,0-.58v-.92a6.52,6.52,0,0,0-.1-1,6.28,6.28,0,0,1,.38.52c.12.17.23.36.34.54s.19.38.29.58l.07.19v.1a1.1,1.1,0,0,0,.12.31l0,.15c0,.06,0,.1.05.15.06.21.12.42.17.64l.06.32c0,.12,0,.22,0,.33a1.41,1.41,0,0,1,0,.29A1.53,1.53,0,0,1,52,48.8Z"/><path class="cls-7" d="M48.81,55.12l-.29.2-.32.2a9,9,0,0,1-2.89-1.84,18.13,18.13,0,0,1-2.42-2.76,15.79,15.79,0,0,1-1.08-1.59c-.11-.16-.21-.33-.31-.5a11.79,11.79,0,0,1-1.09-2.53c-.06-.21-.12-.42-.19-.63a7,7,0,0,1-.47-3.36,7.9,7.9,0,0,1,.76-.43c-.47,1.11-.09,2.33.29,3.63.07.21.13.42.19.63a10.65,10.65,0,0,0,1,2.3c.09.17.19.33.29.5h0c.37.59.76,1.14,1.12,1.64a17.21,17.21,0,0,0,2.54,2.85A7.91,7.91,0,0,0,48.81,55.12Z"/><path class="cls-7" d="M41.77,56.26h0c-.11-.75-.24-1.51-.42-2.26a9.05,9.05,0,0,0-1.1-2.74c0-.06-.07-.12-.11-.18a2.69,2.69,0,0,0-.26-.33,5.58,5.58,0,0,0-3.61-1.86v-.58a6.22,6.22,0,0,1,3.94,2,3.24,3.24,0,0,1,.37.46v.05a10,10,0,0,1,1.34,3.32h0a22.82,22.82,0,0,1,.41,2.32Z"/><path class="cls-7" d="M51.5,51.66l-.18.42a1.42,1.42,0,0,0-.08.18H51a6,6,0,0,1-2.21-.45l-.51-.23a7.8,7.8,0,0,1-2.66-2.35,8.42,8.42,0,0,1-.95-1.65c-.07-.18-.15-.35-.22-.53A9.49,9.49,0,0,1,44.31,41h.6A8.89,8.89,0,0,0,45,46.83c.07.18.14.35.22.53a7.31,7.31,0,0,0,.87,1.51,7,7,0,0,0,2.57,2.22l.35.16A5.31,5.31,0,0,0,51.5,51.66Z"/><path class="cls-7" d="M51.62,46.36l-1.24.07a24.5,24.5,0,0,0-5.15,1l-.55.19a8.27,8.27,0,0,0-2.17,1.12l-.3.23h0c-.14.13-.3.26-.43.39a8.12,8.12,0,0,0-1.22,1.4l-.34.55a7.87,7.87,0,0,0-.77,2,7.09,7.09,0,0,0-.22,1.59l0,0-.26-.22-.24-.22h0A7.52,7.52,0,0,1,38.94,53a9.31,9.31,0,0,1,1-2.21l.34-.49a8.35,8.35,0,0,1,1.28-1.44,4.19,4.19,0,0,1,.45-.39l.2-.19a8.88,8.88,0,0,1,2.28-1.2c.17-.07.36-.13.55-.19a23.79,23.79,0,0,1,5.42-1c.32,0,.65,0,1-.05h0v.1a1.1,1.1,0,0,0,.12.31Z"/><path class="cls-8" d="M72.64,57.22s2,2.35,2,3.68v3s3.8,9,3.71,9.28-1,.75-1,.75a8.75,8.75,0,0,1,2.36,2.49c1.35,1.92,2.86,8.85,2.86,8.85s2.4,1.77,2.74,2.83.92,1.51-.44,2.2a17.75,17.75,0,0,1-3.61,1.05c-1.07.33-3.48,1.71-4.92,1.79-1,.06-2.45-.53-2.59-1.24s1.33-.31,2.68-1.6a33.52,33.52,0,0,0,3-3.54s-5.73-8.27-6.32-9a7,7,0,0,0-1.78-1.43l-1.07.15-3.8-11.92S69.75,59.18,72.64,57.22Z"/><path class="cls-9" d="M71,76.35c1.33-.56,2.5-1.41,3.8-2a4.57,4.57,0,0,1,2.72-.49c.29-.14.76-.41.84-.61s-3.71-9.28-3.71-9.28v-3c0-1.33-2-3.68-2-3.68-2.88,2-6.17,7.32-6.17,7.32l3.8,11.92Z"/><path class="cls-6" d="M71,76.35c1.33-.56,2.5-1.41,3.8-2a4.57,4.57,0,0,1,2.72-.49c.29-.14.76-.41.84-.61s-3.71-9.28-3.71-9.28v-3c0-1.33-2-3.68-2-3.68-2.88,2-6.17,7.32-6.17,7.32l3.8,11.92Z"/><path class="cls-10" d="M62.26,33.78c-.19,0-1.58,1.61-3,5.41a34.83,34.83,0,0,1-2,4.25l-5.94,2.35.76,3S59,48,60,47.21s2.1-4.82,2.92-7S65.35,33.49,62.26,33.78Z"/><path class="cls-11" d="M58.69,41.63a4.89,4.89,0,0,0,1.66,1.11,5.69,5.69,0,0,0,1.52.3c.35-1,.69-2,1-2.8.82-2.16,2.5-6.78-.59-6.46a19.27,19.27,0,0,0-4.56,7C57.81,40.91,58.57,41.51,58.69,41.63Z"/><path class="cls-6" d="M58.69,41.63a4.89,4.89,0,0,0,1.66,1.11,5.69,5.69,0,0,0,1.52.3c.35-1,.69-2,1-2.8.82-2.16,2.5-6.78-.59-6.46a19.27,19.27,0,0,0-4.56,7C57.81,40.91,58.57,41.51,58.69,41.63Z"/><path class="cls-12" d="M74.67,56.91c-.07-.93-1.37-6.67-1.37-11s-.44-9-2-11.55a16.27,16.27,0,0,0-3.18-3.88s.17-.87.65-1.15C71.24,28,72.15,24.19,72,22.46s-1.09-5.88-6.7-6.9-7,2.31-7.81,3.6.43,1.51.43,1.51a9.54,9.54,0,0,0-1,4.09c.07,2,.76,5.17,2.6,5.88a9.28,9.28,0,0,0,2.75.51s0,2.87,0,3.23A16,16,0,0,0,60.05,40a30.27,30.27,0,0,0,.14,6.24L61,51.07l.19,7.53L53.9,70.86l.62,1.06a4.88,4.88,0,0,0-.36,1.64,11.32,11.32,0,0,0,1,2.5c.19.28,3.68,12.06,3.68,12.06a12.85,12.85,0,0,1-2.16,1.72,6.16,6.16,0,0,1-4.16.75c-1.15,0,.14,1.9.14,1.9A6.73,6.73,0,0,0,55,93.4c1.09.16,4.42-.65,5.8-.22a4.75,4.75,0,0,0,2.89,0c.51-.15.58-1.23.44-2.45a7.56,7.56,0,0,0-1.72-2.94s.2-6.6.05-8.82a6,6,0,0,0-1.68-3.58h1.52s.65-.22,1.45-1.66,3.62-8.29,3.62-8.29,1.52-1.08,3.54-2.87,1.74-3.52,1.74-3.52l1.3-.57A1.83,1.83,0,0,0,74.67,56.91Z"/><path class="cls-10" d="M62.26,31.15v3.23s-.25.39-.59,1a6.92,6.92,0,0,0,4.3-1.5c.84-.62,1.62-1.32,2.46-1.94.2-.15.43-.32.69-.49a10.06,10.06,0,0,0-1-1s.17-.88.65-1.15A4.8,4.8,0,0,0,70.25,28a3.7,3.7,0,0,0-1.52-.17,6.06,6.06,0,0,0-3,1.36,8.46,8.46,0,0,1-3.17,1.55,7.83,7.83,0,0,1-3.3-.26,1.87,1.87,0,0,0,.32.15A9.76,9.76,0,0,0,62.26,31.15Z"/><path class="cls-8" d="M74.67,56.91c-.07-.93-1.37-6.67-1.37-11s-.44-9-2-11.55a17.86,17.86,0,0,0-2-2.72c-.76.52-1.45,1.11-1.87,1.46a16.15,16.15,0,0,1-2.82,2,6.11,6.11,0,0,1-3.09.59A13.79,13.79,0,0,0,60,39.94a29.48,29.48,0,0,0,.14,6.23L61,51.05l.19,7.54L53.9,70.86l.62,1.06a4.88,4.88,0,0,0-.36,1.64,11.32,11.32,0,0,0,1,2.5c.19.28,3.68,12.06,3.68,12.06a12.85,12.85,0,0,1-2.16,1.72,6.16,6.16,0,0,1-4.16.75c-1.15,0,.14,1.9.14,1.9A6.73,6.73,0,0,0,55,93.4c1.09.16,4.42-.65,5.8-.22a4.75,4.75,0,0,0,2.89,0c.51-.15.58-1.23.44-2.45a7.56,7.56,0,0,0-1.72-2.94s.2-6.6.05-8.82a6,6,0,0,0-1.68-3.58h1.52s.65-.22,1.45-1.66,3.62-8.29,3.62-8.29,1.52-1.08,3.54-2.87,1.74-3.52,1.74-3.52l1.3-.57A1.83,1.83,0,0,0,74.67,56.91Z"/><path class="cls-13" d="M62.32,87.84h0a4.4,4.4,0,0,0-2,1,2.37,2.37,0,0,1-2.4.09c-.4.31-.8.61-1.23.88a6.15,6.15,0,0,1-4.15.76c-1.15,0,.14,1.9.14,1.9a7,7,0,0,0,2.28.91c1.09.16,4.42-.66,5.79-.23a4.75,4.75,0,0,0,2.89,0c.51-.14.59-1.22.44-2.44A7.22,7.22,0,0,0,62.32,87.84Z"/><path class="cls-5" d="M61.61,92.41a19.83,19.83,0,0,1-2.44-.09,19.89,19.89,0,0,0-2,.31c-1.77.26-4.16,0-4.66-2-1.07,0,.18,1.9.18,1.9a7,7,0,0,0,2.28.91c1.09.16,4.42-.66,5.79-.23a4.75,4.75,0,0,0,2.89,0c.44-.13.56-1,.49-2A5.94,5.94,0,0,1,61.61,92.41Z"/><path class="cls-9" d="M73.51,49.43a19.75,19.75,0,0,1-4.09,3.19,14.64,14.64,0,0,1-8.32,1.85l.11,4.14L53.9,70.86l.62,1.06s1.45,2,6.52,3.44h1.22s.65-.22,1.45-1.65,3.62-8.29,3.62-8.29,1.52-1.08,3.54-2.87S72.61,59,72.61,59l1.3-.58a1.8,1.8,0,0,0,.76-1.5C74.62,56.21,73.88,52.88,73.51,49.43Z"/><path class="cls-11" d="M74.67,56.91c-.07-.93-1.37-6.67-1.37-11s-.44-9-2-11.55a16.71,16.71,0,0,0-2.94-3.66h-.27a5.85,5.85,0,0,0-2.83.94,9.4,9.4,0,0,0-3,2.53l-.76,1.32A14,14,0,0,0,60.05,40a30.27,30.27,0,0,0,.14,6.24h0a38.47,38.47,0,0,1,.86,5.22l.17,6.86a5.89,5.89,0,0,0,2.93,1c1.23,0,2.47,0,3.71,0a13.43,13.43,0,0,0,3.8.12c.32-.07.63-.16.93-.25V59l1.3-.58A1.8,1.8,0,0,0,74.67,56.91Z"/><path class="cls-6" d="M73.76,51.37a9.48,9.48,0,0,0-1.52-1.82,5.07,5.07,0,0,0-2.77-1.42c-.9-.1-1.82.13-2.72,0-1.85-.28-3-2-4.17-3.31A20.09,20.09,0,0,1,60,41.34a33.84,33.84,0,0,0,.25,4.83h0c.1,2.17,1,4.32.85,5.22l.18,6.87a6.09,6.09,0,0,0,2.93,1c1.23,0,2.47-.06,3.71,0a13.81,13.81,0,0,0,3.8.12l.93-.26V59l1.3-.57a1.83,1.83,0,0,0,.76-1.51C74.63,56.35,74.14,54.05,73.76,51.37Z"/><path class="cls-13" d="M57.61,20.53a.14.14,0,0,1,.12-.07,13.22,13.22,0,0,0,2.18,0c.56-.08,1.11-.2,1.68-.26a5.5,5.5,0,0,1,2.72.36,2.53,2.53,0,0,1,1.37,1.3,2.61,2.61,0,0,1,.19,1.1c0,.39-.22.9.16,1.12s.61-.09,1,.1a1.26,1.26,0,0,1,.49.65A2.6,2.6,0,0,1,67,26.6a5.21,5.21,0,0,0-.54,1,1.28,1.28,0,0,0,1,1.54,1.36,1.36,0,0,0,.29,0,3.34,3.34,0,0,0,1.9-.49A8.84,8.84,0,0,0,72,22.44c-.15-1.72-1.09-5.88-6.67-6.9s-7,2.31-7.81,3.6C57,20,57.31,20.35,57.61,20.53Z"/><path class="cls-6" d="M71.33,19.87c-.12.09-.23.19-.35.27a4,4,0,0,1-4.7.24,5.38,5.38,0,0,0-2.36-1.45,9.62,9.62,0,0,0-2.78.16,4.81,4.81,0,0,1-3.31-.45l-.31.52c-.5.82-.21,1.2.09,1.37a.14.14,0,0,1,.12-.07,13.22,13.22,0,0,0,2.18,0c.56-.08,1.11-.2,1.68-.26a5.5,5.5,0,0,1,2.72.36,2.53,2.53,0,0,1,1.37,1.3,2.61,2.61,0,0,1,.19,1.1c0,.39-.22.9.16,1.12s.61-.09,1,.1a1.26,1.26,0,0,1,.49.65A2.6,2.6,0,0,1,67,26.6a5.21,5.21,0,0,0-.54,1,1.28,1.28,0,0,0,1,1.54,1.36,1.36,0,0,0,.29,0,3.34,3.34,0,0,0,1.9-.49A8.84,8.84,0,0,0,72,22.44,8.2,8.2,0,0,0,71.33,19.87Z"/><path class="cls-12" d="M65.91,38.4c-3.29,0-3,5.35-3,6s-.27,2.26-.86,2.36c-2.62.61-10.91,1.56-11.2,1.56s-3-1.81-3.5-1.3.7,1,.5,1.27-2.82-.71-3.23,0,2.76,1.06,2.76,1.26-3.84-.28-3.89.48,3.23.38,3.23.53-1.91.71-2.45,1,0,.75.31.75a25.25,25.25,0,0,1,2.88-.4c.3.1-.92.76-.62,1.31s3.9-1.76,4-1.81,7.9.53,9.45.64c5.32-.39,5.85-1.15,6.77-2.77.25-.44,1.07-3.51,1.07-3.51S69.46,38.4,65.91,38.4Z"/><path class="cls-11" d="M65.66,45.1a12,12,0,0,0,4,0s.13-1.14.13-1.65V42.39a19.59,19.59,0,0,0-.13-2c-.17-1.56-.16-3.4-.87-4.81a3.67,3.67,0,0,0-2.06-1.71,2.92,2.92,0,0,0-2.28.59,6.41,6.41,0,0,0-1.77,3,20.67,20.67,0,0,0-.61,2.31c-.15.75-.54,3.39-.63,4A9.06,9.06,0,0,0,65.66,45.1Z"/><path class="cls-5" d="M63.36,40c.44-1.36.76-3.7,1.87-4.65a3.11,3.11,0,0,1,3.75.47l-.15-.32a3.67,3.67,0,0,0-2.06-1.71,2.92,2.92,0,0,0-2.28.59,6.41,6.41,0,0,0-1.77,3,20.67,20.67,0,0,0-.61,2.31c-.15.75-.54,3.39-.63,4a5.13,5.13,0,0,0,1,.53A26.08,26.08,0,0,1,63.36,40Z"/><path class="cls-13" d="M85.29,88.08c-.31-1-2.34-2.52-2.69-2.78A9.9,9.9,0,0,0,81,86.69a3.36,3.36,0,0,1-2.12.7,29.54,29.54,0,0,1-2.49,2.88c-1.35,1.29-2.82.88-2.68,1.59s1.6,1.31,2.59,1.25c1.44-.08,3.85-1.46,4.92-1.8a16.72,16.72,0,0,0,3.61-1C86.19,89.55,85.62,89.13,85.29,88.08Z"/><path class="cls-5" d="M81.8,90.14c-1.2.4-2.56,1.14-3.8,1.51a5.52,5.52,0,0,1-4.2.14.14.14,0,0,1-.09-.14.34.34,0,0,0,0,.2c.14.75,1.59,1.3,2.58,1.24,1.45-.08,3.86-1.45,4.92-1.79a16.31,16.31,0,0,0,3.62-1c1.2-.64.88-1,.55-1.88C84.61,89.46,83.18,89.71,81.8,90.14Z"/></g></g></svg>