<svg id="Layer_2" data-name="Layer 2" xmlns="http://www.w3.org/2000/svg" viewBox="0 0 128 128"><defs><style>.cls-1{fill:#ffc023;}.cls-2{fill:#9e9c9c;}.cls-3{opacity:0.1;}.cls-4{fill:#1b1c20;}.cls-5{fill:#e6aa6e;}.cls-6{fill:#225251;}.cls-7{fill:#1d4544;}.cls-8{fill:#fff;}.cls-9{fill:#ffc285;}.cls-10{fill:#461d00;}.cls-11{fill:#bd5f11;}.cls-12{fill:#c3c5c8;}.cls-13{fill:#c9df00;}.cls-14{fill:#636e00;}.cls-15{fill:#68a67f;}.cls-16{fill:#78bf92;}.cls-17{fill:#7fc9f7;}.cls-18{fill:#55aee5;}.cls-19{fill:#bdf25a;}.cls-20{fill:#699638;}.cls-21{fill:#d8dadc;}.cls-22{fill:#7eb544;}.cls-23{fill:#b5b5b5;}.cls-24{fill:#ccc;}.cls-25{fill:#2e89b0;}.cls-26{fill:#7d4624;}.cls-27{fill:#dbdbdb;}.cls-28{fill:#eb5a00;}.cls-29{fill:#c94d00;}.cls-30{fill:#cc6a00;}.cls-31{fill:#703a00;}.cls-32{fill:#a1e3ff;}.cls-33{fill:#7aadc2;}.cls-34{fill:#4aa5ff;}</style></defs><g id="Layer_2-2" data-name="Layer 2"><g id="Layer_1-2" data-name="Layer 1-2"><path class="cls-1" d="M17.92,18V16c0-.08,0-.17,0-.25a11.66,11.66,0,0,1,3.2-7,19.62,19.62,0,0,1,6.42-4.33,38.65,38.65,0,0,1,6.9-2.25c1.37-.32,2.74-.7,4.13-.92A54.58,54.58,0,0,1,45.49.69a1.63,1.63,0,0,0,.54,0h6.53c1,0,2,.06,3,.1,1.67.06,3.34.18,5,.32,2.09.18,4.17.4,6.23.75a47.83,47.83,0,0,1,9.87,2.38c1.23.49,2.52.79,3.77,1.16a121.11,121.11,0,0,1,16.22,5.85,57,57,0,0,1,8.84,4.92.69.69,0,0,1,.25.2,3.15,3.15,0,0,0,1.1.92c.91.56,1.82,1.09,2.73,1.65a21.14,21.14,0,0,1,5.08,4.15,12.07,12.07,0,0,1,2.84,5.7c.09.47.15.93.22,1.41v2l-.12.91a21.5,21.5,0,0,1-2,6.45,46.21,46.21,0,0,1-5.78,8.86c-.5.63-1.06,1.22-1.55,1.87s-.86,1.24-1.33,1.84A156.89,156.89,0,0,1,96,64.48c-1.62,1.68-3.29,3.32-5,4.93s-3.54,3.29-5.36,4.86a115.58,115.58,0,0,1-9.35,7.3,71.23,71.23,0,0,1-10.18,6,6.42,6.42,0,0,0-.68.37c-.86.58-1.74,1.12-2.65,1.63A25.2,25.2,0,0,1,54,92.69c-.49.08-1,.12-1.51.18H50.23c-.08,0-.15,0-.22,0a17,17,0,0,1-6.26-1.69,23.15,23.15,0,0,1-7.5-6,41.17,41.17,0,0,1-5.18-8A78.07,78.07,0,0,1,26.49,66c-.38-1.14-.68-2.31-1.17-3.42a81.62,81.62,0,0,1-4.48-13.42A91.09,91.09,0,0,1,18.5,35.43c-.22-2.37-.34-4.74-.37-7.13,0-2,0-4,.18-5.95a6.31,6.31,0,0,0,0-1.79,4.69,4.69,0,0,0-.1-.62C18.08,19.33,18,18.69,17.92,18Z"/><path class="cls-2" d="M26.23,126.71a5.26,5.26,0,0,1-3,.75H18V116.61H23.1a4.06,4.06,0,0,1,2.63.75,2.43,2.43,0,0,1,1,2h0a2.55,2.55,0,0,1-1.44,2.34,3.6,3.6,0,0,1,1.51,1,2.58,2.58,0,0,1,.52,1.65h0A2.56,2.56,0,0,1,26.23,126.71ZM23.92,119a1.93,1.93,0,0,0-1.17-.29H20.38V121H22.6a2.44,2.44,0,0,0,1.27-.28.94.94,0,0,0,.46-.87h0A1,1,0,0,0,23.92,119Zm.58,4.3a2.32,2.32,0,0,0-1.34-.3H20.38v2.38h2.85a2.22,2.22,0,0,0,1.26-.29,1,1,0,0,0,.45-.89h0A1,1,0,0,0,24.5,123.29Z"/><path class="cls-2" d="M36.42,125H31.81l-.95,2.44h-2.5L33,116.53h2.22l4.65,10.94H37.43Zm-3.77-2.11h2.9L34.1,119.4Z"/><path class="cls-2" d="M50.94,124.79a5.25,5.25,0,0,1-2.06,2,6.23,6.23,0,0,1-3,.72H41.62V116.61h4.26a6.33,6.33,0,0,1,3,.7,5.16,5.16,0,0,1,2.06,2,5.32,5.32,0,0,1,.76,2.75h0A5.33,5.33,0,0,1,50.94,124.79Zm-2.18-4.45a3,3,0,0,0-1.17-1.17,3.39,3.39,0,0,0-1.71-.42H44v6.55h1.86a3.49,3.49,0,0,0,1.71-.42,3,3,0,0,0,1.17-1.14,3.43,3.43,0,0,0,.41-1.69h0A3.43,3.43,0,0,0,48.76,120.34Z"/><path class="cls-2" d="M62.35,120.38,59.28,125h-.07l-3-4.58v7H53.81V116.61h2.6l2.87,4.59,2.87-4.59h2.58v10.86H62.35Z"/><path class="cls-2" d="M67.46,116.61h2.41v10.86H67.46Z"/><path class="cls-2" d="M75,120.56v6.91H72.59V116.61h2.22l5.1,6.68v-6.68h2.37v10.86h-2Z"/><path class="cls-2" d="M89.86,127.47h-2.4v-8.66H84.13v-2.2h9.06v2.2H89.87Z"/><path class="cls-2" d="M104.91,124.86a5.44,5.44,0,0,1-2.08,2,6,6,0,0,1-3,.75,5.87,5.87,0,0,1-3-.75,5.5,5.5,0,0,1-2.07-2,5.6,5.6,0,0,1-.76-2.82h0a5.41,5.41,0,0,1,.76-2.82,5.58,5.58,0,0,1,2.08-2,6.28,6.28,0,0,1,6,0,5.44,5.44,0,0,1,2.81,4.84h0A5.36,5.36,0,0,1,104.91,124.86Zm-2.18-4.54a3.31,3.31,0,0,0-1.17-1.24,3.25,3.25,0,0,0-4.45,1.08,1,1,0,0,0-.08.14A3.5,3.5,0,0,0,96.6,122h0a3.51,3.51,0,0,0,.44,1.71,3.19,3.19,0,0,0,2.87,1.7,3.25,3.25,0,0,0,1.7-.45,3.19,3.19,0,0,0,1.16-1.23,3.6,3.6,0,0,0,.42-1.7h0A3.6,3.6,0,0,0,102.73,120.32Z"/><path class="cls-2" d="M110.17,120.56v6.91h-2.34V116.61h2.22l5.11,6.68v-6.68h2.37v10.86h-2Z"/><g class="cls-3"><ellipse class="cls-4" cx="18.1" cy="90.97" rx="21.21" ry="1.19"/></g><path class="cls-5" d="M32.52,43.46c-1.8-2,8.5-10.07,8.15-10.78-.27-.54-2.33-6.82-3-8.53-.42-.49-1.91-1.69-2-1.92s-.17-.5-.44-1.13c-.15-.37.54-.87.54-.87.13-1.19.32-1.27.76-1.08a5.35,5.35,0,0,1,1.7,1.12,4.06,4.06,0,0,1,.62,1.54c0,.15.19,1.34.18,1.71a52.44,52.44,0,0,1,4.53,9.39C43.68,33.69,35.79,47.11,32.52,43.46Z"/><path class="cls-6" d="M34,17.83s-4.24-5.11-4.24-5.18l.33-.07c.07,0,4.12,5,4.12,5Z"/><polygon class="cls-6" points="38.97 22.55 38.07 23.24 34.25 18.7 33.84 17.65 34.15 17.41 35.2 18.1 38.97 22.55"/><path class="cls-7" d="M22.47,4.94l-.32.12L22.08,5h0l.06.09L22,5.1l.05.06.13,0,.22.31-.43.17v.06l.44-.17.26.34L22.3,6l-.21-.29H22l.21.29-.33.13h0l.32.43L22,6.59v.06l.21-.08.29.39-.43.16v.06h.08l.29.38-.1,0,0,.07.11,0,.28.4-.28.1,0,.07.29-.11.28.38-.39.15.05.06.39-.15.29.39-.37.14,0,.06L23.51,9l.29.38-.41.16v.06l.42-.16.28.38-.34.14V10l.35-.14.29.39-.33.13,0,.06.33-.13.29.39-.25.1.05.06.24-.1.29.39-.24.09,0,.06.25-.1.28.38h0v0l.31-.13.28.38-.1,0V12l.11,0,.23.31h.06l.06-.3.29-.12.42.57h.06L27,12.2l.31-.12.26.35-.38.15v0l.38-.14.26.35h.05l-.26-.35.32-.13.26.36-.32.12v.05l.32-.13.06.08h.05l-.05-.08.35-.17.17.22h0l-.17-.22.32-.13.18.25h.05L29,12.46l.32-.13.18.25h.05l-.18-.25.32-.12.2.27H30l-.2-.27L30.1,12l.09.13h0L30.15,12l.32-.13,0,.05h0l0-.08.26-.1v-.05l-.26.1-.27-.35.32-.12v0h.05v0l.29-.11,0-.08-.29.11-.26-.35.32-.12.05.07h.05l-.63-.89.32-.12.31.42h.05l-.3-.42.11,0V9.72l-.12,0-.26-.36.28-.11,0-.06-.28.11L29.87,9l.43-.16-.05-.06-.42.16-.29-.39L30,8.33,30,8.27l-.46.17-.34-.36.56-.22,0-.06L29.11,8l-.29-.4.56-.21,0-.09-.57.21-.29-.38L29,6.94,29,6.88l-.54.21-.28-.39.47-.18-.05-.07-.47.18-.28-.38.45-.17L28.24,6l-.45.17-.29-.37.37-.13,0-.08-.37.14-.28-.39.19-.08,0-.06-.2.08-.28-.38h0l-.05-.06h0l-.17-.23h-.05l.17.23L26.43,5l-.28-.39.11,0V4.49l-.11,0-.21-.28h-.05l.2.27-.32.13-.25-.34.32-.12V4.13l-.33.12-.27-.37h0l.27.37-.33.12-.22-.31L25.12,4V3.92L24.9,4l-.18-.25h0l.18.25-.33.12-.21-.29.47-.18-.05-.06-.46.18h-.06l-.32.12-.14-.19H23.7l.14.19L23.51,4l-.26-.36h-.06l.27.35-.33.12-.21-.31h-.06l.22.29-.32.12-.21.1h0l.07.1L22,4.66l.05.06.27-.1Zm.16-.43.21.29-.29.12-.22-.29Zm2.61,1.58.29.39-.32.12-.29-.39Zm-.36.06-.29-.38.33-.12L25.2,6ZM26.49,9l-.29-.39.32-.12.29.39Zm.36-.06.28.38-.31.13L26.53,9Zm0-.6.29.39-.32.12-.28-.38Zm-.36.07L26.24,8l.33-.12.29.38Zm-.1.61-.31.12-.29-.38.32-.13Zm-.65-.32-.28-.39.31-.12.29.39Zm.09-.54L26.19,8l.29.39-.33.12Zm0-.06-.26-.38.32-.12.29.38Zm.08-.53.33-.13.28.39-.32.12Zm0-.06-.3-.38L25.89,7l.29.38ZM26,7l.32-.12.29.38-.33.13Zm.65.32.28.39-.31.12-.25-.38Zm.33.45.28.38-.31.13-.29-.39Zm.33.44.29.39-.33.12L27,8.3Zm.33.45.29.39-.33.12-.28-.39Zm-.09.53-.32.13-.28-.39.31-.12Zm0,.06.28.37-.33.12-.29-.39Zm.33.45.29.38-.34.14-.29-.39Zm-.09.52-.32.13-.29-.39.32-.12Zm-.65-.32-.29-.38.32-.13.29.39Zm-.06,0-.32.12-.28-.38.32-.13Zm-.65-.28-.29-.39.33-.12.28.38Zm-.05,0-.32.12-.29-.39.32-.12Zm-.65-.33-.29-.38.32-.12.29.38Zm-.33-.42-.29-.39.32-.12.29.39Zm-.34-.45L24.82,8l.32-.12.29.38Zm.09-.53.32-.12.29.38-.32.12Zm0-.06-.3-.4.32-.12.29.39Zm.09-.53.32-.12.28.39-.31.12Zm-.05-.06-.28-.39.32-.12.28.39Zm.1-.53.31-.1.29.39-.32.12Zm0-.59L25.62,6l.28.39-.31.12ZM26,6.4l.29.39-.33.12-.28-.38Zm.05,0,.33-.13.28.39-.32.12Zm.65.32.29.39-.32.12-.29-.41Zm.33.45.29.39L27,7.68l-.28-.39Zm.34.45L27.6,8l-.32.13L27,7.74Zm.33.44.28.39-.32.12-.29-.39Zm.32.45.29.38L27.94,9l-.28-.38ZM28.3,9l.29.39-.32.12L28,9.07Zm-.09.54-.31.12-.29-.39.32-.12Zm.05.06.29.38-.32.12-.29-.38Zm.33.44.27.37-.32.12-.27-.36Zm-.1.51-.32.12-.27-.36.32-.13Zm0,.05.26.36-.31.12-.27-.36Zm-.11.51-.32.12-.26-.39.31-.12Zm-.63-.3-.27-.36.32-.15.26.37Zm-.05,0-.33.12-.26-.36.32-.13Zm-.64-.3-.28-.39.31-.12.29.38Zm-.05,0-.32.13-.29-.39.32-.12Zm-.66-.32-.28-.38.32-.13.29.39Zm-.05,0-.32.19-.28-.39.32-.12Zm-.65-.32-.28-.39.31-.12L26,9.7Zm-.33-.45L25.07,9l.33-.12.28.39ZM25,8.92l-.28-.39.32-.12.28.39Zm-.33-.45-.28-.38L24.73,8l.29.38Zm-.33-.39-.31-.4.32-.12.29.39Zm.09-.54.32-.12.29.39-.32.12Zm0-.06-.29-.38L24.45,7l.28.38ZM24.5,7l.32-.12.29.38-.29.1Zm0-.06-.29-.39.32-.12.29.39Zm.08-.54.33-.12.28.39-.32.12Zm0-.06-.28-.38.32-.12.28.38Zm-.36-.48-.29-.39.32-.12.28.39Zm-.34-.44-.25-.31L23.91,5l.25.33ZM24,4.9l.33-.13.25.34-.32.13Zm.62.27.29.39-.32.12-.29-.39Zm.06,0L25,5l.29.39-.33.12Zm.65.32.28.39L25.26,6,25,5.61Zm.06,0,.31-.12.29.39-.32.12Zm.64.33.29.38L26,6.33l-.29-.39Zm.06,0,.32-.12.28.38-.32.13Zm.65.32.28.39-.31.12-.29-.38Zm.33.45.29.38L27,7.1l-.28-.39Zm.33.44.29.39-.33.12L27,7.16Zm.33.45.28.39L27.66,8l-.29-.39Zm.33.45.28.39L28,8.44l-.29-.39Zm.33.45.29.38-.32.12L28,8.5Zm.33.44.29.39-.33.12-.28-.39Zm.33.45.29.38L29,9.77l-.29-.38Zm-.09.52-.31.12-.29-.38.32-.12Zm0,.06.26.37-.31.12L28.64,10Zm.31.42.26.36-.32.13L29,10.39Zm-.12.51-.31.12-.26-.39.32-.12Zm0,0,.26.35-.32.13-.25-.36Zm-.11.5-.32.12-.26-.36.32-.13Zm-.38.14-.32.13-.25-.35.32-.12Zm-.37.14-.32.13-.26-.35.33-.12Zm-.61-.27L27.46,11l.32-.12.27.36Zm-.06,0-.32.12-.27-.37.33-.12ZM27,11l-.27-.36.32-.13.27.37ZM27,11l-.31.12-.28-.36.33-.13Zm-.63-.3-.28-.4.32-.12.28.38Zm-.05,0-.32.13-.29-.39.32-.12Zm-.65-.32L25.36,10l.32-.12.28.38ZM25.32,10,25,9.58l.32-.12.29.39ZM25,9.52l-.28-.39L25,9l.29.39Zm-.32-.45-.29-.39.32-.12L25,9Zm-.33-.45-.27-.35.33-.12.28.38ZM24,8.18l-.28-.39.35-.09.29.39Zm-.32-.44-.29-.39.32-.12.29.38Zm.08-.54.33-.12.28.39L24,7.59Zm0-.06-.29-.38.33-.13L24,7Zm.09-.53.32-.12.28.39L24.09,7Zm-.05,0-.28-.39.32-.12.29.39ZM23.84,6l.32-.12.29.38-.32.12Zm0-.06-.29-.39.32-.12.29.39Zm-.33-.45-.25-.34.31-.12.26.34Zm-.3-.4L23,4.83l.31-.12.24.3Zm.15-.45.32-.12.23.31L23.55,5Zm.37-.14L24,4.42l.22.31-.31.13Zm.38-.14.32-.12.23.31-.32.12Zm.6.25.25.33-.33.13-.25-.34Zm0,0L25,4.53l.25.33L25,5Zm.62.27.28.39-.32.12L25,5.07Zm.05,0,.32-.12.28.39-.31.12Zm.65.33.29.38L26,5.75l-.28-.38Zm.05,0,.33-.12.28.38-.32.12Zm.66.32L27,6l-.32.13-.29-.39Zm.32.44.29.39L27,6.52l-.28-.38Zm.34.45.28.38L27.37,7l-.29-.4Zm.33.44.28.39-.32.12L27.41,7Zm.32.45.29.39L28,7.86l-.28-.39Zm.33.45.29.39-.32.12-.28-.39Zm.34.45.28.38-.32.12-.29-.38Zm.32.44.29.39L29,9.2l-.29-.39Zm.33.45.29.38-.32.06-.29-.39Zm.34.44L30,10l-.33.12L29.4,9.7Zm-.11.51-.32.12L29,9.85l.32-.12Zm.05.06.25.35-.32.12-.24-.4Zm.29.39.26.36-.32.12-.26-.35Zm-.11.5-.33.13-.25-.35.31-.13Zm0,.05.26.35-.32.12-.26-.35Zm-.12.49-.31.13-.26-.35.32-.12Zm-.37.15-.32.12-.26-.34.32-.13Zm-.37.14-.32.13-.26-.35.32-.13Zm-.37.15-.32.12L28,11.79l.33-.12Zm-.38.15-.32.12-.25-.35.31-.13Zm-.58-.34-.26-.35.32-.12.25.35Zm-.06,0-.31.13L27,11.6l.33-.12ZM27,11.56l-.28-.37.33-.13.27.37Zm-.06,0-.31.12-.28-.31.31-.13Zm-.59-.25L26.06,11l.32-.13.27.37Zm-.06,0-.3.11-.31-.34L26,11ZM25.66,11l-.28-.39.29-.11.29.39Zm-.33-.45L25,10.17l.31-.11.28.38ZM25,10.11l-.29-.39.3-.11.29.39Zm-.33-.45-.28-.38.29-.12.29.39Zm-.33-.44L24,8.83l.3-.12.28.39ZM24,8.77l-.29-.39.3-.11.29.38Zm-.33-.45-.29-.39.3-.11.29.39Zm-.33-.45-.28-.38.24-.09.28.38ZM23,7.43,22.73,7,23,6.93l.27.39Zm.07-.53.32-.12.28.39-.38.15ZM23,6.84l-.28-.38.31-.12.29.38Zm.09-.52.32-.12.29.38-.32.12Zm0-.06-.29-.39.32-.12.29.39Zm.08-.53.33-.12.28.39-.32.12Zm0-.06-.25-.34.32-.12.25.34Zm-.3-.4L22.61,5l.31-.12.24.31ZM23,4.34l.22.3-.32.12-.22-.3Zm.38-.13.21.28-.32.13-.25-.3Zm.38-.14.21.28-.32.12-.22-.28Zm.59.14-.33.11L23.85,4l.33-.12Zm.65.23-.33.12-.22-.31.32-.12Zm.67.25-.33.13-.25-.34.33-.12Zm.7.31-.32.12-.28-.38.31-.13Zm.71.3-.33.12-.32-.35L26.79,5Zm.32.44-.31.13-.29-.39.32-.12Zm.34.45-.33.12-.29-.38.33-.13Zm.32.44-.32.12-.28-.38.32-.12Zm.33.45-.31.12-.29-.39.32-.12Zm.33.45-.32.12-.32-.33.32-.12Zm.33.45-.32.12-.28-.39.32-.12Zm.33.44-.32.12-.28-.38L29.13,8Zm.33.45L29.44,9l-.29-.39.32-.12Zm.34.44-.33.12-.29-.38.33-.12Zm0,.55-.28-.37.33-.12.26.37Zm0,.08.25.35-.32.12-.25-.35Zm.23.87-.26-.36.32-.12.26.36Zm-.08.54L30,11l.32-.12.26.35Zm-.08.54-.26-.35.32-.12.26.35Zm-.37.15-.26-.35.32-.12.26.34Zm-.38.14-.31-.35.31-.12.27.34Zm-.37.14L28.79,12l.31-.13.26.35Zm-.37.15-.26-.35.32-.12.26.35ZM28,12.26l.32-.12.25.35-.31.13ZM27.37,12l.32-.13.26.35-.33.13Zm-.73-.19L27,11.7l.26.35-.32.12ZM26,11.54l.3-.12.28.38-.3.12Zm-.65-.29.29-.11.27.37-.29.1ZM25,10.81l.3-.12.28.39-.29.1Zm-.33-.48.29-.12.29.39-.29.11Zm-.33-.45.29-.12.29.39-.3.12ZM24,9.43l.31-.11.28.38-.3.12ZM23.66,9l.3-.11.29.39-.3.11Zm-.35-.44.3-.11.29.38-.31.11ZM23,8.08,23.3,8l.29.39-.3.11Zm-.33-.46L23,7.51l.28.39L23,8Zm0-.56.28.39-.31.11-.28-.38Zm-.28-.46.3-.12.29.39L22.67,7Zm0-.57.28.39-.3.12-.28-.39Zm.37-.14.28.39-.31.12L22.44,6Zm-.24-.42.32-.12.25.34-.32.12Zm0-.49.24.31-.32.12-.23-.31Z"/><path class="cls-6" d="M21.75,5.19a1.76,1.76,0,0,1,1.12-1.55c1.16-.46,2.94.13,4.64,1.5,3.25,2.67,4.53,6.91,2.27,7.8C26.82,14.13,21.31,8.71,21.75,5.19Zm.46.18c-.41,3.21,4.69,8.19,7.29,7.21C31,12,30.73,9.63,29,7.32,26.48,3.89,22.55,2.75,22.21,5.37Z"/><path class="cls-8" d="M25.87,4.25a5.09,5.09,0,0,0-2.56-.39C22.23,4.19,22,5.68,22,5.68s-.07-1.57,1.06-2A3.68,3.68,0,0,1,25.87,4.25Z"/><path class="cls-6" d="M39.53,22.87a1.44,1.44,0,0,1-1.24,1l-.49-.58a1.43,1.43,0,0,1,1.24-1Z"/><path class="cls-5" d="M37.59,20.38c-.13.47-.8.32-.51-.63-.11.37-.28.53-.41.49-.3-.09-.29-.31-.22-.76,0,.41-.3.35-.43.27s-.15-.43-.14-.75l.08-.24c.16-.46.66,0,.6.38.23-.41.66,0,.63.38.32-.37.59.14.55.49.06-.23.26-.26.34-.2a.66.66,0,0,1,0,.68C37.91,21.11,37.42,21,37.59,20.38Z"/><path class="cls-5" d="M36.58,22.25c-.4.48-.94-.15-.94-.15-.19-.88-.83-1.58-.68-2,.3-.8.17-1,.45-.87a.58.58,0,0,1,.32.77.48.48,0,0,1-.15.22C35.63,20.3,37.1,21.62,36.58,22.25Z"/><path class="cls-9" d="M37.72,33.54c-.86.61-1.74,1.17-2.65,1.69-.15,1,1.84,4.77,2.34,5.09-.64.66-6.71-.26-6.22-1.12.32-.55,1.89-1.34-3.2-2.54a5.51,5.51,0,0,1-3.58-3.89c-1-3.64,2.43-6.39,5.89-6.48,2.3-.06,2.86,2,4.15,2.37a2.73,2.73,0,0,0,1.39,0c.31.07.41.51.37.81s-.19.41-.15.54c.12.42.38.46.38.46.56.08-.11,1.2-1.13,1.56.45.14,1.51-1,1.75-.63a2.25,2.25,0,0,0,.21.91C37.54,32.85,38.07,33,37.72,33.54Z"/><g class="cls-3"><path class="cls-10" d="M35.07,35.23C35,36,36.21,38.65,37,39.79a.7.7,0,0,1-.51.28c-.39-.12-4.94-5.79-5.18-5.89.27,0,1.55,1,2,1.07.61.1,2.65-.75,3.85-1.29h0l-.21.14-.23.14-.23.14c-.23.15-.46.3-.67.42l-.1.06-.13.07L35.4,35Z"/></g><path class="cls-11" d="M21.36,40c-.34.05-.69.24-1,.3a2.39,2.39,0,0,0,2.26.1c-.2.37,0,.39-.34.75.5.25,2.43,1,3.65-.08,1-.94.84-4,.62-4.57,1.55,2.57,2.54.07,4.52,1.22a11.55,11.55,0,0,0-.55-4.19,3.76,3.76,0,0,0,3.22.66c-2.7-.43-3.78-2.3-3.48-3.94,0-.15.69.45.75.29a7,7,0,0,1,.82-2.35c-.23-.32-.26-.68-.64-.92.25.18,1.11.49,1.34.65.91-.2.85-1.09,1.34-1.11a5.09,5.09,0,0,1-2.32-.65c.89-.11,1.76-.32,1.77-1.72-.25.69-1,1-1.88,1.32a2.09,2.09,0,0,0,.46-1.5c-.2.84-2,1.5-2.19,1.56A5.93,5.93,0,0,0,25,35.28a5.6,5.6,0,0,0-1.88,1.24c-.71.75-.4,1.27-1.51,2a3.39,3.39,0,0,1-1.7.2A2.41,2.41,0,0,0,21.36,40Z"/><path class="cls-5" d="M32.81,86.29c0,.18-1.9-.11-1.9-.11.7-4.18-.49-6.07-.07-8.67.34-2.15,2.48-4.79,2.61-5.25.42-1.41-8.63-13.56-5.77-16.46,1.64-1.65,4.44-1,5.77,1.09.7,1.11,4.22,12.64,3.31,15.1-.3.8-3.87,13-3.93,14.26Z"/><path class="cls-12" d="M33.35,84.84a1.89,1.89,0,0,0,.18,1.28s-1.93.4-2.91-.46c-.54-.48.14-.69.29-1.63C31,83.47,32.25,84.69,33.35,84.84Z"/><path class="cls-13" d="M33.28,85.6c1.42,1,.16.9,1.18,2,.56.61.46,1,.76,1.38s1.51.93,1.63,1.4c.09.25.11.68-.23.81-.54.21-2.61-.53-3.68-1.17s-1.07-1-2.12-1.29-2.1-.71-2.16-1.13a1.21,1.21,0,0,1,.28-.89A3.05,3.05,0,0,1,30.52,85C30.79,85.39,32.17,86.68,33.28,85.6Z"/><path class="cls-14" d="M28.92,86.72c.92.7.55.75,2.95,1.57.75.27.87,1,1.6,1.41a7.2,7.2,0,0,0,2.56.75,5.58,5.58,0,0,0,.81-.09c.54,1.72-3.39.57-3.71.21a4.37,4.37,0,0,0-2.44-1.66c-1-.25-2.12-.88-2.17-1.31A1.33,1.33,0,0,1,28.92,86.72Z"/><path class="cls-14" d="M33.28,85.6a3.38,3.38,0,0,1,.59.54c-1,1-2.89.25-4-.75a3.23,3.23,0,0,1,.63-.47C30.86,85.29,32.17,86.68,33.28,85.6Z"/><path class="cls-14" d="M34,87l.08.11c-.5.13-.08.42.23.37.05,0,.11.09.11.13s-.41.14-.12.37.37-.16.54.2c-.41.12-.12.39,0,.41H35c-.4-1.16-1-1.25-1-1.94C33.67,86.63,33.48,86.89,34,87Z"/><path class="cls-15" d="M30.44,67.81c-.11-.59,3.17-1.36,6.17-2.31,0,0-2.8-9.32-3-10.46-.05,0-1.29-1.27-4.7-.89a3.67,3.67,0,0,0-1.74.94C25.57,59.57,30,64.37,30.44,67.81Z"/><path class="cls-9" d="M8.14,75.8c-.29.16-1.05-1.6-1.05-1.6,3.77-1.9,5.8-4.06,8.14-5.25,1.95-1,5.44-.63,5.93-.67,2.5-.22,2-6,4.57-11.16.51-1,2.63-4.92,3.46-3.75,2.68,3.7,5.33,1.9,4.9,2.77C32,60.26,26,70.62,23.41,71.36c-.81.24-14.13,3.75-15.26,4.5Z"/><path class="cls-16" d="M22.55,63.33c.16-.29,1.29.42,2.61,1.23.22.13,1.45-2.17,1.68-2s-.71,2.61-.57,2.7a14.47,14.47,0,0,0,3.48,1.42s4.12-10.14,4.67-11.15c-.07,0-1.12.42-4-1.38A5.55,5.55,0,0,1,29,52.36C23.31,54.32,25.35,60.36,22.55,63.33Z"/><path class="cls-12" d="M9.29,75.49a1.91,1.91,0,0,0-.57,1.17s-1.83-.75-2.17-2c-.18-.7.51-.5,1.15-1.2C8.09,73.05,8.46,74.75,9.29,75.49Z"/><path class="cls-13" d="M8.8,76.08c.63,1.63-.36.83-.13,2.33.13.82-.2,1.12-.15,1.56s.76,1.59.58,2.07c-.07.25-.29.62-.64.54-.56-.13-1.88-1.88-2.41-3s-.31-1.45-1-2.25-1.45-1.62-1.26-2a1.67,1.67,0,0,1,.8-.75A3.07,3.07,0,0,1,6.82,74C6.86,74.51,7.28,76.38,8.8,76.08Z"/><path class="cls-14" d="M4.55,74.62c.37,1.09,0,.93,1.58,2.92.5.66.19,1.31.54,2.06a7.42,7.42,0,0,0,1.71,2.07,6.56,6.56,0,0,0,.75.37C8.62,83.77,6,80.65,5.92,80.17a4.34,4.34,0,0,0-1.1-2.72c-.76-.75-1.28-1.9-1.1-2.26A1.43,1.43,0,0,1,4.55,74.62Z"/><path class="cls-14" d="M8.8,76.08a3.62,3.62,0,0,1,.21.8c-1.43.24-2.55-1.39-2.9-2.83a4.69,4.69,0,0,1,.75,0C6.93,74.47,7.28,76.38,8.8,76.08Z"/><path class="cls-14" d="M8.58,77.61v.14c-.49-.17-.3.3,0,.43.06,0,.05.14,0,.17s-.41-.11-.3.24.39.07.33.46c-.4-.12-.31.27-.25.33l.19.15c.31-1.18-.16-1.6.25-2.15C8.55,77.13,8.26,77.27,8.58,77.61Z"/><path class="cls-17" d="M27.48,55.62c1.62.43,3,0,7,2,.71-3.46.24-5.94,1-7.32.52-1.05,2.85-4.61,3.42-6.53h0c.35-1.18,0-1.14-2.27-4.64-.5-.75-3.61-.12-5.28-1-.15.23-2.09,4.13-1.89,5.59s.32,5.53,0,6.33c-.53,1.69-3.24,2.65-3.61,4.15C25.74,54.61,26.49,55.36,27.48,55.62Z"/><g class="cls-3"><path class="cls-4" d="M31.72,55.53a3.59,3.59,0,0,1,2,0c.46.22.24,1,0,1.7l.85.39c.72-3.46.24-5.95,1-7.32.52-1,2.85-4.62,3.42-6.53h0c0-1.2-3.4.69-5.09.07C32.38,43.32,32.33,41,32,41.59c-1.31,2.25-.39,3.75.68,4.14,3.61,1.34,1.42,4.93,1.93,4.24.41,2-1.93,2.41-3.15,3.37.9-.06,1.69-.1,2.52-.19C34.06,54.2,32.85,55.12,31.72,55.53Z"/></g><path class="cls-9" d="M33.05,41.14c2-1.1,10,.51,11.27-.22,1.09-1.5,4.79-4.7,6.22-6.52A2,2,0,0,0,50.83,33c-.19-.48-.1-1-.3-1.5-.1-.22.33-.46.7,0a2.19,2.19,0,0,1,.46-.59c.24-.12,1.13-.87,1.51-.5.08.08-.14.12-.21.18s.58-.27.76,0c.07.12-.07.2,0,.23A.2.2,0,0,1,54,31a.2.2,0,0,1-.11.22c0,.07.27.15.08.39s-1,.5-1.15.94c-.27,1.1,0,1.73-.64,2.32s-5.4,7.4-6.09,8.3c-2.42,1.5-11.42,2.08-12.3,1.93a2.13,2.13,0,0,1-1.83-2.4A2.1,2.1,0,0,1,33.05,41.14Z"/><path class="cls-18" d="M36.76,40.42c-.5,1.81-.18,2.93.37,4.77-2.39.5-5.14.38-5.6-1.3-.66-2.39.9-3.19,3.48-3.55Z"/><path class="cls-19" d="M36.38,7.4l-3,1.35h-.08l-1-1.06V7.61l1.61-2.87A8.42,8.42,0,0,1,36.38,7.4Z"/><path class="cls-20" d="M32.54,7.84l0,0,.9-1.5.82-1.37L34.3,5l-.84,1.36ZM33.7,6.58h0l1-1.29a.2.2,0,0,1-.07-.06l-1,1.3v0l-1,1.33V8h0Zm.22.25h0L35,5.66l-.06,0-1,1.16h0L32.75,8v.05h0Zm.24.23L35.34,6l0-.05L34.11,7h0L32.9,8.11h0L34.13,7Zm1.46-.75-1.27,1h0L33,8.27h0l1.33-1h0l1.28-1Zm.3.37-1.33.83h0l-1.47.89h.05l1.42-.81h0L36,6.76Zm.27.39-1.41.68-1.58.8,0,0,1.58-.75,1.43-.7a.47.47,0,0,0-.06-.09Z"/><path class="cls-21" d="M32.15,7.81a.75.75,0,0,0-.2,1l.06.08A.77.77,0,0,0,33.08,9l.07-.08a2.26,2.26,0,0,0-.44-.62A1.82,1.82,0,0,0,32.15,7.81Z"/><path class="cls-22" d="M33.37,8.75h-.08l-1-1.06V7.61a5.62,5.62,0,0,1,.55.54A5.68,5.68,0,0,1,33.37,8.75Z"/><path class="cls-20" d="M33.14,8.92a3.73,3.73,0,0,0-.47-.58,3.26,3.26,0,0,0-.54-.51l.16-.14s.07,0,.52.52a2.6,2.6,0,0,1,.48.57Z"/><path class="cls-8" d="M32.26,8.18,32.1,8a.64.64,0,0,0,.06.91h0A.67.67,0,0,1,32.26,8.18Z"/><g class="cls-3"><ellipse class="cls-4" cx="97.4" cy="93.36" rx="36.51" ry="1.19"/></g><path class="cls-5" d="M105.68,60.45c-.33-1.66-1.23-1.87-1.23-1.87-.94.19-5.17,1.56-6,1.93C97,61.15,88,70.94,87.33,72.3c-.42.9-.09,2.88,0,3.64s.07,12.89-1.51,14.37c-.19.18.32,1.62,1.51,1.62,1.89,0,1.92-1,1.83-1.27-.8-2.53,1.82-8.45,2.6-11.4.63-2.39-1.1-4.19-.68-4.88S93,72.7,94.85,71.46c2.65-1.77,8.25-5.81,9.44-7.35A5.46,5.46,0,0,0,105.68,60.45Z"/><path class="cls-23" d="M106,63.68c-1.33,3.09-8.53,6.31-12.51,11.08-.19.21-4.8-3.75-5.11-4s4.79-5.75,6.34-7.3c.58-.58,3.07-2.88,3.47-3.14,1.26-.85,6.15-2.26,6.19-2.26C105.86,59.4,107,61.31,106,63.68Z"/><path class="cls-24" d="M89.81,86.65c-.66.13-2.87-.53-3.15-.25S86.15,90,86.15,90c.22.32,2,.53,3,.34C89.19,89.81,90,87.72,89.81,86.65Z"/><path class="cls-25" d="M86,89.09c-1.94.35-.59.87-2.18,1.5-.86.36-1,.89-1.42,1.1s-2,.23-2.33.66c-.2.22-.43.67-.17,1,.44.5,2.87.75,4.26.64s1.57-.57,2.74-.3,2.75.08,3-.34-.19-.68-.16-1a14.38,14.38,0,0,0-.42-2.25C88.75,90.57,86.53,91.05,86,89.09Z"/><path class="cls-24" d="M89.72,92.52c-.39.09-.75.23-1,.28A8.1,8.1,0,0,1,86,92.68c-.91-.11-1.37.6-2.27.7a7.44,7.44,0,0,1-3-.48,6.28,6.28,0,0,1-.75-.52c-.2.23-.43.68-.17,1,.44.5,2.57,1,4,.84s1.87-.75,3-.5,2.76.08,3-.34S89.8,92.77,89.72,92.52Z"/><path class="cls-8" d="M87.5,90.3a1.57,1.57,0,0,1-.91-.38c-.2-.17.41-.29,0-.94-.56-.93-1.22.21-1.56.39a2,2,0,0,0,.62.87,4.19,4.19,0,0,0,3.72.36,4.69,4.69,0,0,0-.24-.75A2,2,0,0,1,87.5,90.3Z"/><path class="cls-8" d="M84.44,90.3c.15.15.21.28.1.35a.54.54,0,0,1-.52-.06s-.15,0-.17.07.34.36-.06.46c-.15,0-.29-.16-.42-.18s-.12,0-.21.12c.35.33-.09.48-.18.45a2,2,0,0,1-.26-.09,2.77,2.77,0,0,1,1-.76,1.41,1.41,0,0,0,.92-.75c.37.14.42.51-.1.38C84.54,90.22,84.44,90.3,84.44,90.3Z"/><path class="cls-9" d="M94.92,42.52c-1.57,1.1-5.42,7.59-5.44,7.59-.13-.26-.08-3.75-.54-4.34-.16-.19-2-2.09-2-2.09a9,9,0,0,1-2.13,1.42c-.75.22-.61-1.19-1-1.6-.23-.23-.37-.33-.33-.42s.4-.22.8-.47a5.48,5.48,0,0,0,.69-.75c-.16,0-1.36.83-1.77.59-.17-.09-.06-.28-.06-.3.17-.54-.13-.67-.13-.67s-1.15.28-1.38-.12.83-1.65.71-2.41a7.28,7.28,0,0,0-.46-1.17,6.8,6.8,0,0,1-.16-3.14c.24-1.22,2.18-2.87,5.51-3.27,2.58-.3,3.84.84,4.81,2.72,1.56,3-1.06,6-.47,7.13C91.5,41.23,93.25,41.93,94.92,42.52Z"/><path class="cls-26" d="M92.33,34.14c.09-2.17-1.79-2.71-3.3-3.2.25,0,.49-.1.75-.12-1-.26-2.36-.63-3.33,0l-.18,0a1.44,1.44,0,0,1,.43-.49c-.68,0-2.15,1.27-2.38,1.42-.88.22-1.51.33-1.51-.59a2.46,2.46,0,0,0-1,1.65c-.09-.14-1.24,0-1-.58-.94.75-.4,1.27,0,1.89a1.12,1.12,0,0,1-1-.33,1.43,1.43,0,0,0,1.09,1.7l.1,0c-.51.37-.86.88-.53,1.5a2.61,2.61,0,0,1,1.46-1.4h.19c-.16.39,0,.54-.09,1,.28-.34.56-.69.87-1A13.36,13.36,0,0,0,85,35.17c.56-.15,1.77,3.35,1.79,3.38.09.29.66,0,.8-.13s-.31-3,1.57-1.91c.93.52.75,2,.75,2.72,0,1.11.76,1.32,1.56,1.73l.52-1.5-.07.43a3.65,3.65,0,0,0,.65-1.82,3.85,3.85,0,0,0,.08.49A8,8,0,0,0,92.33,34.14Z"/><path class="cls-9" d="M124.19,74.13c-.4,0-1.31.54-1.72.5A26.75,26.75,0,0,1,114.92,73c-2-.92-4.14-.25-5.19,0s-1.73-4.09-2.08-4a7.23,7.23,0,0,0-3.93,3.24A36.53,36.53,0,0,0,107,76.64a4.77,4.77,0,0,0,3,.31c2.49-.28,12.37-.17,13.78,1.23a1.87,1.87,0,0,0,.69-1.42,5.28,5.28,0,0,0-.27-1.89A4.58,4.58,0,0,0,124.19,74.13Z"/><path class="cls-27" d="M109.92,71.35c-1.4,1.57-3.87,4.2-5.84,4.32-.43,0-4.15-8.73-4.61-10.67s-2.87-3.63-2.31-3.63c4.27-.23,7.23-6.71,9.23-1.68.31.76.66,3,.94,3.81C108.54,67.12,109.39,69.75,109.92,71.35Z"/><polygon class="cls-28" points="102.48 59.98 106.99 73.25 107.61 72.4 103.34 59.36 102.48 59.98"/><path class="cls-25" d="M123.85,75.94a2,2,0,0,1-1.12,1.73,3.4,3.4,0,0,0,.4.81.54.54,0,0,0,.15.15.91.91,0,0,0,.4.14c.23,0,.52.18.9.75a2.56,2.56,0,0,0,.93.86,1.46,1.46,0,0,1,.37.33c.28.4.57,1.79.91,2.06l.1.07c.26.15.76.31,1,0,.41-.5.29-2.88-.07-4.19s-.81-1.43-.75-2.59-.37-2.66-.83-2.85-.56.16-.8.27h-.15a10,10,0,0,0-1.67.59,5.28,5.28,0,0,0-.53.27A1.92,1.92,0,0,1,123.85,75.94Z"/><path class="cls-24" d="M125.46,73.49c.15.36.34.71.43.93a8.25,8.25,0,0,1,.33,2.61c0,.89.81,1.21,1,2.09a7.13,7.13,0,0,1,0,2.91,7.65,7.65,0,0,1-.38.82c.25.15.75.31,1,0,.42-.5.55-2.63.19-3.94s-1.06-1.68-1-2.84-.37-2.66-.82-2.85S125.69,73.38,125.46,73.49Z"/><path class="cls-24" d="M123.55,74.65c-.41-.47-2.46-.46-3-.59a18.47,18.47,0,0,1-.39,3.32c-.22.59,1.87.14,2.42.28a.81.81,0,0,0,1.05-.41l0-.07A3.18,3.18,0,0,0,123.55,74.65Z"/><path class="cls-8" d="M123.68,76a3.44,3.44,0,0,1-.29,1.44c-.14.21-.55-.51-1,.06s.46,1.1.8,1a2.1,2.1,0,0,0,.76-.75,4,4,0,0,0-.27-3.63c-.25.1-.75.38-.75.38A1.67,1.67,0,0,1,123.68,76Z"/><path class="cls-8" d="M124.15,78.92c.11-.18.24-.25.32-.15a.45.45,0,0,1,0,.5.21.21,0,0,0,.1.15c.05,0,.3-.37.46,0,.06.14-.11.3-.11.43s.06.11.15.19c.27-.39.48,0,.47.09a2.56,2.56,0,0,1-.05.27,2.59,2.59,0,0,1-.93-.87c-.38-.57-.67-.7-.91-.75.07-.37.43-.49.39,0C124.05,78.84,124.15,78.92,124.15,78.92Z"/><path class="cls-5" d="M87.9,52.07A32.94,32.94,0,0,1,85,55.6c-1.2.8-5.48,3.9-7.8,5.77l-2.44.51a18.81,18.81,0,0,0-1.63,1,4.57,4.57,0,0,0-.34,1.9c0,.36,3.19.79,3.6.31a16.42,16.42,0,0,1,2.39-2.25,41.69,41.69,0,0,0,8.18-4.18c-.09-.1,2.2-1.89,3.37-3Z"/><path class="cls-29" d="M94.57,51.13c-.18.8-2.64,4.2-4.53,6l-3.56-4c1.25-2,3-4.3,3-4.76C91.6,46.59,95.22,48.34,94.57,51.13Z"/><path class="cls-8" d="M91,56.18c-.19.22-.4.44-.6.65-.75-.9-2.75-3.4-3.54-4.33l.34-.51Z"/><path class="cls-30" d="M68.71,65.12s-7.07,2-7.12,2l.24.3c.07,0,6.89-1.95,6.89-1.95Z"/><polygon class="cls-31" points="76.16 63.98 75.79 62.78 69.47 64.49 68.43 65.18 68.57 65.61 69.94 65.65 76.16 63.98"/><path class="cls-31" d="M49.72,69.71l-.18-.27h-.07l.43.63-.13,0v.06l.13,0,.21.32-.39.13v.05l.39-.13.21.31-.46.16V71l.47-.15.21.31-.24.08v.06l.24-.09.21.32h0v0h0l.31.46h.07l-.31-.46.38-.12.21.31-.31.11v0l.32-.1.14.21h.08l-.14-.21.4-.14.22.32-.49.16v.06l.48-.17.22.32h.07l-.21-.32.44-.15.21.32-.36.12v.06l.36-.12.07.11H53l-.07-.11.49-.18.21.33-.28.09v.06l.28-.1h.08l.51-.17.12.19h.08l-.13-.19.51-.18.24.36h.07l-.24-.36.5-.16.3.44h.08l-.3-.44.5-.17.32.46h.07L56,71.82l.5-.18.36.53H57l-.35-.53.49-.18.37.56h.08l-.37-.55.5-.17.37.55h.09l-.38-.55.51-.17.31.45h.07l-.31-.45.51-.17.28.42h.07L58.92,71l.51-.17.19.28h.07l.15-.69.48-.17.07.12h.08l-.08-.11.54-.19v0l-.54.19-.21-.32,1.12-.38v-.06h-.1L61,69.1l.45-.15.19.28h.06L61.51,69h.06V68.9h-.06l-.21-.31.45-.16.18.26H62l-.17-.26h0v-.06h-.06l-.21-.31.16-.06v0l-.16,0-.21-.31.35-.12v0l-.36.12-.2-.32.32-.1v-.06l-.33.11L61,67l.32-.11v0l-.32.1-.21-.3.29-.1v-.06l-.3.1-.45-.34h.09v-.06h-.1l-.21-.32H60l.21.32-.45.15L59.53,66l.45-.15v0l-.45.15-.25-.38h-.06l.25.38L59,66.1l-.23-.3.22-.08v0l-.76.25-.19-.3.41-.14v0l-.41.14-.07-.1h-.06l.06.1-.48.17-.22-.32h-.06l-.49.16-.22-.2h-.07l.16.24-.51.16-.16-.24h-.08l.17.24-.51.17-.22-.33h-.07l.22.33-.51.17-.26-.25h-.08l.23.35-.5.17L54.05,66H54l.27.4-.5.18-.24-.33h-.08l.25.37-.51.17-.26-.4h-.08l.26.4-.5.16-.19-.28h-.08l.19.28L52,67.1l-.06-.1h-.08l.07.1-.51.17,0-.08h-.08l.28.42-.49.17-.15-.2h-.07l.13.2-.56.19h0l.22.32-.37.13v.06l.38-.13.2.31-.43.15-.29-.43h-.08l.29.43-.41.13-.09-.12h-.07l.08.12h-.11v0h.12l.21.32Zm0,.05.38-.13.21.32-.38.13Zm3.37.21.5-.17.21.31-.5.18Zm.13.34-.5.17-.21-.31L53,70Zm3.29-1.56-.49.18-.21-.32.5-.17Zm-.12-.33.5-.18.21.32-.5.17Zm-.34.56.5-.17.21.32-.5.16Zm.13.34-.5.18-.21-.32L56,69Zm-.41-.75-.21-.31.5-.17.21.31Zm-.08,0-.5.17L55,68.45l.5-.18Zm0,.06.21.31-.5.17-.21-.31Zm-.38.51-.49.17L54.61,69l.5-.17Zm0,0,.22.31-.51.18-.2-.32ZM55,69.7l-.51.17-.2-.31.49-.18Zm0,.06.21.31-.51.17-.21-.31Zm.07,0,.51-.17.21.31-.51.18Zm.58-.19.51-.18.21.32-.51.17Zm.58-.21.51-.16.21.31-.51.17Zm.58-.19.51-.18.21.32-.5.17Zm0-.06-.2-.31.5-.17.21.31Zm.38-.51.5-.17.21.32-.5.16Zm.58-.2.5-.17.21.31-.5.18Zm0-.05L57.51,68l.51-.17.21.32Zm-.08,0-.5.16-.21-.3.51-.18Zm-.76-.2-.21-.31.51-.17.21.31Zm-.07,0-.51.17L56.09,68l.51-.17Zm-.76-.2-.21-.31.5-.18.21.32ZM56,68l-.5.17-.21-.31.5-.17Zm-.58.2-.51.17-.2-.32.5-.16Zm-.58.2-.5.17-.21-.31.5-.18Zm0,.05.21.32-.51.17-.21-.32Zm-.37.51-.51.17-.12-.21.5-.17Zm0,0,.2.32-.49.17-.22-.31Zm-.38.52-.5.18-.06-.25.5-.18Zm.19.15.21.31-.5.17-.21-.31Zm-.33.56.21.31-.51.18-.24-.3Zm.07,0L54.5,70l.21.31-.5.17Zm.76.19.2.32-.5.17-.2-.36Zm.07,0,.51-.16.2.31L55,70.7Zm.59-.19.5-.17.2.31-.49.17ZM56,70l.5-.17.21.32-.5.17Zm.58-.19.5-.17.21.31-.5.17Zm.58-.2.5-.18.22.32-.51.17Zm.58-.2.51-.17.2.31-.5.18Zm0-.05L57.52,69l.5-.17.22.31Zm.37-.52.51-.17.17.21-.51.18Zm.58-.2.48-.15.21.3-.48.17Zm0,0-.21-.31.47-.16.21.31Zm.33-.5.47-.16.21.32-.47.15Zm0,0-.22-.32.48-.16.21.32Zm-.08,0-.47.16-.21-.31.47-.17Zm-.75-.21-.22-.31.48-.17.21.32Zm-.08,0-.51.18-.29-.35.51-.17Zm-.76-.19-.2-.32.5-.17.21.32Zm-.07,0-.5.16-.21-.31.5-.17Zm-.76-.2-.21-.31.51-.17.2.3Zm-.08,0-.5.17-.21-.32.51-.17Zm-.58.19-.5.17-.21-.31.51-.17Zm-.57.2-.51.17-.21-.31.51-.17Zm-.58.2-.51.17L54,67.88l.5-.18Zm-.59.19-.5.18-.26-.27.5-.17Zm0,.06.22.31-.51.17-.2-.31Zm-.37.51-.5.17-.2-.31.49-.14Zm0,.06.22.31-.51.17L53.21,69Zm-.36.51-.51.17-.21-.32.5-.17Zm0,.05.21.32-.5.17-.2-.26Zm-.37.51-.5.17-.21-.31.52-.14Zm-.59.2-.49.17L51.72,70l.5-.17Zm-.58.2-.43.15-.18-.29.45-.15Zm0,0,.21.32-.43.15-.21-.32Zm.15,0,.49-.18.22.32-.5.16Zm.75.19.21.32-.5.17-.21-.32Zm.08,0,.5-.16.21.3-.5.18Zm.75.2.21.32-.5.16-.21-.31Zm.08,0,.5-.17.21.32-.5.17Zm.75.2.21.31-.5.18-.21-.32Zm.08,0,.5-.17.21.31-.49.17Zm.59-.2.49-.17.22.32-.51.16Zm.58-.2.5-.17.21.31-.51.18Zm.58-.19.5-.18.21.32-.51.17Zm.58-.2.5-.17.21.31-.51.17Zm.58-.2.5-.17.21.31-.51.17Zm.58-.2.5-.17.21.32-.5.17Zm.58-.2.5-.17.21.31-.5.18Zm0,0-.21-.32.51-.16.2.3Zm.37-.51.48-.16.21.31-.48.16Zm.55-.19.46-.16.21.32-.46.15Zm0,0-.21-.32.47-.16.2.32Zm.32-.5.45-.15.21.32L60,68.6Zm0,0-.21-.32.46-.15.2.31Zm-.24-.37-.21-.31.45-.16.21.31Zm-.39-.49-.2-.31.45-.16.21.32Zm-.06,0-.46.16-.22-.31.48-.16Zm-.75-.21-.21-.31.47-.17.21.32Zm-.08,0-.46.17L57.59,67l.47-.16Zm-.71-.2-.21-.31.46-.17.21.32Zm-.09,0-.49.17-.22-.31.51-.17Zm-.75-.19-.21-.32.5-.17.21.31Zm-.08,0-.5.17-.21-.32.5-.17Zm-.58.2-.5.17-.21-.31.5-.18Zm-.58.19-.5.18L54.76,67l.51-.17Zm-.58.2-.51.17-.14-.16.51-.16Zm-.58.2-.51.17-.2-.31.5-.17Zm-.58.2-.51.17L53,67.61l.51-.17Zm-.58.2-.51.16-.21-.3.51-.18Zm0,.05.2.32-.5.16-.12-.19Zm-.38.51-.5.17-.21-.31.51-.17Zm0,0,.21.32-.51.17-.08-.19Zm-.37.51-.51.18-.21-.32.51-.17Zm0,.06.21.31-.5.18-.22-.32Zm-.37.52-.51.16-.05-.19.51-.18Zm-.58.19L51,70l-.22-.31.45-.15Zm-.52.17-.41.15-.05-.2.4-.13Zm0,.06.21.31-.41.14-.05-.15Zm.24.37.22.32L51,70.9l-.21-.31Zm.25.37.21.31-.4.14-.05-.2Zm.08,0,.44-.15.21.31-.44.15Zm.69.22.21.31L52,71.5l0-.22Zm.07,0,.51-.18.21.32-.51.17Zm.76.19.2.32-.5.17-.21-.32Zm.07,0,.5-.17.21.31-.5.17Zm.76.2.21.31-.5.17-.21-.31Zm.08,0,.5-.18.21.32-.51.17Zm.57-.2.51-.17.21.31-.51.18Zm.58-.19.51-.18.21.32-.5.17Zm.58-.21.51-.17.21.32-.5.17Zm.59-.19.5-.17.21.31-.5.17Zm.58-.2.5-.17.21.32-.5.16Zm.58-.2.5-.17.22.31-.51.18Zm.58-.19.51-.18.21.32-.36.19Zm.58-.21.51-.16.21.31-.51.17Zm.58-.19.48-.16.21.31-.48.16Zm.11,0-.2-.32.47-.16.21.31Zm.34-.51.46-.15.21.31-.45.16Zm.53-.17.45-.16.21.32-.45.15Zm0-.06L60,68.57l.45-.15.22.32Zm.3-.49.47-.16.2.32-.45.16Zm0-.05L60.27,68l.46-.15.21.31ZM60.24,68,60,67.67l.45-.16.22.31ZM60,67.61l-.2-.32.45-.15.21.32Zm-.24-.37-.21-.32.45-.15.22.32Zm-.24-.37-.21-.31.45-.16.21.32Zm-.07,0L59,67l-.2-.32.45-.15Zm-.69-.22-.21-.31.45-.15.21.31Zm-.06,0-.48.17L58,66.5l.49-.16Zm-.76-.2-.21-.32.49-.16.21.31Zm-.06,0-.48.17-.21-.32.47-.17Zm-.76-.21-.2-.29.47-.16.21.29Zm-.07,0-.51.17-.2-.3.51-.17Zm-.59.2-.5.17-.19-.21.51-.18Zm-.58.2-.49.17-.22-.19.5-.17Zm-.58.19-.5.18-.2-.3.49-.09Zm-.58.2-.5.17-.2-.29.51-.17Zm-.58.2-.5.17-.19-.3.49-.16Zm-.58.2-.5.17-.22-.23.51-.17Zm-.58.2-.51.16-.19-.29.5-.17Zm-.58.19-.5.18-.21-.3.51-.17Zm0,.06.21.31-.51.17-.19-.24Zm-.37.51-.51.17-.21-.31.51-.17Zm0,.06.21.3-.5.18-.21-.32Zm-.37.51-.5.17L51,68.87l.5-.17Zm0,.05.21.31-.51.18-.15-.24Zm-.37.51-.44.15-.21-.32.44-.15Zm-.52.18-.41.14-.15-.21.41-.14Zm-.83.35.38-.13.21.31-.37.12Zm.25.36.38-.13.21.31-.38.13Zm.25.36.38-.12.21.31-.38.13Zm.47.69-.22-.32.38-.13.21.32Zm.69.21-.21-.31.41-.14.21.32Zm.76.21-.21-.32.44-.15.21.32Zm.75.19L53,71.88l.5-.18.21.32Zm.83.17-.21-.31.5-.17.21.31Zm.58-.19-.21-.32.5-.17.21.32Zm.58-.2-.21-.32.5-.17.21.31Zm.58-.2-.21-.31.5-.18.22.32Zm.58-.2-.21-.32.51-.17.2.32Zm.58-.2-.21-.31.51-.17.2.31Zm.58-.2-.17-.22.5-.18L58,71Zm.58-.19-.21-.32.51-.17.2.31Zm.59-.2-.22-.31.5-.18.21.32Zm.58-.2L59,70.14l.49-.17.21.32Zm1.1-.28-.47.17L59.61,70l.47-.16Zm-.38-.71.45-.15.22.31-.46.16Zm1.18,0-.45.16-.22-.31.46-.16Zm.27-.54-.45.15-.21-.31.46-.15Zm.28-.54-.46.15-.2-.31.45-.16ZM61.39,68l-.45.15-.21-.32.46-.15Zm-.24-.37-.45.15-.22-.31.47-.15Zm-.24-.37-.46.15-.21-.31L60.7,67Zm-.24-.37-.46.16L60,66.75l.45-.16Zm-.46-.69.21.32L60,66.7l-.21-.32ZM59.46,66l.2.31-.45.16-.2-.31Zm-.76-.2.21.33-.45.15L58.25,66ZM58,65.66l.2.29-.49.18-.2-.3Zm-.76-.14.19.28-.47.16-.19-.28Zm-.55.19.19.28-.5.17-.24-.29Zm-.58.19.19.29-.5.17-.19-.29Zm-.58.2.19.28-.5.18-.19-.3Zm-.58.19.19.3-.5.17-.2-.29Zm-.65.18.2.3-.51.17-.17-.32Zm-.59.2.21.3-.51.17-.2-.3Zm-.58.19.2.3-.5.18-.2-.3Zm-.58.21.24.3-.5.17-.21-.3Zm-1.09.36.51-.17.2.3-.5.17Zm.16.38.2.29-.51.17L51.07,68Zm-1.09.37L51,68l.2.29-.51.18Zm.24.35.5-.17.22.31-.51.17Zm.16.39.22.31-.44.15-.18-.31Zm-.92.31.41-.13.21.31-.41.14Z"/><path class="cls-30" d="M61.8,66.9c1.51,2.25-2.39,5.25-7,5.67-2.43.19-4.4-.4-5.16-1.55a2,2,0,0,1,0-2.13C51.47,65.4,59.87,64,61.8,66.9Zm-4.33,4.69c3-1,4.77-3,3.77-4.5-1.65-2.57-9.4-1.22-11.08,1.93-1.37,2.6,2.89,4.07,7.32,2.57Z"/><path class="cls-8" d="M52.74,72.36a5.7,5.7,0,0,1-2.58-1.27,2.68,2.68,0,0,1,0-2.49S49.1,70,49.87,71.05A4,4,0,0,0,52.74,72.36Z"/><path class="cls-31" d="M76.89,64a1.6,1.6,0,0,0-.5-1.67l-.82.21a1.6,1.6,0,0,0,.51,1.67Z"/><path class="cls-5" d="M72.94,65c.31.11.34,0,.55.18a.52.52,0,0,0,.59.08c.34-.27.22.21.76.18.26,0,.29-.14.38-.16s.17.14.24.18a1.66,1.66,0,0,0,.58-.11c.23-.14,0-.75,0-1.15s-.16-.65-.33-.63-.31.36-.34.75c-.1-.44-.09-1-.36-1-.43-.06-.43.45-.52.92,0-.45,0-.92-.25-1s-.46.37-.55.76c0-.64-.06-.84-.29-.87s-.36.14-.53.75S72.45,64.84,72.94,65Z"/><path class="cls-28" d="M102.42,53.37c-1.32-2.12-3.16-9.21-5.79-10.71A17.61,17.61,0,0,0,92.18,41a30.31,30.31,0,0,1-1.51,2.66A21.74,21.74,0,0,0,89,46.41c.12.58.7,4.94,1.61,6.23,2,2.74,4,3.59,5.75,6.47.52.86-.38,3.46-.38,3.75s3.77.87,4.38.08c1.43-1.83,3.36-.82,4.61-1.38a2.74,2.74,0,0,0,.6-.34c.76-.47,1.92-1.26,1.87-1.5C106.66,56.51,103.4,55,102.42,53.37Z"/><g class="cls-3"><path class="cls-4" d="M107.43,59.72c0,.24-1.12,1-1.87,1.51A4.42,4.42,0,0,1,102.81,60c-1.1-1.13-.9-3.49-1.59-5-1.4-3-5.39-4.17-6.64-7a3.92,3.92,0,0,1,1.85-5.24l.2-.09a6.33,6.33,0,0,1,2.31,2.87c1.65,3.16,2.6,6.42,3.48,7.84S106.66,56.51,107.43,59.72Z"/></g><g class="cls-3"><polygon class="cls-4" points="95.05 42.03 92.76 41.3 89.62 46.36 89.68 49.71 90.06 46.93 91.55 47.11 95.05 42.03"/></g><polygon class="cls-8" points="94.66 41.9 92.36 41.17 89.22 46.23 89.68 49.82 89.81 46.64 91.35 46.8 94.66 41.9"/><path class="cls-9" d="M106.33,53.37c.21-.59-.81-1.39-.85-1.44a53.24,53.24,0,0,0-4.32-5l-2.65,3.49c1.51,1.06,3.07,2.2,4.36,3.26,0,.06.58,8.36.2,9.49-.13.39-.9,1.37-1,1.78-.24,1-.95,1.16-.76,1.32a.76.76,0,0,0,1,0c.09-.19.17,1.79.94,1.5a.45.45,0,0,0,.27-.3.65.65,0,0,0,.38.13.39.39,0,0,0,.42-.29.94.94,0,0,0,.41,0c.36-.16.25-.47.42-.45a.6.6,0,0,0,.57-.36c.27-.49-.35-2.66-.43-2.79S106.5,56.2,106.33,53.37Z"/><path class="cls-28" d="M101.87,46.78,98.2,51a26.28,26.28,0,0,1-4-4c-.8-.82-.1-4.23,2.54-3.75A9.37,9.37,0,0,1,101.87,46.78Z"/><path class="cls-8" d="M101.53,46.36l-3.67,4.42-.5-.41a46,46,0,0,1,3.74-4.5A2.64,2.64,0,0,1,101.53,46.36Z"/><path class="cls-32" d="M49.92,59.45l.86,3.17v.09l-1.21.82-.07-.06-2.61-2A8.59,8.59,0,0,1,49.92,59.45Z"/><path class="cls-33" d="M49.76,63.3l-.06,0-1.35-1.12-1.23-1,.07-.07,1.22,1ZM48.69,62h0l-1.11-1.13-.06,0,1.13,1.15h0l1.19,1.19h0Zm.28-.19h0l-1-1.22h-.05l1,1.24h0l1,1.27h0Zm.25-.21-.88-1.32h-.05l.89,1.33h0L50.1,63h0l-.91-1.37ZM48.7,60l.76,1.41h0l.75,1.45h0l-.75-1.5h0L48.7,60Zm.42-.24.6,1.46h0l.66,1.54h0l-.64-1.56h0l-.62-1.5Zm.43-.2.47,1.5.54,1.67h.06L50.1,61.1l-.47-1.5Z"/><path class="cls-21" d="M49.67,63.68a.75.75,0,0,0,1,.36l.09-.05A.75.75,0,0,0,51,63l-.07-.09a2.22,2.22,0,0,0-.69.34A1.66,1.66,0,0,0,49.67,63.68Z"/><path class="cls-33" d="M50.78,62.62v.09l-1.21.82-.07-.06a5.79,5.79,0,0,1,.62-.45A5.52,5.52,0,0,1,50.78,62.62Z"/><path class="cls-34" d="M50.92,62.87a3.77,3.77,0,0,0-.65.37,3.68,3.68,0,0,0-.59.45l-.11-.17a2.83,2.83,0,0,1,.59-.44,3.18,3.18,0,0,1,.64-.38Z"/><path class="cls-8" d="M50.05,63.62l-.19.14a.66.66,0,0,0,.92.07h0A.66.66,0,0,1,50.05,63.62Z"/></g></g></svg>