<svg id="Layer_5" data-name="Layer 5" xmlns="http://www.w3.org/2000/svg" viewBox="0 0 128 128"><defs><style>.cls-1{fill:#11485d;}.cls-2{fill:#9e9c9c;}.cls-3{fill:#edc191;}.cls-4{fill:#ffd39f;}.cls-5{fill:#ba5f21;}.cls-6{fill:#e22727;}.cls-7{fill:#f64b4b;}.cls-8{fill:#258697;}.cls-9{fill:#369fb8;}.cls-10{fill:#204349;}.cls-11{fill:#f5b62b;}.cls-12{fill:#7f4926;}.cls-13{fill:#f4862c;}.cls-14{fill:#fdd19d;}.cls-15{fill:#ebbf8f;}.cls-16{fill:#bf8208;}.cls-17{fill:#fdfaf3;}.cls-18{fill:#429fbc;}.cls-19{fill:#fff;}.cls-20{fill:#4e5148;}.cls-21{fill:#b71a1a;}.cls-22{fill:#6a7061;}.cls-23{fill:#996e4b;}.cls-24{fill:#f4e6d9;}.cls-25{fill:#605245;}.cls-26{fill:#6ad823;}</style></defs><g id="Layer_2" data-name="Layer 2"><g id="Layer_1-2" data-name="Layer 1-2"><path class="cls-1" d="M15.1,18.49V16.13A11.61,11.61,0,0,1,18.31,9a19.43,19.43,0,0,1,6.41-4.37,39.08,39.08,0,0,1,6.91-2.27c1.41-.34,2.79-.69,4.18-.94A54.58,54.58,0,0,1,42.69,1a1.71,1.71,0,0,0,.55-.05h6.28a1.09,1.09,0,0,0,.25,0c1,0,2,.06,3,.1q2.51.1,5,.33c2.09.18,4.16.4,6.24.75a47.38,47.38,0,0,1,9.87,2.39c1.22.49,2.52.75,3.78,1.16A121.43,121.43,0,0,1,93.92,11.6a56.85,56.85,0,0,1,8.85,5,1,1,0,0,1,.25.2,3.32,3.32,0,0,0,1.1.94c.91.56,1.83,1.09,2.73,1.65a21.89,21.89,0,0,1,5.1,4.2,12.47,12.47,0,0,1,2.84,5.75c.09.46.14.94.21,1.41v2.06l-.08.92a21.74,21.74,0,0,1-2,6.49,45.92,45.92,0,0,1-5.79,8.92c-.51.64-1.06,1.22-1.51,1.88s-.87,1.26-1.34,1.85a158.31,158.31,0,0,1-10.89,12.4c-1.63,1.68-3.29,3.34-5,5S84.86,73.43,83,75.07a116.49,116.49,0,0,1-9.37,7.35,69.7,69.7,0,0,1-10.19,6,5.63,5.63,0,0,0-.68.38c-.87.57-1.74,1.13-2.65,1.63a25.3,25.3,0,0,1-8.83,3.14c-.5.07-1,.11-1.51.17H47.5a.91.91,0,0,0-.23,0A17.11,17.11,0,0,1,41,92.05a23.41,23.41,0,0,1-7.51-6,42.29,42.29,0,0,1-5.23-8,78.27,78.27,0,0,1-4.59-11.19c-.38-1.15-.69-2.33-1.18-3.45A84.11,84.11,0,0,1,18,49.87,93.88,93.88,0,0,1,15.68,36c-.23-2.38-.34-4.77-.37-7.17q0-3,.18-6a7.22,7.22,0,0,0-.05-1.8,4.44,4.44,0,0,1-.1-.62C15.25,19.78,15.19,19.13,15.1,18.49Z"/><path class="cls-2" d="M44.43,127.11a6.64,6.64,0,0,1-2.81.54,6.19,6.19,0,0,1-3.17-.84,5.88,5.88,0,0,1-2.22-2.26,6.16,6.16,0,0,1-.84-3.14h0a6.31,6.31,0,0,1,.84-3.14A5.91,5.91,0,0,1,38.47,116a6.32,6.32,0,0,1,3.26-.84,7.05,7.05,0,0,1,2.73.48,6.53,6.53,0,0,1,2,1.39l-1.68,2a6,6,0,0,0-1.53-1,3.85,3.85,0,0,0-1.61-.35,3.33,3.33,0,0,0-1.81.51,3.58,3.58,0,0,0-1.25,1.37,3.94,3.94,0,0,0-.45,1.9h0a3.94,3.94,0,0,0,.45,1.9,3.42,3.42,0,0,0,1.25,1.39,3.31,3.31,0,0,0,1.81.51,3.63,3.63,0,0,0,1.68-.35,6.12,6.12,0,0,0,1.5-1.07l1.68,1.68A7.26,7.26,0,0,1,44.43,127.11Z"/><path class="cls-2" d="M56.29,122.59H51.38v4.86H48.71V115.34h2.67v4.79h4.91v-4.79H59v12.11H56.29Z"/><path class="cls-2" d="M61.86,115.34H71v2.37H64.5v2.45h5.71v2.37H64.5V125h6.57v2.41h-9.2Z"/><path class="cls-2" d="M81,126.61a4.92,4.92,0,0,1-3.22,1,7.73,7.73,0,0,1-2.74-.5,7.44,7.44,0,0,1-2.41-1.43l1.57-1.89a7.22,7.22,0,0,0,1.75,1.09,4.47,4.47,0,0,0,1.87.38,2.29,2.29,0,0,0,1.28-.3,1,1,0,0,0,.47-.83h0a1,1,0,0,0-.19-.61,2.11,2.11,0,0,0-.72-.46,12.38,12.38,0,0,0-1.54-.47,14,14,0,0,1-2.21-.75,3.15,3.15,0,0,1-1.32-1.1,3.25,3.25,0,0,1-.48-1.85h0a3.38,3.38,0,0,1,.55-1.91,3.51,3.51,0,0,1,1.5-1.28,4.9,4.9,0,0,1,2.19-.46,7,7,0,0,1,4.5,1.54l-1.39,2a5.64,5.64,0,0,0-3.14-1.2,2,2,0,0,0-1.15.29.91.91,0,0,0-.41.76h0a1,1,0,0,0,.22.66,2,2,0,0,0,.75.46c.55.18,1.11.34,1.67.47a7.42,7.42,0,0,1,2.91,1.33,2.87,2.87,0,0,1,.94,2.31h0A3.34,3.34,0,0,1,81,126.61Z"/><path class="cls-2" d="M91.85,126.61a5,5,0,0,1-3.22,1,7.77,7.77,0,0,1-2.74-.5,7.35,7.35,0,0,1-2.4-1.44l1.57-1.89a6.93,6.93,0,0,0,1.75,1.09,4.64,4.64,0,0,0,1.87.39A2.38,2.38,0,0,0,90,125a1,1,0,0,0,.47-.84h0a.92.92,0,0,0-.19-.6,2,2,0,0,0-.72-.47c-.5-.18-1-.34-1.54-.47a14,14,0,0,1-2.21-.75,3.05,3.05,0,0,1-1.32-1.09,3.3,3.3,0,0,1-.48-1.86h0a3.4,3.4,0,0,1,.55-1.91A3.48,3.48,0,0,1,86,115.69a4.83,4.83,0,0,1,2.18-.46,7,7,0,0,1,4.5,1.54l-1.39,2a5.64,5.64,0,0,0-3.14-1.2,2,2,0,0,0-1.15.29.91.91,0,0,0-.41.77h0a1,1,0,0,0,.22.65,1.88,1.88,0,0,0,.75.46,16.67,16.67,0,0,0,1.67.48,7.27,7.27,0,0,1,2.91,1.32,2.89,2.89,0,0,1,.94,2.31h0A3.36,3.36,0,0,1,91.85,126.61Z"/><path class="cls-3" d="M52.48,61c-.1-1-.1-1.21-.1-1.21L51,59.71l-1.36.09s0,.25-.11,1.21a1.71,1.71,0,0,1-.76,1.32v.51l2.27.61,2.27-.61v-.51A1.74,1.74,0,0,1,52.48,61Z"/><path class="cls-4" d="M50.93,60.67h0a4.53,4.53,0,0,1-4.61-4.41V51.89l4.38-1.61,4.81,1.18v4.8A4.52,4.52,0,0,1,50.93,60.67Z"/><path class="cls-5" d="M54.62,52a7.75,7.75,0,0,1-4.74,1.35c-2.75-.16-3-.67-3-.67l-.51,3.34a23.52,23.52,0,0,1-.45-4.35c.07-1.74,1.73-3.83,5.7-3.52s5.16,2.57,5,4.66a4.84,4.84,0,0,1-1.09,3Z"/><path class="cls-6" d="M44.4,79.83s.48-15.18,1.51-16.13S48,63.27,48,66.37s-1.07,13.86-1.07,13.86Z"/><polygon class="cls-4" points="46.58 80.18 46.39 81.05 41.75 81.05 41.75 80.64 43.4 79.89 44.9 79.89 46.58 80.18"/><polygon class="cls-7" points="56.18 62.87 53.28 62.14 51 63.27 48.73 62.14 46.47 63.27 46.47 72.68 57.01 76.59 56.18 62.87"/><path class="cls-8" d="M55.83,75s-5-3.36-7.2-4.09-4.81-.28-4.93,1.11-.85,4.65,2.74,6.23,4.82,2.26,7.81,2.26,3.3-.28,3.3-.28l-.91-3.55Z"/><path class="cls-6" d="M58.81,79.8s-.48-15.56-1.51-16.53-2.1-.44-2.08,2.74,1.12,14.2,1.12,14.2Z"/><polygon class="cls-4" points="56.62 80.15 56.82 81.05 61.46 81.05 61.46 80.63 59.81 79.86 58.31 79.86 56.62 80.15"/><path class="cls-9" d="M45.41,83.9s2.89-11.33,3.5-12.19S52.59,71.3,52,74s-5.29,10.58-5.29,10.58l-.21.76H43v-.76Z"/><path class="cls-9" d="M40.36,83.9s2.89-11.33,3.5-12.19,3.61-1.23,3,1.45S41.7,84.6,41.7,84.6l-.2.75H37.92V84.6Z"/><polygon class="cls-10" points="46.73 84.6 45.39 83.9 42.95 84.6 42.95 85.34 46.53 85.34 46.73 84.6"/><polygon class="cls-10" points="41.71 84.6 40.36 83.9 37.92 84.6 37.92 85.34 41.5 85.34 41.71 84.6"/><path class="cls-11" d="M64.38,79.18s.49-15.05,1.51-16S68,62.77,68,65.83s-1.11,13.74-1.11,13.74Z"/><polygon class="cls-4" points="66.55 79.53 66.36 80.39 61.76 80.39 61.76 79.98 63.39 79.24 64.87 79.24 66.55 79.53"/><path class="cls-3" d="M72.4,60.33c-.11-1-.11-1.19-.11-1.19l-1.36-.09-1.34.07s0,.24-.11,1.2a1.74,1.74,0,0,1-.76,1.31v.52l2.27.6,2.26-.6v-.52A1.69,1.69,0,0,1,72.4,60.33Z"/><path class="cls-12" d="M75.47,47.79s.16-1.28,2.43-1.38a3.68,3.68,0,0,1,3.38,4.75c-.73,2.29-3.15,6.35-3.3,7.62a1.51,1.51,0,0,0,.76,1.67s-1.26.06-1.8-2.54.41-6.24.28-7.07a2.06,2.06,0,0,0-1-1.29Z"/><path class="cls-12" d="M76.06,52.88a17.05,17.05,0,0,1-.14,2.47,2.28,2.28,0,0,1-.49.87L73.76,52.9Z"/><path class="cls-12" d="M65.67,52.88a15.74,15.74,0,0,0,.14,2.47,2.42,2.42,0,0,0,.49.87L68,52.9Z"/><path class="cls-4" d="M70.84,60h0a4.53,4.53,0,0,1-4.63-4.38V51.28l4.42-1.59,4.84,1.16v4.77A4.54,4.54,0,0,1,70.84,60Z"/><path class="cls-12" d="M67.6,51a9.13,9.13,0,0,0,3.78,1.1A15.29,15.29,0,0,0,74,52a6.8,6.8,0,0,1,1.51,2.7c.16,1.2.27.87.27.87l.28-2.69s.59-2.59-1-4.08a6.57,6.57,0,0,0-6.4-1.27c-1.91.8-1.85,1.35-1.85,1.35V47.79l-.61.61.3.36-.62.19.32.13a1.87,1.87,0,0,0-1,1.33,10.87,10.87,0,0,0,.43,3.26,3.45,3.45,0,0,0,1.15-1.22A9.28,9.28,0,0,0,67.6,51Z"/><path class="cls-11" d="M74.67,48.46l.8-.67s1.51,1.29,1.4,1.71-.91.75-.91.75Z"/><polygon class="cls-13" points="76.06 62.36 73.19 61.64 70.93 62.76 68.67 61.64 66.43 62.76 66.43 72.09 76.88 75.96 76.06 62.36"/><path class="cls-6" d="M75.72,74.43s-5-3.33-7.14-4.05-4.77-.28-4.89,1.1-.85,4.62,2.73,6.17,4.76,2.22,7.73,2.27,3.27-.28,3.27-.28l-.9-3.51Z"/><path class="cls-11" d="M78.66,79.15s-.49-15.42-1.52-16.39-2.08-.42-2.07,2.72,1.13,14,1.13,14Z"/><polygon class="cls-4" points="76.5 79.5 76.7 80.39 81.29 80.39 81.29 79.97 79.66 79.21 78.18 79.21 76.5 79.5"/><path class="cls-4" d="M64,83.21S66.87,72,67.48,71.12s3.64-.4,3.08,2.27-5.22,10.53-5.22,10.53l-.19.75H61.59v-.75Z"/><path class="cls-4" d="M60.39,83.21S63.24,72,63.85,71.12s3.58-1.21,3,1.45-5.14,11.34-5.14,11.34l-.21.75H58v-.75Z"/><polygon class="cls-14" points="106.07 90.83 107.75 91.5 112.39 93.52 112.1 94.77 102.24 93.52 102.24 90.03 106.07 90.83"/><path class="cls-8" d="M84.62,84.75s.24,2,5.75,4.82a46.81,46.81,0,0,0,11.87,4l1.24-2.69Z"/><path class="cls-8" d="M100.89,81.5s-6-4.27-8.46-4.74-4.08.76-4,2.74,12.44,6.93,12.44,6.93,4.93-4,5-4.44-1.37-2.27-1.37-2.27Z"/><path class="cls-12" d="M106.33,53.08s-2.81,1.78-2.77,3.57A4.9,4.9,0,0,0,104,59a7,7,0,0,0-4.91,4.53,4.47,4.47,0,0,0,1.81,5.51l7.56,1,2.75-13Z"/><path class="cls-12" d="M118.15,55.55s1.85,2.78,1.09,4.4a5.23,5.23,0,0,1-1.29,2,7,7,0,0,1,2.63,6.16c-.4,4-5.78,5.18-5.78,5.18l-5.45-3,2.76-13Z"/><path class="cls-15" d="M112.42,62.31c.12-1.3.19-1.61.19-1.61l-1.67-.48L109.22,60s-.07.32-.47,1.55A2.27,2.27,0,0,1,107.41,63l-.14.67,2.64,1.39,3-.19.14-.68A2.28,2.28,0,0,1,112.42,62.31Z"/><path class="cls-14" d="M110.56,61.45h0a5.88,5.88,0,0,1-4.53-7h0l1.21-5.7,6-.93,5.69,2.8-1.33,6.27a5.89,5.89,0,0,1-7,4.54Z"/><path class="cls-12" d="M108.55,49a12.79,12.79,0,0,0,4,3,7.47,7.47,0,0,0,3.54.35l1.2,1.2.13,3.78a26,26,0,0,0,2.1-7c.19-2.91-4.39-5.72-8.32-5.29s-4.8,4.06-4.95,5.84a6.32,6.32,0,0,0,0,2.22C106.29,52.85,108.55,49,108.55,49Z"/><path class="cls-11" d="M107.24,48.78s1.41-4.19,6.65-3.07,4.58,5.45,4.58,5.45a6.49,6.49,0,0,0-4.75-4.58A7.22,7.22,0,0,0,107.24,48.78Z"/><path class="cls-14" d="M89.57,59.63a9.35,9.35,0,0,0-1.67-2.06c-.52-.25-4.71-.26-5.19.44s1,1.78,2.6,1.92a9.13,9.13,0,0,1,2.26.32l.61.66Z"/><path class="cls-11" d="M106.07,62.9,95.72,64.49,89.8,59.2l-2.27,2.1s6,6.66,7.56,7.27,9.35-1.41,9.35-1.41Z"/><path class="cls-16" d="M115.83,66l-2.55-1.45-4,.26L106,63s-1.78,3.54-2.14,3.91a6,6,0,0,0-2.27,2.87,4.44,4.44,0,0,0,.87,3.32l-1.6,8.36,10.21,2.67L116.37,68Z"/><polygon class="cls-17" points="112.82 63.76 109.26 64.8 107.94 62.49 106.07 62.89 106.71 66.3 109.16 65.15 109.93 67.64 114.18 64.96 112.82 63.76"/><path class="cls-11" d="M120.58,91.5s-2.13-19.8-2.49-22-1.3-3.34-2.27-3.48-3,.83-2.35,4.93,4.35,20.58,4.35,20.58Z"/><polygon class="cls-14" points="120.58 91.5 123.31 90.83 126.26 92.39 125.38 92.9 123 92.48 118.66 92.9 118.14 91.5 120.58 91.5"/><path class="cls-18" d="M111.09,84.17s-1.1,5.06-3.19,6.66-5.13,1.6-8.38.67-14-5.66-14.9-6.75-.15-5,1.95-5,14.32,4.46,14.32,4.46l2-2.14Z"/><path class="cls-3" d="M17.76,62.28V60.57l-1.82-.31-1.84,0s0,.34-.32,1.67a2.41,2.41,0,0,1-1.21,1.78l-.07.75,2.94,1.15L18.55,65l.07-.76A2.41,2.41,0,0,1,17.76,62.28Z"/><path class="cls-19" d="M19,58.47a17.19,17.19,0,0,1-2.27,0c-1-.1-2.32-.34-2.32-.34s.69,2.12,2.09,2.26S19,58.47,19,58.47Z"/><path class="cls-14" d="M15.78,61.92h0a5.92,5.92,0,0,0,6.48-5.29l.58-5.82-5.39-2.73L11.11,49l-.64,6.42A5.93,5.93,0,0,0,15.78,61.92Z"/><path class="cls-5" d="M21.53,50.55a12.38,12.38,0,0,1-4.78,1.62,7.48,7.48,0,0,1-3.51-.75l-1.51.75-1.28,3.61a26,26,0,0,1,.14-7.4c.7-2.86,5.95-4.14,9.57-2.5s3.36,5.36,3,7.12-.76,2.26-.72,2.11S21.53,50.55,21.53,50.55Z"/><polygon class="cls-14" points="10.82 90.83 9.02 90.93 3.97 91.35 3.85 92.62 13.59 94.61 14.71 91.3 10.82 90.83"/><path class="cls-20" d="M37.1,92s-.84,1.76-7,2.71-16.53,0-16.53,0l-.32-3Z"/><path class="cls-20" d="M20.72,82.65s9.07-1.11,11.56-.76,3.62,2,2.88,3.88-18,2.57-18,2.57-3.38-5.4-3.32-5.82,2-1.72,2-1.72Z"/><path class="cls-14" d="M36.46,66.57a9.16,9.16,0,0,1,2.26-1.42c.6-.08,4.54,1.27,4.76,2.08s-1.46,1.38-3.06,1a9.77,9.77,0,0,0-2.27-.42l-.76.43Z"/><path class="cls-21" d="M19.78,64.36l9.29,4.83,7.31-3.11,1.51,2.72s-7.8,4.38-9.51,4.45S20,69,20,69Z"/><path class="cls-6" d="M9.54,64.16l2.88-.55,3.73,1.51,3.63-.75.23.11s.86.46.71,3.87c0,.51.1,1.35,0,3.68,0,1.68-.19,3.1-.19,3.1l.18,7.55L7.46,83l.93-17.12Z"/><polygon class="cls-21" points="13.1 63.02 16.15 65.15 18.15 63.39 19.78 64.36 18.08 67.38 16.13 65.51 14.6 67.63 11.44 63.72 13.1 63.02"/><path class="cls-22" d="M7.47,82.91s.15,5.14,1.62,7.33,4.34,3.16,7.72,3.32S36,92.7,37.11,92s1.76-4.72-.22-5.4-19-.38-19-.38l-1.32-3.44Z"/><path class="cls-21" d="M10.33,64c.39.06,1.86,1.41,2.7,4s2.07,6.87,2.07,6.87l10.82,1.51-.16,2.87s-12.21-.64-13.2-1.33S8.94,71.42,8,69.31s-1.36-4.49.06-5.07A3.37,3.37,0,0,1,10.33,64Z"/><path class="cls-14" d="M25.9,76.81s3.78-.2,4.08-.15,1.39.87,1.39,1.29a2.18,2.18,0,0,1-.88,1.74,5.27,5.27,0,0,1-2.37,0c-.39-.06-2.33-.87-2.33-.87Z"/><rect class="cls-23" x="62.3" y="91.94" width="24.67" height="2.1"/><polygon class="cls-24" points="80.65 89.67 82.4 91.94 77.46 91.94 76.37 89.67 80.65 89.67"/><polygon class="cls-25" points="84.56 89.67 86.98 91.94 82.4 91.94 80.65 89.67 84.56 89.67"/><polygon class="cls-24" points="72.2 89.67 72.74 91.94 68.25 91.94 68.1 89.67 72.2 89.67"/><polygon class="cls-25" points="76.37 89.67 77.46 91.94 72.74 91.94 72.2 89.67 76.37 89.67"/><rect class="cls-24" x="62.31" y="89.67" width="2.42" height="2.27"/><polygon class="cls-25" points="68.1 89.67 68.25 91.94 64.72 91.94 64.72 89.67 68.1 89.67"/><polygon class="cls-24" points="75.33 87.52 76.37 89.67 72.2 89.67 71.68 87.52 75.33 87.52"/><polygon class="cls-25" points="78.99 87.52 80.65 89.67 76.37 89.67 75.33 87.52 78.99 87.52"/><polygon class="cls-25" points="71.68 87.52 72.2 89.67 68.1 89.67 67.95 87.52 71.68 87.52"/><polygon class="cls-24" points="68.1 89.67 64.72 89.67 64.72 87.52 67.95 87.52 68.1 89.67"/><rect class="cls-25" x="62.31" y="87.52" width="2.42" height="2.15"/><polygon class="cls-24" points="78.99 87.52 82.25 87.52 84.56 89.67 80.65 89.67 78.99 87.52"/><path class="cls-25" d="M64.73,87.52V86.07h3.12l.1,1.46Z"/><path class="cls-25" d="M78,86.21l3,.07,1.32,1.24H79Z"/><path class="cls-24" d="M75.33,87.52l-.66-1.38,3.31.07,1,1.31Z"/><path class="cls-24" d="M64.73,86.07v1.45H62.31V86.07C62.59,86.07,63.26,86.1,64.73,86.07Z"/><path class="cls-25" d="M71.68,87.52l-.35-1.44,3.34.06.66,1.38Z"/><path class="cls-24" d="M68,87.52l-.1-1.47h3.48l.35,1.44Z"/><rect class="cls-23" x="39.25" y="91.94" width="24.67" height="2.1"/><polygon class="cls-24" points="45.58 89.67 43.83 91.94 48.77 91.94 49.87 89.67 45.58 89.67"/><polygon class="cls-25" points="41.68 89.67 39.25 91.94 43.83 91.94 45.58 89.67 41.68 89.67"/><polygon class="cls-24" points="54.04 89.67 53.49 91.94 57.98 91.94 58.13 89.67 54.04 89.67"/><polygon class="cls-25" points="49.87 89.67 48.77 91.94 53.49 91.94 54.04 89.67 49.87 89.67"/><rect class="cls-24" x="61.5" y="89.67" width="2.42" height="2.27"/><polygon class="cls-25" points="58.13 89.67 57.98 91.94 61.5 91.94 61.5 89.67 58.13 89.67"/><polygon class="cls-24" points="50.9 87.52 49.87 89.67 54.04 89.67 54.55 87.52 50.9 87.52"/><polygon class="cls-25" points="47.25 87.52 45.58 89.67 49.87 89.67 50.9 87.52 47.25 87.52"/><polygon class="cls-25" points="54.55 87.52 54.04 89.67 58.13 89.67 58.28 87.52 54.55 87.52"/><polygon class="cls-24" points="58.13 89.67 61.5 89.67 61.5 87.52 58.28 87.52 58.13 89.67"/><rect class="cls-25" x="61.5" y="87.52" width="2.42" height="2.15"/><polygon class="cls-24" points="47.25 87.52 43.98 87.52 41.68 89.67 45.58 89.67 47.25 87.52"/><path class="cls-25" d="M61.5,87.52V86.07H58.38l-.13,1.45Z"/><path class="cls-25" d="M48.25,86.21l-3,.07L44,87.52h3.27Z"/><path class="cls-24" d="M50.9,87.52l.67-1.38-3.32.07-1,1.31Z"/><path class="cls-24" d="M61.5,86.07v1.45h2.42V86.07C63.64,86.07,63,86.1,61.5,86.07Z"/><path class="cls-25" d="M54.55,87.52l.35-1.44-3.33.06-.67,1.38Z"/><path class="cls-24" d="M58.25,87.52l.1-1.47H54.87l-.35,1.44Z"/><rect class="cls-6" x="47.74" y="85.42" width="1.67" height="3.53"/><rect class="cls-26" x="77.14" y="85.1" width="1.67" height="3.53"/><rect class="cls-26" x="79.52" y="83.33" width="1.67" height="3.53"/><rect class="cls-26" x="82.6" y="87.28" width="1.67" height="3.53"/><rect class="cls-6" x="45.18" y="83.65" width="1.67" height="3.53"/><rect class="cls-6" x="41.58" y="87.51" width="1.67" height="3.53"/></g></g></svg>