<svg id="Layer_12" data-name="Layer 12" xmlns="http://www.w3.org/2000/svg" viewBox="0 0 128 128"><defs><style>.cls-1{fill:#02a8e2;}.cls-2{fill:#9e9c9c;}.cls-3{fill:#eff1ef;}.cls-4{fill:#e89f7a;}.cls-5{fill:#ff8862;}.cls-6{fill:#d7d7d7;}.cls-7{fill:#ffa06f;}.cls-8{fill:#e5e7e4;}.cls-9{fill:#0cf;}.cls-10{fill:#2a4c72;}.cls-11{fill:#bdbdbc;}.cls-12{fill:#b35600;}.cls-13{fill:#fff;}.cls-14{fill:#2c2a2c;}.cls-15{fill:#5f6e69;}</style></defs><g id="Layer_2" data-name="Layer 2"><g id="Layer_1-2" data-name="Layer 1-2"><path class="cls-1" d="M16.58,19.71V17.58a2.21,2.21,0,0,1,.05-.25,11.8,11.8,0,0,1,3.23-7.15,19.61,19.61,0,0,1,6.47-4.4,38.58,38.58,0,0,1,7-2.29c1.38-.35,2.76-.7,4.16-1a53.69,53.69,0,0,1,6.94-.46A2,2,0,0,0,44.94,2h6.34l.25,0c1,0,2,.06,3,.1,1.69.07,3.38.18,5,.33,2.1.18,4.2.4,6.28.76a47.1,47.1,0,0,1,9.94,2.4c1.25.5,2.55.76,3.81,1.17A121.5,121.5,0,0,1,96,12.77a57.24,57.24,0,0,1,8.92,5,1.27,1.27,0,0,1,.25.21,3.15,3.15,0,0,0,1.11.94c.91.57,1.83,1.1,2.75,1.67a21.29,21.29,0,0,1,5.13,4.23A12.31,12.31,0,0,1,117,30.59c.09.47.15.95.22,1.42v2.08c0,.31-.07.62-.12.93a22.15,22.15,0,0,1-2.06,6.54,47.5,47.5,0,0,1-5.83,9c-.51.64-1.08,1.24-1.53,1.9s-.87,1.26-1.34,1.86a160.65,160.65,0,0,1-11,12.5c-1.64,1.69-3.32,3.36-5,5s-3.51,3.28-5.4,4.93a114.23,114.23,0,0,1-9.44,7.4,71.08,71.08,0,0,1-10.26,6.09,5,5,0,0,0-.68.38c-.88.58-1.76,1.14-2.68,1.65A25.42,25.42,0,0,1,53,95.4c-.49.07-1,.11-1.52.17H49.2a.83.83,0,0,0-.22,0,17.39,17.39,0,0,1-6.32-1.72,23.38,23.38,0,0,1-7.56-6.09,42,42,0,0,1-5.25-8A78.55,78.55,0,0,1,25.23,68.4c-.39-1.15-.7-2.34-1.19-3.47a83.61,83.61,0,0,1-4.51-13.62,94,94,0,0,1-2.36-13.94q-.33-3.6-.37-7.22,0-3,.18-6a6.46,6.46,0,0,0-.05-1.81,4.58,4.58,0,0,0-.1-.63C16.74,21,16.67,20.36,16.58,19.71Z"/><path class="cls-2" d="M23.2,121.37h4.95v2.07H23.2v4H20.92V117.08h7.9v2.08H23.2Z"/><path class="cls-2" d="M40.51,125a5.35,5.35,0,0,1-2,2,6,6,0,0,1-5.65,0,5.28,5.28,0,0,1-2.69-4.63h0a5.2,5.2,0,0,1,.72-2.7,5.32,5.32,0,0,1,2-2,6,6,0,0,1,5.66,0,5.18,5.18,0,0,1,2.73,4.63h0A5.34,5.34,0,0,1,40.51,125Zm-2.08-4.3a3.15,3.15,0,0,0-1.12-1.2,3.22,3.22,0,0,0-3.23,0A3.14,3.14,0,0,0,33,120.65a3.41,3.41,0,0,0-.39,1.63h0a3.25,3.25,0,0,0,.41,1.64,3,3,0,0,0,1.1,1.18,3,3,0,0,0,1.62.44,3,3,0,0,0,2.71-1.61,3.43,3.43,0,0,0,.41-1.63h0a3.42,3.42,0,0,0-.4-1.66Z"/><path class="cls-2" d="M53.12,125a5.32,5.32,0,0,1-2,2,6,6,0,0,1-5.66,0,5.29,5.29,0,0,1-2.68-4.63h0a5.32,5.32,0,0,1,2.7-4.66,6,6,0,0,1,5.66,0,5.26,5.26,0,0,1,2.68,4.63h0A5.23,5.23,0,0,1,53.12,125ZM51,120.67A3,3,0,0,0,48.3,119a3,3,0,0,0-2.72,1.58,3.49,3.49,0,0,0-.41,1.63h0a3.33,3.33,0,0,0,.41,1.64,3.05,3.05,0,0,0,1.12,1.19,2.94,2.94,0,0,0,1.61.44A3,3,0,0,0,51,123.9a3.42,3.42,0,0,0,.4-1.63h0a3.3,3.3,0,0,0-.39-1.63Z"/><path class="cls-2" d="M60.13,127.47H57.85v-8.28H54.68v-2.11H63.3v2.11H60.14Z"/><path class="cls-2" d="M72.86,126.75a4.91,4.91,0,0,1-2.87.72H65V117.08h4.82a4,4,0,0,1,2.51.72,2.34,2.34,0,0,1,.92,2h0A2.44,2.44,0,0,1,71.93,122a3.42,3.42,0,0,1,1.44,1,2.42,2.42,0,0,1,.5,1.64h0A2.43,2.43,0,0,1,72.86,126.75Zm-2.22-7.39a1.85,1.85,0,0,0-1.12-.27H67.27v2.19h2.1a2.24,2.24,0,0,0,1.22-.27.9.9,0,0,0,.43-.83h0A.91.91,0,0,0,70.64,119.36Zm.54,4.11a2.23,2.23,0,0,0-1.27-.29H67.27v2.28H70a2.06,2.06,0,0,0,1.19-.28.93.93,0,0,0,.43-.85h0A1,1,0,0,0,71.18,123.47Z"/><path class="cls-2" d="M82.54,125.14h-4.4l-1,2.33h-2.3L79.33,117h2.1l4.45,10.47h-2.4Zm-3.59-2H81.7l-1.38-3.37Z"/><path class="cls-2" d="M87.48,117.08h2.28v8.31h5.18v2.08H87.48Z"/><path class="cls-2" d="M96.66,117.08H99v8.31h5.17v2.08H96.66Z"/><ellipse class="cls-3" cx="54.76" cy="106.06" rx="28.16" ry="2.81"/><path class="cls-4" d="M58.49,70.39s-2.48,4.84-2.33,6.7S58.53,80.9,58.49,81,70,98.17,70.26,99.54s-1.18,4.16-2.29,4.7-4.65,1-4.69,1.32-1.38,1.17-.35,1.92a7.07,7.07,0,0,0,6.09.86c2.49-.87,3.72-2.28,5.38-2.4s1.42,1.08,4.84-.53c.51-.24-.88-6.21-3.17-6.8-1-.25-3.39-11.68-4.07-13.21-1.32-3-6.65-6.09-6.94-6.4s1.57-9.21,1.57-9.21S59.06,68.58,58.49,70.39Z"/><path class="cls-5" d="M69.69,102.05c1.75-.17,3.12-1.41,4.62-2.4a6,6,0,0,1,2.07-.93,1.35,1.35,0,0,0-.35-.14C75,98.33,72.64,86.9,72,85.37c-1.32-3-6.64-6.09-6.94-6.4s1.61-9.18,1.61-9.18-7.57-1.2-8.14.61c0,0-2.48,4.84-2.33,6.7s2.37,3.8,2.33,3.86S70,98.18,70.26,99.55A4.82,4.82,0,0,1,69.69,102.05Z"/><path class="cls-6" d="M70.26,99.54a5.37,5.37,0,0,1-.77,2.95c1.73.88,4.63-.58,6.1-1.33a16,16,0,0,0,2-1.27,3,3,0,0,0-1.52-1.28c-1-.25-3.4-11.68-4.08-13.21C71,83,67.22,80.48,65.71,79.46a6.36,6.36,0,0,1-6.38,2.39l.05.08a.19.19,0,0,1,0,.24C61.87,86.12,70.05,98.39,70.26,99.54Z"/><path class="cls-7" d="M77.93,23.26a7.87,7.87,0,0,1-.12,1.18,10.34,10.34,0,0,1-.22,1.75,4.13,4.13,0,0,1-3.26,3.09,3.88,3.88,0,0,1-3.64-1.77c-.2-.33-.38-.66-.55-1l-.34.11a3.28,3.28,0,0,1-1.24.18h0a10.58,10.58,0,0,1-3-1.84h0A17.58,17.58,0,0,1,62,20.3c-1-2.21-3-9.65,2.28-12.32s10.23-1.15,12.31.9S78.3,17.3,77.49,19a9.33,9.33,0,0,1-.94,1.73l1.33,2.48h0Z"/><path class="cls-5" d="M77.92,23.25h0l-1.36-2.49A9.29,9.29,0,0,0,77.49,19a2.84,2.84,0,0,0,.17-.49c-1.3.83-2.2,2.59-3,3.89a11.41,11.41,0,0,1-4.51,4.07l.55,1a3.87,3.87,0,0,0,3.64,1.77,4.13,4.13,0,0,0,3.26-3.09,10.34,10.34,0,0,0,.22-1.75,7.87,7.87,0,0,0,.12-1.18Z"/><path class="cls-7" d="M104.54,52.78a2.29,2.29,0,0,1-2.35,1.63c-1.17-.19-2.81,0-3-1.17a34.85,34.85,0,0,1,0-4.57l-9-10.54L90.13,38a4.73,4.73,0,0,1-.32.46,2.05,2.05,0,0,1-.76.67.29.29,0,0,1-.16,0c-.58.07-3.91-2.87-3.91-2.87s.59,10.44,1,15,.46,7.9-.71,8.75l-.28.17a3.6,3.6,0,0,1-.39.2h0a2.43,2.43,0,0,1-.38.13h-.12a2.32,2.32,0,0,1-.38.07h0a2.81,2.81,0,0,1-.41,0H83s-6.49,12.52-7.14,12.65-2.15,2-2.15,2l-5.31,6.53s1.18,5.16-.13,9.47-4.5,9.58-4.5,9.84.05,7.4-.76,8-3.18.62-4.42.29-3.72-.45-3.52-1.76,3.52-5.41,3.92-7.24,3.19-15.22,3.12-16a8.56,8.56,0,0,1,0-3.19,17,17,0,0,1,.82-3.52c.33-.66,1.52-5.49,1.52-5.49a.29.29,0,0,1-.33-.12c-.13-.2-5.28-.36-6.32-2.74-.28-.64,7.43-11.32,7.43-11.32l-.37-.31-1-.83s2.8-5.33,1.95-9.32-1.76-10-1.95-9.9a1.29,1.29,0,0,0-.21.19l0,.06c-.58.62-1.89,2.19-2.29,2.28h-.05a1.49,1.49,0,0,1-.37-.14h0a11.44,11.44,0,0,1-1.11-.69l-.07.09c-.72,1-7.43,10-7.43,11.2s.92,4.3.59,5.33-2.28,2.68-2.87,2.61A8.44,8.44,0,0,1,47,56.5c0-.26,1.1-4.76,1.1-5s4.64-11.88,5.48-13.83A13.28,13.28,0,0,1,55.14,35l.2-.24-.9-1h0s7.36-6.46,8.8-7.61l.07-.06A9.46,9.46,0,0,1,65.49,25h.05a10.66,10.66,0,0,0,3,1.83h0a3.08,3.08,0,0,0,1.24-.17,3.53,3.53,0,0,0,.34-.12,10,10,0,0,0,.55,1,3.88,3.88,0,0,0,3.64,1.76,4.08,4.08,0,0,0,3.25-3.09,9.32,9.32,0,0,0,.23-1.74c.06-.4.1-.79.12-1.19h0l.18,0,.19,0,.31.1h.12l1.61.53.27.1.28.09.31.11a53.78,53.78,0,0,1,6,2.48l.39.19.41.22.76.43.37.23.36.23.33.22c3.29,2.22,3.81,3.66,3.81,3.66l-.46.85.58.55C95,34.6,98.14,37.77,99.36,40a51,51,0,0,1,3,7.61S104.67,52.06,104.54,52.78Z"/><path class="cls-8" d="M61.94,83.76c0,.24.06.46.08.71.07.86-2.74,14.22-3.13,16s-3.72,5.94-3.91,7.24,2.28,1.44,3.51,1.76,3.58.37,4.43-.29.76-7.79.76-8,3.19-5.54,4.5-9.84a19.16,19.16,0,0,0,.47-7.27C66.48,85.13,63.74,85.21,61.94,83.76Z"/><path class="cls-9" d="M78.49,55.54c-2.73.22-5.44.7-8.18.76A16.78,16.78,0,0,1,66.5,56a12,12,0,0,1-1.84-.51l-.17-.07c-.38.92-.68,1.52-.68,1.52l1.37,1.15s-7.74,10.65-7.49,11.29c1.05,2.38,6.2,2.54,6.33,2.74a.5.5,0,0,0,.33.12A11.42,11.42,0,0,1,74.84,75.4c3.87-3.13,8.08-14.75,8.08-14.75a3.05,3.05,0,0,0,2.32-.58c.65-.48.93-1.74,1-3.56A15.17,15.17,0,0,0,78.49,55.54Z"/><path class="cls-3" d="M69.78,60.71c.62-1.37-.83-3-.35-4.39a17.35,17.35,0,0,1-3-.28,11.66,11.66,0,0,1-1.84-.51l-.17-.07c-.38.91-.68,1.52-.68,1.52l1.37,1.14s-7.71,10.65-7.46,11.29c.86,1.9,5.24,2.66,6.68,2.86C64.73,71.26,68.43,63.7,69.78,60.71Z"/><path class="cls-10" d="M94.24,32c-.18.48-.36,1-.57,1.4a14.77,14.77,0,0,1-3.49,4.76l-.4.37-.76.67a.29.29,0,0,1-.16,0c-.58.07-3.91-2.87-3.91-2.87s.59,10.44,1,15,.46,7.9-.71,8.75l-.28.17a3.6,3.6,0,0,1-.39.2h0a1.71,1.71,0,0,1-.38.13h-.12a1.59,1.59,0,0,1-.38.07h0a2.81,2.81,0,0,1-.41,0h-.1c-1.52-2.11-4.48-3-7-2.78-2.11.15-4.17.76-6.3.76a14.29,14.29,0,0,1-3.26-.3c-.61-.15-1.19-.44-1.81-.57l-1-.82s2.8-5.33,1.95-9.32-1.76-10-1.95-9.9a1.29,1.29,0,0,0-.21.19l0,.06c-.58.63-1.91,2.24-2.29,2.28h-.05l-.39-.16h0a8.06,8.06,0,0,1-1.17-.6,15,15,0,0,1-4.44-4.57c-.26-.39-.49-.8-.71-1.21h0s7.36-6.46,8.8-7.62l.08-.05A17.8,17.8,0,0,1,65.54,25h0a10.58,10.58,0,0,0,3,1.84h0a3.28,3.28,0,0,0,1.24-.18l.34-.11c.17.35.35.68.55,1a3.88,3.88,0,0,0,3.64,1.77,4.13,4.13,0,0,0,3.26-3.09,9.41,9.41,0,0,0,.22-1.75,7.87,7.87,0,0,0,.12-1.18h0l.18,0,.1,0,.31.1h.12l1.61.53.27.1.28.09.31.11a53.78,53.78,0,0,1,6,2.48l.39.19.41.22.76.43.37.23.36.23.33.22A19.92,19.92,0,0,1,94.24,32Z"/><path class="cls-6" d="M85.1,38.53a2.5,2.5,0,0,0-.67-.05c-1.16.09-2.07,1-3.13,1.27-2.24.66-4.36-.86-6.61-.68s-4.61,1.45-7,1.32a2.69,2.69,0,0,1-1.79-.69c-.54-.49-1.12-1.48-1.92-1.39.36,1.59,1.09,6.09,1.76,9.32.83,4-2,9.32-2,9.32l1,.84c.62.12,1.2.41,1.8.56a14.39,14.39,0,0,0,3.27.31c2.13,0,4.19-.58,6.3-.76,2.52-.19,5.52.67,7,2.77a3.21,3.21,0,0,0,2.07-.62c1.17-.84,1.1-4.17.71-8.73C85.67,48.08,85.29,41.83,85.1,38.53Z"/><path class="cls-10" d="M76.89,99.1c-1.07-.67-2.71.91-3.53,1.37a18.07,18.07,0,0,1-3.67,1.58A6.47,6.47,0,0,1,68,104.24c-1.13.53-4.65,1-4.7,1.32s-1.38,1.17-.34,1.92a7.06,7.06,0,0,0,6.09.86c2.49-.87,3.71-2.28,5.37-2.4s1.43,1.08,4.84-.53C79.64,105.2,78.65,100.66,76.89,99.1Z"/><path class="cls-6" d="M71.91,102.34c-3.36.52-7.1,2.65-9,3.06a7.68,7.68,0,0,1-4.65-1.06.76.76,0,0,0,.11,1.22,6.69,6.69,0,0,0,5.75.81c2.34-.83,3.5-2.16,5.07-2.26s1.34,1,4.56-.51c.2-.09.1-1-.22-2.19A3.93,3.93,0,0,1,71.91,102.34Z"/><path class="cls-10" d="M62,100.89c-1.14-.56-2.2.41-3.32.36-.88,2-3.49,5.32-3.66,6.5s2.28,1.44,3.51,1.76,3.58.37,4.43-.29c.63-.48.76-4.56.76-6.72A5.74,5.74,0,0,0,62,100.89Z"/><path class="cls-11" d="M56,105.36c-1.59-.49-3.25.45-4.74-.31a2.8,2.8,0,0,0-.3.79c-.19,1.22,2.16,1.35,3.32,1.65s3.37.35,4.17-.27a2,2,0,0,0,.4-1.11A11.63,11.63,0,0,1,56,105.36Z"/><path class="cls-12" d="M61.59,15.05a5.57,5.57,0,0,0,4.26.12c.93-.37,2-1.08,3-.62a1.89,1.89,0,0,1,.91,1.09c.28.61,1,2.71,2.17,1.61.27-.26.25-.72.55-1a1.38,1.38,0,0,1,1-.22,1.3,1.3,0,0,1,1.19,1.2c.11.86-.48,1.72-.24,2.53.57,1.93,2,.95,2,.95A9.44,9.44,0,0,0,77.49,19c.76-1.73,1.2-8.14-.88-10.17S69.62,5.3,64.33,8c-2.79,1.41-3.55,4.16-3.5,6.76Z"/><path class="cls-3" d="M76.27,12.09c-1.38,1.27-2.94,2.42-4.57,1.69-4.63-2.09-7.79.83-10.7-1.27a10.49,10.49,0,0,0-.18,2.23c.29.12.57.25.76.31a5.54,5.54,0,0,0,4.25.12c.93-.37,2-1.08,3-.62a1.88,1.88,0,0,1,.9,1.09c.29.61,1,2.71,2.17,1.61.27-.26.26-.72.56-1a1.37,1.37,0,0,1,1-.22,1.29,1.29,0,0,1,1.2,1.2c.11.86-.48,1.72-.24,2.53.57,1.93,2,.95,2,.95A9.44,9.44,0,0,0,77.49,19c.76-1.64,1.16-7.51-.59-9.83A3.92,3.92,0,0,1,76.27,12.09Z"/><path class="cls-13" d="M48.41,92.33a9.08,9.08,0,0,1,4.24,10.24h0a9.32,9.32,0,0,1-.88,2.11A9,9,0,0,1,39.42,108a8.8,8.8,0,0,1-1.81-1.35h0a9.07,9.07,0,0,1-1.92-10.26c.11-.22.22-.45.35-.67h0c.12-.21.25-.41.38-.61h0a9.55,9.55,0,0,1,1.08-1.3h0a9.05,9.05,0,0,1,10.66-1.57h0Z"/><path class="cls-14" d="M53.25,98.23a9.53,9.53,0,0,1-11.09,11.33A9.78,9.78,0,0,1,37.28,107h0a9.51,9.51,0,0,1-2-10.81c.08-.18.16-.34.25-.51l.23-.41c.09-.16.2-.31.3-.46h0a9.67,9.67,0,0,1,1.12-1.35l0,0a9.42,9.42,0,0,1,11.15-1.69h0l.21.12h0a9.51,9.51,0,0,1,4.3,5.21A10.62,10.62,0,0,1,53.25,98.23ZM38,106.33a8.42,8.42,0,0,0,1.7,1.26,8.28,8.28,0,0,0,2.67,1A8.56,8.56,0,0,0,51.51,96.2a8.51,8.51,0,0,0-3.35-3.48h0L48,92.61h0a8.49,8.49,0,0,0-5.33-.92,8.65,8.65,0,0,0-4.74,2.46h0a8.7,8.7,0,0,0-1,1.2h0a3.68,3.68,0,0,0-.24.39l.12.31-.34.08a2.82,2.82,0,0,0-.23.46,8.48,8.48,0,0,0-.3,6.43A8.72,8.72,0,0,0,38,106.33Z"/><path class="cls-15" d="M42.92,91.2a.51.51,0,0,1,0,.3l-.45.92.21-1.52A.54.54,0,0,1,42.92,91.2Zm-1,.21a.49.49,0,0,0,.19.28l.26-.39L42,91.13A.45.45,0,0,0,42,91.41Z"/><path class="cls-15" d="M44.41,98.87v1h-.06l0-1Z"/><polygon class="cls-15" points="44.37 98.87 44.33 99.19 44.3 99.84 44.23 99.83 44.28 99.45 44.29 98.87 44.37 98.87"/><polygon class="cls-15" points="40.81 104.96 40.02 106.16 39.4 103.19 40.81 104.96"/><path class="cls-15" d="M32.76,101.72a1.1,1.1,0,0,1,.32.39,2.35,2.35,0,0,1,.2.56,5.44,5.44,0,0,0,.63,1.44c.08.11.38.45.62.71a8.55,8.55,0,0,1-2.1-3.28A2.68,2.68,0,0,1,32.76,101.72Z"/><path class="cls-15" d="M44.14,105.07v.05a3,3,0,0,1,.25,1.15,8.54,8.54,0,0,1-5.51.82h0a.65.65,0,0,1-.26-.72A1,1,0,0,1,39,106l.71-.59a1.86,1.86,0,0,1,.51-.33,2.13,2.13,0,0,1,.94,0A9.15,9.15,0,0,0,44.14,105.07Z"/><path class="cls-15" d="M43.94,106a3.34,3.34,0,0,0-.1-.43,10,10,0,0,1-2.73,0H41a1.43,1.43,0,0,0-.65,0,1.47,1.47,0,0,0-.37.24l-.71.61c-.08,0-.2.15-.21.2a.22.22,0,0,0,0,.08A8.19,8.19,0,0,0,43.94,106Z"/><path class="cls-15" d="M51.5,96.5c.3.22.6.44.88.68l.1.09a9.06,9.06,0,0,1,.17,5.33h0a2.66,2.66,0,0,1-.47.3,3.93,3.93,0,0,1-1.31.49c-.4,0-.48-.46-.58-.76A14,14,0,0,0,49.12,100a.55.55,0,0,1-.12-.35.46.46,0,0,1,.09-.23l1.47-2.66a.72.72,0,0,1,.29-.33h0A.69.69,0,0,1,51.5,96.5Z"/><path class="cls-15" d="M52.22,102.28a8.55,8.55,0,0,0-.15-4.73c-.28-.23-.56-.45-.85-.65h0a.54.54,0,0,0-.16-.1.21.21,0,0,0-.06.1l-1.48,2.66h0l0,.07a13.29,13.29,0,0,1,1.21,2.76l0,.15a2.65,2.65,0,0,0,.11.3,3.61,3.61,0,0,0,1-.4H52Z"/><path class="cls-15" d="M48.19,92.22h0c0,.22,0,.48-.25.58a1.47,1.47,0,0,1-.66,0c-.44,0-.88,0-1.32-.07l-1.06-.06a1.9,1.9,0,0,1-1.07-.2,11.58,11.58,0,0,1-1.19-.93.3.3,0,0,1-.13-.21.13.13,0,0,1,0-.12A8.91,8.91,0,0,1,48.19,92.22Z"/><path class="cls-15" d="M43.47,91.63a4.81,4.81,0,0,0,.62.47,1,1,0,0,0,.6.12h.25l1.05,0h1.4A8.49,8.49,0,0,0,43.47,91.63Z"/><path class="cls-15" d="M37.52,93.78a17.3,17.3,0,0,0-.85,1.66l-.08.1a4.22,4.22,0,0,0-.9.89c.11-.22.22-.45.35-.67h0c.13-.22.26-.42.38-.61h0A9.71,9.71,0,0,1,37.52,93.78Z"/><path class="cls-15" d="M42.06,95.92H42a1,1,0,0,0-.76,0,14.7,14.7,0,0,0-2.58.93,1.6,1.6,0,0,0-.76.6,1.54,1.54,0,0,0-.13.67,16.24,16.24,0,0,0,0,3.27.82.82,0,0,0,.13.37.79.79,0,0,0,.4.22l2.8.89a1.19,1.19,0,0,0,.65.06,1.17,1.17,0,0,0,.5-.46c.61-.89,1.24-1.77,1.86-2.66a.82.82,0,0,0,.16-.34.61.61,0,0,0-.15-.37l-1.77-2.83A1.64,1.64,0,0,0,42.06,95.92Z"/><path class="cls-15" d="M44.75,99.27a.81.81,0,0,1,0,.22,1.08,1.08,0,0,1-.23.6l-1.87,2.65a1.47,1.47,0,0,1-.76.65,1.52,1.52,0,0,1-.94-.07l-2.79-.88a1.29,1.29,0,0,1-.63-.36,1.26,1.26,0,0,1-.25-.61,12.46,12.46,0,0,1,0-2.59l0-.76a1.65,1.65,0,0,1,1.14-1.69,15.11,15.11,0,0,1,2.67-1,1.5,1.5,0,0,1,1.12,0l.11.07h0a1.57,1.57,0,0,1,.41.48l1.78,2.83A1.33,1.33,0,0,1,44.75,99.27Zm-6.48,2.1v.09l.18.06,2.79.88a.92.92,0,0,0,.36.07c.07,0,.19-.19.25-.28l1.87-2.66a.22.22,0,0,0,.05-.08.46.46,0,0,1-.05-.1l-1.78-2.82a.92.92,0,0,0-.17-.22h0a.72.72,0,0,0-.41,0,14.1,14.1,0,0,0-2.49.93,1.32,1.32,0,0,0-.52.39,1.26,1.26,0,0,0-.08.47l0,.77a10.44,10.44,0,0,0,0,2.37.41.41,0,0,0,0,.08Z"/><path class="cls-3" d="M48.41,92.33a9.08,9.08,0,0,1,4.24,10.24h0a9.32,9.32,0,0,1-.88,2.11A9,9,0,0,1,39.42,108a8.8,8.8,0,0,1-1.81-1.35h0a9.07,9.07,0,0,1-1.92-10.26c.11-.22.22-.45.35-.67h0c.12-.21.25-.41.38-.61h0a9.55,9.55,0,0,1,1.08-1.3h0a9.05,9.05,0,0,1,10.66-1.57h0Z"/><path class="cls-14" d="M32.76,101.72a1.1,1.1,0,0,1,.32.39,2.35,2.35,0,0,1,.2.56,5.44,5.44,0,0,0,.63,1.44c.08.11.38.45.62.71a8.55,8.55,0,0,1-2.1-3.28A2.68,2.68,0,0,1,32.76,101.72Z"/><path class="cls-14" d="M44.14,105.07v.05a3,3,0,0,1,.25,1.15,8.54,8.54,0,0,1-5.51.82h0a.65.65,0,0,1-.26-.72A1,1,0,0,1,39,106l.71-.59a1.86,1.86,0,0,1,.51-.33,2.13,2.13,0,0,1,.94,0A9.15,9.15,0,0,0,44.14,105.07Z"/><path class="cls-14" d="M51.5,96.5c.3.22.6.44.88.68l.1.09a9.06,9.06,0,0,1,.17,5.33h0a2.66,2.66,0,0,1-.47.3,3.93,3.93,0,0,1-1.31.49c-.4,0-.48-.46-.58-.76A14,14,0,0,0,49.12,100a.55.55,0,0,1-.12-.35.46.46,0,0,1,.09-.23l1.47-2.66a.72.72,0,0,1,.29-.33h0A.69.69,0,0,1,51.5,96.5Z"/><path class="cls-14" d="M48.19,92.22h0c0,.22,0,.48-.25.58a1.47,1.47,0,0,1-.66,0c-.44,0-.88,0-1.32-.07l-1.06-.06a1.9,1.9,0,0,1-1.07-.2,11.58,11.58,0,0,1-1.19-.93.3.3,0,0,1-.13-.21.13.13,0,0,1,0-.12A8.41,8.41,0,0,1,48.19,92.22Z"/><path class="cls-14" d="M37.52,93.78a17.3,17.3,0,0,0-.85,1.66l-.08.1a4.22,4.22,0,0,0-.9.89c.11-.22.22-.45.35-.67h0c.13-.22.26-.42.38-.61h0A9.71,9.71,0,0,1,37.52,93.78Z"/><path class="cls-14" d="M42.13,95.9h-.05a1,1,0,0,0-.76,0,14.12,14.12,0,0,0-2.58,1,1.48,1.48,0,0,0-.76.59,1.56,1.56,0,0,0-.13.68,14.81,14.81,0,0,0,0,3.26.86.86,0,0,0,.13.38,1,1,0,0,0,.41.21l2.79.88a1,1,0,0,0,.65.07,1.12,1.12,0,0,0,.5-.46l1.87-2.65a.73.73,0,0,0,.15-.35.7.7,0,0,0-.15-.38l-1.73-2.86A1.14,1.14,0,0,0,42.13,95.9Z"/><path class="cls-3" d="M37.52,93.78h0a9.64,9.64,0,0,0-1.08,1.31h0a6,6,0,0,0-.37.6h0a6.24,6.24,0,0,0-.35.68,7.21,7.21,0,0,0-.42,1.09,8.59,8.59,0,0,1,7.33-4.39c2.13-.09,5.07.71,6.33,2.28,4.41,5.6.86,10.84,0,12.29a8.89,8.89,0,0,0,2.83-3,9,9,0,0,0,.88-2.1h0a9.06,9.06,0,0,0-4.24-10.24l-.21-.12h0A9.05,9.05,0,0,0,37.56,93.7Z"/></g></g></svg>