<svg id="Layer_7" data-name="Layer 7" xmlns="http://www.w3.org/2000/svg" viewBox="0 0 128 128"><defs><style>.cls-1{fill:#ffc023;}.cls-2{fill:#9e9c9c;}.cls-3{fill:#ad232d;}.cls-4{fill:#c6303f;}.cls-5{fill:#fff;}.cls-6{fill:#1f3f6d;}.cls-7{fill:#f4897d;}.cls-8{fill:#4b75cf;}.cls-9{fill:#668dcc;}.cls-10{fill:#e1f3f9;}.cls-11{fill:#1ea8bd;}.cls-12{fill:#31c4c4;}.cls-13{fill:#fcb7a7;}.cls-14{fill:#3d62a3;}.cls-15{fill:#2b5189;}.cls-16{fill:#4f79b7;}.cls-17{fill:#2c4c8c;}.cls-18{fill:#efd3b1;}.cls-19{fill:#431717;}.cls-20{fill:#591f1f;}.cls-21{fill:#ea7168;}</style></defs><g id="Layer_2" data-name="Layer 2"><g id="Layer_1-2" data-name="Layer 1-2"><path class="cls-1" d="M18.85,18.08V16c0-.09,0-.16,0-.24a11.69,11.69,0,0,1,3.18-7.06,19.56,19.56,0,0,1,6.38-4.33A37.72,37.72,0,0,1,35.31,2.1c1.36-.35,2.72-.69,4.1-.94A54.1,54.1,0,0,1,46.26.7a2,2,0,0,0,.54,0H53a1,1,0,0,0,.24,0c1,0,2,.06,3,.1,1.66.07,3.32.18,5,.32,2.07.18,4.14.4,6.19.75a46.57,46.57,0,0,1,9.8,2.38c1.22.48,2.5.75,3.75,1.15a119.8,119.8,0,0,1,16.12,5.85,56,56,0,0,1,8.79,4.91.91.91,0,0,1,.24.2,3.18,3.18,0,0,0,1.1.93c.9.56,1.81,1.08,2.71,1.65A20.66,20.66,0,0,1,115,23.1a12.14,12.14,0,0,1,2.83,5.7c.09.46.14.94.21,1.4v2.05c0,.31-.07.61-.12.91a21.46,21.46,0,0,1-2,6.45,46,46,0,0,1-5.75,8.85c-.5.63-1.05,1.22-1.5,1.87s-.86,1.25-1.33,1.84A154,154,0,0,1,96.51,64.48q-2.43,2.51-5,4.92c-1.68,1.61-3.46,3.23-5.32,4.86a113.1,113.1,0,0,1-9.3,7.3,72,72,0,0,1-10.11,6,4.48,4.48,0,0,0-.68.37c-.86.57-1.73,1.12-2.63,1.62a25.17,25.17,0,0,1-8.77,3.12l-1.5.17H51l-.22,0a17,17,0,0,1-6.23-1.69,23.17,23.17,0,0,1-7.45-6,41.35,41.35,0,0,1-5.16-7.93,76.83,76.83,0,0,1-4.56-11.12c-.38-1.14-.69-2.31-1.17-3.42a83.43,83.43,0,0,1-4.45-13.42,92.55,92.55,0,0,1-2.32-13.74q-.33-3.55-.37-7.12c0-2,0-3.95.18-5.95a6.64,6.64,0,0,0,0-1.78,4.69,4.69,0,0,0-.1-.62Z"/><path class="cls-2" d="M35.4,126.41a5.58,5.58,0,0,1-2.42.46,5.32,5.32,0,0,1-2.72-.71,5.18,5.18,0,0,1-1.91-2,5.32,5.32,0,0,1-.72-2.69h0a5.33,5.33,0,0,1,.72-2.7,5.12,5.12,0,0,1,1.93-2,5.49,5.49,0,0,1,2.8-.72,6.1,6.1,0,0,1,2.35.41,5.66,5.66,0,0,1,1.75,1.19l-1.44,1.69a4.89,4.89,0,0,0-1.27-.88,3.16,3.16,0,0,0-1.39-.3,2.81,2.81,0,0,0-1.54.44,2.86,2.86,0,0,0-1.08,1.18,3.37,3.37,0,0,0-.39,1.62h0a3.48,3.48,0,0,0,.39,1.64,3,3,0,0,0,1.06,1.19,2.88,2.88,0,0,0,1.56.44,3.24,3.24,0,0,0,1.44-.3,5.93,5.93,0,0,0,1.29-.92L37.25,125A6.29,6.29,0,0,1,35.4,126.41Z"/><path class="cls-2" d="M43.16,123.37h-1.8v3.33H39.07V116.3h4.76a4.19,4.19,0,0,1,2.87.91,3.18,3.18,0,0,1,1,2.52h0a3.43,3.43,0,0,1-.6,2,3.49,3.49,0,0,1-1.63,1.2l2.54,3.74H45.38Zm1.8-4.63a2.17,2.17,0,0,0-1.35-.38H41.36v3h2.32A2,2,0,0,0,45,121a1.36,1.36,0,0,0,.46-1.07h0a1.34,1.34,0,0,0-.47-1.14Z"/><path class="cls-2" d="M49.92,116.3h2.31v10.4H49.92Z"/><path class="cls-2" d="M62.09,126.41a5.58,5.58,0,0,1-2.42.46,5.26,5.26,0,0,1-2.71-.71,5.14,5.14,0,0,1-1.92-2,5.36,5.36,0,0,1-.72-2.69h0a5.54,5.54,0,0,1,.72-2.7,5.19,5.19,0,0,1,1.93-2,5.49,5.49,0,0,1,2.8-.72,6.1,6.1,0,0,1,2.35.41,5.66,5.66,0,0,1,1.75,1.19l-1.44,1.69a5.12,5.12,0,0,0-1.28-.88,3.12,3.12,0,0,0-1.38-.3,2.85,2.85,0,0,0-1.55.44,3,3,0,0,0-1.08,1.18,3.49,3.49,0,0,0-.39,1.62h0a3.5,3.5,0,0,0,.37,1.62,3,3,0,0,0,1.07,1.19,2.88,2.88,0,0,0,1.56.44,3.24,3.24,0,0,0,1.44-.3,5.32,5.32,0,0,0,1.29-.92L63.92,125A6,6,0,0,1,62.09,126.41Z"/><path class="cls-2" d="M69.26,122.27l-1.21,1.25v3.18H65.77V116.3h2.28v4.54l4.22-4.54H75l-4.24,4.41,4.45,6H72.48Z"/><path class="cls-2" d="M76.61,116.3h7.84v2H78.88v2.11h4.9v2h-4.9v2.16h5.64v2.07h-7.9Z"/><path class="cls-2" d="M91.27,126.7H89v-8.29H85.82V116.3h8.62v2.11H91.27Z"/><path class="cls-3" d="M33.93,70.33a3,3,0,0,1-3.79-.16h0l-.09-.09L29.94,70l-.14-.15a.64.64,0,0,1-.1-.13l-.09-.13a1.74,1.74,0,0,1-.11-.18l-.05-.08-.05-.11h0a3,3,0,0,1,4.67-3.54l.07.06.08.08h0l.16.17.1.14.09.12.12.2v0l.06.11,0,.08A3,3,0,0,1,33.93,70.33Z"/><path class="cls-4" d="M34.61,66.21l-.06-.09-.1-.1-.16-.17h0l-.08-.08-.07-.07a3,3,0,0,0-4.67,3.55h0l.05.11.05.08c0,.06.07.12.11.18l.09.13h0a3.62,3.62,0,0,0,4.88-3.54Z"/><path class="cls-5" d="M29.41,69.18Zm.16-.11s-.05,0-.06,0l-.08.06a0,0,0,0,0,0,.05h0s0,0,.05,0h0l.08,0s0,0,0-.06Zm.16-.12a0,0,0,0,0-.07,0l-.08.06a.06.06,0,0,0,0,.06,0,0,0,0,0,.06,0h0l.07,0A0,0,0,0,0,29.73,69Zm.16-.13h-.07l-.07.07s0,0,0,.06a0,0,0,0,0,.07,0l.07-.06S29.9,68.84,29.89,68.82Zm.15-.11a0,0,0,0,0-.06,0l-.08.06v.06s.05,0,.06,0l.08-.06s0,0,0,0S30.06,68.7,30,68.71Zm.17-.12a0,0,0,0,0-.06,0h0l-.08.06s0,0,0,.06a.06.06,0,0,0,.06,0l.08-.06a.07.07,0,0,0,0-.06Zm.15-.12s0,0-.05,0h0l-.08.06a0,0,0,0,0,0,0h.07l.08-.06a.06.06,0,0,0,0-.06Zm.16-.11a0,0,0,0,0-.06,0h0l-.07,0s0,0,0,.06,0,0,.05,0h0l.08,0s0,0,0-.06Zm.16-.12h-.06l-.09.06a.09.09,0,0,0,0,.07s0,0,.06,0h0l.09-.06a0,0,0,0,0,.05,0s0,0,0,0Zm.16-.12a0,0,0,0,0-.07,0l-.07.06s0,0,0,0h0s0,0,.06,0l.08-.06s0-.05,0-.06ZM31,68a0,0,0,0,0-.06,0l-.08.06a.06.06,0,0,0,0,.06s0,0,.06,0l.08-.06s0,0,0-.06Zm.16-.12h-.06L31,68V68h.07l.08-.06a0,0,0,0,0,0-.07Zm.16-.11a0,0,0,0,0,0,0h0l-.08,0s0,0,0,.06h0a0,0,0,0,0,.06,0l.08-.06a0,0,0,0,0,0,0Zm.16-.12s0,0,0,0h0l-.08,0a0,0,0,0,0,0,.07,0,0,0,0,0,.05,0h0l.08-.06a.06.06,0,0,0,0-.06Zm.16-.12a.06.06,0,0,0-.06,0l-.07,0a0,0,0,0,0,0,0h.07l.08,0a.07.07,0,0,0,0-.06Zm.16-.12a0,0,0,0,0-.07,0l-.07.06a0,0,0,0,0,0,.07h0l.08-.05a.06.06,0,0,0,0-.07,0,0,0,0,1,0,0Zm.16-.12a.06.06,0,0,0-.06,0l-.09.06a0,0,0,0,0,0,.07.06.06,0,0,0,.06,0l.09-.07s0,0,0-.06Zm.15-.11s0,0-.06,0l-.08.06v.06a0,0,0,0,0,.07,0l.07-.06s0,0,0-.06Zm.16-.12H32.2l-.08,0a0,0,0,0,0,0,.07h.06l.08-.07a0,0,0,0,0,0,0h0Zm.16-.12s0,0-.05,0h0l-.08.06a.06.06,0,0,0,0,.06h.07l.08-.06a0,0,0,0,0,0-.06Zm.16-.11a0,0,0,0,0-.06,0h0l-.08,0a0,0,0,0,0,0,.05h0a0,0,0,0,0,.05,0h0l.08,0a0,0,0,0,0,.05,0,.05.05,0,0,0-.05,0h0Zm.16-.12a0,0,0,0,0-.07,0l-.08.06a.06.06,0,0,0,0,.06,0,0,0,0,0,.06,0h0l.07,0a0,0,0,0,0,0-.07Zm.16-.13a.06.06,0,0,0-.06,0l-.08.07s0,0,0,.06a0,0,0,0,0,.07,0l.08-.06a.06.06,0,0,0,0-.07Zm.15-.11s0,0-.06,0l-.08.06s0,0,0,0h0a0,0,0,0,0,.07,0l.07-.06a0,0,0,0,0,0-.06Zm.17-.12a0,0,0,0,0-.07,0l-.08.05s0,0,0,.07a0,0,0,0,0,.06,0l.08-.06s0,0,0,0Zm.15-.12a0,0,0,0,0,0,0h0l-.08.06s0,0,0,0h.07l.08-.06a0,0,0,0,0,0-.06Zm.16-.11s0,0-.06,0h0l-.08,0s0,0,0,.06a0,0,0,0,0,0,0h0l.08,0s0,0,0-.06Zm.16-.12a.06.06,0,0,0-.06,0l-.08.06a.06.06,0,0,0,0,.06,0,0,0,0,0,.06,0h0l.09-.05s0,0,0,0Zm.16-.12a0,0,0,0,0-.07,0l-.07.06a0,0,0,0,0,0,0h0s0,0,.06,0l.08,0a.06.06,0,0,0,0-.07Zm.16-.12a0,0,0,0,0-.07,0l-.08.06a.06.06,0,0,0,0,.06,0,0,0,0,0,.07,0l.07-.06s0,0,0-.06Zm.16-.06-.07-.07L34,65.7v.06a0,0,0,0,0,.07,0l.07-.06Z"/><path class="cls-5" d="M29.53,69.34a.06.06,0,0,0-.06,0l.05.08a.06.06,0,0,0,0-.07Zm.15-.12s0,0-.05,0h0l-.08.06a0,0,0,0,0,0,0h0a0,0,0,0,0,.06,0h0l.07-.06s0,0,0,0Zm.17-.11a0,0,0,0,0-.07,0l-.08.06a0,0,0,0,0,0,.06,0,0,0,0,0,.05,0h0l.08,0a.08.08,0,0,0,0,0ZM30,69s0,0-.06,0l-.08.06a.06.06,0,0,0,0,.08.05.05,0,0,0,.08,0l.08-.06s0,0,0,0S30,69,30,69Zm.16-.13a.06.06,0,0,0-.06,0l-.08.07s0,0,0,0h0a.06.06,0,0,0,.06,0l.08-.06A.15.15,0,0,0,30.16,68.86Zm.16-.11a0,0,0,0,0-.06,0l-.09.06a.06.06,0,0,0,0,.06,0,0,0,0,0,.07,0l.07-.06a0,0,0,0,0,0,0Zm.16-.12a0,0,0,0,0-.06,0h0l-.08.05a.06.06,0,0,0,0,.07h0a0,0,0,0,0,.06,0l.08-.06A.06.06,0,0,0,30.48,68.63Zm.15-.12a0,0,0,0,0-.05,0h0l-.08.06a.06.06,0,0,0,0,.06,0,0,0,0,0,.07,0l.07-.06S30.63,68.53,30.63,68.51Zm.17-.11a0,0,0,1,0-.08,0h0l-.09,0a.06.06,0,0,0,0,.06s0,0,.06,0h0l.08,0,0,0Zm.15-.12a0,0,0,0,0-.06,0l-.08.06a.05.05,0,0,0,0,.07s0,0,0,0l.07,0s0,0,0-.06,0,0,0,0Zm.16-.12s-.05,0-.06,0l-.08.06a0,0,0,0,0,.06.06l.08-.06a.11.11,0,0,0,0-.06Zm.16-.12a0,0,0,0,0-.06,0l-.08.06a.06.06,0,0,0,0,.06s.05,0,.06,0l.09-.06s0,0,0-.06Zm.16-.12a.09.09,0,0,0-.07,0l-.07.06v.07a.06.06,0,0,0,.06,0l.08-.07s0,0,0-.06Zm.16-.11s0,0-.05,0h0l-.09,0a.06.06,0,0,0,0,.06s0,0,.06,0l.08-.06a0,0,0,0,0,0,0Zm.16-.12a0,0,0,0,0-.06,0h0l-.07,0a0,0,0,0,0,0,.06h.07l.08-.06s0,0,0,0,0,0,0,0Zm.15-.12h-.06l-.08.06a.09.09,0,0,0,0,.07,0,0,0,0,0,.06,0h0l.08-.06s0,0,0-.06Zm.17-.12a0,0,0,0,0-.07,0l-.08.06a0,0,0,0,0,0,.06s0,0,0,0h0l.09,0s0,0,0-.07Zm.15-.12a0,0,0,0,0-.06,0l-.08.06a0,0,0,0,0,0,.06h0a.06.06,0,0,0,.06,0l.08-.07a.06.06,0,0,0,0-.06Zm.16-.12h-.07l-.07.07s0,0,0,.06h.06l.08-.06s0,0,0-.06Zm.16-.11a0,0,0,0,0,0,0h0l-.08.05a0,0,0,0,0,0,.07h.05l.08-.06a0,0,0,0,0,0-.07ZM32.7,67a0,0,0,0,0-.06,0h0l-.07.06s0,0,0,0h0a.06.06,0,0,0,.06,0L32.7,67s0,0,0-.06Zm.16-.12a0,0,0,0,0-.07,0h0l-.08.06a.06.06,0,0,0,0,.06s0,0,.06,0h0l.08,0a.06.06,0,0,0,0-.07Zm.15-.11s0,0-.06,0l-.08.06a0,0,0,0,0,0,.06,0,0,0,0,0,.06,0l0,0,.08,0a.06.06,0,0,0,.06,0,0,0,0,0,0,0,0Zm.16-.13a.06.06,0,0,0-.06,0l-.08.06a0,0,0,0,0,0,.06h0a.06.06,0,0,0,.06,0l.08-.07a.06.06,0,0,0,0-.06Zm.16-.11s0,0-.06,0l-.08.06a0,0,0,0,0,0,.06s0,0,.06,0l.08-.06s0,0,0,0Zm.16-.12s-.05,0-.06,0l-.08,0a0,0,0,0,0,0,.07h0a0,0,0,0,0,.06,0l.08-.06a.06.06,0,0,0,0-.06Zm.15-.12a0,0,0,0,0,0,0h0l-.08.06a.06.06,0,0,0,0,.06,0,0,0,0,0,.07,0l.07-.06a0,0,0,0,0,0-.06Zm.17-.11s0,0-.06,0h0l-.08,0a0,0,0,0,0,0,.06,0,0,0,0,0,0,0h0l.09,0a0,0,0,0,0,0-.06ZM34,66s0,0-.06,0l-.08.06a0,0,0,0,0,0,.06h0a0,0,0,0,0,.06,0h0l.07,0a0,0,0,0,0,0,0,0,0,0,0,0,0,0h0Zm.17-.13h-.07L34,66s0,0,0,.06H34l.08-.06s0,0,0-.07Zm.16-.09h0l-.08.06a.09.09,0,0,0,0,.07h.07l.08-.07a.16.16,0,0,1,0-.06Z"/><path class="cls-5" d="M30,70A0,0,0,0,0,30,70l.07.06A.06.06,0,0,0,30,70Zm.15-.12a.06.06,0,0,0-.06,0L30,70A.07.07,0,0,0,30,70a0,0,0,0,0,.06,0l0,0,.07,0a0,0,0,0,0,0-.06Zm.16-.12s-.05,0-.06,0l-.08.06a0,0,0,0,0,0,0h0a0,0,0,0,0,.06,0l.08-.06A.11.11,0,0,0,30.34,69.77Zm.16-.12a0,0,0,0,0-.06,0l-.09.06a.06.06,0,0,0,0,.06,0,0,0,0,0,.07,0l.07-.06a0,0,0,0,0,0,0Zm.16-.12a.09.09,0,0,0-.07,0l-.07.06s0,0,0,.06h0a.06.06,0,0,0,.06,0l.08-.06a0,0,0,0,0,0,0S30.68,69.52,30.66,69.53Zm.15-.11s0,0,0,0h0l-.08,0a.06.06,0,0,0,0,.06s0,0,.06,0l.08-.06A0,0,0,0,0,30.81,69.42ZM31,69.3a0,0,0,0,0-.06,0h0l-.07,0a0,0,0,0,0,0,.07,0,0,0,0,0,.05,0h0l.08-.06S31,69.32,31,69.3Zm.15-.12a.06.06,0,0,0-.06,0l-.08.07a0,0,0,0,0,0,0,0,0,0,0,0,.06,0h0l.07-.06s0,0,0-.06S31.14,69.19,31.13,69.18Zm.16-.12a0,0,0,0,0-.07,0l-.07.06s0,0,0,.06,0,0,.06,0l.08-.06a.11.11,0,0,0,0-.06Zm.16-.12h-.06l-.08.06a0,0,0,0,0,0,.07.06.06,0,0,0,.06,0l.09-.07a0,0,0,0,0,0-.06Zm.16-.12h-.07l-.07.07V69s0,0,.06,0l.08-.06s0,0,0-.06Zm.16-.11a0,0,0,0,0-.05,0h0l-.09.05a.06.06,0,0,0,0,.06s.05,0,.06,0l.08-.06s0,0,0-.05Zm.16-.12a0,0,0,0,0-.06,0h0l-.07.06s0,0,0,0h.07l.08-.06a.06.06,0,0,0,0-.06Zm.15-.12a.06.06,0,0,0-.06,0l-.08.07s0,0,0,.06,0,0,.06,0h0l.08-.06s0,0,0,0a0,0,0,0,0,0,0Zm.2-.11a0,0,0,0,0-.07,0l-.08.06a0,0,0,0,0,0,.06s0,0,0,0h0l.09,0A.09.09,0,0,0,32.28,68.36Zm.15-.12h-.06l-.08.06a0,0,0,0,0,0,.06h0a.06.06,0,0,0,.06,0l.08-.06a.06.06,0,0,0,0-.07Zm.16-.12a.09.09,0,0,0-.07,0l-.07.07s0,0,0,.06a.06.06,0,0,0,.06,0l.08-.06a.07.07,0,0,0,0-.06s0,0,0,0Zm.16-.11a0,0,0,0,0,0,0h0l-.08,0s0,0,0,.06a0,0,0,0,0,.06,0h0l.08-.06a0,0,0,0,0,0-.07h0Zm.16-.12a0,0,0,0,0-.06,0h0l-.07.06s0,0,0,0h.07l.08-.06s0,0,0-.06h0Zm.16-.12s0,0-.07,0h0l-.08.06a.06.06,0,0,0,0,.06s0,0,.06,0h0l.08,0a0,0,0,0,0,0-.07Zm.15-.11s0,0-.06,0l-.08.06s0,0,0,0h.07l.07,0a0,0,0,0,0,0-.07h0Zm.16-.13a.06.06,0,0,0-.06,0l-.08.07s0,.05,0,.06h0l.08-.07a.31.31,0,0,1,0-.07Zm.16-.11s0,0-.06,0l-.08.06a0,0,0,0,0,0,.06s0,0,.06,0l.08-.06a0,0,0,0,0,0-.06s0,0,0,0Zm.16-.12s-.05,0-.06,0l-.08,0a0,0,0,0,0,0,.07h0a0,0,0,0,0,.06,0l.08-.06a0,0,0,0,0,0-.06h0Zm.16-.12h-.07l-.08.06a.06.06,0,0,0,0,.06,0,0,0,0,0,.07,0l.08-.06a0,0,0,0,0,0-.06h0Zm.16-.11s0,0-.06,0h0l-.08.05s0,0,0,.06a0,0,0,0,0,0,0h0l.09-.05a.07.07,0,0,0,0-.07h0Zm.15-.12s0,0-.06,0L34,67a0,0,0,0,0,0,.06h0a0,0,0,0,0,.06,0h0l.07,0s0,0,0,0a0,0,0,0,0-.06,0h0Zm.17-.12a0,0,0,0,0-.07,0l-.08.06s0,0,0,.06a0,0,0,0,0,.06,0l.08,0a.07.07,0,0,0,0-.09h0Zm.15-.12s0,0-.06,0l-.08.06a.06.06,0,0,0,0,.06,0,0,0,0,0,.07,0l.08-.06a0,0,0,0,0,0-.06h0Zm.16-.12a.06.06,0,0,0-.06,0l-.08.06v.07a.06.06,0,0,0,.06,0l.08-.07s0,0,0-.05a0,0,0,0,0,0,0h0Zm.17-.08v-.05h0l-.08.05a0,0,0,0,0,0,.07.06.06,0,0,0,.06,0l.08-.07s0,0,0,0Z"/><path class="cls-5" d="M30.14,70.16Zm.16-.11s0,0-.06,0h0l-.08,0a.06.06,0,0,0,0,.06,0,0,0,0,0,.06,0h0l.08,0S30.32,70.06,30.3,70.05Zm.15-.12s0,0-.05,0h0l-.08.06a0,0,0,0,0,0,.06s0,0,.06,0l0,0,.08,0A.05.05,0,0,0,30.5,70s0,0-.05,0h0Zm.17-.12s-.05,0-.06,0l-.09.06a0,0,0,0,0,.06.06l.08-.06a0,0,0,0,0,0-.06Zm.15-.12s0,0-.06,0l-.08.06a0,0,0,0,0,0,.06h0a0,0,0,0,0,.07,0l.07-.06s.05,0,.05,0S30.8,69.67,30.77,69.69Zm.16-.12h-.06l-.08.06a0,0,0,0,0,0,.07h.06l.08-.07S30.9,69.6,30.93,69.57Zm.16-.11s0,0-.05,0h0l-.08.05a.06.06,0,0,0,0,.06s.05,0,.06,0l.09-.06s0,0,0-.05Zm.16-.12s0,0-.06,0h0l-.08,0a0,0,0,0,0,0,.06h0s0,0,.05,0h0l.08-.06s0,0,0-.06Zm.15-.12h-.06l-.08.06a.09.09,0,0,0,0,.07s0,0,.06,0h0l.07-.06s0,0,0,0a0,0,0,0,0,0,0Zm.17-.12a0,0,0,0,0-.07,0l-.07.06a0,0,0,0,0,0,.06s0,0,.06,0l.08-.06V69.1Zm.15-.12s0,0-.06,0l-.08.06a.07.07,0,0,0,0,.06h0a.09.09,0,0,0,.07,0l.07-.07s0,0,0-.06Zm.17-.12a.09.09,0,0,0-.07,0l-.08.07s0,0,0,.06a.06.06,0,0,0,.06,0l.08-.06a.06.06,0,0,0,0-.07Zm.15-.11a0,0,0,0,0-.05,0h0l-.08,0a.06.06,0,0,0,0,.07.06.06,0,0,0,.07,0l.07-.06a.05.05,0,0,0,0-.07Zm.16-.12a0,0,0,0,0-.06,0h0l-.08.05a0,0,0,0,0,0,.07,0,0,0,0,0,0,0h0l.08-.06a0,0,0,0,0,0,0Zm.16-.12a.06.06,0,0,0-.06,0l-.09.07a.06.06,0,0,0,0,.06,0,0,0,0,0,.06,0h0l.08-.06s0,0,0-.07Zm.16-.11a0,0,0,0,0-.06,0h0l-.07.06a0,0,0,0,0,0,.06h0l.08-.06a0,0,0,0,0,0-.06Zm.15-.13h-.06l-.08.06a.09.09,0,0,0,0,.07h.06l.08-.07a.06.06,0,0,0,0-.06Zm.17-.11a0,0,0,0,0-.07,0l-.07.06s0,0,0,0h0s0,0,.06,0l.08-.06a0,0,0,0,0,0-.06ZM33,68a0,0,0,0,0-.05,0h0l-.08,0a0,0,0,0,0,0,.06h0a0,0,0,0,0,.06,0h0l.08-.07a0,0,0,0,0,0,0Zm.16-.12s0,0-.06,0h0L33,68s0,0,0,.06h.06l.08-.06a.06.06,0,0,0,0-.06Zm.16-.11s0,0-.05,0h0l-.08,0a0,0,0,0,0,0,0h.07l.08,0s0-.05,0-.06Zm.16-.12a0,0,0,0,0-.06,0h0l-.07.06s0,0,0,.06,0,0,.05,0h0l.08,0a.06.06,0,0,0,0-.06Zm.16-.13a.06.06,0,0,0-.06,0l-.09.07a0,0,0,0,0,.06.06l.08-.06s0,0,0,0Zm.15-.11s0,0-.06,0l-.08.06s0,0,0,0h0a0,0,0,0,0,.07,0l.07-.06s0-.05,0-.06Zm.16-.12a0,0,0,0,0-.06,0l-.08.06a0,0,0,0,0,0,.07.06.06,0,0,0,.06,0l.08-.07s0,0,0,0Zm.16-.12a0,0,0,0,0-.05,0h0l-.08.06a.06.06,0,0,0,0,.06.09.09,0,0,0,.07,0l.08-.06a0,0,0,0,0,0-.06Zm.16-.11a0,0,0,0,0,0,0h0l-.08.05s0,0,0,.06h0a0,0,0,0,0,.05,0h0l.08,0s0,0,0-.06Zm.16-.12a.09.09,0,0,0-.07,0l-.07.06a0,0,0,0,0,0,.07,0,0,0,0,0,0,0h0l.08-.06s0,0,0-.07Zm.16-.12s0,0-.06,0l-.08.06a0,0,0,0,0,0,.06,0,0,0,0,0,.07,0l.08,0a.07.07,0,0,0,0-.07Zm.15-.12s0,0-.06,0l-.06.06s0,0,0,.06h0a0,0,0,0,0,.06,0l.08-.06a0,0,0,0,0,0,0Zm.11-.13h0l-.08.06a0,0,0,0,0,.06.06l.08,0Z"/><path class="cls-6" d="M78.55,107.27,73.66,97.2A10.78,10.78,0,0,1,72.22,91l-.47-7.26,3.61.27.47,7.26a7.07,7.07,0,0,0,1,4.11l4.88,10.06Z"/><path class="cls-6" d="M64.53,84l-4,6.12-1.25,1.9a14.94,14.94,0,0,0-1.72,3.69l-.15.54L55,105.71l-3.5-.93L54,95.31a17.66,17.66,0,0,1,1.18-3.21A16.12,16.12,0,0,1,56.3,90l.46-.71,4.74-7.27Z"/><path class="cls-7" d="M60.58,90.15l-1.25,1.9a14.94,14.94,0,0,0-1.72,3.69v-.18a3.77,3.77,0,0,0-2.46-3.41h0a16.12,16.12,0,0,1,1.16-2.07l.45-.71Z"/><path class="cls-6" d="M78.3,94.35h0a3.15,3.15,0,0,1-1.09.89l-.32.17a5.71,5.71,0,0,1-2.34.45,10.32,10.32,0,0,1-1.11-.06,9.6,9.6,0,0,1-1-.18,29.64,29.64,0,0,1-2.85-6.68,1.38,1.38,0,0,0-1.35-1.1H66.88a1.39,1.39,0,0,0-1.21.72c-.84,1.51-3.89,5.73-4.06,6,0,0-1.63,3-3.21,2.33a1.07,1.07,0,0,1-.21-.13c-.46-.39-.83-1.32-1.82-1.6-3.45-1-1.82-3-1.79-3,.21-.4,5-12.1,5-12.1l15.27-.08a86.07,86.07,0,0,1,3,11.34C78.1,92.93,78.27,94,78.3,94.35Z"/><path class="cls-8" d="M50.32,106.92a2.13,2.13,0,0,0,.43-1.09c.13-1,.35-2,1.65-2,.85,0,1.56.14,1.9,1.09,0,.13.32.24.44.32a.66.66,0,0,1,.23.17,1.94,1.94,0,0,1,.2.66,5.55,5.55,0,0,1-.07,2.26c-.13.44-.37.78-1.67,1s-3.37-.14-3.56-.52A1.77,1.77,0,0,1,50.32,106.92Z"/><path class="cls-9" d="M53.83,107.1c.44-.48.16-1.9.13-2.8a2,2,0,0,0-1.55-.49,1.36,1.36,0,0,0-1.3.71,5.33,5.33,0,0,1-.25,1.86c-.4.78.46,1.08.92,1.09S53.29,107.69,53.83,107.1Z"/><path class="cls-10" d="M55.2,108.26a.34.34,0,0,0-.06-.12c-.06.35-.78.59-1.24.59a1.51,1.51,0,0,1-1-.78.44.44,0,0,0-.37-.24h-1a.45.45,0,0,0-.37.25c-.12.23-.26.5-.38.54s-.78.22-1-.23v.06c-.06.51.22,1,.62,1h4.23a.79.79,0,0,0,.63-.9A1.09,1.09,0,0,0,55.2,108.26Z"/><path class="cls-5" d="M51.22,106.62a.17.17,0,0,1-.12-.08.15.15,0,0,1,.08-.18,3.13,3.13,0,0,1,2.33,0,.15.15,0,0,1,.06.19.15.15,0,0,1-.18.06,2.87,2.87,0,0,0-2.08,0Z"/><path class="cls-5" d="M51.4,106a.11.11,0,0,1-.11-.07.13.13,0,0,1,.06-.18,2.65,2.65,0,0,1,2.12,0,.12.12,0,0,1,.07.17h0a.14.14,0,0,1-.18.07h0a2.31,2.31,0,0,0-1.89,0Z"/><path class="cls-5" d="M51.57,105.48a.23.23,0,0,1-.1-.07.15.15,0,0,1,.05-.19,2.16,2.16,0,0,1,1.95,0,.14.14,0,0,1,.07.18h0a.14.14,0,0,1-.17.07h0a2,2,0,0,0-1.71,0A.11.11,0,0,1,51.57,105.48Z"/><path class="cls-5" d="M51.67,104.93a.12.12,0,0,1-.11-.07.13.13,0,0,1,0-.18,2.21,2.21,0,0,1,2,0,.14.14,0,0,1,.08.18.15.15,0,0,1-.18.09l0,0a1.86,1.86,0,0,0-1.69,0Z"/><path class="cls-8" d="M77.07,106.92a2.13,2.13,0,0,0,.43-1.09c.14-1,.35-2,1.65-2,.86,0,1.56.14,1.9,1.09,0,.13.32.24.44.32a.81.81,0,0,1,.24.17,1.92,1.92,0,0,1,.19.66,5.55,5.55,0,0,1-.07,2.26c-.12.44-.36.78-1.66,1s-3.37-.14-3.57-.52A1.8,1.8,0,0,1,77.07,106.92Z"/><path class="cls-9" d="M80.58,107.1c.44-.48.16-1.9.14-2.8a2,2,0,0,0-1.56-.49,1.36,1.36,0,0,0-1.3.71,5.11,5.11,0,0,1-.25,1.86c-.39.78.46,1.08.92,1.09S80,107.69,80.58,107.1Z"/><path class="cls-10" d="M82,108.26a.34.34,0,0,0-.06-.12c-.06.35-.78.59-1.24.59a1.53,1.53,0,0,1-1-.78.44.44,0,0,0-.36-.24h-1a.43.43,0,0,0-.37.25c-.13.23-.27.5-.39.54s-.78.22-1-.23v.06c-.06.51.22,1,.62,1h4.23a.78.78,0,0,0,.63-.9A.55.55,0,0,0,82,108.26Z"/><path class="cls-5" d="M78,106.62a.2.2,0,0,1-.12-.08.15.15,0,0,1,.08-.18,3.15,3.15,0,0,1,2.34,0,.15.15,0,0,1,0,.19.14.14,0,0,1-.18.06,2.87,2.87,0,0,0-2.08,0Z"/><path class="cls-5" d="M78.19,106a.12.12,0,0,1-.11-.07.14.14,0,0,1,.06-.18h0a2.61,2.61,0,0,1,2.12,0,.14.14,0,0,1,.07.17h0a.14.14,0,0,1-.18.07h0a2.31,2.31,0,0,0-1.89,0Z"/><path class="cls-5" d="M78.33,105.48a.18.18,0,0,1-.1-.07.14.14,0,0,1,0-.19,2.18,2.18,0,0,1,2,0,.14.14,0,0,1,.07.16v0a.14.14,0,0,1-.16.07h0a2,2,0,0,0-1.7,0A.18.18,0,0,1,78.33,105.48Z"/><path class="cls-5" d="M78.42,104.93a.12.12,0,0,1-.11-.07.14.14,0,0,1,.06-.18,2.19,2.19,0,0,1,1.95,0,.14.14,0,0,1-.12.25,1.89,1.89,0,0,0-1.7,0Z"/><path class="cls-7" d="M78.23,68.21a4.6,4.6,0,0,0,3-1.14l7.84-6.84-2.33-2.77L78.9,64.31a1,1,0,0,1-1.38-.11,1.17,1.17,0,0,1-.17-.31L75.2,55.66l-3.51.89,2.12,8.36v0a4.56,4.56,0,0,0,3.11,3.11A4.46,4.46,0,0,0,78.23,68.21Z"/><path class="cls-11" d="M70.94,59.91c.43,2,.93,4.29.93,4.29l1-.27,3.8-1a4.36,4.36,0,0,1,.41-.17L77,62c-.29-1.44-.87-4.3-.9-4.37a7.16,7.16,0,0,0-.46-1.56c-.41-.77-1.18-1.31-2.93-.83C70.34,55.91,70.62,58.42,70.94,59.91Z"/><path class="cls-5" d="M72.6,63.23c.09.32.16.56.21.71h.09l.84-.13a15.14,15.14,0,0,0,1.79-.46c.43-.13.78-.28,1.17-.42l.41-.17L77,62a14.86,14.86,0,0,1-1.64.62A14.15,14.15,0,0,1,72.6,63.23Z"/><path class="cls-11" d="M73.76,54.09h0a3.3,3.3,0,0,1,1.4,2.33c.61,2.59-.34,7.3-.61,8.23a19,19,0,0,0-.74,8.24c.12.84.94,6.49,1,7.17a28.5,28.5,0,0,1-7,.87c-2.09,0-8.31-.78-8.31-.78C60,65.56,61.36,59.3,63.72,56.36h0l.11-.13a1.29,1.29,0,0,1,.16-.17l.09-.11A7.17,7.17,0,0,1,67.28,54h.17a10.36,10.36,0,0,1,5.13-.15l.58.14c.17.05.34.07.51.12Z"/><path class="cls-5" d="M71.1,60.91H71a6.46,6.46,0,0,1-1,.78,3.91,3.91,0,0,1-.44.26.29.29,0,0,0-.11.22l-.09,1.52c0,.17.09.29.2.24h0c.13-.07.25-.15.37-.23H70c.12-.1.24,0,.23.21l-.46,7.15c0,.13.06.24.14.25l1.17.08c.09,0,.17-.11.17-.24L72,61.21c0-.14,0-.24-.14-.25Z"/><path class="cls-12" d="M66.05,80.87c-2.66-.2-6.48-.71-6.48-.71.53-16.67,2.28-22.46,5.3-24.86l4.49,1.86S62.81,64.83,66.05,80.87Z"/><path class="cls-11" d="M63.8,56.37a17.75,17.75,0,0,0,1.72.78c5.12,1.68,8,.59,9.68-.68.14-.11.33-.12.45-.23a3.37,3.37,0,0,0-1.84-2.1h-.14a8.33,8.33,0,0,0-.84-.17L72,53.8a9.45,9.45,0,0,0-1.84-.23,10,10,0,0,0-2.77.45A6.82,6.82,0,0,0,64.18,56l-.09.1-.16.18-.11.13Z"/><path class="cls-13" d="M88.72,64.47,80,69a5.32,5.32,0,0,1-6.14-.91l-.13-.13L69.9,64.64,67,62.13l3.35-2.85,2.82,2.91,1.12,1.13h0l2,2.07a1.72,1.72,0,0,0,2,.34l8.76-4.48Z"/><path class="cls-7" d="M74.3,63.32l-.2.45a6.13,6.13,0,0,0-.26,4.28h0l-.13-.13-3.79-3.28,3.28-2.45Z"/><path class="cls-12" d="M67.61,63.48l2.26,2.68.47.56c.24-.14.5-.32.78-.52l3.21-3,.09-.09h0L74,62.58c-.91-1.11-2.8-3.41-2.86-3.47-.41-.44-2.2-2.24-4.12-.53S66.64,62.32,67.61,63.48Z"/><path class="cls-5" d="M69.87,66.16l.47.56c.24-.14.5-.32.78-.52a14.67,14.67,0,0,0,1.46-1.14,15.74,15.74,0,0,0,1.75-1.81l.08-.11-.47-.57a14.64,14.64,0,0,1-4.09,3.59Z"/><path class="cls-14" d="M65.36,82.72a1.22,1.22,0,0,0-.07-.17v-.07a3.69,3.69,0,0,0-.6-1l-.09-.11a3.42,3.42,0,0,0-.78-.64l-.11-.07a3.55,3.55,0,0,0-.44-.21,3.61,3.61,0,0,0-.46-.17h-.12a3.53,3.53,0,0,0-1-.09h-.14a4.08,4.08,0,0,0-1.19.3l-.17.09a3.71,3.71,0,0,0-1.77,1.91l-8.56,20.74a2.76,2.76,0,0,0,.07,2.25,1.09,1.09,0,0,0,.08.15h0a.12.12,0,0,0,.21,0,1.86,1.86,0,0,1,.12-.42,2.55,2.55,0,0,1,1.51-1.47l.16-.05a2.67,2.67,0,0,1,1.09-.09h.13a2.79,2.79,0,0,1,.47.14,2.58,2.58,0,0,1,.44.22l.11.07a2.68,2.68,0,0,1,.73.77A1,1,0,0,1,55,105a2.55,2.55,0,0,1,.14,2.14,2.17,2.17,0,0,1-.24.45v.08a.06.06,0,0,0,0,.07h0l.15,0a2.81,2.81,0,0,0,1.63-1.56l8.52-20.75A3.67,3.67,0,0,0,65.36,82.72Z"/><path class="cls-15" d="M60.29,80.5,50,105.63a.71.71,0,0,1-.08-.15l10.23-24.9Z"/><path class="cls-15" d="M61.64,80.19,52,103.66l-.16,0L61.5,80.19Z"/><path class="cls-15" d="M62.78,80.3l-9.57,23.3h-.13l9.54-23.32Z"/><path class="cls-15" d="M63.79,80.75,54.23,104l-.11-.07,9.56-23.27Z"/><path class="cls-15" d="M64.67,81.5,55,104.93a1,1,0,0,0-.08-.14l9.62-23.41Z"/><path class="cls-15" d="M65.36,82.72l-10.23,24.9-.16,0L65.3,82.54A1.89,1.89,0,0,0,65.36,82.72Z"/><path class="cls-14" d="M63.85,90.29l-.11.25a.31.31,0,0,1-.07.14.61.61,0,0,1-.7.19l-6.85-2.82a.59.59,0,0,1-.37-.61v-.16l.11-.27a.59.59,0,0,1,.77-.32h0l6.86,2.82a.59.59,0,0,1,.36.75Z"/><path class="cls-15" d="M63.67,90.68a.61.61,0,0,1-.7.19l-6.85-2.82a.59.59,0,0,1-.37-.61Z"/><path class="cls-16" d="M56,86.87a.58.58,0,0,1,.68-.18l6.86,2.82a.59.59,0,0,1,.37.61Z"/><path class="cls-14" d="M63.3,91.64l-.11.27-.08.14a.62.62,0,0,1-.7.17l-6.85-2.81a.59.59,0,0,1-.37-.62v-.16l.11-.26a.6.6,0,0,1,.78-.32l6.86,2.82a.59.59,0,0,1,.37.75Z"/><path class="cls-15" d="M63.11,92.05a.62.62,0,0,1-.7.17l-6.85-2.81a.59.59,0,0,1-.37-.62Z"/><path class="cls-16" d="M55.43,88.23a.59.59,0,0,1,.69-.18L63,90.87a.59.59,0,0,1,.37.61Z"/><path class="cls-14" d="M62.74,93l-.12.26a.29.29,0,0,1-.08.14.6.6,0,0,1-.69.19L55,90.76a.6.6,0,0,1-.37-.61,1,1,0,0,1,.05-.16l.1-.26a.6.6,0,0,1,.78-.32l6.86,2.81A.61.61,0,0,1,62.74,93Z"/><path class="cls-15" d="M62.55,93.4a.61.61,0,0,1-.69.19L55,90.76a.6.6,0,0,1-.37-.61Z"/><path class="cls-16" d="M54.84,89.59a.59.59,0,0,1,.69-.18l6.86,2.81a.6.6,0,0,1,.37.62Z"/><path class="cls-14" d="M68.85,81.81a1.3,1.3,0,0,1,.08-.17v-.07a3.56,3.56,0,0,1,.67-.92l.1-.1a3.84,3.84,0,0,1,.84-.59l.11-.06.46-.18a4.05,4.05,0,0,1,.47-.12h.13a4.35,4.35,0,0,1,1,0h.14A3.83,3.83,0,0,1,74,80a.91.91,0,0,1,.17.09,3.69,3.69,0,0,1,1.66,2l6.88,21.35a2.73,2.73,0,0,1-.24,2.23,1,1,0,0,0-.08.14h0a.12.12,0,0,1-.15,0,.15.15,0,0,1-.06-.09,1.5,1.5,0,0,0-.09-.42,2.5,2.5,0,0,0-1.39-1.56l-.15-.07a2.65,2.65,0,0,0-1.08-.16h-.14a2,2,0,0,0-.47.09,2.62,2.62,0,0,0-.46.19l-.11.06a2.64,2.64,0,0,0-.78.71l-.08.13a2.55,2.55,0,0,0-.31,2.12,2.76,2.76,0,0,0,.2.47v.08s0,.08-.06.07l-.15-.06a2.72,2.72,0,0,1-1.5-1.68L68.75,84.44A3.73,3.73,0,0,1,68.85,81.81Z"/><path class="cls-15" d="M74.06,80l8.34,25.86a.64.64,0,0,1,.08-.14L74.23,80.09A.58.58,0,0,0,74.06,80Z"/><path class="cls-15" d="M72.74,79.57l7.78,24.12.16.07L72.9,79.56Z"/><path class="cls-15" d="M71.62,79.6l7.72,24h.13l-7.73-24Z"/><path class="cls-15" d="M70.58,80l7.72,24,.11-.06-7.72-24Z"/><path class="cls-15" d="M69.63,80.65l7.78,24.12.09-.13L69.71,80.56Z"/><path class="cls-15" d="M68.85,81.81l8.25,25.63.15.06L68.93,81.64A1.3,1.3,0,0,0,68.85,81.81Z"/><path class="cls-14" d="M69.77,89.46l.08.27a.52.52,0,0,0,.07.15.61.61,0,0,0,.68.24l7.06-2.31a.59.59,0,0,0,.41-.58v-.16L78,86.79a.59.59,0,0,0-.74-.39h0l-7.06,2.27a.61.61,0,0,0-.4.74S69.76,89.45,69.77,89.46Z"/><path class="cls-15" d="M69.92,89.88a.61.61,0,0,0,.68.24l7.06-2.31a.59.59,0,0,0,.41-.58Z"/><path class="cls-16" d="M77.88,86.68a.61.61,0,0,0-.67-.24l-7.06,2.28a.58.58,0,0,0-.41.58Z"/><path class="cls-14" d="M70.22,90.86l.08.27a.69.69,0,0,0,.07.15.63.63,0,0,0,.68.24l7.06-2.28a.57.57,0,0,0,.4-.59.43.43,0,0,0,0-.16l-.08-.27a.6.6,0,0,0-.74-.39h0L70.6,90.15A.58.58,0,0,0,70.22,90.86Z"/><path class="cls-15" d="M70.41,91.28a.61.61,0,0,0,.67.24l7.06-2.28a.58.58,0,0,0,.41-.59Z"/><path class="cls-16" d="M78.33,88.08a.58.58,0,0,0-.67-.24L70.6,90.15a.59.59,0,0,0-.41.58Z"/><path class="cls-14" d="M70.66,92.26l.1.27a.34.34,0,0,0,.07.15.58.58,0,0,0,.67.23l7-2.27a.61.61,0,0,0,.39-.78h0l-.08-.27a.6.6,0,0,0-.74-.4l0,0L71,91.49a.58.58,0,0,0-.36.75Z"/><path class="cls-15" d="M70.83,92.68a.58.58,0,0,0,.67.23l7-2.27a.6.6,0,0,0,.42-.59Z"/><path class="cls-16" d="M78.78,89.47a.59.59,0,0,0-.67-.23l-7.06,2.28a.57.57,0,0,0-.41.58Z"/><path class="cls-14" d="M85.53,58.66a.56.56,0,0,1,0-.56A4.74,4.74,0,0,0,86,56.18h0a14,14,0,0,1,0-1.94,20.48,20.48,0,0,1,.86-3.78.89.89,0,0,1,.77-.61.86.86,0,0,1,.32,0A.89.89,0,0,1,88.59,51h0s-.28.83-.51,1.84a.58.58,0,0,1,.12.1s2.24,3.64,2.12,4.09-2.87,4.62-2.87,4.62S86.16,59.59,85.53,58.66Z"/><rect class="cls-17" x="89.41" y="48.19" width="2.14" height="17.48" transform="translate(-11.98 26.45) rotate(-15.61)"/><rect class="cls-17" x="91.26" y="63.91" width="2.73" height="1.48" rx="0.74" transform="translate(-13.98 27.31) rotate(-15.61)"/><path class="cls-18" d="M76.28,17.48l2.58,9.26,3,10.7L85,48.49a.72.72,0,0,0,.59.51l1.62.22,2.1-.59,1.32-1.05a.71.71,0,0,0,.25-.74L87.21,33.92,86,29.39,82.16,15.84a.71.71,0,0,0-.7-.51,9.85,9.85,0,0,0-2.53.31,9.57,9.57,0,0,0-2.33,1.05A.69.69,0,0,0,76.28,17.48Z"/><path class="cls-18" d="M76.28,17.48l2.58,9.26c2.9,2.76,5.86,5.22,8.35,7.18L86,29.39,82.16,15.84a.71.71,0,0,0-.7-.51,9.85,9.85,0,0,0-2.53.31,9.57,9.57,0,0,0-2.33,1.05A.69.69,0,0,0,76.28,17.48Z"/><path class="cls-14" d="M89.39,56.93a.93.93,0,0,1-.1-.78.91.91,0,0,1-.21-1.26h0a.93.93,0,0,1,0-1.43.93.93,0,0,1-.21-.23A.9.9,0,0,1,89.16,52l0,0,.11-.06c.78-.48,1.31-.78,1.32-.78a1,1,0,0,1,1.27.37.89.89,0,0,1,.09.73.9.9,0,0,1,.33.34.93.93,0,0,1,.07.78.91.91,0,0,1,.36,1.24l0,0a1,1,0,0,1,.26.28.91.91,0,0,1-.32,1.24h0s-.36.2-.86.44-1.09.61-1.1.62A1,1,0,0,1,89.39,56.93Z"/><path class="cls-14" d="M87.35,65.17s-2.24-3-2-3.33,1-.78,1.2-1.12A14.36,14.36,0,0,1,89.65,58h0a6.72,6.72,0,0,1,2.67-1,.89.89,0,0,1,1,.28,1.18,1.18,0,0,1,.16.29.83.83,0,0,1,0,.62,1,1,0,0,1,.52.32,1.25,1.25,0,0,1,.15.28.88.88,0,0,1-.27,1,1,1,0,0,1,.42.29.8.8,0,0,1,.15.29.88.88,0,0,1-.37,1,.83.83,0,0,1,.22.2.9.9,0,0,1,.16.29A.89.89,0,0,1,93.85,63s-.67.32-1.33.58c-1.18,1.11-3.67,1.46-4.45,1.71A.81.81,0,0,1,87.35,65.17Z"/><path class="cls-14" d="M86.39,52.36a18.15,18.15,0,0,1,.54-1.89.88.88,0,0,1,.77-.61.7.7,0,0,1,.32,0A.89.89,0,0,1,88.59,51h0s-.37,1.24-.61,2.25Z"/><path class="cls-15" d="M89.28,53.57h.06l2.54-1.1a.16.16,0,0,0,.07-.18.14.14,0,0,0-.18-.07h0l-2.54,1.1a.14.14,0,0,0-.07.18A.13.13,0,0,0,89.28,53.57Z"/><path class="cls-15" d="M89.24,55h.05l3-1.4a.14.14,0,0,0,.07-.18.14.14,0,0,0-.18-.07h0l-3,1.43a.14.14,0,0,0-.07.18A.12.12,0,0,0,89.24,55Z"/><path class="cls-15" d="M89.42,56.23h.06l3.2-1.4a.14.14,0,0,0,.07-.18.14.14,0,0,0-.18-.07L89.37,56a.12.12,0,0,0-.07.17h0A.12.12,0,0,0,89.42,56.23Z"/><path class="cls-15" d="M91.18,59.42h0l2.13-1a.12.12,0,0,0,.06-.18.13.13,0,0,0-.17-.06h0l-2.13,1a.14.14,0,0,0-.07.18h0A.12.12,0,0,0,91.18,59.42Z"/><path class="cls-15" d="M91.72,60.85h0l2-.9a.14.14,0,1,0-.11-.25l-2,.88a.13.13,0,0,0-.08.17h0A.12.12,0,0,0,91.72,60.85Z"/><path class="cls-15" d="M92.12,62.32h.07L94,61.54a.14.14,0,0,0,.07-.18.13.13,0,0,0-.17-.07h0l-1.77.78a.13.13,0,0,0,0,.25Z"/><path class="cls-7" d="M70.65,56.28c1.13-.07,2.07-.25,2-1.6l-.34-5.56a2.09,2.09,0,0,0-4.14-.51,2.16,2.16,0,0,0,0,.76l.35,5.56C68.63,56.29,69.52,56.35,70.65,56.28Z"/><path class="cls-7" d="M73.6,54h.14a3,3,0,0,1-2.94,2.67A3.1,3.1,0,0,1,67.39,54h.1a10,10,0,0,1,3.65-.38A13.87,13.87,0,0,1,73.6,54Z"/><path class="cls-5" d="M67.36,54v.07a3.23,3.23,0,0,0,6.43,0h0l-.3-.1-.38-.07a2.53,2.53,0,0,1-5.06.1.67.67,0,0,1,0-.2A7,7,0,0,0,67.36,54Z"/><path class="cls-19" d="M60.05,29.75s-5.33,1.26-1.46,13C69.88,44.84,67.88,32.13,60.05,29.75Z"/><path class="cls-13" d="M80.26,38.12l.26,2.47c.69,6.46-3.69,12.22-9.79,12.87h0c-6.08.64-11.57-4.08-12.25-10.55l-.26-2.46A6.62,6.62,0,0,1,63.87,33l9.34-1A6.62,6.62,0,0,1,80.26,38.12Z"/><path class="cls-7" d="M71.35,32.49l-1.68-.09L63.86,33a6.62,6.62,0,0,0-5.65,7.44v.49c.53-.34,14.29-1.48,17-1.09.45.07.89.11,1.11-.28L79,36.18C77,34.69,73.88,32.61,71.35,32.49Z"/><path class="cls-7" d="M69.72,53.26h0c5.61-.59,9.61-6.31,8.93-12.78l.15-2.6A7,7,0,0,0,73.6,32a6.65,6.65,0,0,1,6.66,6.12l.26,2.47c.69,6.46-3.69,12.22-9.79,12.87h0a10.64,10.64,0,0,1-3.51-.23A11.61,11.61,0,0,0,69.72,53.26Z"/><path class="cls-20" d="M79.59,28.84c-.24-2.78-5.31-5.1-7.78-5.4A12.67,12.67,0,0,0,60.29,27.7c-4,4.45-3.11,11.13-2.6,11.55,2.39-2.83,6.71,1,11.31-2.27,3.89-2.78,6.8-1.91,7-1.48.27,3.44,2.65,3.26,2.83,4.73.07.68,1.14,1.07,1.79,1h.17l.68,1.63S86,30.48,79.59,28.84Z"/><path class="cls-19" d="M76.06,33.43c-1.13-.74-10.79-2.33-18.68,1-.34,2.56,0,4.63.29,4.86,2.39-2.83,6.71,1,11.31-2.27,3.89-2.78,6.8-1.91,7-1.48v.23C76.55,34.61,76.55,33.76,76.06,33.43Z"/><path class="cls-19" d="M75.61,35.38a.31.31,0,0,1,.15.15c.27,3.44,2.72,3.24,2.9,4.72.08.67,1.18,1.06,1.85,1h.19l.69,1.63s3.3-8.73.46-12.45A18.4,18.4,0,0,1,75.61,35.38Z"/><path class="cls-7" d="M79,42.35c-.39,1.56-.18,2.84,1,3.11s2.42-.7,2.8-2.21-.25-3-1.41-3.29S79.33,40.83,79,42.35Z"/><path class="cls-21" d="M81.14,41.12c-.71-.18-1.21.49-1.44,1.39a2.57,2.57,0,0,0,0,1.2.54.54,0,0,1,.3-.13.53.53,0,0,1,.57.47h0a.54.54,0,0,1-.09.35,1.76,1.76,0,0,0,.71-3.29Z"/><path class="cls-6" d="M83,33h0a15.47,15.47,0,0,0-2-5.63L81,27.26c-2.09-3.34-5.72-5.5-11.32-5.06l-1.07.09c-8.29.66-11.4,6.3-11.5,12.52,0,.6,0,1.21.06,1.81a1.2,1.2,0,0,0,.35.78l1.07-.08h0l20.23-1.65A8.1,8.1,0,0,1,82.2,36.8a.71.71,0,0,0,1-.27.56.56,0,0,0,.09-.31A13.54,13.54,0,0,0,83,33Z"/><path class="cls-14" d="M81,27.35c-8.62,6.36-19.38,7.45-24,7.46.07-6.22,3.23-11.86,11.5-12.52l1-.09c5.6-.44,9.23,1.72,11.32,5.06Z"/><path class="cls-6" d="M78.11,35.11s-13.54,1-20.84,1.73a5,5,0,0,1-.57,1.35l0,.78c0,.42.57.63,1.3.49a80.47,80.47,0,0,1,16.25-1.3,3.19,3.19,0,0,0,2-.77c.6-.51,1.22-1.21,1.82-1.72Z"/><path class="cls-14" d="M74.25,37.4A80.46,80.46,0,0,0,58,38.69c-.78.13-1.27-.07-1.3-.5s.34-1,.47-1.46a80,80,0,0,1,20.94-1.62c-.61.5-1.21,1-1.81,1.55A3.32,3.32,0,0,1,74.25,37.4Z"/><path class="cls-14" d="M81.65,35.67a.23.23,0,0,0-.31.07L79,39.17l-.16-3.89a.28.28,0,0,0-.29-.27h0a.27.27,0,0,0-.19.1.26.26,0,0,0-.07.19l.42,9.49c-1.56-1-6.59-1.68-12.27-1.22C62,43.92,60,45.12,59.15,46a1.53,1.53,0,0,0-.18.18L58.88,45a11.74,11.74,0,0,1-.41-2.11l-.09-.78c-.25-.78-.45-1.56-.61-2.26l.85,7.32L59,50.86a2,2,0,0,0,.6,1.24,2.16,2.16,0,0,0,.33.27h0l.24.17c1,.65,3.11,1.37,7.11,1,.46,0,.91-.08,1.36-.12a42.38,42.38,0,0,0,5.49-1,17.85,17.85,0,0,0,4.24-1.56,4.3,4.3,0,0,0,.52-.35,1.85,1.85,0,0,0,.28-.28.74.74,0,0,0,.14-.22,1.25,1.25,0,0,0,.11-.78v-.51h0v-.05l-.07-1.47-.07-1.66L79.09,40,81.74,36a.23.23,0,0,0,0-.31Zm-3,9.63.08.09c0,1.07.1,2,.12,2.66-1.33-.78-5-1.42-9.51-1.33l-.66-2.83C73.81,43.75,77.83,44.54,78.68,45.3ZM64.84,44.23c.51-.07,1.06-.13,1.66-.17S67.62,44,68.16,44l.69,2.78c-.7,0-1.42.06-2.14.12a20.71,20.71,0,0,0-2.08.25Zm1.9,3.12c.78-.06,1.49-.1,2.21-.13l.68,2.86c-.89,0-1.78.08-2.66.15a25.88,25.88,0,0,0-2.63.33l.24-3a19.86,19.86,0,0,1,2.16-.27Zm-7.66-.51a2.07,2.07,0,0,1,.28-.38c.54-.61,1.86-1.56,4.94-2.13l-.21,2.91a10.75,10.75,0,0,0-3.61,1.28,4.69,4.69,0,0,0-1.11.92Zm.77,4.83a1.78,1.78,0,0,1-.34-.91l-.07-.67a3.31,3.31,0,0,1,1.29-1.23,10.08,10.08,0,0,1,3.32-1.19l-.23,3c-.41.1-.78.19-1.13.29A9.68,9.68,0,0,0,60.22,52a2.59,2.59,0,0,1-.41-.4Zm3.83,1.55a7.68,7.68,0,0,1-3-.86,10.06,10.06,0,0,1,2.49-1l.66-.17v.6Zm3.64,0H67a19,19,0,0,1-2.82,0l0-1.2.08-1A26.73,26.73,0,0,1,67,50.65c.92-.07,1.84-.12,2.73-.15l.55,2.29q-1.42.24-3,.36Zm8.46-1.55a34.91,34.91,0,0,1-5,1.17l-.53-2.22a50.83,50.83,0,0,1,6.53.19l.87.1a15.51,15.51,0,0,1-2,.65Zm3.11-3,0,.05v.68h0a.92.92,0,0,1-.27.87,3,3,0,0,1-.36.26c-.34,0-.71-.11-1.1-.14a52.85,52.85,0,0,0-7-.25l-.69-2.89c4.53-.07,8.12.6,9.21,1.28Z"/></g></g></svg>