<svg id="Layer_9" data-name="Layer 9" xmlns="http://www.w3.org/2000/svg" viewBox="0 0 128 128"><defs><style>.cls-1{fill:#11485d;}.cls-2{fill:#f4d9bf;}.cls-3{fill:#efcaa6;}.cls-4{fill:#c39368;}.cls-5{fill:#dedce2;}.cls-6{fill:#d4c4b7;}.cls-7{fill:#ece9f2;}.cls-8{opacity:0.5;}.cls-9{fill:#cecad8;}.cls-10{fill:#35314c;}.cls-11{fill:#b4b4b5;}.cls-12{fill:#ccc;}.cls-13{fill:#fff;}.cls-14{fill:#b7b7b2;}.cls-15{fill:#e2d6cf;}.cls-16{fill:#a89180;}.cls-17{fill:#a08b7d;}.cls-18{fill:#bfa999;}.cls-19{fill:#9e9c9c;}</style></defs><g id="Layer_1-2" data-name="Layer 1-2"><path class="cls-1" d="M20.26,17.39V15.33a.61.61,0,0,1,0-.23,11.36,11.36,0,0,1,3.12-6.9A18.84,18.84,0,0,1,29.64,4a37.63,37.63,0,0,1,6.71-2.2c1.34-.34,2.67-.68,4-.92A53.44,53.44,0,0,1,47.06.39a1.87,1.87,0,0,0,.53,0h6.1l.27,0c1,0,1.95,0,2.93.09,1.62.07,3.24.18,4.87.32,2,.17,4,.39,6.05.73a45.91,45.91,0,0,1,9.6,2.33c1.19.47,2.45.73,3.67,1.13A119,119,0,0,1,96.84,10.7a56.11,56.11,0,0,1,8.6,4.81.91.91,0,0,1,.24.2,3.23,3.23,0,0,0,1.07.91c.88.54,1.78,1.06,2.65,1.61a20.65,20.65,0,0,1,4.95,4.08,11.87,11.87,0,0,1,2.76,5.57c.09.46.14.92.21,1.38v2l-.11.9a21.16,21.16,0,0,1-2,6.3,44.77,44.77,0,0,1-5.62,8.66c-.49.62-1,1.19-1.47,1.83s-.84,1.22-1.3,1.8a152.85,152.85,0,0,1-10.58,12C94.66,64.42,93.05,66,91.4,67.6S88,70.76,86.19,72.35a109.9,109.9,0,0,1-9.1,7.14,69,69,0,0,1-9.9,5.87,6.15,6.15,0,0,0-.66.37c-.84.55-1.69,1.09-2.57,1.58a24.58,24.58,0,0,1-8.57,3c-.49.07-1,.11-1.47.17h-2.2l-.22,0a16.39,16.39,0,0,1-6.09-1.65A22.43,22.43,0,0,1,38.12,83,41.48,41.48,0,0,1,33,75.21a77.92,77.92,0,0,1-4.46-10.88A33.88,33.88,0,0,0,27.44,61a80.59,80.59,0,0,1-4.35-13.11,91.34,91.34,0,0,1-2.27-13.44c-.22-2.32-.33-4.64-.36-7,0-1.94,0-3.88.18-5.84a6.75,6.75,0,0,0-.05-1.74,4.09,4.09,0,0,1-.1-.61C20.41,18.64,20.33,18,20.26,17.39Z"/><path class="cls-2" d="M113.92,61.36a2.54,2.54,0,0,1,2.12-.42c1.29.3,1.22,1.22,1.22,1.36s.39.47.11.87c.46.66.19.73-.16,1,.62.8-.5,2.13-1.65,1-.69.47-1.31.38-1.63-.58l-.58-1.74Z"/><path class="cls-3" d="M114.8,60.94a2.24,2.24,0,0,0-.88.42l-.57,1.46.35,1A7.29,7.29,0,0,1,114.8,60.94Z"/><path class="cls-4" d="M116.85,65a2.28,2.28,0,0,1-.68-.48h0a.72.72,0,0,1-.15-.27h0a5.88,5.88,0,0,1-.94.11v0a1.77,1.77,0,0,0,.46,0,2,2,0,0,0,.34,0c.11,0,.17.12.2.2a1,1,0,0,0-.51.56s0,0,.06,0a1.89,1.89,0,0,1,.25-.31l.25-.17a1.35,1.35,0,0,0,.74.5S116.85,65.06,116.85,65Z"/><path class="cls-4" d="M117.36,64.26a2.53,2.53,0,0,0-.88-.87s-.07,0,0,.06a4.22,4.22,0,0,1,.83.91S117.38,64.29,117.36,64.26Z"/><path class="cls-4" d="M117.46,63.27a1.82,1.82,0,0,0-.86-.85s-.12.08-.08.1a3.81,3.81,0,0,1,.86.84S117.48,63.3,117.46,63.27Z"/><path class="cls-4" d="M117.5,62.59a1.77,1.77,0,0,0-1.14-1s-.1.08-.06.1a2.9,2.9,0,0,1,.6.38,3.19,3.19,0,0,1,.5.6S117.51,62.63,117.5,62.59Z"/><path class="cls-5" d="M64.45,63.79a19.73,19.73,0,0,0,3.67-.74c1-.4,1.17-.2,1.17-.2s0-.51.21-.48a1.28,1.28,0,0,1,.53.33c.56.12,8.81-4.4,11.43-5.75A27,27,0,0,1,83,61.31s-13.75,5.43-18.34,4.6A16.79,16.79,0,0,0,64.45,63.79Z"/><path class="cls-5" d="M81.93,61.75,83,61.33A26.58,26.58,0,0,0,81.43,57l-.94.49A15.12,15.12,0,0,0,81.93,61.75Z"/><path class="cls-6" d="M93.23,58.33a4.39,4.39,0,0,1,.16-3.52.88.88,0,0,0-1-.09s-2.77,5-10.06,4.49c0,0,.49,4.52,4.9,10.5,3.16,1.22,4.41,1.64,5.87,3.07A26.34,26.34,0,0,0,95.45,75c.11,0,.67.39,1-.12a6.36,6.36,0,0,1-.94-4.31c.45-2.26,2.94-4.35,2.94-4.35h0l0,0s-1.73-4.13-2.14-5-.81-.78-.81-.78S94.05,60.69,93.23,58.33Z"/><path class="cls-6" d="M86.21,60.78a11.47,11.47,0,0,0,3.54-1.32A7.33,7.33,0,0,0,93,56.12a3.23,3.23,0,0,1,.4-1.38.88.88,0,0,0-1-.09s-2.77,5.08-10.06,4.56a9.15,9.15,0,0,0,.29,1.36A7.66,7.66,0,0,0,86.21,60.78Z"/><path class="cls-7" d="M93.49,54.85l-.1-.08a4.39,4.39,0,0,0-.16,3.52c.82,2.4,2.3,2,2.3,2l-.47-1s5.33.88,6.61,1.12c.49.86,1,.57,1.25.41.5.74,6.48,1.73,10.45,2.46a17.4,17.4,0,0,0,.73-2.21S99.11,55.39,93.49,54.85Z"/><path class="cls-7" d="M94.4,55c-.33-.05-.63-.08-.91-.11l-.1-.08a4.39,4.39,0,0,0-.16,3.52c.82,2.4,2.3,2,2.3,2l0-.1C94.06,59.16,94,56.65,94.4,55Z"/><g class="cls-8"><path class="cls-6" d="M98.51,66.13s-1.74-4.13-2.15-5-.8-.79-.8-.79-1.47.38-2.31-2a4.44,4.44,0,0,1,.16-3.52.88.88,0,0,0-1-.09s-2.79,5-10.08,4.53a19.57,19.57,0,0,0,2.11,6h.06s-1.08-2.8,1.51-3.59,4.41,1.92,7,4.63-1.36,7.45-7.12,1.35h-.11c.43.68.91,1.39,1.47,2.11,3.16,1.22,4.41,1.64,5.87,3.07A24.72,24.72,0,0,0,95.48,75c.11,0,.67.39,1-.11a6.4,6.4,0,0,1-.94-4.32c.45-2.25,2.94-4.34,2.94-4.34h0Z"/></g><path class="cls-7" d="M86.21,44.38C85,41.05,83,40.27,82,40.27a7.55,7.55,0,0,0-2.93.55,4.63,4.63,0,0,1,2-.09c2.2.43,3.94,4.7,3.89,8s-1.4,7.82-3.79,8.07c2.88.05,4.13-.51,5-2.81A14.54,14.54,0,0,0,86.21,44.38Z"/><path class="cls-9" d="M85.84,53.75c-.45.21-.54-.73-.54-1a10,10,0,0,1,.34-1.53,8.08,8.08,0,0,0,.1-1.9A12.66,12.66,0,0,0,85,45.09c-.24-.6-.51-1.2-.8-1.78a8.16,8.16,0,0,1-.74-1.55c-.17-.6.1-.73.52-.73a3.5,3.5,0,0,0-2-.8,7.57,7.57,0,0,0-2.94.56,4.37,4.37,0,0,1,2-.09c2.2.42,3.93,4.69,3.89,7.95s-1.4,7.83-3.79,8.08c2.88.05,4.12-.52,5-2.81.1-.31.19-.61.27-.91A1.29,1.29,0,0,1,85.84,53.75Z"/><path class="cls-10" d="M84.91,48.65c0-3.26-1.68-7.53-3.89-7.95a4.33,4.33,0,0,0-2,.09c-1.23.57-2.14,1.71-2.5,4-.62,3.82.08,9.79,1.31,10.81a4.65,4.65,0,0,0,3.26,1.19C83.51,56.48,84.88,51.91,84.91,48.65Z"/><path class="cls-6" d="M92.79,45.85A8.74,8.74,0,0,0,89.7,40.1l-.07-.05c-1.35-.47-5.44-.39-7.63.18,1,0,3,.78,4.21,4.12a14.48,14.48,0,0,1-.11,9.57c-.85,2.3-2.1,2.86-5,2.81a8,8,0,0,0,.73,2.55c.57,1,3.08,1.47,7.26-.62a8.65,8.65,0,0,0,3-2.54C93.2,53.61,93,48.59,92.79,45.85Z"/><g class="cls-8"><path class="cls-6" d="M92.79,45.85A8.74,8.74,0,0,0,89.7,40.1l-.07-.05-.39-.11a12.18,12.18,0,0,1,2.65,4,2.3,2.3,0,0,1-.41,2.64c-1.38,1.11-3.75.11-4.44-1.4a29.28,29.28,0,0,1-1.92-4.32,1.38,1.38,0,0,1,.15-1,18,18,0,0,0-3.27.45c1,0,3,.78,4.21,4.12a14.48,14.48,0,0,1-.11,9.57c-.85,2.3-2.1,2.86-5,2.81a8,8,0,0,0,.73,2.55c.57,1,3.08,1.47,7.26-.62a8.65,8.65,0,0,0,3-2.54C93.2,53.61,93,48.59,92.79,45.85Z"/></g><path class="cls-7" d="M94.58,47.44c-.22-3.78-1.32-5.88-4.66-7.26a1.51,1.51,0,0,0-.29-.13l.07.05a8.74,8.74,0,0,1,3.09,5.75c.2,2.73.41,7.75-.64,10.23A13.84,13.84,0,0,0,94.58,47.44Z"/><path class="cls-9" d="M93.46,53.78a6.11,6.11,0,0,1,0-1.86,4.68,4.68,0,0,1,.28-2,1.18,1.18,0,0,1,.85-.57c0-.37,0-.73,0-1.09a1.06,1.06,0,0,1-.89,0,1,1,0,0,1-.13-1.17,1.58,1.58,0,0,1,.91-.73c0-.35-.1-.69-.17-1a1,1,0,0,1-.67-.13A2.08,2.08,0,0,1,92.76,44c-.23-.6-.45-1.19-.73-1.77a2,2,0,0,1-.29-1.07,8.61,8.61,0,0,0-1.82-1,1.11,1.11,0,0,0-.29-.14l.07.06a8.67,8.67,0,0,1,3.09,5.72c.2,2.73.41,7.75-.64,10.23A11.38,11.38,0,0,0,93.46,53.78Z"/><path class="cls-6" d="M61.2,63.35a1.25,1.25,0,0,1,.94-.31c1-.27,2.52.09,2.71.89s.4,2.23-.28,2.49c.1,1.47-.45,1.28-.68,1.19-.23.63-.63.42-.91.12-.19.49-.94.33-1.19,0-.29.51-.73.37-.82-.17S61.2,63.35,61.2,63.35Z"/><path class="cls-6" d="M61.4,65.76A15.8,15.8,0,0,1,61.8,63a1.5,1.5,0,0,0-.6.31S60.89,67,61,67.52c0,.27.16.44.32.48A7,7,0,0,1,61.4,65.76Z"/><path class="cls-11" d="M62.85,65l3.48-.29,0,.88-2.06.28S64.32,65.31,62.85,65Z"/><path class="cls-6" d="M62.91,64.93h0c-.17-.1-.41-.18-.57,0h0c-.27.3-.61.91-1.05.54h0c.18.25.46.14.67,0l0,0a2.77,2.77,0,0,1-.21,2.25s0,0,0,0A2.51,2.51,0,0,0,62,65.4a2.35,2.35,0,0,0,.26-.29.34.34,0,0,1,.12-.12c.87.84.6,1.88.5,3,0,0,.09,0,.09-.07.12-1,.42-2.24-.54-2.93h.05c1.21.07,1.61,1.73,1.42,2.73,0,.06.08,0,.09,0C64.11,66.82,63.83,65.25,62.91,64.93Z"/><path class="cls-6" d="M64.23,65.58h0a3.17,3.17,0,0,1,.37,1.2s.06,0,.06,0A1.81,1.81,0,0,0,64.23,65.58Z"/><path class="cls-6" d="M89,51.84c-1,2.27-2.42,4.09-5,4.61h0c2.43-.15,4.4-2.51,5.14-4.7C89.13,51.68,89,51.79,89,51.84Z"/><path class="cls-6" d="M89.74,47.06c-1.16.17-2.4.51-2.79,1.73,0,.07.07,0,.09,0,.52-1.27,1.89-1.46,3.1-1.58a3.38,3.38,0,0,1,1.86.23c.61.28.62,1,.69,1.53,0,.1.16,0,.17-.11C92.91,47,91.24,46.86,89.74,47.06Z"/><path class="cls-9" d="M94.45,45.77a7,7,0,0,0-1.65.11s-.09.09,0,.09a10.82,10.82,0,0,0,1.61,0S94.52,45.78,94.45,45.77Z"/><path class="cls-9" d="M94.56,48.72a3.65,3.65,0,0,1-1.47.18c-.06,0-.17.18-.1.19a3.27,3.27,0,0,0,1.52-.15C94.58,48.9,94.7,48.65,94.56,48.72Z"/><path class="cls-6" d="M88.31,48.49a.25.25,0,0,1-.29.21.26.26,0,0,1-.2-.21.26.26,0,0,1,.2-.29.25.25,0,0,1,.29.21A.11.11,0,0,1,88.31,48.49Z"/><path class="cls-6" d="M92,48.24a.24.24,0,0,1-.24.26.26.26,0,0,1-.26-.24.26.26,0,0,1,.25-.26h0A.24.24,0,0,1,92,48.24Z"/><path d="M83.74,49.9c-.48-.6-1-1.18-1.51-1.75l.3-.37c0-.05,0-.09,0,0l-.31.35c-.34-.39-.73-.73-1.05-1.15l.51-.65.65.73s.11-.07.09-.1c-.2-.27-.41-.54-.62-.8l.48-.6.13.16s.14-.08.1-.13l-.12-.16.47-.56h0l-.48.55a8.24,8.24,0,0,0-.74-.84l.58-.73c.2.25.38.5.56.73,0,0,.13-.07.11-.11a21,21,0,0,0-1.32-1.78l.22-.27c0-.05,0-.08,0,0l-.22.25c-.32-.39-.65-.74-1-1.13.08-.09.14-.18.22-.26s0-.07,0,0l-.23.25-.29-.3s-.13.08-.09.12l.27.3-.73.78-.4-.51a8.23,8.23,0,0,0,.53-.78h0l-.11.09a1.51,1.51,0,0,0-.22.28c-.08.11-.17.21-.26.32l-.43-.59c0-.05-.11,0-.09.08l.42.62c-.14.19-.3.36-.44.54-.14-.2-.27-.41-.39-.62,0,0-.12.06-.1.1.12.22.24.43.38.64l-.66.73L77.66,43s-.11.06-.08.1l.21.27a11.49,11.49,0,0,0-.74,1c0-.07-.08-.14-.11-.21s-.1,0-.08.08c.17.35.36.69.55,1l-.47.62-.19-.39s0,0,0,0l.18.42-.49.65v.18c.19-.23.39-.46.57-.69a10.77,10.77,0,0,0,.74,1.27,10,10,0,0,0-.52.9c-.2-.3-.4-.61-.59-.92,0,0-.1,0-.08.07l.59,1c-.11.22-.22.44-.31.67s.07,0,.1,0l.31-.52c.21.32.42.65.65,1-.18.28-.37.57-.54.86-.23-.31-.44-.63-.64-1,0,0-.09,0-.07.07.19.35.41.68.63,1l-.32.55-.2-.31s-.08,0-.06.06l.2.34-.31.57c0,.09.06,0,.09,0l.3-.46c.23.36.48.74.73,1.06-.15.22-.29.44-.45.66a6.92,6.92,0,0,1-.47-.84s-.08,0-.08.07a6.1,6.1,0,0,0,.47.87l-.06.09s0,.08,0,0l.06-.08a8.35,8.35,0,0,0,1,1.33h0a8,8,0,0,0,.73.66l-.12.24c-.65-.74-1.29-1.41-1.91-2.15,0,0-.07,0,0,.06a16,16,0,0,0,1.9,2.21l-.11.24c-.05.1.09,0,.11,0s0-.1.07-.14l.21.2s.12-.07.09-.11l-.23-.24.14-.25a10.69,10.69,0,0,0,1.27.94s.13-.08.09-.11c-.42-.31-.86-.64-1.28-1l.38-.67c.35.36.73.73,1.06,1,0,0,.12-.06.09-.1-.36-.36-.73-.73-1.07-1.09.12-.21.24-.41.37-.61.4.37.81.73,1.24,1.1-.16.26-.31.51-.46.73s0,.09.09,0c.15-.24.3-.47.44-.73l1,.82s.14-.09.1-.12c-.32-.31-.64-.6-1-.9l.53-.94h0c.36.27.74.51,1.12.74,0,0,.14-.09.1-.12-.38-.25-.73-.51-1.11-.78l.59-1a.89.89,0,0,0,.08-.17l.28.22s.08,0,.06-.07l-.29-.25c.1-.21.23-.45.34-.49s0-.06,0-.05a1.09,1.09,0,0,0-.44.46l-1-.87.5-.6.82.78s.12-.06.09-.09l-.74-.84h0c-.33-.34-.66-.67-1-1,.28-.34.55-.68.83-1,.52.57,1.05,1.14,1.55,1.71C83.67,50.06,83.78,50,83.74,49.9Zm-2.67-3-.68-.74.51-.68.69.77ZM78.26,51.5l.51-.88c.24.29.48.56.74.83a8.85,8.85,0,0,0-.5.84C78.75,52,78.5,51.77,78.26,51.5Zm.64,1q-.16.32-.3.63c-.27-.3-.53-.6-.79-.92l.35-.54C78.4,52,78.64,52.22,78.9,52.49Zm1.93-7.1-.52.66-.83-.9.55-.68C80.3,44.78,80.56,45.12,80.83,45.39Zm-.67-1.08.48-.57.8.9c-.16.19-.31.39-.47.59Zm-1.65,2.13.86-1.14c.27.31.53.62.8.92-.29.37-.58.73-.86,1.13C79,47.05,78.77,46.75,78.51,46.44ZM80,48.38l-.09.13c-.13.21-.27.42-.39.63l-.74-.74.53-.73ZM79.38,45c-.29-.33-.59-.66-.87-1l.57-.73q.42.55.87,1.08c-.21.21-.39.43-.58.65Zm-.12.14c-.3.37-.59.73-.87,1.12-.28-.34-.54-.7-.79-1.07l.81-1.06c.28.34.55.68.84,1Zm-.85,1.47c.25.31.51.62.78.92l-.54.74c-.25-.3-.51-.6-.73-.91a7.36,7.36,0,0,1,.48-.8Zm.27,1.93a7.29,7.29,0,0,0,.74.73c-.21.34-.4.68-.6,1-.25-.29-.49-.59-.73-.89Zm.22,1.88c.19-.35.39-.73.58-1,.3.3.61.58.91.86-.25.33-.5.67-.73,1-.28-.28-.53-.57-.78-.85Zm1.59-.09,1,.84c-.28.33-.56.68-.82,1-.3-.27-.6-.55-.88-.84a8,8,0,0,1,.7-1.05Zm-.91-1.11a6.58,6.58,0,0,1,.48-.73l1,1-.54.66-1-.93Zm-.16-1.77.84-1.16c.23.25.45.5.68.74-.29.36-.56.73-.83,1.13Zm2.78-2c-.17.19-.33.38-.49.58-.22-.27-.45-.53-.68-.8l.46-.6Zm0-1.74-.6.73-.8-.9.66-.79.7,1Zm-1.76-2.15c.34.36.66.73,1,1.13l-.69.74c-.32-.36-.64-.74-1-1.1.18-.21.39-.51.63-.77Zm.16,2-.49.55c-.31-.36-.61-.74-.9-1.08l.46-.58c.26.36.58.75.89,1.1ZM79.2,42l.39.52-.47.55-.37-.52c.12-.18.27-.36.42-.55Zm-.55.67c.11.18.24.36.36.54l-.59.73L78,43.35Zm-1.58,1.76h0c.24-.3.51-.6.78-.9l.43.56c-.27.34-.54.73-.8,1.05C77.34,44.84,77.22,44.6,77.07,44.38ZM77,46l.49-.63a12.14,12.14,0,0,0,.78,1.1c-.18.25-.35.49-.51.74A9.68,9.68,0,0,1,77,46Zm.27,2.38c.17-.3.36-.58.54-.87.24.32.48.63.73.93-.19.29-.4.58-.59.88-.24-.34-.46-.66-.68-1ZM78,49.6c.23.32.48.63.73.93-.17.3-.33.6-.5.88a12.37,12.37,0,0,1-.79-1Zm-1,1.47.34-.52c.24.34.5.68.74,1-.11.18-.22.37-.34.54-.24-.32-.49-.67-.74-1Zm.28,1.86a7.31,7.31,0,0,0,.48-.62c.26.33.54.64.81,1a7.06,7.06,0,0,0-.28.89,8.7,8.7,0,0,1-1-1.22ZM79,54.87c-.22-.2-.45-.4-.66-.62.09-.29.19-.58.3-.85l.74.74c-.13.27-.26.52-.38.74Zm.44-.84-.73-.78c.1-.22.19-.43.3-.63l.79.8Zm-.33-1.63c.16-.28.33-.56.5-.84q.42.44.87.84c-.18.26-.37.52-.54.8-.28-.25-.53-.52-.83-.79Zm2.21,2L80.1,53.31c.18-.27.35-.54.54-.8a14.72,14.72,0,0,0,1.24,1Zm1.31-2.32c-.16.28-.29.59-.38.73l-.27.45a14.26,14.26,0,0,1-1.21-1c.25-.36.52-.73.79-1.06Zm-.5-1.66c-.18.19-.37.38-.54.58l-1-.86.51-.67Zm-.92-1.2-1.06-1c.26-.38.53-.73.81-1.13l1,1.14Z"/><path class="cls-7" d="M80.16,73.11c.21.08,9,2.79,15.3,1.88-.1,0-.82-.78-2.31-2.2s-2.74-1.85-5.87-3.07C81.41,68,76.6,67.37,75.91,69.35a13.11,13.11,0,0,0-.48,3.52,11.54,11.54,0,0,1,4.77,1.35,1.14,1.14,0,0,0,.49-.28C80.81,73.74,79.92,73,80.16,73.11Z"/><path class="cls-7" d="M80.16,73.11c.21.08,9,2.79,15.3,1.88-.1,0-.82-.78-2.31-2.2s-2.74-1.85-5.87-3.07l-1.65-.45A14.43,14.43,0,0,1,88.56,71a2.21,2.21,0,0,1,.93,1.47,1.08,1.08,0,0,1-.73.91,5.75,5.75,0,0,1-3.05.14,21.76,21.76,0,0,1-3.36-.94c-1.08-.36-2.2-.61-3.26-.9a1.4,1.4,0,0,1,.28.92.16.16,0,0,1-.11.13,8.33,8.33,0,0,1-3.76-.87,6.5,6.5,0,0,1,0,1,11.24,11.24,0,0,1,4.77,1.35,1,1,0,0,0,.49-.29C80.81,73.74,79.92,73,80.16,73.11Z"/><path class="cls-5" d="M107.39,76.39h0c-.46-.29-.17-1.73-1-1.46s-1.1-.74-1.56-1.32-5.71-6.77-6.24-7.39h0S96,68.31,95.55,70.56a6.33,6.33,0,0,0,.93,4.32c3.15,1.94,5.32,3.42,7.57,4.85A5.87,5.87,0,0,0,107.39,76.39Z"/><path class="cls-5" d="M80.33,74.3l-.16-.09h0a11.33,11.33,0,0,0-4.78-1.35A105.1,105.1,0,0,0,76,85.4h0a1.87,1.87,0,0,1,.82.87c2,.15,2.16,0,2.16,0s1.09-8.45,1.47-11.5A.76.76,0,0,0,80.33,74.3Z"/><path class="cls-5" d="M80.33,74.3l-.16-.09h0a11.33,11.33,0,0,0-4.78-1.35v.63c.89,0,1.87-.17,2.55.46a3.27,3.27,0,0,1,.82,2.29,29.69,29.69,0,0,1-.11,4.32c-.14,1.65-.51,4.34-1.93,5.54l.11.17c2,.15,2.15,0,2.15,0s1.1-8.45,1.47-11.5A.63.63,0,0,0,80.33,74.3Z"/><path class="cls-10" d="M79.34,89.29a7.63,7.63,0,0,1,.11-1.47c.17-1.36,0-1.86-.49-1.57,0,0-.2.2-2.16,0a1.87,1.87,0,0,0-.82-.87c-.09,0-.61,0-1.14.86s-1.73.74-3.18.74-3.32,0-3.67.67A19.46,19.46,0,0,0,79.34,89.29Z"/><g class="cls-8"><path class="cls-10" d="M79,86.21s-.2.2-2.16.06a1.85,1.85,0,0,0-.82-.88,1,1,0,0,0-.56.22.73.73,0,0,1,.66.55c.26.73,1.06.63,1.69.73.47.08,1.07.22,1,.81a1.34,1.34,0,0,1-1,1.21,5.91,5.91,0,0,1-2.44-.15c-1.06-.2-2.13,0-3.19-.3a7.59,7.59,0,0,1-2.93-1.34c-.6.09-1.07.25-1.21.55a19.33,19.33,0,0,0,11.31,1.62,7.63,7.63,0,0,1,.11-1.47C79.62,86.43,79.42,85.93,79,86.21Z"/></g><path d="M68,87.68a.08.08,0,0,0,0,.07c-.21.74.94,1.47,4,2.15a19.94,19.94,0,0,0,6.76.2c.42-.06.54-.34.59-.8A19.43,19.43,0,0,1,68,87.68Z"/><path class="cls-12" d="M117.62,85c.06-.73.12-.66-.06-.82l-.19-.16v0c-2.73-2.2-6.68-5.93-9.93-7.64a5.91,5.91,0,0,1-3.36,3.34,84.21,84.21,0,0,0,7.77,4.34,35.79,35.79,0,0,0,4.4,2.26S115.94,85.3,117.62,85Z"/><path class="cls-12" d="M116.71,85.34l-4.77-3.16c-.88-.57-1.82-1.06-2.7-1.61a2.81,2.81,0,0,1-1.41-1.47c-.17-.61.3-1.21.69-1.63l.28-.26c-.48-.31-1-.59-1.41-.83A5.86,5.86,0,0,1,104,79.71a83.28,83.28,0,0,0,7.77,4.35,38.16,38.16,0,0,0,4.41,2.26A.93.93,0,0,1,116.71,85.34Z"/><path class="cls-10" d="M119.54,84.27a6,6,0,0,1-.9-.4c-.8-.53-1.14-.17-1.29.11v.07l.19.16c.18.16.11.09.06.82-1.68.27-1.41,1.3-1.41,1.3s-.16.74.78,1c.64.22,1.06.62,1.79,2.09.65,1.28,1.74,3.35,2.74,3.59C123.16,89.15,120.52,85.43,119.54,84.27Z"/><g class="cls-8"><path class="cls-10" d="M119.54,84.27a6,6,0,0,1-.9-.4c-.8-.53-1.14-.17-1.29.11v.07l.19.16c.18.16.11.09.06.82-1.68.27-1.41,1.3-1.41,1.3a.82.82,0,0,0,.52.89,1.19,1.19,0,0,1-.13-.25.9.9,0,0,1,.14-.66,1.26,1.26,0,0,1,.62-.54,1.14,1.14,0,0,1,.45,0c.33,0,.3-.22.33-.44.1-.48.44-.77.92-.52a3.56,3.56,0,0,1,1.47,1.92c.5,1.22,1.47,2.84.81,4.19a1.27,1.27,0,0,1-1.27.73A3.09,3.09,0,0,0,121.52,93C123.16,89.15,120.52,85.43,119.54,84.27Z"/></g><path d="M121.78,86.82a4.16,4.16,0,0,0-2.24-2.55c.95,1.16,3.62,4.91,2,8.72a.68.68,0,0,0,.4,0C123,92.64,123,89.49,121.78,86.82Z"/><path class="cls-6" d="M97,67.21a18.27,18.27,0,0,1-7.2-8.88l-.09.05a13.85,13.85,0,0,0,2.6,4.71,16.28,16.28,0,0,0,4.56,4.27C96.93,67.4,97,67.24,97,67.21Z"/><path class="cls-6" d="M96.91,62.25a7.6,7.6,0,0,0-.49-.94h0a8.19,8.19,0,0,0-1.43.53s-.09.1-.07.14c.12.31.31.58.42.89h.08a9.84,9.84,0,0,1,1.47-.51S96.93,62.29,96.91,62.25Zm-1.55.25c-.08-.2-.2-.38-.29-.57a9.63,9.63,0,0,1,1.27-.46h0a6.35,6.35,0,0,0,.38.84c-.33.11-.69.16-1,.27C95.53,62.62,95.48,62.73,95.36,62.5Z"/><path class="cls-6" d="M98.27,65.38a4.7,4.7,0,0,1-.46-.78s-.1,0-.11,0a2,2,0,0,1-1.23.59c-.07,0-.18.19-.08.17h0a4.75,4.75,0,0,0,.55.85H97a6.08,6.08,0,0,1,.6-.34c.2-.12.38-.26.59-.39C98.24,65.49,98.31,65.42,98.27,65.38ZM97.21,66c-.19.13-.24,0-.37-.17a3.91,3.91,0,0,0-.33-.41,2.21,2.21,0,0,0,1.18-.59,4.77,4.77,0,0,0,.41.65Z"/><path d="M75.48,86.16a1.21,1.21,0,0,0-.84.24,2.91,2.91,0,0,0,0-1.1c0-.11-.18-.86-.45-.74a.76.76,0,0,0-.34.74,3,3,0,0,0,.36,1.15,2.31,2.31,0,0,1-1.67-.52s-.09.06-.07.09a1.89,1.89,0,0,0,1.8.57,0,0,0,0,0,0,0,5,5,0,0,0-.43.35c-.15.16-.39.44-.32.68s.16-.08.17-.11a1,1,0,0,1,.37-.57l.33-.27v.08c0,.1.1,0,.12,0h0c.56.19,1.9.52,2-.11C76.49,86.28,75.67,86.17,75.48,86.16Zm-1.29-.25c0-.11-.06-.23-.1-.35L74,85.32a.43.43,0,0,1,.22-.57l0,0c.22.15.23.79.25,1a4.52,4.52,0,0,1-.06.74h0C74.33,86.27,74.25,86.09,74.19,85.91Zm.46.61a1.37,1.37,0,0,1,.89-.15,1.47,1.47,0,0,1,.4.1,1.74,1.74,0,0,1,.36.24A2.55,2.55,0,0,1,74.65,86.52Z"/><path d="M119.41,87.89a1.49,1.49,0,0,0-1.31-.43,1.22,1.22,0,0,0,.29-.88c0-.28-.23-.73-.57-.52s-.28,1-.1,1.47a1.83,1.83,0,0,0-.87,0,.63.63,0,0,0-.57.58c0,.45.65.39.93.32a1.08,1.08,0,0,0,.69-.53A2,2,0,0,0,119,89.24s.18-.13.13-.16A3.19,3.19,0,0,1,118,87.75a1.12,1.12,0,0,0,0-.13c.49-.06.85.26,1.3.41C119.36,88,119.45,87.92,119.41,87.89Zm-1.62-.17v.07a.82.82,0,0,1-.65.44c-.26,0-.66,0-.67-.31s1.07-.27,1.35-.24h0Zm0-1.43c0-.16.2-.11.31,0a.58.58,0,0,1,.18.43,1.62,1.62,0,0,1,0,.44.79.79,0,0,1-.2.33.47.47,0,0,0-.12.09h0A2.32,2.32,0,0,1,117.75,86.29Z"/><g class="cls-8"><path class="cls-10" d="M81,40.71a4.63,4.63,0,0,0-2,.09c-1.23.57-2.14,1.72-2.5,4a15.91,15.91,0,0,0-.2,1.95h0s1-5,2.93-5.14,3.14,5.2,2.6,10.18-5.2,4.11-5.44-1.29h0c.22,2.45.74,4.59,1.43,5.14a4.56,4.56,0,0,0,3.26,1.19c2.39-.28,3.75-4.84,3.79-8.07S83.23,41.12,81,40.71Z"/></g><path class="cls-5" d="M107.31,76.37c-.46-.29-.17-1.73-1-1.47s-1-.52-1.42-1.1c.11.68.13,1.37-.3,1.46-.83.25-.83.5.33.59s1.47.83.5,1.75-3,.5-6.07-2.42-2.93-5.57-1.58-7.06c.9-1,2.38.16,3.27,1l-2.52-3h-.05S96,68.27,95.53,70.52a6.31,6.31,0,0,0,.93,4.32c3.15,1.94,5.32,3.43,7.57,4.85a5.86,5.86,0,0,0,3.36-3.33Z"/><path class="cls-11" d="M70.2,65.09s-19.91-2-32.39-8.23c5.08,3.38,18.52,6.87,32.38,8.85Z"/><path class="cls-11" d="M69.41,65a3,3,0,0,0,0,.6l.78.12v-.63Z"/><path class="cls-11" d="M61.57,61.8a44.93,44.93,0,0,0-.32,7,3.56,3.56,0,0,1-2.63-3.78A3.23,3.23,0,0,1,61.57,61.8Z"/><path class="cls-13" d="M72.19,62A3.36,3.36,0,0,0,70,65.48c0,.07.11,0,.11-.07a3.46,3.46,0,0,1,2-3.33S72.23,62,72.19,62Z"/><path class="cls-13" d="M70.3,66.16a1.05,1.05,0,0,1-.08-.35c0-.06-.1,0-.1.07a.51.51,0,0,0,.1.36S70.31,66.19,70.3,66.16Z"/><path class="cls-14" d="M69.87,73.84A57.33,57.33,0,0,1,58.7,72c-1.69-.46-3.37-1-5.05-1.46A12.84,12.84,0,0,1,49,68.33s-.07,0-.05.06a11.14,11.14,0,0,0,4.09,2.1c1.73.55,3.49,1.08,5.24,1.58a48.49,48.49,0,0,0,11.47,2C69.83,74,69.93,73.84,69.87,73.84Z"/><path class="cls-14" d="M64.7,71.65a39.86,39.86,0,0,1-13.94-4s-.1.06-.07.08a33.47,33.47,0,0,0,13.94,4S64.76,71.65,64.7,71.65Z"/><path class="cls-14" d="M77.83,57.18c-6.15,2.12-12.53,2.61-18.95,3.08,0,0-.07.06,0,.06,6.37-.25,12.93-.8,18.95-3C77.84,57.28,77.91,57.16,77.83,57.18Z"/><path class="cls-14" d="M71.83,56.33a52.12,52.12,0,0,1-19.74,2.16s-.05,0,0,0a38.5,38.5,0,0,0,9.83,0,49,49,0,0,0,9.87-2.07S71.9,56.31,71.83,56.33Z"/><path class="cls-5" d="M26.49,66.3a61.21,61.21,0,0,1-4.18-6,25.66,25.66,0,0,1-6.06-1.34s-1,2.29,1.69,5.87,6.67,8.87,7.34,9.69c.41.36-.31,1.47.25,1.53s.82.16.82.61a.87.87,0,0,0,.17.51c.84,0,2.7-.3,5.14-2.33A46.94,46.94,0,0,0,26.49,66.3Z"/><path class="cls-5" d="M26.49,66.3a61.21,61.21,0,0,1-4.18-6,25.66,25.66,0,0,1-6.06-1.34,3.48,3.48,0,0,0-.16,1.47,1.63,1.63,0,0,1,.5-.16,2.32,2.32,0,0,1,1.58.31A2,2,0,0,1,19,62.18a2.61,2.61,0,0,0,.58,1.88,4.5,4.5,0,0,0,1.47.73,5.5,5.5,0,0,1,1.55,1.11c.47.4.95.79,1.47,1.18A20.6,20.6,0,0,1,27,69.64a13.39,13.39,0,0,1,1.85,2.75,8.69,8.69,0,0,1,.6,1.61,1.5,1.5,0,0,1-.15,1.06,3,3,0,0,1-1.08.73,6.47,6.47,0,0,1-1.17.53l-.64.2c-.32.09,0,.07,0,.11a.94.94,0,0,0,.17.51c.84,0,2.7-.31,5.14-2.33A46.7,46.7,0,0,0,26.49,66.3Z"/><path class="cls-12" d="M37.81,87.77a1.6,1.6,0,0,0,.73-1.25,75.07,75.07,0,0,1-5.29-8.43c-.54-1.17-1.07-2.28-1.58-3.3-2.45,2-4.32,2.32-5.13,2.32.2.32.58.74,1.19,1.54a107.66,107.66,0,0,0,8.42,8.8S37.14,88.2,37.81,87.77Z"/><path class="cls-12" d="M31.51,80.78a1.92,1.92,0,0,1,.74-.44,1,1,0,0,1,.86.41,13.41,13.41,0,0,1,1.34,1.74,40.74,40.74,0,0,1,2.64,4.09c.22.41.43.82.62,1.25l.11-.06a1.6,1.6,0,0,0,.73-1.25,75.07,75.07,0,0,1-5.29-8.43c-.54-1.17-1.07-2.28-1.58-3.3-2.46,2-4.32,2.32-5.14,2.32.2.32.59.74,1.2,1.54.39.5,1.39,1.63,2.62,2.93A10.25,10.25,0,0,0,31.51,80.78Z"/><path class="cls-5" d="M22.72,41.18a26.92,26.92,0,0,0-8.07,3.67C11,47.44,7.38,54.3,7.38,54.3s1.07,1.19,2.12,1.09c2.21-3,4.28-5.31,4.56-5.69s-.28-.46.09-.5.42,0,.46-.41.08,0,.29.16,1.72-.58,2.68-1.05C18.79,45.53,19.54,43.23,22.72,41.18Z"/><path class="cls-5" d="M18.77,42.55a10.08,10.08,0,0,0-.83,1.32,18.2,18.2,0,0,0-1.27,2.63,13.16,13.16,0,0,0-.56,2.07l1.47-.69c1.21-2.35,2-4.65,5.13-6.7A29.16,29.16,0,0,0,18.77,42.55Z"/><path class="cls-7" d="M38.71,72.65c0-1.23-.94-2.67-2.54-4.94s-5.06-6.66-5.06-6.66c-1.92-2.72-6.51-1.26-10.33-.73.23,2.88,2.21,4.29,3.53,5.3s7.34,4.77,9.37,6.35c-.74,0-1,0-.85.73a5.53,5.53,0,0,1,4,2.53l.12-.09S38.73,73.88,38.71,72.65Z"/><path class="cls-7" d="M38.1,73.19c-.84.61-2,.15-2.75-.38-.2-.14-.79-.5-.7-.83s.4-.29.67-.28a10.8,10.8,0,0,0-1.62-1.23c-.67-.48-1.33-1-2-1.47-1.33-1-2.65-2.06-3.95-3.11-.62-.49-1.24-1-1.82-1.47a6.65,6.65,0,0,1-1.51-1.62c-.77-1.35.7-1.93,1.84-2a8.3,8.3,0,0,1,5.95,2.13l.8.67c-1.05-1.38-1.91-2.47-1.91-2.47-1.92-2.75-6.51-1.29-10.33-.76.23,2.88,2.21,4.29,3.53,5.3s7.34,4.77,9.37,6.35c-.74,0-1,0-.85.73a5.53,5.53,0,0,1,4,2.53l.12-.09s1.81-1.23,1.79-2.46v-.24A1.78,1.78,0,0,1,38.1,73.19Z"/><path class="cls-6" d="M21.19,60.76a8.86,8.86,0,0,0,3.12,4.86,7.1,7.1,0,0,1-4-5Z"/><g class="cls-8"><path class="cls-6" d="M21.19,60.76a8.86,8.86,0,0,0,3.12,4.86,7.1,7.1,0,0,1-4-5Z"/></g><path class="cls-10" d="M35.76,30.25c-.67-4.71-4-4.25-4-4.25s-1.14,2.64-.74,8.35c.3,4.53.74,6.43,1.22,7.48C36.91,42.18,36.39,34.84,35.76,30.25Z"/><path class="cls-7" d="M32.19,41.83c-.48-1-.92-2.94-1.22-7.48-.38-5.71.73-8.35.73-8.35a2.25,2.25,0,0,0-1.41-.52c-.44,1-1.32,3.75-.86,9.42.23,3.77.25,5.49,1.33,6.91h.94A3.7,3.7,0,0,1,32.19,41.83Z"/><path class="cls-6" d="M30.79,41.81c-1.09-1.42-1.1-3.14-1.34-6.91-.45-5.67.43-8.43.87-9.42H30a26.06,26.06,0,0,0-6.54.29c-.27,1.86-1.23,9.63,1,15.79A21.33,21.33,0,0,0,30.79,41.81Z"/><path class="cls-7" d="M23.5,25.75a8.63,8.63,0,0,0-2.47.86c-2.33,1.47-3.46,4.06-3.4,7.15a2.09,2.09,0,0,0-.23,1.67c.19,1.25.48,1.56.73,1.68.8,2.25,2.43,3.28,5,4.07.47.14.91.26,1.33.35C22.27,35.38,23.23,27.61,23.5,25.75Z"/><path class="cls-6" d="M29.6,34.92a5,5,0,0,0-4.55,0,2.92,2.92,0,0,0-1.52,2.81s.07,0,.07-.05a9.27,9.27,0,0,1,.21-1.3,2.85,2.85,0,0,1,2.27-1.7,5,5,0,0,1,3.39.35C29.53,35.12,29.66,35,29.6,34.92Z"/><path class="cls-6" d="M23.13,33.52a41,41,0,0,1-5.43.18h0A10,10,0,0,0,18.05,37c0,.05.11,0,.11-.1-.22-1-.27-2.07-.44-3.11a8.76,8.76,0,0,0,2.34.15,21.82,21.82,0,0,0,3-.24C23.13,33.69,23.26,33.51,23.13,33.52Z"/><path class="cls-6" d="M23.42,36.79a10.07,10.07,0,0,1-5.14.26s-.06,0,0,.05a4.34,4.34,0,0,0,2.31.27,9,9,0,0,0,2.83-.43C23.43,36.93,23.52,36.76,23.42,36.79Z"/><path d="M35.61,34.72s0-.12,0-.08a12,12,0,0,0-.94.8c.06-.94.15-1.88.26-2.81l.6-.57c.06,0,.06-.15,0-.08l-.55.48a3.58,3.58,0,0,1,.1-.63s-.07,0-.07,0c0,.23-.08.45-.11.68-.42.39-.82.79-1.2,1.22,0-.65.11-1.3.19-2,.38-.44.73-.87,1.17-1.29,0,0,0-.14,0-.07A13.42,13.42,0,0,0,34,31.61c.09-.74.21-1.47.35-2.14l.41-.48c.14-.16,0-.08,0,0l-.33.35c0-.23.1-.46.16-.68,0,0,0,0,0,0-.08.25-.14.49-.2.73-.41.42-.82.84-1.24,1.25.08-.63.15-1.25.24-1.87.4-.42.8-.81,1.23-1.19,0-.05,0-.15,0-.08-.41.34-.8.73-1.18,1.09.07-.51.16-1,.26-1.53,0-.05-.06,0-.07,0-.11.54-.21,1.08-.31,1.63-.73.73-1.42,1.56-2.16,2.31v0c.73-.69,1.42-1.47,2.12-2.2-.11.64-.21,1.28-.3,1.94a22.34,22.34,0,0,0-1.55,1.68s0,.08,0,0c.48-.52,1-1,1.47-1.51-.11.79-.22,1.59-.31,2.4-.33.44-.66.89-1,1.32h0l1-1.19-.24,2-.63.89c0,.07,0,0,.06,0a8.74,8.74,0,0,1,.56-.73c-.08.73-.17,1.46-.26,2.2l-.46-.78s-.11.05-.09.09c.21.4.45.78.69,1.16l-.29.39c0,.06,0,.07,0,0s.19-.23.28-.36c.24.38.49.74.73,1.11A11.53,11.53,0,0,0,32,40.71c0,.08,0,.07.08,0,.26-.37.55-.73.85-1.08l0,.06H33v.39c0,.06.09,0,.09-.06a5,5,0,0,1,.11-.66c.33-.35.68-.69,1-1-.11.82-.11,1.64-.2,2.37,0,.07.11,0,.11-.07.15-.84.24-1.7.33-2.55l.85-.81c.06-.05.06-.15,0-.08l-.81.73c.07-.78.12-1.56.18-2.35C35,35.3,35.31,35,35.61,34.72ZM33,30.83c.41-.41.82-.83,1.21-1.26-.18.74-.33,1.49-.44,2.24-.36.41-.69.84-1,1.28C32.8,32.34,32.88,31.58,33,30.83Zm-.3,2.43c.33-.41.66-.82,1-1.22-.1.67-.18,1.33-.26,2-.33.4-.66.8-1,1.22A17.18,17.18,0,0,0,32.67,33.26ZM33,39.41l-.09.09c-.25-.37-.5-.73-.73-1.12.32-.4.64-.81,1-1.2,0,.74-.08,1.49-.13,2.23Zm-.88-1.1L31.94,38a.14.14,0,0,0,.07-.08c.16-.82.3-1.65.41-2.48.32-.41.64-.8,1-1.19-.09.92-.16,1.83-.22,2.75-.35.42-.69.87-1,1.31Zm2.08-.11a12.18,12.18,0,0,0-1,1q.15-1.16.24-2.34a14.15,14.15,0,0,1,1-1c0,.79-.12,1.58-.19,2.37Zm.25-2.57a14.47,14.47,0,0,0-1,1c.08-.91.14-1.81.21-2.71.37-.43.77-.84,1.18-1.24-.12,1-.24,1.93-.34,2.9Z"/><path class="cls-6" d="M27.13,44.58c.12-1.67.74-2.43,1.33-2.77A30.9,30.9,0,0,1,22.72,41c-7.49,3.77-6.29,15.13-6.19,15.73-.3,1-.83,2.3-.83,2.3a19.32,19.32,0,0,0,5.74,1.77c2.25.09,4.58-1.06,6.94-.88s3.93,2.94,3.79,2.45a18.15,18.15,0,0,0-.81-1.73c-.55-1.06-.38-.89-.26-1.36s-.08-.46-.67-.93-.55-.34,0-2.2A23.86,23.86,0,0,0,31.75,48l-.15-.1C28.6,50.25,26.91,47.9,27.13,44.58Z"/><path class="cls-6" d="M22.77,42.45a13.32,13.32,0,0,0,3.08.45,13.81,13.81,0,0,0,1.7-.07,2.25,2.25,0,0,1,.91-1A30.9,30.9,0,0,1,22.72,41a8.91,8.91,0,0,0-1.47.9A6.31,6.31,0,0,0,22.77,42.45Z"/><path class="cls-7" d="M46.48,43.47a66.5,66.5,0,0,1-6.31,2.61c-.39-.32-1.11.24-1.11.24s-.12-.86-.35-.94-.57.34-1,.16c-2.56-1.34-2.7-1.14-4.54-2.12a13,13,0,0,0-3.78-1.57l-.92,0c-.59.34-1.21,1.1-1.33,2.77-.22,3.32,1.47,5.7,4.46,3.27l.15.09v-.09s4.19,2.5,6.73,2.84S46.13,48,48.28,45.9C47.53,43.65,46.48,43.47,46.48,43.47Z"/><path class="cls-7" d="M30.25,47.12c-.81-.73-1.89-1.73-1.73-2.94a2.36,2.36,0,0,1,2.32-1.9,8.55,8.55,0,0,0-1.47-.44l-.92-.05a3.19,3.19,0,0,0-1.33,2.78c-.22,3.24,1.39,5.57,4.25,3.43C31,47.73,30.62,47.44,30.25,47.12Z"/><path class="cls-15" d="M30.19,56.89l.22-.73a25.16,25.16,0,0,1-13.95-.24,4.5,4.5,0,0,0,.07.8v.06A20.34,20.34,0,0,0,30.19,56.89Z"/><path class="cls-5" d="M26,82.9c.12.59.31.64,1,.19l9.78-7.88a5.47,5.47,0,0,0-4-2.53c-.73.09-1.24.43-2,1.59-1.66,2.2-5.28,7.1-5.28,7.1C26.13,81.81,25.85,82.32,26,82.9Z"/><path class="cls-5" d="M32.83,72.67h-.09a1.48,1.48,0,0,1,1.12,1.75,1.63,1.63,0,0,1-.11.31,11.49,11.49,0,0,1-1.52,2.2c-.5.68-1,1.35-1.59,2A14.69,14.69,0,0,1,26,82.76v.11c.12.59.31.64,1,.19l9.8-7.85A5.51,5.51,0,0,0,32.83,72.67Z"/><path class="cls-16" d="M23,83a1.18,1.18,0,0,0-1.2-.12c-.51,1.24.8,4.41,2.67,7.29,2,3,3,3.49,3.67,3.18l.1,0c-.13-.32-.35-.82-.66-1.59C26.71,89.55,24.23,83.7,23,83Z"/><g class="cls-8"><path class="cls-16" d="M27.62,91.72c-.91-2.2-3.39-8-4.61-8.72a1.18,1.18,0,0,0-1.2-.12,1.58,1.58,0,0,0-.1.48,1,1,0,0,1,.64,0,3.1,3.1,0,0,1,1.59,1.8c.5,1,1,2.15,1.42,3.23A10.84,10.84,0,0,1,26,90a2.37,2.37,0,0,1,.1,1.06.56.56,0,0,1-.67.44h0c1.4,1.86,2.2,2.13,2.79,1.87l.1,0C28.14,93,27.93,92.49,27.62,91.72Z"/></g><path class="cls-17" d="M22.54,82.29a2.59,2.59,0,0,0-.63.4l-.1.19A1.18,1.18,0,0,1,23,83c1.22.73,3.67,6.55,4.61,8.72.31.73.52,1.27.66,1.59l.21-.14c-.54-2.26-3.4-9-4.4-10.2A1.89,1.89,0,0,0,22.54,82.29Z"/><path class="cls-6" d="M28.43,89.55c-1.27-4.15-.93-5-.81-5.67s-.6-.79-.6-.79c-.73.45-.92.4-1-.19s.15-1.12-.46-1.54c0,0-.47-.28-.73,0s-1.42.57-2.2,1a1.89,1.89,0,0,1,1.52.68c1,1.17,3.9,7.94,4.4,10.2C29,92.77,29.16,91.89,28.43,89.55Z"/><g class="cls-8"><path class="cls-6" d="M28.43,89.55c-1.27-4.15-.93-5-.81-5.67s-.6-.79-.6-.79c-.73.45-.92.4-1-.19s.15-1.12-.46-1.54a.87.87,0,0,0-.69-.09c.48.41.65,1.47.88,2a1,1,0,0,0,.2.36c.19.19.41.16.64.22s.31.53.32.83c0,.73.44,1.54.13,2.24,0,0-.07.1-.1.07-1.1-.64-1.4-2.12-2-3.16A3.93,3.93,0,0,0,23.13,82l-.56.27a1.91,1.91,0,0,1,1.52.68c1,1.17,3.89,7.94,4.4,10.2C29,92.77,29.16,91.89,28.43,89.55Z"/></g><path class="cls-6" d="M47.22,87.62l-.13-.22c-.41-.73-.62-.6-2-.6s-6.61-.28-6.61-.28a1.6,1.6,0,0,1-.73,1.25c-.7.43-1.7-.3-1.7-.3-.62.45-.31,1.42.19,2.93.08.23.15.43.22.58A18.53,18.53,0,0,0,47.22,87.62Z"/><g class="cls-8"><path class="cls-6" d="M47.09,87.4c-.31-.53-.5-.61-1.13-.61a2.35,2.35,0,0,1-.74,1,12.2,12.2,0,0,1-3.67,1.72c-.84.33-5.08,1.87-4.58-.37.2-.87,1.41-.4,1.67-1.22a6.3,6.3,0,0,1,.4-1.41h-.49a1.6,1.6,0,0,1-.73,1.25c-.7.42-1.71-.3-1.71-.3-.61.45-.3,1.42.2,2.93.08.23.15.43.22.58A18.13,18.13,0,0,0,47.2,87.68Z"/></g><path class="cls-17" d="M36.55,91c.35.86.69.74,3.05.39a17.06,17.06,0,0,0,6.61-2.2c1.22-.86,1.32-1,1-1.47A18.53,18.53,0,0,1,36.55,91Z"/><path class="cls-2" d="M7.87,54.39A4.87,4.87,0,0,0,5.3,56.25C4,57.88,3.05,59.12,3.39,59.46s1.12-1,2-1.78c0,0-1.53,3.27-.94,3.61s.94-2.2,2-3.38c-1.14,2.54-1.39,3.31-1,3.41s1.23-2.2,1.93-3.27c-.67,2.21-.87,2.87-.5,3.07s1.21-2.79,2.07-4c.36-.43.52.31,1.1.66s1.11.15,1.23-.17-1-.52-1.26-1.27a2.19,2.19,0,0,0-.64-1Z"/><g class="cls-8"><path class="cls-3" d="M9.19,55.66c.2.07.39.14.61.2a1.81,1.81,0,0,0-.44-.55l-1.49-.92a1.88,1.88,0,0,0-.42.14A3.69,3.69,0,0,0,9.19,55.66Z"/></g><path class="cls-4" d="M7.1,56.86a2.34,2.34,0,0,0-1.93.9h0a2,2,0,0,1,.89-.66,6.41,6.41,0,0,1,1-.16S7.16,56.86,7.1,56.86Z"/><path class="cls-4" d="M9.33,57c-.29-.4-.74-.18-1.17-.13h0a4.69,4.69,0,0,0,.53,0,.59.59,0,0,1,.57.23S9.34,57,9.33,57Z"/><path class="cls-4" d="M8.87,57.24a3.54,3.54,0,0,1-3,.11s-.08,0-.06.07a3.11,3.11,0,0,0,3.08-.08S9,57.2,8.87,57.24Z"/><path class="cls-6" d="M29.91,51.07h0a2.34,2.34,0,0,0,.12-.74h0a9.38,9.38,0,0,0-1.91-.09H28s-.06,0,0,0H28c-.1.24-.2.49-.29.73v.06c.68.12,1.39.07,2.07.16C29.86,51.25,30,51.08,29.91,51.07Z"/><path class="cls-6" d="M27.92,50.73a2.68,2.68,0,0,0,.14-.43,4.86,4.86,0,0,0,1.14.07c.19,0,.74-.07.67.27a3,3,0,0,1-.09.41A8,8,0,0,0,28.56,51C28.4,51,27.81,51.05,27.92,50.73Z"/><path class="cls-6" d="M29.09,55.44h0a2.24,2.24,0,0,0,.13-.73h0a13.86,13.86,0,0,0-2.32-.1h0s0,0,0,0h-.06s-.05,0,0,0h0c-.11.24-.2.49-.29.73v.07c.68.11,1.8.06,2.48.16C29.05,55.63,29.16,55.45,29.09,55.44Z"/><path class="cls-6" d="M26.69,55.1c0-.15.1-.29.14-.44a7.42,7.42,0,0,0,1.56.08c.19,0,.73-.06.66.28a1.79,1.79,0,0,1-.09.4,9.83,9.83,0,0,0-1.21-.08C27.58,55.33,26.57,55.39,26.69,55.1Z"/><path class="cls-14" d="M15.38,67.43c-1.47-2.94-2.79-6-1.8-9.32,0-.06-.08,0-.09,0-1.11,3.19.1,6.6,1.76,9.39C15.29,67.6,15.4,67.48,15.38,67.43Z"/><path class="cls-14" d="M14.91,68.6c-1.78-3-3.32-6.16-2.36-9.69,0,0-.05,0-.06,0-1.1,3.45.39,6.91,2.31,9.76C14.82,68.77,14.93,68.66,14.91,68.6Z"/><path class="cls-14" d="M41.15,69.91a0,0,0,0,0,0,.06c2,2.2,1.68,5.09,1.54,7.79,0,.07.11,0,.12-.07C43.14,75.21,43.17,71.79,41.15,69.91Z"/><path class="cls-14" d="M43.86,70.42s-.1,0-.08.07c1.47,2.74.74,5.38.23,8.25,0,.11.12,0,.13-.06C44.84,75.94,45.36,73,43.86,70.42Z"/><path class="cls-6" d="M47,43.74a3.65,3.65,0,0,1,3.55-2.29c1.1,0,2.63,1.1,2.54,2.37-.11.73-.56.53-.56.53s.24,1.47-.48,1.24c.21.88-.08,1.15-.36,1.16.08.83-1.15,2.17-2.44-.45a1.71,1.71,0,0,1-1-.45A5.16,5.16,0,0,0,47,43.74Z"/><g class="cls-8"><path class="cls-6" d="M47.51,42.83a3.22,3.22,0,0,0-.54.91,5.16,5.16,0,0,1,1.28,2.11,1.92,1.92,0,0,0,.74.44A4.2,4.2,0,0,0,47.51,42.83Z"/></g><path class="cls-6" d="M52.44,44.32A2.11,2.11,0,0,0,51.29,43a1.59,1.59,0,0,0-.14-.57s-.09,0-.07.07a1.93,1.93,0,0,1,.11.53h0a1.31,1.31,0,0,1-.11.52c0,.06,0,0,.06,0a.77.77,0,0,0,.15-.43,3.19,3.19,0,0,1,1,1.32C52.36,44.49,52.49,44.38,52.44,44.32Z"/><path class="cls-6" d="M51,44.3s-.08.05-.05.07A3.22,3.22,0,0,1,52,45.91c0,.06.12,0,.11-.1A2.41,2.41,0,0,0,51,44.3Z"/><path class="cls-6" d="M50.65,45.28s-.11.06-.09.1a4.09,4.09,0,0,1,1,1.64c0,.06.14-.05.13-.11C51.62,46.19,51.09,45.79,50.65,45.28Z"/><path class="cls-6" d="M51,47.27c-.16-.19-.37-.33-.53-.53a1.85,1.85,0,0,1-.34-.74.67.67,0,0,0,.14-.15c0-.1-.07,0-.1,0a1,1,0,0,1-1,.39s-.1.07-.06.09a1,1,0,0,0,1-.23c.07.48.34,1.16.85,1.3A.08.08,0,0,0,51,47.27Z"/><path class="cls-6" d="M50.83,44.1a1.75,1.75,0,0,1-.18.63c0,.08.06,0,.08,0a1.53,1.53,0,0,0,.2-.69C50.94,44,50.83,44.05,50.83,44.1Z"/><path class="cls-6" d="M30.35,48.67a28,28,0,0,0-.79,4.06,35,35,0,0,0-.73,3.67c0,.07.1,0,.11-.06.25-1.23.57-2.45.78-3.66s.38-2.7.69-4C30.41,48.6,30.35,48.65,30.35,48.67Z"/><path class="cls-7" d="M32.17,48a21.14,21.14,0,0,1-3.07-1.66s-.08.05-.06.07a10.14,10.14,0,0,0,3,1.73S32.22,48,32.17,48Z"/><path class="cls-6" d="M28.79,35.42a.23.23,0,0,1-.23.24.22.22,0,0,1-.24-.22.25.25,0,0,1,.23-.25h0a.23.23,0,0,1,.23.23Z"/><path class="cls-6" d="M25.43,36a.22.22,0,0,1-.23.22.23.23,0,1,1,0-.45.23.23,0,0,1,.23.23Z"/><path class="cls-17" d="M29.46,88.49a4.42,4.42,0,0,1-1.19-1.17,3.52,3.52,0,0,1-.38-.78.42.42,0,0,0,.57.18l.05,0c.56-.33-.33-.89-.73-1.09h0a1.36,1.36,0,0,0,.44-.11,1.15,1.15,0,0,0,.34-.32c.13-.19.3-.53.09-.73s-.65,0-.81.17a1.47,1.47,0,0,0-.32.92c-.05.06-.09.17,0,.13h0a1.32,1.32,0,0,0,.08.3,3.18,3.18,0,0,0,1.77,2.7S29.51,88.52,29.46,88.49ZM28.08,86c.12.09.69.54.29.62s-.46-.37-.53-.56a1.47,1.47,0,0,1-.08-.28Zm-.38-1.17a.55.55,0,0,1,.7-.29l.07,0c.19.14,0,.46-.09.59a1.51,1.51,0,0,1-.73.27v-.09h-.08A2.33,2.33,0,0,1,27.7,84.81Z"/><path class="cls-17" d="M42.57,87.55a2.9,2.9,0,0,1-2.31-.8c.74-.18,1.78-.83,1.12-1.47-.33-.31-.74.16-1.05.63a1.43,1.43,0,0,0,.07-.68c-.06-.34-.34-.81-.73-.48a1.48,1.48,0,0,0,.15,1.82v0s-.17.15-.09.17a.43.43,0,0,0,.16,0,5,5,0,0,0,.36.73A1,1,0,0,0,41,88c.06,0,.18-.13.1-.15a1.45,1.45,0,0,1-.73-.63c-.1-.15-.17-.33-.27-.49h0a2.37,2.37,0,0,0,2.41.88S42.62,87.55,42.57,87.55Zm-2.94-2.2c0-.16.06-.62.38-.46.15.08.2.28.24.42A1.67,1.67,0,0,1,40,86.5a2.21,2.21,0,0,1-.41-1.18ZM40,86.58h0a1.09,1.09,0,0,0,.08-.15c.08-.11.14-.22.22-.33s.39-.65.73-.73a.42.42,0,0,1,.34.27c.12.24-.11.45-.28.57a1.85,1.85,0,0,1-.44.23,2.61,2.61,0,0,1-.63.13Z"/><path class="cls-17" d="M23.46,83.45a6.17,6.17,0,0,0-1.66.11s-.05.06,0,.06c.55,0,1.09-.12,1.64-.1C23.44,83.52,23.49,83.45,23.46,83.45Z"/><path class="cls-17" d="M24.17,84.36a5,5,0,0,0-2.37.06s-.05,0,0,0a11.54,11.54,0,0,1,2.35,0S24.2,84.37,24.17,84.36Z"/><path class="cls-17" d="M25.07,85.67a8.3,8.3,0,0,0-2.94-.08h0a6.74,6.74,0,0,0,1.27,0,6.22,6.22,0,0,1,1.61.13S25.1,85.68,25.07,85.67Z"/><path class="cls-17" d="M25.24,86.46a5.91,5.91,0,0,0-2.64.22s0,0,0,0a8.25,8.25,0,0,1,2.62-.19S25.26,86.47,25.24,86.46Z"/><path class="cls-17" d="M25.73,87.35c-.94,0-1.87.05-2.8.14v0c.92,0,1.85-.08,2.78-.11C25.72,87.42,25.76,87.35,25.73,87.35Z"/><path class="cls-17" d="M26.16,88.56a5.21,5.21,0,0,0-2.74-.15h0a5.75,5.75,0,0,1,2.7.2S26.19,88.57,26.16,88.56Z"/><path class="cls-17" d="M26.65,89.65a4.07,4.07,0,0,0-2.51-.13h0a4.62,4.62,0,0,1,2.47.17S26.68,89.66,26.65,89.65Z"/><path class="cls-17" d="M27.2,90.8a7.18,7.18,0,0,0-2.31-.13s-.07.06,0,.06a10.26,10.26,0,0,1,2.28.16S27.23,90.81,27.2,90.8Z"/><path class="cls-17" d="M27.86,92a7.54,7.54,0,0,0-2.12-.12h0a14.48,14.48,0,0,1,2.08.18S27.9,92,27.86,92Z"/><path class="cls-17" d="M28.14,92.82a4.29,4.29,0,0,1-1.29.19h0a2.57,2.57,0,0,0,1.29-.15S28.18,92.82,28.14,92.82Z"/><path class="cls-10" d="M49.22,46.33l-1.47,1.8.56.51,1.85-2.17L50.1,46A1.14,1.14,0,0,1,49.22,46.33Z"/><g class="cls-8"><path class="cls-10" d="M32.79,38.2c-.73-2.71-.25-10.27,1.06-10.32,1-.07,1.74,2,2,2.93a5,5,0,0,0-.07-.54c-.67-4.72-4-4.26-4-4.26s-1.14,2.65-.74,8.35c.3,4.53.74,6.43,1.22,7.48,2.55.19,3.57-1.86,3.87-4.5C35.35,40.38,33.51,40.75,32.79,38.2Z"/></g><path class="cls-9" d="M31,34.35c-.38-5.71.73-8.35.73-8.35a1.56,1.56,0,0,0-.2-.16,21,21,0,0,0-.93,8.32c.14,3.67-2.1-2.53-.09-8.65a.6.6,0,0,0-.19,0c-.44,1-1.32,3.75-.86,9.41.23,3.77.25,5.49,1.33,6.92h.94c.17,0,.32,0,.47,0C31.71,40.78,31.27,38.88,31,34.35Z"/><path class="cls-9" d="M24.51,41.53c-2.24-6.15-1.28-13.94-1-15.78l-.33.07a28.47,28.47,0,0,0-.37,4c-.08,2.76-.4,3.67-5.14,3.28,0,.21,0,.43,0,.64a1.19,1.19,0,0,0-.21.44,20.13,20.13,0,0,0,4.25,0c1-.17.89.55,1.09,1.61s-2.2,1.4-5.07.73a.88.88,0,0,0,.48.55,4.91,4.91,0,0,0,.33.74,9,9,0,0,0,3.72-.15c.93-.29.85,1,1.06,1.87.16.68-.41,1.24-2,.85a14.64,14.64,0,0,0,1.9.74A6.83,6.83,0,0,0,24.51,41.53Z"/><g class="cls-8"><path class="cls-6" d="M29.45,34.9c-.45-5.67.43-8.43.87-9.42H29.8a16.82,16.82,0,0,0-.94,4.8c-.12,2.88-.23,3.67-1.7,3.56s-2.2,0-2.93.84-1.1-5.45-.1-9l-.63.12c-.27,1.86-1.23,9.63,1,15.78a21,21,0,0,0,6.28.28C29.74,40.39,29.69,38.67,29.45,34.9Z"/></g><g class="cls-8"><path class="cls-6" d="M22.33,59.21a2,2,0,0,1,1.39-.53c1.78-.19,3.58-.32,5.36-.4h0c.06.34-.15.53-.38.74a1.69,1.69,0,0,1,1,.14,3.37,3.37,0,0,1,.85,1.37l.19.45c.95.78,1.47,1.66,1.4,1.38a18.32,18.32,0,0,0-.81-1.74c-.55-1-.38-.88-.26-1.35s-.08-.47-.67-.94-.55-.33,0-2.2A23.82,23.82,0,0,0,31.74,48l-.15-.09c-3,2.42-4.68,0-4.46-3.27.12-1.67.74-2.43,1.33-2.77A30.9,30.9,0,0,1,22.72,41c-4.31,2.17-5.74,6.85-6.16,10.55h0s2.57-8.66,5.84-8.46,4.05,2.55,3.82,6.53-.38,7.21-4.7,6.61-5.1-1.17-5.05-2.94h0a21.56,21.56,0,0,0,.11,3.41c-.06.2-.13.41-.21.62a7.83,7.83,0,0,0,.79.34c.42.16.87.24,1.28.41a1.59,1.59,0,0,1,1,1.16,4,4,0,0,1,.07,1.2,8.74,8.74,0,0,0,2,.34H22A2.48,2.48,0,0,1,22.33,59.21Z"/></g><rect class="cls-18" x="19.93" y="56.73" width="1.18" height="1.1" transform="translate(-38.69 71.28) rotate(-83.59)"/><rect class="cls-6" x="20.09" y="56.88" width="0.87" height="0.81" transform="translate(-38.69 71.28) rotate(-83.59)"/><path class="cls-15" d="M20.84,57.86a52.23,52.23,0,0,0-.05,5.87l-.92,0a36,36,0,0,1,.1-6Z"/><path class="cls-10" d="M53.6,41.19l.5.57s16.15-15.86,29.36-24c0,0-5.87,2.71-20.43,15C60.74,34.56,53.6,41.19,53.6,41.19Z"/><path class="cls-10" d="M50.57,40.33l4.17,4.74a4.92,4.92,0,0,0-.94-3.67A3.07,3.07,0,0,0,50.57,40.33Z"/><path class="cls-13" d="M54,42.5a3.1,3.1,0,0,0-2.16-2.1s0,0,0,.05A3.85,3.85,0,0,1,54,42.57S54,42.53,54,42.5Z"/><path class="cls-13" d="M52.78,40.71s-.07,0-.05.07a5.07,5.07,0,0,1,1.47,2.3s.07,0,.07,0A3.73,3.73,0,0,0,52.78,40.71Z"/><path class="cls-13" d="M54.34,43.4s-.09,0-.08.07.08.21.11.31.09,0,.08-.07A1.15,1.15,0,0,0,54.34,43.4Z"/></g><path class="cls-19" d="M36.94,120.73h5.18v2.17H36.94v4.21H34.56V116.25h8.25v2.17H36.94Z"/><path class="cls-19" d="M44.72,116.25H52.9v2.13H47.1v2.19h5.11v2.13H47.1V125H53v2.16H44.73Z"/><path class="cls-19" d="M57.46,120.21v6.9H55.11V116.25h2.21l5.09,6.68v-6.68h2.34v10.86h-2Z"/><path class="cls-19" d="M75,126.8a6,6,0,0,1-2.52.49,5.53,5.53,0,0,1-2.83-.75,5.41,5.41,0,0,1-2-2,5.53,5.53,0,0,1-.75-2.81h0a5.59,5.59,0,0,1,.75-2.82,5.32,5.32,0,0,1,2-2,5.65,5.65,0,0,1,2.92-.75,6.21,6.21,0,0,1,2.45.43,5.69,5.69,0,0,1,1.84,1.22l-1.5,1.75a5.06,5.06,0,0,0-1.33-.91,3.4,3.4,0,0,0-1.44-.32,3.05,3.05,0,0,0-1.62.46A3.08,3.08,0,0,0,69.81,120a3.71,3.71,0,0,0-.41,1.7h0a3.77,3.77,0,0,0,.37,1.71,3.23,3.23,0,0,0,1.11,1.24,2.94,2.94,0,0,0,1.63.46,3.38,3.38,0,0,0,1.5-.32,5.53,5.53,0,0,0,1.35-1l1.5,1.5A6.42,6.42,0,0,1,75,126.8Z"/><path class="cls-19" d="M78.9,116.25h2.42v10.86H78.94Z"/><path class="cls-19" d="M86.35,120.21v6.9H84V116.25H86.2l5.08,6.68v-6.68h2.36v10.86h-2Z"/><path class="cls-19" d="M101.46,127.29a6,6,0,0,1-2.95-.75,5.14,5.14,0,0,1-2-2,5.64,5.64,0,0,1-.75-2.86h0a5.67,5.67,0,0,1,.75-2.82,5.33,5.33,0,0,1,2-2,5.62,5.62,0,0,1,2.91-.75,6.71,6.71,0,0,1,2.39.36,6.25,6.25,0,0,1,1.87,1.12l-1.5,1.82a4.93,4.93,0,0,0-1.32-.84,3.87,3.87,0,0,0-1.5-.27,2.91,2.91,0,0,0-1.57.46A3.45,3.45,0,0,0,98.67,120a3.56,3.56,0,0,0-.42,1.69h0a3.78,3.78,0,0,0,.42,1.77,3,3,0,0,0,1.17,1.23,3.4,3.4,0,0,0,1.7.44,3.75,3.75,0,0,0,2.25-.65v-1.56h-2.4v-2.06h4.68v4.79A7,7,0,0,1,101.46,127.29Z"/></svg>