<?xml version="1.0" encoding="utf-8"?>
<!-- Generator: Adobe Illustrator 24.0.0, SVG Export Plug-In . SVG Version: 6.00 Build 0)  -->
<svg version="1.1" id="Layer_14" xmlns="http://www.w3.org/2000/svg" xmlns:xlink="http://www.w3.org/1999/xlink" x="0px" y="0px"
	 viewBox="0 0 128 128" style="enable-background:new 0 0 128 128;" xml:space="preserve">
<style type="text/css">
	.st0{fill:#DD222B;}
	.st1{fill:#11485D;}
	.st2{fill:#9E9C9C;}
	.st3{fill:#EFF1EF;}
	.st4{fill:#522E72;}
	.st5{fill:#D77141;}
	.st6{fill:#FFA06F;}
	.st7{fill:#FF8862;}
	.st8{fill:#D15571;}
	.st9{fill:#FF5571;}
	.st10{fill:#3EB187;}
	.st11{fill:#D9D9D9;}
	.st12{fill:#FFAA00;}
	.st13{fill:#FF0000;}
	.st14{fill:#0077B3;}
	.st15{fill:#B8C5CC;}
	.st16{fill:#800000;}
</style>
<path class="st0" d="M18.3,21.26v-2.05c-0.02-0.08-0.02-0.15,0-0.23c0.22-2.58,1.31-5.01,3.1-6.88c1.77-1.81,3.88-3.25,6.22-4.23
	c2.15-0.94,4.39-1.67,6.68-2.19c1.33-0.32,2.66-0.68,4-0.89c2.22-0.3,4.46-0.45,6.7-0.46c0.18,0.03,0.35,0.03,0.53,0h6.32
	c1,0,2,0.06,2.93,0.1c1.62,0.06,3.24,0.17,4.85,0.31c2,0.18,4,0.39,6,0.73c3.26,0.43,6.47,1.2,9.56,2.32
	c1.19,0.47,2.45,0.73,3.65,1.13c5.37,1.52,10.62,3.43,15.72,5.7c2.99,1.34,5.86,2.94,8.57,4.79c0.09,0.05,0.17,0.12,0.24,0.2
	c0.29,0.36,0.65,0.66,1.07,0.86c0.88,0.55,1.77,1.07,2.64,1.61c1.84,1.1,3.51,2.47,4.94,4.07c1.39,1.58,2.33,3.5,2.74,5.56
	c0.09,0.45,0.15,0.91,0.21,1.37v2c0,0.3-0.07,0.6-0.12,0.89c-0.33,2.19-1,4.31-2,6.28c-1.53,3.08-3.41,5.98-5.6,8.64
	c-0.49,0.61-1,1.19-1.46,1.82S105,54,104.56,54.52c-3.3,4.19-6.83,8.19-10.56,12c-1.55,1.65-3.15,3.26-4.8,4.81
	c-1.65,1.55-3.38,3.13-5.2,4.73c-2.89,2.53-5.92,4.9-9.06,7.12c-3.12,2.21-6.42,4.16-9.87,5.82c-0.23,0.11-0.45,0.23-0.66,0.36
	c-0.84,0.56-1.69,1.1-2.56,1.59c-2.64,1.52-5.54,2.54-8.55,3c-0.48,0.07-1,0.12-1.46,0.17h-2.19h-0.22
	c-2.11-0.15-4.16-0.71-6.06-1.64c-2.81-1.42-5.28-3.41-7.27-5.85c-1.95-2.38-3.63-4.97-5-7.73c-1.78-3.51-3.28-7.16-4.5-10.9
	c-0.37-1.12-0.66-2.25-1.14-3.34c-1.8-4.22-3.24-8.59-4.3-13.06c-1.08-4.4-1.84-8.86-2.26-13.37c-0.22-2.31-0.33-4.63-0.36-6.94
	c0-1.94,0-3.88,0.18-5.81c0.06-0.58,0.04-1.17-0.06-1.74c-0.01-0.21-0.04-0.41-0.09-0.61L18.3,21.26z"/>
<g id="Layer_2_2_">
	<g id="Layer_1-2_1_">
		<path class="st1" d="M-168.46,21.26v-2.05c-0.02-0.08-0.02-0.15,0-0.23c0.22-2.58,1.31-5.01,3.1-6.88
			c1.77-1.81,3.88-3.25,6.22-4.23c2.15-0.94,4.39-1.67,6.68-2.19c1.33-0.32,2.66-0.68,4-0.89c2.22-0.3,4.46-0.45,6.7-0.46
			c0.18,0.03,0.35,0.03,0.53,0h6.32c1,0,2,0.06,2.93,0.1c1.62,0.06,3.24,0.17,4.85,0.31c2,0.18,4,0.39,6,0.73
			c3.26,0.43,6.47,1.2,9.56,2.32c1.19,0.47,2.45,0.73,3.65,1.13c5.37,1.52,10.62,3.43,15.72,5.7c2.99,1.34,5.86,2.94,8.57,4.79
			c0.09,0.05,0.17,0.12,0.24,0.2c0.29,0.36,0.65,0.66,1.07,0.86c0.88,0.55,1.77,1.07,2.64,1.61c1.84,1.1,3.51,2.47,4.94,4.07
			c1.39,1.58,2.33,3.5,2.74,5.56c0.09,0.45,0.15,0.91,0.21,1.37v2c0,0.3-0.07,0.6-0.12,0.89c-0.33,2.19-1,4.31-2,6.28
			c-1.53,3.08-3.41,5.98-5.6,8.64c-0.49,0.61-1,1.19-1.46,1.82s-0.79,1.29-1.23,1.81c-3.3,4.19-6.83,8.19-10.56,12
			c-1.55,1.65-3.15,3.26-4.8,4.81c-1.65,1.55-3.38,3.13-5.2,4.73c-2.89,2.53-5.92,4.9-9.06,7.12c-3.12,2.21-6.42,4.16-9.87,5.82
			c-0.23,0.11-0.45,0.23-0.66,0.36c-0.84,0.56-1.69,1.1-2.56,1.59c-2.64,1.52-5.54,2.54-8.55,3c-0.48,0.07-1,0.12-1.46,0.17h-2.19
			h-0.22c-2.11-0.15-4.16-0.71-6.06-1.64c-2.81-1.42-5.28-3.41-7.27-5.85c-1.95-2.38-3.63-4.97-5-7.73
			c-1.78-3.51-3.28-7.16-4.5-10.9c-0.37-1.12-0.66-2.25-1.14-3.34c-1.8-4.22-3.24-8.59-4.3-13.06c-1.08-4.4-1.84-8.86-2.26-13.37
			c-0.22-2.31-0.33-4.63-0.36-6.94c0-1.94,0-3.88,0.18-5.81c0.06-0.58,0.04-1.17-0.06-1.74c-0.01-0.21-0.04-0.41-0.09-0.61
			L-168.46,21.26z"/>
		<path class="st2" d="M-170.76,127.82c-1.01,0-2-0.25-2.89-0.73c-0.81-0.45-1.48-1.11-1.94-1.92c-0.49-0.85-0.74-1.82-0.73-2.8l0,0
			c-0.01-1.95,1.03-3.76,2.72-4.74c0.87-0.49,1.85-0.74,2.84-0.73c0.79-0.02,1.58,0.1,2.33,0.35c0.66,0.27,1.28,0.64,1.83,1.1
			l-1.47,1.77c-0.38-0.34-0.81-0.61-1.28-0.82c-0.47-0.18-0.97-0.26-1.47-0.25c-0.54,0-1.07,0.15-1.52,0.44
			c-0.47,0.3-0.85,0.72-1.11,1.21c-0.27,0.51-0.41,1.07-0.4,1.65l0,0c-0.03,0.6,0.1,1.2,0.36,1.74c0.27,0.5,0.66,0.92,1.15,1.21
			c0.5,0.29,1.08,0.44,1.66,0.43c0.78,0.03,1.55-0.19,2.19-0.63v-1.52h-2.38v-2h4.6v4.59
			C-167.52,127.25-169.12,127.83-170.76,127.82z"/>
		<path class="st2" d="M-159.19,127.63h-2.32v-4.17l-4.07-6.4h2.72l2.53,4.24l2.57-4.24h2.62l-4.07,6.35L-159.19,127.63z"/>
		<path class="st2" d="M-145.4,120.73l-3,4.52h-0.05l-2.93-4.48v6.86h-2.3v-10.57h2.51l2.78,4.47l2.78-4.47h2.51v10.57h-2.3V120.73z
			"/>
		<path class="st2" d="M-138.25,120.91v6.72h-2.26v-10.57h2.15l5,6.51v-6.51h2.26v10.57h-2L-138.25,120.91z"/>
		<path class="st2" d="M-121.7,125.26h-4.48l-1,2.37h-2.4l4.57-10.63h2.15l4.53,10.65h-2.43L-121.7,125.26z M-125.36,123.21h2.81
			l-1.4-3.43L-125.36,123.21z"/>
		<path class="st2" d="M-110.24,126.92c-0.8,0.61-1.8,0.92-2.81,0.87c-0.82,0-1.62-0.15-2.39-0.43c-0.77-0.29-1.49-0.72-2.1-1.27
			l1.37-1.65c0.46,0.4,0.98,0.74,1.53,1c0.51,0.22,1.07,0.34,1.63,0.33c0.39,0.02,0.78-0.07,1.12-0.26
			c0.26-0.15,0.41-0.43,0.41-0.73l0,0c0.01-0.19-0.05-0.38-0.17-0.53c-0.17-0.18-0.39-0.32-0.63-0.4c-0.44-0.17-0.88-0.31-1.34-0.42
			c-0.66-0.16-1.31-0.38-1.93-0.66c-0.47-0.21-0.87-0.56-1.15-1c-0.3-0.48-0.45-1.05-0.42-1.62l0,0c-0.01-0.59,0.15-1.17,0.48-1.67
			c0.32-0.49,0.78-0.88,1.31-1.12c0.6-0.28,1.25-0.41,1.91-0.4c1.42-0.05,2.81,0.4,3.93,1.27l-1.21,1.77
			c-0.79-0.61-1.75-0.95-2.75-1c-0.35-0.02-0.7,0.07-1,0.26c-0.22,0.15-0.36,0.39-0.36,0.66l0,0c-0.01,0.21,0.06,0.42,0.19,0.58
			c0.19,0.18,0.41,0.31,0.66,0.39c0.48,0.17,0.97,0.31,1.46,0.42c0.92,0.2,1.79,0.6,2.54,1.16c0.56,0.51,0.86,1.24,0.82,2l0,0
			C-109.09,125.42-109.5,126.33-110.24,126.92z"/>
		<path class="st2" d="M-102.58,127.63h-2.32v-8.43h-3.23v-2.14h8.78v2.14h-3.22L-102.58,127.63z"/>
		<path class="st2" d="M-97.47,117.06h2.31v10.57h-2.33L-97.47,117.06z"/>
		<path class="st2" d="M-85.08,127.34c-0.78,0.34-1.61,0.5-2.46,0.48c-1.95,0.02-3.75-1.02-4.72-2.71
			c-0.48-0.83-0.73-1.78-0.73-2.74l0,0c0-0.96,0.25-1.91,0.73-2.75c0.47-0.84,1.16-1.53,2-2c0.87-0.5,1.85-0.75,2.85-0.73
			c0.82-0.02,1.63,0.12,2.39,0.41c0.66,0.29,1.27,0.7,1.77,1.22l-1.46,1.7c-0.38-0.36-0.82-0.66-1.3-0.88
			c-0.44-0.21-0.92-0.32-1.4-0.31c-0.56-0.01-1.11,0.15-1.58,0.45c-0.47,0.29-0.85,0.7-1.1,1.19c-0.26,0.51-0.39,1.08-0.39,1.66l0,0
			c0,0.58,0.13,1.15,0.39,1.67c0.25,0.49,0.62,0.91,1.09,1.2c0.47,0.3,1.03,0.46,1.59,0.45c0.5,0.01,1-0.09,1.46-0.3
			c0.48-0.25,0.92-0.56,1.31-0.94l1.46,1.47C-83.72,126.48-84.36,126.98-85.08,127.34z"/>
		<path class="st2" d="M-74.76,126.92c-0.81,0.61-1.81,0.92-2.82,0.87c-0.82,0-1.62-0.15-2.39-0.43c-0.77-0.29-1.49-0.72-2.1-1.27
			l1.38-1.65c0.46,0.41,0.97,0.74,1.53,1c0.51,0.22,1.07,0.34,1.63,0.33c0.39,0.02,0.78-0.07,1.12-0.26c0.25-0.16,0.4-0.43,0.4-0.73
			l0,0c0.01-0.19-0.05-0.38-0.16-0.53c-0.18-0.18-0.39-0.32-0.63-0.4c-0.44-0.17-0.88-0.31-1.34-0.42c-0.69-0.16-1.36-0.38-2-0.66
			c-0.47-0.21-0.87-0.56-1.14-1c-0.3-0.49-0.44-1.05-0.41-1.62l0,0c-0.02-0.59,0.15-1.17,0.47-1.67c0.32-0.49,0.78-0.88,1.31-1.12
			c0.6-0.28,1.26-0.41,1.92-0.4c1.42-0.03,2.81,0.45,3.92,1.34l-1.2,1.75c-0.79-0.63-1.75-1.01-2.75-1.09
			c-0.35-0.02-0.7,0.07-1,0.26c-0.22,0.15-0.35,0.4-0.35,0.66l0,0c-0.01,0.21,0.05,0.42,0.19,0.58c0.18,0.18,0.41,0.31,0.65,0.39
			c0.48,0.17,0.97,0.31,1.46,0.42c0.92,0.2,1.79,0.6,2.54,1.16c0.55,0.51,0.85,1.25,0.82,2l0,0
			C-73.64,125.38-74.03,126.31-74.76,126.92z"/>
		<ellipse class="st3" cx="-127.25" cy="101.92" rx="11.05" ry="2.83"/>
		<path class="st4" d="M-148.41,22.62c0.48-0.62,17.48-13.45,17.48-13.45s-0.18,1,0.34,0.48c0.28-0.26-17,13.49-17,13.49
			L-148.41,22.62z"/>
		<path class="st5" d="M-131.35,29.66c0,0.72-0.86,1.28-1.95,1.28c-1.09,0-2-0.56-2-1.28s0.88-1.29,2-1.29
			C-132.18,28.37-131.35,29-131.35,29.66z"/>
		<path class="st6" d="M-134.42,61.31c-0.05,2.63,0.11,5.26,0.48,7.86c0.55,2.55,2.39,6.13,2.2,7.7c-0.19,1.57-1.39,5.39-1.34,7.47
			c0.05,2.08,2.25,8.88,2,9.82c-0.44,2.01-0.77,4.04-1,6.09c0,0.76,1.93,3.17,2.82,2.82c1.2-0.53,1.99-1.69,2.06-3
			c-0.09-1.29-1.25-4.39-1-6.2s0.78-9.63,1-11.15s-0.42-5-0.5-5.78s1.69-13.31,1.34-14.56S-133.3,57.4-134.42,61.31z"/>
		<path class="st7" d="M-126.67,52.93c0.6-2.26,1.79-4.33,3.43-6c2.62-2.56,5-5.38,5-5.38s-3.27-4.27-3.62-7.25
			s-0.61-10.21-0.57-10.41s-1.77,0.4-2.18-1.21c-0.41-1.61,0.57-2.49,0.81-3.69c0.24-1.2-1.35-3.7-0.57-4.44s2.48,1.28,2.79,3
			s3.12,11.45,3.82,13.39s3,6.32,3.32,7.25s1.41,2,0.87,3.39s-5.49,11.71-6.47,13.8s-3.21,5.67-4.48,5.92
			C-125.79,61.55-127.47,55.31-126.67,52.93z"/>
		<path class="st6" d="M-125.29,45.23c0.37-0.27,6.2-8.69,6.45-10.18c0.1-0.6,0.21-2.6,0.31-4.76h-3.55c-0.44,2.64-0.82,5-0.82,5
			s-1.75,2.08-2.65,2.92s-3.8,4.94-4.14,5.11c-0.34,0.17-1.62-0.4-1.62-0.4l0.14-1.38c1.09-0.43,2.15-3.46,2.15-3.46l0.17-0.1
			c0.57-0.35,0.85-1.73,1-2.26c0.21-0.8-0.69-0.87-0.69-0.87c-0.02-1.23-0.29-2.45-0.79-3.58c-0.81-1.75-3.76-2.33-6.27-1.39
			c-2.51,0.94-2.65,4.3-2.65,4.3s-1.12,0-1.07,1.55c0.08,1.85,1,1.69,1,1.69l0.29,1.28c0.34,1.15,1.04,2.16,2,2.88v1.13
			c0,0-4.77,0.33-4.9,0c-0.13-0.33-5.27-6-5.41-6.85c0.15-1.68,0.41-3.35,0.78-5h-3.32c-0.58,1.67-1.01,3.39-1.26,5.14
			c0,1,1.75,4,1.75,4c1.04,1.92,2.25,3.74,3.63,5.44c1.61,1.75,4.71,4.76,4.77,5c0.91,3.94,2.83,7.58,5.57,10.56
			c2,1.85,7.92,1.44,9,1.25c1.08-0.19,1.12-1,0.67-1.45c-0.82-1.43-1.26-3.05-1.28-4.7c0-1.78-0.1-4.1-0.1-4.1
			c-0.23-0.33-0.28-0.76-0.13-1.13C-126.03,50.37-125.66,45.5-125.29,45.23z"/>
		<path class="st5" d="M-135.55,31.26c0.55,0.19,1.12,0.33,1.69,0.42c0.58,0.02,1.16-0.04,1.72-0.17c0.59-0.22,1.23-0.22,1.82,0
			c0.76,0.43,0.61,1.5,0.8,2.21c0.14,0.53,0.49,1.07,0.94,1.13c0-1.24-0.27-2.47-0.77-3.61c-0.81-1.75-3.76-2.33-6.27-1.39
			c-2.51,0.94-2.65,4.3-2.65,4.3h-0.07C-137.44,35.89-137.45,30.9-135.55,31.26z"/>
		<path class="st7" d="M-136.07,42.69c0,0-1.11,0.09-2.3,0.09c0,1,0.2,2,0.32,2.92c0.14,1.29,0.5,2.55,1.06,3.72
			c0.39,0.83,0.82,1.65,1.27,2.45c0.35,0.88,1.02,1.59,1.88,2c1.51,0.47,2.36-1.13,2.76-2.33c0.43-1.52,0.73-3.07,0.92-4.63
			c0.26-1.37,0.57-2.73,0.89-4.1c-0.13,0.18-0.27,0.34-0.44,0.48c-0.33,0.17-1.62-0.39-1.62-0.39l0.14-1.36
			c-0.7,0.49-1.54,0.75-2.39,0.74c-1.04,0.06-2.05-0.3-2.82-1c0.09,0.09,0.18,0.17,0.28,0.24L-136.07,42.69z"/>
		<path class="st6" d="M-120.15,17.67c-1.74-1.13-2.2-0.44-2.25-0.29c-0.45,0.81,2,2.1,1.52,3c-1.21-0.87-1.88-1.13-1.61-0.23
			c0.63,0.85,1.21,1.73,1.73,2.65c-0.1,0.2-2.12,12.46-2.12,12.46s-1.74,2.08-2.65,2.92c-0.64,0.59-2.23,2.82-3.23,4.12
			c-0.51,2.25-1,4.46-1.38,6.73c-0.13,1.44-0.57,2.84-1.3,4.1c-0.51,0.98-1.72,1.36-2.7,0.84c-0.11-0.06-0.21-0.12-0.3-0.19
			c-0.63-0.52-1.14-1.17-1.49-1.91c-0.52-1-1.06-1.95-1.49-3c-0.39-0.96-0.66-1.97-0.78-3c-0.12-1-0.3-2-0.33-3
			c-0.79,0.09-1.58,0.04-2.35-0.13c-0.14-0.34-5.27-6-5.41-6.86c0.48-3.79,1.21-7.55,2.18-11.25c0.2,0.07,3.38-1.24,3.38-2.33
			s-0.71-0.16-2.14,0.41c-0.42,0.16-1.1,0.36-1.48,0.11c-0.15-0.1,0.69-0.91,0.47-1c-1.16-0.38-2.42,1.5-2.42,1.5
			s-3.84,10.56-3.84,12.68c0,1,1.75,4,1.75,4c1.04,1.92,2.25,3.73,3.63,5.42c1.61,1.75,4.71,4.76,4.77,5
			c0.9,3.95,2.82,7.6,5.57,10.58c2,1.85,7.92,1.45,9,1.25c1.08-0.2,1.12-1,0.67-1.44c-0.83-1.43-1.28-3.05-1.31-4.71
			c0-1.77-0.1-4.1-0.1-4.1c-0.23-0.33-0.28-0.75-0.13-1.12c0.26-0.57,0.63-5.41,1-5.68c0.37-0.27,6.2-8.7,6.45-10.18
			s0.57-11.48,0.57-11.48s-0.1-2.59,0-3.08C-118.04,19.28-118.4,18.78-120.15,17.67z"/>
		<path class="st8" d="M-134.42,61c0,0.29-0.46,2.78-0.42,2.6c0.04-0.18,0.84-1.52,0.89-1.3s0,2,0.15,1.74
			c0.15-0.26,0.51-1.73,0.7-1.51s0.32,2.25,0.56,2s0.93-2.36,0.93-2c0.11,0.68,0.26,1.34,0.45,2l0.78-1.76l0.33,2.23
			c0,0,0.62-2.33,0.81-2c0.33,0.65,0.61,1.31,0.85,2c0,0.14,0.28-2.15,0.41-2c0.13,0.15,1.28,1.9,1.13,1.45
			c-0.09-0.48-0.09-0.97,0-1.45c0,0,1,0.51,1,0.38c0.1-0.38,0.23-0.76,0.38-1.13l0.93-1c0,0,1.78-1.36,1.78-1.25
			s-1.69,0.28-1.69,0.28l1.24-1.16h-1.96c0.61-0.26,1.18-0.59,1.7-1c-0.18,0.05-1.93,0.36-1.93,0.36s2.11-1.48,1.84-1.48
			c-0.27,0-2.49-0.36-2.49-0.36s2.44-0.93,2.22-1c-0.61-0.06-1.23-0.06-1.84,0c0,0,2-1.58,1.69-1.56c-0.31,0.02-1.78-0.08-1.78-0.08
			s1.75-1.44,1.52-1.44h-1.92c0.35-0.27,0.69-0.57,1-0.89l-1,0.4c-0.28,0.81-0.52,1.63-0.71,2.47c0,0.31,1.13,6.27,1,6.31
			c-0.13,0.04-0.57,1.3-1,1.21S-134.42,61-134.42,61z"/>
		<path class="st9" d="M-125.29,45.23c0.37-0.27,6.2-8.69,6.45-10.18s0.57-10.92,0.57-11.46l-0.16,0.07
			c-0.83,0.25-1.73,0.13-2.46-0.33c-0.44,2.38-2,11.93-2,11.93s-1.74,2.08-2.65,2.92c-0.91,0.84-3.8,4.94-4.14,5.11
			c-0.46,0.02-0.92-0.08-1.33-0.29c-0.95,3.29-1.58,6.67-1.86,10.08c0,0.1-0.15,0.19-0.22,0.1c-1.22-1.45-1.62-3.23-2.26-5
			s-1.58-3.55-1.6-5.48c-1.27,0.07-3.94,0.19-4-0.07s-5.26-6-5.4-6.86c0.42-3.36,1.02-6.7,1.8-10c-0.92,0.03-1.79-0.39-2.34-1.13
			c-1,2.92-3.22,9.68-3.22,11.34c0,1,1.75,4,1.75,4c1.03,1.92,2.23,3.74,3.6,5.44c1.61,1.75,4.71,4.76,4.77,5
			c0.9,3.95,2.82,7.6,5.57,10.58c2,1.85,7.92,1.45,9,1.25c1.08-0.2,1.12-1,0.67-1.44c-0.83-1.43-1.28-3.05-1.31-4.71
			c0-1.77-0.1-4.1-0.1-4.1c-0.23-0.33-0.28-0.75-0.13-1.12C-126.03,50.37-125.66,45.5-125.29,45.23z"/>
		<path class="st3" d="M-126.06,56.11c0-1.78-0.1-4.09-0.1-4.09c-0.23-0.33-0.28-0.76-0.13-1.13c0.13-0.48,0.22-0.96,0.27-1.45
			c-0.39,0.56-0.72,1.22-1.06,1.8c-0.34,0.67-0.8,1.27-1.37,1.76c-0.71,0.47-1.56,0.68-2.41,0.62c-0.63-0.04-1.26-0.01-1.88,0.08
			c-0.54,0.1-1.06,0.27-1.59,0.37c-0.98,0.26-2.02,0.11-2.89-0.42c-0.62-0.58-1.15-1.26-1.57-2c-0.52-0.69-1.12-1.31-1.8-1.84
			c0.21,0.2,0.4,0.43,0.56,0.68c0.92,3.93,2.86,7.55,5.61,10.51c2,1.85,7.92,1.45,9,1.25c1.08-0.2,1.12-1,0.67-1.44
			C-125.58,59.38-126.03,57.76-126.06,56.11z"/>
		<path class="st8" d="M-133.96,54c0.23,0.4,0.5,0.78,0.8,1.13c0.13,0.16,0.29,0.3,0.46,0.42c0.31,0.16,0.16,0,0.26-0.35
			c0.23-0.8,1.89-10.92,2.39-11.88c-0.34-0.06-0.68-0.15-1-0.28c-1.22,3-2,10.27-2.08,10.15c-0.08-0.12-3.6-8.62-3.85-10.44
			c-0.41,0-1,0.06-1.52,0.07C-138.24,44.81-134.42,53.14-133.96,54z"/>
		<path class="st10" d="M-127.84,10.53c0.03-0.11,0.07-0.22,0.11-0.32c0.06-0.13,0.13-0.26,0.21-0.38c0.11-0.17,0.24-0.32,0.38-0.47
			c0.42-0.39,0.92-0.68,1.47-0.85c0.75-0.23,1.54-0.27,2.31-0.11h0.18h0.14h0.15l0.17,0.05c0.22,0.07,0.44,0.16,0.65,0.25
			c0.46,0.24,0.89,0.51,1.31,0.81c0.87,0.59,1.69,1.24,2.47,1.94c0.81,0.74,1.69,1.41,2.62,2c0.25,0.14,0.49,0.26,0.75,0.38
			l0.19,0.08l0.2,0.08l0.38,0.11c0.5,0.13,1.02,0.13,1.52,0l0.17-0.05h0.09h0.11h0.09h0.07h0.06l0.08-0.05
			c0.21-0.16,0.4-0.35,0.56-0.56c0.38-0.5,0.69-1.05,0.93-1.63c0.14-0.32,0.27-0.64,0.4-1s0.28-0.7,0.43-1.05
			c0.3-0.7,0.62-1.39,1-2.1c0.16-0.35,0.34-0.7,0.53-1s0.37-0.71,0.59-1.08c0.42-0.85,1.02-1.59,1.76-2.17
			c0.46-0.3,0.97-0.49,1.51-0.57h0.84c0.27,0.03,0.54,0.09,0.8,0.18c0.49,0.17,0.95,0.41,1.37,0.72c0.19,0.15,0.38,0.32,0.56,0.49
			s0.17,0.17,0.25,0.27l0.07,0.07l0,0l0.06,0.07l0.1,0.13l0.18,0.25c0.08,0.08,0.14,0.17,0.2,0.27c0.14,0.21,0.28,0.43,0.4,0.65
			l0.31,0.65c0.09,0.22,0.18,0.44,0.25,0.66c0.32,0.89,0.52,1.81,0.6,2.75c0.08,1.81-0.05,3.63-0.39,5.41
			c-0.29,1.69-0.56,3.47-0.83,5.22s-0.57,3.5-0.83,5.26c-0.14,0.8-0.19,1.62-0.14,2.43c-0.02,0.09-0.02,0.18,0,0.27
			c0,0.1,0,0.1,0,0.14v0.1l0,0l0.09,0.32v0.13v0.11c0.13,0.33,0.31,0.64,0.52,0.93c0.26,0.27,0.55,0.52,0.86,0.73
			c0.29,0.24,0.61,0.45,0.94,0.63c0.34,0.17,0.7,0.32,1.06,0.43c0.19,0,0.37,0.09,0.57,0.12h0.27h0.32c0.38,0.03,0.75,0.03,1.13,0
			c0.39-0.04,0.77-0.11,1.15-0.21c0.78-0.19,1.53-0.48,2.23-0.86c0.34-0.18,0.68-0.39,1-0.61l0.26-0.18l0.24-0.17l0.49-0.37
			c0.65-0.51,1.28-1.05,1.93-1.59c0.64-0.55,1.31-1.07,2-1.55c0.18-0.11,0.36-0.23,0.56-0.33l0.14-0.09l0.14-0.08l0.32-0.16
			c0.47-0.23,0.99-0.34,1.51-0.32c0.61,0.04,1.16,0.36,1.51,0.86c0.28,0.44,0.43,0.94,0.45,1.46c0,0.23,0,0.46,0,0.69
			c0.01,0.11-0.01,0.23-0.06,0.33v0.17v0.14c0,0.18-0.1,0.41-0.16,0.6c-0.05,0.19-0.11,0.38-0.19,0.57
			c-0.56,1.51-1.31,2.82-1.87,4.09c-0.59,1.18-0.89,2.48-0.9,3.8c0.01,0.31,0.05,0.61,0.12,0.91c0.03,0.14,0.07,0.28,0.13,0.42v0.09
			v0.11l0.09,0.22l0.2,0.37l0.24,0.36c0.09,0.12,0.17,0.23,0.27,0.34s0.19,0.21,0.29,0.31c0.81,0.77,1.75,1.38,2.78,1.82
			c1.69,0.77,3.49,1.28,5.33,1.5c0.67,0.06,1.33,0.06,2,0c0.51-0.03,1.01-0.12,1.5-0.25c0.31-0.08,0.61-0.18,0.91-0.3l0.3-0.12
			l-0.3,0.14c-0.28,0.14-0.58,0.26-0.88,0.36c-1.17,0.37-2.39,0.52-3.61,0.45c-1.8-0.13-3.58-0.52-5.27-1.15
			c-1.13-0.39-2.19-0.98-3.12-1.74c-0.51-0.45-0.93-0.99-1.25-1.59c-0.32-0.62-0.51-1.3-0.56-2c-0.06-1.47,0.22-2.94,0.82-4.28
			c0.56-1.38,1.26-2.68,1.69-4.07l0.15-0.52c0-0.18,0.08-0.33,0.12-0.53v-0.14l0,0l0,0V29c0.01-0.08,0.01-0.17,0-0.25
			c0.01-0.16,0.01-0.33,0-0.49c-0.01-0.27-0.09-0.54-0.24-0.77c-0.12-0.16-0.31-0.26-0.51-0.26c-0.29,0.01-0.57,0.09-0.82,0.23
			l-0.14,0.13l-0.13,0.07l-0.11,0.07l-0.49,0.32c-0.65,0.46-1.28,0.96-1.88,1.49c-1.27,1.2-2.67,2.27-4.16,3.18
			c-1.65,0.97-3.55,1.45-5.46,1.36h-0.34h-0.37c-0.25,0-0.49-0.1-0.74-0.16c-0.48-0.14-0.95-0.33-1.4-0.56
			c-0.91-0.46-1.71-1.11-2.34-1.91l-0.23-0.32l-0.21-0.33c-0.07-0.11-0.13-0.23-0.18-0.35l-0.02-0.22l-0.12-0.23l-0.08-0.2v-0.1
			v-0.08l-0.09-0.32v-0.23c0.02-0.07,0.02-0.13,0-0.2c-0.04-0.12-0.06-0.25-0.06-0.38c-0.08-0.96-0.04-1.93,0.11-2.89l0.8-5.29
			c0.26-1.76,0.51-3.5,0.79-5.24c0.3-1.65,0.42-3.33,0.36-5c-0.05-0.76-0.18-1.52-0.41-2.25l-0.3-0.47l-0.23-0.5l-0.26-0.42
			c-0.04-0.09-0.1-0.17-0.17-0.24l-0.19-0.25l-0.09-0.13l0,0l0,0l-0.18-0.19c-0.12-0.11-0.24-0.22-0.37-0.32
			c-0.24-0.19-0.52-0.34-0.81-0.44c-0.5-0.18-1.06-0.11-1.5,0.19c-0.53,0.39-0.97,0.88-1.3,1.45c-0.19,0.3-0.38,0.63-0.56,1
			s-0.36,0.67-0.53,1c-0.35,0.67-0.66,1.33-1,2c-0.15,0.33-0.3,0.66-0.44,1s-0.28,0.69-0.44,1c-0.31,0.72-0.73,1.4-1.23,2
			c-0.27,0.33-0.58,0.61-0.94,0.84l-0.13,0.09l-0.16,0.09l-0.16,0.08h-0.08h-0.06l-0.28,0.11l-0.31,0.09
			c-0.78,0.17-1.59,0.13-2.35-0.11c-0.18-0.05-0.36-0.11-0.53-0.18l-0.23-0.09l-0.24-0.12c-0.31-0.14-0.61-0.3-0.89-0.48
			c-1-0.67-1.93-1.42-2.79-2.26c-0.7-0.68-1.46-1.31-2.25-1.88c-0.35-0.26-0.73-0.48-1.12-0.68c-0.17-0.08-0.34-0.16-0.52-0.22
			h-0.13h-0.14h-0.14h-0.1c-0.6-0.15-1.23-0.2-1.85-0.15c-0.44,0.02-0.88,0.09-1.3,0.23c-0.16,0.07-0.31,0.15-0.46,0.24
			c-0.11,0.07-0.22,0.14-0.32,0.22L-127.84,10.53z"/>
	</g>
</g>
<g>
	<path class="st2" d="M28.24,116.59h8.01v2.08h-5.69v2.15h5v2.08h-5v2.23h5.76v2.08h-8.08V116.59z"/>
	<path class="st2" d="M37.88,121.4h4.67v2.21h-4.67V121.4z"/>
	<path class="st2" d="M48.36,127.36c-1.61,0-3.23-0.56-4.5-1.7l1.38-1.65c0.96,0.79,1.96,1.29,3.17,1.29c0.96,0,1.53-0.38,1.53-1
		v-0.03c0-0.59-0.36-0.89-2.14-1.35c-2.14-0.55-3.52-1.14-3.52-3.25v-0.03c0-1.93,1.55-3.2,3.72-3.2c1.55,0,2.87,0.49,3.94,1.35
		l-1.21,1.76c-0.94-0.65-1.87-1.05-2.76-1.05c-0.89,0-1.36,0.41-1.36,0.92v0.03c0,0.7,0.45,0.92,2.29,1.39
		c2.15,0.56,3.37,1.33,3.37,3.19v0.03C52.26,126.18,50.65,127.36,48.36,127.36z"/>
	<path class="st2" d="M58.4,124.02h-1.77v3.19h-2.34v-10.62h4.34c2.53,0,4.06,1.5,4.06,3.67v0.03
		C62.69,122.75,60.78,124.02,58.4,124.02z M58.43,118.7h-1.8v3.25h1.85c1.17,0,1.85-0.7,1.85-1.61v-0.03
		C60.32,119.26,59.6,118.7,58.43,118.7z"/>
	<path class="st2" d="M69.57,127.39c-3.28,0-5.63-2.44-5.63-5.46v-0.03c0-3.02,2.38-5.49,5.66-5.49c3.28,0,5.63,2.44,5.63,5.46v0.03
		C75.23,124.92,72.85,127.39,69.57,127.39z M69.57,118.56c-1.88,0-3.19,1.49-3.19,3.31v0.03c0,1.82,1.33,3.34,3.22,3.34
		c1.88,0,3.18-1.49,3.18-3.31v-0.03C72.79,120.08,71.45,118.56,69.57,118.56z"/>
	<path class="st2" d="M81.47,123.81h-1.84v3.4H77.3v-10.62h4.85c2.5,0,4,1.32,4,3.5v0.03c0,1.71-0.93,2.79-2.28,3.29l2.59,3.79
		h-2.73L81.47,123.81z M81.96,118.7h-2.32v3.05H82c1.14,0,1.79-0.61,1.79-1.5v-0.03C83.79,119.21,83.1,118.7,81.96,118.7z"/>
	<path class="st2" d="M93.07,127.21h-2.34v-8.46H87.5v-2.15h8.8v2.15h-3.23V127.21z"/>
	<path class="st2" d="M101.64,127.36c-1.61,0-3.23-0.56-4.5-1.7l1.38-1.65c0.96,0.79,1.96,1.29,3.17,1.29c0.96,0,1.53-0.38,1.53-1
		v-0.03c0-0.59-0.36-0.89-2.14-1.35c-2.14-0.55-3.52-1.14-3.52-3.25v-0.03c0-1.93,1.55-3.2,3.72-3.2c1.55,0,2.87,0.49,3.94,1.35
		l-1.21,1.76c-0.94-0.65-1.87-1.05-2.76-1.05s-1.37,0.41-1.37,0.92v0.03c0,0.7,0.46,0.92,2.29,1.39c2.15,0.56,3.37,1.33,3.37,3.19
		v0.03C105.53,126.18,103.93,127.36,101.64,127.36z"/>
</g>
<g>
	<g>
		<path class="st0" d="M208.79,54.16c0-0.93,0-1.86,0-2.79c0.02-0.11,0.05-0.22,0.06-0.33c0.33-3.62,1.77-6.75,4.24-9.4
			c2.39-2.57,5.33-4.35,8.5-5.78c2.94-1.32,6.01-2.29,9.14-3.03c1.82-0.43,3.63-0.93,5.48-1.22c3.01-0.47,6.07-0.54,9.11-0.62
			c0.24-0.01,0.49,0.03,0.73-0.06c2.77,0,5.54,0,8.32,0c0.11,0.02,0.22,0.05,0.33,0.05c1.33,0.01,2.66,0.08,3.99,0.13
			c2.21,0.09,4.42,0.24,6.63,0.43c2.76,0.24,5.52,0.53,8.25,0.98c4.44,0.74,8.87,1.49,13.08,3.17c1.63,0.65,3.34,1.04,5.02,1.54
			c7.32,2.17,14.54,4.6,21.49,7.79c4.08,1.87,8.02,3.98,11.71,6.55c0.12,0.08,0.26,0.16,0.33,0.27c0.36,0.56,0.91,0.9,1.46,1.24
			c1.2,0.74,2.41,1.45,3.61,2.19c2.5,1.55,4.82,3.32,6.74,5.56c1.9,2.21,3.2,4.73,3.76,7.6c0.12,0.62,0.19,1.25,0.29,1.87
			c0,0.91,0,1.82,0,2.73c-0.05,0.41-0.1,0.81-0.16,1.22c-0.41,3.02-1.41,5.85-2.71,8.59c-2.04,4.27-4.72,8.12-7.66,11.8
			c-0.67,0.84-1.41,1.63-2.04,2.49c-0.59,0.81-1.15,1.66-1.77,2.45c-4.49,5.75-9.35,11.16-14.41,16.4c-2.15,2.23-4.36,4.42-6.6,6.56
			c-2.32,2.21-4.68,4.37-7.1,6.47c-3.97,3.44-8.08,6.72-12.39,9.73c-4.29,3-8.75,5.74-13.49,7.99c-0.31,0.15-0.61,0.31-0.9,0.5
			c-1.15,0.75-2.31,1.49-3.51,2.16c-3.66,2.05-7.51,3.55-11.68,4.15c-0.66,0.09-1.32,0.16-1.98,0.23c-1,0-2,0-2.99,0
			c-0.1-0.02-0.19-0.05-0.29-0.05c-2.91-0.21-5.67-0.97-8.29-2.25c-3.93-1.91-7.14-4.72-9.94-8.03c-2.74-3.23-4.96-6.81-6.89-10.56
			c-2.45-4.76-4.39-9.74-6.07-14.82c-0.51-1.52-0.91-3.08-1.56-4.56c-2.53-5.77-4.42-11.76-5.93-17.88
			c-1.49-6.02-2.52-12.13-3.09-18.31c-0.29-3.16-0.45-6.32-0.49-9.49c-0.04-2.65,0.04-5.3,0.24-7.94c0.06-0.8,0.08-1.59-0.07-2.38
			c-0.05-0.27-0.09-0.55-0.13-0.82C209,55.87,208.89,55.01,208.79,54.16z"/>
	</g>
	<g>
		<path class="st11" d="M285.63,88.48c-4.44,1.54-9.37,1.52-13.8-0.05v26.62h13.96V88.43C285.74,88.45,285.68,88.46,285.63,88.48z"
			/>
		<path class="st12" d="M271.55,87.38c6.38,2.49,13.76,1.47,19.25-2.61c4.45-3.31,7.33-8.43,7.89-13.95
			c0.54-5.36-1.13-10.79-4.6-14.91c-3.4-4.03-8.36-6.61-13.62-7.05c-5.34-0.44-10.71,1.32-14.75,4.84
			c-3.99,3.47-6.49,8.47-6.84,13.75c-0.37,5.55,1.62,11.12,5.48,15.14C266.37,84.68,268.84,86.32,271.55,87.38
			C273.87,88.28,263.82,84.36,271.55,87.38z"/>
		<path class="st13" d="M317.03,122.89c-2.79,0-5.33,1.53-6.64,3.95h13.28C322.35,124.42,319.81,122.89,317.03,122.89z"/>
		<path class="st14" d="M298.53,129.95h-39.45h-34.65c-2.36,0-4.29,1.92-4.29,4.29v21.62c0,2.36,1.92,4.29,4.29,4.29h108.74
			c2.36,0,4.29-1.92,4.29-4.29v-21.62c0-2.36-1.92-4.29-4.29-4.29h-6.88h-18.55H298.53z"/>
		<path class="st15" d="M294.42,125.25H263.2c-0.15,0-0.3-0.01-0.44-0.04h-3.67c-1.05,0-1.92,0.88-1.92,1.92
			c0,1.05,0.88,1.92,1.92,1.92h39.45c1.05,0,1.92-0.88,1.92-1.92c0-1.05-0.88-1.92-1.92-1.92h-3.67
			C294.72,125.24,294.57,125.25,294.42,125.25z"/>
		<path class="st16" d="M326.96,128.39c0-0.37-0.3-0.67-0.67-0.67h-1.92h-14.7h-1.93c-0.86,0-0.86,1.34,0,1.34h18.55
			C326.66,129.06,326.96,128.76,326.96,128.39z"/>
		<path class="st15" d="M291.63,120.61c-0.18,0.04-0.37,0.06-0.55,0.06h-24.53c-0.3,0-0.6-0.05-0.88-0.14h-2.47
			c-1.02,0-1.88,0.83-1.92,1.84c-0.04,1.08,0.84,2,1.92,2h31.23c1.05,0,1.92-0.88,1.92-1.92c0-1.05-0.88-1.92-1.92-1.92h-2.47
			C291.85,120.56,291.74,120.58,291.63,120.61z"/>
		<path class="st15" d="M265.89,119.66c0.21,0.08,0.43,0.12,0.65,0.12h24.53c1.11,0,2.01-0.98,1.92-2.08
			c-0.08-0.98-0.93-1.76-1.92-1.76h-4.84h-14.85h-4.84c-0.9,0-1.7,0.65-1.88,1.53C264.47,118.38,265,119.34,265.89,119.66
			C266.11,119.74,265.13,119.39,265.89,119.66z"/>
	</g>
</g>
<g>
	<path class="st11" d="M71.72,49.36c-3.32,1.15-7,1.14-10.31-0.04v19.89h10.43V49.32C71.81,49.33,71.76,49.35,71.72,49.36z"/>
	<path class="st12" d="M61.2,48.53c4.77,1.86,10.28,1.1,14.38-1.95c3.32-2.47,5.48-6.3,5.9-10.42c0.4-4.01-0.84-8.06-3.44-11.14
		C75.5,22,71.8,20.08,67.86,19.75c-3.99-0.33-8,0.99-11.02,3.62c-2.98,2.59-4.85,6.33-5.11,10.27c-0.27,4.15,1.21,8.31,4.09,11.31
		C57.33,46.52,59.18,47.74,61.2,48.53C62.94,49.21,55.43,46.28,61.2,48.53z"/>
	<path class="st13" d="M95.18,75.07c-2.08,0-3.98,1.14-4.96,2.95h9.93C99.16,76.21,97.27,75.07,95.18,75.07z"/>
	<path class="st14" d="M81.37,80.35H51.89H26c-1.77,0-3.2,1.44-3.2,3.2v16.16c0,1.77,1.44,3.2,3.2,3.2h81.26
		c1.77,0,3.2-1.44,3.2-3.2V83.55c0-1.77-1.44-3.2-3.2-3.2h-5.14H88.25H81.37z"/>
	<path class="st15" d="M78.3,76.84H54.96c-0.11,0-0.22-0.01-0.33-0.03h-2.74c-0.78,0-1.44,0.65-1.44,1.44
		c0,0.78,0.65,1.44,1.44,1.44h29.48c0.78,0,1.44-0.65,1.44-1.44c0-0.78-0.65-1.44-1.44-1.44h-2.74
		C78.52,76.83,78.41,76.84,78.3,76.84z"/>
	<path class="st16" d="M102.61,79.18c0-0.28-0.22-0.5-0.5-0.5h-1.44H89.69h-1.44c-0.65,0-0.65,1,0,1h13.86
		C102.39,79.68,102.61,79.46,102.61,79.18z"/>
	<path class="st15" d="M76.2,73.37c-0.14,0.03-0.27,0.04-0.41,0.04H57.47c-0.22,0-0.45-0.04-0.66-0.11h-1.85
		c-0.76,0-1.4,0.62-1.44,1.38c-0.03,0.81,0.63,1.5,1.44,1.5H78.3c0.78,0,1.44-0.65,1.44-1.44c0-0.78-0.65-1.44-1.44-1.44h-1.85
		C76.37,73.33,76.29,73.35,76.2,73.37z"/>
	<path class="st15" d="M56.98,72.66c0.16,0.06,0.32,0.09,0.49,0.09h18.33c0.83,0,1.5-0.73,1.43-1.56c-0.06-0.73-0.7-1.32-1.43-1.32
		h-3.62h-11.1h-3.62c-0.67,0-1.27,0.48-1.41,1.14C55.91,71.7,56.31,72.42,56.98,72.66C57.14,72.72,56.41,72.45,56.98,72.66z"/>
</g>
</svg>
