<svg id="Layer_4" data-name="Layer 4" xmlns="http://www.w3.org/2000/svg" viewBox="0 0 128 128"><defs><style>.cls-1{fill:#afdd3d;}.cls-2{fill:#9e9c9c;}.cls-3{fill:#dae7f2;}.cls-4{fill:#fc9f53;}.cls-5{fill:#4d5666;}.cls-6{fill:#337af5;}.cls-7{fill:#45a7ff;}.cls-8{fill:#feb36d;}.cls-9{fill:#435169;}.cls-10{fill:#2f394a;}.cls-11{fill:#1356d4;}.cls-12{fill:#fece95;}.cls-13{fill:#fff;}.cls-14{fill:#2b84ff;}.cls-15{fill:#cfe8ff;}.cls-16{fill:#7dd6ff;}.cls-17{fill:#f7702d;}.cls-18{fill:#1e5cba;}.cls-19{fill:#fc9171;}.cls-20{fill:#fcb771;}.cls-21{fill:#4d2c2c;}.cls-22{fill:#fc7e3f;}.cls-23{fill:#d45a35;}.cls-24{fill:#e61244;}.cls-25{fill:#fd304b;}.cls-26{fill:#c9003c;}.cls-27{fill:#ffdbdb;}.cls-28{fill:#e6204e;}.cls-29{fill:#fd686f;}.cls-30{fill:#ff8585;}.cls-31{fill:#a60847;}.cls-32{fill:#fc8c42;}.cls-33{fill:#ff9e9e;}.cls-34{fill:#6e052f;}</style></defs><g id="Layer_2" data-name="Layer 2"><g id="Layer_1-2" data-name="Layer 1-2"><path class="cls-1" d="M18.65,18.45V16.07a11.75,11.75,0,0,1,3.24-7.15,19.62,19.62,0,0,1,6.46-4.4A39.52,39.52,0,0,1,35.3,2.24c1.42-.35,2.84-.7,4.21-1A53.42,53.42,0,0,1,46.44.83a2.05,2.05,0,0,0,.55,0h6.32l.26,0c1,0,2,.06,3,.1,1.68.07,3.36.18,5,.32,2.1.19,4.19.41,6.28.76a47.27,47.27,0,0,1,9.94,2.41c1.23.49,2.54.76,3.81,1.17A123.08,123.08,0,0,1,98,11.51a57.6,57.6,0,0,1,8.91,5,1,1,0,0,1,.26.21,3.23,3.23,0,0,0,1.1.94c.91.56,1.84,1.09,2.74,1.66a21.81,21.81,0,0,1,5.14,4.23A12.45,12.45,0,0,1,119,29.32c.09.47.15.95.21,1.42v2.08l-.11.92a21.79,21.79,0,0,1-2.07,6.54,46.54,46.54,0,0,1-5.83,9c-.51.64-1.07,1.23-1.52,1.89s-.87,1.26-1.35,1.86a158.55,158.55,0,0,1-11,12.49c-1.63,1.69-3.31,3.36-5,5s-3.51,3.27-5.4,4.92a115.63,115.63,0,0,1-9.42,7.4A70.81,70.81,0,0,1,67.28,88.9a5.63,5.63,0,0,0-.68.38c-.88.57-1.76,1.13-2.67,1.64A25.44,25.44,0,0,1,55,94.08c-.5.07-1,.12-1.52.18H51.24a.93.93,0,0,0-.23,0,17.18,17.18,0,0,1-6.31-1.71,23.38,23.38,0,0,1-7.56-6.09,42.18,42.18,0,0,1-5.23-8A79,79,0,0,1,27.29,67.1a36.24,36.24,0,0,0-1.19-3.46A83.71,83.71,0,0,1,21.59,50a93.8,93.8,0,0,1-2.35-13.93c-.23-2.4-.34-4.81-.37-7.22q0-3,.18-6.05A7.32,7.32,0,0,0,19,21a4.22,4.22,0,0,1-.1-.62C18.81,19.75,18.73,19.09,18.65,18.45Z"/><path class="cls-2" d="M45.75,126.73a5.23,5.23,0,0,1-3,.76H37.5v-11h5.1a4.3,4.3,0,0,1,2.67.76,2.54,2.54,0,0,1,1,2.08h0a2.59,2.59,0,0,1-1.45,2.37,3.78,3.78,0,0,1,1.53,1,2.54,2.54,0,0,1,.51,1.68h0A2.59,2.59,0,0,1,45.75,126.73Zm-2.33-7.84a2.08,2.08,0,0,0-1.17-.29H39.86v2.33h2.23a2.35,2.35,0,0,0,1.29-.29,1,1,0,0,0,.46-.87h0A1,1,0,0,0,43.42,118.89Zm.58,4.36a2.41,2.41,0,0,0-1.34-.31h-2.8v2.42h2.85a2.22,2.22,0,0,0,1.26-.3,1,1,0,0,0,.45-.89h0A1,1,0,0,0,44,123.25Z"/><path class="cls-2" d="M59.29,124.84a5.57,5.57,0,0,1-2.13,2.07,6.3,6.3,0,0,1-6,0,5.49,5.49,0,0,1-2.09-2,5.72,5.72,0,0,1-.76-2.86h0a5.58,5.58,0,0,1,2.86-4.92,6.32,6.32,0,0,1,6,0A5.55,5.55,0,0,1,60,122h0A5.62,5.62,0,0,1,59.29,124.84Zm-2.2-4.56a3.26,3.26,0,0,0-4.41-1.37,3.35,3.35,0,0,0-1.37,1.37,3.56,3.56,0,0,0-.42,1.72h0a3.51,3.51,0,0,0,.43,1.74A3.35,3.35,0,0,0,52.51,125,3.24,3.24,0,0,0,57,124l.1-.19A3.46,3.46,0,0,0,57.5,122h0a3.57,3.57,0,0,0-.41-1.79Z"/><path class="cls-2" d="M65.82,123.69l-2.48,3.8H60.59l3.8-5.59-3.68-5.41h2.83l2.28,3.57,2.28-3.57h2.76l-3.68,5.37,3.8,5.63H68.29Z"/><path class="cls-2" d="M73,116.48h2.42v11H73Z"/><path class="cls-2" d="M80.6,120.49v7H78.21v-11h2.23l5.16,6.77v-6.77H88v11H85.93Z"/><path class="cls-2" d="M96,127.67a6,6,0,0,1-3-.76,5.2,5.2,0,0,1-2.06-2,5.83,5.83,0,0,1-.76-2.91h0a5.75,5.75,0,0,1,.76-2.86A5.56,5.56,0,0,1,93,117.05a5.87,5.87,0,0,1,3-.76,6.9,6.9,0,0,1,2.43.37,6.45,6.45,0,0,1,1.9,1.14l-1.52,1.84a5.07,5.07,0,0,0-1.34-.85,3.93,3.93,0,0,0-1.52-.27,3,3,0,0,0-1.59.46,3.48,3.48,0,0,0-1.15,1.26,3.64,3.64,0,0,0-.42,1.71h0a3.87,3.87,0,0,0,.42,1.8A3.15,3.15,0,0,0,94.33,125a3.26,3.26,0,0,0,1.72.45,3.79,3.79,0,0,0,2.29-.66v-1.57H95.9v-2.1h4.78V126A7,7,0,0,1,96,127.67Z"/><ellipse class="cls-3" cx="97.77" cy="94.91" rx="28.62" ry="2.01"/><ellipse class="cls-3" cx="39.04" cy="94.77" rx="27.53" ry="2.15"/><path class="cls-4" d="M46.92,54.29,59.2,54.2l-1.34-5.15L47,48.71A2.36,2.36,0,0,0,44.57,51v.82a2.36,2.36,0,0,0,2.24,2.48Z"/><path class="cls-4" d="M57.57,49.12,68,46.61l.4,4.34c-3.57,1.46-5.32,2.41-8.4,3.16a3,3,0,0,1-3.68-2.23v-.14Z"/><path class="cls-5" d="M68.31,46.32h-.76a4,4,0,0,0-1.29.22L64.9,47a.85.85,0,0,0-.57.67c-.21,1.16-.4,4,2.56,4.56l4.2-2Z"/><path class="cls-6" d="M66.94,47.23a1.77,1.77,0,0,1,1-1.24l3.65-2c1.18-.59,2.33-.86,3.35,0l2.93,2.56-2.49,3.9-5.47.88a2.09,2.09,0,0,1-2-.71A4,4,0,0,1,66.94,47.23Z"/><path class="cls-6" d="M72.26,45.76v1.63l-1,.46v1.43l2.33,1.35a4.71,4.71,0,0,0,3.39.51l.86-.15.34-2.68Z"/><path class="cls-7" d="M73.72,44.47l-.22,2.82a2.28,2.28,0,0,0,1,1.91l2.61,1.72a.77.77,0,0,0,1-.3,1.19,1.19,0,0,0,.08-.2l.35-1.35a3.13,3.13,0,0,0-1-2.86l-2.64-2.28a.76.76,0,0,0-1.06.19A.71.71,0,0,0,73.72,44.47Z"/><path class="cls-7" d="M69.08,46.05l2.21.22a1.31,1.31,0,0,1,1.28,1.34.66.66,0,0,1,0,.14l0,.4a1.3,1.3,0,0,1-1.21,1.13H69.08s-2.61.76-2.14-2.08A2.74,2.74,0,0,1,69.08,46.05Z"/><path class="cls-8" d="M19.89,84.58s-.39-.76-.87-5.87a48,48,0,0,1,6-1.53c1.46-.28,2.53-.45,2.53-.45l6.94-10.1c1.4,1,5,7.27,5,7.27L32,81.78A4.28,4.28,0,0,1,29.54,83l-3.26.52Z"/><path class="cls-6" d="M19.89,84.58s-.39-.76-.87-5.87a48,48,0,0,1,6-1.53c.18,1.21.56,3.34,1.23,6.38Z"/><path class="cls-9" d="M13.88,93.84a3.36,3.36,0,0,1-.7-1.18c-.29-1-1.16-13-1.16-13s0-.82,1-.76a23.81,23.81,0,0,1,3.36.68l3.41-1.08c.12.15,1,4.76,1,4.76s1.69-.15,1.83.9l-3.45.59s-2.22,3.67-3,5a2.73,2.73,0,0,0-.25.48c0,.11-.67,2.2-1.07,3.44a.57.57,0,0,1-.72.38A.59.59,0,0,1,13.88,93.84Z"/><path class="cls-10" d="M16.2,89.72l-.76-.62,3.23-5.47,2.12-.41s1.69-.15,1.83.9l-3.45.59S17,88.38,16.2,89.72Z"/><path class="cls-6" d="M27.81,73.43a58,58,0,0,0,8.12,5.81.79.79,0,0,0,1.09-.3h0c4.77-8.51,5.27-8.58,5.27-8.58a18.8,18.8,0,0,0,3.36-3.76c-10.5-4.48-12.17-5.13-12.17-5.13Z"/><path class="cls-11" d="M27.81,73.43a58,58,0,0,0,8.12,5.81.79.79,0,0,0,1.09-.3h0c4.77-8.51,5.27-8.58,5.27-8.58a18.8,18.8,0,0,0,3.36-3.76c-10.5-4.48-12.17-5.13-12.17-5.13Z"/><path class="cls-12" d="M51.92,88.72s-.81.32-5.92.35a47.09,47.09,0,0,1-1-6.13c-.16-1.52-.8-5.26-.8-5.26l-9.46-7.81c1.09-1.3,7.69-4.31,7.69-4.31l7.18,8.25a4.24,4.24,0,0,1,1,2.52l.76,6Z"/><path class="cls-4" d="M42.85,76.55a36,36,0,0,1,3.91-5.44l-5.5,4.12Z"/><path class="cls-7" d="M51.92,88.72s-.81.32-5.92.35a47.09,47.09,0,0,1-1-6.13c1.21-.07,3.37-.25,6.45-.66Z"/><path class="cls-9" d="M60.62,95.53a3.83,3.83,0,0,1-1.24.59c-1,.21-13.1,0-13.1,0s-.82,0-.66-1.07a24.85,24.85,0,0,1,1-3.29l-.76-3.49c.15-.11,4.82-.56,4.82-.56s0-1.7,1.06-1.75L52,89.45s3.46,2.54,4.73,3.41a4.43,4.43,0,0,0,.46.29c.11,0,2.13.86,3.33,1.37a.58.58,0,0,1,.3.77A.63.63,0,0,1,60.62,95.53Z"/><path class="cls-10" d="M14.88,93.65a.59.59,0,0,1-.75.36.7.7,0,0,1-.25-.17,3.36,3.36,0,0,1-.7-1.18c-.29-1-1.16-13-1.16-13s0-.83,1-.76h.21a.72.72,0,0,0-.23.53s.86,12.1,1.15,13a3.92,3.92,0,0,0,.7,1.18Z"/><path class="cls-10" d="M60.62,95.53a4,4,0,0,1-1.24.6c-1,.2-13.1,0-13.1,0s-.82,0-.66-1.08a1,1,0,0,1,0-.28.77.77,0,0,0,.55.32s12.12.2,13.1,0a3.74,3.74,0,0,0,1.19-.57h0a.57.57,0,0,1,.31.76A.6.6,0,0,1,60.62,95.53Z"/><polygon class="cls-6" points="40.63 65.36 45.66 66.59 46.02 65.32 40.94 63.3 40.63 65.36"/><path class="cls-10" d="M56.72,92.83l-.7.76-5.16-3.72-.22-2.15S50.64,86,51.7,86L52,89.46S55.44,92,56.72,92.83Z"/><path class="cls-7" d="M47.11,70.86l-4.72,3.52-.61.45-.76.54-.61.46-2.53,1.89a.64.64,0,0,1-.89-.13l-.06-.11-4.47-9.55a5.33,5.33,0,0,1-.8-5.71c1.43-2.69,1.52-1.89,1.52-1.89l7.78,3Z"/><path class="cls-6" d="M47.11,70.86l-4.72,3.52-.61.45-.76.54-.61.46-2.53,1.89a.64.64,0,0,1-.89-.13l-.06-.11-4.47-9.55a5.33,5.33,0,0,1-.8-5.71c1.43-2.69,1.52-1.89,1.52-1.89l7.78,3Z"/><path class="cls-13" d="M41.06,75.37l-.61.46c-2.13-3-7.28-10.5-7.43-11a9.07,9.07,0,0,1,.77-3,.37.37,0,0,1,.47-.25.38.38,0,0,1,.25.47.19.19,0,0,1,0,.07,8.7,8.7,0,0,0-.77,2.59C34,65.1,38.09,71.11,41.06,75.37Z"/><path class="cls-13" d="M35.38,64c0-.67.35-.86.38-.87a.38.38,0,1,0-.32-.7A1.67,1.67,0,0,0,34.61,64c0,.88,4.74,7.54,7.17,10.87l.61-.45C39,69.75,35.52,64.69,35.38,64Z"/><path class="cls-7" d="M47.15,62.36a16.56,16.56,0,0,1-1.13,3c-.23.24-4.4-.7-8.74-2.49a34,34,0,0,1-5.62-2.92,11.19,11.19,0,0,0,1.27-3,42.57,42.57,0,0,0,1.2-9.47s-.5-1.68.25-2.57a13.43,13.43,0,0,1,5.68.11,19.45,19.45,0,0,1,7.66,3.29C49.39,53.1,48.21,58.91,47.15,62.36Z"/><path class="cls-14" d="M37.92,48c.64,2.28,2.15,9.08-.32,15h-.08a33.91,33.91,0,0,1-5.86-3,11.33,11.33,0,0,0,1.27-3,42.57,42.57,0,0,0,1.2-9.47s-.5-1.68.25-2.57a13.43,13.43,0,0,1,5.68.11l.57,2.59-2.11-.33a.54.54,0,0,0-.63.43A.55.55,0,0,0,37.92,48Z"/><path class="cls-15" d="M47.15,62.36a16.56,16.56,0,0,1-1.13,3h-.21A37.37,37.37,0,0,1,36,62.22a30.57,30.57,0,0,1-4.32-2.35,11.19,11.19,0,0,0,1.27-3h0a29.08,29.08,0,0,0,4.32,2.35,42.66,42.66,0,0,0,9.29,3.05A6,6,0,0,0,47.15,62.36Z"/><path class="cls-13" d="M46.51,62.3l-.76,3a37.37,37.37,0,0,1-9.83-3.1l1.27-3A43.09,43.09,0,0,0,46.51,62.3Z"/><path class="cls-16" d="M33.16,63.8c0,.09,3.75,3,7.05,3.38,2.93-1.35,2.82-5.64,2.54-6.43a4.53,4.53,0,0,0-1.92-2c-.3,0-1,.15-1.1.48s.54.66.54.66a19.31,19.31,0,0,1-4.41-.63C34.8,59.76,33.11,63.12,33.16,63.8Z"/><path class="cls-16" d="M35,59a4.05,4.05,0,0,1,3.34-1.11c1.63.18,2.16,1.69,1.76,1.95s-1.76,0-1.76,0A8,8,0,0,1,35,59Z"/><path class="cls-5" d="M29.67,60.88a1.65,1.65,0,0,0,.72,2.23,1.27,1.27,0,0,0,.32.13,17,17,0,0,0,2.79.85,1.09,1.09,0,0,0,1.11-.43,8.92,8.92,0,0,0,1.58-3.54,1,1,0,0,0-.33-.84,22.86,22.86,0,0,0-2.42-2,1.47,1.47,0,0,0-2.12.55A15,15,0,0,0,29.67,60.88Z"/><path class="cls-12" d="M33.22,59.15A5.33,5.33,0,0,1,31.7,61.6a1.18,1.18,0,0,1-1.31.11,29.66,29.66,0,0,1-7.27-6.5c-.94-1.3-1.52-2.45-.72-3.63.41-.6,5.84-4.57,11.77-6.65,2.1-.5,3.93,2.1,3.45,4.35C37,52.06,33.6,54,34,51.11c-.92.36-5,2.76-5,2.76L33,58.2A.92.92,0,0,1,33.22,59.15Z"/><path class="cls-4" d="M37.29,44.69s2.11,1,3.48,4.57,3,4,4.56,4c2.05,0,1.58-3.51.42-5.67C44.72,45.9,38.3,44.61,37.29,44.69Z"/><path class="cls-11" d="M36.62,35.42l-.07,1.77s1.47,5.19,5.81,5.53C43.64,38.9,36.62,35.42,36.62,35.42Z"/><path class="cls-10" d="M38.65,37.3a4.36,4.36,0,0,0,3,5C43.47,40.58,38.65,37.3,38.65,37.3Z"/><path class="cls-17" d="M44.92,50.23c-.13-1.69,1.35-4.56,1.35-4.56s-.52-3.72-6.15-6a6.15,6.15,0,0,1-1.47,5.72,30.87,30.87,0,0,1,5.67,5.1.35.35,0,0,0,.48,0,.34.34,0,0,0,.12-.29Z"/><path class="cls-11" d="M38.65,30.16s2.13-3.35,3.44-3.9S50,25,53.5,27.18s3.3,5.21,3.3,5.21Z"/><path class="cls-7" d="M36.52,37.19a6.14,6.14,0,0,1,3.91,3.68c.88,3.17,1.08,4.46,4.14,6.43,3.08,1.59,4,1.88,4.73,2S52.5,48.79,53,48s1.88-8.3,1.88-8.3a8.12,8.12,0,0,0,2.21-.59c.38-.33,1-3.56.85-6.29-.91-1.88-5.85-5.52-7.08-5.9s-9.2.17-12.4,1.2C36.67,29.52,35.76,35.78,36.52,37.19Z"/><path class="cls-14" d="M57.27,38.82a1.05,1.05,0,0,1-.17.29,8.1,8.1,0,0,1-2.21.58S53.47,47.22,53,48s-3,1.34-3.7,1.26-1.66-.38-4.74-2c-3-2-3.25-3.27-4.14-6.44a6.13,6.13,0,0,0-3.88-3.67c-.76-1.42.15-7.67,1.94-9.06,3.21-1,11.17-1.59,12.4-1.2l-.54,6.33a1.25,1.25,0,0,0,.76,1.26C52.49,35.14,55.6,36.67,57.27,38.82Z"/><path class="cls-10" d="M44.54,47.3s3,0,3.33-.57C50.45,48,51,48.25,51,48.25a6.21,6.21,0,0,1-3,.76A11.1,11.1,0,0,1,44.54,47.3Z"/><path class="cls-11" d="M55.64,40s1.27-.09,1.44-.82c-.21-.68-3.76-3.61-6.91-4.29a17.27,17.27,0,0,0-2.28-.24.66.66,0,0,0-.65.55l-.92,6.46A6.13,6.13,0,0,0,46.73,45a5,5,0,0,0,3,3c3.18,1,4-.47,4.14-1.2s1-7,1-7Z"/><path class="cls-18" d="M44,38a1.85,1.85,0,0,1-1.6,1.64h-.2a1.76,1.76,0,0,1-1-2.19c.21-1,1-1.77,1.79-1.62a1.27,1.27,0,0,1,.81.62A2.31,2.31,0,0,1,44,38Z"/><path class="cls-10" d="M44,38a1.85,1.85,0,0,1-1.6,1.64,1.72,1.72,0,0,1-.76-2c.19-1,.93-1.64,1.65-1.52a1,1,0,0,1,.47.23A2.31,2.31,0,0,1,44,38Z"/><path class="cls-12" d="M56.24,39.37a1.41,1.41,0,0,1-.91,1.26,1.09,1.09,0,0,0-.27.4,1.68,1.68,0,0,0,.21,1.52.4.4,0,0,1,0,.35,1.11,1.11,0,0,1-.42.55,6.79,6.79,0,0,1-.32,2.65,2.75,2.75,0,0,1-1.4,1.33,3.67,3.67,0,0,1-2.89-.1,5.22,5.22,0,0,1-3-4.85,39.74,39.74,0,0,1,.58-4.15c.15-.87.29-1.68.38-2.17a.57.57,0,0,1,.64-.46,12.34,12.34,0,0,1,1.91.45C53.53,37,55.92,38.77,56.24,39.37Z"/><path class="cls-4" d="M55.33,42.86a.13.13,0,0,0-.11-.17h0c-.52.08-1.89.32-1.8.54s.82.37,1.52.2A.74.74,0,0,0,55.33,42.86Z"/><path class="cls-19" d="M51.7,41.69a.68.68,0,0,1-.9.29c-.4-.13-.64-.47-.55-.76a.68.68,0,0,1,.9-.29C51.55,41.1,51.84,41.41,51.7,41.69Z"/><path class="cls-20" d="M53.17,47.4a3.67,3.67,0,0,1-2.89-.1,5.22,5.22,0,0,1-3-4.85c0-1.14.71-4.92,1-6.32a.57.57,0,0,1,.64-.46,12.34,12.34,0,0,1,1.91.45,5.89,5.89,0,0,1-.25,1.38c-.1-.07-.76.41-1,1.74S47.76,46.68,53.17,47.4Z"/><path class="cls-4" d="M56.24,39.37a1.41,1.41,0,0,1-.91,1.26,1.09,1.09,0,0,0-.27.4c-2.22-2.17-5.44-2.64-7.25-2.73.14-.87.29-1.68.38-2.17a.56.56,0,0,1,.64-.46,12.9,12.9,0,0,1,1.91.45C53.53,37,55.92,38.77,56.24,39.37Z"/><path class="cls-21" d="M55.8,40.64a.25.25,0,0,1-.16-.06,1.3,1.3,0,0,0-.43-.15.24.24,0,0,1-.21-.27h0a.24.24,0,0,1,.26-.21h0a1.61,1.61,0,0,1,.68.26.25.25,0,0,1,0,.35h0A.26.26,0,0,1,55.8,40.64Z"/><path class="cls-21" d="M53.54,39.12a.34.34,0,0,1-.19-.09,3.36,3.36,0,0,0-1-.76.24.24,0,0,1-.12-.33.27.27,0,0,1,.34-.12,4.65,4.65,0,0,1,1.12.86.25.25,0,0,1,0,.34h0A.26.26,0,0,1,53.54,39.12Z"/><path class="cls-22" d="M54.45,43.63a2.44,2.44,0,0,1-1-.25.1.1,0,0,1-.05-.15h0a.12.12,0,0,1,.16-.06h0a1.74,1.74,0,0,0,1.34.15.12.12,0,0,1,.16,0h0a.12.12,0,0,1,0,.16h0A1.38,1.38,0,0,1,54.45,43.63Z"/><path class="cls-18" d="M41.84,44.05a.12.12,0,0,1-.12-.13.14.14,0,0,1,.12-.13A26.28,26.28,0,0,0,46,43.38a.13.13,0,0,1,.06.25h0A27.05,27.05,0,0,1,41.84,44.05Z"/><path class="cls-18" d="M47.34,34.25h0a.11.11,0,0,1-.09-.14h0c.52-2.17,1-6.61,1-6.65a.12.12,0,0,1,.14-.11h0a.12.12,0,0,1,.11.14S48,32,47.49,34.16a.11.11,0,0,1-.13.1Z"/><path class="cls-23" d="M53.69,45.26a.23.23,0,0,1-.2-.11c-.3-.53-1.2-.58-1.31-.57a.25.25,0,0,1-.27-.15.23.23,0,0,1,.15-.28,2,2,0,0,1,1.82.76.22.22,0,0,1-.08.3h0A.18.18,0,0,1,53.69,45.26Zm-1.52-.69Z"/><ellipse class="cls-13" cx="52.55" cy="40.04" rx="0.66" ry="0.91"/><path class="cls-4" d="M52.55,41.1a1.07,1.07,0,1,1,.72-1.34,1.06,1.06,0,0,1,0,.31A.93.93,0,0,1,52.55,41.1Zm0-1.82c-.29,0-.53.35-.53.76s.24.76.53.76.54-.35.54-.76-.24-.79-.54-.79Z"/><path class="cls-21" d="M53.22,40.17a.13.13,0,0,1-.13-.13c0-.43-.24-.76-.54-.76S52,39.64,52,40a.13.13,0,0,1-.13.13.12.12,0,0,1-.12-.13.82.82,0,0,1,1.57-.44.82.82,0,0,1,0,.44.13.13,0,0,1-.12.13Z"/><path class="cls-10" d="M53.22,40.24c0,.31-.19.56-.42.56s-.41-.25-.41-.56.19-.55.41-.55A.5.5,0,0,1,53.22,40.24Z"/><path class="cls-13" d="M52.8,40a.16.16,0,0,1-.19.13.17.17,0,0,1-.13-.2.16.16,0,0,1,.16-.13A.18.18,0,0,1,52.8,40Z"/><path class="cls-4" d="M34,51.11l2.28-1.18a4.73,4.73,0,0,1-.37,2.13,1.76,1.76,0,0,1-2,.35Z"/><path class="cls-18" d="M40.09,59.92h0l-2.49-.13a.14.14,0,0,1-.11-.13.13.13,0,0,1,.13-.12l2.37.13,0-.76a.12.12,0,0,1,.24,0l-.06.89a.12.12,0,0,1-.12.12Z"/><path class="cls-18" d="M40.11,60.56H40l-.61-.67a.17.17,0,0,1,0-.14.12.12,0,0,1,.13-.06,3.81,3.81,0,0,1,1.6.61.13.13,0,0,1,0,.18h0a.14.14,0,0,1-.17,0,3.18,3.18,0,0,0-1.13-.5l.34.38a.14.14,0,0,1,0,.18h0A.1.1,0,0,1,40.11,60.56Z"/><path class="cls-4" d="M79.28,63.09l9-6.59A2.77,2.77,0,0,0,89,52.7l-.13-.19A2.78,2.78,0,0,0,85,51.77l-.2.15-8.11,6.39Z"/><path class="cls-12" d="M117.85,87.51c-.08.07-9.52-2.82-12.29-3.68a3.47,3.47,0,0,1-.76-.22h0a3.32,3.32,0,0,1-1.9-2.43l-3.28-9,7.16-4.1L109,78.39A16.77,16.77,0,0,1,118.41,83C119,86.57,117.85,87.51,117.85,87.51Z"/><path class="cls-8" d="M116.5,87.11c-2.73-.76-8.79-2.65-10.92-3.31a3.31,3.31,0,0,1-.76-.22h0a3.3,3.3,0,0,1-1.9-2.43l-3.3-8.93,7.16-4.1L109,78.39a11.82,11.82,0,0,1,1.17.18C110,81.79,113.74,85.14,116.5,87.11Z"/><path class="cls-8" d="M88,79.14c1.28,3.47,0,9.68,0,9.68h-4.9L81.88,78l-.09-.76a3.3,3.3,0,0,1,1.33-2.65l8.28-7.45,6,4.46L87.88,79a0,0,0,0,1,0,0Z"/><path class="cls-24" d="M88,88.85h-4.9l-.76-6.48c1.64,0,4-.08,6.19-.17A30.27,30.27,0,0,1,88,88.85Z"/><path class="cls-8" d="M81.88,78a3.16,3.16,0,0,1-.09-.76Z"/><path class="cls-9" d="M74.42,95.17a3.61,3.61,0,0,0,1.23.6c.54.11,5.16-.31,8.59-.22,3,.24,4.5.22,4.5.22s.83,0,.67-1.08a26.92,26.92,0,0,0-1-3.29l.08-3.4c-.16-.1-4.85-.29-4.85-.29S83.59,86,82.53,86l-.09,3.49s-2.86,2.11-4.13,3a2.6,2.6,0,0,1-.45.28c-.11,0-2.13.86-3.34,1.37a.58.58,0,0,0-.1,1Z"/><path class="cls-10" d="M88.74,95.77s-1.43,0-4.5-.22c-3.43-.09-8,.33-8.59.22a3.28,3.28,0,0,1-1.23-.6.59.59,0,0,1-.13-.82.52.52,0,0,1,.19-.17.16.16,0,0,0,.08.06,3.28,3.28,0,0,0,1.23.6c.55.12,5.16-.31,8.59-.22,3,.25,4.51.22,4.51.22a.81.81,0,0,0,.51-.26v.11C89.57,95.72,88.74,95.77,88.74,95.77Z"/><path class="cls-10" d="M78.31,92.51l.7.71,4.62-3.64.05-1.87S83.59,86,82.53,86l-.09,3.49S79.58,91.63,78.31,92.51Z"/><path class="cls-25" d="M117.85,87.51s-3.8-1.09-7.27-2.15a27.44,27.44,0,0,0,1.78-5.53.49.49,0,0,1,.59-.37l.08,0A17.8,17.8,0,0,1,118.41,83C119,86.57,117.85,87.51,117.85,87.51Z"/><path class="cls-9" d="M114.22,95.39a1.85,1.85,0,0,0,1.12.83h2.12a2.05,2.05,0,0,0,1.77-1c.9-1.52,2.58-4.46,3.23-5.52,1.74-2.55,2.43-3.81,2.43-3.81s.36-.76-.6-1.12A27.19,27.19,0,0,0,121,84l-3.28-2.16a.37.37,0,0,0-.51.12s0,0,0,0c-.49,1.08-1.72,4.09-1.72,4.09s-1.63-.48-2,.51l2.82.93s.48,4.27.6,5.81c0,.28-1.13.94-2.08,1.09a.76.76,0,0,0-.58.91S114.22,95.37,114.22,95.39Z"/><path class="cls-10" d="M124.87,85.87s-.69,1.26-2.42,3.81c-.66,1.06-2.34,4-3.24,5.52a2,2,0,0,1-1.76,1h-2.12a2.26,2.26,0,0,1-.81-.43h2.14a2,2,0,0,0,1.76-1c.9-1.52,2.58-4.45,3.24-5.53,1.73-2.54,2.42-3.8,2.42-3.8a.77.77,0,0,0-.12-.81l.31.11C125.28,85.14,124.87,85.87,124.87,85.87Z"/><path class="cls-10" d="M116.89,93.3l1-.25-.66-6.3-1.74-.68s-1.63-.48-2,.51l2.81.94S116.76,91.76,116.89,93.3Z"/><path class="cls-24" d="M92.42,79.56a23.23,23.23,0,0,1-7.33-7.07l7.91-8,6.74-.7.27,8.08Z"/><path class="cls-26" d="M97,75c1.05-6.16-2.65-8.43-5.18-9.25L93,64.46l6.74-.7.28,8.09Z"/><path class="cls-25" d="M111.54,77.22c-.47.24-1,.47-1.43.69-.23.1-.46.21-.7.3l-.54.23-.71.27a31.3,31.3,0,0,1-6.31,1.63L96.72,65.23l5.12-1.59.77-.22.57-.17.76-.23,4.2-1.34c.92,2.59,1.09,5,.55,6.36Z"/><path class="cls-13" d="M108.9,78.44l-.71.27-6.33-15.07-.15-.36a.38.38,0,0,1,.65-.4.42.42,0,0,1,0,.1l.18.44Z"/><path class="cls-13" d="M110.11,77.91c-.23.1-.46.21-.7.3l-6.29-15-.26-.61a.4.4,0,0,1,.21-.5.37.37,0,0,1,.49.2l.29.68Z"/><path class="cls-8" d="M68.23,53.87c2.39,4.32,4.72,8.49,7.89,10.85,1.31.22,3.94-1.47,5.08-3L71.62,51.13Z"/><path class="cls-25" d="M108.14,61.68a13.38,13.38,0,0,1-3.7,1.9c-4.22,1.66-10.65,3.34-12.17,1.6-1.1-7.54-5.89-7.41-7.43-10.07-1.66-2.86.29-5.43,2-7a13,13,0,0,1,2-1.52c.8-.47,8.52-1.71,11,.3A34.07,34.07,0,0,1,108.14,61.68Z"/><path class="cls-24" d="M104.47,63.58c-4.22,1.66-10.65,3.34-12.17,1.6-1.1-7.54-5.89-7.41-7.43-10.07-1.66-2.86.29-5.43,2-7C94,49.47,101.29,53.49,104.47,63.58Z"/><path class="cls-27" d="M108.14,61.68c-1.28,1.4-13.63,6-15.88,3.5a13.85,13.85,0,0,0-.76-3c2.68,2,14.1-2.21,15.61-3.64A22.09,22.09,0,0,1,108.14,61.68Z"/><path class="cls-13" d="M107.78,62a24.69,24.69,0,0,1-4.87,2.17c-.3-1.19-.61-2.28-.91-3.17a27.16,27.16,0,0,0,4.66-2A13.62,13.62,0,0,1,107.78,62Z"/><path class="cls-25" d="M91.55,62.22a1.8,1.8,0,0,1-.2-.19,3.85,3.85,0,0,0-.08-.49A4,4,0,0,1,91.55,62.22Z"/><path class="cls-10" d="M74,54.09A10,10,0,0,1,70,57a.46.46,0,0,1-.56-.18l-1.94-3.15,3.88-3L74,53.59A.39.39,0,0,1,74,54.09Z"/><path class="cls-26" d="M71.09,52a12.5,12.5,0,0,1-2.29,1.66,1.68,1.68,0,0,1-1.87-.16,17.2,17.2,0,0,1-3.09-3.23,1.69,1.69,0,0,1,.35-2.36h0l3.34-2.48a1.67,1.67,0,0,1,2.35.35l0,.05c.77,1.12,1,2.83,1.53,4.28A1.78,1.78,0,0,1,71.09,52Z"/><ellipse class="cls-20" cx="98.39" cy="50.11" rx="3.74" ry="4.63" transform="translate(-3.8 91.94) rotate(-49.25)"/><path class="cls-12" d="M109.26,49.89,99,46.37a2.78,2.78,0,0,0-3.5,1.68l-.09.23a2.76,2.76,0,0,0,1.68,3.53l.24.08,8,2.07.77-.81Z"/><path class="cls-28" d="M69.52,48.12l-3.34,2.33a1.2,1.2,0,0,1-1.46-.1L64,49.71A1.19,1.19,0,0,1,63.83,48a1,1,0,0,1,.21-.19l3.55-2.65a1.21,1.21,0,0,1,1.68.26,1.1,1.1,0,0,1,.09.14l.52,1A1.2,1.2,0,0,1,69.52,48.12Z"/><path class="cls-12" d="M105.37,51.55,97.55,57.4l2.72,3.41c4.34-2.34,8.54-4.62,10.93-7.77.34-1.2.08-2.6-3.09-3.53Z"/><path class="cls-5" d="M100.22,61.09l3-1.62a8.8,8.8,0,0,0-3-4.19l-2.29,1.58Z"/><path class="cls-29" d="M97.13,66.46l1.12-1.19a1.36,1.36,0,0,0,.19-1.7l-3.36-4.21a.26.26,0,0,0-.27-.11l-2.47.41a.3.3,0,0,0-.19.16l-.61.54a2.65,2.65,0,0,0,.69,2.58l3,3.43a1.3,1.3,0,0,0,1.84.14Z"/><path class="cls-30" d="M97.61,64c1.39-1,3-1.53,3.17-3.12l-2.87-4-5.83,2.58a1,1,0,0,0-.43,1.37,1,1,0,0,0,.17.23l2.86,3A2.09,2.09,0,0,0,97.61,64Z"/><polygon class="cls-20" points="102.98 53.34 107.12 50.12 101.42 52.94 102.98 53.34"/><path class="cls-20" d="M85.54,50.81s1.78,4.13,3.8,4.67,2.9-.42,2.73-2.34c-.15-1.56-.71-4.35.11-6a.66.66,0,0,0-.29-.87.71.71,0,0,0-.32-.07A10.52,10.52,0,0,0,86.29,48C84.73,49.47,85.54,50.81,85.54,50.81Z"/><path class="cls-12" d="M90.58,46.89a15.8,15.8,0,0,1-4.16-1.22,9.72,9.72,0,0,0-2.48,7.6c1.91-1.37,4.16.44,4.16.44a.9.9,0,0,0,1,0A26.74,26.74,0,0,1,90.15,48Z"/><path class="cls-10" d="M85.46,46.55a3.63,3.63,0,0,0,3.66.09c-.61-.53-.26-1-.19-1.52a4.37,4.37,0,0,0-.22-.95S85.81,45.52,85.46,46.55Z"/><path class="cls-28" d="M70.76,38a9.9,9.9,0,0,1,5-4.29,18.94,18.94,0,0,1,7.49-.61,11,11,0,0,1,4.86,3.1C79.82,37.35,70.76,38,70.76,38Z"/><path class="cls-31" d="M71.89,37.46A9.58,9.58,0,0,1,73.83,35c.83-.5-.69,2.29-.69,2.29Z"/><path class="cls-31" d="M85.31,36.26s-1.9-1.65-1.68-2,2.37,1,3,2A2.62,2.62,0,0,1,85.31,36.26Z"/><path class="cls-31" d="M77.1,37.3s.7-2.86,1.32-3,.92,2.33.92,2.59S77.1,37.3,77.1,37.3Z"/><path class="cls-20" d="M81,55.82s-.32,0-1.14,0c-.6,0-1.43,0-2.58,0a4.46,4.46,0,0,1-3.74-2.45h0a5.43,5.43,0,0,1-.63-1.74c-.92-.05-1.36-1.06-1-1.52a1.05,1.05,0,0,0,.59-.94,1.85,1.85,0,0,0-.6-1.12,1.43,1.43,0,0,1-.42-.93,13.54,13.54,0,0,0-.18-1.56l8.58-3.8.7-.31v1.14l.18,4.6Z"/><path class="cls-32" d="M79.86,55.86c-.6,0-1.43,0-2.58,0a4.46,4.46,0,0,1-3.74-2.45,7.33,7.33,0,0,0,6.21,1.57C79.79,55.24,79.82,55.56,79.86,55.86Z"/><path class="cls-23" d="M74.23,52.81H73.14a.24.24,0,0,1-.27-.18.23.23,0,0,1,.19-.27h1.21a.23.23,0,0,1,.18.27.24.24,0,0,1-.18.18Z"/><ellipse class="cls-19" cx="75.08" cy="49.91" rx="0.76" ry="0.56" transform="translate(-9.8 19.53) rotate(-13.92)"/><path class="cls-32" d="M71.79,50.4a1.45,1.45,0,0,0,1.65.76,1.14,1.14,0,0,1-.54.5,1.12,1.12,0,0,1-1.12-1.14A.49.49,0,0,1,71.79,50.4Z"/><path class="cls-32" d="M80.75,47.19a33.08,33.08,0,0,1-8.26,2,1.88,1.88,0,0,0-.6-1.12,1.39,1.39,0,0,1-.42-.92,13.29,13.29,0,0,0-.18-1.56l8.58-3.81.76.84Z"/><path class="cls-21" d="M73,47.42a.22.22,0,0,1-.21-.11.25.25,0,0,1,.09-.34l1.52-.92a.23.23,0,0,1,.33.08h0a.25.25,0,0,1-.09.34l-1.52.92A.28.28,0,0,1,73,47.42Z"/><ellipse class="cls-13" cx="74.2" cy="48.18" rx="0.62" ry="1"/><path class="cls-4" d="M74.2,49.29c-.42,0-.76-.49-.76-1.11s.32-1.12.76-1.12.76.48.76,1.12S74.61,49.29,74.2,49.29Zm0-2c-.28,0-.5.4-.5.88s.22.86.5.86.49-.39.49-.86S74.46,47.3,74.2,47.3Z"/><ellipse class="cls-10" cx="73.92" cy="48.01" rx="0.31" ry="0.73"/><path class="cls-13" d="M74.22,47.86a.16.16,0,1,1-.31-.06.16.16,0,0,1,.16-.13A.18.18,0,0,1,74.22,47.86Z"/><path class="cls-21" d="M74.81,48.3a.12.12,0,0,1-.14-.09,0,0,0,0,1,0,0c0-.48-.23-.88-.49-.88s-.5.4-.5.88a.13.13,0,0,1-.13.12.13.13,0,0,1-.12-.12h0c0-.64.33-1.12.76-1.12s.76.48.76,1.12a.12.12,0,0,1-.12.12Z"/><path class="cls-25" d="M90.43,42a3.78,3.78,0,0,1-1.53,3l-.38-.4s-3.6,3.15-3.94,5.38-.16,5.48-.72,5.87a45.34,45.34,0,0,1-5.44.76,9.76,9.76,0,0,1-1.87.07c-.56-.17-.34-.95-.34-.95h1.67s.66-8.86.66-9.08a4,4,0,0,0-.44-1l-7.15,1-.61-.3s-.1-.08-.14-.23C69.76,44.82,70,38,70,38c.56-.85,4.66-1.58,4.77-1,9.42-1.33,13.74-1.28,14.57-.86S90.43,42,90.43,42Z"/><path class="cls-28" d="M90.36,42.8a4.31,4.31,0,0,1-1.43,2.28l-.39-.4Z"/><path class="cls-28" d="M79.42,46.08,79,56.65l-.48.05a10.72,10.72,0,0,1-1.88.07c-.55-.17-.33-1-.33-1h1.67s.66-8.86.66-9.08a3.86,3.86,0,0,0-.44-1l-7.16,1-.6-.31c-.06,0-.1-.1-.14-.22C69.81,44.83,70,38,70,38c.39-.6,2.51-1.13,3.8-1.21l.44,8.3,4.65-.47Z"/><path class="cls-33" d="M90.43,42v.34c-.07-1-.39-5.33-1.14-5.69s-5.32-.47-15.1.86c-.09-.45-2.81-.08-4.2.53V38c.56-.86,4.66-1.59,4.76-1,9.43-1.34,13.75-1.28,14.58-.86S90.43,42,90.43,42Z"/><path class="cls-31" d="M79.14,46.33l-.67,9.85a.6.6,0,0,1-.56.56,6.09,6.09,0,0,1-1.35,0c-.55-.16-.33-.94-.33-.94h1.23a.48.48,0,0,0,.47-.43c.12-1.76.63-8.46.63-8.65a4.25,4.25,0,0,0-.44-1l-7.16,1-.6-.31s-.1-.07-.14-.23c.14,0,5.39-.83,8.37-1C79.1,46.21,79.14,46.33,79.14,46.33Z"/><path class="cls-31" d="M82.94,47.1A1.84,1.84,0,0,1,81.6,49h-.2c-.76,0-1.4-.94-1.34-2s.76-1.91,1.52-1.86a1.2,1.2,0,0,1,.89.49A2.32,2.32,0,0,1,82.94,47.1Z"/><path class="cls-34" d="M82.94,47.1A1.84,1.84,0,0,1,81.6,49a1.71,1.71,0,0,1-1-1.82c.05-1,.69-1.76,1.42-1.72a1,1,0,0,1,.49.16A2.33,2.33,0,0,1,82.94,47.1Z"/><path class="cls-31" d="M75.22,45.21a.11.11,0,0,1-.12-.11L74.62,37a.11.11,0,0,1,.09-.15.13.13,0,0,1,.16.09V37l.47,8.11a.12.12,0,0,1-.11.12h0Z"/><path class="cls-10" d="M75.31,55.25a8.65,8.65,0,0,0,2.12.58v1a3.84,3.84,0,0,1-2.36-.58A1.55,1.55,0,0,1,75.31,55.25Z"/><path class="cls-31" d="M97.55,64.86a.06.06,0,0,1-.06,0,.12.12,0,0,1,0-.17l.4-.67-.59.41a.13.13,0,0,1-.17-.08.13.13,0,0,1,0-.13l1.07-.76a.15.15,0,0,1,.16,0,.14.14,0,0,1,0,.15l-.7,1.17A.11.11,0,0,1,97.55,64.86Z"/></g></g></svg>