<svg id="Layer_6" data-name="Layer 6" xmlns="http://www.w3.org/2000/svg" viewBox="0 0 128 128"><defs><style>.cls-1{fill:#dd222b;}.cls-2{fill:#9e9c9c;}.cls-3{fill:#dadada;}.cls-4{fill:#c3c7c4;}.cls-5{fill:#b5b5b5;}.cls-6{fill:#eee;}.cls-7{fill:#baab8b;}.cls-8{fill:#e0dfd9;}.cls-9{fill:#d5d9d9;}.cls-10{fill:#413636;}.cls-11{fill:#ebbd72;}.cls-12{fill:#d1a25f;}.cls-13{fill:#de191a;}.cls-14{fill:#dea763;}.cls-15{fill:#0083c2;}.cls-16{fill:#ef3425;}.cls-17{fill:#f2f2f0;}.cls-18{fill:#896142;}</style></defs><g id="Layer_2" data-name="Layer 2"><g id="Layer_1-2" data-name="Layer 1-2"><path class="cls-1" d="M14.81,18.88v-2.2c0-.08,0-.16,0-.25a12.14,12.14,0,0,1,3.33-7.38,20.18,20.18,0,0,1,6.67-4.53A40.13,40.13,0,0,1,32,2.16c1.43-.36,2.85-.72,4.29-1A57.27,57.27,0,0,1,43.48.7a1.83,1.83,0,0,0,.57,0h6.53l.25,0c1.05,0,2.08.06,3.14.1,1.75.07,3.48.19,5.21.34,2.16.18,4.33.41,6.47.78A48.21,48.21,0,0,1,75.9,4.4c1.28.51,2.62.79,3.92,1.21a126.27,126.27,0,0,1,16.87,6.11,59.48,59.48,0,0,1,9.19,5.14,1.09,1.09,0,0,1,.26.21,3.37,3.37,0,0,0,1.14,1c1,.58,1.9,1.13,2.84,1.72a22.18,22.18,0,0,1,5.29,4.36,12.8,12.8,0,0,1,3,6c.09.49.15,1,.23,1.47V33.7c0,.33-.08.64-.13,1a22.46,22.46,0,0,1-2.13,6.74,47.87,47.87,0,0,1-6,9.26c-.52.66-1.1,1.28-1.57,2s-.9,1.3-1.39,1.92A162.78,162.78,0,0,1,96.05,67.42c-1.69,1.75-3.42,3.46-5.18,5.15s-3.62,3.37-5.58,5.08a117.32,117.32,0,0,1-9.72,7.63A74.06,74.06,0,0,1,65,91.56a4.8,4.8,0,0,0-.7.39c-.91.59-1.82,1.17-2.76,1.7a26.34,26.34,0,0,1-9.17,3.25c-.51.07-1,.12-1.57.18H48.43a.83.83,0,0,0-.22,0,17.83,17.83,0,0,1-6.52-1.77A24.09,24.09,0,0,1,33.9,89a43.6,43.6,0,0,1-5.41-8.29,80.43,80.43,0,0,1-4.76-11.63c-.4-1.2-.72-2.42-1.23-3.58a86.84,86.84,0,0,1-4.65-14,97.36,97.36,0,0,1-2.43-14.37c-.23-2.48-.36-5-.39-7.45q0-3.09.19-6.22a6.89,6.89,0,0,0-.05-1.87,5.19,5.19,0,0,0-.11-.65C15,20.22,14.9,19.55,14.81,18.88Z"/><path class="cls-2" d="M35.12,127a5.82,5.82,0,0,1-2.5.49,5.5,5.5,0,0,1-4.8-2.75,5.57,5.57,0,0,1-.74-2.79h0a5.72,5.72,0,0,1,.74-2.8,5.46,5.46,0,0,1,2-2,5.66,5.66,0,0,1,2.9-.75,6.3,6.3,0,0,1,2.43.43A5.79,5.79,0,0,1,37,118l-1.49,1.74a5.06,5.06,0,0,0-1.33-.91,3.3,3.3,0,0,0-1.42-.31,3,3,0,0,0-1.61.46A3.21,3.21,0,0,0,30,120.2a3.61,3.61,0,0,0-.39,1.68h0a3.65,3.65,0,0,0,.39,1.69,3.31,3.31,0,0,0,1.11,1.24,3,3,0,0,0,1.62.45,3.28,3.28,0,0,0,1.48-.31,5.46,5.46,0,0,0,1.33-1L37,125.48A6.26,6.26,0,0,1,35.12,127Z"/><path class="cls-2" d="M38.92,116.51h2.37v8.6h5.36v2.16H38.92Z"/><path class="cls-2" d="M48.55,116.51h2.36v10.76H48.55Z"/><path class="cls-2" d="M62,120.24l-3,4.6h-.07l-3-4.56v7H53.6V116.51h2.55L59,121.05l2.83-4.54h2.55v10.76H62Z"/><path class="cls-2" d="M75,126.53a5.18,5.18,0,0,1-3,.74H66.94V116.51h5a4.12,4.12,0,0,1,2.59.74,2.47,2.47,0,0,1,1,2h0a2.55,2.55,0,0,1-1.42,2.32,3.45,3.45,0,0,1,1.49,1,2.49,2.49,0,0,1,.51,1.64h0A2.54,2.54,0,0,1,75,126.53Zm-2.28-7.67a1.93,1.93,0,0,0-1.15-.28H69.24v2.28h2.18a2.54,2.54,0,0,0,1.27-.28.91.91,0,0,0,.44-.86h0A1,1,0,0,0,72.73,118.86Zm.57,4.27a2.27,2.27,0,0,0-1.32-.31H69.24v2.37h2.82a2.28,2.28,0,0,0,1.23-.29,1,1,0,0,0,.44-.88h0A1,1,0,0,0,73.3,123.13Z"/><path class="cls-2" d="M78.14,116.51h2.37v10.76H78.14Z"/><path class="cls-2" d="M85.53,120.43v6.84H83.2V116.51h2.18l5,6.62v-6.62h2.34v10.76h-2Z"/><path class="cls-2" d="M100.52,127.45a5.93,5.93,0,0,1-2.94-.75,5.05,5.05,0,0,1-2-2,5.69,5.69,0,0,1-.74-2.85h0a5.47,5.47,0,0,1,.74-2.79,5.54,5.54,0,0,1,2-2,5.74,5.74,0,0,1,2.89-.74,6.61,6.61,0,0,1,2.37.37,6.26,6.26,0,0,1,1.86,1.1l-1.49,1.8a4.82,4.82,0,0,0-1.31-.82,3.79,3.79,0,0,0-1.49-.27,2.92,2.92,0,0,0-1.55.45,3.34,3.34,0,0,0-1.13,1.23,3.5,3.5,0,0,0-.41,1.67h0a3.7,3.7,0,0,0,.41,1.76,3,3,0,0,0,1.16,1.22,3.32,3.32,0,0,0,1.68.44,3.72,3.72,0,0,0,2.24-.65v-1.54h-2.38v-2h4.67v4.74A6.94,6.94,0,0,1,100.52,127.45Z"/><path class="cls-3" d="M35,16s-9.64,3.23-10.11,5.14-2.61,9.67-2.08,13.28,2.78,11.22,3,12.63,4.38,15.53,8.34,18.18S53.89,81.6,54.37,83s5,11.77,8.36,13.77,25.22,2.35,30.51.54c2.68-.93,4.75-3.14,6.42-5.31,1-1.37,4.78-5.82,4.31-7.58-.06-.21-.44-.06-.3-.58,1.57-6.09,1.8-8.44,0-11-1.46-2.28-8.3-5.94-8.3-5.94-1.62-2.48-3.81-3.27-6-5.4a23.18,23.18,0,0,0-3.07-2.42L78.9,53.84c-1.7-1.18-5.35-2.78-6.33-4.67-.64-1.24,3.19-8,4-8.71s.79-3.64.89-4.71c.18-1.61.23-3.23.38-4.84s.79-3.14,0-4.57c-1.44-2.64-6.28-4.49-8.82-5.86a71.53,71.53,0,0,0-11.5-4.91c-2.92-1-5.8-2.07-8.69-3.14-2.13-.79-4.64-2.31-6.81-1.31A38,38,0,0,0,35,16Z"/><path class="cls-4" d="M66,36.13c-1.1-3.51-3.86-6-7-7.77s-4.86-3.55-8.2-4.61c-2.36-.74-3.07-6.17-5.4-6.88,0,0-4.67.68-7.2-.07-.59-.17-4.91,2.77-5.49,3.18a.67.67,0,0,0-.19.91,4.72,4.72,0,0,0,1.43,1.62,10.74,10.74,0,0,0,4.38,2,20.88,20.88,0,0,1,5.6,1.88c1.68,1,2.59,2.91,3.71,4.57.61.92,1.32,1.76,1.89,2.7a4.09,4.09,0,0,1,.79,2.14c0,1.39-1.17,2.47-2.24,3.2a13.49,13.49,0,0,1-4.19,1.91c-.42.1-.84.14-1.26.22s-1.71.29-1.11.78h0l.13.1c.1.07,0,.19-.06.22a4.34,4.34,0,0,0,1.11,2,3.09,3.09,0,0,0,3,1,8.35,8.35,0,0,1,3-.13c1.64.43,2.61,2,3.86,3.05a3.69,3.69,0,0,0,2.87.84c1.18-.1,2.11,0,3.3,0,2.7,0,3.74-.21,6.12-.36.92,0,2.48-1.9,2.62-2.82a12.24,12.24,0,0,0,0-3.2A35.67,35.67,0,0,0,66,36.13Z"/><path class="cls-5" d="M41.58,42.25h0a4.4,4.4,0,0,0,1.12,2,3,3,0,0,0,2.77,1A15.48,15.48,0,0,1,41.58,42.25Z"/><path class="cls-6" d="M67.39,42.53a9.2,9.2,0,0,1-.62,1c-2.52,3.67-7.91,3.52-11.77,2.48a14.18,14.18,0,0,0-2.22-.57,7.54,7.54,0,0,0-2.12.11l-.92.15c1,.68,1.76,1.75,2.68,2.5a3.69,3.69,0,0,0,2.87.84c1.18-.1,2.11,0,3.3,0,2.71,0,3.74-.21,6.13-.35.92-.06,2.47-1.91,2.61-2.83a12.05,12.05,0,0,0,.06-3.23Z"/><path class="cls-7" d="M66.61,96.9a25.56,25.56,0,0,1-3.93-4.63,46.29,46.29,0,0,1-3-5.56c-1-2-1.88-4.13-3-6.12s-2.36-3.8-3.61-5.63a56.08,56.08,0,0,0-8.82-10.2c-3.1-2.74-6.82-5-9.08-8.5a26.19,26.19,0,0,1-2.66-6.15,40.92,40.92,0,0,1-1.38-6.28c-.6-4.36-.5-8.78-1-13.16-.39-3.7-.79-7.91,1.57-11.06C33,18,36.42,17.66,38.14,16.76s2.06-2.35,4-2.79a36.73,36.73,0,0,1,8.43-.92l-1.75-.62c-2.13-.79-4.64-2.31-6.81-1.31A37.41,37.41,0,0,0,35,16s-9.64,3.22-10.1,5.14-2.61,9.68-2.08,13.29,2.78,11.22,3,12.63,4.38,15.53,8.34,18.18S53.89,81.6,54.37,83s5,11.77,8.36,13.77a15.76,15.76,0,0,0,5,1.12Q67.15,97.4,66.61,96.9Z"/><path class="cls-6" d="M87.6,96C87.19,93.3,85.73,68,83,67S59.65,64.1,57.45,62.44a11.5,11.5,0,0,1-4.27-7.91,5.87,5.87,0,0,0-.36-2.16c-.49-.88-1.76-1.12-2.64-1.4C47.12,50,44,49.3,41,48.13c-2.73-1.06-5.49-2.2-8.07-3.51A24.32,24.32,0,0,1,25.94,40,19,19,0,0,1,23,35.86c.79,3.92,2.56,9.91,2.77,11.16.23,1.42,4.38,15.53,8.34,18.19S53.9,81.59,54.37,83s5,11.77,8.37,13.77C65.4,98.3,79.58,98.87,88,98.14,87.86,97.44,87.71,96.73,87.6,96Z"/><path class="cls-4" d="M79.08,57.63a12.41,12.41,0,0,1-2.46,2.45,33.59,33.59,0,0,0-2.56,2.36,2.89,2.89,0,0,0-1,1.45c-.07.52.37.78.55,1.16s.29,1,.53,1.47A5,5,0,0,0,75,67.66a10.92,10.92,0,0,0,3,2.2,4.93,4.93,0,0,0,3.29.46c2-.4,3.82-1.79,5.91-1.75,1.86.05,2.58,1.64,2.68,3.29a17.87,17.87,0,0,1-.11,2.83,10.21,10.21,0,0,0-.1,2.65c.14.78.78,1.11,1.4,1.43,1.13.55,2.3,1,3.48,1.48s1.08,1,2.28,1.57L99,85c.91.42,4.13-.79,5.07-.17a1.62,1.62,0,0,0,0-.44c-.06-.21-.43-.07-.29-.59,1.57-6.09,1.79-8.44,0-11-1.46-2.28-8.31-5.94-8.31-5.94-1.62-2.48-3.81-3.26-6-5.4A23.18,23.18,0,0,0,86.39,59l-6.18-4.34A7.85,7.85,0,0,1,79.08,57.63Z"/><path class="cls-6" d="M103.68,83.85c.39-1.46.69-2.7.9-3.78a3.89,3.89,0,0,1-3.37,1.39,6.23,6.23,0,0,1-2.53-1.7,15.26,15.26,0,0,0-3.07-1.93A6.35,6.35,0,0,1,92.18,74c-.51-1.57-1.07-3.59-2.76-3.86a5.25,5.25,0,0,1,.4,1.74,19,19,0,0,1-.11,2.82,9.88,9.88,0,0,0-.11,2.66c.14.78.79,1.1,1.41,1.42,1.13.56,2.3,1,3.47,1.49s1.08,1,2.29,1.57L98.94,85c.91.42,4.13-.79,5.07-.17a1.14,1.14,0,0,0,0-.45C103.92,84.18,103.54,84.33,103.68,83.85Z"/><path class="cls-8" d="M104,84.39c0-.21-.43-.06-.29-.58,1.57-6.09,1.8-8.44,0-11-1.46-2.28-8.3-5.94-8.3-5.94-1.51-2.3-3.5-3.14-5.49-4.95a42.25,42.25,0,0,0-3.54-2.87l-7.44-5.22c-1.69-1.18-5.34-2.78-6.32-4.67-.64-1.24,3.19-8,4-8.71s.78-3.64.88-4.71c.18-1.61.23-3.23.39-4.84s.78-3.14,0-4.57c-1.45-2.64-6.28-4.49-8.82-5.86A92.6,92.6,0,0,0,56.7,15.23c3.32,2.8,10.14,6.94,13,10.2,4.71,5.24,3.22,11,.48,17.61-2.31,5.49-1.9,6.71-1.27,9.78,4.45,3.62,9.37,8.27,14,11.41A124.08,124.08,0,0,1,96.91,74.58,17.79,17.79,0,0,1,101,79.29a3.86,3.86,0,0,1,.56,2.41,4.87,4.87,0,0,1-1,2,28,28,0,0,1-4.33,4.51,21,21,0,0,1-5.28,3.62c-4.66,2-9.91,1.82-14.91,1.45s-10.6-.3-15.46,1.39a8.58,8.58,0,0,0,2.15,2.1c3.37,2,25.21,2.35,30.5.54,2.69-.93,4.76-3.14,6.43-5.31C100.71,90.6,104.45,86.15,104,84.39Z"/><path class="cls-9" d="M37.33,74.71A6.64,6.64,0,0,0,35,72.11a25.85,25.85,0,0,1,2.13,2.66A.19.19,0,0,1,37.33,74.71Z"/><path class="cls-9" d="M64.57,81.49a25.77,25.77,0,0,1,6.68-.37,55.91,55.91,0,0,0,6.85,0c.78-.07,1.63-.19,2.44-.33-3.82-3.32-7.78-6.9-8.63-7.49-1.71-1.14-1.28-2.58-2.36-3.71s-1.49-1.29-3.32-1.12c-.27,0-.78,0-1.36.06H52.48l-.16-.16A6,6,0,0,0,46,67.09H45.8l-.38-.91a2,2,0,0,1,.19-.42,10.18,10.18,0,0,1,1.2-1.26,57.28,57.28,0,0,0,4.8-5.63l.32-.45,0-.06c.92-1.32,1.89-2.94,3.2-3.74a6.76,6.76,0,0,0,2.25-1.79c.41-.57.7-1.23,1.11-1.8.25-.33,1.38-.33,1.38-.33s-.61-.87-.93-1.21-1.31-.12-1.75-.29a24.1,24.1,0,0,0-2.66-.54c-.65-.11-1,.6-1.25,1.21s-.72,1.5-1,2.29-9.43,7.63-10,8.14a41.22,41.22,0,0,1-1.72-3.92,8.26,8.26,0,0,0-.16-1h0a6.88,6.88,0,0,0-1-2.74,9,9,0,0,0-2.87-2.3,6.8,6.8,0,0,0-1.3-.56H35.1L34,49.71a6.18,6.18,0,0,1-1-.1c-.46-.08-.38-1.68-.38-1.68s2.29-.08,3.09-.9l.15-.17,0-.07.08-.14,0-.08a.61.61,0,0,1,.07-.14v-.09l0-.15a.14.14,0,0,0,0-.09l0-.16v-.55a6.54,6.54,0,0,0,0-1.17s1.45-.67,1.22-1a4.59,4.59,0,0,1-.9-2,7.81,7.81,0,0,0,.62-2.82c0-1.53-.73-1.83-.73-1.83v-.14h0V36.3h0a2.24,2.24,0,0,0-.1-.68h0l0-.13h0c0-.05,0-.11-.08-.16v-.06l-.07-.08L36,35.11,36,35l-.07-.1-.06-.07-.1-.11a4.4,4.4,0,0,0-1.34-.82A9.59,9.59,0,0,0,31,33.09a5.08,5.08,0,0,0-.78,0c-.22,0-.44.08-.65.14v-.95a.44.44,0,0,1,.05-.22c.56-2.27,1.43-7.44,1.74-9.29s1.26-1.3,3.05-2.35,1.42-1.19,1.42-1.19a8.75,8.75,0,0,1,1.94-.78h.07v-.06h0v-.07h0l-.06-.06h0a.76.76,0,0,0-.09-.09l0,0,0-.21-.11-.09-.06-.06-.08-.08h0l-.21-.16h0c-.41-.31-.89-.66-1.29-.91-1-.65-1.57-.35-3.06.15s-3.42,2.85-3.93,3.61-2.3,4.92-4.38,9.5-.58,4.08-.68,5.77S23.1,39.42,23,41a38.46,38.46,0,0,0,.51,5,27.67,27.67,0,0,0,1.33,3.63C26,52.22,26.36,55,27.31,57.59a9,9,0,0,0,2.6,3.78,44.21,44.21,0,0,1,3.58,3.26,39.62,39.62,0,0,1,2.8,4.3c.79,1.2,2,2,2.48,3.46a6.82,6.82,0,0,1,0,4A13,13,0,0,0,42.65,78a40.44,40.44,0,0,0,7.06,1.47c2.7.27,5.43.4,8.13.59a19,19,0,0,1,6.28,1.21A3.17,3.17,0,0,1,64.57,81.49Zm-13-13.11h-.7A17,17,0,0,1,48.33,68c-.39-.08-.74-.17-1-.25a1.24,1.24,0,0,0-.43-.45,5.5,5.5,0,0,1,4.71,1.09Z"/><path class="cls-10" d="M61,108.9a34.64,34.64,0,0,1-5.12-19.28c0-1.46.21-2.94.35-4.38.18-1.73.36-3.52.38-5.3a28.56,28.56,0,0,0-.79-7.07,11.74,11.74,0,0,0-3.21-6.23c-1.69-1.57-4.55-2.35-6.74-1a.3.3,0,0,0-.12.39.29.29,0,0,0,.39.11l0,0c2-1.21,4.54-.43,6.07,1s2.35,3.19,3,6a28.67,28.67,0,0,1,.79,7c0,1.75-.21,3.53-.38,5.25-.15,1.44-.3,2.93-.35,4.41a35.07,35.07,0,0,0,5.26,19.67A3.89,3.89,0,0,1,61,108.9Z"/><path class="cls-11" d="M23.2,53.57A16.06,16.06,0,0,1,23.3,49c.38-1.73.78-1.2.64-3.3s-.72-4.77-.64-6.37.7-3.68.78-5.37-1.42-1.16.7-5.76,3.83-8.74,4.34-9.52S31.54,15.57,33,15.1s2-.79,3.06-.16,2.54,1.84,2.06,1.86a8.85,8.85,0,0,0-1.94.78s.35.16-1.43,1.19-2.74.49-3,2.35-1.17,7-1.74,9.3.11,13.49-1,16-3.28,6-4.37,6.28A2.45,2.45,0,0,0,23.2,53.57Z"/><path class="cls-6" d="M37.27,15.76c-.73,1.51-2.74,1.93-4.23,2.35A2.72,2.72,0,0,0,31,19.68c-.51,1.31-1,3.14-1.42,4.45A74.38,74.38,0,0,0,27,33.28c-.48,2.79,1,4.51,1.57,7.28.25,1.21.58,2.41.92,3.61.42-4.18.05-11.91.51-13.75.58-2.28,1.44-7.44,1.75-9.29s1.26-1.31,3-2.35,1.43-1.19,1.43-1.19a8.38,8.38,0,0,1,1.94-.78C38.47,16.79,38,16.29,37.27,15.76Z"/><path class="cls-12" d="M46.87,78.2c.46.13,2.36,1.91,3.54,2.11S66,83,66.33,83.82s-1,3.45-.55,5.5,8,15.09,8.32,16.08-.57,2.28-.51,3a3.38,3.38,0,0,0,.63,1.91,2.18,2.18,0,0,0,2.18.55c2.48-.63,1.13-1.61,2.92-1.57s4.05.79,5.66.19,3.64-1.65,3.92-2.35c.35-.94.33-1.94-.47-1.69a25,25,0,0,1-6.05.17c-.4-.11-2.84-.9-3.77-2.67S74,88.48,73.77,86s-.79-8.1-2.32-9.41-10.92-6.88-15.93-5.26S46.05,78,46.87,78.2Z"/><path class="cls-10" d="M85.08,100.69a23.78,23.78,0,0,1-5.78.16,7.71,7.71,0,0,1-2.25-1.1c-1,1.58-4.49,2.12-5.56,1.24.06.89-.6,1.93-.55,2.58a3.21,3.21,0,0,0,.61,1.82,2.06,2.06,0,0,0,2.08.53c2.36-.6,1.07-1.54,2.79-1.49s3.86.74,5.4.18,3.47-1.59,3.74-2.25C85.86,101.41,85.84,100.45,85.08,100.69Z"/><path class="cls-13" d="M66.89,81.94A18.38,18.38,0,0,1,70,79.77a8.49,8.49,0,0,1,2.63-.92,5,5,0,0,0-1.16-2.36c-1.5-1.28-10.91-6.82-15.92-5.2s-9.47,6.67-8.63,6.9c.46.13,2.35,1.91,3.54,2.12,1,.17,11.88,2,15.05,3.09A7.5,7.5,0,0,1,66.89,81.94Z"/><path d="M61.74,79.92h.32v2.25h1.09v.28H61.74Z"/><path d="M75.85,108.5a.89.89,0,0,1-.8,1H75a.86.86,0,0,1-.87-.85v-.09a.9.9,0,0,1,.8-1H75a.87.87,0,0,1,.89.84A.28.28,0,0,1,75.85,108.5Zm-1.44,0c0,.4.23.69.55.69a.62.62,0,0,0,.56-.69c0-.41-.16-.7-.55-.7s-.56.37-.56.73Z"/><path d="M76.27,108.17v-.57h.29V108h0a.54.54,0,0,1,.5-.4h.1v.31h-.11a.46.46,0,0,0-.45.42v1.12h-.33Z"/><path class="cls-14" d="M26.06,62.59a25.9,25.9,0,0,0,4.26,3.55,12.83,12.83,0,0,0,2.35-1.43A10.3,10.3,0,0,0,36,59.33c.74-2.29,1.23-4.91-1-6.55a10.82,10.82,0,0,0-3.5-1.57,11.44,11.44,0,0,0-3.76-.61,6,6,0,0,0-3.19,1.26,13.34,13.34,0,0,0-1.3,1.06,5.28,5.28,0,0,0-.16.66C22.84,55.69,24.76,61.23,26.06,62.59Z"/><path class="cls-14" d="M26.06,62.59a25.9,25.9,0,0,0,4.26,3.55,12.83,12.83,0,0,0,2.35-1.43A10.3,10.3,0,0,0,36,59.33c.74-2.29,1.23-4.91-1-6.55a10.82,10.82,0,0,0-3.5-1.57,11.44,11.44,0,0,0-3.76-.61,6,6,0,0,0-3.19,1.26,13.34,13.34,0,0,0-1.3,1.06,5.28,5.28,0,0,0-.16.66C22.84,55.69,24.76,61.23,26.06,62.59Z"/><path class="cls-8" d="M97,83.06c-.62.28-1.69.79-3,1.45A11.72,11.72,0,0,1,88.56,86C87,86,73.84,73.65,72.13,72.5s-1.28-2.58-2.36-3.7-1.49-1.29-3.32-1.12-12.55.08-15.35-.1a17.4,17.4,0,0,1-4.79-1l-3.75-7.06a40.3,40.3,0,0,1-1.72-3.93c-.09-.58-.5-3-1.18-3.7A10.09,10.09,0,0,0,35.49,49s-1.79-.11-2.24-.19-.39-1.63-.39-1.63,2.29-.1,3.09-.91.66-2.83.66-2.83,1.45-.67,1.22-1a4.56,4.56,0,0,1-.89-2,8.18,8.18,0,0,0,.46-2.77c0-1.53-.74-1.83-.74-1.83A2,2,0,0,0,36,34a8,8,0,0,0-5.49-1.57,6.43,6.43,0,0,0-4.34,3.27c-1,2.31.61,7.69.78,8.19A14.05,14.05,0,0,1,26,49.39c-.59,1.37-1.8,2.43-2.44,3.85a10.38,10.38,0,0,1,1.06-.79,6,6,0,0,1,3.7-1.21,14.66,14.66,0,0,1,4,.82,9.54,9.54,0,0,1,3.22,1.68c1.91,1.65,1.49,4.18.78,6.34a14.85,14.85,0,0,1-1.57,3.61,17.2,17.2,0,0,1,2.62,5.92,14,14,0,0,0,2.46,5.61,14.81,14.81,0,0,0,6.23,4.16,15.27,15.27,0,0,0,3.27.78,4.1,4.1,0,0,1,.84.14c1.57-.52,7.2-1.39,9.91-2.36,3-1.1,3.77-2.12,3.77-2.12a3.62,3.62,0,0,1,1.65.37c.6.39,1.17,1.57,2.22,3.69a12.4,12.4,0,0,0,8,6.32c2.65.78,11,3.92,11,3.92s2.07,3.83,3.63,3.61a2.2,2.2,0,0,0,2-1.65c.06-.37,1.29-1.78,2.43-3.49s4.15-2.71,4.15-2.71l0-.4A14,14,0,0,1,97,83.06Z"/><path class="cls-11" d="M97,82.17c-.62.27-1.69.78-3,1.45a12,12,0,0,1-5.49,1.46c-1.52,0-14.72-12.32-16.43-13.46S70.85,69,69.77,67.91s-1.49-1.3-3.32-1.13-12.55.09-15.35-.1a17.58,17.58,0,0,1-4.86-1L42.5,58.62a39.17,39.17,0,0,1-1.73-3.92c-.08-.58-.49-3-1.17-3.71a10.15,10.15,0,0,0-4.17-2.88s-1.79-.11-2.25-.18-.32-1.66-.32-1.66,2.29-.09,3.09-.88.66-2.82.66-2.82,1.45-.68,1.22-1a4.6,4.6,0,0,1-.89-2,8.18,8.18,0,0,0,.46-2.77c0-1.52-.74-1.83-.74-1.83A2,2,0,0,0,36,33.05a7.94,7.94,0,0,0-5.49-1.57,6.37,6.37,0,0,0-4.34,3.25c-1,2.31.61,7.69.78,8.2A14.08,14.08,0,0,1,26,48.47c-.59,1.37-1.8,2.41-2.44,3.85a10.24,10.24,0,0,1,1.06-.78,5.87,5.87,0,0,1,3.7-1.21,14,14,0,0,1,4,.84,9.19,9.19,0,0,1,3.22,1.68c1.91,1.64,1.49,4.18.78,6.34A11.15,11.15,0,0,1,32.84,65a12.58,12.58,0,0,1-2.28,1.38l.91.59C34,68.5,35.73,72.1,35.73,72.1a8.23,8.23,0,0,0-.1,1.21c0,.48,1,.36,1.13,1.71s2.92,5.8,4,6.17,4.57,1,6.47.42,2.07-1.57,2.62-2S57.1,78.14,60.13,77s3.78-2.12,3.78-2.12a3.58,3.58,0,0,1,1.64.37c.6.39,1.06,1.57,2.23,3.69s5.35,5.45,8,6.36,11,4.86,11,4.86,2.07,2.91,3.62,2.7a2.21,2.21,0,0,0,2-1.66c.07-.37,1.3-1.77,2.44-3.48S98.92,85,98.92,85l0-.4A14.08,14.08,0,0,1,97,82.17Z"/><path class="cls-6" d="M89.63,89.87A85.07,85.07,0,0,1,81,85.65c-11-5.49-12.41-10-13.45-10.82a5.32,5.32,0,0,0-3.14-1.35,4,4,0,0,0-3.17,2,.15.15,0,0,1-.13,0c-.19.46-.39.91-.56,1.37,2.72-1.05,3.41-2,3.41-2a3.58,3.58,0,0,1,1.64.37c.6.38,1.06,1.57,2.23,3.69s5.35,5.44,8,6.35,11,4.87,11,4.87,2.07,2.9,3.62,2.69a2.19,2.19,0,0,0,2-1.65,2.08,2.08,0,0,1,.33-.58A15.32,15.32,0,0,1,89.63,89.87Z"/><path class="cls-10" d="M96.82,81.94a17.12,17.12,0,0,1-2.42,1.31A34.84,34.84,0,0,1,89.54,85c.36,2.07-.66,4.79-2.46,5.62.78.92,2.14,2.78,3.32,2.61a3.58,3.58,0,0,0,2.45-1.86c1-1.27.61-1.83,2-3.31A18.39,18.39,0,0,1,98.94,85l0-.4A21.44,21.44,0,0,0,96.82,81.94Z"/><path class="cls-6" d="M36.21,48.6l-.72-.47s-1.79-.11-2.24-.19-.39-1.67-.39-1.67,2.29-.09,3.09-.88a3.18,3.18,0,0,0,.65-1.89c-.18.17-.56,1.48-1.23,1.7-1,.34-3,.63-4,0s-.88-2-1.25-2.86c-.46-1.14-1.19-2.43-2.57-1.57a.11.11,0,0,1-.11,0,2.65,2.65,0,0,0-.87.86,12.09,12.09,0,0,0,.38,1.3A13.74,13.74,0,0,1,26,48.47a12.35,12.35,0,0,1-1.57,2.35A10.78,10.78,0,0,1,29,50.41a10.51,10.51,0,0,1,2.59.86,5.44,5.44,0,0,0,2.92.82,2,2,0,0,0,1.89-1.48A2.85,2.85,0,0,0,36.21,48.6Z"/><path class="cls-15" d="M46.31,65.69l-3.75-7.07a39.1,39.1,0,0,1-1.72-3.92A11.55,11.55,0,0,0,39.66,51a10.09,10.09,0,0,0-4.17-2.88L34.22,48c2,.55,2.35,2,1.91,2.56-.6.69-2,.58-4.63-.38a12.73,12.73,0,0,0-2.84-.72,5.12,5.12,0,0,0-4.17,1,5.76,5.76,0,0,0-1.29,3,13.05,13.05,0,0,0,2.86,9,25,25,0,0,0,5.44,4.32c2.48,1.57,4.26,5.17,4.26,5.17a7.07,7.07,0,0,0-.11,1.21c0,.4.68.39,1,1.15a11.89,11.89,0,0,0,2.24-.78,32.38,32.38,0,0,0,5-3.07,25.86,25.86,0,0,0,4.71-4.28A14.82,14.82,0,0,1,46.31,65.69Zm-16-3.25c-2.35.43-4.4-1.46-5.11-3.34-.79-2.07-1.52-5.58.85-6.91.79-1.24,4.08.6,4.87,1.06a5.11,5.11,0,0,1,2.5,5.3C33,60.46,32.27,62.07,30.27,62.44Z"/><path class="cls-8" d="M38.22,55.69a29,29,0,0,0-2.63,1.43,12,12,0,0,0-2.25,1.56,6.83,6.83,0,0,1-.61,1.87,8.06,8.06,0,0,0,1.3,3c.61,1,1.25,2,1.92,3a23.15,23.15,0,0,0,5.29,5.79c.91-.56,1.79-1.17,2.65-1.78a25.86,25.86,0,0,0,4.71-4.28,16.68,16.68,0,0,1-2.3-.64l-3.75-7.07a39.1,39.1,0,0,1-1.72-3.92,6.91,6.91,0,0,0-.17-1A6.7,6.7,0,0,1,38.22,55.69Z"/><path class="cls-16" d="M65.16,66.84c-3.5.09-11.59,0-14-.16a17.51,17.51,0,0,1-4.85-1l-.18-.35c-1.57.66-3.07,1.94-4.52,2.64-2.14,1-4.71,1.4-6.28,3.36.26.44.4.73.4.73a8.36,8.36,0,0,0-.1,1.22c0,.48,1,.35,1.13,1.71s2.92,5.8,4,6.17,4.57,1,6.47.42,2.07-1.57,2.62-2S57.1,78.12,60.13,77s3.78-2.12,3.78-2.12H64A8.77,8.77,0,0,1,65.16,66.84Z"/><path class="cls-17" d="M63.75,74c-1,.39-9.27,2.84-15.25,2.91-2.36,0-3.53,3.18-7.68,2.06a4.65,4.65,0,0,1-3-1.94l-.23-.06c.93,1.78,2.49,4,3.23,4.25,1.08.37,4.57,1,6.48.42s2.06-1.57,2.61-2S57.13,78.12,60.16,77s3.77-2.12,3.77-2.12H64C63.9,74.58,63.82,74.27,63.75,74Z"/><path class="cls-10" d="M35.88,73.07c1.14-.48,2.35-.73,3.56-1.19a31.74,31.74,0,0,0,4.49-2.22,7.54,7.54,0,0,0,3.63-3.57c-.16-.41-1-.79-1-.79h-.44c-1.57.66-3.07,1.94-4.52,2.64-2.14,1-5,1.2-6.53,3.14a1.27,1.27,0,0,0,.24,1S35.49,73.13,35.88,73.07Z"/><path class="cls-11" d="M25.75,51.91A6.31,6.31,0,0,1,29.86,51c1.4.18,2.26,1.28,3.06,2.36a16.33,16.33,0,0,0,1.3,1.46c.2.2.55.71.88.73a8.48,8.48,0,0,1,4.71,1.25c1.44,1,2.23,2.27,2.78,1.79s9.66-7.3,10-8.1.78-1.68,1-2.29.6-1.32,1.25-1.21a24.58,24.58,0,0,1,2.66.54c.45.16,1.43-.05,1.75.29a15.2,15.2,0,0,1,.94,1.2s-1.14,0-1.39.34c-.41.57-.7,1.22-1.11,1.79a6.67,6.67,0,0,1-2.25,1.8c-1.49.9-2.52,2.86-3.55,4.24a56,56,0,0,1-4.81,5.63,9.6,9.6,0,0,0-1.2,1.27c-.26.39-.28,1.06-.69,1.34s-1.11.08-1.57.14a13.2,13.2,0,0,1-6.78-.84,16.64,16.64,0,0,1-4.18-2,11.92,11.92,0,0,0-1.94-1.37c-.78-.39-1.57-.68-2.35-1.08A6.4,6.4,0,0,1,25.8,58C24.73,56.38,23.63,53.24,25.75,51.91Z"/><path class="cls-6" d="M49.22,59.52a17,17,0,0,1-3,3A7.64,7.64,0,0,1,43,63.76c-2.84.41-5.45-.85-7.9-2.11S29.94,59,28.16,56.86c-1.11-1.35-2.49-3.61-1.63-5.36a6.59,6.59,0,0,0-.79.41c-2.11,1.33-1,4.47.06,6.13a6.42,6.42,0,0,0,2.56,2.26c.78.4,1.57.69,2.35,1.08a11.86,11.86,0,0,1,1.94,1.36,16.67,16.67,0,0,0,4.18,2,13.41,13.41,0,0,0,6.78.84c.47-.07,1.16.14,1.57-.14s.43-1,.69-1.35a10.18,10.18,0,0,1,1.2-1.26,55.07,55.07,0,0,0,4.81-5.64c.23-.3.45-.63.69-1A27.32,27.32,0,0,0,49.22,59.52Z"/><path class="cls-18" d="M36.68,34.72a4.68,4.68,0,0,1-1.7.33,4.1,4.1,0,0,0-1.86.61,1.9,1.9,0,0,0-.65.78,2.8,2.8,0,0,0,0,1c0,.87-.16.71-.61.91-.17.08-.28.19-.45.27-.45.22-1-.25-1.51-.32a1.4,1.4,0,0,0-1.57.84c-.26.73.24,1.25.72,1.71a.87.87,0,0,1,.24,1.21.61.61,0,0,1-.07.1A2.29,2.29,0,0,1,28,43a3.31,3.31,0,0,1-.94.1h0c0-.1-.38-.34-.4-.38a8.87,8.87,0,0,1-1.71-3.31,6.85,6.85,0,0,1,.79-5,7.73,7.73,0,0,1,4.82-3A8.06,8.06,0,0,1,36,33.08a2.3,2.3,0,0,1,.53.78.78.78,0,0,1,0,.14.33.33,0,0,1,0,.14v.13a1.09,1.09,0,0,1,0,.36v.06A.17.17,0,0,1,36.68,34.72Z"/><path class="cls-8" d="M36.68,34.72a4.68,4.68,0,0,1-1.7.33,4.1,4.1,0,0,0-1.86.61,1.9,1.9,0,0,0-.65.78,2.8,2.8,0,0,0,0,1c0,.87-.16.71-.61.91-.17.08-.28.19-.45.27-.45.22-1-.25-1.51-.32a1.4,1.4,0,0,0-1.57.84c-.26.73.24,1.25.72,1.71a.87.87,0,0,1,.24,1.21.61.61,0,0,1-.07.1A2.29,2.29,0,0,1,28,43a3.31,3.31,0,0,1-.94.1h0c0-.1-.38-.34-.4-.38a8.87,8.87,0,0,1-1.71-3.31,2.64,2.64,0,0,0,2.22-.79,4,4,0,0,1,2-1.61c.79-.21,1.57.17,2.25-.36s.78-1.38,1.43-1.87,2.59,0,3.77-1l.06.14v.27a2.16,2.16,0,0,1,0,.36v.06A.1.1,0,0,1,36.68,34.72Z"/><path class="cls-10" d="M35.91,73.71a10,10,0,0,1,0,1.34s-3.93-.57-2.52.62,3.62,1.31,4,.91-2.32-.06-2.2-.46,1.73.14,1.91-.4-.73-3-.73-3S35.59,72,35.91,73.71Z"/><path class="cls-10" d="M36.17,76.7c.08.34.64,3.8.64,3.8s-2.27,0-2,1.18,2.51,8.67,2.51,8.67,4.83-.4,5.49-1.15c.1-.11-1.89-8.69-2.71-8.87a8.12,8.12,0,0,0-2.36.08l-.91-3.81Z"/></g></g></svg>