<svg id="Layer_29" data-name="Layer 29" xmlns="http://www.w3.org/2000/svg" viewBox="0 0 128 128"><defs><style>.cls-1{fill:#11485d;}.cls-2{fill:#c3d6dd;}.cls-3{fill:#101038;}.cls-4{fill:#fcb7a7;}.cls-5{fill:#3e98db;}.cls-6{fill:#e7eef2;}.cls-7{opacity:0.45;}.cls-8{fill:#f4897d;}.cls-9{fill:#2c7dc6;}.cls-10{fill:#e1f3f9;}.cls-11{fill:#fff;}.cls-12{fill:#36357a;}.cls-13{fill:#222260;}.cls-14{fill:#babadb;}.cls-15{fill:#591f1f;}.cls-16{fill:#431717;}.cls-17{fill:#ea7168;}.cls-18{fill:#f7f9f9;}.cls-19{fill:#85acb5;}.cls-20{fill:#e4ebf0;}.cls-21{fill:#9e9c9c;}</style></defs><g id="Layer_2" data-name="Layer 2"><g id="Layer_1-2" data-name="Layer 1-2"><path class="cls-1" d="M9.45,21.3V18.94a.54.54,0,0,1,.05-.27,12.85,12.85,0,0,1,3.65-7.92,22.22,22.22,0,0,1,7.33-4.87,44.39,44.39,0,0,1,7.88-2.53C30,3,31.51,2.57,33.11,2.29A64.27,64.27,0,0,1,41,1.78a2.68,2.68,0,0,0,.63-.05h7.16l.29,0c1.14,0,2.29.07,3.44.11,1.92.08,3.82.2,5.73.36,2.38.2,4.75.45,7.11.85A54.18,54.18,0,0,1,76.57,5.75c1.4.55,2.89.84,4.31,1.3a140.33,140.33,0,0,1,18.51,6.57,65,65,0,0,1,10.1,5.52.85.85,0,0,1,.28.22A3.87,3.87,0,0,0,111,20.41c1,.62,2.09,1.21,3.11,1.85A24.44,24.44,0,0,1,120,26.94a13.59,13.59,0,0,1,3.24,6.41c.1.52.17,1,.24,1.58v2.3l-.13,1A24.08,24.08,0,0,1,121,45.5a52.25,52.25,0,0,1-6.6,10c-.58.71-1.22,1.36-1.73,2.1s-1,1.4-1.53,2.06A178.77,178.77,0,0,1,98.69,73.45C96.84,75.32,94.94,77.17,93,79s-4,3.63-6.12,5.45a132.6,132.6,0,0,1-10.68,8.2,82.07,82.07,0,0,1-11.63,6.75,5.86,5.86,0,0,0-.78.42c-1,.63-2,1.26-3,1.82a29.46,29.46,0,0,1-10.07,3.5c-.57.08-1.14.13-1.72.19H46.39l-.25,0A20,20,0,0,1,39,103.38a26.46,26.46,0,0,1-8.56-6.75,46.35,46.35,0,0,1-5.93-8.91,87.5,87.5,0,0,1-5.24-12.49c-.44-1.29-.78-2.6-1.34-3.85A91.38,91.38,0,0,1,12.81,56.3a103.45,103.45,0,0,1-2.68-15.44c-.25-2.66-.37-5.33-.42-8,0-2.23,0-4.47.22-6.69a7.12,7.12,0,0,0-.07-2c0-.23-.08-.46-.1-.69Z"/><ellipse class="cls-2" cx="75.63" cy="107.67" rx="42.34" ry="0.93"/><path class="cls-3" d="M73.37,85.21a7.89,7.89,0,0,0,7.12,2.27c-.24-1.51-3.56-4.26-3.56-4.26Z"/><path class="cls-4" d="M81,102.61v.09l-1.12.27-3.36.81h0l-.23-1-.07-.26-.22-.89-.08-.36-.15-.62-.21-.88-.24-1-.2-.88-.25-1-1.53-6.24a11.6,11.6,0,0,1,0-5.37v0h0c.1-.4.22-.8.36-1.19L75,80.58,79,69.36l4.33,1.57-3.61,10-1.33,3.67-.34,1v.09a6.56,6.56,0,0,0-.37,1.8,7,7,0,0,0,.18,2.09l1.49,6.18.26,1.06.21.88.24,1,.21.89h0l.24,1,.22.89.07.31Z"/><polygon class="cls-5" points="81.03 102.61 76.89 103.68 76.66 103.74 76.57 103.76 76.33 102.79 76.27 102.52 76.05 101.63 75.97 101.28 75.81 100.65 75.61 99.77 75.36 98.79 75.15 97.9 74.9 96.86 79.36 95.72 79.62 96.78 79.83 97.66 80.06 98.64 80.28 99.53 80.28 99.53 80.52 100.5 80.73 101.39 80.81 101.7 81.03 102.61"/><polygon class="cls-6" points="79.83 97.66 75.36 98.79 75.15 97.9 79.62 96.78 79.83 97.66"/><polygon class="cls-6" points="80.28 99.53 80.28 99.53 75.81 100.65 75.61 99.77 80.06 98.64 80.28 99.53"/><polygon class="cls-6" points="80.73 101.39 80.32 101.49 77.43 102.23 76.94 102.35 76.94 102.35 76.27 102.52 76.05 101.63 76.37 101.55 76.37 101.55 76.37 101.55 80.52 100.5 80.73 101.39"/><g class="cls-7"><path class="cls-8" d="M81.05,102.7l-1.12.27L76.7,89a5.47,5.47,0,0,0-3.33-3.83h0c.1-.4.22-.8.36-1.19L75,80.58l4.77.36-1.33,3.67-.34,1v.09a6.56,6.56,0,0,0-.37,1.8,7,7,0,0,0,.18,2.09l1.49,6.18.26,1.06.21.88.24,1,.21.89h0l.24,1,.22.89.07.31.22.91Z"/></g><path class="cls-9" d="M81.7,106.1v.09l-7.19.81-2.32-.69-1.44-.43-1.51-.45a.43.43,0,0,1,0-.16,1.79,1.79,0,0,1,.09-.86h0v-.06c.14-.37,1.27-.46,2.17-.86h.09l.28-.14h0l.26-.13.37-.2.23-.13.36-.21.24-.14.33-.2.27-.16.3-.18a9.81,9.81,0,0,1,1.2-.64.78.78,0,0,1,.22,0,.51.51,0,0,1,.3,0,.66.66,0,0,1,.29.17h0l.09.08a4.58,4.58,0,0,0,.86.57l.2.11a3.49,3.49,0,0,0,1.52.38c.52,0,1.53-.8,1.86-.91h0a.49.49,0,0,1,.29.06.89.89,0,0,1,.33.62,8.52,8.52,0,0,1,.3,1.94A12.92,12.92,0,0,1,81.7,106.1Z"/><path class="cls-5" d="M77.23,102.12a8.08,8.08,0,0,1-1-.67.76.76,0,0,0-.81-.17c-.94.4-2.28,1.39-3.83,2.13-.92.44-2.11.52-2.27.9v.06a1,1,0,0,1,1.33.12C71,104.9,73.42,105.1,77.23,102.12Z"/><path class="cls-10" d="M82,107.08v-.76c0-.13-.16-.22-.28-.22l-1.85.05a1.11,1.11,0,0,1-.68-.2h0a1.34,1.34,0,0,0-.68-.19h-1a1.15,1.15,0,0,0-.69.24h0a1.15,1.15,0,0,1-.69.24l-3.42.08a2.31,2.31,0,0,1-.59,0l-1.18-.34a.8.8,0,0,1-.55-.38l-.18-.3a.43.43,0,0,0-.36-.2h-.32a.44.44,0,0,0-.41.48h0c0,.24.08.49.73.93.4.26,1.21.74,1.62,1a2.56,2.56,0,0,0,1.22.24l9.06-.24C81.93,107.43,82,107.25,82,107.08Z"/><path class="cls-11" d="M75.1,102.59a.14.14,0,0,1-.12-.06,1.38,1.38,0,0,0-.91-.33.15.15,0,0,1-.13-.16h0a.13.13,0,0,1,.14-.13h0a1.55,1.55,0,0,1,1.12.44.15.15,0,0,1,0,.2A.12.12,0,0,1,75.1,102.59Z"/><path class="cls-11" d="M74.49,102.93a.14.14,0,0,1-.12-.06,1.37,1.37,0,0,0-.91-.34.14.14,0,0,1-.13-.15h0a.14.14,0,0,1,.15-.14h0a1.55,1.55,0,0,1,1.12.44.14.14,0,0,1,0,.21A.15.15,0,0,1,74.49,102.93Z"/><path class="cls-11" d="M73.88,103.26a.13.13,0,0,1-.11-.06,1.43,1.43,0,0,0-.91-.33.16.16,0,0,1-.14-.16.14.14,0,0,1,.15-.13h0A1.52,1.52,0,0,1,74,103a.13.13,0,0,1,0,.2A.11.11,0,0,1,73.88,103.26Z"/><path class="cls-11" d="M73.27,103.6a.14.14,0,0,1-.11-.06,1.37,1.37,0,0,0-.91-.34.13.13,0,0,1-.13-.14h0a.14.14,0,0,1,.15-.14h0a1.49,1.49,0,0,1,1.11.45.15.15,0,0,1,0,.2A.17.17,0,0,1,73.27,103.6Z"/><path class="cls-11" d="M72.67,103.93a.14.14,0,0,1-.12-.06,1.41,1.41,0,0,0-.9-.33.16.16,0,0,1-.14-.16.15.15,0,0,1,.16-.13h0a1.52,1.52,0,0,1,1.11.44.14.14,0,0,1,0,.21A.11.11,0,0,1,72.67,103.93Z"/><path class="cls-12" d="M87.94,73.66v.27a2,2,0,0,1,0,.24,1.21,1.21,0,0,1,0,.18,5.44,5.44,0,0,1-.19.57l-.11.25a32.45,32.45,0,0,1-2.68,2.43l-4.37,10a9.56,9.56,0,0,0-2.18-1.72,6.91,6.91,0,0,0-1-.45,9.12,9.12,0,0,0-3.89-.1l1.62-8,.33-1.61L76,72.31l.52-2.43.54-2.55,1.4.69.55.26,4.58,2.26,2,1,1.62.81a1,1,0,0,1,.58.54A1.61,1.61,0,0,1,87.94,73.66Z"/><path class="cls-4" d="M114.92,71l-1,.22-.89.2-1,.21-.89.2-1,.21-.89.2-1.06.23-6.47,1.42a11.42,11.42,0,0,1-6.62-.51l-.63-.24L80.57,67.81l1.61-4.3,13.3,5.15,1.22.47a5.44,5.44,0,0,0,.81.25,6.89,6.89,0,0,0,3.16.05l6.4-1.4,1.06-.23.89-.2,1-.21.89-.2,1-.21.9-.19,1.12-.25.75,3.07Z"/><polygon class="cls-5" points="114.92 71.03 113.9 71.26 113.01 71.46 112.02 71.67 111.13 71.87 110.15 72.08 109.26 72.28 108.2 72.51 107.12 68.03 108.17 67.8 109.06 67.6 110.05 67.39 110.94 67.19 111.92 66.98 112.82 66.79 113.94 66.54 114.92 71.03"/><polygon class="cls-6" points="110.15 72.08 109.26 72.28 108.17 67.8 109.06 67.6 110.15 72.08"/><polygon class="cls-6" points="112.02 71.67 111.13 71.87 110.05 67.39 110.94 67.19 112.02 71.67"/><polygon class="cls-6" points="113.9 71.26 113.01 71.46 111.92 66.98 112.82 66.79 112.93 67.27 113.9 71.26"/><g class="cls-7"><path class="cls-8" d="M114.92,71l-1,.22-.89.2-1,.21-.89.2-1,.21-.89.2-1.06.23-6.47,1.42a11.42,11.42,0,0,1-6.62-.51l-.63-.24,1.06-4.52,1.23.47a5.7,5.7,0,0,0,.8.25h0A5.16,5.16,0,0,0,103.12,72l11.52-2.34Z"/></g><path class="cls-12" d="M97,73.2a7.75,7.75,0,0,1-.8,1.54,9.88,9.88,0,0,1-1.29,1.52h0l-7.4-1.13h0l-1-.15a17.25,17.25,0,0,0-1.73-.19h-.3a11.19,11.19,0,0,0-2.94.22h-.11a25.48,25.48,0,0,1-6.09.65,9,9,0,0,1-1.16-.08l1.87-3.23L78,69l.54-1,3.68-6.47a14.53,14.53,0,0,1,7.19,2.14c3.24,2.15,8.15,5.57,8.15,5.57A7.4,7.4,0,0,1,97,73.2Z"/><path class="cls-9" d="M122.27,73.32a1.77,1.77,0,0,1-.91.65c-.38.13-1.23-.71-2.17-1.11-1.62-.67-3.24-1-4.12-1.47a.74.74,0,0,1-.41-.72,4.59,4.59,0,0,0-.91-2.79c-.37-.4-1.73-.61-1.94-.81s-.16-.57.1-.91a8.71,8.71,0,0,1,1.26-1.51,12,12,0,0,1,1.47-1.19L120,68.32Z"/><path class="cls-5" d="M114.52,69.49c0,.36.14.93.14,1.18a.74.74,0,0,0,.41.72c.91.45,2.54.81,4.12,1.47.94.4,1.79,1.24,2.17,1.11h.07a1,1,0,0,1-.81-1.07C120.71,72.32,119.26,70.42,114.52,69.49Z"/><path class="cls-10" d="M115.09,62.64l-.56.53a.24.24,0,0,0,0,.35l1.26,1.36a1.16,1.16,0,0,1,.3.64v0a1.17,1.17,0,0,0,.31.63l.65.71a1.14,1.14,0,0,0,.63.35h0a1.28,1.28,0,0,1,.64.36l2.32,2.52a2.35,2.35,0,0,1,.36.47l.49,1.07a.8.8,0,0,1,.08.67l-.1.34a.42.42,0,0,0,.09.4l.22.24a.45.45,0,0,0,.63,0h0c.16-.19.31-.4.21-1.17-.07-.48-.24-1.4-.36-1.86a2.44,2.44,0,0,0-.63-1.06l-6.16-6.65C115.39,62.46,115.22,62.52,115.09,62.64Z"/><path class="cls-11" d="M116.26,70.78a.17.17,0,0,1,0,.13,1.33,1.33,0,0,0,.35.91.15.15,0,0,1,0,.2.14.14,0,0,1-.2,0h0a1.57,1.57,0,0,1-.41-1.13.15.15,0,0,1,.17-.12h.05Z"/><path class="cls-11" d="M116.92,71a.12.12,0,0,1,0,.13,1.4,1.4,0,0,0,.35.89.14.14,0,0,1-.08.2.14.14,0,0,1-.16,0,1.58,1.58,0,0,1-.4-1.14.14.14,0,0,1,.16-.11h0Z"/><path class="cls-11" d="M117.58,71.23a.15.15,0,0,1,0,.13,1.32,1.32,0,0,0,.35.9.14.14,0,0,1,0,.2.15.15,0,0,1-.21,0,1.58,1.58,0,0,1-.4-1.14.15.15,0,0,1,.16-.11h0A.13.13,0,0,1,117.58,71.23Z"/><path class="cls-11" d="M118.23,71.49a.13.13,0,0,1,0,.12,1.4,1.4,0,0,0,.35.91.14.14,0,1,1-.23.17,1.61,1.61,0,0,1-.41-1.13.16.16,0,0,1,.18-.12A.16.16,0,0,1,118.23,71.49Z"/><path class="cls-11" d="M118.88,71.72a.13.13,0,0,1,0,.12,1.38,1.38,0,0,0,.35.91.15.15,0,0,1,0,.21.16.16,0,0,1-.21,0h0a1.57,1.57,0,0,1-.4-1.13.16.16,0,0,1,.17-.13A.17.17,0,0,1,118.88,71.72Z"/><path class="cls-13" d="M83.65,70.53A10.32,10.32,0,0,1,81.46,75a6.59,6.59,0,0,1-2.84,1.82,8.67,8.67,0,0,1-3.57.43l.33-1.61c-.75,0,8.77-10.66,8.77-10.66A19.4,19.4,0,0,1,83.65,70.53Z"/><path class="cls-13" d="M96.21,74.74a9.88,9.88,0,0,1-1.29,1.52h0l-7.4-1.13h0a32.32,32.32,0,0,1-2.67,2.43l-4.37,10a9.62,9.62,0,0,0-2.19-1.72c1.31-2,3.42-5.43,4.12-8.36a.61.61,0,0,0-.32-.8h0a8.54,8.54,0,0,0,2.27-1.48c.12-.12.24-.24.35-.37a6.44,6.44,0,0,0,1.2-2.43,3.23,3.23,0,0,0,2.06,1.31h.18C89.85,74,93.6,74.42,96.21,74.74Z"/><path class="cls-5" d="M82.37,71.65c-.22.37-.46.72-.71,1.06a7.58,7.58,0,0,1-7.12,3.19c-.74-.09-3-.48-4.54-.81a62,62,0,0,1-6.72-1.76A22,22,0,0,1,57,70.27a7.53,7.53,0,0,1-1.46-10.52l.24-.29.07-.1.05,0,.08-.09a7.52,7.52,0,0,1,7.94-2.07A7.25,7.25,0,0,1,65,57.6l.45.26a12.83,12.83,0,0,0,1.42.75c.27.13.56.24.81.34l1.21.39c1.07.33,2.43.68,4.15,1a48.88,48.88,0,0,0,6,.92c.47,0,1.72.13,2.56.22a3.64,3.64,0,0,1,.63.08C84.7,62,84.77,67.56,82.37,71.65Z"/><path class="cls-9" d="M81.66,72.71a7.58,7.58,0,0,1-7.12,3.19c-.74-.09-3-.48-4.54-.81a62,62,0,0,1-6.72-1.76A22,22,0,0,1,57,70.27a7.53,7.53,0,0,1-1.46-10.52l.24-.29.07-.1.05,0,.08-.09a7.52,7.52,0,0,1,7.94-2.07A7.25,7.25,0,0,1,65,57.6l.45.26a12.83,12.83,0,0,0,1.42.75L67,59A23.23,23.23,0,0,0,81.66,72.71Z"/><path class="cls-6" d="M59.62,67.43a.11.11,0,0,0,0,.13,11.11,11.11,0,0,1,.16,1.62v.71a.3.3,0,0,0,.17.26c.57.35,1.15.69,1.73,1,.2.12.43.06.44-.11h0a4.66,4.66,0,0,0-.08-.64.14.14,0,0,0,0-.09c0-.19.21-.27.43-.15a85.64,85.64,0,0,0,8.47,4.22.3.3,0,0,0,.38-.09l.58-1.56c0-.12,0-.27-.2-.33a80.36,80.36,0,0,1-11.11-5.81.29.29,0,0,0-.39,0C60,66.9,59.81,67.18,59.62,67.43Z"/><path class="cls-14" d="M48.29,66.26s0,2.88,4.25,4.69C52.62,70.05,50.71,66.84,48.29,66.26Z"/><path class="cls-4" d="M57.07,61.45a3.77,3.77,0,0,1-.81,5.6L54.1,68.46l-4.62,3-.67.44c-.31.28-.64.55-1,.81s-.81.63-1.23.91l-9.46,6-1.43.91-.17-.28-1.08-1.69-.33-.53-.3-.47,0-.07-.54-.81.34-.22,10.51-6.72a13,13,0,0,0,1.69-1.26l.39-.35.35-.3,1.77-1.57,3-2.62,4.38-3.83Z"/><path class="cls-8" d="M54.14,68.46l-4.63,3h0A6,6,0,0,0,48.76,67l-.45-.72,3-2.62Z"/><path class="cls-5" d="M58.32,65.78l-4.91,4.39-.88.81L52,70.17a9,9,0,0,0-.74-1.08,10.64,10.64,0,0,0-1.7-1.72l-1.31-1.11h0l.81-.73L54,61.05a13.44,13.44,0,0,1,1.68-1.33c2-1.25,2,.57,2.94,1.62A3.16,3.16,0,0,1,58.32,65.78Z"/><path class="cls-9" d="M58.32,65.78l-4.91,4.39-.88.81L52,70.17a9,9,0,0,0-.74-1.08,3,3,0,0,1,.81-1c2.36-1.93,3.23-5.82,3.55-8.39,2-1.25,2,.57,2.94,1.62A3.15,3.15,0,0,1,58.32,65.78Z"/><path class="cls-6" d="M53.41,70.17l-.88.81L52,70.17a10.51,10.51,0,0,0-2.43-2.8l-1.32-1.11h0l.81-.73,1.33,1a10.51,10.51,0,0,1,2.43,2.8Z"/><path class="cls-4" d="M35.54,80.28s-.07.1-.1.16q-.27.36-.57.69a8.33,8.33,0,0,1-3,2A1.37,1.37,0,0,1,30.61,83a1,1,0,0,1-1-.24.38.38,0,0,1-.15,0,.93.93,0,0,1-.81-.57.38.38,0,0,1,0-.15h-.08c-.38.07-1.12-.22-.85-1h0c-1,.05-1.46-.69-.92-1,.38-.22,1.29-1.11,2.24-1.81l.11-.07a6,6,0,0,1,1.18-.68,28.85,28.85,0,0,1,3.29-1.1l.45-.12a1.48,1.48,0,0,1,1.62.63,1.41,1.41,0,0,1,.18.29,3.16,3.16,0,0,1,.16.43,2.82,2.82,0,0,1,.09.71A3.39,3.39,0,0,1,35.54,80.28Z"/><path class="cls-4" d="M36.33,81.18l-.19.22a8.13,8.13,0,0,1-3.58,2.25,1.37,1.37,0,0,1-1.21-.19,1,1,0,0,1-1-.31.87.87,0,0,1-.94-.75c-.35.1-1.21-.23-.87-1-1,0-1.42-.81-.86-1.07.33-.17,1-.8,1.86-1.33l.62-.41.3-.18.22-.12a3.66,3.66,0,0,1,.68-.29,29.83,29.83,0,0,1,2.89-.81l.93-.18A1.56,1.56,0,0,1,37,78.12v.11a2.42,2.42,0,0,1,.1.45A3.36,3.36,0,0,1,36.33,81.18Z"/><path class="cls-14" d="M56.38,67.13a6.81,6.81,0,0,0,3,5.59C59.62,71.84,58.73,68.2,56.38,67.13Z"/><path class="cls-4" d="M66.42,67.85a1.16,1.16,0,0,1-.59.71L60.59,71l-5.3,2.52-4.41,2.09a18.92,18.92,0,0,1-2.05.93L36.15,81.4l-.95.35-1.07-2.82-.07-.17v-.09l0-.12-.42-1.1.7-.26,9.26-3.53h.07l1.53-.59,2-.76c.17-.06.32-.13.48-.2a10.25,10.25,0,0,0,1.06-.5l7.65-4.43,2.87-1.61L63,63.4c1.12-.59,2.19.69,2.78,1.82A4,4,0,0,1,66.42,67.85Z"/><path class="cls-8" d="M56.77,72.85h0a6.11,6.11,0,0,0,.1-4.45l-.49-1.22,2.87-1.61,1.31,5.54Z"/><path class="cls-5" d="M66.35,68.62l-5.93,3.5-1,.6L59,69.61l0-.37-2.58-2.11,1-.58,5.76-3.41.1-.06a3.17,3.17,0,1,1,3.12,5.51h0Z"/><path class="cls-9" d="M66.35,68.62l-5.93,3.5-1,.6L59,69.61,60.07,69a6.07,6.07,0,0,0,3.16-5.9h0a3.17,3.17,0,1,1,3.12,5.51Z"/><path class="cls-6" d="M60.42,72.12l-1,.6-.29-1a11.07,11.07,0,0,0-1.74-3.38l-1-1.26,1-.58,1,1.29a10.9,10.9,0,0,1,1.78,3.39Z"/><path class="cls-8" d="M44.9,73.29a.17.17,0,0,1-.11-.11.18.18,0,0,1,.1-.24h0l3.88-1.49a.18.18,0,0,1,.24.1.2.2,0,0,1-.1.25l-3.87,1.48A.2.2,0,0,1,44.9,73.29Z"/><path class="cls-8" d="M27.51,81.18a.19.19,0,0,1-.09-.05.61.61,0,0,1-.16-.51c0-.31.36-.49.55-.59l.08,0,.58-.43,1-.71A11.47,11.47,0,0,1,30.71,78a.19.19,0,0,1,.25.08h0a.19.19,0,0,1-.08.25h0a9.61,9.61,0,0,0-1.23.75l-.95.7c-.29.22-.51.39-.6.44l-.11.07c-.12.06-.35.2-.37.33a.3.3,0,0,0,.08.2.19.19,0,0,1-.19.3Z"/><path class="cls-8" d="M44.24,74a9.88,9.88,0,0,1-2.43,2.22,14.06,14.06,0,0,1-4.85,2l-.88.16a15.86,15.86,0,0,1-1.61.18H34a19.66,19.66,0,0,1-3.43-.07c-.59-.07-1.09-.15-1.47-.23a6,6,0,0,1,1.18-.68,28.85,28.85,0,0,1,3.29-1.1l10.51-6.72a14,14,0,0,0,1.69-1.26l.39-.35.35-.31A12.31,12.31,0,0,1,44.24,74Z"/><ellipse class="cls-8" cx="60.25" cy="60.31" rx="3.54" ry="2.73"/><path class="cls-6" d="M64.62,59.76c-.22-1.79-2-3.1-4.16-3.1h-.67c-2.43.3-4.19,2.15-3.95,4.12.23,1.79,2,3.07,4.16,3.07h.68C63.1,63.57,64.87,61.74,64.62,59.76Zm-1.83,1.86a3.75,3.75,0,0,1-2.26,1.07,4.69,4.69,0,0,1-.53,0c-1.55,0-2.83-.86-3-2A2.1,2.1,0,0,1,57.68,59a3.67,3.67,0,0,1,2.26-1.07h.52c1.55,0,2.83.88,3,2A2.09,2.09,0,0,1,62.79,61.62Z"/><path class="cls-8" d="M61.6,62.12A2.86,2.86,0,0,1,57.73,61l-3.92-5.82a2.92,2.92,0,0,1,.42-4.05,2.87,2.87,0,0,1,3.87,1.13L62,58.11A2.9,2.9,0,0,1,61.6,62.12Z"/><path class="cls-15" d="M65.36,25.78a.18.18,0,0,0-.24-.1.2.2,0,0,0-.12.19,7.87,7.87,0,0,1-.65,4C63.94,30.77,67.33,29.87,65.36,25.78Z"/><path class="cls-15" d="M66.78,28.5a.19.19,0,0,0-.09-.25.18.18,0,0,0-.23.05,7.9,7.9,0,0,1-3.32,2.28C62.18,30.92,65.17,32.75,66.78,28.5Z"/><path class="cls-16" d="M40.73,31.44s-6.63,1.94-1,16.48C54.06,49.8,50.71,33.92,40.73,31.44Z"/><path class="cls-4" d="M66.69,40.68l.48,3.08c1.27,8.09-3.87,15.62-11.5,16.82h0c-7.61,1.2-14.82-4.39-16.09-12.49L39.09,45a8.32,8.32,0,0,1,6.64-9.71l11.66-1.83A8.32,8.32,0,0,1,66.69,40.68Z"/><path class="cls-8" d="M54.4,60.4h0c7-1.1,11.69-8.59,10.41-16.68V40.43a8.79,8.79,0,0,0-6.92-7.06,8.38,8.38,0,0,1,8.77,7.28l.48,3.07c1.27,8.1-3.88,15.63-11.5,16.83h0a12.92,12.92,0,0,1-4.43-.06A14.18,14.18,0,0,0,54.4,60.4Z"/><path class="cls-15" d="M65.13,29.06c-.48-3.49-7.23-5.83-10.48-6.25a15.82,15.82,0,0,0-15.37,6.08C37.6,31,35.69,34.43,34,34.17a7,7,0,0,0,3.85,5.5c10.39,4,21.18-3.24,21-4.53.56,4.31,4.25,2.82,5.18,3.49.63.44.52,3,.81,4.85.14.81,1.55,1.26,2.42,1.13h.23l1,2S73.51,30.67,65.13,29.06Z"/><path class="cls-16" d="M45.42,37.62c-.81,0-1.49.06-2.15,0A23.12,23.12,0,0,1,36,36.39a.29.29,0,1,1,.21-.53,22.78,22.78,0,0,0,7.13,1.23,23,23,0,0,0,15-5,.29.29,0,0,1,.4.11.3.3,0,0,1,0,.34A23.54,23.54,0,0,1,45.42,37.62Z"/><path class="cls-16" d="M43,34.76a13.38,13.38,0,0,1-4.71-.46.27.27,0,0,1-.19-.34v0a.28.28,0,0,1,.36-.18h0c7.81,2.42,20.38-5.2,20.51-5.28a.27.27,0,0,1,.38.08v0a.28.28,0,0,1-.09.39,53.33,53.33,0,0,1-7.41,3.6A30.38,30.38,0,0,1,43,34.76Z"/><path class="cls-16" d="M40.06,30.47a.29.29,0,0,1-.23-.1.28.28,0,0,1,0-.4h0c5.47-4.77,10.66-5.53,14.05-5.33A15.11,15.11,0,0,1,60,26.26a.29.29,0,0,1,.11.39h0a.31.31,0,0,1-.39.11h0a14.53,14.53,0,0,0-5.92-1.54c-3.24-.19-8.3.56-13.62,5.19A.35.35,0,0,1,40.06,30.47Z"/><path class="cls-16" d="M42.89,31.86a.26.26,0,0,1-.19-.05.29.29,0,0,1-.06-.4c3.36-4.61,14-3.83,14.44-3.8a.3.3,0,0,1,.26.31.28.28,0,0,1-.3.27h0c-.1,0-10.76-.81-13.93,3.56A.26.26,0,0,1,42.89,31.86Z"/><path class="cls-16" d="M67.82,41.11h0a.27.27,0,0,1-.25-.29v0c.64-5.52-.26-7.55-1.12-8.28a1.51,1.51,0,0,0-1.3-.37.27.27,0,0,1-.36-.17.29.29,0,0,1,.17-.36h0a2.07,2.07,0,0,1,1.83.47c1.41,1.19,1.85,4.14,1.32,8.78A.29.29,0,0,1,67.82,41.11Z"/><path class="cls-16" d="M66.09,41.22H66a.28.28,0,0,1-.23-.33,6,6,0,0,0-.68-4.63,4,4,0,0,0-2.38-1.61.28.28,0,0,1-.23-.33.28.28,0,0,1,.33-.23,4.49,4.49,0,0,1,2.74,1.81A6.64,6.64,0,0,1,66.38,41,.28.28,0,0,1,66.09,41.22Z"/><path class="cls-15" d="M44.46,41.64a15,15,0,0,1-4.73,0,.29.29,0,0,1-.2-.32.27.27,0,0,1,.32-.2,18.66,18.66,0,0,0,10.9-1.89.25.25,0,0,1,.34.12h0a.26.26,0,0,1-.12.35A21.73,21.73,0,0,1,44.46,41.64Z"/><path class="cls-8" d="M65.28,46.08c-.39,1.93,0,3.59,1.46,3.88s3-1,3.38-3-.5-3.74-2-4S65.7,44.15,65.28,46.08Z"/><path class="cls-17" d="M68,44.4c-.9-.17-1.48.7-1.71,1.86a2.93,2.93,0,0,0,0,1.5.65.65,0,0,1,.38-.18.66.66,0,0,1,.74.57h0a.68.68,0,0,1-.1.44,2,2,0,0,0,1.89-1.78A1.93,1.93,0,0,0,68,44.4Z"/><circle class="cls-18" cx="33.53" cy="67.08" r="11.35"/><path class="cls-19" d="M44.77,69a12.5,12.5,0,0,0,.16-1.73v-.71a12.31,12.31,0,0,0-.28-2,11.54,11.54,0,0,0-.81-2.29l-.06-.13h0c0-.08-.07-.15-.11-.22a11.3,11.3,0,0,0-1.53-2.27c-.07-.08-.14-.15-.21-.24h0a11.42,11.42,0,0,0-4.62-3h0l-.18-.06h-.2a11.56,11.56,0,0,0-6.77,0,11.26,11.26,0,0,0-3.11,1.53c-.32.23-.64.47-.94.73s-.47.42-.69.65h0l-.05.05-.11.11h0l-.46.53a11.36,11.36,0,0,0-2.6,6.84,12.13,12.13,0,0,0,.08,1.81,11.34,11.34,0,0,0,2.48,5.81l0,.06h0v0h0l.08.1c.15.18.32.36.49.53A11.1,11.1,0,0,0,27,76.47h0c.27.18.55.36.81.51a10.85,10.85,0,0,0,2,.9c.29.1.58.19.87.26l1.16.23a11.46,11.46,0,0,0,6.74-1.06h0l.1,0h.07l.18-.09A11.64,11.64,0,0,0,41.76,75a11.36,11.36,0,0,0,1.81-2.48.2.2,0,0,0,0-.08h0l.12-.24v-.09l0-.08.16-.37h0a.59.59,0,0,1,.09-.2v-.06A11.57,11.57,0,0,0,44.77,69ZM43.63,62.5h0a11.44,11.44,0,0,1,.6,1.7,10.25,10.25,0,0,1,.32,1.74v.43a2.67,2.67,0,0,1,0,.4c-3.24,1.26-10.79,1-12.75.92v0a20.89,20.89,0,0,1,1.44-3.46c.17-.35.36-.7.56-1.05h.05l.81,0,.57,0A18.41,18.41,0,0,0,43.63,62.5ZM30.87,71.69a7.44,7.44,0,0,0,1.05,4.22,7.34,7.34,0,0,1-3.34.56c-.58-.58-1.82-2.29-1.62-6.28.21-4.2,2.56-8.61,3.65-10.46a9.92,9.92,0,0,1,3,3.24c-.24.41-.46.81-.67,1.23a23.33,23.33,0,0,0-1.26,3c-.06.19-.13.39-.19.57l-.05.2h0a14.08,14.08,0,0,0-.58,3.47h0Zm10-12.95h0l.19.18.13.11.08.09.15.15h.05l.19.21,0,.05.2.22a11.21,11.21,0,0,1,1.61,2.42c-.5.17-1,.32-1.45.44a8,8,0,0,0-2.38-4.8,9.81,9.81,0,0,1,1.18.95Zm-3.08-1.91a7.68,7.68,0,0,1,4,5.89,14.57,14.57,0,0,1-2.72.35,15,15,0,0,0-4.12-5.31A7.09,7.09,0,0,0,31,56.3,11.13,11.13,0,0,1,37.77,56.83Zm-9.37.45a5.21,5.21,0,0,1,.47-.24l.57-.25.24-.13a6.46,6.46,0,0,1,5,1.34,14.48,14.48,0,0,1,4,5.07H36.86L36,63l-.81-.07-1-.07H34a9.56,9.56,0,0,0-.61-.95A8.48,8.48,0,0,0,29.87,59H29.8l-.2-.07a5.78,5.78,0,0,0-3.49.1H26a11,11,0,0,1,2.33-1.75Zm-2.95,2.25A7.27,7.27,0,0,1,27.39,59c-2.1,2-3.31,4.43-4,8.1a9.88,9.88,0,0,0,.33,5,11.1,11.1,0,0,1,1.74-12.59ZM28.06,76.4a4.42,4.42,0,0,1-.81-.23A1.2,1.2,0,0,1,27,76l-.31-.24c-.2-.16-.4-.33-.59-.51a6.41,6.41,0,0,1-1.29-1.46,9.47,9.47,0,0,1-1.2-3.54,9.21,9.21,0,0,1,0-2.87,1.85,1.85,0,0,1,0-.23c.72-3.75,2-6.21,4.22-8.19a4.49,4.49,0,0,1,1.77.3,5.59,5.59,0,0,1,.65.32c-1.11,1.87-3.48,6.34-3.7,10.61-.18,3.54.73,5.35,1.46,6.23ZM31.92,78a11,11,0,0,1-3.86-1.3l.37,0h.06a7.59,7.59,0,0,0,3.67-.63h0a11.31,11.31,0,0,0,4.05.46A9.48,9.48,0,0,1,31.93,78Zm6.84-1.2A10.88,10.88,0,0,1,34,78.12h-.69a9.35,9.35,0,0,0,3.56-1.61,22.64,22.64,0,0,0,2.59-.33h.42a10.82,10.82,0,0,1-1.08.67Zm4.57-4.6h0a10.79,10.79,0,0,1-1.78,2.42h0l-.21.22h0l-.19.18h0l-.24.21-.22.19-.1.08c-.11,0-.42.1-.87.18h-.22a20.76,20.76,0,0,1-2.6.33,17.11,17.11,0,0,1-2.48,0,9.11,9.11,0,0,1-2-.41h0a6.11,6.11,0,0,1-1-3.06h0v-.2h0v-.43h0a20.1,20.1,0,0,0,7.57,1.2,14.94,14.94,0,0,0,4.62-.92Zm.49-1v.06c0,.07-.06.13-.08.19a1.47,1.47,0,0,0-.06.14.84.84,0,0,1-.06.14v0a14.47,14.47,0,0,1-4.86,1,19.77,19.77,0,0,1-7.54-1.22A13.45,13.45,0,0,1,31.77,68c1.82.09,9.43.37,12.84-.89v.12A11.06,11.06,0,0,1,43.82,71.23Z"/><path class="cls-20" d="M44.77,69a11.61,11.61,0,0,0-.2-4.73,15,15,0,0,1-21.91,6.22A11.39,11.39,0,0,0,44.77,69Z"/></g></g><path class="cls-21" d="M11.28,127.72,6.55,115.93H9.39l3.06,8.24,3.06-8.24h2.78l-4.74,11.79Z"/><path class="cls-21" d="M30.45,124.82A6.14,6.14,0,0,1,28.22,127a6.33,6.33,0,0,1-3.24.8,6.32,6.32,0,0,1-3.18-.8,5.91,5.91,0,0,1-2.22-2.19,6.08,6.08,0,0,1-.81-3h0a6,6,0,0,1,.81-3,6.14,6.14,0,0,1,2.24-2.2,6.24,6.24,0,0,1,3.19-.81,6.4,6.4,0,0,1,3.18.81,6,6,0,0,1,3,5.22h0A5.86,5.86,0,0,1,30.45,124.82ZM28.11,120a3.46,3.46,0,0,0-1.26-1.34,3.57,3.57,0,0,0-1.83-.5,3.4,3.4,0,0,0-1.81.49A3.45,3.45,0,0,0,22,119.94a3.82,3.82,0,0,0-.45,1.84h0a3.73,3.73,0,0,0,.46,1.85A3.6,3.6,0,0,0,23.23,125a3.64,3.64,0,0,0,3.64,0,3.47,3.47,0,0,0,1.25-1.33,3.87,3.87,0,0,0,.45-1.83h0a3.78,3.78,0,0,0-.46-1.87Z"/><path class="cls-21" d="M33.55,115.93h2.57v9.36H42v2.35H33.55Z"/><path class="cls-21" d="M43.9,115.93h2.57v9.36h5.85v2.35H43.9Z"/><path class="cls-21" d="M54.29,115.93h8.79v2.29H56.81v2.37h5.51v2.29H56.81v2.43h6.38v2.33h-8.9Z"/><path class="cls-21" d="M71.32,127.64H68.75V123l-4.5-7.09h3L70,120.63l2.84-4.69H75.8l-4.5,7Z"/><path class="cls-21" d="M86.2,126.83a5.5,5.5,0,0,1-3.23.81H77.42V115.93h5.44a4.47,4.47,0,0,1,2.83.81,2.68,2.68,0,0,1,1,2.21h0a2.75,2.75,0,0,1-1.54,2.52,3.76,3.76,0,0,1,1.62,1.09,2.68,2.68,0,0,1,.56,1.79v.05A2.74,2.74,0,0,1,86.2,126.83Zm-2.47-8.33a2.15,2.15,0,0,0-1.26-.31H79.93v2.47h2.38a2.6,2.6,0,0,0,1.37-.3,1,1,0,0,0,.49-.93h0A1,1,0,0,0,83.73,118.5Zm.62,4.63a2.59,2.59,0,0,0-1.44-.33h-3v2.57H83a2.45,2.45,0,0,0,1.35-.31,1.05,1.05,0,0,0,.47-1h0A1.09,1.09,0,0,0,84.35,123.13Z"/><path class="cls-21" d="M97.18,125h-5l-1.11,2.63H88.49l5-11.79h2.37l5,11.79H98.21Zm-4.05-2.27h3.12l-1.57-3.8Z"/><path class="cls-21" d="M102.7,115.93h2.57v9.36h5.83v2.35h-8.41Z"/><path class="cls-21" d="M113.05,115.93h2.58v9.36h5.82v2.35H113Z"/></svg>